<svg width="578" height="308" viewBox="0 0 578 308" fill="none" xmlns="http://www.w3.org/2000/svg">
<path d="M9 10.41C3.96 10.41 1.92 12.78 1.92 17.01V20.34H7.74V15.39H5.37V15.27C5.37 13.95 6.18 12.96 9 12.96V10.41ZM18.06 10.41C13.02 10.41 10.98 12.78 10.98 17.01V20.34H16.8V15.39H14.43V15.27C14.43 13.95 15.24 12.96 18.06 12.96V10.41ZM113.797 284.16C118.837 284.16 120.877 281.79 120.877 277.56V274.23H115.057V279.18H117.427V279.3C117.427 280.62 116.617 281.61 113.797 281.61V284.16ZM122.887 284.16C127.927 284.16 129.967 281.79 129.967 277.56V274.23H124.147V279.18H126.517V279.3C126.517 280.62 125.707 281.61 122.887 281.61V284.16Z" fill="white"/>
<path d="M21.003 30H24.603V23.88H29.613C34.353 23.88 36.933 21.42 36.933 17.13C36.933 12.72 34.053 10.26 29.163 10.26H21.003V30ZM24.603 21.33V13.26H29.043C31.923 13.26 33.513 14.7 33.513 17.31C33.513 20.01 32.013 21.33 29.403 21.33H24.603ZM44.8024 30.24C48.0724 30.24 49.8424 28.92 50.3224 26.73H50.3524C50.3524 27.93 50.2624 29.28 50.2024 30H53.5624V20.97C53.5624 17.07 50.9224 14.94 46.4224 14.94C42.1924 14.94 39.6124 16.71 39.6124 19.68C39.6124 19.95 39.6424 20.34 39.6724 20.55H42.7624C42.7324 20.31 42.7324 20.07 42.7324 19.98C42.7324 18.33 44.0224 17.46 46.3024 17.46C48.9124 17.46 50.2024 18.45 50.2024 20.67V21.72H44.7124C40.7524 21.72 39.1624 23.49 39.1624 25.74C39.1624 28.62 41.4124 30.24 44.8024 30.24ZM45.4924 27.72C43.4524 27.72 42.2524 26.94 42.2524 25.59C42.2524 24.42 43.0924 23.76 45.0124 23.76H50.2024V24.03C50.2024 26.31 48.4024 27.72 45.4924 27.72ZM56.6147 30H59.9747V23.52C59.9747 19.98 61.5647 17.82 64.1147 17.82C66.0947 17.82 67.0547 18.99 67.0547 21.48C67.0547 22.17 66.9947 22.92 66.9347 23.49H69.9947C70.0547 22.86 70.1447 21.66 70.1447 20.73C70.1447 17.04 68.3747 14.94 65.1647 14.94C62.1047 14.94 60.5747 16.77 59.8847 19.44H59.8547L59.9747 15.18H56.6147V30ZM79.4559 30.18C80.6859 30.18 81.7059 29.97 82.1559 29.82V27.15C81.7359 27.27 80.7759 27.42 79.9359 27.42C77.8959 27.42 77.1759 26.46 77.1759 24.54V17.91H82.2759V15.18H77.1759V11.82H74.3859L74.2359 14.04C74.1459 14.88 73.9359 15.18 73.3659 15.18H71.4759V17.91H73.8159V24.72C73.8159 27.99 75.4059 30.18 79.4559 30.18ZM84.8806 13.44H88.3306V10.14H84.8806V13.44ZM84.9105 30H88.2706V15.18H84.9105V30ZM98.4375 30.24C102.668 30.24 105.488 27.93 105.488 23.97H102.458C102.428 26.16 100.958 27.48 98.5875 27.48C96.0975 27.48 94.5375 25.62 94.5375 22.59C94.5375 19.53 96.1275 17.7 98.7075 17.7C100.958 17.7 102.398 19.05 102.428 21.27H105.458C105.458 17.34 102.758 14.94 98.6175 14.94C94.1475 14.94 91.1775 17.85 91.1775 22.59C91.1775 27.33 94.0875 30.24 98.4375 30.24ZM108.398 13.44H111.848V10.14H108.398V13.44ZM108.428 30H111.788V15.18H108.428V30ZM115.235 35.94H118.595V30.12C118.595 29.52 118.535 27.99 118.505 27H118.535C119.165 28.92 121.085 30.24 124.025 30.24C128.285 30.24 130.985 27.12 130.985 22.32C130.985 17.85 128.315 14.94 124.085 14.94C121.145 14.94 119.165 16.38 118.565 18.63H118.535L118.595 15.18H115.235V35.94ZM123.365 27.48C120.485 27.48 118.595 25.86 118.595 23.34V22.56C118.655 19.59 120.515 17.7 123.305 17.7C125.975 17.7 127.625 19.56 127.625 22.41C127.625 25.5 125.945 27.48 123.365 27.48ZM138.188 30.24C141.458 30.24 143.228 28.92 143.708 26.73H143.738C143.738 27.93 143.648 29.28 143.588 30H146.948V20.97C146.948 17.07 144.308 14.94 139.808 14.94C135.578 14.94 132.998 16.71 132.998 19.68C132.998 19.95 133.028 20.34 133.058 20.55H136.148C136.118 20.31 136.118 20.07 136.118 19.98C136.118 18.33 137.408 17.46 139.688 17.46C142.298 17.46 143.588 18.45 143.588 20.67V21.72H138.098C134.138 21.72 132.548 23.49 132.548 25.74C132.548 28.62 134.798 30.24 138.188 30.24ZM138.878 27.72C136.838 27.72 135.638 26.94 135.638 25.59C135.638 24.42 136.478 23.76 138.398 23.76H143.588V24.03C143.588 26.31 141.788 27.72 138.878 27.72ZM150.001 30H153.361V23.52C153.361 19.98 154.951 17.82 157.501 17.82C159.481 17.82 160.441 18.99 160.441 21.48C160.441 22.17 160.381 22.92 160.321 23.49H163.381C163.441 22.86 163.531 21.66 163.531 20.73C163.531 17.04 161.761 14.94 158.551 14.94C155.491 14.94 153.961 16.77 153.271 19.44H153.241L153.361 15.18H150.001V30ZM179.531 30.24C182.561 30.24 184.421 28.74 184.991 26.4H185.051C184.991 27.84 184.961 29.13 184.901 30H188.261V9.21H184.901V17.79H184.871C184.271 16.05 182.531 14.94 179.741 14.94C175.331 14.94 172.541 18.03 172.541 22.5C172.541 27.12 175.241 30.24 179.531 30.24ZM180.221 27.48C177.581 27.48 175.871 25.44 175.871 22.5C175.871 19.68 177.611 17.7 180.281 17.7C183.071 17.7 184.901 19.38 184.901 22.02V22.74C184.901 25.62 183.041 27.48 180.221 27.48ZM198.837 30.24C203.577 30.24 206.607 27.33 206.607 22.62C206.607 17.88 203.577 14.94 198.837 14.94C194.127 14.94 191.097 17.88 191.097 22.62C191.097 27.33 194.127 30.24 198.837 30.24ZM198.837 27.48C196.107 27.48 194.457 25.62 194.457 22.62C194.457 19.59 196.107 17.7 198.837 17.7C201.567 17.7 203.247 19.59 203.247 22.62C203.247 25.62 201.567 27.48 198.837 27.48ZM222.66 30.18C223.89 30.18 224.91 29.97 225.36 29.82V27.15C224.94 27.27 223.98 27.42 223.14 27.42C221.1 27.42 220.38 26.46 220.38 24.54V17.91H225.48V15.18H220.38V11.82H217.59L217.44 14.04C217.35 14.88 217.14 15.18 216.57 15.18H214.68V17.91H217.02V24.72C217.02 27.99 218.61 30.18 222.66 30.18ZM228.085 13.44H231.535V10.14H228.085V13.44ZM228.115 30H231.475V15.18H228.115V30ZM234.832 30H238.192V22.77C238.192 19.59 239.722 17.82 242.002 17.82C244.012 17.82 245.122 19.14 245.122 21.24V30H248.482V22.65C248.482 19.56 249.982 17.82 252.322 17.82C254.332 17.82 255.382 19.14 255.382 21.3V30H258.742V20.55C258.742 17.07 256.852 14.94 253.552 14.94C250.732 14.94 248.932 16.44 248.392 18.84H248.362C248.002 16.44 246.142 14.94 243.262 14.94C240.562 14.94 238.762 16.53 238.102 19.08H238.072L238.192 15.18H234.832V30ZM275.836 22.05C275.836 17.43 273.166 14.94 268.966 14.94C264.286 14.94 261.346 17.91 261.346 22.71C261.346 27.36 264.286 30.24 268.966 30.24C273.016 30.24 275.716 28.23 275.836 24.93H272.806C272.656 26.67 271.186 27.63 269.026 27.63C266.506 27.63 264.916 26.1 264.736 23.25H275.836V22.05ZM272.806 21.21H264.826C265.216 18.75 266.686 17.55 268.996 17.55C271.426 17.55 272.806 18.78 272.806 21V21.21ZM285.583 30H288.973L288.943 13.26H288.973L299.503 30H303.763V10.26H300.373L300.433 25.26H300.373L290.983 10.26H285.583V30ZM316.569 30.3C320.169 30.3 322.389 28.74 322.989 26.46H323.019C322.989 27.81 322.899 29.22 322.839 30H325.839V20.28H316.239V22.56H322.359V23.01C322.359 25.68 320.019 27.51 316.869 27.51C313.299 27.51 310.389 24.78 310.389 20.37C310.389 15.81 313.209 12.96 317.019 12.96C320.049 12.96 322.449 14.55 322.449 17.34C322.449 17.61 322.449 17.94 322.419 18.3H325.629C325.659 17.94 325.689 17.46 325.689 17.13C325.689 12.63 321.939 9.96 316.959 9.96C311.139 9.96 306.759 14.01 306.759 20.34C306.759 26.52 310.929 30.3 316.569 30.3ZM329.616 30H333.006V26.1H329.616V30ZM346.452 30.3C351.672 30.3 355.392 27.24 355.392 22.77V22.08H352.182V22.56C352.182 25.41 349.872 27.3 346.572 27.3C342.852 27.3 339.972 24.57 339.972 20.16C339.972 15.75 342.732 12.96 346.572 12.96C349.752 12.96 352.122 14.88 352.122 17.91C352.122 18.06 352.122 18.3 352.092 18.57H355.272C355.302 18.21 355.332 17.82 355.332 17.61C355.332 13.05 351.642 9.96 346.452 9.96C340.512 9.96 336.312 13.86 336.312 20.16C336.312 26.43 340.572 30.3 346.452 30.3ZM372.52 30H376.69L368.68 10.26H364.3L356.26 30H359.98L361.66 25.56H370.87L372.52 30ZM362.56 23.16L366.25 13.32H366.31L369.97 23.16H362.56ZM385.953 30.3C392.673 30.3 394.533 27.33 394.533 24.15C394.533 22.32 393.753 20.94 392.403 20.25C391.173 19.59 389.253 19.26 387.183 18.93C385.473 18.69 383.253 18.33 382.383 17.91C381.603 17.55 381.213 16.89 381.213 15.78C381.213 13.98 382.983 12.75 385.953 12.75C389.043 12.75 390.633 14.13 390.633 17.04H393.873C393.873 12.54 391.743 9.96 385.893 9.96C380.733 9.96 377.643 12.48 377.643 16.08C377.643 17.94 378.393 19.29 379.593 20.04C380.673 20.73 382.773 21.18 384.753 21.45C386.463 21.69 388.593 21.96 389.583 22.35C390.513 22.68 390.963 23.31 390.963 24.39C390.963 26.01 389.943 27.51 385.923 27.51C382.143 27.51 380.943 25.77 380.943 23.25H377.703C377.703 26.85 379.413 30.3 385.953 30.3ZM397.562 30H401.162V21.21H411.662V30H415.232V10.26H411.662V18.33H401.162V10.26H397.562V30ZM436.599 9.45H433.089L430.749 13.65H433.389L436.599 9.45ZM439.479 22.05C439.479 17.43 436.809 14.94 432.609 14.94C427.929 14.94 424.989 17.91 424.989 22.71C424.989 27.36 427.929 30.24 432.609 30.24C436.659 30.24 439.359 28.23 439.479 24.93H436.449C436.299 26.67 434.829 27.63 432.669 27.63C430.149 27.63 428.559 26.1 428.379 23.25H439.479V22.05ZM436.449 21.21H428.469C428.859 18.75 430.329 17.55 432.639 17.55C435.069 17.55 436.449 18.78 436.449 21V21.21ZM455.586 30.18C456.816 30.18 457.836 29.97 458.286 29.82V27.15C457.866 27.27 456.906 27.42 456.066 27.42C454.026 27.42 453.306 26.46 453.306 24.54V17.91H458.406V15.18H453.306V11.82H450.516L450.366 14.04C450.276 14.88 450.066 15.18 449.496 15.18H447.606V17.91H449.946V24.72C449.946 27.99 451.536 30.18 455.586 30.18ZM474.375 22.05C474.375 17.43 471.705 14.94 467.505 14.94C462.825 14.94 459.885 17.91 459.885 22.71C459.885 27.36 462.825 30.24 467.505 30.24C471.555 30.24 474.255 28.23 474.375 24.93H471.345C471.195 26.67 469.725 27.63 467.565 27.63C465.045 27.63 463.455 26.1 463.275 23.25H474.375V22.05ZM471.345 21.21H463.365C463.755 18.75 465.225 17.55 467.535 17.55C469.965 17.55 471.345 18.78 471.345 21V21.21ZM477.132 30H480.492V23.52C480.492 19.98 482.082 17.82 484.632 17.82C486.612 17.82 487.572 18.99 487.572 21.48C487.572 22.17 487.512 22.92 487.452 23.49H490.512C490.572 22.86 490.662 21.66 490.662 20.73C490.662 17.04 488.892 14.94 485.682 14.94C482.622 14.94 481.092 16.77 480.402 19.44H480.372L480.492 15.18H477.132V30ZM505.343 30.24C508.613 30.24 510.383 28.92 510.863 26.73H510.893C510.893 27.93 510.803 29.28 510.743 30H514.103V20.97C514.103 17.07 511.463 14.94 506.963 14.94C502.733 14.94 500.153 16.71 500.153 19.68C500.153 19.95 500.183 20.34 500.213 20.55H503.303C503.273 20.31 503.273 20.07 503.273 19.98C503.273 18.33 504.563 17.46 506.843 17.46C509.453 17.46 510.743 18.45 510.743 20.67V21.72H505.253C501.293 21.72 499.703 23.49 499.703 25.74C499.703 28.62 501.953 30.24 505.343 30.24ZM506.033 27.72C503.993 27.72 502.793 26.94 502.793 25.59C502.793 24.42 503.633 23.76 505.553 23.76H510.743V24.03C510.743 26.31 508.943 27.72 506.033 27.72ZM8.97 74.24C13.71 74.24 16.74 71.33 16.74 66.62C16.74 61.88 13.71 58.94 8.97 58.94C4.26 58.94 1.23 61.88 1.23 66.62C1.23 71.33 4.26 74.24 8.97 74.24ZM8.97 71.48C6.24 71.48 4.59 69.62 4.59 66.62C4.59 63.59 6.24 61.7 8.97 61.7C11.7 61.7 13.38 63.59 13.38 66.62C13.38 69.62 11.7 71.48 8.97 71.48ZM19.5347 79.94H22.8947V74.12C22.8947 73.52 22.8347 71.99 22.8047 71H22.8347C23.4647 72.92 25.3847 74.24 28.3247 74.24C32.5847 74.24 35.2847 71.12 35.2847 66.32C35.2847 61.85 32.6147 58.94 28.3847 58.94C25.4447 58.94 23.4647 60.38 22.8647 62.63H22.8347L22.8947 59.18H19.5347V79.94ZM27.6647 71.48C24.7847 71.48 22.8947 69.86 22.8947 67.34V66.56C22.9547 63.59 24.8147 61.7 27.6047 61.7C30.2747 61.7 31.9247 63.56 31.9247 66.41C31.9247 69.5 30.2447 71.48 27.6647 71.48ZM45.3197 74.24C50.0597 74.24 53.0897 71.33 53.0897 66.62C53.0897 61.88 50.0597 58.94 45.3197 58.94C40.6097 58.94 37.5797 61.88 37.5797 66.62C37.5797 71.33 40.6097 74.24 45.3197 74.24ZM45.3197 71.48C42.5897 71.48 40.9397 69.62 40.9397 66.62C40.9397 63.59 42.5897 61.7 45.3197 61.7C48.0497 61.7 49.7297 63.59 49.7297 66.62C49.7297 69.62 48.0497 71.48 45.3197 71.48ZM55.7944 74H59.1544V67.52C59.1544 63.98 60.7444 61.82 63.2944 61.82C65.2744 61.82 66.2344 62.99 66.2344 65.48C66.2344 66.17 66.1744 66.92 66.1144 67.49H69.1744C69.2344 66.86 69.3244 65.66 69.3244 64.73C69.3244 61.04 67.5544 58.94 64.3444 58.94C61.2844 58.94 59.7544 60.77 59.0644 63.44H59.0344L59.1544 59.18H55.7944V74ZM78.6356 74.18C79.8656 74.18 80.8856 73.97 81.3356 73.82V71.15C80.9156 71.27 79.9556 71.42 79.1156 71.42C77.0756 71.42 76.3556 70.46 76.3556 68.54V61.91H81.4556V59.18H76.3556V55.82H73.5656L73.4156 58.04C73.3256 58.88 73.1156 59.18 72.5456 59.18H70.6556V61.91H72.9956V68.72C72.9956 71.99 74.5856 74.18 78.6356 74.18ZM90.0602 74.24C93.3602 74.24 95.4302 72.68 96.0602 69.86H96.0902C96.0902 71.42 96.0302 73.01 95.9402 74H99.3002V59.18H95.9402V65.75C95.9402 69.35 94.0502 71.36 91.0502 71.36C88.6202 71.36 87.1802 70.04 87.1802 67.7V59.18H83.8202V68.18C83.8202 72.11 86.1902 74.24 90.0602 74.24ZM102.497 74H105.857V66.83C105.857 63.59 107.717 61.82 110.657 61.82C113.327 61.82 114.647 63.14 114.647 65.48V74H118.007V64.73C118.007 61.07 115.697 58.94 111.947 58.94C108.497 58.94 106.577 60.47 105.767 63.14H105.737L105.857 59.18H102.497V74ZM121.142 57.44H124.592V54.14H121.142V57.44ZM121.172 74H124.532V59.18H121.172V74ZM134.429 74.24C137.459 74.24 139.319 72.74 139.889 70.4H139.949C139.889 71.84 139.859 73.13 139.799 74H143.159V53.21H139.799V61.79H139.769C139.169 60.05 137.429 58.94 134.639 58.94C130.229 58.94 127.439 62.03 127.439 66.5C127.439 71.12 130.139 74.24 134.429 74.24ZM135.119 71.48C132.479 71.48 130.769 69.44 130.769 66.5C130.769 63.68 132.509 61.7 135.179 61.7C137.969 61.7 139.799 63.38 139.799 66.02V66.74C139.799 69.62 137.939 71.48 135.119 71.48ZM151.665 74.24C154.935 74.24 156.705 72.92 157.185 70.73H157.215C157.215 71.93 157.125 73.28 157.065 74H160.425V64.97C160.425 61.07 157.785 58.94 153.285 58.94C149.055 58.94 146.475 60.71 146.475 63.68C146.475 63.95 146.505 64.34 146.535 64.55H149.625C149.595 64.31 149.595 64.07 149.595 63.98C149.595 62.33 150.885 61.46 153.165 61.46C155.775 61.46 157.065 62.45 157.065 64.67V65.72H151.575C147.615 65.72 146.025 67.49 146.025 69.74C146.025 72.62 148.275 74.24 151.665 74.24ZM152.355 71.72C150.315 71.72 149.115 70.94 149.115 69.59C149.115 68.42 149.955 67.76 151.875 67.76H157.065V68.03C157.065 70.31 155.265 71.72 152.355 71.72ZM170.017 74.24C173.047 74.24 174.907 72.74 175.477 70.4H175.537C175.477 71.84 175.447 73.13 175.387 74H178.747V53.21H175.387V61.79H175.357C174.757 60.05 173.017 58.94 170.227 58.94C165.817 58.94 163.027 62.03 163.027 66.5C163.027 71.12 165.727 74.24 170.017 74.24ZM170.707 71.48C168.067 71.48 166.357 69.44 166.357 66.5C166.357 63.68 168.097 61.7 170.767 61.7C173.557 61.7 175.387 63.38 175.387 66.02V66.74C175.387 69.62 173.527 71.48 170.707 71.48ZM196.073 66.05C196.073 61.43 193.403 58.94 189.203 58.94C184.523 58.94 181.583 61.91 181.583 66.71C181.583 71.36 184.523 74.24 189.203 74.24C193.253 74.24 195.953 72.23 196.073 68.93H193.043C192.893 70.67 191.423 71.63 189.263 71.63C186.743 71.63 185.153 70.1 184.973 67.25H196.073V66.05ZM193.043 65.21H185.063C185.453 62.75 186.923 61.55 189.233 61.55C191.663 61.55 193.043 62.78 193.043 65V65.21ZM212.12 74.24C215.15 74.24 217.01 72.74 217.58 70.4H217.64C217.58 71.84 217.55 73.13 217.49 74H220.85V53.21H217.49V61.79H217.46C216.86 60.05 215.12 58.94 212.33 58.94C207.92 58.94 205.13 62.03 205.13 66.5C205.13 71.12 207.83 74.24 212.12 74.24ZM212.81 71.48C210.17 71.48 208.46 69.44 208.46 66.5C208.46 63.68 210.2 61.7 212.87 61.7C215.66 61.7 217.49 63.38 217.49 66.02V66.74C217.49 69.62 215.63 71.48 212.81 71.48ZM238.176 66.05C238.176 61.43 235.506 58.94 231.306 58.94C226.626 58.94 223.686 61.91 223.686 66.71C223.686 71.36 226.626 74.24 231.306 74.24C235.356 74.24 238.056 72.23 238.176 68.93H235.146C234.996 70.67 233.526 71.63 231.366 71.63C228.846 71.63 227.256 70.1 227.076 67.25H238.176V66.05ZM235.146 65.21H227.166C227.556 62.75 229.026 61.55 231.336 61.55C233.766 61.55 235.146 62.78 235.146 65V65.21ZM252.903 74.24C256.173 74.24 257.943 72.92 258.423 70.73H258.453C258.453 71.93 258.363 73.28 258.303 74H261.663V64.97C261.663 61.07 259.023 58.94 254.523 58.94C250.293 58.94 247.713 60.71 247.713 63.68C247.713 63.95 247.743 64.34 247.773 64.55H250.863C250.833 64.31 250.833 64.07 250.833 63.98C250.833 62.33 252.123 61.46 254.403 61.46C257.013 61.46 258.303 62.45 258.303 64.67V65.72H252.813C248.853 65.72 247.263 67.49 247.263 69.74C247.263 72.62 249.513 74.24 252.903 74.24ZM253.593 71.72C251.553 71.72 250.353 70.94 250.353 69.59C250.353 68.42 251.193 67.76 253.113 67.76H258.303V68.03C258.303 70.31 256.503 71.72 253.593 71.72ZM264.805 79.94H268.165V74.12C268.165 73.52 268.105 71.99 268.075 71H268.105C268.735 72.92 270.655 74.24 273.595 74.24C277.855 74.24 280.555 71.12 280.555 66.32C280.555 61.85 277.885 58.94 273.655 58.94C270.715 58.94 268.735 60.38 268.135 62.63H268.105L268.165 59.18H264.805V79.94ZM272.935 71.48C270.055 71.48 268.165 69.86 268.165 67.34V66.56C268.225 63.59 270.085 61.7 272.875 61.7C275.545 61.7 277.195 63.56 277.195 66.41C277.195 69.5 275.515 71.48 272.935 71.48ZM283.3 74H286.66V67.52C286.66 63.98 288.25 61.82 290.8 61.82C292.78 61.82 293.74 62.99 293.74 65.48C293.74 66.17 293.68 66.92 293.62 67.49H296.68C296.74 66.86 296.83 65.66 296.83 64.73C296.83 61.04 295.06 58.94 291.85 58.94C288.79 58.94 287.26 60.77 286.57 63.44H286.54L286.66 59.18H283.3V74ZM313.581 66.05C313.581 61.43 310.911 58.94 306.711 58.94C302.031 58.94 299.091 61.91 299.091 66.71C299.091 71.36 302.031 74.24 306.711 74.24C310.761 74.24 313.461 72.23 313.581 68.93H310.551C310.401 70.67 308.931 71.63 306.771 71.63C304.251 71.63 302.661 70.1 302.481 67.25H313.581V66.05ZM310.551 65.21H302.571C302.961 62.75 304.431 61.55 306.741 61.55C309.171 61.55 310.551 62.78 310.551 65V65.21ZM316.339 74H319.699V66.83C319.699 63.59 321.559 61.82 324.499 61.82C327.169 61.82 328.489 63.14 328.489 65.48V74H331.849V64.73C331.849 61.07 329.539 58.94 325.789 58.94C322.339 58.94 320.419 60.47 319.609 63.14H319.579L319.699 59.18H316.339V74ZM341.435 74.24C344.465 74.24 346.325 72.74 346.895 70.4H346.955C346.895 71.84 346.865 73.13 346.805 74H350.165V53.21H346.805V61.79H346.775C346.175 60.05 344.435 58.94 341.645 58.94C337.235 58.94 334.445 62.03 334.445 66.5C334.445 71.12 337.145 74.24 341.435 74.24ZM342.125 71.48C339.485 71.48 337.775 69.44 337.775 66.5C337.775 63.68 339.515 61.7 342.185 61.7C344.975 61.7 346.805 63.38 346.805 66.02V66.74C346.805 69.62 344.945 71.48 342.125 71.48ZM367.49 66.05C367.49 61.43 364.82 58.94 360.62 58.94C355.94 58.94 353 61.91 353 66.71C353 71.36 355.94 74.24 360.62 74.24C364.67 74.24 367.37 72.23 367.49 68.93H364.46C364.31 70.67 362.84 71.63 360.68 71.63C358.16 71.63 356.57 70.1 356.39 67.25H367.49V66.05ZM364.46 65.21H356.48C356.87 62.75 358.34 61.55 360.65 61.55C363.08 61.55 364.46 62.78 364.46 65V65.21ZM370.248 74H373.608V67.52C373.608 63.98 375.198 61.82 377.748 61.82C379.728 61.82 380.688 62.99 380.688 65.48C380.688 66.17 380.628 66.92 380.568 67.49H383.628C383.688 66.86 383.778 65.66 383.778 64.73C383.778 61.04 382.008 58.94 378.798 58.94C375.738 58.94 374.208 60.77 373.518 63.44H373.488L373.608 59.18H370.248V74ZM407.279 66.05C407.279 61.43 404.609 58.94 400.409 58.94C395.729 58.94 392.789 61.91 392.789 66.71C392.789 71.36 395.729 74.24 400.409 74.24C404.459 74.24 407.159 72.23 407.279 68.93H404.249C404.099 70.67 402.629 71.63 400.469 71.63C397.949 71.63 396.359 70.1 396.179 67.25H407.279V66.05ZM404.249 65.21H396.269C396.659 62.75 398.129 61.55 400.439 61.55C402.869 61.55 404.249 62.78 404.249 65V65.21ZM423.596 74.24C427.826 74.24 430.646 71.93 430.646 67.97H427.616C427.586 70.16 426.116 71.48 423.746 71.48C421.256 71.48 419.696 69.62 419.696 66.59C419.696 63.53 421.286 61.7 423.866 61.7C426.116 61.7 427.556 63.05 427.586 65.27H430.616C430.616 61.34 427.916 58.94 423.776 58.94C419.306 58.94 416.336 61.85 416.336 66.59C416.336 71.33 419.246 74.24 423.596 74.24ZM433.466 74H436.826V67.52C436.826 63.98 438.416 61.82 440.966 61.82C442.946 61.82 443.906 62.99 443.906 65.48C443.906 66.17 443.846 66.92 443.786 67.49H446.846C446.906 66.86 446.996 65.66 446.996 64.73C446.996 61.04 445.226 58.94 442.016 58.94C438.956 58.94 437.426 60.77 436.736 63.44H436.706L436.826 59.18H433.466V74ZM449.797 57.44H453.247V54.14H449.797V57.44ZM449.827 74H453.187V59.18H449.827V74ZM461.764 74.24C465.034 74.24 466.804 72.92 467.284 70.73H467.314C467.314 71.93 467.224 73.28 467.164 74H470.524V64.97C470.524 61.07 467.884 58.94 463.384 58.94C459.154 58.94 456.574 60.71 456.574 63.68C456.574 63.95 456.604 64.34 456.634 64.55H459.724C459.694 64.31 459.694 64.07 459.694 63.98C459.694 62.33 460.984 61.46 463.264 61.46C465.874 61.46 467.164 62.45 467.164 64.67V65.72H461.674C457.714 65.72 456.124 67.49 456.124 69.74C456.124 72.62 458.374 74.24 461.764 74.24ZM462.454 71.72C460.414 71.72 459.214 70.94 459.214 69.59C459.214 68.42 460.054 67.76 461.974 67.76H467.164V68.03C467.164 70.31 465.364 71.72 462.454 71.72ZM473.577 74H476.937V67.52C476.937 63.98 478.527 61.82 481.077 61.82C483.057 61.82 484.017 62.99 484.017 65.48C484.017 66.17 483.957 66.92 483.897 67.49H486.957C487.017 66.86 487.107 65.66 487.107 64.73C487.107 61.04 485.337 58.94 482.127 58.94C479.067 58.94 477.537 60.77 476.847 63.44H476.817L476.937 59.18H473.577V74ZM8.49 118.24C12.72 118.24 15.54 115.93 15.54 111.97H12.51C12.48 114.16 11.01 115.48 8.64 115.48C6.15 115.48 4.59 113.62 4.59 110.59C4.59 107.53 6.18 105.7 8.76 105.7C11.01 105.7 12.45 107.05 12.48 109.27H15.51C15.51 105.34 12.81 102.94 8.67 102.94C4.2 102.94 1.23 105.85 1.23 110.59C1.23 115.33 4.14 118.24 8.49 118.24ZM25.6507 118.24C30.3907 118.24 33.4207 115.33 33.4207 110.62C33.4207 105.88 30.3907 102.94 25.6507 102.94C20.9407 102.94 17.9107 105.88 17.9107 110.62C17.9107 115.33 20.9407 118.24 25.6507 118.24ZM25.6507 115.48C22.9207 115.48 21.2707 113.62 21.2707 110.62C21.2707 107.59 22.9207 105.7 25.6507 105.7C28.3807 105.7 30.0607 107.59 30.0607 110.62C30.0607 113.62 28.3807 115.48 25.6507 115.48ZM36.2154 101.44H39.6654V98.14H36.2154V101.44ZM36.2454 118H39.6054V103.18H36.2454V118ZM49.4423 118.24C54.1823 118.24 56.7023 116.47 56.7023 113.47C56.7023 112.27 56.1323 111.13 55.1423 110.59C54.0923 109.99 52.8923 109.78 50.7923 109.57C48.9923 109.39 47.5823 109.24 46.8623 109C45.9923 108.7 45.8423 108.1 45.8423 107.47C45.8423 106.21 47.1623 105.37 49.5023 105.37C51.9623 105.37 53.0123 106.3 53.0423 108.22H56.0723C56.0723 104.86 54.0323 102.94 49.4123 102.94C45.3923 102.94 42.5123 104.74 42.5123 107.71C42.5123 108.85 42.9923 109.93 43.8023 110.53C44.7023 111.19 46.2623 111.49 48.5723 111.7C50.2223 111.85 51.6323 112 52.3523 112.27C53.1323 112.54 53.3423 113.05 53.3423 113.62C53.3423 114.97 52.1423 115.81 49.4123 115.81C46.5323 115.81 45.5423 114.76 45.5423 113.05H42.5123C42.5123 115.96 44.3423 118.24 49.4423 118.24ZM64.658 118.24C67.928 118.24 69.698 116.92 70.178 114.73H70.208C70.208 115.93 70.118 117.28 70.058 118H73.418V108.97C73.418 105.07 70.778 102.94 66.278 102.94C62.048 102.94 59.468 104.71 59.468 107.68C59.468 107.95 59.498 108.34 59.528 108.55H62.618C62.588 108.31 62.588 108.07 62.588 107.98C62.588 106.33 63.878 105.46 66.158 105.46C68.768 105.46 70.058 106.45 70.058 108.67V109.72H64.568C60.608 109.72 59.018 111.49 59.018 113.74C59.018 116.62 61.268 118.24 64.658 118.24ZM65.348 115.72C63.308 115.72 62.108 114.94 62.108 113.59C62.108 112.42 62.948 111.76 64.868 111.76H70.058V112.03C70.058 114.31 68.258 115.72 65.348 115.72ZM82.9502 118.24C87.6902 118.24 90.2102 116.47 90.2102 113.47C90.2102 112.27 89.6402 111.13 88.6502 110.59C87.6002 109.99 86.4002 109.78 84.3002 109.57C82.5002 109.39 81.0902 109.24 80.3702 109C79.5002 108.7 79.3502 108.1 79.3502 107.47C79.3502 106.21 80.6702 105.37 83.0102 105.37C85.4702 105.37 86.5202 106.3 86.5502 108.22H89.5802C89.5802 104.86 87.5402 102.94 82.9202 102.94C78.9002 102.94 76.0202 104.74 76.0202 107.71C76.0202 108.85 76.5002 109.93 77.3102 110.53C78.2102 111.19 79.7702 111.49 82.0802 111.7C83.7302 111.85 85.1402 112 85.8602 112.27C86.6402 112.54 86.8502 113.05 86.8502 113.62C86.8502 114.97 85.6502 115.81 82.9202 115.81C80.0402 115.81 79.0502 114.76 79.0502 113.05H76.0202C76.0202 115.96 77.8502 118.24 82.9502 118.24ZM99.6949 118H103.055V110.83C103.055 107.59 104.915 105.82 107.855 105.82C110.525 105.82 111.845 107.14 111.845 109.48V118H115.205V108.73C115.205 105.07 112.895 102.94 109.145 102.94C105.695 102.94 103.775 104.47 102.965 107.14H102.935L103.055 103.18H99.6949V118ZM125.541 118.24C130.281 118.24 133.311 115.33 133.311 110.62C133.311 105.88 130.281 102.94 125.541 102.94C120.831 102.94 117.801 105.88 117.801 110.62C117.801 115.33 120.831 118.24 125.541 118.24ZM125.541 115.48C122.811 115.48 121.161 113.62 121.161 110.62C121.161 107.59 122.811 105.7 125.541 105.7C128.271 105.7 129.951 107.59 129.951 110.62C129.951 113.62 128.271 115.48 125.541 115.48ZM140.536 118H144.526L150.946 103.18H147.436L142.726 114.85H142.666L138.016 103.18H134.086L140.536 118ZM157.594 118.24C160.864 118.24 162.634 116.92 163.114 114.73H163.144C163.144 115.93 163.054 117.28 162.994 118H166.354V108.97C166.354 105.07 163.714 102.94 159.214 102.94C154.984 102.94 152.404 104.71 152.404 107.68C152.404 107.95 152.434 108.34 152.464 108.55H155.554C155.524 108.31 155.524 108.07 155.524 107.98C155.524 106.33 156.814 105.46 159.094 105.46C161.704 105.46 162.994 106.45 162.994 108.67V109.72H157.504C153.544 109.72 151.954 111.49 151.954 113.74C151.954 116.62 154.204 118.24 157.594 118.24ZM158.284 115.72C156.244 115.72 155.044 114.94 155.044 113.59C155.044 112.42 155.884 111.76 157.804 111.76H162.994V112.03C162.994 114.31 161.194 115.72 158.284 115.72ZM175.886 118.24C180.626 118.24 183.146 116.47 183.146 113.47C183.146 112.27 182.576 111.13 181.586 110.59C180.536 109.99 179.336 109.78 177.236 109.57C175.436 109.39 174.026 109.24 173.306 109C172.436 108.7 172.286 108.1 172.286 107.47C172.286 106.21 173.606 105.37 175.946 105.37C178.406 105.37 179.456 106.3 179.486 108.22H182.516C182.516 104.86 180.476 102.94 175.856 102.94C171.836 102.94 168.956 104.74 168.956 107.71C168.956 108.85 169.436 109.93 170.246 110.53C171.146 111.19 172.706 111.49 175.016 111.7C176.666 111.85 178.076 112 178.796 112.27C179.576 112.54 179.786 113.05 179.786 113.62C179.786 114.97 178.586 115.81 175.856 115.81C172.976 115.81 171.986 114.76 171.986 113.05H168.956C168.956 115.96 170.786 118.24 175.886 118.24ZM199.231 118.18C200.461 118.18 201.481 117.97 201.931 117.82V115.15C201.511 115.27 200.551 115.42 199.711 115.42C197.671 115.42 196.951 114.46 196.951 112.54V105.91H202.051V103.18H196.951V99.82H194.161L194.011 102.04C193.921 102.88 193.711 103.18 193.141 103.18H191.251V105.91H193.591V112.72C193.591 115.99 195.181 118.18 199.231 118.18ZM211.269 118.24C216.009 118.24 219.039 115.33 219.039 110.62C219.039 105.88 216.009 102.94 211.269 102.94C206.559 102.94 203.529 105.88 203.529 110.62C203.529 115.33 206.559 118.24 211.269 118.24ZM211.269 115.48C208.539 115.48 206.889 113.62 206.889 110.62C206.889 107.59 208.539 105.7 211.269 105.7C213.999 105.7 215.679 107.59 215.679 110.62C215.679 113.62 213.999 115.48 211.269 115.48ZM228.284 118.24C231.314 118.24 233.174 116.74 233.744 114.4H233.804C233.744 115.84 233.714 117.13 233.654 118H237.014V97.21H233.654V105.79H233.624C233.024 104.05 231.284 102.94 228.494 102.94C224.084 102.94 221.294 106.03 221.294 110.5C221.294 115.12 223.994 118.24 228.284 118.24ZM228.974 115.48C226.334 115.48 224.624 113.44 224.624 110.5C224.624 107.68 226.364 105.7 229.034 105.7C231.824 105.7 233.654 107.38 233.654 110.02V110.74C233.654 113.62 231.794 115.48 228.974 115.48ZM247.59 118.24C252.33 118.24 255.36 115.33 255.36 110.62C255.36 105.88 252.33 102.94 247.59 102.94C242.88 102.94 239.85 105.88 239.85 110.62C239.85 115.33 242.88 118.24 247.59 118.24ZM247.59 115.48C244.86 115.48 243.21 113.62 243.21 110.62C243.21 107.59 244.86 105.7 247.59 105.7C250.32 105.7 252 107.59 252 110.62C252 113.62 250.32 115.48 247.59 115.48ZM264.369 118.24C269.109 118.24 271.629 116.47 271.629 113.47C271.629 112.27 271.059 111.13 270.069 110.59C269.019 109.99 267.819 109.78 265.719 109.57C263.919 109.39 262.509 109.24 261.789 109C260.919 108.7 260.769 108.1 260.769 107.47C260.769 106.21 262.089 105.37 264.429 105.37C266.889 105.37 267.939 106.3 267.969 108.22H270.999C270.999 104.86 268.959 102.94 264.339 102.94C260.319 102.94 257.439 104.74 257.439 107.71C257.439 108.85 257.919 109.93 258.729 110.53C259.629 111.19 261.189 111.49 263.499 111.7C265.149 111.85 266.559 112 267.279 112.27C268.059 112.54 268.269 113.05 268.269 113.62C268.269 114.97 267.069 115.81 264.339 115.81C261.459 115.81 260.469 114.76 260.469 113.05H257.439C257.439 115.96 259.269 118.24 264.369 118.24ZM288.403 118.24C293.143 118.24 296.173 115.33 296.173 110.62C296.173 105.88 293.143 102.94 288.403 102.94C283.693 102.94 280.663 105.88 280.663 110.62C280.663 115.33 283.693 118.24 288.403 118.24ZM288.403 115.48C285.673 115.48 284.023 113.62 284.023 110.62C284.023 107.59 285.673 105.7 288.403 105.7C291.133 105.7 292.813 107.59 292.813 110.62C292.813 113.62 291.133 115.48 288.403 115.48ZM305.182 118.24C309.922 118.24 312.442 116.47 312.442 113.47C312.442 112.27 311.872 111.13 310.882 110.59C309.832 109.99 308.632 109.78 306.532 109.57C304.732 109.39 303.322 109.24 302.602 109C301.732 108.7 301.582 108.1 301.582 107.47C301.582 106.21 302.902 105.37 305.242 105.37C307.702 105.37 308.752 106.3 308.782 108.22H311.812C311.812 104.86 309.772 102.94 305.152 102.94C301.132 102.94 298.252 104.74 298.252 107.71C298.252 108.85 298.732 109.93 299.542 110.53C300.442 111.19 302.002 111.49 304.312 111.7C305.962 111.85 307.372 112 308.092 112.27C308.872 112.54 309.082 113.05 309.082 113.62C309.082 114.97 307.882 115.81 305.152 115.81C302.272 115.81 301.282 114.76 301.282 113.05H298.252C298.252 115.96 300.082 118.24 305.182 118.24ZM328.467 118.24C331.497 118.24 333.357 116.74 333.927 114.4H333.987C333.927 115.84 333.897 117.13 333.837 118H337.197V97.21H333.837V105.79H333.807C333.207 104.05 331.467 102.94 328.677 102.94C324.267 102.94 321.477 106.03 321.477 110.5C321.477 115.12 324.177 118.24 328.467 118.24ZM329.157 115.48C326.517 115.48 324.807 113.44 324.807 110.5C324.807 107.68 326.547 105.7 329.217 105.7C332.007 105.7 333.837 107.38 333.837 110.02V110.74C333.837 113.62 331.977 115.48 329.157 115.48ZM340.573 101.44H344.023V98.14H340.573V101.44ZM340.603 118H343.963V103.18H340.603V118ZM352.54 118.24C355.81 118.24 357.58 116.92 358.06 114.73H358.09C358.09 115.93 358 117.28 357.94 118H361.3V108.97C361.3 105.07 358.66 102.94 354.16 102.94C349.93 102.94 347.35 104.71 347.35 107.68C347.35 107.95 347.38 108.34 347.41 108.55H350.5C350.47 108.31 350.47 108.07 350.47 107.98C350.47 106.33 351.76 105.46 354.04 105.46C356.65 105.46 357.94 106.45 357.94 108.67V109.72H352.45C348.49 109.72 346.9 111.49 346.9 113.74C346.9 116.62 349.15 118.24 352.54 118.24ZM353.23 115.72C351.19 115.72 349.99 114.94 349.99 113.59C349.99 112.42 350.83 111.76 352.75 111.76H357.94V112.03C357.94 114.31 356.14 115.72 353.23 115.72ZM370.832 118.24C375.572 118.24 378.092 116.47 378.092 113.47C378.092 112.27 377.522 111.13 376.532 110.59C375.482 109.99 374.282 109.78 372.182 109.57C370.382 109.39 368.972 109.24 368.252 109C367.382 108.7 367.232 108.1 367.232 107.47C367.232 106.21 368.552 105.37 370.892 105.37C373.352 105.37 374.402 106.3 374.432 108.22H377.462C377.462 104.86 375.422 102.94 370.802 102.94C366.782 102.94 363.902 104.74 363.902 107.71C363.902 108.85 364.382 109.93 365.192 110.53C366.092 111.19 367.652 111.49 369.962 111.7C371.612 111.85 373.022 112 373.742 112.27C374.522 112.54 374.732 113.05 374.732 113.62C374.732 114.97 373.532 115.81 370.802 115.81C367.922 115.81 366.932 114.76 366.932 113.05H363.902C363.902 115.96 365.732 118.24 370.832 118.24ZM381.397 118H384.787V114.1H381.397V118ZM410.502 118H414.672L406.662 98.26H402.282L394.242 118H397.962L399.642 113.56H408.852L410.502 118ZM400.542 111.16L404.232 101.32H404.292L407.952 111.16H400.542ZM430.395 118.24C434.625 118.24 437.445 115.93 437.445 111.97H434.415C434.385 114.16 432.915 115.48 430.545 115.48C428.055 115.48 426.495 113.62 426.495 110.59C426.495 107.53 428.085 105.7 430.665 105.7C432.915 105.7 434.355 107.05 434.385 109.27H437.415C437.415 105.34 434.715 102.94 430.575 102.94C426.105 102.94 423.135 105.85 423.135 110.59C423.135 115.33 426.045 118.24 430.395 118.24ZM447.556 118.24C452.296 118.24 455.326 115.33 455.326 110.62C455.326 105.88 452.296 102.94 447.556 102.94C442.846 102.94 439.816 105.88 439.816 110.62C439.816 115.33 442.846 118.24 447.556 118.24ZM447.556 115.48C444.826 115.48 443.176 113.62 443.176 110.62C443.176 107.59 444.826 105.7 447.556 105.7C450.286 105.7 451.966 107.59 451.966 110.62C451.966 113.62 450.286 115.48 447.556 115.48ZM458.031 118H461.391V110.83C461.391 107.59 463.251 105.82 466.191 105.82C468.861 105.82 470.181 107.14 470.181 109.48V118H473.541V108.73C473.541 105.07 471.231 102.94 467.481 102.94C464.031 102.94 462.111 104.47 461.301 107.14H461.271L461.391 103.18H458.031V118ZM490.627 110.05C490.627 105.43 487.957 102.94 483.757 102.94C479.077 102.94 476.137 105.91 476.137 110.71C476.137 115.36 479.077 118.24 483.757 118.24C487.807 118.24 490.507 116.23 490.627 112.93H487.597C487.447 114.67 485.977 115.63 483.817 115.63C481.297 115.63 479.707 114.1 479.527 111.25H490.627V110.05ZM487.597 109.21H479.617C480.007 106.75 481.477 105.55 483.787 105.55C486.217 105.55 487.597 106.78 487.597 109V109.21ZM491.221 118H495.211L498.901 112.45L502.741 118H507.001L501.301 110.41L506.731 103.18H502.921L499.381 108.52L495.721 103.18H491.461L496.831 110.41L491.221 118ZM509.424 101.35H511.554C511.734 99.7 512.214 99.04 512.814 99.04C513.354 99.04 513.624 99.28 514.134 99.79L514.584 100.24C515.214 100.87 515.904 101.35 517.044 101.35C518.694 101.35 520.134 100.15 520.374 96.94H518.274C518.094 98.62 517.614 99.28 516.984 99.28C516.474 99.28 516.174 99.01 515.664 98.5L515.214 98.08C514.584 97.45 513.894 96.94 512.754 96.94C511.134 96.94 509.664 98.17 509.424 101.35ZM513.264 118.24C516.534 118.24 518.304 116.92 518.784 114.73H518.814C518.814 115.93 518.724 117.28 518.664 118H522.024V108.97C522.024 105.07 519.384 102.94 514.884 102.94C510.654 102.94 508.074 104.71 508.074 107.68C508.074 107.95 508.104 108.34 508.134 108.55H511.224C511.194 108.31 511.194 108.07 511.194 107.98C511.194 106.33 512.484 105.46 514.764 105.46C517.374 105.46 518.664 106.45 518.664 108.67V109.72H513.174C509.214 109.72 507.624 111.49 507.624 113.74C507.624 116.62 509.874 118.24 513.264 118.24ZM513.954 115.72C511.914 115.72 510.714 114.94 510.714 113.59C510.714 112.42 511.554 111.76 513.474 111.76H518.664V112.03C518.664 114.31 516.864 115.72 513.954 115.72ZM532.366 118.24C537.106 118.24 540.136 115.33 540.136 110.62C540.136 105.88 537.106 102.94 532.366 102.94C527.656 102.94 524.626 105.88 524.626 110.62C524.626 115.33 527.656 118.24 532.366 118.24ZM532.366 115.48C529.636 115.48 527.986 113.62 527.986 110.62C527.986 107.59 529.636 105.7 532.366 105.7C535.096 105.7 536.776 107.59 536.776 110.62C536.776 113.62 535.096 115.48 532.366 115.48ZM563.63 110.05C563.63 105.43 560.96 102.94 556.76 102.94C552.08 102.94 549.14 105.91 549.14 110.71C549.14 115.36 552.08 118.24 556.76 118.24C560.81 118.24 563.51 116.23 563.63 112.93H560.6C560.45 114.67 558.98 115.63 556.82 115.63C554.3 115.63 552.71 114.1 552.53 111.25H563.63V110.05ZM560.6 109.21H552.62C553.01 106.75 554.48 105.55 556.79 105.55C559.22 105.55 560.6 106.78 560.6 109V109.21ZM1.77 167.94H5.13V162.12C5.13 161.52 5.07 159.99 5.04 159H5.07C5.7 160.92 7.62 162.24 10.56 162.24C14.82 162.24 17.52 159.12 17.52 154.32C17.52 149.85 14.85 146.94 10.62 146.94C7.68 146.94 5.7 148.38 5.1 150.63H5.07L5.13 147.18H1.77V167.94ZM9.9 159.48C7.02 159.48 5.13 157.86 5.13 155.34V154.56C5.19 151.59 7.05 149.7 9.84 149.7C12.51 149.7 14.16 151.56 14.16 154.41C14.16 157.5 12.48 159.48 9.9 159.48ZM20.265 162H23.625V155.52C23.625 151.98 25.215 149.82 27.765 149.82C29.745 149.82 30.705 150.99 30.705 153.48C30.705 154.17 30.645 154.92 30.585 155.49H33.645C33.705 154.86 33.795 153.66 33.795 152.73C33.795 149.04 32.025 146.94 28.815 146.94C25.755 146.94 24.225 148.77 23.535 151.44H23.505L23.625 147.18H20.265V162ZM43.7962 162.24C48.5362 162.24 51.5662 159.33 51.5662 154.62C51.5662 149.88 48.5362 146.94 43.7962 146.94C39.0862 146.94 36.0562 149.88 36.0562 154.62C36.0562 159.33 39.0862 162.24 43.7962 162.24ZM43.7962 159.48C41.0662 159.48 39.4162 157.62 39.4162 154.62C39.4162 151.59 41.0662 149.7 43.7962 149.7C46.5262 149.7 48.2062 151.59 48.2062 154.62C48.2062 157.62 46.5262 159.48 43.7962 159.48ZM51.9905 162H55.9805L59.6705 156.45L63.5105 162H67.7705L62.0705 154.41L67.5005 147.18H63.6905L60.1505 152.52L56.4905 147.18H52.2305L57.6005 154.41L51.9905 162ZM70.0162 145.44H73.4662V142.14H70.0162V145.44ZM70.0462 162H73.4062V147.18H70.0462V162ZM76.7632 162H80.1232V154.77C80.1232 151.59 81.6532 149.82 83.9332 149.82C85.9432 149.82 87.0532 151.14 87.0532 153.24V162H90.4132V154.65C90.4132 151.56 91.9132 149.82 94.2532 149.82C96.2632 149.82 97.3132 151.14 97.3132 153.3V162H100.673V152.55C100.673 149.07 98.7832 146.94 95.4832 146.94C92.6632 146.94 90.8632 148.44 90.3232 150.84H90.2932C89.9332 148.44 88.0732 146.94 85.1932 146.94C82.4932 146.94 80.6932 148.53 80.0332 151.08H80.0032L80.1232 147.18H76.7632V162ZM103.817 145.44H107.267V142.14H103.817V145.44ZM103.847 162H107.207V147.18H103.847V162ZM117.104 162.24C120.134 162.24 121.994 160.74 122.564 158.4H122.624C122.564 159.84 122.534 161.13 122.474 162H125.834V141.21H122.474V149.79H122.444C121.844 148.05 120.104 146.94 117.314 146.94C112.904 146.94 110.114 150.03 110.114 154.5C110.114 159.12 112.814 162.24 117.104 162.24ZM117.794 159.48C115.154 159.48 113.444 157.44 113.444 154.5C113.444 151.68 115.184 149.7 117.854 149.7C120.644 149.7 122.474 151.38 122.474 154.02V154.74C122.474 157.62 120.614 159.48 117.794 159.48ZM134.34 162.24C137.61 162.24 139.38 160.92 139.86 158.73H139.89C139.89 159.93 139.8 161.28 139.74 162H143.1V152.97C143.1 149.07 140.46 146.94 135.96 146.94C131.73 146.94 129.15 148.71 129.15 151.68C129.15 151.95 129.18 152.34 129.21 152.55H132.3C132.27 152.31 132.27 152.07 132.27 151.98C132.27 150.33 133.56 149.46 135.84 149.46C138.45 149.46 139.74 150.45 139.74 152.67V153.72H134.25C130.29 153.72 128.7 155.49 128.7 157.74C128.7 160.62 130.95 162.24 134.34 162.24ZM135.03 159.72C132.99 159.72 131.79 158.94 131.79 157.59C131.79 156.42 132.63 155.76 134.55 155.76H139.74V156.03C139.74 158.31 137.94 159.72 135.03 159.72ZM152.692 162.24C155.722 162.24 157.582 160.74 158.152 158.4H158.212C158.152 159.84 158.122 161.13 158.062 162H161.422V141.21H158.062V149.79H158.032C157.432 148.05 155.692 146.94 152.902 146.94C148.492 146.94 145.702 150.03 145.702 154.5C145.702 159.12 148.402 162.24 152.692 162.24ZM153.382 159.48C150.742 159.48 149.032 157.44 149.032 154.5C149.032 151.68 150.772 149.7 153.442 149.7C156.232 149.7 158.062 151.38 158.062 154.02V154.74C158.062 157.62 156.202 159.48 153.382 159.48ZM178.748 154.05C178.748 149.43 176.078 146.94 171.878 146.94C167.198 146.94 164.258 149.91 164.258 154.71C164.258 159.36 167.198 162.24 171.878 162.24C175.928 162.24 178.628 160.23 178.748 156.93H175.718C175.568 158.67 174.098 159.63 171.938 159.63C169.418 159.63 167.828 158.1 167.648 155.25H178.748V154.05ZM175.718 153.21H167.738C168.128 150.75 169.598 149.55 171.908 149.55C174.338 149.55 175.718 150.78 175.718 153V153.21ZM194.795 162.24C197.825 162.24 199.685 160.74 200.255 158.4H200.315C200.255 159.84 200.225 161.13 200.165 162H203.525V141.21H200.165V149.79H200.135C199.535 148.05 197.795 146.94 195.005 146.94C190.595 146.94 187.805 150.03 187.805 154.5C187.805 159.12 190.505 162.24 194.795 162.24ZM195.485 159.48C192.845 159.48 191.135 157.44 191.135 154.5C191.135 151.68 192.875 149.7 195.545 149.7C198.335 149.7 200.165 151.38 200.165 154.02V154.74C200.165 157.62 198.305 159.48 195.485 159.48ZM212.03 162.24C215.3 162.24 217.07 160.92 217.55 158.73H217.58C217.58 159.93 217.49 161.28 217.43 162H220.79V152.97C220.79 149.07 218.15 146.94 213.65 146.94C209.42 146.94 206.84 148.71 206.84 151.68C206.84 151.95 206.87 152.34 206.9 152.55H209.99C209.96 152.31 209.96 152.07 209.96 151.98C209.96 150.33 211.25 149.46 213.53 149.46C216.14 149.46 217.43 150.45 217.43 152.67V153.72H211.94C207.98 153.72 206.39 155.49 206.39 157.74C206.39 160.62 208.64 162.24 212.03 162.24ZM212.72 159.72C210.68 159.72 209.48 158.94 209.48 157.59C209.48 156.42 210.32 155.76 212.24 155.76H217.43V156.03C217.43 158.31 215.63 159.72 212.72 159.72ZM244.632 154.05C244.632 149.43 241.962 146.94 237.762 146.94C233.082 146.94 230.142 149.91 230.142 154.71C230.142 159.36 233.082 162.24 237.762 162.24C241.812 162.24 244.512 160.23 244.632 156.93H241.602C241.452 158.67 239.982 159.63 237.822 159.63C235.302 159.63 233.712 158.1 233.532 155.25H244.632V154.05ZM241.602 153.21H233.622C234.012 150.75 235.482 149.55 237.792 149.55C240.222 149.55 241.602 150.78 241.602 153V153.21ZM259.3 167.94H262.66V147.18H259.33V150H259.3C258.7 148.11 256.93 146.94 254.05 146.94C249.91 146.94 246.94 149.91 246.94 154.47C246.94 159.21 249.64 162.24 253.9 162.24C256.75 162.24 258.73 160.8 259.27 158.58H259.3V167.94ZM254.62 159.48C252.01 159.48 250.27 157.53 250.27 154.47C250.27 151.59 252.07 149.7 254.68 149.7C257.47 149.7 259.3 151.38 259.3 153.99V154.71C259.3 157.62 257.44 159.48 254.62 159.48ZM272.035 162.24C275.335 162.24 277.405 160.68 278.035 157.86H278.065C278.065 159.42 278.005 161.01 277.915 162H281.275V147.18H277.915V153.75C277.915 157.35 276.025 159.36 273.025 159.36C270.595 159.36 269.155 158.04 269.155 155.7V147.18H265.795V156.18C265.795 160.11 268.165 162.24 272.035 162.24ZM284.562 145.44H288.012V142.14H284.562V145.44ZM284.592 162H287.952V147.18H284.592V162ZM291.399 167.94H294.759V162.12C294.759 161.52 294.699 159.99 294.669 159H294.699C295.329 160.92 297.249 162.24 300.189 162.24C304.449 162.24 307.149 159.12 307.149 154.32C307.149 149.85 304.479 146.94 300.249 146.94C297.309 146.94 295.329 148.38 294.729 150.63H294.699L294.759 147.18H291.399V167.94ZM299.529 159.48C296.649 159.48 294.759 157.86 294.759 155.34V154.56C294.819 151.59 296.679 149.7 299.469 149.7C302.139 149.7 303.789 151.56 303.789 154.41C303.789 157.5 302.109 159.48 299.529 159.48ZM323.934 154.05C323.934 149.43 321.264 146.94 317.064 146.94C312.384 146.94 309.444 149.91 309.444 154.71C309.444 159.36 312.384 162.24 317.064 162.24C321.114 162.24 323.814 160.23 323.934 156.93H320.904C320.754 158.67 319.284 159.63 317.124 159.63C314.604 159.63 313.014 158.1 312.834 155.25H323.934V154.05ZM320.904 153.21H312.924C313.314 150.75 314.784 149.55 317.094 149.55C319.524 149.55 320.904 150.78 320.904 153V153.21ZM344.601 141.45H341.091L338.751 145.65H341.391L344.601 141.45ZM347.481 154.05C347.481 149.43 344.811 146.94 340.611 146.94C335.931 146.94 332.991 149.91 332.991 154.71C332.991 159.36 335.931 162.24 340.611 162.24C344.661 162.24 347.361 160.23 347.481 156.93H344.451C344.301 158.67 342.831 159.63 340.671 159.63C338.151 159.63 336.561 158.1 336.381 155.25H347.481V154.05ZM344.451 153.21H336.471C336.861 150.75 338.331 149.55 340.641 149.55C343.071 149.55 344.451 150.78 344.451 153V153.21ZM363.078 162.24C366.378 162.24 368.448 160.68 369.078 157.86H369.108C369.108 159.42 369.048 161.01 368.958 162H372.318V147.18H368.958V153.75C368.958 157.35 367.068 159.36 364.068 159.36C361.638 159.36 360.198 158.04 360.198 155.7V147.18H356.838V156.18C356.838 160.11 359.208 162.24 363.078 162.24ZM375.514 162H378.874V154.77C378.874 151.59 380.404 149.82 382.684 149.82C384.694 149.82 385.804 151.14 385.804 153.24V162H389.164V154.65C389.164 151.56 390.664 149.82 393.004 149.82C395.014 149.82 396.064 151.14 396.064 153.3V162H399.424V152.55C399.424 149.07 397.534 146.94 394.234 146.94C391.414 146.94 389.614 148.44 389.074 150.84H389.044C388.684 148.44 386.824 146.94 383.944 146.94C381.244 146.94 379.444 148.53 378.784 151.08H378.754L378.874 147.18H375.514V162ZM415.767 162.24C418.797 162.24 420.657 160.74 421.227 158.4H421.287C421.227 159.84 421.197 161.13 421.137 162H424.497V141.21H421.137V149.79H421.107C420.507 148.05 418.767 146.94 415.977 146.94C411.567 146.94 408.777 150.03 408.777 154.5C408.777 159.12 411.477 162.24 415.767 162.24ZM416.457 159.48C413.817 159.48 412.107 157.44 412.107 154.5C412.107 151.68 413.847 149.7 416.517 149.7C419.307 149.7 421.137 151.38 421.137 154.02V154.74C421.137 157.62 419.277 159.48 416.457 159.48ZM427.873 145.44H431.323V142.14H427.873V145.44ZM427.903 162H431.263V147.18H427.903V162ZM435.61 162H438.97V149.91H444.13V147.18H438.97V145.86C438.97 144.24 439.9 143.34 441.61 143.34C442.63 143.34 443.41 143.55 443.89 143.7V141.03C443.41 140.85 442.33 140.61 441.01 140.61C437.8 140.61 435.61 142.41 435.61 145.71V147.18H433.24V149.91H435.61V162ZM459.305 154.05C459.305 149.43 456.635 146.94 452.435 146.94C447.755 146.94 444.815 149.91 444.815 154.71C444.815 159.36 447.755 162.24 452.435 162.24C456.485 162.24 459.185 160.23 459.305 156.93H456.275C456.125 158.67 454.655 159.63 452.495 159.63C449.975 159.63 448.385 158.1 448.205 155.25H459.305V154.05ZM456.275 153.21H448.295C448.685 150.75 450.155 149.55 452.465 149.55C454.895 149.55 456.275 150.78 456.275 153V153.21ZM462.063 162H465.423V155.52C465.423 151.98 467.013 149.82 469.563 149.82C471.543 149.82 472.503 150.99 472.503 153.48C472.503 154.17 472.443 154.92 472.383 155.49H475.443C475.503 154.86 475.593 153.66 475.593 152.73C475.593 149.04 473.823 146.94 470.613 146.94C467.553 146.94 466.023 148.77 465.333 151.44H465.303L465.423 147.18H462.063V162ZM492.344 154.05C492.344 149.43 489.674 146.94 485.474 146.94C480.794 146.94 477.854 149.91 477.854 154.71C477.854 159.36 480.794 162.24 485.474 162.24C489.524 162.24 492.224 160.23 492.344 156.93H489.314C489.164 158.67 487.694 159.63 485.534 159.63C483.014 159.63 481.424 158.1 481.244 155.25H492.344V154.05ZM489.314 153.21H481.334C481.724 150.75 483.194 149.55 485.504 149.55C487.934 149.55 489.314 150.78 489.314 153V153.21ZM495.102 162H498.462V154.83C498.462 151.59 500.322 149.82 503.262 149.82C505.932 149.82 507.252 151.14 507.252 153.48V162H510.612V152.73C510.612 149.07 508.302 146.94 504.552 146.94C501.102 146.94 499.182 148.47 498.372 151.14H498.342L498.462 147.18H495.102V162ZM520.468 162.24C524.698 162.24 527.518 159.93 527.518 155.97H524.488C524.458 158.16 522.988 159.48 520.618 159.48C518.128 159.48 516.568 157.62 516.568 154.59C516.568 151.53 518.158 149.7 520.738 149.7C522.988 149.7 524.428 151.05 524.458 153.27H527.488C527.488 149.34 524.788 146.94 520.648 146.94C516.178 146.94 513.208 149.85 513.208 154.59C513.208 159.33 516.118 162.24 520.468 162.24ZM530.429 145.44H533.879V142.14H530.429V145.44ZM530.459 162H533.819V147.18H530.459V162ZM542.396 162.24C545.666 162.24 547.436 160.92 547.916 158.73H547.946C547.946 159.93 547.856 161.28 547.796 162H551.156V152.97C551.156 149.07 548.516 146.94 544.016 146.94C539.786 146.94 537.206 148.71 537.206 151.68C537.206 151.95 537.236 152.34 537.266 152.55H540.356C540.326 152.31 540.326 152.07 540.326 151.98C540.326 150.33 541.616 149.46 543.896 149.46C546.506 149.46 547.796 150.45 547.796 152.67V153.72H542.306C538.346 153.72 536.756 155.49 536.756 157.74C536.756 160.62 539.006 162.24 542.396 162.24ZM543.086 159.72C541.046 159.72 539.846 158.94 539.846 157.59C539.846 156.42 540.686 155.76 542.606 155.76H547.796V156.03C547.796 158.31 545.996 159.72 543.086 159.72ZM554.298 162H557.658V141.21H554.298V162ZM560.986 166.14C563.596 165.93 564.916 164.46 564.916 160.92V158.1H561.526V162H562.936V162.09C562.936 163.56 562.366 164.28 560.986 164.4V166.14ZM8.97 206.24C13.71 206.24 16.74 203.33 16.74 198.62C16.74 193.88 13.71 190.94 8.97 190.94C4.26 190.94 1.23 193.88 1.23 198.62C1.23 203.33 4.26 206.24 8.97 206.24ZM8.97 203.48C6.24 203.48 4.59 201.62 4.59 198.62C4.59 195.59 6.24 193.7 8.97 193.7C11.7 193.7 13.38 195.59 13.38 198.62C13.38 201.62 11.7 203.48 8.97 203.48ZM19.4447 206H22.8047V198.83C22.8047 195.59 24.6647 193.82 27.6047 193.82C30.2747 193.82 31.5947 195.14 31.5947 197.48V206H34.9547V196.73C34.9547 193.07 32.6447 190.94 28.8947 190.94C25.4447 190.94 23.5247 192.47 22.7147 195.14H22.6847L22.8047 191.18H19.4447V206ZM44.5404 206.24C47.5704 206.24 49.4304 204.74 50.0004 202.4H50.0604C50.0004 203.84 49.9704 205.13 49.9104 206H53.2704V185.21H49.9104V193.79H49.8804C49.2804 192.05 47.5404 190.94 44.7504 190.94C40.3404 190.94 37.5504 194.03 37.5504 198.5C37.5504 203.12 40.2504 206.24 44.5404 206.24ZM45.2304 203.48C42.5904 203.48 40.8804 201.44 40.8804 198.5C40.8804 195.68 42.6204 193.7 45.2904 193.7C48.0804 193.7 49.9104 195.38 49.9104 198.02V198.74C49.9104 201.62 48.0504 203.48 45.2304 203.48ZM70.5961 198.05C70.5961 193.43 67.9261 190.94 63.7261 190.94C59.0461 190.94 56.1061 193.91 56.1061 198.71C56.1061 203.36 59.0461 206.24 63.7261 206.24C67.7761 206.24 70.4761 204.23 70.5961 200.93H67.5661C67.4161 202.67 65.9461 203.63 63.7861 203.63C61.2661 203.63 59.6761 202.1 59.4961 199.25H70.5961V198.05ZM67.5661 197.21H59.5861C59.9761 194.75 61.4461 193.55 63.7561 193.55C66.1861 193.55 67.5661 194.78 67.5661 197V197.21ZM86.7031 206.18C87.933 206.18 88.9531 205.97 89.4031 205.82V203.15C88.9831 203.27 88.0231 203.42 87.1831 203.42C85.1431 203.42 84.4231 202.46 84.4231 200.54V193.91H89.5231V191.18H84.4231V187.82H81.6331L81.4831 190.04C81.3931 190.88 81.1831 191.18 80.6131 191.18H78.723V193.91H81.0631V200.72C81.0631 203.99 82.6531 206.18 86.7031 206.18ZM98.7417 206.24C103.482 206.24 106.512 203.33 106.512 198.62C106.512 193.88 103.482 190.94 98.7417 190.94C94.0317 190.94 91.0017 193.88 91.0017 198.62C91.0017 203.33 94.0317 206.24 98.7417 206.24ZM98.7417 203.48C96.0117 203.48 94.3617 201.62 94.3617 198.62C94.3617 195.59 96.0117 193.7 98.7417 193.7C101.472 193.7 103.152 195.59 103.152 198.62C103.152 201.62 101.472 203.48 98.7417 203.48ZM115.756 206.24C118.786 206.24 120.646 204.74 121.216 202.4H121.276C121.216 203.84 121.186 205.13 121.126 206H124.486V185.21H121.126V193.79H121.096C120.496 192.05 118.756 190.94 115.966 190.94C111.556 190.94 108.766 194.03 108.766 198.5C108.766 203.12 111.466 206.24 115.756 206.24ZM116.446 203.48C113.806 203.48 112.096 201.44 112.096 198.5C112.096 195.68 113.836 193.7 116.506 193.7C119.296 193.7 121.126 195.38 121.126 198.02V198.74C121.126 201.62 119.266 203.48 116.446 203.48ZM135.062 206.24C139.802 206.24 142.832 203.33 142.832 198.62C142.832 193.88 139.802 190.94 135.062 190.94C130.352 190.94 127.322 193.88 127.322 198.62C127.322 203.33 130.352 206.24 135.062 206.24ZM135.062 203.48C132.332 203.48 130.682 201.62 130.682 198.62C130.682 195.59 132.332 193.7 135.062 193.7C137.792 193.7 139.472 195.59 139.472 198.62C139.472 201.62 137.792 203.48 135.062 203.48ZM151.841 206.24C156.581 206.24 159.101 204.47 159.101 201.47C159.101 200.27 158.531 199.13 157.541 198.59C156.491 197.99 155.291 197.78 153.191 197.57C151.391 197.39 149.981 197.24 149.261 197C148.391 196.7 148.241 196.1 148.241 195.47C148.241 194.21 149.561 193.37 151.901 193.37C154.361 193.37 155.411 194.3 155.441 196.22H158.471C158.471 192.86 156.431 190.94 151.811 190.94C147.791 190.94 144.911 192.74 144.911 195.71C144.911 196.85 145.391 197.93 146.201 198.53C147.101 199.19 148.661 199.49 150.971 199.7C152.621 199.85 154.031 200 154.751 200.27C155.531 200.54 155.741 201.05 155.741 201.62C155.741 202.97 154.541 203.81 151.811 203.81C148.931 203.81 147.941 202.76 147.941 201.05H144.911C144.911 203.96 146.741 206.24 151.841 206.24ZM175.186 206.18C176.416 206.18 177.436 205.97 177.886 205.82V203.15C177.466 203.27 176.506 203.42 175.666 203.42C173.626 203.42 172.906 202.46 172.906 200.54V193.91H178.006V191.18H172.906V187.82H170.116L169.966 190.04C169.876 190.88 169.666 191.18 169.096 191.18H167.206V193.91H169.546V200.72C169.546 203.99 171.136 206.18 175.186 206.18ZM180.52 206H183.88V199.52C183.88 195.98 185.47 193.82 188.02 193.82C190 193.82 190.96 194.99 190.96 197.48C190.96 198.17 190.9 198.92 190.84 199.49H193.9C193.96 198.86 194.05 197.66 194.05 196.73C194.05 193.04 192.28 190.94 189.07 190.94C186.01 190.94 184.48 192.77 183.79 195.44H183.76L183.88 191.18H180.52V206ZM201.982 206.24C205.252 206.24 207.022 204.92 207.502 202.73H207.532C207.532 203.93 207.442 205.28 207.382 206H210.742V196.97C210.742 193.07 208.102 190.94 203.602 190.94C199.372 190.94 196.792 192.71 196.792 195.68C196.792 195.95 196.822 196.34 196.852 196.55H199.942C199.912 196.31 199.912 196.07 199.912 195.98C199.912 194.33 201.202 193.46 203.482 193.46C206.092 193.46 207.382 194.45 207.382 196.67V197.72H201.892C197.932 197.72 196.342 199.49 196.342 201.74C196.342 204.62 198.592 206.24 201.982 206.24ZM202.672 203.72C200.632 203.72 199.432 202.94 199.432 201.59C199.432 200.42 200.272 199.76 202.192 199.76H207.382V200.03C207.382 202.31 205.582 203.72 202.672 203.72ZM222.854 206.24C227.024 206.24 229.634 203.21 229.634 198.32C229.634 193.76 227.084 190.94 222.824 190.94C219.884 190.94 217.844 192.32 217.214 194.48H217.184C217.214 193.76 217.244 192.56 217.244 191.93V185.21H213.884V206H217.244C217.184 205.25 217.124 203.9 217.124 202.85H217.154C217.754 204.92 219.794 206.24 222.854 206.24ZM221.984 203.48C219.074 203.48 217.244 201.89 217.244 199.31V198.56C217.244 195.56 219.104 193.7 222.044 193.7C224.684 193.7 226.274 195.5 226.274 198.41C226.274 201.56 224.624 203.48 221.984 203.48ZM236.837 206.24C240.107 206.24 241.877 204.92 242.357 202.73H242.387C242.387 203.93 242.297 205.28 242.237 206H245.597V196.97C245.597 193.07 242.957 190.94 238.457 190.94C234.227 190.94 231.647 192.71 231.647 195.68C231.647 195.95 231.677 196.34 231.707 196.55H234.797C234.767 196.31 234.767 196.07 234.767 195.98C234.767 194.33 236.057 193.46 238.337 193.46C240.947 193.46 242.237 194.45 242.237 196.67V197.72H236.747C232.787 197.72 231.197 199.49 231.197 201.74C231.197 204.62 233.447 206.24 236.837 206.24ZM237.527 203.72C235.487 203.72 234.287 202.94 234.287 201.59C234.287 200.42 235.127 199.76 237.047 199.76H242.237V200.03C242.237 202.31 240.437 203.72 237.527 203.72ZM248.739 206H252.099V185.21H248.739V206ZM255.518 206H258.878V198.98C258.878 195.65 260.738 193.82 263.708 193.82C266.378 193.82 267.698 195.14 267.698 197.48V206H271.058V196.73C271.058 193.07 268.748 190.94 264.998 190.94C261.518 190.94 259.598 192.47 258.818 195.17H258.788C258.818 194.36 258.878 192.65 258.878 191.93V185.21H255.518V206ZM279.321 206.24C282.591 206.24 284.361 204.92 284.841 202.73H284.871C284.871 203.93 284.781 205.28 284.721 206H288.081V196.97C288.081 193.07 285.441 190.94 280.941 190.94C276.711 190.94 274.131 192.71 274.131 195.68C274.131 195.95 274.161 196.34 274.191 196.55H277.281C277.251 196.31 277.251 196.07 277.251 195.98C277.251 194.33 278.541 193.46 280.821 193.46C283.431 193.46 284.721 194.45 284.721 196.67V197.72H279.231C275.271 197.72 273.681 199.49 273.681 201.74C273.681 204.62 275.931 206.24 279.321 206.24ZM280.011 203.72C277.971 203.72 276.771 202.94 276.771 201.59C276.771 200.42 277.611 199.76 279.531 199.76H284.721V200.03C284.721 202.31 282.921 203.72 280.011 203.72ZM291.133 206H294.493V198.77C294.493 195.59 296.023 193.82 298.303 193.82C300.313 193.82 301.423 195.14 301.423 197.24V206H304.783V198.65C304.783 195.56 306.283 193.82 308.623 193.82C310.633 193.82 311.683 195.14 311.683 197.3V206H315.043V196.55C315.043 193.07 313.153 190.94 309.853 190.94C307.033 190.94 305.233 192.44 304.693 194.84H304.663C304.303 192.44 302.443 190.94 299.563 190.94C296.863 190.94 295.063 192.53 294.403 195.08H294.373L294.493 191.18H291.133V206ZM324.906 189.44H328.386V186.14H324.906V189.44ZM323.106 212.27C326.646 212.27 328.326 209.9 328.326 206.42V191.18H324.966V206.3C324.966 208.31 324.156 209.48 322.266 209.48C321.576 209.48 320.856 209.39 320.286 209.27V211.94C320.706 212.06 321.756 212.27 323.106 212.27ZM337.773 206.24C341.073 206.24 343.143 204.68 343.773 201.86H343.803C343.803 203.42 343.743 205.01 343.653 206H347.013V191.18H343.653V197.75C343.653 201.35 341.763 203.36 338.763 203.36C336.333 203.36 334.893 202.04 334.893 199.7V191.18H331.533V200.18C331.533 204.11 333.903 206.24 337.773 206.24ZM350.209 206H353.569V198.83C353.569 195.59 355.429 193.82 358.369 193.82C361.039 193.82 362.359 195.14 362.359 197.48V206H365.719V196.73C365.719 193.07 363.409 190.94 359.659 190.94C356.209 190.94 354.289 192.47 353.479 195.14H353.449L353.569 191.18H350.209V206ZM375.365 206.18C376.595 206.18 377.615 205.97 378.065 205.82V203.15C377.645 203.27 376.685 203.42 375.845 203.42C373.805 203.42 373.085 202.46 373.085 200.54V193.91H378.185V191.18H373.085V187.82H370.295L370.145 190.04C370.055 190.88 369.845 191.18 369.275 191.18H367.385V193.91H369.725V200.72C369.725 203.99 371.315 206.18 375.365 206.18ZM387.404 206.24C392.144 206.24 395.174 203.33 395.174 198.62C395.174 193.88 392.144 190.94 387.404 190.94C382.694 190.94 379.664 193.88 379.664 198.62C379.664 203.33 382.694 206.24 387.404 206.24ZM387.404 203.48C384.674 203.48 383.024 201.62 383.024 198.62C383.024 195.59 384.674 193.7 387.404 193.7C390.134 193.7 391.814 195.59 391.814 198.62C391.814 201.62 390.134 203.48 387.404 203.48ZM404.182 206.24C408.922 206.24 411.442 204.47 411.442 201.47C411.442 200.27 410.872 199.13 409.882 198.59C408.832 197.99 407.632 197.78 405.532 197.57C403.732 197.39 402.322 197.24 401.602 197C400.732 196.7 400.582 196.1 400.582 195.47C400.582 194.21 401.902 193.37 404.242 193.37C406.702 193.37 407.752 194.3 407.782 196.22H410.812C410.812 192.86 408.772 190.94 404.152 190.94C400.132 190.94 397.252 192.74 397.252 195.71C397.252 196.85 397.732 197.93 398.542 198.53C399.442 199.19 401.002 199.49 403.312 199.7C404.962 199.85 406.372 200 407.092 200.27C407.872 200.54 408.082 201.05 408.082 201.62C408.082 202.97 406.882 203.81 404.152 203.81C401.272 203.81 400.282 202.76 400.282 201.05H397.252C397.252 203.96 399.082 206.24 404.182 206.24ZM421.017 211.94H424.377V206.12C424.377 205.52 424.317 203.99 424.287 203H424.317C424.947 204.92 426.867 206.24 429.807 206.24C434.067 206.24 436.767 203.12 436.767 198.32C436.767 193.85 434.097 190.94 429.867 190.94C426.927 190.94 424.947 192.38 424.347 194.63H424.317L424.377 191.18H421.017V211.94ZM429.147 203.48C426.267 203.48 424.377 201.86 424.377 199.34V198.56C424.437 195.59 426.297 193.7 429.087 193.7C431.757 193.7 433.407 195.56 433.407 198.41C433.407 201.5 431.727 203.48 429.147 203.48ZM443.97 206.24C447.24 206.24 449.01 204.92 449.49 202.73H449.52C449.52 203.93 449.43 205.28 449.37 206H452.73V196.97C452.73 193.07 450.09 190.94 445.59 190.94C441.36 190.94 438.78 192.71 438.78 195.68C438.78 195.95 438.81 196.34 438.84 196.55H441.93C441.9 196.31 441.9 196.07 441.9 195.98C441.9 194.33 443.19 193.46 445.47 193.46C448.08 193.46 449.37 194.45 449.37 196.67V197.72H443.88C439.92 197.72 438.33 199.49 438.33 201.74C438.33 204.62 440.58 206.24 443.97 206.24ZM444.66 203.72C442.62 203.72 441.42 202.94 441.42 201.59C441.42 200.42 442.26 199.76 444.18 199.76H449.37V200.03C449.37 202.31 447.57 203.72 444.66 203.72ZM455.783 206H459.143V199.52C459.143 195.98 460.733 193.82 463.283 193.82C465.263 193.82 466.223 194.99 466.223 197.48C466.223 198.17 466.163 198.92 466.103 199.49H469.163C469.223 198.86 469.313 197.66 469.313 196.73C469.313 193.04 467.543 190.94 464.333 190.94C461.273 190.94 459.743 192.77 459.053 195.44H459.023L459.143 191.18H455.783V206ZM477.244 206.24C480.514 206.24 482.284 204.92 482.764 202.73H482.794C482.794 203.93 482.704 205.28 482.644 206H486.004V196.97C486.004 193.07 483.364 190.94 478.864 190.94C474.634 190.94 472.054 192.71 472.054 195.68C472.054 195.95 472.084 196.34 472.114 196.55H475.204C475.174 196.31 475.174 196.07 475.174 195.98C475.174 194.33 476.464 193.46 478.744 193.46C481.354 193.46 482.644 194.45 482.644 196.67V197.72H477.154C473.194 197.72 471.604 199.49 471.604 201.74C471.604 204.62 473.854 206.24 477.244 206.24ZM477.934 203.72C475.894 203.72 474.694 202.94 474.694 201.59C474.694 200.42 475.534 199.76 477.454 199.76H482.644V200.03C482.644 202.31 480.844 203.72 477.934 203.72ZM8.28 250.18C9.51 250.18 10.53 249.97 10.98 249.82V247.15C10.56 247.27 9.6 247.42 8.76 247.42C6.72 247.42 6 246.46 6 244.54V237.91H11.1V235.18H6V231.82H3.21L3.06 234.04C2.97 234.88 2.76 235.18 2.19 235.18H0.3V237.91H2.64V244.72C2.64 247.99 4.23 250.18 8.28 250.18ZM20.3187 250.24C25.0587 250.24 28.0887 247.33 28.0887 242.62C28.0887 237.88 25.0587 234.94 20.3187 234.94C15.6087 234.94 12.5787 237.88 12.5787 242.62C12.5787 247.33 15.6087 250.24 20.3187 250.24ZM20.3187 247.48C17.5887 247.48 15.9387 245.62 15.9387 242.62C15.9387 239.59 17.5887 237.7 20.3187 237.7C23.0487 237.7 24.7287 239.59 24.7287 242.62C24.7287 245.62 23.0487 247.48 20.3187 247.48ZM30.7934 250H34.1534V243.52C34.1534 239.98 35.7434 237.82 38.2934 237.82C40.2734 237.82 41.2334 238.99 41.2334 241.48C41.2334 242.17 41.1734 242.92 41.1134 243.49H44.1734C44.2334 242.86 44.3234 241.66 44.3234 240.73C44.3234 237.04 42.5534 234.94 39.3434 234.94C36.2834 234.94 34.7534 236.77 34.0634 239.44H34.0334L34.1534 235.18H30.7934V250ZM47.0346 250H50.3946V242.83C50.3946 239.59 52.2546 237.82 55.1946 237.82C57.8646 237.82 59.1846 239.14 59.1846 241.48V250H62.5446V240.73C62.5446 237.07 60.2346 234.94 56.4846 234.94C53.0346 234.94 51.1146 236.47 50.3046 239.14H50.2746L50.3946 235.18H47.0346V250ZM70.8103 250.24C74.0803 250.24 75.8503 248.92 76.3303 246.73H76.3603C76.3603 247.93 76.2703 249.28 76.2103 250H79.5703V240.97C79.5703 237.07 76.9303 234.94 72.4303 234.94C68.2003 234.94 65.6203 236.71 65.6203 239.68C65.6203 239.95 65.6503 240.34 65.6803 240.55H68.7703C68.7403 240.31 68.7403 240.07 68.7403 239.98C68.7403 238.33 70.0303 237.46 72.3103 237.46C74.9203 237.46 76.2103 238.45 76.2103 240.67V241.72H70.7203C66.7603 241.72 65.1703 243.49 65.1703 245.74C65.1703 248.62 67.4203 250.24 70.8103 250.24ZM71.5003 247.72C69.4603 247.72 68.2603 246.94 68.2603 245.59C68.2603 244.42 69.1003 243.76 71.0203 243.76H76.2103V244.03C76.2103 246.31 74.4103 247.72 71.5003 247.72ZM82.6226 250H85.9826V243.52C85.9826 239.98 87.5726 237.82 90.1226 237.82C92.1026 237.82 93.0626 238.99 93.0626 241.48C93.0626 242.17 93.0026 242.92 92.9426 243.49H96.0026C96.0626 242.86 96.1526 241.66 96.1526 240.73C96.1526 237.04 94.3826 234.94 91.1726 234.94C88.1126 234.94 86.5826 236.77 85.8926 239.44H85.8626L85.9826 235.18H82.6226V250ZM112.903 250.24C117.643 250.24 120.673 247.33 120.673 242.62C120.673 237.88 117.643 234.94 112.903 234.94C108.193 234.94 105.163 237.88 105.163 242.62C105.163 247.33 108.193 250.24 112.903 250.24ZM112.903 247.48C110.173 247.48 108.523 245.62 108.523 242.62C108.523 239.59 110.173 237.7 112.903 237.7C115.633 237.7 117.313 239.59 117.313 242.62C117.313 245.62 115.633 247.48 112.903 247.48ZM130.217 255.94H133.577V250.12C133.577 249.52 133.517 247.99 133.487 247H133.517C134.147 248.92 136.067 250.24 139.007 250.24C143.267 250.24 145.967 247.12 145.967 242.32C145.967 237.85 143.297 234.94 139.067 234.94C136.127 234.94 134.147 236.38 133.547 238.63H133.517L133.577 235.18H130.217V255.94ZM138.347 247.48C135.467 247.48 133.577 245.86 133.577 243.34V242.56C133.637 239.59 135.497 237.7 138.287 237.7C140.957 237.7 142.607 239.56 142.607 242.41C142.607 245.5 140.927 247.48 138.347 247.48ZM148.712 250H152.072V243.52C152.072 239.98 153.662 237.82 156.212 237.82C158.192 237.82 159.152 238.99 159.152 241.48C159.152 242.17 159.092 242.92 159.032 243.49H162.092C162.152 242.86 162.242 241.66 162.242 240.73C162.242 237.04 160.472 234.94 157.262 234.94C154.202 234.94 152.672 236.77 151.982 239.44H151.952L152.072 235.18H148.712V250ZM172.243 250.24C176.983 250.24 180.013 247.33 180.013 242.62C180.013 237.88 176.983 234.94 172.243 234.94C167.533 234.94 164.503 237.88 164.503 242.62C164.503 247.33 167.533 250.24 172.243 250.24ZM172.243 247.48C169.513 247.48 167.863 245.62 167.863 242.62C167.863 239.59 169.513 237.7 172.243 237.7C174.973 237.7 176.653 239.59 176.653 242.62C176.653 245.62 174.973 247.48 172.243 247.48ZM189.258 250.24C192.288 250.24 194.148 248.74 194.718 246.4H194.778C194.718 247.84 194.688 249.13 194.628 250H197.988V229.21H194.628V237.79H194.598C193.998 236.05 192.258 234.94 189.468 234.94C185.058 234.94 182.268 238.03 182.268 242.5C182.268 247.12 184.968 250.24 189.258 250.24ZM189.948 247.48C187.308 247.48 185.598 245.44 185.598 242.5C185.598 239.68 187.338 237.7 190.008 237.7C192.798 237.7 194.628 239.38 194.628 242.02V242.74C194.628 245.62 192.768 247.48 189.948 247.48ZM207.363 250.24C210.663 250.24 212.733 248.68 213.363 245.86H213.393C213.393 247.42 213.333 249.01 213.243 250H216.603V235.18H213.243V241.75C213.243 245.35 211.353 247.36 208.353 247.36C205.923 247.36 204.483 246.04 204.483 243.7V235.18H201.123V244.18C201.123 248.11 203.493 250.24 207.363 250.24ZM226.4 250.18C227.63 250.18 228.65 249.97 229.1 249.82V247.15C228.68 247.27 227.72 247.42 226.88 247.42C224.84 247.42 224.12 246.46 224.12 244.54V237.91H229.22V235.18H224.12V231.82H221.33L221.18 234.04C221.09 234.88 220.88 235.18 220.31 235.18H218.42V237.91H220.76V244.72C220.76 247.99 222.35 250.18 226.4 250.18ZM238.438 250.24C243.178 250.24 246.208 247.33 246.208 242.62C246.208 237.88 243.178 234.94 238.438 234.94C233.728 234.94 230.698 237.88 230.698 242.62C230.698 247.33 233.728 250.24 238.438 250.24ZM238.438 247.48C235.708 247.48 234.058 245.62 234.058 242.62C234.058 239.59 235.708 237.7 238.438 237.7C241.168 237.7 242.848 239.59 242.848 242.62C242.848 245.62 241.168 247.48 238.438 247.48ZM262.472 250.24C266.702 250.24 269.522 247.93 269.522 243.97H266.492C266.462 246.16 264.992 247.48 262.622 247.48C260.132 247.48 258.572 245.62 258.572 242.59C258.572 239.53 260.162 237.7 262.742 237.7C264.992 237.7 266.432 239.05 266.462 241.27H269.492C269.492 237.34 266.792 234.94 262.652 234.94C258.182 234.94 255.212 237.85 255.212 242.59C255.212 247.33 258.122 250.24 262.472 250.24ZM276.801 250.24C280.071 250.24 281.841 248.92 282.321 246.73H282.351C282.351 247.93 282.261 249.28 282.201 250H285.561V240.97C285.561 237.07 282.921 234.94 278.421 234.94C274.191 234.94 271.611 236.71 271.611 239.68C271.611 239.95 271.641 240.34 271.671 240.55H274.761C274.731 240.31 274.731 240.07 274.731 239.98C274.731 238.33 276.021 237.46 278.301 237.46C280.911 237.46 282.201 238.45 282.201 240.67V241.72H276.711C272.751 241.72 271.161 243.49 271.161 245.74C271.161 248.62 273.411 250.24 276.801 250.24ZM277.491 247.72C275.451 247.72 274.251 246.94 274.251 245.59C274.251 244.42 275.091 243.76 277.011 243.76H282.201V244.03C282.201 246.31 280.401 247.72 277.491 247.72ZM295.153 250.24C298.183 250.24 300.043 248.74 300.613 246.4H300.673C300.613 247.84 300.583 249.13 300.523 250H303.883V229.21H300.523V237.79H300.493C299.893 236.05 298.153 234.94 295.363 234.94C290.953 234.94 288.163 238.03 288.163 242.5C288.163 247.12 290.863 250.24 295.153 250.24ZM295.843 247.48C293.203 247.48 291.493 245.44 291.493 242.5C291.493 239.68 293.233 237.7 295.903 237.7C298.693 237.7 300.523 239.38 300.523 242.02V242.74C300.523 245.62 298.663 247.48 295.843 247.48ZM312.389 250.24C315.659 250.24 317.429 248.92 317.909 246.73H317.939C317.939 247.93 317.849 249.28 317.789 250H321.149V240.97C321.149 237.07 318.509 234.94 314.009 234.94C309.779 234.94 307.199 236.71 307.199 239.68C307.199 239.95 307.229 240.34 307.259 240.55H310.349C310.319 240.31 310.319 240.07 310.319 239.98C310.319 238.33 311.609 237.46 313.889 237.46C316.499 237.46 317.789 238.45 317.789 240.67V241.72H312.299C308.339 241.72 306.749 243.49 306.749 245.74C306.749 248.62 308.999 250.24 312.389 250.24ZM313.079 247.72C311.039 247.72 309.839 246.94 309.839 245.59C309.839 244.42 310.679 243.76 312.599 243.76H317.789V244.03C317.789 246.31 315.989 247.72 313.079 247.72ZM336.35 250H340.34L346.76 235.18H343.25L338.54 246.85H338.48L333.83 235.18H329.9L336.35 250ZM362.491 242.05C362.491 237.43 359.821 234.94 355.621 234.94C350.941 234.94 348.001 237.91 348.001 242.71C348.001 247.36 350.941 250.24 355.621 250.24C359.671 250.24 362.371 248.23 362.491 244.93H359.461C359.311 246.67 357.841 247.63 355.681 247.63C353.161 247.63 351.571 246.1 351.391 243.25H362.491V242.05ZM359.461 241.21H351.481C351.871 238.75 353.341 237.55 355.651 237.55C358.081 237.55 359.461 238.78 359.461 241V241.21ZM364.358 250H376.898V247.27H368.708V247.24L376.898 237.25V235.18H364.598V237.91H372.518V237.97L364.358 247.9V250ZM386.306 250H389.666V242.77C389.666 239.59 391.196 237.82 393.476 237.82C395.486 237.82 396.596 239.14 396.596 241.24V250H399.956V242.65C399.956 239.56 401.456 237.82 403.796 237.82C405.806 237.82 406.856 239.14 406.856 241.3V250H410.216V240.55C410.216 237.07 408.326 234.94 405.026 234.94C402.206 234.94 400.406 236.44 399.866 238.84H399.836C399.476 236.44 397.616 234.94 394.736 234.94C392.036 234.94 390.236 236.53 389.576 239.08H389.546L389.666 235.18H386.306V250ZM418.49 250.24C421.76 250.24 423.53 248.92 424.01 246.73H424.04C424.04 247.93 423.95 249.28 423.89 250H427.25V240.97C427.25 237.07 424.61 234.94 420.11 234.94C415.88 234.94 413.3 236.71 413.3 239.68C413.3 239.95 413.33 240.34 413.36 240.55H416.45C416.42 240.31 416.42 240.07 416.42 239.98C416.42 238.33 417.71 237.46 419.99 237.46C422.6 237.46 423.89 238.45 423.89 240.67V241.72H418.4C414.44 241.72 412.85 243.49 412.85 245.74C412.85 248.62 415.1 250.24 418.49 250.24ZM419.18 247.72C417.14 247.72 415.94 246.94 415.94 245.59C415.94 244.42 416.78 243.76 418.7 243.76H423.89V244.03C423.89 246.31 422.09 247.72 419.18 247.72ZM430.392 233.44H433.842V230.14H430.392V233.44ZM430.422 250H433.782V235.18H430.422V250ZM443.619 250.24C448.359 250.24 450.879 248.47 450.879 245.47C450.879 244.27 450.309 243.13 449.319 242.59C448.269 241.99 447.069 241.78 444.969 241.57C443.169 241.39 441.759 241.24 441.039 241C440.169 240.7 440.019 240.1 440.019 239.47C440.019 238.21 441.339 237.37 443.679 237.37C446.139 237.37 447.189 238.3 447.219 240.22H450.249C450.249 236.86 448.209 234.94 443.589 234.94C439.569 234.94 436.689 236.74 436.689 239.71C436.689 240.85 437.169 241.93 437.979 242.53C438.879 243.19 440.439 243.49 442.749 243.7C444.399 243.85 445.809 244 446.529 244.27C447.309 244.54 447.519 245.05 447.519 245.62C447.519 246.97 446.319 247.81 443.589 247.81C440.709 247.81 439.719 246.76 439.719 245.05H436.689C436.689 247.96 438.519 250.24 443.619 250.24ZM1.77 277.44H5.22V274.14H1.77V277.44ZM1.8 294H5.16V279.18H1.8V294ZM8.51695 294H11.877V286.83C11.877 283.59 13.737 281.82 16.677 281.82C19.347 281.82 20.667 283.14 20.667 285.48V294H24.027V284.73C24.027 281.07 21.717 278.94 17.967 278.94C14.517 278.94 12.597 280.47 11.787 283.14H11.757L11.877 279.18H8.51695V294ZM33.8827 294.24C38.1127 294.24 40.9327 291.93 40.9327 287.97H37.9027C37.8727 290.16 36.4027 291.48 34.0327 291.48C31.5427 291.48 29.9827 289.62 29.9827 286.59C29.9827 283.53 31.5727 281.7 34.1527 281.7C36.4027 281.7 37.8427 283.05 37.8727 285.27H40.9027C40.9027 281.34 38.2027 278.94 34.0627 278.94C29.5927 278.94 26.6227 281.85 26.6227 286.59C26.6227 291.33 29.5327 294.24 33.8827 294.24ZM43.7534 294H47.1134V287.52C47.1134 283.98 48.7034 281.82 51.2534 281.82C53.2334 281.82 54.1934 282.99 54.1934 285.48C54.1934 286.17 54.1334 286.92 54.0734 287.49H57.1334C57.1934 286.86 57.2834 285.66 57.2834 284.73C57.2834 281.04 55.5134 278.94 52.3034 278.94C49.2434 278.94 47.7134 280.77 47.0234 283.44H46.9934L47.1134 279.18H43.7534V294ZM60.1446 277.65H62.7846L65.9946 273.45H62.4846L60.1446 277.65ZM60.1146 294H63.4746V279.18H60.1146V294ZM72.2316 294H76.2216L82.6416 279.18H79.1316L74.4216 290.85H74.3616L69.7116 279.18H65.7816L72.2316 294ZM98.3726 286.05C98.3726 281.43 95.7026 278.94 91.5026 278.94C86.8226 278.94 83.8826 281.91 83.8826 286.71C83.8826 291.36 86.8226 294.24 91.5026 294.24C95.5526 294.24 98.2526 292.23 98.3726 288.93H95.3426C95.1926 290.67 93.7226 291.63 91.5626 291.63C89.0426 291.63 87.4526 290.1 87.2726 287.25H98.3726V286.05ZM95.3426 285.21H87.3626C87.7526 282.75 89.2226 281.55 91.5326 281.55C93.9626 281.55 95.3426 282.78 95.3426 285V285.21ZM101.22 294H104.58V273.21H101.22V294ZM108.839 287.22H110.159L111.149 277.23V273.84H107.849V277.23L108.839 287.22ZM107.789 294H111.209V290.1H107.789V294Z" fill="black"/>
</svg>
