<svg width="485" height="344" viewBox="0 0 485 344" fill="none" xmlns="http://www.w3.org/2000/svg">
<path d="M9 10.41C3.96 10.41 1.92 12.78 1.92 17.01V20.34H7.74V15.39H5.37V15.27C5.37 13.95 6.18 12.96 9 12.96V10.41ZM18.06 10.41C13.02 10.41 10.98 12.78 10.98 17.01V20.34H16.8V15.39H14.43V15.27C14.43 13.95 15.24 12.96 18.06 12.96V10.41ZM113.797 328.16C118.837 328.16 120.877 325.79 120.877 321.56V318.23H115.057V323.18H117.427V323.3C117.427 324.62 116.617 325.61 113.797 325.61V328.16ZM122.887 328.16C127.927 328.16 129.967 325.79 129.967 321.56V318.23H124.147V323.18H126.517V323.3C126.517 324.62 125.707 325.61 122.887 325.61V328.16Z" fill="white"/>
<path d="M21.003 30H24.603V23.88H29.613C34.353 23.88 36.933 21.42 36.933 17.13C36.933 12.72 34.053 10.26 29.163 10.26H21.003V30ZM24.603 21.33V13.26H29.043C31.923 13.26 33.513 14.7 33.513 17.31C33.513 20.01 32.013 21.33 29.403 21.33H24.603ZM44.8024 30.24C48.0724 30.24 49.8424 28.92 50.3224 26.73H50.3524C50.3524 27.93 50.2624 29.28 50.2024 30H53.5624V20.97C53.5624 17.07 50.9224 14.94 46.4224 14.94C42.1924 14.94 39.6124 16.71 39.6124 19.68C39.6124 19.95 39.6424 20.34 39.6724 20.55H42.7624C42.7324 20.31 42.7324 20.07 42.7324 19.98C42.7324 18.33 44.0224 17.46 46.3024 17.46C48.9124 17.46 50.2024 18.45 50.2024 20.67V21.72H44.7124C40.7524 21.72 39.1624 23.49 39.1624 25.74C39.1624 28.62 41.4124 30.24 44.8024 30.24ZM45.4924 27.72C43.4524 27.72 42.2524 26.94 42.2524 25.59C42.2524 24.42 43.0924 23.76 45.0124 23.76H50.2024V24.03C50.2024 26.31 48.4024 27.72 45.4924 27.72ZM56.6147 30H59.9747V23.52C59.9747 19.98 61.5647 17.82 64.1147 17.82C66.0947 17.82 67.0547 18.99 67.0547 21.48C67.0547 22.17 66.9947 22.92 66.9347 23.49H69.9947C70.0547 22.86 70.1447 21.66 70.1447 20.73C70.1447 17.04 68.3747 14.94 65.1647 14.94C62.1047 14.94 60.5747 16.77 59.8847 19.44H59.8547L59.9747 15.18H56.6147V30ZM79.4559 30.18C80.6859 30.18 81.7059 29.97 82.1559 29.82V27.15C81.7359 27.27 80.7759 27.42 79.9359 27.42C77.8959 27.42 77.1759 26.46 77.1759 24.54V17.91H82.2759V15.18H77.1759V11.82H74.3859L74.2359 14.04C74.1459 14.88 73.9359 15.18 73.3659 15.18H71.4759V17.91H73.8159V24.72C73.8159 27.99 75.4059 30.18 79.4559 30.18ZM84.8806 13.44H88.3306V10.14H84.8806V13.44ZM84.9105 30H88.2706V15.18H84.9105V30ZM98.4375 30.24C102.668 30.24 105.488 27.93 105.488 23.97H102.458C102.428 26.16 100.958 27.48 98.5875 27.48C96.0975 27.48 94.5375 25.62 94.5375 22.59C94.5375 19.53 96.1275 17.7 98.7075 17.7C100.958 17.7 102.398 19.05 102.428 21.27H105.458C105.458 17.34 102.758 14.94 98.6175 14.94C94.1475 14.94 91.1775 17.85 91.1775 22.59C91.1775 27.33 94.0875 30.24 98.4375 30.24ZM108.398 13.44H111.848V10.14H108.398V13.44ZM108.428 30H111.788V15.18H108.428V30ZM115.235 35.94H118.595V30.12C118.595 29.52 118.535 27.99 118.505 27H118.535C119.165 28.92 121.085 30.24 124.025 30.24C128.285 30.24 130.985 27.12 130.985 22.32C130.985 17.85 128.315 14.94 124.085 14.94C121.145 14.94 119.165 16.38 118.565 18.63H118.535L118.595 15.18H115.235V35.94ZM123.365 27.48C120.485 27.48 118.595 25.86 118.595 23.34V22.56C118.655 19.59 120.515 17.7 123.305 17.7C125.975 17.7 127.625 19.56 127.625 22.41C127.625 25.5 125.945 27.48 123.365 27.48ZM138.188 30.24C141.458 30.24 143.228 28.92 143.708 26.73H143.738C143.738 27.93 143.648 29.28 143.588 30H146.948V20.97C146.948 17.07 144.308 14.94 139.808 14.94C135.578 14.94 132.998 16.71 132.998 19.68C132.998 19.95 133.028 20.34 133.058 20.55H136.148C136.118 20.31 136.118 20.07 136.118 19.98C136.118 18.33 137.408 17.46 139.688 17.46C142.298 17.46 143.588 18.45 143.588 20.67V21.72H138.098C134.138 21.72 132.548 23.49 132.548 25.74C132.548 28.62 134.798 30.24 138.188 30.24ZM138.878 27.72C136.838 27.72 135.638 26.94 135.638 25.59C135.638 24.42 136.478 23.76 138.398 23.76H143.588V24.03C143.588 26.31 141.788 27.72 138.878 27.72ZM150.001 30H153.361V23.52C153.361 19.98 154.951 17.82 157.501 17.82C159.481 17.82 160.441 18.99 160.441 21.48C160.441 22.17 160.381 22.92 160.321 23.49H163.381C163.441 22.86 163.531 21.66 163.531 20.73C163.531 17.04 161.761 14.94 158.551 14.94C155.491 14.94 153.961 16.77 153.271 19.44H153.241L153.361 15.18H150.001V30ZM179.531 30.24C182.561 30.24 184.421 28.74 184.991 26.4H185.051C184.991 27.84 184.961 29.13 184.901 30H188.261V9.21H184.901V17.79H184.871C184.271 16.05 182.531 14.94 179.741 14.94C175.331 14.94 172.541 18.03 172.541 22.5C172.541 27.12 175.241 30.24 179.531 30.24ZM180.221 27.48C177.581 27.48 175.871 25.44 175.871 22.5C175.871 19.68 177.611 17.7 180.281 17.7C183.071 17.7 184.901 19.38 184.901 22.02V22.74C184.901 25.62 183.041 27.48 180.221 27.48ZM198.837 30.24C203.577 30.24 206.607 27.33 206.607 22.62C206.607 17.88 203.577 14.94 198.837 14.94C194.127 14.94 191.097 17.88 191.097 22.62C191.097 27.33 194.127 30.24 198.837 30.24ZM198.837 27.48C196.107 27.48 194.457 25.62 194.457 22.62C194.457 19.59 196.107 17.7 198.837 17.7C201.567 17.7 203.247 19.59 203.247 22.62C203.247 25.62 201.567 27.48 198.837 27.48ZM222.66 30.18C223.89 30.18 224.91 29.97 225.36 29.82V27.15C224.94 27.27 223.98 27.42 223.14 27.42C221.1 27.42 220.38 26.46 220.38 24.54V17.91H225.48V15.18H220.38V11.82H217.59L217.44 14.04C217.35 14.88 217.14 15.18 216.57 15.18H214.68V17.91H217.02V24.72C217.02 27.99 218.61 30.18 222.66 30.18ZM228.085 13.44H231.535V10.14H228.085V13.44ZM228.115 30H231.475V15.18H228.115V30ZM234.832 30H238.192V22.77C238.192 19.59 239.722 17.82 242.002 17.82C244.012 17.82 245.122 19.14 245.122 21.24V30H248.482V22.65C248.482 19.56 249.982 17.82 252.322 17.82C254.332 17.82 255.382 19.14 255.382 21.3V30H258.742V20.55C258.742 17.07 256.852 14.94 253.552 14.94C250.732 14.94 248.932 16.44 248.392 18.84H248.362C248.002 16.44 246.142 14.94 243.262 14.94C240.562 14.94 238.762 16.53 238.102 19.08H238.072L238.192 15.18H234.832V30ZM275.836 22.05C275.836 17.43 273.166 14.94 268.966 14.94C264.286 14.94 261.346 17.91 261.346 22.71C261.346 27.36 264.286 30.24 268.966 30.24C273.016 30.24 275.716 28.23 275.836 24.93H272.806C272.656 26.67 271.186 27.63 269.026 27.63C266.506 27.63 264.916 26.1 264.736 23.25H275.836V22.05ZM272.806 21.21H264.826C265.216 18.75 266.686 17.55 268.996 17.55C271.426 17.55 272.806 18.78 272.806 21V21.21ZM285.583 30H288.973L288.943 13.26H288.973L299.503 30H303.763V10.26H300.373L300.433 25.26H300.373L290.983 10.26H285.583V30ZM316.569 30.3C320.169 30.3 322.389 28.74 322.989 26.46H323.019C322.989 27.81 322.899 29.22 322.839 30H325.839V20.28H316.239V22.56H322.359V23.01C322.359 25.68 320.019 27.51 316.869 27.51C313.299 27.51 310.389 24.78 310.389 20.37C310.389 15.81 313.209 12.96 317.019 12.96C320.049 12.96 322.449 14.55 322.449 17.34C322.449 17.61 322.449 17.94 322.419 18.3H325.629C325.659 17.94 325.689 17.46 325.689 17.13C325.689 12.63 321.939 9.96 316.959 9.96C311.139 9.96 306.759 14.01 306.759 20.34C306.759 26.52 310.929 30.3 316.569 30.3ZM329.616 30H333.006V26.1H329.616V30ZM346.452 30.3C351.672 30.3 355.392 27.24 355.392 22.77V22.08H352.182V22.56C352.182 25.41 349.872 27.3 346.572 27.3C342.852 27.3 339.972 24.57 339.972 20.16C339.972 15.75 342.732 12.96 346.572 12.96C349.752 12.96 352.122 14.88 352.122 17.91C352.122 18.06 352.122 18.3 352.092 18.57H355.272C355.302 18.21 355.332 17.82 355.332 17.61C355.332 13.05 351.642 9.96 346.452 9.96C340.512 9.96 336.312 13.86 336.312 20.16C336.312 26.43 340.572 30.3 346.452 30.3ZM372.52 30H376.69L368.68 10.26H364.3L356.26 30H359.98L361.66 25.56H370.87L372.52 30ZM362.56 23.16L366.25 13.32H366.31L369.97 23.16H362.56ZM385.953 30.3C392.673 30.3 394.533 27.33 394.533 24.15C394.533 22.32 393.753 20.94 392.403 20.25C391.173 19.59 389.253 19.26 387.183 18.93C385.473 18.69 383.253 18.33 382.383 17.91C381.603 17.55 381.213 16.89 381.213 15.78C381.213 13.98 382.983 12.75 385.953 12.75C389.043 12.75 390.633 14.13 390.633 17.04H393.873C393.873 12.54 391.743 9.96 385.893 9.96C380.733 9.96 377.643 12.48 377.643 16.08C377.643 17.94 378.393 19.29 379.593 20.04C380.673 20.73 382.773 21.18 384.753 21.45C386.463 21.69 388.593 21.96 389.583 22.35C390.513 22.68 390.963 23.31 390.963 24.39C390.963 26.01 389.943 27.51 385.923 27.51C382.143 27.51 380.943 25.77 380.943 23.25H377.703C377.703 26.85 379.413 30.3 385.953 30.3ZM397.562 30H401.162V21.21H411.662V30H415.232V10.26H411.662V18.33H401.162V10.26H397.562V30ZM436.599 9.45H433.089L430.749 13.65H433.389L436.599 9.45ZM439.479 22.05C439.479 17.43 436.809 14.94 432.609 14.94C427.929 14.94 424.989 17.91 424.989 22.71C424.989 27.36 427.929 30.24 432.609 30.24C436.659 30.24 439.359 28.23 439.479 24.93H436.449C436.299 26.67 434.829 27.63 432.669 27.63C430.149 27.63 428.559 26.1 428.379 23.25H439.479V22.05ZM436.449 21.21H428.469C428.859 18.75 430.329 17.55 432.639 17.55C435.069 17.55 436.449 18.78 436.449 21V21.21ZM8.28 74.18C9.51 74.18 10.53 73.97 10.98 73.82V71.15C10.56 71.27 9.6 71.42 8.76 71.42C6.72 71.42 6 70.46 6 68.54V61.91H11.1V59.18H6V55.82H3.21L3.06 58.04C2.97 58.88 2.76 59.18 2.19 59.18H0.3V61.91H2.64V68.72C2.64 71.99 4.23 74.18 8.28 74.18ZM27.0687 66.05C27.0687 61.43 24.3987 58.94 20.1987 58.94C15.5187 58.94 12.5787 61.91 12.5787 66.71C12.5787 71.36 15.5187 74.24 20.1987 74.24C24.2487 74.24 26.9487 72.23 27.0687 68.93H24.0387C23.8887 70.67 22.4187 71.63 20.2587 71.63C17.7387 71.63 16.1487 70.1 15.9687 67.25H27.0687V66.05ZM24.0387 65.21H16.0587C16.4487 62.75 17.9187 61.55 20.2287 61.55C22.6587 61.55 24.0387 62.78 24.0387 65V65.21ZM29.8266 74H33.1866V67.52C33.1866 63.98 34.7766 61.82 37.3266 61.82C39.3066 61.82 40.2666 62.99 40.2666 65.48C40.2666 66.17 40.2066 66.92 40.1466 67.49H43.2066C43.2666 66.86 43.3566 65.66 43.3566 64.73C43.3566 61.04 41.5866 58.94 38.3766 58.94C35.3166 58.94 33.7866 60.77 33.0966 63.44H33.0666L33.1866 59.18H29.8266V74ZM58.0369 74.24C61.3069 74.24 63.0769 72.92 63.5569 70.73H63.5869C63.5869 71.93 63.4969 73.28 63.4369 74H66.7969V64.97C66.7969 61.07 64.1569 58.94 59.6569 58.94C55.4269 58.94 52.8469 60.71 52.8469 63.68C52.8469 63.95 52.8769 64.34 52.9069 64.55H55.9969C55.9669 64.31 55.9669 64.07 55.9669 63.98C55.9669 62.33 57.2569 61.46 59.5369 61.46C62.1469 61.46 63.4369 62.45 63.4369 64.67V65.72H57.9469C53.9869 65.72 52.3969 67.49 52.3969 69.74C52.3969 72.62 54.6469 74.24 58.0369 74.24ZM58.7269 71.72C56.6869 71.72 55.4869 70.94 55.4869 69.59C55.4869 68.42 56.3269 67.76 58.2469 67.76H63.4369V68.03C63.4369 70.31 61.6369 71.72 58.7269 71.72ZM83.8882 74.24C88.6282 74.24 91.6582 71.33 91.6582 66.62C91.6582 61.88 88.6282 58.94 83.8882 58.94C79.1782 58.94 76.1482 61.88 76.1482 66.62C76.1482 71.33 79.1782 74.24 83.8882 74.24ZM83.8882 71.48C81.1582 71.48 79.5082 69.62 79.5082 66.62C79.5082 63.59 81.1582 61.7 83.8882 61.7C86.6182 61.7 88.2982 63.59 88.2982 66.62C88.2982 69.62 86.6182 71.48 83.8882 71.48ZM94.4529 79.94H97.8129V74.12C97.8129 73.52 97.7529 71.99 97.7229 71H97.7529C98.3829 72.92 100.303 74.24 103.243 74.24C107.503 74.24 110.203 71.12 110.203 66.32C110.203 61.85 107.533 58.94 103.303 58.94C100.363 58.94 98.3829 60.38 97.7829 62.63H97.7529L97.8129 59.18H94.4529V79.94ZM102.583 71.48C99.7029 71.48 97.8129 69.86 97.8129 67.34V66.56C97.8729 63.59 99.7329 61.7 102.523 61.7C105.193 61.7 106.843 63.56 106.843 66.41C106.843 69.5 105.163 71.48 102.583 71.48ZM120.238 74.24C124.978 74.24 128.008 71.33 128.008 66.62C128.008 61.88 124.978 58.94 120.238 58.94C115.528 58.94 112.498 61.88 112.498 66.62C112.498 71.33 115.528 74.24 120.238 74.24ZM120.238 71.48C117.508 71.48 115.858 69.62 115.858 66.62C115.858 63.59 117.508 61.7 120.238 61.7C122.968 61.7 124.648 63.59 124.648 66.62C124.648 69.62 122.968 71.48 120.238 71.48ZM130.713 74H134.073V67.52C134.073 63.98 135.663 61.82 138.213 61.82C140.193 61.82 141.153 62.99 141.153 65.48C141.153 66.17 141.093 66.92 141.033 67.49H144.093C144.153 66.86 144.243 65.66 144.243 64.73C144.243 61.04 142.473 58.94 139.263 58.94C136.203 58.94 134.673 60.77 133.983 63.44H133.953L134.073 59.18H130.713V74ZM153.554 74.18C154.784 74.18 155.804 73.97 156.254 73.82V71.15C155.834 71.27 154.874 71.42 154.034 71.42C151.994 71.42 151.274 70.46 151.274 68.54V61.91H156.374V59.18H151.274V55.82H148.484L148.334 58.04C148.244 58.88 148.034 59.18 147.464 59.18H145.574V61.91H147.914V68.72C147.914 71.99 149.504 74.18 153.554 74.18ZM164.978 74.24C168.278 74.24 170.348 72.68 170.978 69.86H171.008C171.008 71.42 170.948 73.01 170.858 74H174.218V59.18H170.858V65.75C170.858 69.35 168.968 71.36 165.968 71.36C163.538 71.36 162.098 70.04 162.098 67.7V59.18H158.738V68.18C158.738 72.11 161.108 74.24 164.978 74.24ZM177.415 74H180.775V66.83C180.775 63.59 182.635 61.82 185.575 61.82C188.245 61.82 189.565 63.14 189.565 65.48V74H192.925V64.73C192.925 61.07 190.615 58.94 186.865 58.94C183.415 58.94 181.495 60.47 180.685 63.14H180.655L180.775 59.18H177.415V74ZM196.061 57.44H199.511V54.14H196.061V57.44ZM196.091 74H199.451V59.18H196.091V74ZM209.348 74.24C212.378 74.24 214.238 72.74 214.808 70.4H214.868C214.808 71.84 214.778 73.13 214.718 74H218.078V53.21H214.718V61.79H214.688C214.088 60.05 212.348 58.94 209.558 58.94C205.148 58.94 202.358 62.03 202.358 66.5C202.358 71.12 205.058 74.24 209.348 74.24ZM210.038 71.48C207.398 71.48 205.688 69.44 205.688 66.5C205.688 63.68 207.428 61.7 210.098 61.7C212.888 61.7 214.718 63.38 214.718 66.02V66.74C214.718 69.62 212.858 71.48 210.038 71.48ZM226.583 74.24C229.853 74.24 231.623 72.92 232.103 70.73H232.133C232.133 71.93 232.043 73.28 231.983 74H235.343V64.97C235.343 61.07 232.703 58.94 228.203 58.94C223.973 58.94 221.393 60.71 221.393 63.68C221.393 63.95 221.423 64.34 221.453 64.55H224.543C224.513 64.31 224.513 64.07 224.513 63.98C224.513 62.33 225.803 61.46 228.083 61.46C230.693 61.46 231.983 62.45 231.983 64.67V65.72H226.493C222.533 65.72 220.943 67.49 220.943 69.74C220.943 72.62 223.193 74.24 226.583 74.24ZM227.273 71.72C225.233 71.72 224.033 70.94 224.033 69.59C224.033 68.42 224.873 67.76 226.793 67.76H231.983V68.03C231.983 70.31 230.183 71.72 227.273 71.72ZM244.935 74.24C247.965 74.24 249.825 72.74 250.395 70.4H250.455C250.395 71.84 250.365 73.13 250.305 74H253.665V53.21H250.305V61.79H250.275C249.675 60.05 247.935 58.94 245.145 58.94C240.735 58.94 237.945 62.03 237.945 66.5C237.945 71.12 240.645 74.24 244.935 74.24ZM245.625 71.48C242.985 71.48 241.275 69.44 241.275 66.5C241.275 63.68 243.015 61.7 245.685 61.7C248.475 61.7 250.305 63.38 250.305 66.02V66.74C250.305 69.62 248.445 71.48 245.625 71.48ZM270.991 66.05C270.991 61.43 268.321 58.94 264.121 58.94C259.441 58.94 256.501 61.91 256.501 66.71C256.501 71.36 259.441 74.24 264.121 74.24C268.171 74.24 270.871 72.23 270.991 68.93H267.961C267.811 70.67 266.341 71.63 264.181 71.63C261.661 71.63 260.071 70.1 259.891 67.25H270.991V66.05ZM267.961 65.21H259.981C260.371 62.75 261.841 61.55 264.151 61.55C266.581 61.55 267.961 62.78 267.961 65V65.21ZM287.038 74.24C290.068 74.24 291.928 72.74 292.498 70.4H292.558C292.498 71.84 292.468 73.13 292.408 74H295.768V53.21H292.408V61.79H292.378C291.778 60.05 290.038 58.94 287.248 58.94C282.838 58.94 280.048 62.03 280.048 66.5C280.048 71.12 282.748 74.24 287.038 74.24ZM287.728 71.48C285.088 71.48 283.378 69.44 283.378 66.5C283.378 63.68 285.118 61.7 287.788 61.7C290.578 61.7 292.408 63.38 292.408 66.02V66.74C292.408 69.62 290.548 71.48 287.728 71.48ZM313.094 66.05C313.094 61.43 310.424 58.94 306.224 58.94C301.544 58.94 298.604 61.91 298.604 66.71C298.604 71.36 301.544 74.24 306.224 74.24C310.274 74.24 312.974 72.23 313.094 68.93H310.064C309.914 70.67 308.444 71.63 306.284 71.63C303.764 71.63 302.174 70.1 301.994 67.25H313.094V66.05ZM310.064 65.21H302.084C302.474 62.75 303.944 61.55 306.254 61.55C308.684 61.55 310.064 62.78 310.064 65V65.21ZM327.821 74.24C331.091 74.24 332.861 72.92 333.341 70.73H333.371C333.371 71.93 333.281 73.28 333.221 74H336.581V64.97C336.581 61.07 333.941 58.94 329.441 58.94C325.211 58.94 322.631 60.71 322.631 63.68C322.631 63.95 322.661 64.34 322.691 64.55H325.781C325.751 64.31 325.751 64.07 325.751 63.98C325.751 62.33 327.041 61.46 329.321 61.46C331.931 61.46 333.221 62.45 333.221 64.67V65.72H327.731C323.771 65.72 322.181 67.49 322.181 69.74C322.181 72.62 324.431 74.24 327.821 74.24ZM328.511 71.72C326.471 71.72 325.271 70.94 325.271 69.59C325.271 68.42 326.111 67.76 328.031 67.76H333.221V68.03C333.221 70.31 331.421 71.72 328.511 71.72ZM339.723 79.94H343.083V74.12C343.083 73.52 343.023 71.99 342.993 71H343.023C343.653 72.92 345.573 74.24 348.513 74.24C352.773 74.24 355.473 71.12 355.473 66.32C355.473 61.85 352.803 58.94 348.573 58.94C345.633 58.94 343.653 60.38 343.053 62.63H343.023L343.083 59.18H339.723V79.94ZM347.853 71.48C344.973 71.48 343.083 69.86 343.083 67.34V66.56C343.143 63.59 345.003 61.7 347.793 61.7C350.463 61.7 352.113 63.56 352.113 66.41C352.113 69.5 350.433 71.48 347.853 71.48ZM358.218 74H361.578V67.52C361.578 63.98 363.168 61.82 365.718 61.82C367.698 61.82 368.658 62.99 368.658 65.48C368.658 66.17 368.598 66.92 368.538 67.49H371.598C371.658 66.86 371.748 65.66 371.748 64.73C371.748 61.04 369.978 58.94 366.768 58.94C363.708 58.94 362.178 60.77 361.488 63.44H361.458L361.578 59.18H358.218V74ZM388.499 66.05C388.499 61.43 385.829 58.94 381.629 58.94C376.949 58.94 374.009 61.91 374.009 66.71C374.009 71.36 376.949 74.24 381.629 74.24C385.679 74.24 388.379 72.23 388.499 68.93H385.469C385.319 70.67 383.849 71.63 381.689 71.63C379.169 71.63 377.579 70.1 377.399 67.25H388.499V66.05ZM385.469 65.21H377.489C377.879 62.75 379.349 61.55 381.659 61.55C384.089 61.55 385.469 62.78 385.469 65V65.21ZM391.257 74H394.617V66.83C394.617 63.59 396.477 61.82 399.417 61.82C402.087 61.82 403.407 63.14 403.407 65.48V74H406.767V64.73C406.767 61.07 404.457 58.94 400.707 58.94C397.257 58.94 395.337 60.47 394.527 63.14H394.497L394.617 59.18H391.257V74ZM416.353 74.24C419.383 74.24 421.243 72.74 421.813 70.4H421.873C421.813 71.84 421.783 73.13 421.723 74H425.083V53.21H421.723V61.79H421.693C421.093 60.05 419.353 58.94 416.563 58.94C412.153 58.94 409.363 62.03 409.363 66.5C409.363 71.12 412.063 74.24 416.353 74.24ZM417.043 71.48C414.403 71.48 412.693 69.44 412.693 66.5C412.693 63.68 414.433 61.7 417.103 61.7C419.893 61.7 421.723 63.38 421.723 66.02V66.74C421.723 69.62 419.863 71.48 417.043 71.48ZM442.409 66.05C442.409 61.43 439.739 58.94 435.539 58.94C430.859 58.94 427.919 61.91 427.919 66.71C427.919 71.36 430.859 74.24 435.539 74.24C439.589 74.24 442.289 72.23 442.409 68.93H439.379C439.229 70.67 437.759 71.63 435.599 71.63C433.079 71.63 431.489 70.1 431.309 67.25H442.409V66.05ZM439.379 65.21H431.399C431.789 62.75 433.259 61.55 435.569 61.55C437.999 61.55 439.379 62.78 439.379 65V65.21ZM445.166 74H448.526V67.52C448.526 63.98 450.116 61.82 452.666 61.82C454.646 61.82 455.606 62.99 455.606 65.48C455.606 66.17 455.546 66.92 455.486 67.49H458.546C458.606 66.86 458.696 65.66 458.696 64.73C458.696 61.04 456.926 58.94 453.716 58.94C450.656 58.94 449.126 60.77 448.436 63.44H448.406L448.526 59.18H445.166V74ZM482.197 66.05C482.197 61.43 479.527 58.94 475.327 58.94C470.647 58.94 467.707 61.91 467.707 66.71C467.707 71.36 470.647 74.24 475.327 74.24C479.377 74.24 482.077 72.23 482.197 68.93H479.167C479.017 70.67 477.547 71.63 475.387 71.63C472.867 71.63 471.277 70.1 471.097 67.25H482.197V66.05ZM479.167 65.21H471.187C471.577 62.75 473.047 61.55 475.357 61.55C477.787 61.55 479.167 62.78 479.167 65V65.21ZM8.49 118.24C12.72 118.24 15.54 115.93 15.54 111.97H12.51C12.48 114.16 11.01 115.48 8.64 115.48C6.15 115.48 4.59 113.62 4.59 110.59C4.59 107.53 6.18 105.7 8.76 105.7C11.01 105.7 12.45 107.05 12.48 109.27H15.51C15.51 105.34 12.81 102.94 8.67 102.94C4.2 102.94 1.23 105.85 1.23 110.59C1.23 115.33 4.14 118.24 8.49 118.24ZM18.3607 118H21.7207V111.52C21.7207 107.98 23.3107 105.82 25.8607 105.82C27.8407 105.82 28.8007 106.99 28.8007 109.48C28.8007 110.17 28.7407 110.92 28.6807 111.49H31.7407C31.8007 110.86 31.8907 109.66 31.8907 108.73C31.8907 105.04 30.1207 102.94 26.9107 102.94C23.8507 102.94 22.3207 104.77 21.6307 107.44H21.6007L21.7207 103.18H18.3607V118ZM34.692 101.44H38.142V98.14H34.692V101.44ZM34.722 118H38.082V103.18H34.722V118ZM46.6589 118.24C49.9289 118.24 51.6989 116.92 52.1789 114.73H52.2089C52.2089 115.93 52.1189 117.28 52.0589 118H55.4189V108.97C55.4189 105.07 52.7789 102.94 48.2789 102.94C44.0489 102.94 41.4689 104.71 41.4689 107.68C41.4689 107.95 41.4989 108.34 41.5289 108.55H44.6189C44.5889 108.31 44.5889 108.07 44.5889 107.98C44.5889 106.33 45.8789 105.46 48.1589 105.46C50.7689 105.46 52.0589 106.45 52.0589 108.67V109.72H46.5689C42.6089 109.72 41.0189 111.49 41.0189 113.74C41.0189 116.62 43.2689 118.24 46.6589 118.24ZM47.3489 115.72C45.3089 115.72 44.1089 114.94 44.1089 113.59C44.1089 112.42 44.9489 111.76 46.8689 111.76H52.0589V112.03C52.0589 114.31 50.2589 115.72 47.3489 115.72ZM58.4712 118H61.8312V111.52C61.8312 107.98 63.4212 105.82 65.9712 105.82C67.9512 105.82 68.9112 106.99 68.9112 109.48C68.9112 110.17 68.8512 110.92 68.7912 111.49H71.8512C71.9112 110.86 72.0012 109.66 72.0012 108.73C72.0012 105.04 70.2312 102.94 67.0212 102.94C63.9612 102.94 62.4312 104.77 61.7412 107.44H61.7112L61.8312 103.18H58.4712V118ZM88.2715 118.24C92.5015 118.24 95.3215 115.93 95.3215 111.97H92.2915C92.2615 114.16 90.7915 115.48 88.4215 115.48C85.9315 115.48 84.3715 113.62 84.3715 110.59C84.3715 107.53 85.9615 105.7 88.5415 105.7C90.7915 105.7 92.2315 107.05 92.2615 109.27H95.2915C95.2915 105.34 92.5915 102.94 88.4515 102.94C83.9815 102.94 81.0115 105.85 81.0115 110.59C81.0115 115.33 83.9215 118.24 88.2715 118.24ZM105.432 118.24C110.172 118.24 113.202 115.33 113.202 110.62C113.202 105.88 110.172 102.94 105.432 102.94C100.722 102.94 97.6922 105.88 97.6922 110.62C97.6922 115.33 100.722 118.24 105.432 118.24ZM105.432 115.48C102.702 115.48 101.052 113.62 101.052 110.62C101.052 107.59 102.702 105.7 105.432 105.7C108.162 105.7 109.842 107.59 109.842 110.62C109.842 113.62 108.162 115.48 105.432 115.48ZM115.997 101.44H119.447V98.14H115.997V101.44ZM116.027 118H119.387V103.18H116.027V118ZM129.224 118.24C133.964 118.24 136.484 116.47 136.484 113.47C136.484 112.27 135.914 111.13 134.924 110.59C133.874 109.99 132.674 109.78 130.574 109.57C128.774 109.39 127.364 109.24 126.644 109C125.774 108.7 125.624 108.1 125.624 107.47C125.624 106.21 126.944 105.37 129.284 105.37C131.744 105.37 132.794 106.3 132.824 108.22H135.854C135.854 104.86 133.814 102.94 129.194 102.94C125.174 102.94 122.294 104.74 122.294 107.71C122.294 108.85 122.774 109.93 123.584 110.53C124.484 111.19 126.044 111.49 128.354 111.7C130.004 111.85 131.414 112 132.134 112.27C132.914 112.54 133.124 113.05 133.124 113.62C133.124 114.97 131.924 115.81 129.194 115.81C126.314 115.81 125.324 114.76 125.324 113.05H122.294C122.294 115.96 124.124 118.24 129.224 118.24ZM144.439 118.24C147.709 118.24 149.479 116.92 149.959 114.73H149.989C149.989 115.93 149.899 117.28 149.839 118H153.199V108.97C153.199 105.07 150.559 102.94 146.059 102.94C141.829 102.94 139.249 104.71 139.249 107.68C139.249 107.95 139.279 108.34 139.309 108.55H142.399C142.369 108.31 142.369 108.07 142.369 107.98C142.369 106.33 143.659 105.46 145.939 105.46C148.549 105.46 149.839 106.45 149.839 108.67V109.72H144.349C140.389 109.72 138.799 111.49 138.799 113.74C138.799 116.62 141.049 118.24 144.439 118.24ZM145.129 115.72C143.089 115.72 141.889 114.94 141.889 113.59C141.889 112.42 142.729 111.76 144.649 111.76H149.839V112.03C149.839 114.31 148.039 115.72 145.129 115.72ZM162.732 118.24C167.472 118.24 169.992 116.47 169.992 113.47C169.992 112.27 169.422 111.13 168.432 110.59C167.382 109.99 166.182 109.78 164.082 109.57C162.282 109.39 160.872 109.24 160.152 109C159.282 108.7 159.132 108.1 159.132 107.47C159.132 106.21 160.452 105.37 162.792 105.37C165.252 105.37 166.302 106.3 166.332 108.22H169.362C169.362 104.86 167.322 102.94 162.702 102.94C158.682 102.94 155.802 104.74 155.802 107.71C155.802 108.85 156.282 109.93 157.092 110.53C157.992 111.19 159.552 111.49 161.862 111.7C163.512 111.85 164.922 112 165.642 112.27C166.422 112.54 166.632 113.05 166.632 113.62C166.632 114.97 165.432 115.81 162.702 115.81C159.822 115.81 158.832 114.76 158.832 113.05H155.802C155.802 115.96 157.632 118.24 162.732 118.24ZM179.476 118H182.836V110.83C182.836 107.59 184.696 105.82 187.636 105.82C190.306 105.82 191.626 107.14 191.626 109.48V118H194.986V108.73C194.986 105.07 192.676 102.94 188.926 102.94C185.476 102.94 183.556 104.47 182.746 107.14H182.716L182.836 103.18H179.476V118ZM205.322 118.24C210.062 118.24 213.092 115.33 213.092 110.62C213.092 105.88 210.062 102.94 205.322 102.94C200.612 102.94 197.582 105.88 197.582 110.62C197.582 115.33 200.612 118.24 205.322 118.24ZM205.322 115.48C202.592 115.48 200.942 113.62 200.942 110.62C200.942 107.59 202.592 105.7 205.322 105.7C208.052 105.7 209.732 107.59 209.732 110.62C209.732 113.62 208.052 115.48 205.322 115.48ZM220.318 118H224.308L230.728 103.18H227.218L222.508 114.85H222.448L217.798 103.18H213.868L220.318 118ZM237.375 118.24C240.645 118.24 242.415 116.92 242.895 114.73H242.925C242.925 115.93 242.835 117.28 242.775 118H246.135V108.97C246.135 105.07 243.495 102.94 238.995 102.94C234.765 102.94 232.185 104.71 232.185 107.68C232.185 107.95 232.215 108.34 232.245 108.55H235.335C235.305 108.31 235.305 108.07 235.305 107.98C235.305 106.33 236.595 105.46 238.875 105.46C241.485 105.46 242.775 106.45 242.775 108.67V109.72H237.285C233.325 109.72 231.735 111.49 231.735 113.74C231.735 116.62 233.985 118.24 237.375 118.24ZM238.065 115.72C236.025 115.72 234.825 114.94 234.825 113.59C234.825 112.42 235.665 111.76 237.585 111.76H242.775V112.03C242.775 114.31 240.975 115.72 238.065 115.72ZM255.668 118.24C260.408 118.24 262.928 116.47 262.928 113.47C262.928 112.27 262.358 111.13 261.368 110.59C260.318 109.99 259.118 109.78 257.018 109.57C255.218 109.39 253.808 109.24 253.088 109C252.218 108.7 252.068 108.1 252.068 107.47C252.068 106.21 253.388 105.37 255.728 105.37C258.188 105.37 259.238 106.3 259.268 108.22H262.298C262.298 104.86 260.258 102.94 255.638 102.94C251.618 102.94 248.738 104.74 248.738 107.71C248.738 108.85 249.218 109.93 250.028 110.53C250.928 111.19 252.488 111.49 254.798 111.7C256.448 111.85 257.858 112 258.578 112.27C259.358 112.54 259.568 113.05 259.568 113.62C259.568 114.97 258.368 115.81 255.638 115.81C252.758 115.81 251.768 114.76 251.768 113.05H248.738C248.738 115.96 250.568 118.24 255.668 118.24ZM279.012 118.18C280.242 118.18 281.262 117.97 281.712 117.82V115.15C281.292 115.27 280.332 115.42 279.492 115.42C277.452 115.42 276.732 114.46 276.732 112.54V105.91H281.832V103.18H276.732V99.82H273.942L273.792 102.04C273.702 102.88 273.492 103.18 272.922 103.18H271.032V105.91H273.372V112.72C273.372 115.99 274.962 118.18 279.012 118.18ZM291.051 118.24C295.791 118.24 298.821 115.33 298.821 110.62C298.821 105.88 295.791 102.94 291.051 102.94C286.341 102.94 283.311 105.88 283.311 110.62C283.311 115.33 286.341 118.24 291.051 118.24ZM291.051 115.48C288.321 115.48 286.671 113.62 286.671 110.62C286.671 107.59 288.321 105.7 291.051 105.7C293.781 105.7 295.461 107.59 295.461 110.62C295.461 113.62 293.781 115.48 291.051 115.48ZM308.066 118.24C311.096 118.24 312.956 116.74 313.526 114.4H313.586C313.526 115.84 313.496 117.13 313.436 118H316.796V97.21H313.436V105.79H313.406C312.806 104.05 311.066 102.94 308.276 102.94C303.866 102.94 301.076 106.03 301.076 110.5C301.076 115.12 303.776 118.24 308.066 118.24ZM308.756 115.48C306.116 115.48 304.406 113.44 304.406 110.5C304.406 107.68 306.146 105.7 308.816 105.7C311.606 105.7 313.436 107.38 313.436 110.02V110.74C313.436 113.62 311.576 115.48 308.756 115.48ZM327.371 118.24C332.111 118.24 335.141 115.33 335.141 110.62C335.141 105.88 332.111 102.94 327.371 102.94C322.661 102.94 319.631 105.88 319.631 110.62C319.631 115.33 322.661 118.24 327.371 118.24ZM327.371 115.48C324.641 115.48 322.991 113.62 322.991 110.62C322.991 107.59 324.641 105.7 327.371 105.7C330.101 105.7 331.781 107.59 331.781 110.62C331.781 113.62 330.101 115.48 327.371 115.48ZM344.15 118.24C348.89 118.24 351.41 116.47 351.41 113.47C351.41 112.27 350.84 111.13 349.85 110.59C348.8 109.99 347.6 109.78 345.5 109.57C343.7 109.39 342.29 109.24 341.57 109C340.7 108.7 340.55 108.1 340.55 107.47C340.55 106.21 341.87 105.37 344.21 105.37C346.67 105.37 347.72 106.3 347.75 108.22H350.78C350.78 104.86 348.74 102.94 344.12 102.94C340.1 102.94 337.22 104.74 337.22 107.71C337.22 108.85 337.7 109.93 338.51 110.53C339.41 111.19 340.97 111.49 343.28 111.7C344.93 111.85 346.34 112 347.06 112.27C347.84 112.54 348.05 113.05 348.05 113.62C348.05 114.97 346.85 115.81 344.12 115.81C341.24 115.81 340.25 114.76 340.25 113.05H337.22C337.22 115.96 339.05 118.24 344.15 118.24ZM368.185 118.24C372.925 118.24 375.955 115.33 375.955 110.62C375.955 105.88 372.925 102.94 368.185 102.94C363.475 102.94 360.445 105.88 360.445 110.62C360.445 115.33 363.475 118.24 368.185 118.24ZM368.185 115.48C365.455 115.48 363.805 113.62 363.805 110.62C363.805 107.59 365.455 105.7 368.185 105.7C370.915 105.7 372.595 107.59 372.595 110.62C372.595 113.62 370.915 115.48 368.185 115.48ZM384.964 118.24C389.704 118.24 392.224 116.47 392.224 113.47C392.224 112.27 391.654 111.13 390.664 110.59C389.614 109.99 388.414 109.78 386.314 109.57C384.514 109.39 383.104 109.24 382.384 109C381.514 108.7 381.364 108.1 381.364 107.47C381.364 106.21 382.684 105.37 385.024 105.37C387.484 105.37 388.534 106.3 388.564 108.22H391.594C391.594 104.86 389.554 102.94 384.934 102.94C380.914 102.94 378.034 104.74 378.034 107.71C378.034 108.85 378.514 109.93 379.324 110.53C380.224 111.19 381.784 111.49 384.094 111.7C385.744 111.85 387.154 112 387.874 112.27C388.654 112.54 388.864 113.05 388.864 113.62C388.864 114.97 387.664 115.81 384.934 115.81C382.054 115.81 381.064 114.76 381.064 113.05H378.034C378.034 115.96 379.864 118.24 384.964 118.24ZM408.248 118.24C411.278 118.24 413.138 116.74 413.708 114.4H413.768C413.708 115.84 413.678 117.13 413.618 118H416.978V97.21H413.618V105.79H413.588C412.988 104.05 411.248 102.94 408.458 102.94C404.048 102.94 401.258 106.03 401.258 110.5C401.258 115.12 403.958 118.24 408.248 118.24ZM408.938 115.48C406.298 115.48 404.588 113.44 404.588 110.5C404.588 107.68 406.328 105.7 408.998 105.7C411.788 105.7 413.618 107.38 413.618 110.02V110.74C413.618 113.62 411.758 115.48 408.938 115.48ZM420.354 101.44H423.804V98.14H420.354V101.44ZM420.384 118H423.744V103.18H420.384V118ZM432.321 118.24C435.591 118.24 437.361 116.92 437.841 114.73H437.871C437.871 115.93 437.781 117.28 437.721 118H441.081V108.97C441.081 105.07 438.441 102.94 433.941 102.94C429.711 102.94 427.131 104.71 427.131 107.68C427.131 107.95 427.161 108.34 427.191 108.55H430.281C430.251 108.31 430.251 108.07 430.251 107.98C430.251 106.33 431.541 105.46 433.821 105.46C436.431 105.46 437.721 106.45 437.721 108.67V109.72H432.231C428.271 109.72 426.681 111.49 426.681 113.74C426.681 116.62 428.931 118.24 432.321 118.24ZM433.011 115.72C430.971 115.72 429.771 114.94 429.771 113.59C429.771 112.42 430.611 111.76 432.531 111.76H437.721V112.03C437.721 114.31 435.921 115.72 433.011 115.72ZM450.613 118.24C455.353 118.24 457.873 116.47 457.873 113.47C457.873 112.27 457.303 111.13 456.313 110.59C455.263 109.99 454.063 109.78 451.963 109.57C450.163 109.39 448.753 109.24 448.033 109C447.163 108.7 447.013 108.1 447.013 107.47C447.013 106.21 448.333 105.37 450.673 105.37C453.133 105.37 454.183 106.3 454.213 108.22H457.243C457.243 104.86 455.203 102.94 450.583 102.94C446.563 102.94 443.683 104.74 443.683 107.71C443.683 108.85 444.163 109.93 444.973 110.53C445.873 111.19 447.433 111.49 449.743 111.7C451.393 111.85 452.803 112 453.523 112.27C454.303 112.54 454.513 113.05 454.513 113.62C454.513 114.97 453.313 115.81 450.583 115.81C447.703 115.81 446.713 114.76 446.713 113.05H443.683C443.683 115.96 445.513 118.24 450.613 118.24ZM461.179 118H464.569V114.1H461.179V118ZM16.89 162H21.06L13.05 142.26H8.67L0.63 162H4.35L6.03 157.56H15.24L16.89 162ZM6.93 155.16L10.62 145.32H10.68L14.34 155.16H6.93ZM36.783 162.24C41.013 162.24 43.833 159.93 43.833 155.97H40.803C40.773 158.16 39.303 159.48 36.933 159.48C34.443 159.48 32.883 157.62 32.883 154.59C32.883 151.53 34.473 149.7 37.053 149.7C39.303 149.7 40.743 151.05 40.773 153.27H43.803C43.803 149.34 41.103 146.94 36.963 146.94C32.493 146.94 29.523 149.85 29.523 154.59C29.523 159.33 32.433 162.24 36.783 162.24ZM53.9438 162.24C58.6838 162.24 61.7138 159.33 61.7138 154.62C61.7138 149.88 58.6838 146.94 53.9438 146.94C49.2338 146.94 46.2038 149.88 46.2038 154.62C46.2038 159.33 49.2338 162.24 53.9438 162.24ZM53.9438 159.48C51.2138 159.48 49.5638 157.62 49.5638 154.62C49.5638 151.59 51.2138 149.7 53.9438 149.7C56.6738 149.7 58.3538 151.59 58.3538 154.62C58.3538 157.62 56.6738 159.48 53.9438 159.48ZM64.4184 162H67.7784V154.83C67.7784 151.59 69.6384 149.82 72.5784 149.82C75.2484 149.82 76.5684 151.14 76.5684 153.48V162H79.9284V152.73C79.9284 149.07 77.6184 146.94 73.8684 146.94C70.4184 146.94 68.4984 148.47 67.6884 151.14H67.6584L67.7784 147.18H64.4184V162ZM97.0141 154.05C97.0141 149.43 94.3441 146.94 90.1441 146.94C85.4641 146.94 82.5241 149.91 82.5241 154.71C82.5241 159.36 85.4641 162.24 90.1441 162.24C94.1941 162.24 96.8941 160.23 97.0141 156.93H93.9841C93.8341 158.67 92.3641 159.63 90.2041 159.63C87.6841 159.63 86.0941 158.1 85.9141 155.25H97.0141V154.05ZM93.9841 153.21H86.0041C86.3941 150.75 87.8641 149.55 90.1741 149.55C92.6041 149.55 93.9841 150.78 93.9841 153V153.21ZM97.6088 162H101.599L105.289 156.45L109.129 162H113.389L107.689 154.41L113.119 147.18H109.309L105.769 152.52L102.109 147.18H97.8488L103.219 154.41L97.6088 162ZM115.811 145.35H117.941C118.121 143.7 118.601 143.04 119.201 143.04C119.741 143.04 120.011 143.28 120.521 143.79L120.971 144.24C121.601 144.87 122.291 145.35 123.431 145.35C125.081 145.35 126.521 144.15 126.761 140.94H124.661C124.481 142.62 124.001 143.28 123.371 143.28C122.861 143.28 122.561 143.01 122.051 142.5L121.601 142.08C120.971 141.45 120.281 140.94 119.141 140.94C117.521 140.94 116.051 142.17 115.811 145.35ZM119.651 162.24C122.921 162.24 124.691 160.92 125.171 158.73H125.201C125.201 159.93 125.111 161.28 125.051 162H128.411V152.97C128.411 149.07 125.771 146.94 121.271 146.94C117.041 146.94 114.461 148.71 114.461 151.68C114.461 151.95 114.491 152.34 114.521 152.55H117.611C117.581 152.31 117.581 152.07 117.581 151.98C117.581 150.33 118.871 149.46 121.151 149.46C123.761 149.46 125.051 150.45 125.051 152.67V153.72H119.561C115.601 153.72 114.011 155.49 114.011 157.74C114.011 160.62 116.261 162.24 119.651 162.24ZM120.341 159.72C118.301 159.72 117.101 158.94 117.101 157.59C117.101 156.42 117.941 155.76 119.861 155.76H125.051V156.03C125.051 158.31 123.251 159.72 120.341 159.72ZM138.754 162.24C143.494 162.24 146.524 159.33 146.524 154.62C146.524 149.88 143.494 146.94 138.754 146.94C134.044 146.94 131.014 149.88 131.014 154.62C131.014 159.33 134.044 162.24 138.754 162.24ZM138.754 159.48C136.024 159.48 134.374 157.62 134.374 154.62C134.374 151.59 136.024 149.7 138.754 149.7C141.484 149.7 143.164 151.59 143.164 154.62C143.164 157.62 141.484 159.48 138.754 159.48ZM170.017 154.05C170.017 149.43 167.347 146.94 163.147 146.94C158.467 146.94 155.527 149.91 155.527 154.71C155.527 159.36 158.467 162.24 163.147 162.24C167.197 162.24 169.897 160.23 170.017 156.93H166.987C166.837 158.67 165.367 159.63 163.207 159.63C160.687 159.63 159.097 158.1 158.917 155.25H170.017V154.05ZM166.987 153.21H159.007C159.397 150.75 160.867 149.55 163.177 149.55C165.607 149.55 166.987 150.78 166.987 153V153.21ZM179.614 167.94H182.974V162.12C182.974 161.52 182.914 159.99 182.884 159H182.914C183.544 160.92 185.464 162.24 188.404 162.24C192.664 162.24 195.364 159.12 195.364 154.32C195.364 149.85 192.694 146.94 188.464 146.94C185.524 146.94 183.544 148.38 182.944 150.63H182.914L182.974 147.18H179.614V167.94ZM187.744 159.48C184.864 159.48 182.974 157.86 182.974 155.34V154.56C183.034 151.59 184.894 149.7 187.684 149.7C190.354 149.7 192.004 151.56 192.004 154.41C192.004 157.5 190.324 159.48 187.744 159.48ZM198.109 162H201.469V155.52C201.469 151.98 203.059 149.82 205.609 149.82C207.589 149.82 208.549 150.99 208.549 153.48C208.549 154.17 208.489 154.92 208.429 155.49H211.489C211.549 154.86 211.639 153.66 211.639 152.73C211.639 149.04 209.869 146.94 206.659 146.94C203.599 146.94 202.069 148.77 201.379 151.44H201.349L201.469 147.18H198.109V162ZM221.64 162.24C226.38 162.24 229.41 159.33 229.41 154.62C229.41 149.88 226.38 146.94 221.64 146.94C216.93 146.94 213.9 149.88 213.9 154.62C213.9 159.33 216.93 162.24 221.64 162.24ZM221.64 159.48C218.91 159.48 217.26 157.62 217.26 154.62C217.26 151.59 218.91 149.7 221.64 149.7C224.37 149.7 226.05 151.59 226.05 154.62C226.05 157.62 224.37 159.48 221.64 159.48ZM229.835 162H233.825L237.515 156.45L241.355 162H245.615L239.915 154.41L245.345 147.18H241.535L237.995 152.52L234.335 147.18H230.075L235.445 154.41L229.835 162ZM247.86 145.44H251.31V142.14H247.86V145.44ZM247.89 162H251.25V147.18H247.89V162ZM254.607 162H257.967V154.77C257.967 151.59 259.497 149.82 261.777 149.82C263.787 149.82 264.897 151.14 264.897 153.24V162H268.257V154.65C268.257 151.56 269.757 149.82 272.097 149.82C274.107 149.82 275.157 151.14 275.157 153.3V162H278.517V152.55C278.517 149.07 276.627 146.94 273.327 146.94C270.507 146.94 268.707 148.44 268.167 150.84H268.137C267.777 148.44 265.917 146.94 263.037 146.94C260.337 146.94 258.537 148.53 257.877 151.08H257.847L257.967 147.18H254.607V162ZM281.661 145.44H285.111V142.14H281.661V145.44ZM281.691 162H285.051V147.18H281.691V162ZM294.948 162.24C297.978 162.24 299.838 160.74 300.408 158.4H300.468C300.408 159.84 300.378 161.13 300.318 162H303.678V141.21H300.318V149.79H300.288C299.688 148.05 297.948 146.94 295.158 146.94C290.748 146.94 287.958 150.03 287.958 154.5C287.958 159.12 290.658 162.24 294.948 162.24ZM295.638 159.48C292.998 159.48 291.288 157.44 291.288 154.5C291.288 151.68 293.028 149.7 295.698 149.7C298.488 149.7 300.318 151.38 300.318 154.02V154.74C300.318 157.62 298.458 159.48 295.638 159.48ZM312.184 162.24C315.454 162.24 317.224 160.92 317.704 158.73H317.734C317.734 159.93 317.644 161.28 317.584 162H320.944V152.97C320.944 149.07 318.304 146.94 313.804 146.94C309.574 146.94 306.994 148.71 306.994 151.68C306.994 151.95 307.024 152.34 307.054 152.55H310.144C310.114 152.31 310.114 152.07 310.114 151.98C310.114 150.33 311.404 149.46 313.684 149.46C316.294 149.46 317.584 150.45 317.584 152.67V153.72H312.094C308.134 153.72 306.544 155.49 306.544 157.74C306.544 160.62 308.794 162.24 312.184 162.24ZM312.874 159.72C310.834 159.72 309.634 158.94 309.634 157.59C309.634 156.42 310.474 155.76 312.394 155.76H317.584V156.03C317.584 158.31 315.784 159.72 312.874 159.72ZM330.536 162.24C333.566 162.24 335.426 160.74 335.996 158.4H336.056C335.996 159.84 335.966 161.13 335.906 162H339.266V141.21H335.906V149.79H335.876C335.276 148.05 333.536 146.94 330.746 146.94C326.336 146.94 323.546 150.03 323.546 154.5C323.546 159.12 326.246 162.24 330.536 162.24ZM331.226 159.48C328.586 159.48 326.876 157.44 326.876 154.5C326.876 151.68 328.616 149.7 331.286 149.7C334.076 149.7 335.906 151.38 335.906 154.02V154.74C335.906 157.62 334.046 159.48 331.226 159.48ZM356.592 154.05C356.592 149.43 353.922 146.94 349.722 146.94C345.042 146.94 342.102 149.91 342.102 154.71C342.102 159.36 345.042 162.24 349.722 162.24C353.772 162.24 356.472 160.23 356.592 156.93H353.562C353.412 158.67 351.942 159.63 349.782 159.63C347.262 159.63 345.672 158.1 345.492 155.25H356.592V154.05ZM353.562 153.21H345.582C345.972 150.75 347.442 149.55 349.752 149.55C352.182 149.55 353.562 150.78 353.562 153V153.21ZM372.639 162.24C375.669 162.24 377.529 160.74 378.099 158.4H378.159C378.099 159.84 378.069 161.13 378.009 162H381.369V141.21H378.009V149.79H377.979C377.379 148.05 375.639 146.94 372.849 146.94C368.439 146.94 365.649 150.03 365.649 154.5C365.649 159.12 368.349 162.24 372.639 162.24ZM373.329 159.48C370.689 159.48 368.979 157.44 368.979 154.5C368.979 151.68 370.719 149.7 373.389 149.7C376.179 149.7 378.009 151.38 378.009 154.02V154.74C378.009 157.62 376.149 159.48 373.329 159.48ZM389.875 162.24C393.145 162.24 394.915 160.92 395.395 158.73H395.425C395.425 159.93 395.335 161.28 395.275 162H398.635V152.97C398.635 149.07 395.995 146.94 391.495 146.94C387.265 146.94 384.685 148.71 384.685 151.68C384.685 151.95 384.715 152.34 384.745 152.55H387.835C387.805 152.31 387.805 152.07 387.805 151.98C387.805 150.33 389.095 149.46 391.375 149.46C393.985 149.46 395.275 150.45 395.275 152.67V153.72H389.785C385.825 153.72 384.235 155.49 384.235 157.74C384.235 160.62 386.485 162.24 389.875 162.24ZM390.565 159.72C388.525 159.72 387.325 158.94 387.325 157.59C387.325 156.42 388.165 155.76 390.085 155.76H395.275V156.03C395.275 158.31 393.475 159.72 390.565 159.72ZM15.72 198.05C15.72 193.43 13.05 190.94 8.85 190.94C4.17 190.94 1.23 193.91 1.23 198.71C1.23 203.36 4.17 206.24 8.85 206.24C12.9 206.24 15.6 204.23 15.72 200.93H12.69C12.54 202.67 11.07 203.63 8.91 203.63C6.39 203.63 4.8 202.1 4.62 199.25H15.72V198.05ZM12.69 197.21H4.71C5.1 194.75 6.57 193.55 8.88 193.55C11.31 193.55 12.69 194.78 12.69 197V197.21ZM30.3879 211.94H33.7479V191.18H30.4179V194H30.3879C29.7879 192.11 28.0179 190.94 25.1379 190.94C20.9979 190.94 18.0279 193.91 18.0279 198.47C18.0279 203.21 20.7279 206.24 24.9879 206.24C27.8379 206.24 29.8179 204.8 30.3579 202.58H30.3879V211.94ZM25.7079 203.48C23.0979 203.48 21.3579 201.53 21.3579 198.47C21.3579 195.59 23.1579 193.7 25.7679 193.7C28.5579 193.7 30.3879 195.38 30.3879 197.99V198.71C30.3879 201.62 28.5279 203.48 25.7079 203.48ZM43.1236 206.24C46.4236 206.24 48.4936 204.68 49.1236 201.86H49.1536C49.1536 203.42 49.0936 205.01 49.0036 206H52.3636V191.18H49.0036V197.75C49.0036 201.35 47.1136 203.36 44.1136 203.36C41.6836 203.36 40.2436 202.04 40.2436 199.7V191.18H36.8836V200.18C36.8836 204.11 39.2536 206.24 43.1236 206.24ZM55.65 189.44H59.1V186.14H55.65V189.44ZM55.68 206H59.04V191.18H55.68V206ZM62.487 211.94H65.847V206.12C65.847 205.52 65.787 203.99 65.757 203H65.787C66.417 204.92 68.337 206.24 71.277 206.24C75.537 206.24 78.237 203.12 78.237 198.32C78.237 193.85 75.567 190.94 71.337 190.94C68.397 190.94 66.417 192.38 65.817 194.63H65.787L65.847 191.18H62.487V211.94ZM70.617 203.48C67.737 203.48 65.847 201.86 65.847 199.34V198.56C65.907 195.59 67.767 193.7 70.557 193.7C73.227 193.7 74.877 195.56 74.877 198.41C74.877 201.5 73.197 203.48 70.617 203.48ZM95.022 198.05C95.022 193.43 92.352 190.94 88.152 190.94C83.472 190.94 80.532 193.91 80.532 198.71C80.532 203.36 83.472 206.24 88.152 206.24C92.202 206.24 94.902 204.23 95.022 200.93H91.992C91.842 202.67 90.372 203.63 88.212 203.63C85.692 203.63 84.102 202.1 83.922 199.25H95.022V198.05ZM91.992 197.21H84.012C84.402 194.75 85.872 193.55 88.182 193.55C90.612 193.55 91.992 194.78 91.992 197V197.21ZM115.689 185.45H112.179L109.839 189.65H112.479L115.689 185.45ZM118.569 198.05C118.569 193.43 115.899 190.94 111.699 190.94C107.019 190.94 104.079 193.91 104.079 198.71C104.079 203.36 107.019 206.24 111.699 206.24C115.749 206.24 118.449 204.23 118.569 200.93H115.539C115.389 202.67 113.919 203.63 111.759 203.63C109.239 203.63 107.649 202.1 107.469 199.25H118.569V198.05ZM115.539 197.21H107.559C107.949 194.75 109.419 193.55 111.729 193.55C114.159 193.55 115.539 194.78 115.539 197V197.21ZM134.166 206.24C137.466 206.24 139.536 204.68 140.166 201.86H140.196C140.196 203.42 140.136 205.01 140.046 206H143.406V191.18H140.046V197.75C140.046 201.35 138.156 203.36 135.156 203.36C132.726 203.36 131.286 202.04 131.286 199.7V191.18H127.926V200.18C127.926 204.11 130.296 206.24 134.166 206.24ZM146.602 206H149.962V198.77C149.962 195.59 151.492 193.82 153.772 193.82C155.782 193.82 156.892 195.14 156.892 197.24V206H160.252V198.65C160.252 195.56 161.752 193.82 164.092 193.82C166.102 193.82 167.152 195.14 167.152 197.3V206H170.512V196.55C170.512 193.07 168.622 190.94 165.322 190.94C162.502 190.94 160.702 192.44 160.162 194.84H160.132C159.772 192.44 157.912 190.94 155.032 190.94C152.332 190.94 150.532 192.53 149.872 195.08H149.842L149.962 191.18H146.602V206ZM186.855 206.24C189.885 206.24 191.745 204.74 192.315 202.4H192.375C192.315 203.84 192.285 205.13 192.225 206H195.585V185.21H192.225V193.79H192.195C191.595 192.05 189.855 190.94 187.065 190.94C182.655 190.94 179.865 194.03 179.865 198.5C179.865 203.12 182.565 206.24 186.855 206.24ZM187.545 203.48C184.905 203.48 183.195 201.44 183.195 198.5C183.195 195.68 184.935 193.7 187.605 193.7C190.395 193.7 192.225 195.38 192.225 198.02V198.74C192.225 201.62 190.365 203.48 187.545 203.48ZM198.961 189.44H202.411V186.14H198.961V189.44ZM198.991 206H202.351V191.18H198.991V206ZM206.698 206H210.058V193.91H215.218V191.18H210.058V189.86C210.058 188.24 210.988 187.34 212.698 187.34C213.718 187.34 214.498 187.55 214.978 187.7V185.03C214.498 184.85 213.418 184.61 212.098 184.61C208.888 184.61 206.698 186.41 206.698 189.71V191.18H204.328V193.91H206.698V206ZM230.393 198.05C230.393 193.43 227.723 190.94 223.523 190.94C218.843 190.94 215.903 193.91 215.903 198.71C215.903 203.36 218.843 206.24 223.523 206.24C227.573 206.24 230.273 204.23 230.393 200.93H227.363C227.213 202.67 225.743 203.63 223.583 203.63C221.063 203.63 219.473 202.1 219.293 199.25H230.393V198.05ZM227.363 197.21H219.383C219.773 194.75 221.243 193.55 223.553 193.55C225.983 193.55 227.363 194.78 227.363 197V197.21ZM233.151 206H236.511V199.52C236.511 195.98 238.101 193.82 240.651 193.82C242.631 193.82 243.591 194.99 243.591 197.48C243.591 198.17 243.531 198.92 243.471 199.49H246.531C246.591 198.86 246.681 197.66 246.681 196.73C246.681 193.04 244.911 190.94 241.701 190.94C238.641 190.94 237.111 192.77 236.421 195.44H236.391L236.511 191.18H233.151V206ZM263.433 198.05C263.433 193.43 260.763 190.94 256.563 190.94C251.883 190.94 248.943 193.91 248.943 198.71C248.943 203.36 251.883 206.24 256.563 206.24C260.613 206.24 263.313 204.23 263.433 200.93H260.403C260.253 202.67 258.783 203.63 256.623 203.63C254.103 203.63 252.513 202.1 252.333 199.25H263.433V198.05ZM260.403 197.21H252.423C252.813 194.75 254.283 193.55 256.593 193.55C259.023 193.55 260.403 194.78 260.403 197V197.21ZM266.19 206H269.55V198.83C269.55 195.59 271.41 193.82 274.35 193.82C277.02 193.82 278.34 195.14 278.34 197.48V206H281.7V196.73C281.7 193.07 279.39 190.94 275.64 190.94C272.19 190.94 270.27 192.47 269.46 195.14H269.43L269.55 191.18H266.19V206ZM291.556 206.24C295.786 206.24 298.606 203.93 298.606 199.97H295.576C295.546 202.16 294.076 203.48 291.706 203.48C289.216 203.48 287.656 201.62 287.656 198.59C287.656 195.53 289.246 193.7 291.826 193.7C294.076 193.7 295.516 195.05 295.546 197.27H298.576C298.576 193.34 295.876 190.94 291.736 190.94C287.266 190.94 284.296 193.85 284.296 198.59C284.296 203.33 287.206 206.24 291.556 206.24ZM301.517 189.44H304.967V186.14H301.517V189.44ZM301.547 206H304.907V191.18H301.547V206ZM313.484 206.24C316.754 206.24 318.524 204.92 319.004 202.73H319.034C319.034 203.93 318.944 205.28 318.884 206H322.244V196.97C322.244 193.07 319.604 190.94 315.104 190.94C310.874 190.94 308.294 192.71 308.294 195.68C308.294 195.95 308.324 196.34 308.354 196.55H311.444C311.414 196.31 311.414 196.07 311.414 195.98C311.414 194.33 312.704 193.46 314.984 193.46C317.594 193.46 318.884 194.45 318.884 196.67V197.72H313.394C309.434 197.72 307.844 199.49 307.844 201.74C307.844 204.62 310.094 206.24 313.484 206.24ZM314.174 203.72C312.134 203.72 310.934 202.94 310.934 201.59C310.934 200.42 311.774 199.76 313.694 199.76H318.884V200.03C318.884 202.31 317.084 203.72 314.174 203.72ZM325.386 206H328.746V185.21H325.386V206ZM332.074 210.14C334.684 209.93 336.004 208.46 336.004 204.92V202.1H332.614V206H334.024V206.09C334.024 207.56 333.454 208.28 332.074 208.4V210.14ZM353.829 206.24C358.569 206.24 361.599 203.33 361.599 198.62C361.599 193.88 358.569 190.94 353.829 190.94C349.119 190.94 346.089 193.88 346.089 198.62C346.089 203.33 349.119 206.24 353.829 206.24ZM353.829 203.48C351.099 203.48 349.449 201.62 349.449 198.62C349.449 195.59 351.099 193.7 353.829 193.7C356.559 193.7 358.239 195.59 358.239 198.62C358.239 201.62 356.559 203.48 353.829 203.48ZM364.304 206H367.664V198.83C367.664 195.59 369.524 193.82 372.464 193.82C375.134 193.82 376.454 195.14 376.454 197.48V206H379.814V196.73C379.814 193.07 377.504 190.94 373.754 190.94C370.304 190.94 368.384 192.47 367.574 195.14H367.544L367.664 191.18H364.304V206ZM389.4 206.24C392.43 206.24 394.29 204.74 394.86 202.4H394.92C394.86 203.84 394.83 205.13 394.77 206H398.13V185.21H394.77V193.79H394.74C394.14 192.05 392.4 190.94 389.61 190.94C385.2 190.94 382.41 194.03 382.41 198.5C382.41 203.12 385.11 206.24 389.4 206.24ZM390.09 203.48C387.45 203.48 385.74 201.44 385.74 198.5C385.74 195.68 387.48 193.7 390.15 193.7C392.94 193.7 394.77 195.38 394.77 198.02V198.74C394.77 201.62 392.91 203.48 390.09 203.48ZM415.455 198.05C415.455 193.43 412.785 190.94 408.585 190.94C403.905 190.94 400.965 193.91 400.965 198.71C400.965 203.36 403.905 206.24 408.585 206.24C412.635 206.24 415.335 204.23 415.455 200.93H412.425C412.275 202.67 410.805 203.63 408.645 203.63C406.125 203.63 404.535 202.1 404.355 199.25H415.455V198.05ZM412.425 197.21H404.445C404.835 194.75 406.305 193.55 408.615 193.55C411.045 193.55 412.425 194.78 412.425 197V197.21ZM8.28 250.18C9.51 250.18 10.53 249.97 10.98 249.82V247.15C10.56 247.27 9.6 247.42 8.76 247.42C6.72 247.42 6 246.46 6 244.54V237.91H11.1V235.18H6V231.82H3.21L3.06 234.04C2.97 234.88 2.76 235.18 2.19 235.18H0.3V237.91H2.64V244.72C2.64 247.99 4.23 250.18 8.28 250.18ZM20.3187 250.24C25.0587 250.24 28.0887 247.33 28.0887 242.62C28.0887 237.88 25.0587 234.94 20.3187 234.94C15.6087 234.94 12.5787 237.88 12.5787 242.62C12.5787 247.33 15.6087 250.24 20.3187 250.24ZM20.3187 247.48C17.5887 247.48 15.9387 245.62 15.9387 242.62C15.9387 239.59 17.5887 237.7 20.3187 237.7C23.0487 237.7 24.7287 239.59 24.7287 242.62C24.7287 245.62 23.0487 247.48 20.3187 247.48ZM37.3334 250.24C40.3634 250.24 42.2234 248.74 42.7934 246.4H42.8534C42.7934 247.84 42.7634 249.13 42.7034 250H46.0634V229.21H42.7034V237.79H42.6734C42.0734 236.05 40.3334 234.94 37.5434 234.94C33.1334 234.94 30.3434 238.03 30.3434 242.5C30.3434 247.12 33.0434 250.24 37.3334 250.24ZM38.0234 247.48C35.3834 247.48 33.6734 245.44 33.6734 242.5C33.6734 239.68 35.4134 237.7 38.0834 237.7C40.8734 237.7 42.7034 239.38 42.7034 242.02V242.74C42.7034 245.62 40.8434 247.48 38.0234 247.48ZM56.6391 250.24C61.3791 250.24 64.4091 247.33 64.4091 242.62C64.4091 237.88 61.3791 234.94 56.6391 234.94C51.9291 234.94 48.8991 237.88 48.8991 242.62C48.8991 247.33 51.9291 250.24 56.6391 250.24ZM56.6391 247.48C53.9091 247.48 52.2591 245.62 52.2591 242.62C52.2591 239.59 53.9091 237.7 56.6391 237.7C59.3691 237.7 61.0491 239.59 61.0491 242.62C61.0491 245.62 59.3691 247.48 56.6391 247.48ZM73.418 250.24C78.158 250.24 80.678 248.47 80.678 245.47C80.678 244.27 80.108 243.13 79.118 242.59C78.068 241.99 76.868 241.78 74.768 241.57C72.968 241.39 71.558 241.24 70.838 241C69.968 240.7 69.818 240.1 69.818 239.47C69.818 238.21 71.138 237.37 73.478 237.37C75.938 237.37 76.988 238.3 77.018 240.22H80.048C80.048 236.86 78.008 234.94 73.388 234.94C69.368 234.94 66.488 236.74 66.488 239.71C66.488 240.85 66.968 241.93 67.778 242.53C68.678 243.19 70.238 243.49 72.548 243.7C74.198 243.85 75.608 244 76.328 244.27C77.108 244.54 77.318 245.05 77.318 245.62C77.318 246.97 76.118 247.81 73.388 247.81C70.508 247.81 69.518 246.76 69.518 245.05H66.488C66.488 247.96 68.318 250.24 73.418 250.24ZM96.7627 250.18C97.9927 250.18 99.0127 249.97 99.4627 249.82V247.15C99.0427 247.27 98.0827 247.42 97.2427 247.42C95.2027 247.42 94.4827 246.46 94.4827 244.54V237.91H99.5827V235.18H94.4827V231.82H91.6927L91.5427 234.04C91.4527 234.88 91.2427 235.18 90.6727 235.18H88.7827V237.91H91.1227V244.72C91.1227 247.99 92.7127 250.18 96.7627 250.18ZM102.097 250H105.457V243.52C105.457 239.98 107.047 237.82 109.597 237.82C111.577 237.82 112.537 238.99 112.537 241.48C112.537 242.17 112.477 242.92 112.417 243.49H115.477C115.537 242.86 115.627 241.66 115.627 240.73C115.627 237.04 113.857 234.94 110.647 234.94C107.587 234.94 106.057 236.77 105.367 239.44H105.337L105.457 235.18H102.097V250ZM123.559 250.24C126.829 250.24 128.599 248.92 129.079 246.73H129.109C129.109 247.93 129.019 249.28 128.959 250H132.319V240.97C132.319 237.07 129.679 234.94 125.179 234.94C120.949 234.94 118.369 236.71 118.369 239.68C118.369 239.95 118.399 240.34 118.429 240.55H121.519C121.489 240.31 121.489 240.07 121.489 239.98C121.489 238.33 122.779 237.46 125.059 237.46C127.669 237.46 128.959 238.45 128.959 240.67V241.72H123.469C119.509 241.72 117.919 243.49 117.919 245.74C117.919 248.62 120.169 250.24 123.559 250.24ZM124.249 247.72C122.209 247.72 121.009 246.94 121.009 245.59C121.009 244.42 121.849 243.76 123.769 243.76H128.959V244.03C128.959 246.31 127.159 247.72 124.249 247.72ZM144.431 250.24C148.601 250.24 151.211 247.21 151.211 242.32C151.211 237.76 148.661 234.94 144.401 234.94C141.461 234.94 139.421 236.32 138.791 238.48H138.761C138.791 237.76 138.821 236.56 138.821 235.93V229.21H135.461V250H138.821C138.761 249.25 138.701 247.9 138.701 246.85H138.731C139.331 248.92 141.371 250.24 144.431 250.24ZM143.561 247.48C140.651 247.48 138.821 245.89 138.821 243.31V242.56C138.821 239.56 140.681 237.7 143.621 237.7C146.261 237.7 147.851 239.5 147.851 242.41C147.851 245.56 146.201 247.48 143.561 247.48ZM158.414 250.24C161.684 250.24 163.454 248.92 163.934 246.73H163.964C163.964 247.93 163.874 249.28 163.814 250H167.174V240.97C167.174 237.07 164.534 234.94 160.034 234.94C155.804 234.94 153.224 236.71 153.224 239.68C153.224 239.95 153.254 240.34 153.284 240.55H156.374C156.344 240.31 156.344 240.07 156.344 239.98C156.344 238.33 157.634 237.46 159.914 237.46C162.524 237.46 163.814 238.45 163.814 240.67V241.72H158.324C154.364 241.72 152.774 243.49 152.774 245.74C152.774 248.62 155.024 250.24 158.414 250.24ZM159.104 247.72C157.064 247.72 155.864 246.94 155.864 245.59C155.864 244.42 156.704 243.76 158.624 243.76H163.814V244.03C163.814 246.31 162.014 247.72 159.104 247.72ZM170.316 250H173.676V229.21H170.316V250ZM177.095 250H180.455V242.98C180.455 239.65 182.315 237.82 185.285 237.82C187.955 237.82 189.275 239.14 189.275 241.48V250H192.635V240.73C192.635 237.07 190.325 234.94 186.575 234.94C183.095 234.94 181.175 236.47 180.395 239.17H180.365C180.395 238.36 180.455 236.65 180.455 235.93V229.21H177.095V250ZM200.898 250.24C204.168 250.24 205.938 248.92 206.418 246.73H206.448C206.448 247.93 206.358 249.28 206.298 250H209.658V240.97C209.658 237.07 207.018 234.94 202.518 234.94C198.288 234.94 195.708 236.71 195.708 239.68C195.708 239.95 195.738 240.34 195.768 240.55H198.858C198.828 240.31 198.828 240.07 198.828 239.98C198.828 238.33 200.118 237.46 202.398 237.46C205.008 237.46 206.298 238.45 206.298 240.67V241.72H200.808C196.848 241.72 195.258 243.49 195.258 245.74C195.258 248.62 197.508 250.24 200.898 250.24ZM201.588 247.72C199.548 247.72 198.348 246.94 198.348 245.59C198.348 244.42 199.188 243.76 201.108 243.76H206.298V244.03C206.298 246.31 204.498 247.72 201.588 247.72ZM212.71 250H216.07V242.77C216.07 239.59 217.6 237.82 219.88 237.82C221.89 237.82 223 239.14 223 241.24V250H226.36V242.65C226.36 239.56 227.86 237.82 230.2 237.82C232.21 237.82 233.26 239.14 233.26 241.3V250H236.62V240.55C236.62 237.07 234.73 234.94 231.43 234.94C228.61 234.94 226.81 236.44 226.27 238.84H226.24C225.88 236.44 224.02 234.94 221.14 234.94C218.44 234.94 216.64 236.53 215.98 239.08H215.95L216.07 235.18H212.71V250ZM246.483 233.44H249.963V230.14H246.483V233.44ZM244.683 256.27C248.223 256.27 249.903 253.9 249.903 250.42V235.18H246.543V250.3C246.543 252.31 245.733 253.48 243.843 253.48C243.153 253.48 242.433 253.39 241.863 253.27V255.94C242.283 256.06 243.333 256.27 244.683 256.27ZM259.35 250.24C262.65 250.24 264.72 248.68 265.35 245.86H265.38C265.38 247.42 265.32 249.01 265.23 250H268.59V235.18H265.23V241.75C265.23 245.35 263.34 247.36 260.34 247.36C257.91 247.36 256.47 246.04 256.47 243.7V235.18H253.11V244.18C253.11 248.11 255.48 250.24 259.35 250.24ZM271.786 250H275.146V242.83C275.146 239.59 277.006 237.82 279.946 237.82C282.616 237.82 283.936 239.14 283.936 241.48V250H287.296V240.73C287.296 237.07 284.986 234.94 281.236 234.94C277.786 234.94 275.866 236.47 275.056 239.14H275.026L275.146 235.18H271.786V250ZM296.942 250.18C298.172 250.18 299.192 249.97 299.642 249.82V247.15C299.222 247.27 298.262 247.42 297.422 247.42C295.382 247.42 294.662 246.46 294.662 244.54V237.91H299.762V235.18H294.662V231.82H291.872L291.722 234.04C291.632 234.88 291.422 235.18 290.852 235.18H288.962V237.91H291.302V244.72C291.302 247.99 292.892 250.18 296.942 250.18ZM308.981 250.24C313.721 250.24 316.751 247.33 316.751 242.62C316.751 237.88 313.721 234.94 308.981 234.94C304.271 234.94 301.241 237.88 301.241 242.62C301.241 247.33 304.271 250.24 308.981 250.24ZM308.981 247.48C306.251 247.48 304.601 245.62 304.601 242.62C304.601 239.59 306.251 237.7 308.981 237.7C311.711 237.7 313.391 239.59 313.391 242.62C313.391 245.62 311.711 247.48 308.981 247.48ZM325.759 250.24C330.499 250.24 333.019 248.47 333.019 245.47C333.019 244.27 332.449 243.13 331.459 242.59C330.409 241.99 329.209 241.78 327.109 241.57C325.309 241.39 323.899 241.24 323.179 241C322.309 240.7 322.159 240.1 322.159 239.47C322.159 238.21 323.479 237.37 325.819 237.37C328.279 237.37 329.329 238.3 329.359 240.22H332.389C332.389 236.86 330.349 234.94 325.729 234.94C321.709 234.94 318.829 236.74 318.829 239.71C318.829 240.85 319.309 241.93 320.119 242.53C321.019 243.19 322.579 243.49 324.889 243.7C326.539 243.85 327.949 244 328.669 244.27C329.449 244.54 329.659 245.05 329.659 245.62C329.659 246.97 328.459 247.81 325.729 247.81C322.849 247.81 321.859 246.76 321.859 245.05H318.829C318.829 247.96 320.659 250.24 325.759 250.24ZM342.594 255.94H345.954V250.12C345.954 249.52 345.894 247.99 345.864 247H345.894C346.524 248.92 348.444 250.24 351.384 250.24C355.644 250.24 358.344 247.12 358.344 242.32C358.344 237.85 355.674 234.94 351.444 234.94C348.504 234.94 346.524 236.38 345.924 238.63H345.894L345.954 235.18H342.594V255.94ZM350.724 247.48C347.844 247.48 345.954 245.86 345.954 243.34V242.56C346.014 239.59 347.874 237.7 350.664 237.7C353.334 237.7 354.984 239.56 354.984 242.41C354.984 245.5 353.304 247.48 350.724 247.48ZM365.547 250.24C368.817 250.24 370.587 248.92 371.067 246.73H371.097C371.097 247.93 371.007 249.28 370.947 250H374.307V240.97C374.307 237.07 371.667 234.94 367.167 234.94C362.937 234.94 360.357 236.71 360.357 239.68C360.357 239.95 360.387 240.34 360.417 240.55H363.507C363.477 240.31 363.477 240.07 363.477 239.98C363.477 238.33 364.767 237.46 367.047 237.46C369.657 237.46 370.947 238.45 370.947 240.67V241.72H365.457C361.497 241.72 359.907 243.49 359.907 245.74C359.907 248.62 362.157 250.24 365.547 250.24ZM366.237 247.72C364.197 247.72 362.997 246.94 362.997 245.59C362.997 244.42 363.837 243.76 365.757 243.76H370.947V244.03C370.947 246.31 369.147 247.72 366.237 247.72ZM377.36 250H380.72V243.52C380.72 239.98 382.31 237.82 384.86 237.82C386.84 237.82 387.8 238.99 387.8 241.48C387.8 242.17 387.74 242.92 387.68 243.49H390.74C390.8 242.86 390.89 241.66 390.89 240.73C390.89 237.04 389.12 234.94 385.91 234.94C382.85 234.94 381.32 236.77 380.63 239.44H380.6L380.72 235.18H377.36V250ZM398.821 250.24C402.091 250.24 403.861 248.92 404.341 246.73H404.371C404.371 247.93 404.281 249.28 404.221 250H407.581V240.97C407.581 237.07 404.941 234.94 400.441 234.94C396.211 234.94 393.631 236.71 393.631 239.68C393.631 239.95 393.661 240.34 393.691 240.55H396.781C396.751 240.31 396.751 240.07 396.751 239.98C396.751 238.33 398.041 237.46 400.321 237.46C402.931 237.46 404.221 238.45 404.221 240.67V241.72H398.731C394.771 241.72 393.181 243.49 393.181 245.74C393.181 248.62 395.431 250.24 398.821 250.24ZM399.511 247.72C397.471 247.72 396.271 246.94 396.271 245.59C396.271 244.42 397.111 243.76 399.031 243.76H404.221V244.03C404.221 246.31 402.421 247.72 399.511 247.72ZM8.28 294.18C9.51 294.18 10.53 293.97 10.98 293.82V291.15C10.56 291.27 9.6 291.42 8.76 291.42C6.72 291.42 6 290.46 6 288.54V281.91H11.1V279.18H6V275.82H3.21L3.06 278.04C2.97 278.88 2.76 279.18 2.19 279.18H0.3V281.91H2.64V288.72C2.64 291.99 4.23 294.18 8.28 294.18ZM20.3187 294.24C25.0587 294.24 28.0887 291.33 28.0887 286.62C28.0887 281.88 25.0587 278.94 20.3187 278.94C15.6087 278.94 12.5787 281.88 12.5787 286.62C12.5787 291.33 15.6087 294.24 20.3187 294.24ZM20.3187 291.48C17.5887 291.48 15.9387 289.62 15.9387 286.62C15.9387 283.59 17.5887 281.7 20.3187 281.7C23.0487 281.7 24.7287 283.59 24.7287 286.62C24.7287 289.62 23.0487 291.48 20.3187 291.48ZM30.7934 294H34.1534V287.52C34.1534 283.98 35.7434 281.82 38.2934 281.82C40.2734 281.82 41.2334 282.99 41.2334 285.48C41.2334 286.17 41.1734 286.92 41.1134 287.49H44.1734C44.2334 286.86 44.3234 285.66 44.3234 284.73C44.3234 281.04 42.5534 278.94 39.3434 278.94C36.2834 278.94 34.7534 280.77 34.0634 283.44H34.0334L34.1534 279.18H30.7934V294ZM47.0346 294H50.3946V286.83C50.3946 283.59 52.2546 281.82 55.1946 281.82C57.8646 281.82 59.1846 283.14 59.1846 285.48V294H62.5446V284.73C62.5446 281.07 60.2346 278.94 56.4846 278.94C53.0346 278.94 51.1146 280.47 50.3046 283.14H50.2746L50.3946 279.18H47.0346V294ZM70.8103 294.24C74.0803 294.24 75.8503 292.92 76.3303 290.73H76.3603C76.3603 291.93 76.2703 293.28 76.2103 294H79.5703V284.97C79.5703 281.07 76.9303 278.94 72.4303 278.94C68.2003 278.94 65.6203 280.71 65.6203 283.68C65.6203 283.95 65.6503 284.34 65.6803 284.55H68.7703C68.7403 284.31 68.7403 284.07 68.7403 283.98C68.7403 282.33 70.0303 281.46 72.3103 281.46C74.9203 281.46 76.2103 282.45 76.2103 284.67V285.72H70.7203C66.7603 285.72 65.1703 287.49 65.1703 289.74C65.1703 292.62 67.4203 294.24 70.8103 294.24ZM71.5003 291.72C69.4603 291.72 68.2603 290.94 68.2603 289.59C68.2603 288.42 69.1003 287.76 71.0203 287.76H76.2103V288.03C76.2103 290.31 74.4103 291.72 71.5003 291.72ZM82.6226 294H85.9826V287.52C85.9826 283.98 87.5726 281.82 90.1226 281.82C92.1026 281.82 93.0626 282.99 93.0626 285.48C93.0626 286.17 93.0026 286.92 92.9426 287.49H96.0026C96.0626 286.86 96.1526 285.66 96.1526 284.73C96.1526 281.04 94.3826 278.94 91.1726 278.94C88.1126 278.94 86.5826 280.77 85.8926 283.44H85.8626L85.9826 279.18H82.6226V294ZM112.903 294.24C117.643 294.24 120.673 291.33 120.673 286.62C120.673 281.88 117.643 278.94 112.903 278.94C108.193 278.94 105.163 281.88 105.163 286.62C105.163 291.33 108.193 294.24 112.903 294.24ZM112.903 291.48C110.173 291.48 108.523 289.62 108.523 286.62C108.523 283.59 110.173 281.7 112.903 281.7C115.633 281.7 117.313 283.59 117.313 286.62C117.313 289.62 115.633 291.48 112.903 291.48ZM130.217 299.94H133.577V294.12C133.577 293.52 133.517 291.99 133.487 291H133.517C134.147 292.92 136.067 294.24 139.007 294.24C143.267 294.24 145.967 291.12 145.967 286.32C145.967 281.85 143.297 278.94 139.067 278.94C136.127 278.94 134.147 280.38 133.547 282.63H133.517L133.577 279.18H130.217V299.94ZM138.347 291.48C135.467 291.48 133.577 289.86 133.577 287.34V286.56C133.637 283.59 135.497 281.7 138.287 281.7C140.957 281.7 142.607 283.56 142.607 286.41C142.607 289.5 140.927 291.48 138.347 291.48ZM148.712 294H152.072V287.52C152.072 283.98 153.662 281.82 156.212 281.82C158.192 281.82 159.152 282.99 159.152 285.48C159.152 286.17 159.092 286.92 159.032 287.49H162.092C162.152 286.86 162.242 285.66 162.242 284.73C162.242 281.04 160.472 278.94 157.262 278.94C154.202 278.94 152.672 280.77 151.982 283.44H151.952L152.072 279.18H148.712V294ZM172.243 294.24C176.983 294.24 180.013 291.33 180.013 286.62C180.013 281.88 176.983 278.94 172.243 278.94C167.533 278.94 164.503 281.88 164.503 286.62C164.503 291.33 167.533 294.24 172.243 294.24ZM172.243 291.48C169.513 291.48 167.863 289.62 167.863 286.62C167.863 283.59 169.513 281.7 172.243 281.7C174.973 281.7 176.653 283.59 176.653 286.62C176.653 289.62 174.973 291.48 172.243 291.48ZM189.258 294.24C192.288 294.24 194.148 292.74 194.718 290.4H194.778C194.718 291.84 194.688 293.13 194.628 294H197.988V273.21H194.628V281.79H194.598C193.998 280.05 192.258 278.94 189.468 278.94C185.058 278.94 182.268 282.03 182.268 286.5C182.268 291.12 184.968 294.24 189.258 294.24ZM189.948 291.48C187.308 291.48 185.598 289.44 185.598 286.5C185.598 283.68 187.338 281.7 190.008 281.7C192.798 281.7 194.628 283.38 194.628 286.02V286.74C194.628 289.62 192.768 291.48 189.948 291.48ZM207.363 294.24C210.663 294.24 212.733 292.68 213.363 289.86H213.393C213.393 291.42 213.333 293.01 213.243 294H216.603V279.18H213.243V285.75C213.243 289.35 211.353 291.36 208.353 291.36C205.923 291.36 204.483 290.04 204.483 287.7V279.18H201.123V288.18C201.123 292.11 203.493 294.24 207.363 294.24ZM226.4 294.18C227.63 294.18 228.65 293.97 229.1 293.82V291.15C228.68 291.27 227.72 291.42 226.88 291.42C224.84 291.42 224.12 290.46 224.12 288.54V281.91H229.22V279.18H224.12V275.82H221.33L221.18 278.04C221.09 278.88 220.88 279.18 220.31 279.18H218.42V281.91H220.76V288.72C220.76 291.99 222.35 294.18 226.4 294.18ZM238.438 294.24C243.178 294.24 246.208 291.33 246.208 286.62C246.208 281.88 243.178 278.94 238.438 278.94C233.728 278.94 230.698 281.88 230.698 286.62C230.698 291.33 233.728 294.24 238.438 294.24ZM238.438 291.48C235.708 291.48 234.058 289.62 234.058 286.62C234.058 283.59 235.708 281.7 238.438 281.7C241.168 281.7 242.848 283.59 242.848 286.62C242.848 289.62 241.168 291.48 238.438 291.48ZM262.472 294.24C266.702 294.24 269.522 291.93 269.522 287.97H266.492C266.462 290.16 264.992 291.48 262.622 291.48C260.132 291.48 258.572 289.62 258.572 286.59C258.572 283.53 260.162 281.7 262.742 281.7C264.992 281.7 266.432 283.05 266.462 285.27H269.492C269.492 281.34 266.792 278.94 262.652 278.94C258.182 278.94 255.212 281.85 255.212 286.59C255.212 291.33 258.122 294.24 262.472 294.24ZM276.801 294.24C280.071 294.24 281.841 292.92 282.321 290.73H282.351C282.351 291.93 282.261 293.28 282.201 294H285.561V284.97C285.561 281.07 282.921 278.94 278.421 278.94C274.191 278.94 271.611 280.71 271.611 283.68C271.611 283.95 271.641 284.34 271.671 284.55H274.761C274.731 284.31 274.731 284.07 274.731 283.98C274.731 282.33 276.021 281.46 278.301 281.46C280.911 281.46 282.201 282.45 282.201 284.67V285.72H276.711C272.751 285.72 271.161 287.49 271.161 289.74C271.161 292.62 273.411 294.24 276.801 294.24ZM277.491 291.72C275.451 291.72 274.251 290.94 274.251 289.59C274.251 288.42 275.091 287.76 277.011 287.76H282.201V288.03C282.201 290.31 280.401 291.72 277.491 291.72ZM295.153 294.24C298.183 294.24 300.043 292.74 300.613 290.4H300.673C300.613 291.84 300.583 293.13 300.523 294H303.883V273.21H300.523V281.79H300.493C299.893 280.05 298.153 278.94 295.363 278.94C290.953 278.94 288.163 282.03 288.163 286.5C288.163 291.12 290.863 294.24 295.153 294.24ZM295.843 291.48C293.203 291.48 291.493 289.44 291.493 286.5C291.493 283.68 293.233 281.7 295.903 281.7C298.693 281.7 300.523 283.38 300.523 286.02V286.74C300.523 289.62 298.663 291.48 295.843 291.48ZM312.389 294.24C315.659 294.24 317.429 292.92 317.909 290.73H317.939C317.939 291.93 317.849 293.28 317.789 294H321.149V284.97C321.149 281.07 318.509 278.94 314.009 278.94C309.779 278.94 307.199 280.71 307.199 283.68C307.199 283.95 307.229 284.34 307.259 284.55H310.349C310.319 284.31 310.319 284.07 310.319 283.98C310.319 282.33 311.609 281.46 313.889 281.46C316.499 281.46 317.789 282.45 317.789 284.67V285.72H312.299C308.339 285.72 306.749 287.49 306.749 289.74C306.749 292.62 308.999 294.24 312.389 294.24ZM313.079 291.72C311.039 291.72 309.839 290.94 309.839 289.59C309.839 288.42 310.679 287.76 312.599 287.76H317.789V288.03C317.789 290.31 315.989 291.72 313.079 291.72ZM336.35 294H340.34L346.76 279.18H343.25L338.54 290.85H338.48L333.83 279.18H329.9L336.35 294ZM362.491 286.05C362.491 281.43 359.821 278.94 355.621 278.94C350.941 278.94 348.001 281.91 348.001 286.71C348.001 291.36 350.941 294.24 355.621 294.24C359.671 294.24 362.371 292.23 362.491 288.93H359.461C359.311 290.67 357.841 291.63 355.681 291.63C353.161 291.63 351.571 290.1 351.391 287.25H362.491V286.05ZM359.461 285.21H351.481C351.871 282.75 353.341 281.55 355.651 281.55C358.081 281.55 359.461 282.78 359.461 285V285.21ZM364.358 294H376.898V291.27H368.708V291.24L376.898 281.25V279.18H364.598V281.91H372.518V281.97L364.358 291.9V294ZM386.306 294H389.666V286.77C389.666 283.59 391.196 281.82 393.476 281.82C395.486 281.82 396.596 283.14 396.596 285.24V294H399.956V286.65C399.956 283.56 401.456 281.82 403.796 281.82C405.806 281.82 406.856 283.14 406.856 285.3V294H410.216V284.55C410.216 281.07 408.326 278.94 405.026 278.94C402.206 278.94 400.406 280.44 399.866 282.84H399.836C399.476 280.44 397.616 278.94 394.736 278.94C392.036 278.94 390.236 280.53 389.576 283.08H389.546L389.666 279.18H386.306V294ZM418.49 294.24C421.76 294.24 423.53 292.92 424.01 290.73H424.04C424.04 291.93 423.95 293.28 423.89 294H427.25V284.97C427.25 281.07 424.61 278.94 420.11 278.94C415.88 278.94 413.3 280.71 413.3 283.68C413.3 283.95 413.33 284.34 413.36 284.55H416.45C416.42 284.31 416.42 284.07 416.42 283.98C416.42 282.33 417.71 281.46 419.99 281.46C422.6 281.46 423.89 282.45 423.89 284.67V285.72H418.4C414.44 285.72 412.85 287.49 412.85 289.74C412.85 292.62 415.1 294.24 418.49 294.24ZM419.18 291.72C417.14 291.72 415.94 290.94 415.94 289.59C415.94 288.42 416.78 287.76 418.7 287.76H423.89V288.03C423.89 290.31 422.09 291.72 419.18 291.72ZM430.392 277.44H433.842V274.14H430.392V277.44ZM430.422 294H433.782V279.18H430.422V294ZM443.619 294.24C448.359 294.24 450.879 292.47 450.879 289.47C450.879 288.27 450.309 287.13 449.319 286.59C448.269 285.99 447.069 285.78 444.969 285.57C443.169 285.39 441.759 285.24 441.039 285C440.169 284.7 440.019 284.1 440.019 283.47C440.019 282.21 441.339 281.37 443.679 281.37C446.139 281.37 447.189 282.3 447.219 284.22H450.249C450.249 280.86 448.209 278.94 443.589 278.94C439.569 278.94 436.689 280.74 436.689 283.71C436.689 284.85 437.169 285.93 437.979 286.53C438.879 287.19 440.439 287.49 442.749 287.7C444.399 287.85 445.809 288 446.529 288.27C447.309 288.54 447.519 289.05 447.519 289.62C447.519 290.97 446.319 291.81 443.589 291.81C440.709 291.81 439.719 290.76 439.719 289.05H436.689C436.689 291.96 438.519 294.24 443.619 294.24ZM1.77 321.44H5.22V318.14H1.77V321.44ZM1.8 338H5.16V323.18H1.8V338ZM8.51695 338H11.877V330.83C11.877 327.59 13.737 325.82 16.677 325.82C19.347 325.82 20.667 327.14 20.667 329.48V338H24.027V328.73C24.027 325.07 21.717 322.94 17.967 322.94C14.517 322.94 12.597 324.47 11.787 327.14H11.757L11.877 323.18H8.51695V338ZM33.8827 338.24C38.1127 338.24 40.9327 335.93 40.9327 331.97H37.9027C37.8727 334.16 36.4027 335.48 34.0327 335.48C31.5427 335.48 29.9827 333.62 29.9827 330.59C29.9827 327.53 31.5727 325.7 34.1527 325.7C36.4027 325.7 37.8427 327.05 37.8727 329.27H40.9027C40.9027 325.34 38.2027 322.94 34.0627 322.94C29.5927 322.94 26.6227 325.85 26.6227 330.59C26.6227 335.33 29.5327 338.24 33.8827 338.24ZM43.7534 338H47.1134V331.52C47.1134 327.98 48.7034 325.82 51.2534 325.82C53.2334 325.82 54.1934 326.99 54.1934 329.48C54.1934 330.17 54.1334 330.92 54.0734 331.49H57.1334C57.1934 330.86 57.2834 329.66 57.2834 328.73C57.2834 325.04 55.5134 322.94 52.3034 322.94C49.2434 322.94 47.7134 324.77 47.0234 327.44H46.9934L47.1134 323.18H43.7534V338ZM60.1446 321.65H62.7846L65.9946 317.45H62.4846L60.1446 321.65ZM60.1146 338H63.4746V323.18H60.1146V338ZM72.2316 338H76.2216L82.6416 323.18H79.1316L74.4216 334.85H74.3616L69.7116 323.18H65.7816L72.2316 338ZM98.3726 330.05C98.3726 325.43 95.7026 322.94 91.5026 322.94C86.8226 322.94 83.8826 325.91 83.8826 330.71C83.8826 335.36 86.8226 338.24 91.5026 338.24C95.5526 338.24 98.2526 336.23 98.3726 332.93H95.3426C95.1926 334.67 93.7226 335.63 91.5626 335.63C89.0426 335.63 87.4526 334.1 87.2726 331.25H98.3726V330.05ZM95.3426 329.21H87.3626C87.7526 326.75 89.2226 325.55 91.5326 325.55C93.9626 325.55 95.3426 326.78 95.3426 329V329.21ZM101.22 338H104.58V317.21H101.22V338ZM108.839 331.22H110.159L111.149 321.23V317.84H107.849V321.23L108.839 331.22ZM107.789 338H111.209V334.1H107.789V338Z" fill="black"/>
</svg>
