<svg width="578" height="264" viewBox="0 0 578 264" fill="none" xmlns="http://www.w3.org/2000/svg">
<path d="M9 10.41C3.96 10.41 1.92 12.78 1.92 17.01V20.34H7.74V15.39H5.37V15.27C5.37 13.95 6.18 12.96 9 12.96V10.41ZM18.06 10.41C13.02 10.41 10.98 12.78 10.98 17.01V20.34H16.8V15.39H14.43V15.27C14.43 13.95 15.24 12.96 18.06 12.96V10.41ZM391.928 240.16C396.968 240.16 399.008 237.79 399.008 233.56V230.23H393.188V235.18H395.558V235.3C395.558 236.62 394.748 237.61 391.928 237.61V240.16ZM401.018 240.16C406.058 240.16 408.098 237.79 408.098 233.56V230.23H402.278V235.18H404.648V235.3C404.648 236.62 403.838 237.61 401.018 237.61V240.16Z" fill="#01CA30"/>
<path d="M21.003 30H24.603V21.78H32.703V19.26H24.603V13.26H34.203V10.26H21.003V30ZM40.9938 30.24C44.2638 30.24 46.0338 28.92 46.5138 26.73H46.5438C46.5438 27.93 46.4538 29.28 46.3938 30H49.7538V20.97C49.7538 17.07 47.1138 14.94 42.6138 14.94C38.3838 14.94 35.8038 16.71 35.8038 19.68C35.8038 19.95 35.8338 20.34 35.8638 20.55H38.9538C38.9238 20.31 38.9238 20.07 38.9238 19.98C38.9238 18.33 40.2138 17.46 42.4938 17.46C45.1038 17.46 46.3938 18.45 46.3938 20.67V21.72H40.9038C36.9438 21.72 35.3538 23.49 35.3538 25.74C35.3538 28.62 37.6038 30.24 40.9938 30.24ZM41.6838 27.72C39.6438 27.72 38.4438 26.94 38.4438 25.59C38.4438 24.42 39.2838 23.76 41.2038 23.76H46.3938V24.03C46.3938 26.31 44.5938 27.72 41.6838 27.72ZM52.2961 30H64.8361V27.27H56.6461V27.24L64.8361 17.25V15.18H52.5361V17.91H60.4561V17.97L52.2961 27.9V30ZM81.1537 22.05C81.1537 17.43 78.4837 14.94 74.2837 14.94C69.6037 14.94 66.6637 17.91 66.6637 22.71C66.6637 27.36 69.6037 30.24 74.2837 30.24C78.3337 30.24 81.0337 28.23 81.1537 24.93H78.1237C77.9737 26.67 76.5037 27.63 74.3437 27.63C71.8237 27.63 70.2337 26.1 70.0537 23.25H81.1537V22.05ZM78.1237 21.21H70.1437C70.5337 18.75 72.0037 17.55 74.3137 17.55C76.7437 17.55 78.1237 18.78 78.1237 21V21.21ZM83.9116 30H87.2716V23.52C87.2716 19.98 88.8616 17.82 91.4116 17.82C93.3916 17.82 94.3516 18.99 94.3516 21.48C94.3516 22.17 94.2916 22.92 94.2316 23.49H97.2916C97.3516 22.86 97.4416 21.66 97.4416 20.73C97.4416 17.04 95.6716 14.94 92.4616 14.94C89.4016 14.94 87.8716 16.77 87.1816 19.44H87.1516L87.2716 15.18H83.9116V30ZM106.992 35.94H110.352V30.12C110.352 29.52 110.292 27.99 110.262 27H110.292C110.922 28.92 112.842 30.24 115.782 30.24C120.042 30.24 122.742 27.12 122.742 22.32C122.742 17.85 120.072 14.94 115.842 14.94C112.902 14.94 110.922 16.38 110.322 18.63H110.292L110.352 15.18H106.992V35.94ZM115.122 27.48C112.242 27.48 110.352 25.86 110.352 23.34V22.56C110.412 19.59 112.272 17.7 115.062 17.7C117.732 17.7 119.382 19.56 119.382 22.41C119.382 25.5 117.702 27.48 115.122 27.48ZM129.945 30.24C133.215 30.24 134.985 28.92 135.465 26.73H135.495C135.495 27.93 135.405 29.28 135.345 30H138.705V20.97C138.705 17.07 136.065 14.94 131.565 14.94C127.335 14.94 124.755 16.71 124.755 19.68C124.755 19.95 124.785 20.34 124.815 20.55H127.905C127.875 20.31 127.875 20.07 127.875 19.98C127.875 18.33 129.165 17.46 131.445 17.46C134.055 17.46 135.345 18.45 135.345 20.67V21.72H129.855C125.895 21.72 124.305 23.49 124.305 25.74C124.305 28.62 126.555 30.24 129.945 30.24ZM130.635 27.72C128.595 27.72 127.395 26.94 127.395 25.59C127.395 24.42 128.235 23.76 130.155 23.76H135.345V24.03C135.345 26.31 133.545 27.72 130.635 27.72ZM141.757 30H145.117V23.52C145.117 19.98 146.707 17.82 149.258 17.82C151.237 17.82 152.197 18.99 152.197 21.48C152.197 22.17 152.137 22.92 152.077 23.49H155.138C155.197 22.86 155.288 21.66 155.288 20.73C155.288 17.04 153.517 14.94 150.308 14.94C147.247 14.94 145.717 16.77 145.027 19.44H144.997L145.117 15.18H141.757V30ZM164.599 30.18C165.829 30.18 166.849 29.97 167.299 29.82V27.15C166.879 27.27 165.919 27.42 165.079 27.42C163.039 27.42 162.319 26.46 162.319 24.54V17.91H167.419V15.18H162.319V11.82H159.529L159.379 14.04C159.289 14.88 159.079 15.18 158.509 15.18H156.619V17.91H158.959V24.72C158.959 27.99 160.549 30.18 164.599 30.18ZM183.387 22.05C183.387 17.43 180.717 14.94 176.517 14.94C171.837 14.94 168.897 17.91 168.897 22.71C168.897 27.36 171.837 30.24 176.517 30.24C180.567 30.24 183.267 28.23 183.387 24.93H180.357C180.207 26.67 178.737 27.63 176.577 27.63C174.057 27.63 172.467 26.1 172.287 23.25H183.387V22.05ZM180.357 21.21H172.377C172.767 18.75 174.237 17.55 176.547 17.55C178.977 17.55 180.357 18.78 180.357 21V21.21ZM199.434 30.24C202.464 30.24 204.324 28.74 204.894 26.4H204.954C204.894 27.84 204.864 29.13 204.804 30H208.164V9.21H204.804V17.79H204.774C204.174 16.05 202.434 14.94 199.644 14.94C195.234 14.94 192.444 18.03 192.444 22.5C192.444 27.12 195.144 30.24 199.434 30.24ZM200.124 27.48C197.484 27.48 195.774 25.44 195.774 22.5C195.774 19.68 197.514 17.7 200.184 17.7C202.974 17.7 204.804 19.38 204.804 22.02V22.74C204.804 25.62 202.944 27.48 200.124 27.48ZM218.74 30.24C223.48 30.24 226.51 27.33 226.51 22.62C226.51 17.88 223.48 14.94 218.74 14.94C214.03 14.94 211 17.88 211 22.62C211 27.33 214.03 30.24 218.74 30.24ZM218.74 27.48C216.01 27.48 214.36 25.62 214.36 22.62C214.36 19.59 216.01 17.7 218.74 17.7C221.47 17.7 223.15 19.59 223.15 22.62C223.15 25.62 221.47 27.48 218.74 27.48ZM242.564 30.18C243.794 30.18 244.814 29.97 245.264 29.82V27.15C244.844 27.27 243.884 27.42 243.044 27.42C241.004 27.42 240.284 26.46 240.284 24.54V17.91H245.384V15.18H240.284V11.82H237.494L237.344 14.04C237.254 14.88 237.044 15.18 236.474 15.18H234.584V17.91H236.924V24.72C236.924 27.99 238.514 30.18 242.564 30.18ZM247.988 13.44H251.438V10.14H247.988V13.44ZM248.018 30H251.378V15.18H248.018V30ZM254.735 30H258.095V22.77C258.095 19.59 259.625 17.82 261.905 17.82C263.915 17.82 265.025 19.14 265.025 21.24V30H268.385V22.65C268.385 19.56 269.885 17.82 272.225 17.82C274.235 17.82 275.285 19.14 275.285 21.3V30H278.645V20.55C278.645 17.07 276.755 14.94 273.455 14.94C270.635 14.94 268.835 16.44 268.295 18.84H268.265C267.905 16.44 266.045 14.94 263.165 14.94C260.465 14.94 258.665 16.53 258.005 19.08H257.975L258.095 15.18H254.735V30ZM295.739 22.05C295.739 17.43 293.069 14.94 288.869 14.94C284.189 14.94 281.249 17.91 281.249 22.71C281.249 27.36 284.189 30.24 288.869 30.24C292.919 30.24 295.619 28.23 295.739 24.93H292.709C292.559 26.67 291.089 27.63 288.929 27.63C286.409 27.63 284.819 26.1 284.639 23.25H295.739V22.05ZM292.709 21.21H284.729C285.119 18.75 286.589 17.55 288.899 17.55C291.329 17.55 292.709 18.78 292.709 21V21.21ZM305.486 30H308.876L308.846 13.26H308.876L319.406 30H323.666V10.26H320.276L320.336 25.26H320.276L310.886 10.26H305.486V30ZM336.472 30.3C340.072 30.3 342.292 28.74 342.892 26.46H342.922C342.892 27.81 342.802 29.22 342.742 30H345.742V20.28H336.142V22.56H342.262V23.01C342.262 25.68 339.922 27.51 336.772 27.51C333.202 27.51 330.292 24.78 330.292 20.37C330.292 15.81 333.112 12.96 336.922 12.96C339.952 12.96 342.352 14.55 342.352 17.34C342.352 17.61 342.352 17.94 342.322 18.3H345.532C345.562 17.94 345.592 17.46 345.592 17.13C345.592 12.63 341.842 9.96 336.862 9.96C331.042 9.96 326.662 14.01 326.662 20.34C326.662 26.52 330.832 30.3 336.472 30.3ZM349.519 30H352.909V26.1H349.519V30ZM366.355 30.3C371.575 30.3 375.295 27.24 375.295 22.77V22.08H372.085V22.56C372.085 25.41 369.775 27.3 366.475 27.3C362.755 27.3 359.875 24.57 359.875 20.16C359.875 15.75 362.635 12.96 366.475 12.96C369.655 12.96 372.025 14.88 372.025 17.91C372.025 18.06 372.025 18.3 371.995 18.57H375.175C375.205 18.21 375.235 17.82 375.235 17.61C375.235 13.05 371.545 9.96 366.355 9.96C360.415 9.96 356.215 13.86 356.215 20.16C356.215 26.43 360.475 30.3 366.355 30.3ZM392.423 30H396.593L388.583 10.26H384.203L376.163 30H379.883L381.563 25.56H390.773L392.423 30ZM382.463 23.16L386.153 13.32H386.213L389.873 23.16H382.463ZM405.856 30.3C412.576 30.3 414.436 27.33 414.436 24.15C414.436 22.32 413.656 20.94 412.306 20.25C411.076 19.59 409.156 19.26 407.086 18.93C405.376 18.69 403.156 18.33 402.286 17.91C401.506 17.55 401.116 16.89 401.116 15.78C401.116 13.98 402.886 12.75 405.856 12.75C408.946 12.75 410.536 14.13 410.536 17.04H413.776C413.776 12.54 411.646 9.96 405.796 9.96C400.636 9.96 397.546 12.48 397.546 16.08C397.546 17.94 398.296 19.29 399.496 20.04C400.576 20.73 402.676 21.18 404.656 21.45C406.366 21.69 408.496 21.96 409.486 22.35C410.416 22.68 410.866 23.31 410.866 24.39C410.866 26.01 409.846 27.51 405.826 27.51C402.046 27.51 400.846 25.77 400.846 23.25H397.606C397.606 26.85 399.316 30.3 405.856 30.3ZM417.465 30H421.065V21.21H431.565V30H435.135V10.26H431.565V18.33H421.065V10.26H417.465V30ZM456.502 9.45H452.992L450.652 13.65H453.292L456.502 9.45ZM459.382 22.05C459.382 17.43 456.712 14.94 452.512 14.94C447.832 14.94 444.892 17.91 444.892 22.71C444.892 27.36 447.832 30.24 452.512 30.24C456.562 30.24 459.262 28.23 459.382 24.93H456.352C456.202 26.67 454.732 27.63 452.572 27.63C450.052 27.63 448.462 26.1 448.282 23.25H459.382V22.05ZM456.352 21.21H448.372C448.762 18.75 450.232 17.55 452.542 17.55C454.972 17.55 456.352 18.78 456.352 21V21.21ZM475.369 30.24C480.109 30.24 482.629 28.47 482.629 25.47C482.629 24.27 482.059 23.13 481.069 22.59C480.019 21.99 478.819 21.78 476.719 21.57C474.919 21.39 473.509 21.24 472.789 21C471.919 20.7 471.769 20.1 471.769 19.47C471.769 18.21 473.089 17.37 475.429 17.37C477.889 17.37 478.939 18.3 478.969 20.22H481.999C481.999 16.86 479.959 14.94 475.339 14.94C471.319 14.94 468.439 16.74 468.439 19.71C468.439 20.85 468.919 21.93 469.729 22.53C470.629 23.19 472.189 23.49 474.499 23.7C476.149 23.85 477.559 24 478.279 24.27C479.059 24.54 479.269 25.05 479.269 25.62C479.269 26.97 478.069 27.81 475.339 27.81C472.459 27.81 471.469 26.76 471.469 25.05H468.439C468.439 27.96 470.269 30.24 475.369 30.24ZM490.585 30.24C493.855 30.24 495.625 28.92 496.105 26.73H496.135C496.135 27.93 496.045 29.28 495.985 30H499.345V20.97C499.345 17.07 496.705 14.94 492.205 14.94C487.975 14.94 485.395 16.71 485.395 19.68C485.395 19.95 485.425 20.34 485.455 20.55H488.545C488.515 20.31 488.515 20.07 488.515 19.98C488.515 18.33 489.805 17.46 492.085 17.46C494.695 17.46 495.985 18.45 495.985 20.67V21.72H490.495C486.535 21.72 484.945 23.49 484.945 25.74C484.945 28.62 487.195 30.24 490.585 30.24ZM491.275 27.72C489.235 27.72 488.035 26.94 488.035 25.59C488.035 24.42 488.875 23.76 490.795 23.76H495.985V24.03C495.985 26.31 494.185 27.72 491.275 27.72ZM511.457 30.24C515.627 30.24 518.237 27.21 518.237 22.32C518.237 17.76 515.687 14.94 511.427 14.94C508.487 14.94 506.447 16.32 505.817 18.48H505.787C505.817 17.76 505.847 16.56 505.847 15.93V9.21H502.487V30H505.847C505.787 29.25 505.727 27.9 505.727 26.85H505.757C506.357 28.92 508.397 30.24 511.457 30.24ZM510.587 27.48C507.677 27.48 505.847 25.89 505.847 23.31V22.56C505.847 19.56 507.707 17.7 510.647 17.7C513.287 17.7 514.877 19.5 514.877 22.41C514.877 25.56 513.227 27.48 510.587 27.48ZM535.022 22.05C535.022 17.43 532.352 14.94 528.152 14.94C523.472 14.94 520.532 17.91 520.532 22.71C520.532 27.36 523.472 30.24 528.152 30.24C532.202 30.24 534.902 28.23 535.022 24.93H531.992C531.842 26.67 530.372 27.63 528.212 27.63C525.692 27.63 524.102 26.1 523.922 23.25H535.022V22.05ZM531.992 21.21H524.012C524.402 18.75 525.872 17.55 528.182 17.55C530.612 17.55 531.992 18.78 531.992 21V21.21ZM537.78 30H541.14V23.52C541.14 19.98 542.73 17.82 545.28 17.82C547.26 17.82 548.22 18.99 548.22 21.48C548.22 22.17 548.16 22.92 548.1 23.49H551.16C551.22 22.86 551.31 21.66 551.31 20.73C551.31 17.04 549.54 14.94 546.33 14.94C543.27 14.94 541.74 16.77 541.05 19.44H541.02L541.14 15.18H537.78V30ZM13.59 79.94H16.95V59.18H13.62V62H13.59C12.99 60.11 11.22 58.94 8.34 58.94C4.2 58.94 1.23 61.91 1.23 66.47C1.23 71.21 3.93 74.24 8.19 74.24C11.04 74.24 13.02 72.8 13.56 70.58H13.59V79.94ZM8.91 71.48C6.3 71.48 4.56 69.53 4.56 66.47C4.56 63.59 6.36 61.7 8.97 61.7C11.76 61.7 13.59 63.38 13.59 65.99V66.71C13.59 69.62 11.73 71.48 8.91 71.48ZM26.3257 74.24C29.6257 74.24 31.6957 72.68 32.3257 69.86H32.3557C32.3557 71.42 32.2957 73.01 32.2057 74H35.5657V59.18H32.2057V65.75C32.2057 69.35 30.3157 71.36 27.3157 71.36C24.8857 71.36 23.4457 70.04 23.4457 67.7V59.18H20.0857V68.18C20.0857 72.11 22.4557 74.24 26.3257 74.24ZM52.8021 66.05C52.8021 61.43 50.1321 58.94 45.9321 58.94C41.2521 58.94 38.3121 61.91 38.3121 66.71C38.3121 71.36 41.2521 74.24 45.9321 74.24C49.9821 74.24 52.6821 72.23 52.8021 68.93H49.7721C49.6221 70.67 48.1521 71.63 45.9921 71.63C43.4721 71.63 41.8821 70.1 41.7021 67.25H52.8021V66.05ZM49.7721 65.21H41.7921C42.1821 62.75 43.6521 61.55 45.9621 61.55C48.3921 61.55 49.7721 62.78 49.7721 65V65.21ZM67.5291 74.24C70.7991 74.24 72.5691 72.92 73.0491 70.73H73.0791C73.0791 71.93 72.9891 73.28 72.9291 74H76.2891V64.97C76.2891 61.07 73.6491 58.94 69.1491 58.94C64.9191 58.94 62.3391 60.71 62.3391 63.68C62.3391 63.95 62.3691 64.34 62.3991 64.55H65.4891C65.4591 64.31 65.4591 64.07 65.4591 63.98C65.4591 62.33 66.7491 61.46 69.0291 61.46C71.6391 61.46 72.9291 62.45 72.9291 64.67V65.72H67.4391C63.4791 65.72 61.8891 67.49 61.8891 69.74C61.8891 72.62 64.1391 74.24 67.5291 74.24ZM68.2191 71.72C66.1791 71.72 64.9791 70.94 64.9791 69.59C64.9791 68.42 65.8191 67.76 67.7391 67.76H72.9291V68.03C72.9291 70.31 71.1291 71.72 68.2191 71.72ZM86.1513 74.24C90.3813 74.24 93.2013 71.93 93.2013 67.97H90.1713C90.1413 70.16 88.6713 71.48 86.3013 71.48C83.8113 71.48 82.2513 69.62 82.2513 66.59C82.2513 63.53 83.8413 61.7 86.4213 61.7C88.6713 61.7 90.1113 63.05 90.1413 65.27H93.1713C93.1713 61.34 90.4713 58.94 86.3313 58.94C81.8613 58.94 78.8913 61.85 78.8913 66.59C78.8913 71.33 81.8013 74.24 86.1513 74.24ZM96.112 57.44H99.562V54.14H96.112V57.44ZM96.142 74H99.502V59.18H96.142V74ZM102.859 74H106.219V66.77C106.219 63.59 107.749 61.82 110.029 61.82C112.039 61.82 113.149 63.14 113.149 65.24V74H116.509V66.65C116.509 63.56 118.009 61.82 120.349 61.82C122.359 61.82 123.409 63.14 123.409 65.3V74H126.769V64.55C126.769 61.07 124.879 58.94 121.579 58.94C118.759 58.94 116.959 60.44 116.419 62.84H116.389C116.029 60.44 114.169 58.94 111.289 58.94C108.589 58.94 106.789 60.53 106.129 63.08H106.099L106.219 59.18H102.859V74ZM135.043 74.24C138.313 74.24 140.083 72.92 140.563 70.73H140.593C140.593 71.93 140.503 73.28 140.443 74H143.803V64.97C143.803 61.07 141.163 58.94 136.663 58.94C132.433 58.94 129.853 60.71 129.853 63.68C129.853 63.95 129.883 64.34 129.913 64.55H133.003C132.973 64.31 132.973 64.07 132.973 63.98C132.973 62.33 134.263 61.46 136.543 61.46C139.153 61.46 140.443 62.45 140.443 64.67V65.72H134.953C130.993 65.72 129.403 67.49 129.403 69.74C129.403 72.62 131.653 74.24 135.043 74.24ZM135.733 71.72C133.693 71.72 132.493 70.94 132.493 69.59C132.493 68.42 133.333 67.76 135.253 67.76H140.443V68.03C140.443 70.31 138.643 71.72 135.733 71.72ZM160.144 74.24C163.174 74.24 165.034 72.74 165.604 70.4H165.664C165.604 71.84 165.574 73.13 165.514 74H168.874V53.21H165.514V61.79H165.484C164.884 60.05 163.144 58.94 160.354 58.94C155.944 58.94 153.154 62.03 153.154 66.5C153.154 71.12 155.854 74.24 160.144 74.24ZM160.834 71.48C158.194 71.48 156.484 69.44 156.484 66.5C156.484 63.68 158.224 61.7 160.894 61.7C163.684 61.7 165.514 63.38 165.514 66.02V66.74C165.514 69.62 163.654 71.48 160.834 71.48ZM186.2 66.05C186.2 61.43 183.53 58.94 179.33 58.94C174.65 58.94 171.71 61.91 171.71 66.71C171.71 71.36 174.65 74.24 179.33 74.24C183.38 74.24 186.08 72.23 186.2 68.93H183.17C183.02 70.67 181.55 71.63 179.39 71.63C176.87 71.63 175.28 70.1 175.1 67.25H186.2V66.05ZM183.17 65.21H175.19C175.58 62.75 177.05 61.55 179.36 61.55C181.79 61.55 183.17 62.78 183.17 65V65.21ZM202.307 74.18C203.537 74.18 204.557 73.97 205.007 73.82V71.15C204.587 71.27 203.627 71.42 202.787 71.42C200.747 71.42 200.027 70.46 200.027 68.54V61.91H205.127V59.18H200.027V55.82H197.237L197.087 58.04C196.997 58.88 196.787 59.18 196.217 59.18H194.327V61.91H196.667V68.72C196.667 71.99 198.257 74.18 202.307 74.18ZM213.731 74.24C217.031 74.24 219.101 72.68 219.731 69.86H219.761C219.761 71.42 219.701 73.01 219.611 74H222.971V59.18H219.611V65.75C219.611 69.35 217.721 71.36 214.721 71.36C212.291 71.36 210.851 70.04 210.851 67.7V59.18H207.491V68.18C207.491 72.11 209.861 74.24 213.731 74.24ZM232.708 74.24C235.738 74.24 237.598 72.74 238.168 70.4H238.228C238.168 71.84 238.138 73.13 238.078 74H241.438V53.21H238.078V61.79H238.048C237.448 60.05 235.708 58.94 232.918 58.94C228.508 58.94 225.718 62.03 225.718 66.5C225.718 71.12 228.418 74.24 232.708 74.24ZM233.398 71.48C230.758 71.48 229.048 69.44 229.048 66.5C229.048 63.68 230.788 61.7 233.458 61.7C236.248 61.7 238.078 63.38 238.078 66.02V66.74C238.078 69.62 236.218 71.48 233.398 71.48ZM252.014 74.24C256.754 74.24 259.784 71.33 259.784 66.62C259.784 61.88 256.754 58.94 252.014 58.94C247.304 58.94 244.274 61.88 244.274 66.62C244.274 71.33 247.304 74.24 252.014 74.24ZM252.014 71.48C249.284 71.48 247.634 69.62 247.634 66.62C247.634 63.59 249.284 61.7 252.014 61.7C254.744 61.7 256.424 63.59 256.424 66.62C256.424 69.62 254.744 71.48 252.014 71.48ZM275.717 74.24C280.457 74.24 282.977 72.47 282.977 69.47C282.977 68.27 282.407 67.13 281.417 66.59C280.367 65.99 279.167 65.78 277.067 65.57C275.267 65.39 273.857 65.24 273.137 65C272.267 64.7 272.117 64.1 272.117 63.47C272.117 62.21 273.437 61.37 275.777 61.37C278.237 61.37 279.287 62.3 279.317 64.22H282.347C282.347 60.86 280.307 58.94 275.687 58.94C271.667 58.94 268.787 60.74 268.787 63.71C268.787 64.85 269.267 65.93 270.077 66.53C270.977 67.19 272.537 67.49 274.847 67.7C276.497 67.85 277.907 68 278.627 68.27C279.407 68.54 279.617 69.05 279.617 69.62C279.617 70.97 278.417 71.81 275.687 71.81C272.807 71.81 271.817 70.76 271.817 69.05H268.787C268.787 71.96 270.617 74.24 275.717 74.24ZM293.003 74.24C297.743 74.24 300.773 71.33 300.773 66.62C300.773 61.88 297.743 58.94 293.003 58.94C288.293 58.94 285.263 61.88 285.263 66.62C285.263 71.33 288.293 74.24 293.003 74.24ZM293.003 71.48C290.273 71.48 288.623 69.62 288.623 66.62C288.623 63.59 290.273 61.7 293.003 61.7C295.733 61.7 297.413 63.59 297.413 66.62C297.413 69.62 295.733 71.48 293.003 71.48ZM303.478 74H306.838V66.77C306.838 63.59 308.368 61.82 310.648 61.82C312.658 61.82 313.768 63.14 313.768 65.24V74H317.128V66.65C317.128 63.56 318.628 61.82 320.968 61.82C322.978 61.82 324.028 63.14 324.028 65.3V74H327.388V64.55C327.388 61.07 325.498 58.94 322.198 58.94C319.378 58.94 317.578 60.44 317.038 62.84H317.008C316.648 60.44 314.788 58.94 311.908 58.94C309.208 58.94 307.408 60.53 306.748 63.08H306.718L306.838 59.18H303.478V74ZM337.732 74.24C342.472 74.24 345.502 71.33 345.502 66.62C345.502 61.88 342.472 58.94 337.732 58.94C333.022 58.94 329.992 61.88 329.992 66.62C329.992 71.33 333.022 74.24 337.732 74.24ZM337.732 71.48C335.002 71.48 333.352 69.62 333.352 66.62C333.352 63.59 335.002 61.7 337.732 61.7C340.462 61.7 342.142 63.59 342.142 66.62C342.142 69.62 340.462 71.48 337.732 71.48ZM354.51 74.24C359.25 74.24 361.77 72.47 361.77 69.47C361.77 68.27 361.2 67.13 360.21 66.59C359.16 65.99 357.96 65.78 355.86 65.57C354.06 65.39 352.65 65.24 351.93 65C351.06 64.7 350.91 64.1 350.91 63.47C350.91 62.21 352.23 61.37 354.57 61.37C357.03 61.37 358.08 62.3 358.11 64.22H361.14C361.14 60.86 359.1 58.94 354.48 58.94C350.46 58.94 347.58 60.74 347.58 63.71C347.58 64.85 348.06 65.93 348.87 66.53C349.77 67.19 351.33 67.49 353.64 67.7C355.29 67.85 356.7 68 357.42 68.27C358.2 68.54 358.41 69.05 358.41 69.62C358.41 70.97 357.21 71.81 354.48 71.81C351.6 71.81 350.61 70.76 350.61 69.05H347.58C347.58 71.96 349.41 74.24 354.51 74.24ZM377.345 74.24C380.645 74.24 382.715 72.68 383.345 69.86H383.375C383.375 71.42 383.315 73.01 383.225 74H386.585V59.18H383.225V65.75C383.225 69.35 381.335 71.36 378.335 71.36C375.905 71.36 374.465 70.04 374.465 67.7V59.18H371.105V68.18C371.105 72.11 373.475 74.24 377.345 74.24ZM389.782 74H393.142V66.77C393.142 63.59 394.672 61.82 396.952 61.82C398.962 61.82 400.072 63.14 400.072 65.24V74H403.432V66.65C403.432 63.56 404.932 61.82 407.272 61.82C409.282 61.82 410.332 63.14 410.332 65.3V74H413.692V64.55C413.692 61.07 411.802 58.94 408.502 58.94C405.682 58.94 403.882 60.44 403.342 62.84H403.312C402.952 60.44 401.092 58.94 398.212 58.94C395.512 58.94 393.712 60.53 393.052 63.08H393.022L393.142 59.18H389.782V74ZM421.965 74.24C425.235 74.24 427.005 72.92 427.485 70.73H427.515C427.515 71.93 427.425 73.28 427.365 74H430.725V64.97C430.725 61.07 428.085 58.94 423.585 58.94C419.355 58.94 416.775 60.71 416.775 63.68C416.775 63.95 416.805 64.34 416.835 64.55H419.925C419.895 64.31 419.895 64.07 419.895 63.98C419.895 62.33 421.185 61.46 423.465 61.46C426.075 61.46 427.365 62.45 427.365 64.67V65.72H421.875C417.915 65.72 416.325 67.49 416.325 69.74C416.325 72.62 418.575 74.24 421.965 74.24ZM422.655 71.72C420.615 71.72 419.415 70.94 419.415 69.59C419.415 68.42 420.255 67.76 422.175 67.76H427.365V68.03C427.365 70.31 425.565 71.72 422.655 71.72ZM441.517 74H444.877V61.91H450.037V59.18H444.877V57.86C444.877 56.24 445.807 55.34 447.517 55.34C448.537 55.34 449.317 55.55 449.797 55.7V53.03C449.317 52.85 448.237 52.61 446.917 52.61C443.707 52.61 441.517 54.41 441.517 57.71V59.18H439.147V61.91H441.517V74ZM456.715 74.24C459.985 74.24 461.755 72.92 462.235 70.73H462.265C462.265 71.93 462.175 73.28 462.115 74H465.475V64.97C465.475 61.07 462.835 58.94 458.335 58.94C454.105 58.94 451.525 60.71 451.525 63.68C451.525 63.95 451.555 64.34 451.585 64.55H454.675C454.645 64.31 454.645 64.07 454.645 63.98C454.645 62.33 455.935 61.46 458.215 61.46C460.825 61.46 462.115 62.45 462.115 64.67V65.72H456.625C452.665 65.72 451.075 67.49 451.075 69.74C451.075 72.62 453.325 74.24 456.715 74.24ZM457.405 71.72C455.365 71.72 454.165 70.94 454.165 69.59C454.165 68.42 455.005 67.76 456.925 67.76H462.115V68.03C462.115 70.31 460.315 71.72 457.405 71.72ZM468.527 74H471.887V66.77C471.887 63.59 473.417 61.82 475.697 61.82C477.707 61.82 478.817 63.14 478.817 65.24V74H482.177V66.65C482.177 63.56 483.677 61.82 486.017 61.82C488.027 61.82 489.077 63.14 489.077 65.3V74H492.437V64.55C492.437 61.07 490.547 58.94 487.247 58.94C484.427 58.94 482.627 60.44 482.087 62.84H482.057C481.697 60.44 479.837 58.94 476.957 58.94C474.257 58.94 472.457 60.53 471.797 63.08H471.767L471.887 59.18H468.527V74ZM495.641 57.65H498.281L501.491 53.45H497.981L495.641 57.65ZM495.611 74H498.971V59.18H495.611V74ZM502.623 74H505.983V53.21H502.623V74ZM509.401 57.44H512.851V54.14H509.401V57.44ZM509.431 74H512.791V59.18H509.431V74ZM521.368 74.24C524.638 74.24 526.408 72.92 526.888 70.73H526.918C526.918 71.93 526.828 73.28 526.768 74H530.128V64.97C530.128 61.07 527.488 58.94 522.988 58.94C518.758 58.94 516.178 60.71 516.178 63.68C516.178 63.95 516.208 64.34 516.238 64.55H519.328C519.298 64.31 519.298 64.07 519.298 63.98C519.298 62.33 520.588 61.46 522.868 61.46C525.478 61.46 526.768 62.45 526.768 64.67V65.72H521.278C517.318 65.72 515.728 67.49 515.728 69.74C515.728 72.62 517.978 74.24 521.368 74.24ZM522.058 71.72C520.018 71.72 518.818 70.94 518.818 69.59C518.818 68.42 519.658 67.76 521.578 67.76H526.768V68.03C526.768 70.31 524.968 71.72 522.058 71.72ZM533.18 78.14C535.79 77.93 537.11 76.46 537.11 72.92V70.1H533.72V74H535.13V74.09C535.13 75.56 534.56 76.28 533.18 76.4V78.14ZM8.22 118.24C11.25 118.24 13.11 116.74 13.68 114.4H13.74C13.68 115.84 13.65 117.13 13.59 118H16.95V97.21H13.59V105.79H13.56C12.96 104.05 11.22 102.94 8.43 102.94C4.02 102.94 1.23 106.03 1.23 110.5C1.23 115.12 3.93 118.24 8.22 118.24ZM8.91 115.48C6.27 115.48 4.56 113.44 4.56 110.5C4.56 107.68 6.3 105.7 8.97 105.7C11.76 105.7 13.59 107.38 13.59 110.02V110.74C13.59 113.62 11.73 115.48 8.91 115.48ZM20.3257 101.44H23.7757V98.14H20.3257V101.44ZM20.3557 118H23.7157V103.18H20.3557V118ZM33.5527 118.24C38.2927 118.24 40.8127 116.47 40.8127 113.47C40.8127 112.27 40.2427 111.13 39.2527 110.59C38.2027 109.99 37.0027 109.78 34.9027 109.57C33.1027 109.39 31.6927 109.24 30.9727 109C30.1027 108.7 29.9527 108.1 29.9527 107.47C29.9527 106.21 31.2727 105.37 33.6127 105.37C36.0727 105.37 37.1227 106.3 37.1527 108.22H40.1827C40.1827 104.86 38.1427 102.94 33.5227 102.94C29.5027 102.94 26.6227 104.74 26.6227 107.71C26.6227 108.85 27.1027 109.93 27.9127 110.53C28.8127 111.19 30.3727 111.49 32.6827 111.7C34.3327 111.85 35.7427 112 36.4627 112.27C37.2427 112.54 37.4527 113.05 37.4527 113.62C37.4527 114.97 36.2527 115.81 33.5227 115.81C30.6427 115.81 29.6527 114.76 29.6527 113.05H26.6227C26.6227 115.96 28.4527 118.24 33.5527 118.24ZM43.6383 123.94H46.9983V118.12C46.9983 117.52 46.9383 115.99 46.9083 115H46.9383C47.5683 116.92 49.4883 118.24 52.4283 118.24C56.6883 118.24 59.3883 115.12 59.3883 110.32C59.3883 105.85 56.7183 102.94 52.4883 102.94C49.5483 102.94 47.5683 104.38 46.9683 106.63H46.9383L46.9983 103.18H43.6383V123.94ZM51.7683 115.48C48.8883 115.48 46.9983 113.86 46.9983 111.34V110.56C47.0583 107.59 48.9183 105.7 51.7083 105.7C54.3783 105.7 56.0283 107.56 56.0283 110.41C56.0283 113.5 54.3483 115.48 51.7683 115.48ZM69.4233 118.24C74.1633 118.24 77.1933 115.33 77.1933 110.62C77.1933 105.88 74.1633 102.94 69.4233 102.94C64.7133 102.94 61.6833 105.88 61.6833 110.62C61.6833 115.33 64.7133 118.24 69.4233 118.24ZM69.4233 115.48C66.6933 115.48 65.0433 113.62 65.0433 110.62C65.0433 107.59 66.6933 105.7 69.4233 105.7C72.1533 105.7 73.8333 107.59 73.8333 110.62C73.8333 113.62 72.1533 115.48 69.4233 115.48ZM86.2022 118.24C90.9422 118.24 93.4622 116.47 93.4622 113.47C93.4622 112.27 92.8922 111.13 91.9022 110.59C90.8522 109.99 89.6522 109.78 87.5522 109.57C85.7522 109.39 84.3422 109.24 83.6222 109C82.7522 108.7 82.6022 108.1 82.6022 107.47C82.6022 106.21 83.9222 105.37 86.2622 105.37C88.7222 105.37 89.7722 106.3 89.8022 108.22H92.8322C92.8322 104.86 90.7922 102.94 86.1722 102.94C82.1522 102.94 79.2722 104.74 79.2722 107.71C79.2722 108.85 79.7522 109.93 80.5622 110.53C81.4622 111.19 83.0222 111.49 85.3322 111.7C86.9822 111.85 88.3922 112 89.1122 112.27C89.8922 112.54 90.1022 113.05 90.1022 113.62C90.1022 114.97 88.9022 115.81 86.1722 115.81C83.2922 115.81 82.3022 114.76 82.3022 113.05H79.2722C79.2722 115.96 81.1022 118.24 86.2022 118.24ZM102.798 118.18C104.028 118.18 105.048 117.97 105.498 117.82V115.15C105.078 115.27 104.118 115.42 103.278 115.42C101.238 115.42 100.518 114.46 100.518 112.54V105.91H105.618V103.18H100.518V99.82H97.7278L97.5778 102.04C97.4878 102.88 97.2778 103.18 96.7078 103.18H94.8178V105.91H97.1578V112.72C97.1578 115.99 98.7478 118.18 102.798 118.18ZM114.836 118.24C119.576 118.24 122.606 115.33 122.606 110.62C122.606 105.88 119.576 102.94 114.836 102.94C110.126 102.94 107.096 105.88 107.096 110.62C107.096 115.33 110.126 118.24 114.836 118.24ZM114.836 115.48C112.106 115.48 110.456 113.62 110.456 110.62C110.456 107.59 112.106 105.7 114.836 105.7C117.566 105.7 119.246 107.59 119.246 110.62C119.246 113.62 117.566 115.48 114.836 115.48ZM131.615 118.24C136.355 118.24 138.875 116.47 138.875 113.47C138.875 112.27 138.305 111.13 137.315 110.59C136.265 109.99 135.065 109.78 132.965 109.57C131.165 109.39 129.755 109.24 129.035 109C128.165 108.7 128.015 108.1 128.015 107.47C128.015 106.21 129.335 105.37 131.675 105.37C134.135 105.37 135.185 106.3 135.215 108.22H138.245C138.245 104.86 136.205 102.94 131.585 102.94C127.565 102.94 124.685 104.74 124.685 107.71C124.685 108.85 125.165 109.93 125.975 110.53C126.875 111.19 128.435 111.49 130.745 111.7C132.395 111.85 133.805 112 134.525 112.27C135.305 112.54 135.515 113.05 135.515 113.62C135.515 114.97 134.315 115.81 131.585 115.81C128.705 115.81 127.715 114.76 127.715 113.05H124.685C124.685 115.96 126.515 118.24 131.615 118.24ZM153.58 118.24C156.85 118.24 158.62 116.92 159.1 114.73H159.13C159.13 115.93 159.04 117.28 158.98 118H162.34V108.97C162.34 105.07 159.7 102.94 155.2 102.94C150.97 102.94 148.39 104.71 148.39 107.68C148.39 107.95 148.42 108.34 148.45 108.55H151.54C151.51 108.31 151.51 108.07 151.51 107.98C151.51 106.33 152.8 105.46 155.08 105.46C157.69 105.46 158.98 106.45 158.98 108.67V109.72H153.49C149.53 109.72 147.94 111.49 147.94 113.74C147.94 116.62 150.19 118.24 153.58 118.24ZM154.27 115.72C152.23 115.72 151.03 114.94 151.03 113.59C151.03 112.42 151.87 111.76 153.79 111.76H158.98V112.03C158.98 114.31 157.18 115.72 154.27 115.72ZM172.141 118H175.501V110.77C175.501 107.59 177.031 105.82 179.311 105.82C181.321 105.82 182.431 107.14 182.431 109.24V118H185.791V110.65C185.791 107.56 187.291 105.82 189.631 105.82C191.641 105.82 192.691 107.14 192.691 109.3V118H196.051V108.55C196.051 105.07 194.161 102.94 190.861 102.94C188.041 102.94 186.241 104.44 185.701 106.84H185.671C185.311 104.44 183.451 102.94 180.571 102.94C177.871 102.94 176.071 104.53 175.411 107.08H175.381L175.501 103.18H172.141V118ZM205.195 118.24C208.495 118.24 210.565 116.68 211.195 113.86H211.225C211.225 115.42 211.165 117.01 211.075 118H214.435V103.18H211.075V109.75C211.075 113.35 209.185 115.36 206.185 115.36C203.755 115.36 202.315 114.04 202.315 111.7V103.18H198.955V112.18C198.955 116.11 201.325 118.24 205.195 118.24ZM224.172 118.24C227.202 118.24 229.062 116.74 229.632 114.4H229.692C229.632 115.84 229.602 117.13 229.542 118H232.902V97.21H229.542V105.79H229.512C228.912 104.05 227.172 102.94 224.382 102.94C219.972 102.94 217.182 106.03 217.182 110.5C217.182 115.12 219.882 118.24 224.172 118.24ZM224.862 115.48C222.222 115.48 220.512 113.44 220.512 110.5C220.512 107.68 222.252 105.7 224.922 105.7C227.712 105.7 229.542 107.38 229.542 110.02V110.74C229.542 113.62 227.682 115.48 224.862 115.48ZM241.407 118.24C244.677 118.24 246.447 116.92 246.927 114.73H246.957C246.957 115.93 246.867 117.28 246.807 118H250.167V108.97C250.167 105.07 247.527 102.94 243.027 102.94C238.797 102.94 236.217 104.71 236.217 107.68C236.217 107.95 236.247 108.34 236.277 108.55H239.367C239.337 108.31 239.337 108.07 239.337 107.98C239.337 106.33 240.627 105.46 242.907 105.46C245.517 105.46 246.807 106.45 246.807 108.67V109.72H241.317C237.357 109.72 235.767 111.49 235.767 113.74C235.767 116.62 238.017 118.24 241.407 118.24ZM242.097 115.72C240.057 115.72 238.857 114.94 238.857 113.59C238.857 112.42 239.697 111.76 241.617 111.76H246.807V112.03C246.807 114.31 245.007 115.72 242.097 115.72ZM253.22 118H256.58V111.52C256.58 107.98 258.17 105.82 260.72 105.82C262.7 105.82 263.66 106.99 263.66 109.48C263.66 110.17 263.6 110.92 263.54 111.49H266.6C266.66 110.86 266.75 109.66 266.75 108.73C266.75 105.04 264.98 102.94 261.77 102.94C258.71 102.94 257.18 104.77 256.49 107.44H256.46L256.58 103.18H253.22V118ZM283.5 118.24C288.24 118.24 291.27 115.33 291.27 110.62C291.27 105.88 288.24 102.94 283.5 102.94C278.79 102.94 275.76 105.88 275.76 110.62C275.76 115.33 278.79 118.24 283.5 118.24ZM283.5 115.48C280.77 115.48 279.12 113.62 279.12 110.62C279.12 107.59 280.77 105.7 283.5 105.7C286.23 105.7 287.91 107.59 287.91 110.62C287.91 113.62 286.23 115.48 283.5 115.48ZM300.724 118H304.084V111.52C304.084 107.98 305.674 105.82 308.224 105.82C310.204 105.82 311.164 106.99 311.164 109.48C311.164 110.17 311.104 110.92 311.044 111.49H314.104C314.164 110.86 314.254 109.66 314.254 108.73C314.254 105.04 312.484 102.94 309.274 102.94C306.214 102.94 304.684 104.77 303.994 107.44H303.964L304.084 103.18H300.724V118ZM331.005 110.05C331.005 105.43 328.335 102.94 324.135 102.94C319.455 102.94 316.515 105.91 316.515 110.71C316.515 115.36 319.455 118.24 324.135 118.24C328.185 118.24 330.885 116.23 331.005 112.93H327.975C327.825 114.67 326.355 115.63 324.195 115.63C321.675 115.63 320.085 114.1 319.905 111.25H331.005V110.05ZM327.975 109.21H319.995C320.385 106.75 321.855 105.55 324.165 105.55C326.595 105.55 327.975 106.78 327.975 109V109.21ZM333.853 118H337.213V97.21H333.853V118ZM345.761 118.24C349.031 118.24 350.801 116.92 351.281 114.73H351.311C351.311 115.93 351.221 117.28 351.161 118H354.521V108.97C354.521 105.07 351.881 102.94 347.381 102.94C343.151 102.94 340.571 104.71 340.571 107.68C340.571 107.95 340.601 108.34 340.631 108.55H343.721C343.691 108.31 343.691 108.07 343.691 107.98C343.691 106.33 344.981 105.46 347.261 105.46C349.871 105.46 351.161 106.45 351.161 108.67V109.72H345.671C341.711 109.72 340.121 111.49 340.121 113.74C340.121 116.62 342.371 118.24 345.761 118.24ZM346.451 115.72C344.411 115.72 343.211 114.94 343.211 113.59C343.211 112.42 344.051 111.76 345.971 111.76H351.161V112.03C351.161 114.31 349.361 115.72 346.451 115.72ZM364.384 118.24C368.614 118.24 371.434 115.93 371.434 111.97H368.404C368.374 114.16 366.904 115.48 364.534 115.48C362.044 115.48 360.484 113.62 360.484 110.59C360.484 107.53 362.074 105.7 364.654 105.7C366.904 105.7 368.344 107.05 368.374 109.27H371.404C371.404 105.34 368.704 102.94 364.564 102.94C360.094 102.94 357.124 105.85 357.124 110.59C357.124 115.33 360.034 118.24 364.384 118.24ZM374.344 101.44H377.794V98.14H374.344V101.44ZM374.374 118H377.734V103.18H374.374V118ZM388.381 118.24C393.121 118.24 396.151 115.33 396.151 110.62C396.151 105.88 393.121 102.94 388.381 102.94C383.671 102.94 380.641 105.88 380.641 110.62C380.641 115.33 383.671 118.24 388.381 118.24ZM388.381 115.48C385.651 115.48 384.001 113.62 384.001 110.62C384.001 107.59 385.651 105.7 388.381 105.7C391.111 105.7 392.791 107.59 392.791 110.62C392.791 113.62 391.111 115.48 388.381 115.48ZM398.856 118H402.216V110.83C402.216 107.59 404.076 105.82 407.016 105.82C409.686 105.82 411.006 107.14 411.006 109.48V118H414.366V108.73C414.366 105.07 412.056 102.94 408.306 102.94C404.856 102.94 402.936 104.47 402.126 107.14H402.096L402.216 103.18H398.856V118ZM422.632 118.24C425.902 118.24 427.672 116.92 428.152 114.73H428.182C428.182 115.93 428.092 117.28 428.032 118H431.392V108.97C431.392 105.07 428.752 102.94 424.252 102.94C420.022 102.94 417.442 104.71 417.442 107.68C417.442 107.95 417.472 108.34 417.502 108.55H420.592C420.562 108.31 420.562 108.07 420.562 107.98C420.562 106.33 421.852 105.46 424.132 105.46C426.742 105.46 428.032 106.45 428.032 108.67V109.72H422.542C418.582 109.72 416.992 111.49 416.992 113.74C416.992 116.62 419.242 118.24 422.632 118.24ZM423.322 115.72C421.282 115.72 420.082 114.94 420.082 113.59C420.082 112.42 420.922 111.76 422.842 111.76H428.032V112.03C428.032 114.31 426.232 115.72 423.322 115.72ZM434.444 118H437.804V110.77C437.804 107.59 439.334 105.82 441.614 105.82C443.624 105.82 444.734 107.14 444.734 109.24V118H448.094V110.65C448.094 107.56 449.594 105.82 451.934 105.82C453.944 105.82 454.994 107.14 454.994 109.3V118H458.354V108.55C458.354 105.07 456.464 102.94 453.164 102.94C450.344 102.94 448.544 104.44 448.004 106.84H447.974C447.614 104.44 445.754 102.94 442.874 102.94C440.174 102.94 438.374 104.53 437.714 107.08H437.684L437.804 103.18H434.444V118ZM475.448 110.05C475.448 105.43 472.778 102.94 468.578 102.94C463.898 102.94 460.958 105.91 460.958 110.71C460.958 115.36 463.898 118.24 468.578 118.24C472.628 118.24 475.328 116.23 475.448 112.93H472.418C472.268 114.67 470.798 115.63 468.638 115.63C466.118 115.63 464.528 114.1 464.348 111.25H475.448V110.05ZM472.418 109.21H464.438C464.828 106.75 466.298 105.55 468.608 105.55C471.038 105.55 472.418 106.78 472.418 109V109.21ZM478.206 118H481.566V110.83C481.566 107.59 483.426 105.82 486.366 105.82C489.036 105.82 490.356 107.14 490.356 109.48V118H493.716V108.73C493.716 105.07 491.406 102.94 487.656 102.94C484.206 102.94 482.286 104.47 481.476 107.14H481.446L481.566 103.18H478.206V118ZM503.361 118.18C504.591 118.18 505.611 117.97 506.061 117.82V115.15C505.641 115.27 504.681 115.42 503.841 115.42C501.801 115.42 501.081 114.46 501.081 112.54V105.91H506.181V103.18H501.081V99.82H498.291L498.141 102.04C498.051 102.88 497.841 103.18 497.271 103.18H495.381V105.91H497.721V112.72C497.721 115.99 499.311 118.18 503.361 118.18ZM515.4 118.24C520.14 118.24 523.17 115.33 523.17 110.62C523.17 105.88 520.14 102.94 515.4 102.94C510.69 102.94 507.66 105.88 507.66 110.62C507.66 115.33 510.69 118.24 515.4 118.24ZM515.4 115.48C512.67 115.48 511.02 113.62 511.02 110.62C511.02 107.59 512.67 105.7 515.4 105.7C518.13 105.7 519.81 107.59 519.81 110.62C519.81 113.62 518.13 115.48 515.4 115.48ZM10.74 162.24C14.91 162.24 17.52 159.21 17.52 154.32C17.52 149.76 14.97 146.94 10.71 146.94C7.77 146.94 5.73 148.32 5.1 150.48H5.07C5.1 149.76 5.13 148.56 5.13 147.93V141.21H1.77V162H5.13C5.07 161.25 5.01 159.9 5.01 158.85H5.04C5.64 160.92 7.68 162.24 10.74 162.24ZM9.87 159.48C6.96 159.48 5.13 157.89 5.13 155.31V154.56C5.13 151.56 6.99 149.7 9.93 149.7C12.57 149.7 14.16 151.5 14.16 154.41C14.16 157.56 12.51 159.48 9.87 159.48ZM24.7233 162.24C27.9933 162.24 29.7633 160.92 30.2433 158.73H30.2733C30.2733 159.93 30.1833 161.28 30.1233 162H33.4833V152.97C33.4833 149.07 30.8433 146.94 26.3433 146.94C22.1133 146.94 19.5333 148.71 19.5333 151.68C19.5333 151.95 19.5633 152.34 19.5933 152.55H22.6833C22.6533 152.31 22.6533 152.07 22.6533 151.98C22.6533 150.33 23.9433 149.46 26.2233 149.46C28.8333 149.46 30.1233 150.45 30.1233 152.67V153.72H24.6333C20.6733 153.72 19.0833 155.49 19.0833 157.74C19.0833 160.62 21.3333 162.24 24.7233 162.24ZM25.4133 159.72C23.3733 159.72 22.1733 158.94 22.1733 157.59C22.1733 156.42 23.0133 155.76 24.9333 155.76H30.1233V156.03C30.1233 158.31 28.3233 159.72 25.4133 159.72ZM36.5355 162H39.8955V154.83C39.8955 151.59 41.7555 149.82 44.6955 149.82C47.3655 149.82 48.6855 151.14 48.6855 153.48V162H52.0455V152.73C52.0455 149.07 49.7355 146.94 45.9855 146.94C42.5355 146.94 40.6155 148.47 39.8055 151.14H39.7755L39.8955 147.18H36.5355V162ZM61.9013 162.24C66.1313 162.24 68.9513 159.93 68.9513 155.97H65.9213C65.8913 158.16 64.4213 159.48 62.0513 159.48C59.5613 159.48 58.0013 157.62 58.0013 154.59C58.0013 151.53 59.5913 149.7 62.1713 149.7C64.4213 149.7 65.8613 151.05 65.8913 153.27H68.9213C68.9213 149.34 66.2213 146.94 62.0813 146.94C57.6113 146.94 54.6413 149.85 54.6413 154.59C54.6413 159.33 57.5513 162.24 61.9013 162.24ZM76.2302 145.65H78.8702L82.0802 141.45H78.5702L76.2302 145.65ZM76.2302 162.24C79.5002 162.24 81.2702 160.92 81.7502 158.73H81.7802C81.7802 159.93 81.6902 161.28 81.6302 162H84.9902V152.97C84.9902 149.07 82.3502 146.94 77.8502 146.94C73.6202 146.94 71.0402 148.71 71.0402 151.68C71.0402 151.95 71.0702 152.34 71.1002 152.55H74.1902C74.1602 152.31 74.1602 152.07 74.1602 151.98C74.1602 150.33 75.4502 149.46 77.7302 149.46C80.3402 149.46 81.6302 150.45 81.6302 152.67V153.72H76.1402C72.1802 153.72 70.5902 155.49 70.5902 157.74C70.5902 160.62 72.8402 162.24 76.2302 162.24ZM76.9202 159.72C74.8802 159.72 73.6802 158.94 73.6802 157.59C73.6802 156.42 74.5202 155.76 76.4402 155.76H81.6302V156.03C81.6302 158.31 79.8302 159.72 76.9202 159.72ZM88.0425 162H91.4025V155.52C91.4025 151.98 92.9925 149.82 95.5425 149.82C97.5225 149.82 98.4825 150.99 98.4825 153.48C98.4825 154.17 98.4225 154.92 98.3625 155.49H101.423C101.483 154.86 101.573 153.66 101.573 152.73C101.573 149.04 99.8025 146.94 96.5925 146.94C93.5325 146.94 92.0025 148.77 91.3125 151.44H91.2825L91.4025 147.18H88.0425V162ZM104.374 145.44H107.824V142.14H104.374V145.44ZM104.404 162H107.764V147.18H104.404V162ZM118.411 162.24C123.151 162.24 126.181 159.33 126.181 154.62C126.181 149.88 123.151 146.94 118.411 146.94C113.701 146.94 110.671 149.88 110.671 154.62C110.671 159.33 113.701 162.24 118.411 162.24ZM118.411 159.48C115.681 159.48 114.031 157.62 114.031 154.62C114.031 151.59 115.681 149.7 118.411 149.7C121.141 149.7 122.821 151.59 122.821 154.62C122.821 157.62 121.141 159.48 118.411 159.48ZM135.724 167.94H139.084V162.12C139.084 161.52 139.024 159.99 138.994 159H139.024C139.654 160.92 141.574 162.24 144.514 162.24C148.774 162.24 151.474 159.12 151.474 154.32C151.474 149.85 148.804 146.94 144.574 146.94C141.634 146.94 139.654 148.38 139.054 150.63H139.024L139.084 147.18H135.724V167.94ZM143.854 159.48C140.974 159.48 139.084 157.86 139.084 155.34V154.56C139.144 151.59 141.004 149.7 143.794 149.7C146.464 149.7 148.114 151.56 148.114 154.41C148.114 157.5 146.434 159.48 143.854 159.48ZM158.678 162.24C161.948 162.24 163.718 160.92 164.198 158.73H164.228C164.228 159.93 164.138 161.28 164.078 162H167.438V152.97C167.438 149.07 164.798 146.94 160.298 146.94C156.068 146.94 153.488 148.71 153.488 151.68C153.488 151.95 153.518 152.34 153.548 152.55H156.638C156.608 152.31 156.608 152.07 156.608 151.98C156.608 150.33 157.898 149.46 160.178 149.46C162.788 149.46 164.078 150.45 164.078 152.67V153.72H158.588C154.628 153.72 153.038 155.49 153.038 157.74C153.038 160.62 155.288 162.24 158.678 162.24ZM159.368 159.72C157.328 159.72 156.128 158.94 156.128 157.59C156.128 156.42 156.968 155.76 158.888 155.76H164.078V156.03C164.078 158.31 162.278 159.72 159.368 159.72ZM170.49 162H173.85V155.52C173.85 151.98 175.44 149.82 177.99 149.82C179.97 149.82 180.93 150.99 180.93 153.48C180.93 154.17 180.87 154.92 180.81 155.49H183.87C183.93 154.86 184.02 153.66 184.02 152.73C184.02 149.04 182.25 146.94 179.04 146.94C175.98 146.94 174.45 148.77 173.76 151.44H173.73L173.85 147.18H170.49V162ZM191.951 162.24C195.221 162.24 196.991 160.92 197.471 158.73H197.501C197.501 159.93 197.411 161.28 197.351 162H200.711V152.97C200.711 149.07 198.071 146.94 193.571 146.94C189.341 146.94 186.761 148.71 186.761 151.68C186.761 151.95 186.791 152.34 186.821 152.55H189.911C189.881 152.31 189.881 152.07 189.881 151.98C189.881 150.33 191.171 149.46 193.451 149.46C196.061 149.46 197.351 150.45 197.351 152.67V153.72H191.861C187.901 153.72 186.311 155.49 186.311 157.74C186.311 160.62 188.561 162.24 191.951 162.24ZM192.641 159.72C190.601 159.72 189.401 158.94 189.401 157.59C189.401 156.42 190.241 155.76 192.161 155.76H197.351V156.03C197.351 158.31 195.551 159.72 192.641 159.72ZM217.803 162.24C222.543 162.24 225.573 159.33 225.573 154.62C225.573 149.88 222.543 146.94 217.803 146.94C213.093 146.94 210.063 149.88 210.063 154.62C210.063 159.33 213.093 162.24 217.803 162.24ZM217.803 159.48C215.073 159.48 213.423 157.62 213.423 154.62C213.423 151.59 215.073 149.7 217.803 149.7C220.533 149.7 222.213 151.59 222.213 154.62C222.213 157.62 220.533 159.48 217.803 159.48ZM234.581 162.24C239.321 162.24 241.841 160.47 241.841 157.47C241.841 156.27 241.271 155.13 240.281 154.59C239.231 153.99 238.031 153.78 235.931 153.57C234.131 153.39 232.721 153.24 232.001 153C231.131 152.7 230.981 152.1 230.981 151.47C230.981 150.21 232.301 149.37 234.641 149.37C237.101 149.37 238.151 150.3 238.181 152.22H241.211C241.211 148.86 239.171 146.94 234.551 146.94C230.531 146.94 227.651 148.74 227.651 151.71C227.651 152.85 228.131 153.93 228.941 154.53C229.841 155.19 231.401 155.49 233.711 155.7C235.361 155.85 236.771 156 237.491 156.27C238.271 156.54 238.481 157.05 238.481 157.62C238.481 158.97 237.281 159.81 234.551 159.81C231.671 159.81 230.681 158.76 230.681 157.05H227.651C227.651 159.96 229.481 162.24 234.581 162.24ZM251.386 145.44H254.866V142.14H251.386V145.44ZM249.586 168.27C253.126 168.27 254.806 165.9 254.806 162.42V147.18H251.446V162.3C251.446 164.31 250.636 165.48 248.746 165.48C248.056 165.48 247.336 165.39 246.766 165.27V167.94C247.186 168.06 248.236 168.27 249.586 168.27ZM265.453 162.24C270.193 162.24 273.223 159.33 273.223 154.62C273.223 149.88 270.193 146.94 265.453 146.94C260.743 146.94 257.713 149.88 257.713 154.62C257.713 159.33 260.743 162.24 265.453 162.24ZM265.453 159.48C262.723 159.48 261.073 157.62 261.073 154.62C261.073 151.59 262.723 149.7 265.453 149.7C268.183 149.7 269.863 151.59 269.863 154.62C269.863 157.62 268.183 159.48 265.453 159.48ZM280.449 162H284.439L290.859 147.18H287.349L282.639 158.85H282.579L277.929 147.18H273.999L280.449 162ZM306.59 154.05C306.59 149.43 303.92 146.94 299.72 146.94C295.04 146.94 292.1 149.91 292.1 154.71C292.1 159.36 295.04 162.24 299.72 162.24C303.77 162.24 306.47 160.23 306.59 156.93H303.56C303.41 158.67 301.94 159.63 299.78 159.63C297.26 159.63 295.67 158.1 295.49 155.25H306.59V154.05ZM303.56 153.21H295.58C295.97 150.75 297.44 149.55 299.75 149.55C302.18 149.55 303.56 150.78 303.56 153V153.21ZM309.348 162H312.708V154.83C312.708 151.59 314.568 149.82 317.508 149.82C320.178 149.82 321.498 151.14 321.498 153.48V162H324.858V152.73C324.858 149.07 322.548 146.94 318.798 146.94C315.348 146.94 313.428 148.47 312.618 151.14H312.588L312.708 147.18H309.348V162ZM334.384 162.24C339.124 162.24 341.644 160.47 341.644 157.47C341.644 156.27 341.074 155.13 340.084 154.59C339.034 153.99 337.834 153.78 335.734 153.57C333.934 153.39 332.524 153.24 331.804 153C330.934 152.7 330.784 152.1 330.784 151.47C330.784 150.21 332.104 149.37 334.444 149.37C336.904 149.37 337.954 150.3 337.984 152.22H341.014C341.014 148.86 338.974 146.94 334.354 146.94C330.334 146.94 327.454 148.74 327.454 151.71C327.454 152.85 327.934 153.93 328.744 154.53C329.644 155.19 331.204 155.49 333.514 155.7C335.164 155.85 336.574 156 337.294 156.27C338.074 156.54 338.284 157.05 338.284 157.62C338.284 158.97 337.084 159.81 334.354 159.81C331.474 159.81 330.484 158.76 330.484 157.05H327.454C327.454 159.96 329.284 162.24 334.384 162.24ZM351.128 162H354.488V154.83C354.488 151.59 356.348 149.82 359.288 149.82C361.958 149.82 363.278 151.14 363.278 153.48V162H366.638V152.73C366.638 149.07 364.328 146.94 360.578 146.94C357.128 146.94 355.208 148.47 354.398 151.14H354.368L354.488 147.18H351.128V162ZM376.974 162.24C381.714 162.24 384.744 159.33 384.744 154.62C384.744 149.88 381.714 146.94 376.974 146.94C372.264 146.94 369.234 149.88 369.234 154.62C369.234 159.33 372.264 162.24 376.974 162.24ZM376.974 159.48C374.244 159.48 372.594 157.62 372.594 154.62C372.594 151.59 374.244 149.7 376.974 149.7C379.704 149.7 381.384 151.59 381.384 154.62C381.384 157.62 379.704 159.48 376.974 159.48ZM394.438 162H403.468C408.358 162 410.548 159.81 410.548 156.27C410.548 153.72 409.078 152.04 406.618 151.68V151.65C408.718 151.26 409.798 149.67 409.798 147.42C409.798 144.24 407.398 142.26 402.778 142.26H394.438V162ZM398.038 150.72V145.08H402.748C405.448 145.08 406.588 146.19 406.588 147.96C406.588 149.7 405.448 150.72 403.108 150.72H398.038ZM398.038 159.18V153.06H403.288C405.748 153.06 407.128 154.2 407.128 155.91C407.128 157.92 406.108 159.18 403.408 159.18H398.038ZM413.281 162H416.641V155.52C416.641 151.98 418.231 149.82 420.781 149.82C422.761 149.82 423.721 150.99 423.721 153.48C423.721 154.17 423.661 154.92 423.601 155.49H426.661C426.721 154.86 426.811 153.66 426.811 152.73C426.811 149.04 425.041 146.94 421.831 146.94C418.771 146.94 417.241 148.77 416.551 151.44H416.521L416.641 147.18H413.281V162ZM434.742 162.24C438.012 162.24 439.782 160.92 440.262 158.73H440.292C440.292 159.93 440.202 161.28 440.142 162H443.502V152.97C443.502 149.07 440.862 146.94 436.362 146.94C432.132 146.94 429.552 148.71 429.552 151.68C429.552 151.95 429.582 152.34 429.612 152.55H432.702C432.672 152.31 432.672 152.07 432.672 151.98C432.672 150.33 433.962 149.46 436.242 149.46C438.852 149.46 440.142 150.45 440.142 152.67V153.72H434.652C430.692 153.72 429.102 155.49 429.102 157.74C429.102 160.62 431.352 162.24 434.742 162.24ZM435.432 159.72C433.392 159.72 432.192 158.94 432.192 157.59C432.192 156.42 433.032 155.76 434.952 155.76H440.142V156.03C440.142 158.31 438.342 159.72 435.432 159.72ZM453.034 162.24C457.774 162.24 460.294 160.47 460.294 157.47C460.294 156.27 459.724 155.13 458.734 154.59C457.684 153.99 456.484 153.78 454.384 153.57C452.584 153.39 451.174 153.24 450.454 153C449.584 152.7 449.434 152.1 449.434 151.47C449.434 150.21 450.754 149.37 453.094 149.37C455.554 149.37 456.604 150.3 456.634 152.22H459.664C459.664 148.86 457.624 146.94 453.004 146.94C448.984 146.94 446.104 148.74 446.104 151.71C446.104 152.85 446.584 153.93 447.394 154.53C448.294 155.19 449.854 155.49 452.164 155.7C453.814 155.85 455.224 156 455.944 156.27C456.724 156.54 456.934 157.05 456.934 157.62C456.934 158.97 455.734 159.81 453.004 159.81C450.124 159.81 449.134 158.76 449.134 157.05H446.104C446.104 159.96 447.934 162.24 453.034 162.24ZM463.12 145.44H466.57V142.14H463.12V145.44ZM463.15 162H466.51V147.18H463.15V162ZM469.957 162H473.317V141.21H469.957V162ZM476.645 166.14C479.255 165.93 480.575 164.46 480.575 160.92V158.1H477.185V162H478.595V162.09C478.595 163.56 478.025 164.28 476.645 164.4V166.14ZM8.49 206.24C12.72 206.24 15.54 203.93 15.54 199.97H12.51C12.48 202.16 11.01 203.48 8.64 203.48C6.15 203.48 4.59 201.62 4.59 198.59C4.59 195.53 6.18 193.7 8.76 193.7C11.01 193.7 12.45 195.05 12.48 197.27H15.51C15.51 193.34 12.81 190.94 8.67 190.94C4.2 190.94 1.23 193.85 1.23 198.59C1.23 203.33 4.14 206.24 8.49 206.24ZM25.6507 206.24C30.3907 206.24 33.4207 203.33 33.4207 198.62C33.4207 193.88 30.3907 190.94 25.6507 190.94C20.9407 190.94 17.9107 193.88 17.9107 198.62C17.9107 203.33 20.9407 206.24 25.6507 206.24ZM25.6507 203.48C22.9207 203.48 21.2707 201.62 21.2707 198.62C21.2707 195.59 22.9207 193.7 25.6507 193.7C28.3807 193.7 30.0607 195.59 30.0607 198.62C30.0607 201.62 28.3807 203.48 25.6507 203.48ZM36.1254 206H39.4854V198.77C39.4854 195.59 41.0154 193.82 43.2954 193.82C45.3054 193.82 46.4154 195.14 46.4154 197.24V206H49.7754V198.65C49.7754 195.56 51.2754 193.82 53.6154 193.82C55.6254 193.82 56.6754 195.14 56.6754 197.3V206H60.0354V196.55C60.0354 193.07 58.1454 190.94 54.8454 190.94C52.0254 190.94 50.2254 192.44 49.6854 194.84H49.6554C49.2954 192.44 47.4354 190.94 44.5554 190.94C41.8554 190.94 40.0554 192.53 39.3954 195.08H39.3654L39.4854 191.18H36.1254V206ZM63.1793 211.94H66.5393V206.12C66.5393 205.52 66.4793 203.99 66.4493 203H66.4793C67.1093 204.92 69.0293 206.24 71.9693 206.24C76.2293 206.24 78.9293 203.12 78.9293 198.32C78.9293 193.85 76.2593 190.94 72.0293 190.94C69.0893 190.94 67.1093 192.38 66.5093 194.63H66.4793L66.5393 191.18H63.1793V211.94ZM71.3093 203.48C68.4293 203.48 66.5393 201.86 66.5393 199.34V198.56C66.5993 195.59 68.4593 193.7 71.2493 193.7C73.9193 193.7 75.5693 195.56 75.5693 198.41C75.5693 201.5 73.8893 203.48 71.3093 203.48ZM86.1326 206.24C89.4026 206.24 91.1726 204.92 91.6526 202.73H91.6826C91.6826 203.93 91.5926 205.28 91.5326 206H94.8926V196.97C94.8926 193.07 92.2526 190.94 87.7526 190.94C83.5226 190.94 80.9426 192.71 80.9426 195.68C80.9426 195.95 80.9726 196.34 81.0026 196.55H84.0926C84.0626 196.31 84.0626 196.07 84.0626 195.98C84.0626 194.33 85.3526 193.46 87.6326 193.46C90.2426 193.46 91.5326 194.45 91.5326 196.67V197.72H86.0426C82.0826 197.72 80.4926 199.49 80.4926 201.74C80.4926 204.62 82.7426 206.24 86.1326 206.24ZM86.8226 203.72C84.7826 203.72 83.5826 202.94 83.5826 201.59C83.5826 200.42 84.4226 199.76 86.3426 199.76H91.5326V200.03C91.5326 202.31 89.7326 203.72 86.8226 203.72ZM97.9448 206H101.305V199.52C101.305 195.98 102.895 193.82 105.445 193.82C107.425 193.82 108.385 194.99 108.385 197.48C108.385 198.17 108.325 198.92 108.265 199.49H111.325C111.385 198.86 111.475 197.66 111.475 196.73C111.475 193.04 109.705 190.94 106.495 190.94C103.435 190.94 101.905 192.77 101.215 195.44H101.185L101.305 191.18H97.9448V206ZM120.786 206.18C122.016 206.18 123.036 205.97 123.486 205.82V203.15C123.066 203.27 122.106 203.42 121.266 203.42C119.226 203.42 118.506 202.46 118.506 200.54V193.91H123.606V191.18H118.506V187.82H115.716L115.566 190.04C115.476 190.88 115.266 191.18 114.696 191.18H112.806V193.91H115.146V200.72C115.146 203.99 116.736 206.18 120.786 206.18ZM126.211 189.44H129.661V186.14H126.211V189.44ZM126.241 206H129.601V191.18H126.241V206ZM133.048 206H136.408V185.21H133.048V206ZM139.826 206H143.186V198.98C143.186 195.65 145.046 193.82 148.016 193.82C150.686 193.82 152.006 195.14 152.006 197.48V206H155.366V196.73C155.366 193.07 153.056 190.94 149.306 190.94C145.826 190.94 143.906 192.47 143.126 195.17H143.096C143.126 194.36 143.186 192.65 143.186 191.93V185.21H139.826V206ZM163.629 206.24C166.899 206.24 168.669 204.92 169.149 202.73H169.179C169.179 203.93 169.089 205.28 169.029 206H172.389V196.97C172.389 193.07 169.749 190.94 165.249 190.94C161.019 190.94 158.439 192.71 158.439 195.68C158.439 195.95 158.469 196.34 158.499 196.55H161.589C161.559 196.31 161.559 196.07 161.559 195.98C161.559 194.33 162.849 193.46 165.129 193.46C167.739 193.46 169.029 194.45 169.029 196.67V197.72H163.539C159.579 197.72 157.989 199.49 157.989 201.74C157.989 204.62 160.239 206.24 163.629 206.24ZM164.319 203.72C162.279 203.72 161.079 202.94 161.079 201.59C161.079 200.42 161.919 199.76 163.839 199.76H169.029V200.03C169.029 202.31 167.229 203.72 164.319 203.72ZM175.441 206H178.801V198.83C178.801 195.59 180.661 193.82 183.601 193.82C186.271 193.82 187.591 195.14 187.591 197.48V206H190.951V196.73C190.951 193.07 188.641 190.94 184.891 190.94C181.441 190.94 179.521 192.47 178.711 195.14H178.681L178.801 191.18H175.441V206ZM200.537 206.24C203.567 206.24 205.427 204.74 205.997 202.4H206.057C205.997 203.84 205.967 205.13 205.907 206H209.267V185.21H205.907V193.79H205.877C205.277 192.05 203.537 190.94 200.747 190.94C196.337 190.94 193.547 194.03 193.547 198.5C193.547 203.12 196.247 206.24 200.537 206.24ZM201.227 203.48C198.587 203.48 196.877 201.44 196.877 198.5C196.877 195.68 198.617 193.7 201.287 193.7C204.077 193.7 205.907 195.38 205.907 198.02V198.74C205.907 201.62 204.047 203.48 201.227 203.48ZM219.843 206.24C224.583 206.24 227.613 203.33 227.613 198.62C227.613 193.88 224.583 190.94 219.843 190.94C215.133 190.94 212.103 193.88 212.103 198.62C212.103 203.33 215.133 206.24 219.843 206.24ZM219.843 203.48C217.113 203.48 215.463 201.62 215.463 198.62C215.463 195.59 217.113 193.7 219.843 193.7C222.573 193.7 224.253 195.59 224.253 198.62C224.253 201.62 222.573 203.48 219.843 203.48ZM243.546 206.24C248.286 206.24 250.806 204.47 250.806 201.47C250.806 200.27 250.236 199.13 249.246 198.59C248.196 197.99 246.996 197.78 244.896 197.57C243.096 197.39 241.686 197.24 240.966 197C240.096 196.7 239.946 196.1 239.946 195.47C239.946 194.21 241.266 193.37 243.606 193.37C246.066 193.37 247.116 194.3 247.146 196.22H250.176C250.176 192.86 248.136 190.94 243.516 190.94C239.496 190.94 236.616 192.74 236.616 195.71C236.616 196.85 237.096 197.93 237.906 198.53C238.806 199.19 240.366 199.49 242.676 199.7C244.326 199.85 245.736 200 246.456 200.27C247.236 200.54 247.446 201.05 247.446 201.62C247.446 202.97 246.246 203.81 243.516 203.81C240.636 203.81 239.646 202.76 239.646 201.05H236.616C236.616 203.96 238.446 206.24 243.546 206.24ZM260.832 206.24C265.572 206.24 268.602 203.33 268.602 198.62C268.602 193.88 265.572 190.94 260.832 190.94C256.122 190.94 253.092 193.88 253.092 198.62C253.092 203.33 256.122 206.24 260.832 206.24ZM260.832 203.48C258.102 203.48 256.452 201.62 256.452 198.62C256.452 195.59 258.102 193.7 260.832 193.7C263.562 193.7 265.242 195.59 265.242 198.62C265.242 201.62 263.562 203.48 260.832 203.48ZM271.307 206H274.667V198.83C274.667 195.59 276.527 193.82 279.467 193.82C282.137 193.82 283.457 195.14 283.457 197.48V206H286.817V196.73C286.817 193.07 284.507 190.94 280.757 190.94C277.307 190.94 275.387 192.47 274.577 195.14H274.547L274.667 191.18H271.307V206ZM289.952 206H293.312V198.98C293.312 195.65 295.172 193.82 298.142 193.82C300.812 193.82 302.132 195.14 302.132 197.48V206H305.492V196.73C305.492 193.07 303.182 190.94 299.432 190.94C295.952 190.94 294.032 192.47 293.252 195.17H293.222C293.252 194.36 293.312 192.65 293.312 191.93V185.21H289.952V206ZM315.825 206.24C320.565 206.24 323.595 203.33 323.595 198.62C323.595 193.88 320.565 190.94 315.825 190.94C311.115 190.94 308.085 193.88 308.085 198.62C308.085 203.33 311.115 206.24 315.825 206.24ZM315.825 203.48C313.095 203.48 311.445 201.62 311.445 198.62C311.445 195.59 313.095 193.7 315.825 193.7C318.555 193.7 320.235 195.59 320.235 198.62C320.235 201.62 318.555 203.48 315.825 203.48ZM332.604 206.24C337.344 206.24 339.864 204.47 339.864 201.47C339.864 200.27 339.294 199.13 338.304 198.59C337.254 197.99 336.054 197.78 333.954 197.57C332.154 197.39 330.744 197.24 330.024 197C329.154 196.7 329.004 196.1 329.004 195.47C329.004 194.21 330.324 193.37 332.664 193.37C335.124 193.37 336.174 194.3 336.204 196.22H339.234C339.234 192.86 337.194 190.94 332.574 190.94C328.554 190.94 325.674 192.74 325.674 195.71C325.674 196.85 326.154 197.93 326.964 198.53C327.864 199.19 329.424 199.49 331.734 199.7C333.384 199.85 334.794 200 335.514 200.27C336.294 200.54 336.504 201.05 336.504 201.62C336.504 202.97 335.304 203.81 332.574 203.81C329.694 203.81 328.704 202.76 328.704 201.05H325.674C325.674 203.96 327.504 206.24 332.604 206.24ZM363.389 198.05C363.389 193.43 360.719 190.94 356.519 190.94C351.839 190.94 348.899 193.91 348.899 198.71C348.899 203.36 351.839 206.24 356.519 206.24C360.569 206.24 363.269 204.23 363.389 200.93H360.359C360.209 202.67 358.739 203.63 356.579 203.63C354.059 203.63 352.469 202.1 352.289 199.25H363.389V198.05ZM360.359 197.21H352.379C352.769 194.75 354.239 193.55 356.549 193.55C358.979 193.55 360.359 194.78 360.359 197V197.21ZM8.49 250.24C12.72 250.24 15.54 247.93 15.54 243.97H12.51C12.48 246.16 11.01 247.48 8.64 247.48C6.15 247.48 4.59 245.62 4.59 242.59C4.59 239.53 6.18 237.7 8.76 237.7C11.01 237.7 12.45 239.05 12.48 241.27H15.51C15.51 237.34 12.81 234.94 8.67 234.94C4.2 234.94 1.23 237.85 1.23 242.59C1.23 247.33 4.14 250.24 8.49 250.24ZM25.6507 250.24C30.3907 250.24 33.4207 247.33 33.4207 242.62C33.4207 237.88 30.3907 234.94 25.6507 234.94C20.9407 234.94 17.9107 237.88 17.9107 242.62C17.9107 247.33 20.9407 250.24 25.6507 250.24ZM25.6507 247.48C22.9207 247.48 21.2707 245.62 21.2707 242.62C21.2707 239.59 22.9207 237.7 25.6507 237.7C28.3807 237.7 30.0607 239.59 30.0607 242.62C30.0607 245.62 28.3807 247.48 25.6507 247.48ZM36.1254 250H39.4854V242.77C39.4854 239.59 41.0154 237.82 43.2954 237.82C45.3054 237.82 46.4154 239.14 46.4154 241.24V250H49.7754V242.65C49.7754 239.56 51.2754 237.82 53.6154 237.82C55.6254 237.82 56.6754 239.14 56.6754 241.3V250H60.0354V240.55C60.0354 237.07 58.1454 234.94 54.8454 234.94C52.0254 234.94 50.2254 236.44 49.6854 238.84H49.6554C49.2954 236.44 47.4354 234.94 44.5554 234.94C41.8554 234.94 40.0554 236.53 39.3954 239.08H39.3654L39.4854 235.18H36.1254V250ZM77.1293 242.05C77.1293 237.43 74.4593 234.94 70.2593 234.94C65.5793 234.94 62.6393 237.91 62.6393 242.71C62.6393 247.36 65.5793 250.24 70.2593 250.24C74.3093 250.24 77.0093 248.23 77.1293 244.93H74.0993C73.9493 246.67 72.4793 247.63 70.3193 247.63C67.7993 247.63 66.2093 246.1 66.0293 243.25H77.1293V242.05ZM74.0993 241.21H66.1193C66.5093 238.75 67.9793 237.55 70.2893 237.55C72.7193 237.55 74.0993 238.78 74.0993 241V241.21ZM79.8872 250H83.2472V242.77C83.2472 239.59 84.7772 237.82 87.0572 237.82C89.0672 237.82 90.1772 239.14 90.1772 241.24V250H93.5372V242.65C93.5372 239.56 95.0372 237.82 97.3772 237.82C99.3872 237.82 100.437 239.14 100.437 241.3V250H103.797V240.55C103.797 237.07 101.907 234.94 98.6072 234.94C95.7872 234.94 93.9872 236.44 93.4472 238.84H93.4172C93.0572 236.44 91.1972 234.94 88.3172 234.94C85.6172 234.94 83.8172 236.53 83.1572 239.08H83.1272L83.2472 235.18H79.8872V250ZM114.141 250.24C118.881 250.24 121.911 247.33 121.911 242.62C121.911 237.88 118.881 234.94 114.141 234.94C109.431 234.94 106.401 237.88 106.401 242.62C106.401 247.33 109.431 250.24 114.141 250.24ZM114.141 247.48C111.411 247.48 109.761 245.62 109.761 242.62C109.761 239.59 111.411 237.7 114.141 237.7C116.871 237.7 118.551 239.59 118.551 242.62C118.551 245.62 116.871 247.48 114.141 247.48ZM124.616 250H127.976V243.52C127.976 239.98 129.566 237.82 132.116 237.82C134.096 237.82 135.056 238.99 135.056 241.48C135.056 242.17 134.996 242.92 134.936 243.49H137.996C138.056 242.86 138.146 241.66 138.146 240.73C138.146 237.04 136.376 234.94 133.166 234.94C130.106 234.94 128.576 236.77 127.886 239.44H127.856L127.976 235.18H124.616V250ZM146.077 250.24C149.347 250.24 151.117 248.92 151.597 246.73H151.627C151.627 247.93 151.537 249.28 151.477 250H154.837V240.97C154.837 237.07 152.197 234.94 147.697 234.94C143.467 234.94 140.887 236.71 140.887 239.68C140.887 239.95 140.917 240.34 140.947 240.55H144.037C144.007 240.31 144.007 240.07 144.007 239.98C144.007 238.33 145.297 237.46 147.577 237.46C150.187 237.46 151.477 238.45 151.477 240.67V241.72H145.987C142.027 241.72 140.437 243.49 140.437 245.74C140.437 248.62 142.687 250.24 146.077 250.24ZM146.767 247.72C144.727 247.72 143.527 246.94 143.527 245.59C143.527 244.42 144.367 243.76 146.287 243.76H151.477V244.03C151.477 246.31 149.677 247.72 146.767 247.72ZM157.889 250H161.249V242.83C161.249 239.59 163.109 237.82 166.049 237.82C168.719 237.82 170.039 239.14 170.039 241.48V250H173.399V240.73C173.399 237.07 171.089 234.94 167.339 234.94C163.889 234.94 161.969 236.47 161.159 239.14H161.129L161.249 235.18H157.889V250ZM182.985 250.24C186.015 250.24 187.875 248.74 188.445 246.4H188.505C188.445 247.84 188.415 249.13 188.355 250H191.715V229.21H188.355V237.79H188.325C187.725 236.05 185.985 234.94 183.195 234.94C178.785 234.94 175.995 238.03 175.995 242.5C175.995 247.12 178.695 250.24 182.985 250.24ZM183.675 247.48C181.035 247.48 179.325 245.44 179.325 242.5C179.325 239.68 181.065 237.7 183.735 237.7C186.525 237.7 188.355 239.38 188.355 242.02V242.74C188.355 245.62 186.495 247.48 183.675 247.48ZM202.291 250.24C207.031 250.24 210.061 247.33 210.061 242.62C210.061 237.88 207.031 234.94 202.291 234.94C197.581 234.94 194.551 237.88 194.551 242.62C194.551 247.33 197.581 250.24 202.291 250.24ZM202.291 247.48C199.561 247.48 197.911 245.62 197.911 242.62C197.911 239.59 199.561 237.7 202.291 237.7C205.021 237.7 206.701 239.59 206.701 242.62C206.701 245.62 205.021 247.48 202.291 247.48ZM226.324 250.24C230.554 250.24 233.374 247.93 233.374 243.97H230.344C230.314 246.16 228.844 247.48 226.474 247.48C223.984 247.48 222.424 245.62 222.424 242.59C222.424 239.53 224.014 237.7 226.594 237.7C228.844 237.7 230.284 239.05 230.314 241.27H233.344C233.344 237.34 230.644 234.94 226.504 234.94C222.034 234.94 219.064 237.85 219.064 242.59C219.064 247.33 221.974 250.24 226.324 250.24ZM243.485 250.24C248.225 250.24 251.255 247.33 251.255 242.62C251.255 237.88 248.225 234.94 243.485 234.94C238.775 234.94 235.745 237.88 235.745 242.62C235.745 247.33 238.775 250.24 243.485 250.24ZM243.485 247.48C240.755 247.48 239.105 245.62 239.105 242.62C239.105 239.59 240.755 237.7 243.485 237.7C246.215 237.7 247.895 239.59 247.895 242.62C247.895 245.62 246.215 247.48 243.485 247.48ZM253.96 250H257.32V242.83C257.32 239.59 259.18 237.82 262.12 237.82C264.79 237.82 266.11 239.14 266.11 241.48V250H269.47V240.73C269.47 237.07 267.16 234.94 263.41 234.94C259.96 234.94 258.04 236.47 257.23 239.14H257.2L257.32 235.18H253.96V250ZM284.426 255.94H287.786V235.18H284.456V238H284.426C283.826 236.11 282.056 234.94 279.176 234.94C275.036 234.94 272.066 237.91 272.066 242.47C272.066 247.21 274.766 250.24 279.026 250.24C281.876 250.24 283.856 248.8 284.396 246.58H284.426V255.94ZM279.746 247.48C277.136 247.48 275.396 245.53 275.396 242.47C275.396 239.59 277.196 237.7 279.806 237.7C282.596 237.7 284.426 239.38 284.426 241.99V242.71C284.426 245.62 282.566 247.48 279.746 247.48ZM297.161 250.24C300.461 250.24 302.531 248.68 303.161 245.86H303.191C303.191 247.42 303.131 249.01 303.041 250H306.401V235.18H303.041V241.75C303.041 245.35 301.151 247.36 298.151 247.36C295.721 247.36 294.281 246.04 294.281 243.7V235.18H290.921V244.18C290.921 248.11 293.291 250.24 297.161 250.24ZM309.688 233.44H313.138V230.14H309.688V233.44ZM309.718 250H313.078V235.18H309.718V250ZM322.915 250.24C327.655 250.24 330.175 248.47 330.175 245.47C330.175 244.27 329.605 243.13 328.615 242.59C327.565 241.99 326.365 241.78 324.265 241.57C322.465 241.39 321.055 241.24 320.335 241C319.465 240.7 319.315 240.1 319.315 239.47C319.315 238.21 320.635 237.37 322.975 237.37C325.435 237.37 326.485 238.3 326.515 240.22H329.545C329.545 236.86 327.505 234.94 322.885 234.94C318.865 234.94 315.985 236.74 315.985 239.71C315.985 240.85 316.465 241.93 317.275 242.53C318.175 243.19 319.735 243.49 322.045 243.7C323.695 243.85 325.105 244 325.825 244.27C326.605 244.54 326.815 245.05 326.815 245.62C326.815 246.97 325.615 247.81 322.885 247.81C320.005 247.81 319.015 246.76 319.015 245.05H315.985C315.985 247.96 317.815 250.24 322.915 250.24ZM339.51 250.18C340.74 250.18 341.76 249.97 342.21 249.82V247.15C341.79 247.27 340.83 247.42 339.99 247.42C337.95 247.42 337.23 246.46 337.23 244.54V237.91H342.33V235.18H337.23V231.82H334.44L334.29 234.04C334.2 234.88 333.99 235.18 333.42 235.18H331.53V237.91H333.87V244.72C333.87 247.99 335.46 250.18 339.51 250.18ZM349.655 250.24C352.925 250.24 354.695 248.92 355.175 246.73H355.205C355.205 247.93 355.115 249.28 355.055 250H358.415V240.97C358.415 237.07 355.775 234.94 351.275 234.94C347.045 234.94 344.465 236.71 344.465 239.68C344.465 239.95 344.495 240.34 344.525 240.55H347.615C347.585 240.31 347.585 240.07 347.585 239.98C347.585 238.33 348.875 237.46 351.155 237.46C353.765 237.46 355.055 238.45 355.055 240.67V241.72H349.565C345.605 241.72 344.015 243.49 344.015 245.74C344.015 248.62 346.265 250.24 349.655 250.24ZM350.345 247.72C348.305 247.72 347.105 246.94 347.105 245.59C347.105 244.42 347.945 243.76 349.865 243.76H355.055V244.03C355.055 246.31 353.255 247.72 350.345 247.72ZM367.947 250.24C372.687 250.24 375.207 248.47 375.207 245.47C375.207 244.27 374.637 243.13 373.647 242.59C372.597 241.99 371.397 241.78 369.297 241.57C367.497 241.39 366.087 241.24 365.367 241C364.497 240.7 364.347 240.1 364.347 239.47C364.347 238.21 365.667 237.37 368.007 237.37C370.467 237.37 371.517 238.3 371.547 240.22H374.577C374.577 236.86 372.537 234.94 367.917 234.94C363.897 234.94 361.017 236.74 361.017 239.71C361.017 240.85 361.497 241.93 362.307 242.53C363.207 243.19 364.767 243.49 367.077 243.7C368.727 243.85 370.137 244 370.857 244.27C371.637 244.54 371.847 245.05 371.847 245.62C371.847 246.97 370.647 247.81 367.917 247.81C365.037 247.81 364.047 246.76 364.047 245.05H361.017C361.017 247.96 362.847 250.24 367.947 250.24ZM378.513 250H381.903V246.1H378.513V250Z" fill="white"/>
</svg>
