<svg width="485" height="308" viewBox="0 0 485 308" fill="none" xmlns="http://www.w3.org/2000/svg">
<path d="M12 10.41C6.96 10.41 4.92 12.78 4.92 17.01V20.34H10.74V15.39H8.37V15.27C8.37 13.95 9.18 12.96 12 12.96V10.41ZM21.06 10.41C16.02 10.41 13.98 12.78 13.98 17.01V20.34H19.8V15.39H17.43V15.27C17.43 13.95 18.24 12.96 21.06 12.96V10.41ZM177.093 284.16C182.133 284.16 184.173 281.79 184.173 277.56V274.23H178.353V279.18H180.723V279.3C180.723 280.62 179.913 281.61 177.093 281.61V284.16ZM186.183 284.16C191.223 284.16 193.263 281.79 193.263 277.56V274.23H187.443V279.18H189.813V279.3C189.813 280.62 189.003 281.61 186.183 281.61V284.16Z" fill="#01CA30"/>
<path d="M24.003 30H27.603V21.78H35.703V19.26H27.603V13.26H37.203V10.26H24.003V30ZM43.9938 30.24C47.2638 30.24 49.0338 28.92 49.5138 26.73H49.5438C49.5438 27.93 49.4538 29.28 49.3938 30H52.7538V20.97C52.7538 17.07 50.1138 14.94 45.6138 14.94C41.3838 14.94 38.8038 16.71 38.8038 19.68C38.8038 19.95 38.8338 20.34 38.8638 20.55H41.9538C41.9238 20.31 41.9238 20.07 41.9238 19.98C41.9238 18.33 43.2138 17.46 45.4938 17.46C48.1038 17.46 49.3938 18.45 49.3938 20.67V21.72H43.9038C39.9438 21.72 38.3538 23.49 38.3538 25.74C38.3538 28.62 40.6038 30.24 43.9938 30.24ZM44.6838 27.72C42.6438 27.72 41.4438 26.94 41.4438 25.59C41.4438 24.42 42.2838 23.76 44.2038 23.76H49.3938V24.03C49.3938 26.31 47.5938 27.72 44.6838 27.72ZM55.2961 30H67.8361V27.27H59.6461V27.24L67.8361 17.25V15.18H55.5361V17.91H63.4561V17.97L55.2961 27.9V30ZM84.1537 22.05C84.1537 17.43 81.4837 14.94 77.2837 14.94C72.6037 14.94 69.6637 17.91 69.6637 22.71C69.6637 27.36 72.6037 30.24 77.2837 30.24C81.3337 30.24 84.0337 28.23 84.1537 24.93H81.1237C80.9737 26.67 79.5037 27.63 77.3437 27.63C74.8237 27.63 73.2337 26.1 73.0537 23.25H84.1537V22.05ZM81.1237 21.21H73.1437C73.5337 18.75 75.0037 17.55 77.3137 17.55C79.7437 17.55 81.1237 18.78 81.1237 21V21.21ZM86.9116 30H90.2716V23.52C90.2716 19.98 91.8616 17.82 94.4116 17.82C96.3916 17.82 97.3516 18.99 97.3516 21.48C97.3516 22.17 97.2916 22.92 97.2316 23.49H100.292C100.352 22.86 100.442 21.66 100.442 20.73C100.442 17.04 98.6716 14.94 95.4616 14.94C92.4016 14.94 90.8716 16.77 90.1816 19.44H90.1516L90.2716 15.18H86.9116V30ZM109.992 35.94H113.352V30.12C113.352 29.52 113.292 27.99 113.262 27H113.292C113.922 28.92 115.842 30.24 118.782 30.24C123.042 30.24 125.742 27.12 125.742 22.32C125.742 17.85 123.072 14.94 118.842 14.94C115.902 14.94 113.922 16.38 113.322 18.63H113.292L113.352 15.18H109.992V35.94ZM118.122 27.48C115.242 27.48 113.352 25.86 113.352 23.34V22.56C113.412 19.59 115.272 17.7 118.062 17.7C120.732 17.7 122.382 19.56 122.382 22.41C122.382 25.5 120.702 27.48 118.122 27.48ZM132.945 30.24C136.215 30.24 137.985 28.92 138.465 26.73H138.495C138.495 27.93 138.405 29.28 138.345 30H141.705V20.97C141.705 17.07 139.065 14.94 134.565 14.94C130.335 14.94 127.755 16.71 127.755 19.68C127.755 19.95 127.785 20.34 127.815 20.55H130.905C130.875 20.31 130.875 20.07 130.875 19.98C130.875 18.33 132.165 17.46 134.445 17.46C137.055 17.46 138.345 18.45 138.345 20.67V21.72H132.855C128.895 21.72 127.305 23.49 127.305 25.74C127.305 28.62 129.555 30.24 132.945 30.24ZM133.635 27.72C131.595 27.72 130.395 26.94 130.395 25.59C130.395 24.42 131.235 23.76 133.155 23.76H138.345V24.03C138.345 26.31 136.545 27.72 133.635 27.72ZM144.757 30H148.117V23.52C148.117 19.98 149.707 17.82 152.258 17.82C154.237 17.82 155.197 18.99 155.197 21.48C155.197 22.17 155.137 22.92 155.077 23.49H158.138C158.197 22.86 158.288 21.66 158.288 20.73C158.288 17.04 156.517 14.94 153.308 14.94C150.247 14.94 148.717 16.77 148.027 19.44H147.997L148.117 15.18H144.757V30ZM167.599 30.18C168.829 30.18 169.849 29.97 170.299 29.82V27.15C169.879 27.27 168.919 27.42 168.079 27.42C166.039 27.42 165.319 26.46 165.319 24.54V17.91H170.419V15.18H165.319V11.82H162.529L162.379 14.04C162.289 14.88 162.079 15.18 161.509 15.18H159.619V17.91H161.959V24.72C161.959 27.99 163.549 30.18 167.599 30.18ZM186.387 22.05C186.387 17.43 183.717 14.94 179.517 14.94C174.837 14.94 171.897 17.91 171.897 22.71C171.897 27.36 174.837 30.24 179.517 30.24C183.567 30.24 186.267 28.23 186.387 24.93H183.357C183.207 26.67 181.737 27.63 179.577 27.63C177.057 27.63 175.467 26.1 175.287 23.25H186.387V22.05ZM183.357 21.21H175.377C175.767 18.75 177.237 17.55 179.547 17.55C181.977 17.55 183.357 18.78 183.357 21V21.21ZM202.434 30.24C205.464 30.24 207.324 28.74 207.894 26.4H207.954C207.894 27.84 207.864 29.13 207.804 30H211.164V9.21H207.804V17.79H207.774C207.174 16.05 205.434 14.94 202.644 14.94C198.234 14.94 195.444 18.03 195.444 22.5C195.444 27.12 198.144 30.24 202.434 30.24ZM203.124 27.48C200.484 27.48 198.774 25.44 198.774 22.5C198.774 19.68 200.514 17.7 203.184 17.7C205.974 17.7 207.804 19.38 207.804 22.02V22.74C207.804 25.62 205.944 27.48 203.124 27.48ZM221.74 30.24C226.48 30.24 229.51 27.33 229.51 22.62C229.51 17.88 226.48 14.94 221.74 14.94C217.03 14.94 214 17.88 214 22.62C214 27.33 217.03 30.24 221.74 30.24ZM221.74 27.48C219.01 27.48 217.36 25.62 217.36 22.62C217.36 19.59 219.01 17.7 221.74 17.7C224.47 17.7 226.15 19.59 226.15 22.62C226.15 25.62 224.47 27.48 221.74 27.48ZM245.564 30.18C246.794 30.18 247.814 29.97 248.264 29.82V27.15C247.844 27.27 246.884 27.42 246.044 27.42C244.004 27.42 243.284 26.46 243.284 24.54V17.91H248.384V15.18H243.284V11.82H240.494L240.344 14.04C240.254 14.88 240.044 15.18 239.474 15.18H237.584V17.91H239.924V24.72C239.924 27.99 241.514 30.18 245.564 30.18ZM250.988 13.44H254.438V10.14H250.988V13.44ZM251.018 30H254.378V15.18H251.018V30ZM257.735 30H261.095V22.77C261.095 19.59 262.625 17.82 264.905 17.82C266.915 17.82 268.025 19.14 268.025 21.24V30H271.385V22.65C271.385 19.56 272.885 17.82 275.225 17.82C277.235 17.82 278.285 19.14 278.285 21.3V30H281.645V20.55C281.645 17.07 279.755 14.94 276.455 14.94C273.635 14.94 271.835 16.44 271.295 18.84H271.265C270.905 16.44 269.045 14.94 266.165 14.94C263.465 14.94 261.665 16.53 261.005 19.08H260.975L261.095 15.18H257.735V30ZM298.739 22.05C298.739 17.43 296.069 14.94 291.869 14.94C287.189 14.94 284.249 17.91 284.249 22.71C284.249 27.36 287.189 30.24 291.869 30.24C295.919 30.24 298.619 28.23 298.739 24.93H295.709C295.559 26.67 294.089 27.63 291.929 27.63C289.409 27.63 287.819 26.1 287.639 23.25H298.739V22.05ZM295.709 21.21H287.729C288.119 18.75 289.589 17.55 291.899 17.55C294.329 17.55 295.709 18.78 295.709 21V21.21ZM308.486 30H311.876L311.846 13.26H311.876L322.406 30H326.666V10.26H323.276L323.336 25.26H323.276L313.886 10.26H308.486V30ZM339.472 30.3C343.072 30.3 345.292 28.74 345.892 26.46H345.922C345.892 27.81 345.802 29.22 345.742 30H348.742V20.28H339.142V22.56H345.262V23.01C345.262 25.68 342.922 27.51 339.772 27.51C336.202 27.51 333.292 24.78 333.292 20.37C333.292 15.81 336.112 12.96 339.922 12.96C342.952 12.96 345.352 14.55 345.352 17.34C345.352 17.61 345.352 17.94 345.322 18.3H348.532C348.562 17.94 348.592 17.46 348.592 17.13C348.592 12.63 344.842 9.96 339.862 9.96C334.042 9.96 329.662 14.01 329.662 20.34C329.662 26.52 333.832 30.3 339.472 30.3ZM352.519 30H355.909V26.1H352.519V30ZM369.355 30.3C374.575 30.3 378.295 27.24 378.295 22.77V22.08H375.085V22.56C375.085 25.41 372.775 27.3 369.475 27.3C365.755 27.3 362.875 24.57 362.875 20.16C362.875 15.75 365.635 12.96 369.475 12.96C372.655 12.96 375.025 14.88 375.025 17.91C375.025 18.06 375.025 18.3 374.995 18.57H378.175C378.205 18.21 378.235 17.82 378.235 17.61C378.235 13.05 374.545 9.96 369.355 9.96C363.415 9.96 359.215 13.86 359.215 20.16C359.215 26.43 363.475 30.3 369.355 30.3ZM395.423 30H399.593L391.583 10.26H387.203L379.163 30H382.883L384.563 25.56H393.773L395.423 30ZM385.463 23.16L389.153 13.32H389.213L392.873 23.16H385.463ZM408.856 30.3C415.576 30.3 417.436 27.33 417.436 24.15C417.436 22.32 416.656 20.94 415.306 20.25C414.076 19.59 412.156 19.26 410.086 18.93C408.376 18.69 406.156 18.33 405.286 17.91C404.506 17.55 404.116 16.89 404.116 15.78C404.116 13.98 405.886 12.75 408.856 12.75C411.946 12.75 413.536 14.13 413.536 17.04H416.776C416.776 12.54 414.646 9.96 408.796 9.96C403.636 9.96 400.546 12.48 400.546 16.08C400.546 17.94 401.296 19.29 402.496 20.04C403.576 20.73 405.676 21.18 407.656 21.45C409.366 21.69 411.496 21.96 412.486 22.35C413.416 22.68 413.866 23.31 413.866 24.39C413.866 26.01 412.846 27.51 408.826 27.51C405.046 27.51 403.846 25.77 403.846 23.25H400.606C400.606 26.85 402.316 30.3 408.856 30.3ZM420.465 30H424.065V21.21H434.565V30H438.135V10.26H434.565V18.33H424.065V10.26H420.465V30ZM459.502 9.45H455.992L453.652 13.65H456.292L459.502 9.45ZM462.382 22.05C462.382 17.43 459.712 14.94 455.512 14.94C450.832 14.94 447.892 17.91 447.892 22.71C447.892 27.36 450.832 30.24 455.512 30.24C459.562 30.24 462.262 28.23 462.382 24.93H459.352C459.202 26.67 457.732 27.63 455.572 27.63C453.052 27.63 451.462 26.1 451.282 23.25H462.382V22.05ZM459.352 21.21H451.372C451.762 18.75 453.232 17.55 455.542 17.55C457.972 17.55 459.352 18.78 459.352 21V21.21ZM11.16 74.24C15.9 74.24 18.42 72.47 18.42 69.47C18.42 68.27 17.85 67.13 16.86 66.59C15.81 65.99 14.61 65.78 12.51 65.57C10.71 65.39 9.3 65.24 8.58 65C7.71 64.7 7.56 64.1 7.56 63.47C7.56 62.21 8.88 61.37 11.22 61.37C13.68 61.37 14.73 62.3 14.76 64.22H17.79C17.79 60.86 15.75 58.94 11.13 58.94C7.11 58.94 4.23 60.74 4.23 63.71C4.23 64.85 4.71 65.93 5.52 66.53C6.42 67.19 7.98 67.49 10.29 67.7C11.94 67.85 13.35 68 14.07 68.27C14.85 68.54 15.06 69.05 15.06 69.62C15.06 70.97 13.86 71.81 11.13 71.81C8.25 71.81 7.26 70.76 7.26 69.05H4.23C4.23 71.96 6.06 74.24 11.16 74.24ZM26.3756 74.24C29.6456 74.24 31.4156 72.92 31.8956 70.73H31.9256C31.9256 71.93 31.8356 73.28 31.7756 74H35.1356V64.97C35.1356 61.07 32.4956 58.94 27.9956 58.94C23.7656 58.94 21.1856 60.71 21.1856 63.68C21.1856 63.95 21.2156 64.34 21.2456 64.55H24.3356C24.3056 64.31 24.3056 64.07 24.3056 63.98C24.3056 62.33 25.5956 61.46 27.8756 61.46C30.4856 61.46 31.7756 62.45 31.7756 64.67V65.72H26.2856C22.3256 65.72 20.7356 67.49 20.7356 69.74C20.7356 72.62 22.9856 74.24 26.3756 74.24ZM27.0656 71.72C25.0256 71.72 23.8256 70.94 23.8256 69.59C23.8256 68.42 24.6656 67.76 26.5856 67.76H31.7756V68.03C31.7756 70.31 29.9756 71.72 27.0656 71.72ZM47.2479 74.24C51.4179 74.24 54.0279 71.21 54.0279 66.32C54.0279 61.76 51.4779 58.94 47.2179 58.94C44.2779 58.94 42.2379 60.32 41.6079 62.48H41.5779C41.6079 61.76 41.6379 60.56 41.6379 59.93V53.21H38.2779V74H41.6379C41.5779 73.25 41.5179 71.9 41.5179 70.85H41.5479C42.1479 72.92 44.1879 74.24 47.2479 74.24ZM46.3779 71.48C43.4679 71.48 41.6379 69.89 41.6379 67.31V66.56C41.6379 63.56 43.4979 61.7 46.4379 61.7C49.0779 61.7 50.6679 63.5 50.6679 66.41C50.6679 69.56 49.0179 71.48 46.3779 71.48ZM70.8129 66.05C70.8129 61.43 68.1429 58.94 63.9429 58.94C59.2629 58.94 56.3229 61.91 56.3229 66.71C56.3229 71.36 59.2629 74.24 63.9429 74.24C67.9929 74.24 70.6929 72.23 70.8129 68.93H67.7829C67.6329 70.67 66.1629 71.63 64.0029 71.63C61.4829 71.63 59.8929 70.1 59.7129 67.25H70.8129V66.05ZM67.7829 65.21H59.8029C60.1929 62.75 61.6629 61.55 63.9729 61.55C66.4029 61.55 67.7829 62.78 67.7829 65V65.21ZM73.5708 74H76.9308V67.52C76.9308 63.98 78.5208 61.82 81.0708 61.82C83.0508 61.82 84.0108 62.99 84.0108 65.48C84.0108 66.17 83.9508 66.92 83.8908 67.49H86.9508C87.0108 66.86 87.1008 65.66 87.1008 64.73C87.1008 61.04 85.3308 58.94 82.1208 58.94C79.0608 58.94 77.5308 60.77 76.8408 63.44H76.8108L76.9308 59.18H73.5708V74ZM108.471 79.94H111.831V59.18H108.501V62H108.471C107.871 60.11 106.101 58.94 103.221 58.94C99.0811 58.94 96.1111 61.91 96.1111 66.47C96.1111 71.21 98.8111 74.24 103.071 74.24C105.921 74.24 107.901 72.8 108.441 70.58H108.471V79.94ZM103.791 71.48C101.181 71.48 99.4411 69.53 99.4411 66.47C99.4411 63.59 101.241 61.7 103.851 61.7C106.641 61.7 108.471 63.38 108.471 65.99V66.71C108.471 69.62 106.611 71.48 103.791 71.48ZM121.207 74.24C124.507 74.24 126.577 72.68 127.207 69.86H127.237C127.237 71.42 127.177 73.01 127.087 74H130.447V59.18H127.087V65.75C127.087 69.35 125.197 71.36 122.197 71.36C119.767 71.36 118.327 70.04 118.327 67.7V59.18H114.967V68.18C114.967 72.11 117.337 74.24 121.207 74.24ZM147.683 66.05C147.683 61.43 145.013 58.94 140.813 58.94C136.133 58.94 133.193 61.91 133.193 66.71C133.193 71.36 136.133 74.24 140.813 74.24C144.863 74.24 147.563 72.23 147.683 68.93H144.653C144.503 70.67 143.033 71.63 140.873 71.63C138.353 71.63 136.763 70.1 136.583 67.25H147.683V66.05ZM144.653 65.21H136.673C137.063 62.75 138.533 61.55 140.843 61.55C143.273 61.55 144.653 62.78 144.653 65V65.21ZM162.41 74.24C165.68 74.24 167.45 72.92 167.93 70.73H167.96C167.96 71.93 167.87 73.28 167.81 74H171.17V64.97C171.17 61.07 168.53 58.94 164.03 58.94C159.8 58.94 157.22 60.71 157.22 63.68C157.22 63.95 157.25 64.34 157.28 64.55H160.37C160.34 64.31 160.34 64.07 160.34 63.98C160.34 62.33 161.63 61.46 163.91 61.46C166.52 61.46 167.81 62.45 167.81 64.67V65.72H162.32C158.36 65.72 156.77 67.49 156.77 69.74C156.77 72.62 159.02 74.24 162.41 74.24ZM163.1 71.72C161.06 71.72 159.86 70.94 159.86 69.59C159.86 68.42 160.7 67.76 162.62 67.76H167.81V68.03C167.81 70.31 166.01 71.72 163.1 71.72ZM181.032 74.24C185.262 74.24 188.082 71.93 188.082 67.97H185.052C185.022 70.16 183.552 71.48 181.182 71.48C178.692 71.48 177.132 69.62 177.132 66.59C177.132 63.53 178.722 61.7 181.302 61.7C183.552 61.7 184.992 63.05 185.022 65.27H188.052C188.052 61.34 185.352 58.94 181.212 58.94C176.742 58.94 173.772 61.85 173.772 66.59C173.772 71.33 176.682 74.24 181.032 74.24ZM190.993 57.44H194.443V54.14H190.993V57.44ZM191.023 74H194.383V59.18H191.023V74ZM197.74 74H201.1V66.77C201.1 63.59 202.63 61.82 204.91 61.82C206.92 61.82 208.03 63.14 208.03 65.24V74H211.39V66.65C211.39 63.56 212.89 61.82 215.23 61.82C217.24 61.82 218.29 63.14 218.29 65.3V74H221.65V64.55C221.65 61.07 219.76 58.94 216.46 58.94C213.64 58.94 211.84 60.44 211.3 62.84H211.27C210.91 60.44 209.05 58.94 206.17 58.94C203.47 58.94 201.67 60.53 201.01 63.08H200.98L201.1 59.18H197.74V74ZM229.924 74.24C233.194 74.24 234.964 72.92 235.444 70.73H235.474C235.474 71.93 235.384 73.28 235.324 74H238.684V64.97C238.684 61.07 236.044 58.94 231.544 58.94C227.314 58.94 224.734 60.71 224.734 63.68C224.734 63.95 224.764 64.34 224.794 64.55H227.884C227.854 64.31 227.854 64.07 227.854 63.98C227.854 62.33 229.144 61.46 231.424 61.46C234.034 61.46 235.324 62.45 235.324 64.67V65.72H229.834C225.874 65.72 224.284 67.49 224.284 69.74C224.284 72.62 226.534 74.24 229.924 74.24ZM230.614 71.72C228.574 71.72 227.374 70.94 227.374 69.59C227.374 68.42 228.214 67.76 230.134 67.76H235.324V68.03C235.324 70.31 233.524 71.72 230.614 71.72ZM255.025 74.24C258.055 74.24 259.915 72.74 260.485 70.4H260.545C260.485 71.84 260.455 73.13 260.395 74H263.755V53.21H260.395V61.79H260.365C259.765 60.05 258.025 58.94 255.235 58.94C250.825 58.94 248.035 62.03 248.035 66.5C248.035 71.12 250.735 74.24 255.025 74.24ZM255.715 71.48C253.075 71.48 251.365 69.44 251.365 66.5C251.365 63.68 253.105 61.7 255.775 61.7C258.565 61.7 260.395 63.38 260.395 66.02V66.74C260.395 69.62 258.535 71.48 255.715 71.48ZM281.081 66.05C281.081 61.43 278.411 58.94 274.211 58.94C269.531 58.94 266.591 61.91 266.591 66.71C266.591 71.36 269.531 74.24 274.211 74.24C278.261 74.24 280.961 72.23 281.081 68.93H278.051C277.901 70.67 276.431 71.63 274.271 71.63C271.751 71.63 270.161 70.1 269.981 67.25H281.081V66.05ZM278.051 65.21H270.071C270.461 62.75 271.931 61.55 274.241 61.55C276.671 61.55 278.051 62.78 278.051 65V65.21ZM297.188 74.18C298.418 74.18 299.438 73.97 299.888 73.82V71.15C299.468 71.27 298.508 71.42 297.668 71.42C295.628 71.42 294.908 70.46 294.908 68.54V61.91H300.008V59.18H294.908V55.82H292.118L291.968 58.04C291.878 58.88 291.668 59.18 291.098 59.18H289.208V61.91H291.548V68.72C291.548 71.99 293.138 74.18 297.188 74.18ZM308.613 74.24C311.913 74.24 313.983 72.68 314.613 69.86H314.643C314.643 71.42 314.583 73.01 314.493 74H317.853V59.18H314.493V65.75C314.493 69.35 312.603 71.36 309.603 71.36C307.173 71.36 305.733 70.04 305.733 67.7V59.18H302.373V68.18C302.373 72.11 304.743 74.24 308.613 74.24ZM327.589 74.24C330.619 74.24 332.479 72.74 333.049 70.4H333.109C333.049 71.84 333.019 73.13 332.959 74H336.319V53.21H332.959V61.79H332.929C332.329 60.05 330.589 58.94 327.799 58.94C323.389 58.94 320.599 62.03 320.599 66.5C320.599 71.12 323.299 74.24 327.589 74.24ZM328.279 71.48C325.639 71.48 323.929 69.44 323.929 66.5C323.929 63.68 325.669 61.7 328.339 61.7C331.129 61.7 332.959 63.38 332.959 66.02V66.74C332.959 69.62 331.099 71.48 328.279 71.48ZM346.895 74.24C351.635 74.24 354.665 71.33 354.665 66.62C354.665 61.88 351.635 58.94 346.895 58.94C342.185 58.94 339.155 61.88 339.155 66.62C339.155 71.33 342.185 74.24 346.895 74.24ZM346.895 71.48C344.165 71.48 342.515 69.62 342.515 66.62C342.515 63.59 344.165 61.7 346.895 61.7C349.625 61.7 351.305 63.59 351.305 66.62C351.305 69.62 349.625 71.48 346.895 71.48ZM370.598 74.24C375.338 74.24 377.858 72.47 377.858 69.47C377.858 68.27 377.288 67.13 376.298 66.59C375.248 65.99 374.048 65.78 371.948 65.57C370.148 65.39 368.738 65.24 368.018 65C367.148 64.7 366.998 64.1 366.998 63.47C366.998 62.21 368.318 61.37 370.658 61.37C373.118 61.37 374.168 62.3 374.198 64.22H377.228C377.228 60.86 375.188 58.94 370.568 58.94C366.548 58.94 363.668 60.74 363.668 63.71C363.668 64.85 364.148 65.93 364.958 66.53C365.858 67.19 367.418 67.49 369.728 67.7C371.378 67.85 372.788 68 373.508 68.27C374.288 68.54 374.498 69.05 374.498 69.62C374.498 70.97 373.298 71.81 370.568 71.81C367.688 71.81 366.698 70.76 366.698 69.05H363.668C363.668 71.96 365.498 74.24 370.598 74.24ZM387.884 74.24C392.624 74.24 395.654 71.33 395.654 66.62C395.654 61.88 392.624 58.94 387.884 58.94C383.174 58.94 380.144 61.88 380.144 66.62C380.144 71.33 383.174 74.24 387.884 74.24ZM387.884 71.48C385.154 71.48 383.504 69.62 383.504 66.62C383.504 63.59 385.154 61.7 387.884 61.7C390.614 61.7 392.294 63.59 392.294 66.62C392.294 69.62 390.614 71.48 387.884 71.48ZM398.359 74H401.719V66.77C401.719 63.59 403.249 61.82 405.529 61.82C407.539 61.82 408.649 63.14 408.649 65.24V74H412.009V66.65C412.009 63.56 413.509 61.82 415.849 61.82C417.859 61.82 418.909 63.14 418.909 65.3V74H422.269V64.55C422.269 61.07 420.379 58.94 417.079 58.94C414.259 58.94 412.459 60.44 411.919 62.84H411.889C411.529 60.44 409.669 58.94 406.789 58.94C404.089 58.94 402.289 60.53 401.629 63.08H401.599L401.719 59.18H398.359V74ZM432.613 74.24C437.353 74.24 440.383 71.33 440.383 66.62C440.383 61.88 437.353 58.94 432.613 58.94C427.903 58.94 424.873 61.88 424.873 66.62C424.873 71.33 427.903 74.24 432.613 74.24ZM432.613 71.48C429.883 71.48 428.233 69.62 428.233 66.62C428.233 63.59 429.883 61.7 432.613 61.7C435.343 61.7 437.023 63.59 437.023 66.62C437.023 69.62 435.343 71.48 432.613 71.48ZM449.392 74.24C454.132 74.24 456.652 72.47 456.652 69.47C456.652 68.27 456.082 67.13 455.092 66.59C454.042 65.99 452.842 65.78 450.742 65.57C448.942 65.39 447.532 65.24 446.812 65C445.942 64.7 445.792 64.1 445.792 63.47C445.792 62.21 447.112 61.37 449.452 61.37C451.912 61.37 452.962 62.3 452.992 64.22H456.022C456.022 60.86 453.982 58.94 449.362 58.94C445.342 58.94 442.462 60.74 442.462 63.71C442.462 64.85 442.942 65.93 443.752 66.53C444.652 67.19 446.212 67.49 448.522 67.7C450.172 67.85 451.582 68 452.302 68.27C453.082 68.54 453.292 69.05 453.292 69.62C453.292 70.97 452.092 71.81 449.362 71.81C446.482 71.81 445.492 70.76 445.492 69.05H442.462C442.462 71.96 444.292 74.24 449.392 74.24ZM10.77 118.24C14.07 118.24 16.14 116.68 16.77 113.86H16.8C16.8 115.42 16.74 117.01 16.65 118H20.01V103.18H16.65V109.75C16.65 113.35 14.76 115.36 11.76 115.36C9.33 115.36 7.89 114.04 7.89 111.7V103.18H4.53V112.18C4.53 116.11 6.9 118.24 10.77 118.24ZM23.2064 118H26.5664V110.77C26.5664 107.59 28.0964 105.82 30.3764 105.82C32.3864 105.82 33.4964 107.14 33.4964 109.24V118H36.8564V110.65C36.8564 107.56 38.3564 105.82 40.6964 105.82C42.7064 105.82 43.7564 107.14 43.7564 109.3V118H47.1164V108.55C47.1164 105.07 45.2264 102.94 41.9264 102.94C39.1064 102.94 37.3064 104.44 36.7664 106.84H36.7364C36.3764 104.44 34.5164 102.94 31.6364 102.94C28.9364 102.94 27.1364 104.53 26.4764 107.08H26.4464L26.5664 103.18H23.2064V118ZM55.3903 118.24C58.6603 118.24 60.4303 116.92 60.9103 114.73H60.9403C60.9403 115.93 60.8503 117.28 60.7903 118H64.1503V108.97C64.1503 105.07 61.5103 102.94 57.0103 102.94C52.7803 102.94 50.2003 104.71 50.2003 107.68C50.2003 107.95 50.2303 108.34 50.2603 108.55H53.3503C53.3203 108.31 53.3203 108.07 53.3203 107.98C53.3203 106.33 54.6103 105.46 56.8903 105.46C59.5003 105.46 60.7903 106.45 60.7903 108.67V109.72H55.3003C51.3403 109.72 49.7503 111.49 49.7503 113.74C49.7503 116.62 52.0003 118.24 55.3903 118.24ZM56.0803 115.72C54.0403 115.72 52.8403 114.94 52.8403 113.59C52.8403 112.42 53.6803 111.76 55.6003 111.76H60.7903V112.03C60.7903 114.31 58.9903 115.72 56.0803 115.72ZM74.9416 118H78.3016V105.91H83.4616V103.18H78.3016V101.86C78.3016 100.24 79.2316 99.34 80.9416 99.34C81.9616 99.34 82.7416 99.55 83.2216 99.7V97.03C82.7416 96.85 81.6616 96.61 80.3416 96.61C77.1316 96.61 74.9416 98.41 74.9416 101.71V103.18H72.5716V105.91H74.9416V118ZM90.1395 118.24C93.4095 118.24 95.1795 116.92 95.6595 114.73H95.6895C95.6895 115.93 95.5995 117.28 95.5395 118H98.8995V108.97C98.8995 105.07 96.2595 102.94 91.7595 102.94C87.5295 102.94 84.9495 104.71 84.9495 107.68C84.9495 107.95 84.9795 108.34 85.0095 108.55H88.0995C88.0695 108.31 88.0695 108.07 88.0695 107.98C88.0695 106.33 89.3595 105.46 91.6395 105.46C94.2495 105.46 95.5395 106.45 95.5395 108.67V109.72H90.0495C86.0895 109.72 84.4995 111.49 84.4995 113.74C84.4995 116.62 86.7495 118.24 90.1395 118.24ZM90.8295 115.72C88.7895 115.72 87.5895 114.94 87.5895 113.59C87.5895 112.42 88.4295 111.76 90.3495 111.76H95.5395V112.03C95.5395 114.31 93.7395 115.72 90.8295 115.72ZM101.952 118H105.312V110.77C105.312 107.59 106.842 105.82 109.122 105.82C111.132 105.82 112.242 107.14 112.242 109.24V118H115.602V110.65C115.602 107.56 117.102 105.82 119.442 105.82C121.452 105.82 122.502 107.14 122.502 109.3V118H125.862V108.55C125.862 105.07 123.972 102.94 120.672 102.94C117.852 102.94 116.052 104.44 115.512 106.84H115.482C115.122 104.44 113.262 102.94 110.382 102.94C107.682 102.94 105.882 104.53 105.222 107.08H105.192L105.312 103.18H101.952V118ZM129.066 101.65H131.706L134.916 97.45H131.406L129.066 101.65ZM129.036 118H132.396V103.18H129.036V118ZM136.048 118H139.408V97.21H136.048V118ZM142.826 101.44H146.276V98.14H142.826V101.44ZM142.856 118H146.216V103.18H142.856V118ZM154.793 118.24C158.063 118.24 159.833 116.92 160.313 114.73H160.343C160.343 115.93 160.253 117.28 160.193 118H163.553V108.97C163.553 105.07 160.913 102.94 156.413 102.94C152.183 102.94 149.603 104.71 149.603 107.68C149.603 107.95 149.633 108.34 149.663 108.55H152.753C152.723 108.31 152.723 108.07 152.723 107.98C152.723 106.33 154.013 105.46 156.293 105.46C158.903 105.46 160.193 106.45 160.193 108.67V109.72H154.703C150.743 109.72 149.153 111.49 149.153 113.74C149.153 116.62 151.403 118.24 154.793 118.24ZM155.483 115.72C153.443 115.72 152.243 114.94 152.243 113.59C152.243 112.42 153.083 111.76 155.003 111.76H160.193V112.03C160.193 114.31 158.393 115.72 155.483 115.72ZM166.605 122.14C169.215 121.93 170.535 120.46 170.535 116.92V114.1H167.145V118H168.555V118.09C168.555 119.56 167.985 120.28 166.605 120.4V122.14ZM187.61 118.24C190.64 118.24 192.5 116.74 193.07 114.4H193.13C193.07 115.84 193.04 117.13 192.98 118H196.34V97.21H192.98V105.79H192.95C192.35 104.05 190.61 102.94 187.82 102.94C183.41 102.94 180.62 106.03 180.62 110.5C180.62 115.12 183.32 118.24 187.61 118.24ZM188.3 115.48C185.66 115.48 183.95 113.44 183.95 110.5C183.95 107.68 185.69 105.7 188.36 105.7C191.15 105.7 192.98 107.38 192.98 110.02V110.74C192.98 113.62 191.12 115.48 188.3 115.48ZM199.716 101.44H203.166V98.14H199.716V101.44ZM199.746 118H203.106V103.18H199.746V118ZM212.943 118.24C217.683 118.24 220.203 116.47 220.203 113.47C220.203 112.27 219.633 111.13 218.643 110.59C217.593 109.99 216.393 109.78 214.293 109.57C212.493 109.39 211.083 109.24 210.363 109C209.493 108.7 209.343 108.1 209.343 107.47C209.343 106.21 210.663 105.37 213.003 105.37C215.463 105.37 216.513 106.3 216.543 108.22H219.573C219.573 104.86 217.533 102.94 212.913 102.94C208.893 102.94 206.013 104.74 206.013 107.71C206.013 108.85 206.493 109.93 207.303 110.53C208.203 111.19 209.763 111.49 212.073 111.7C213.723 111.85 215.133 112 215.853 112.27C216.633 112.54 216.843 113.05 216.843 113.62C216.843 114.97 215.643 115.81 212.913 115.81C210.033 115.81 209.043 114.76 209.043 113.05H206.013C206.013 115.96 207.843 118.24 212.943 118.24ZM223.028 123.94H226.388V118.12C226.388 117.52 226.328 115.99 226.298 115H226.328C226.958 116.92 228.878 118.24 231.818 118.24C236.078 118.24 238.778 115.12 238.778 110.32C238.778 105.85 236.108 102.94 231.878 102.94C228.938 102.94 226.958 104.38 226.358 106.63H226.328L226.388 103.18H223.028V123.94ZM231.158 115.48C228.278 115.48 226.388 113.86 226.388 111.34V110.56C226.448 107.59 228.308 105.7 231.098 105.7C233.768 105.7 235.418 107.56 235.418 110.41C235.418 113.5 233.738 115.48 231.158 115.48ZM248.813 118.24C253.553 118.24 256.583 115.33 256.583 110.62C256.583 105.88 253.553 102.94 248.813 102.94C244.103 102.94 241.073 105.88 241.073 110.62C241.073 115.33 244.103 118.24 248.813 118.24ZM248.813 115.48C246.083 115.48 244.433 113.62 244.433 110.62C244.433 107.59 246.083 105.7 248.813 105.7C251.543 105.7 253.223 107.59 253.223 110.62C253.223 113.62 251.543 115.48 248.813 115.48ZM265.592 118.24C270.332 118.24 272.852 116.47 272.852 113.47C272.852 112.27 272.282 111.13 271.292 110.59C270.242 109.99 269.042 109.78 266.942 109.57C265.142 109.39 263.732 109.24 263.012 109C262.142 108.7 261.992 108.1 261.992 107.47C261.992 106.21 263.312 105.37 265.652 105.37C268.112 105.37 269.162 106.3 269.192 108.22H272.222C272.222 104.86 270.182 102.94 265.562 102.94C261.542 102.94 258.662 104.74 258.662 107.71C258.662 108.85 259.142 109.93 259.952 110.53C260.852 111.19 262.412 111.49 264.722 111.7C266.372 111.85 267.782 112 268.502 112.27C269.282 112.54 269.492 113.05 269.492 113.62C269.492 114.97 268.292 115.81 265.562 115.81C262.682 115.81 261.692 114.76 261.692 113.05H258.662C258.662 115.96 260.492 118.24 265.592 118.24ZM282.188 118.18C283.418 118.18 284.438 117.97 284.888 117.82V115.15C284.468 115.27 283.508 115.42 282.668 115.42C280.628 115.42 279.908 114.46 279.908 112.54V105.91H285.008V103.18H279.908V99.82H277.118L276.968 102.04C276.878 102.88 276.668 103.18 276.098 103.18H274.208V105.91H276.548V112.72C276.548 115.99 278.138 118.18 282.188 118.18ZM294.227 118.24C298.967 118.24 301.997 115.33 301.997 110.62C301.997 105.88 298.967 102.94 294.227 102.94C289.517 102.94 286.487 105.88 286.487 110.62C286.487 115.33 289.517 118.24 294.227 118.24ZM294.227 115.48C291.497 115.48 289.847 113.62 289.847 110.62C289.847 107.59 291.497 105.7 294.227 105.7C296.957 105.7 298.637 107.59 298.637 110.62C298.637 113.62 296.957 115.48 294.227 115.48ZM311.006 118.24C315.746 118.24 318.266 116.47 318.266 113.47C318.266 112.27 317.696 111.13 316.706 110.59C315.656 109.99 314.456 109.78 312.356 109.57C310.556 109.39 309.146 109.24 308.426 109C307.556 108.7 307.406 108.1 307.406 107.47C307.406 106.21 308.726 105.37 311.066 105.37C313.526 105.37 314.576 106.3 314.606 108.22H317.636C317.636 104.86 315.596 102.94 310.976 102.94C306.956 102.94 304.076 104.74 304.076 107.71C304.076 108.85 304.556 109.93 305.366 110.53C306.266 111.19 307.826 111.49 310.136 111.7C311.786 111.85 313.196 112 313.916 112.27C314.696 112.54 314.906 113.05 314.906 113.62C314.906 114.97 313.706 115.81 310.976 115.81C308.096 115.81 307.106 114.76 307.106 113.05H304.076C304.076 115.96 305.906 118.24 311.006 118.24ZM332.97 118.24C336.24 118.24 338.01 116.92 338.49 114.73H338.52C338.52 115.93 338.43 117.28 338.37 118H341.73V108.97C341.73 105.07 339.09 102.94 334.59 102.94C330.36 102.94 327.78 104.71 327.78 107.68C327.78 107.95 327.81 108.34 327.84 108.55H330.93C330.9 108.31 330.9 108.07 330.9 107.98C330.9 106.33 332.19 105.46 334.47 105.46C337.08 105.46 338.37 106.45 338.37 108.67V109.72H332.88C328.92 109.72 327.33 111.49 327.33 113.74C327.33 116.62 329.58 118.24 332.97 118.24ZM333.66 115.72C331.62 115.72 330.42 114.94 330.42 113.59C330.42 112.42 331.26 111.76 333.18 111.76H338.37V112.03C338.37 114.31 336.57 115.72 333.66 115.72ZM351.532 118H354.892V110.77C354.892 107.59 356.422 105.82 358.702 105.82C360.712 105.82 361.822 107.14 361.822 109.24V118H365.182V110.65C365.182 107.56 366.682 105.82 369.022 105.82C371.032 105.82 372.082 107.14 372.082 109.3V118H375.442V108.55C375.442 105.07 373.552 102.94 370.252 102.94C367.432 102.94 365.632 104.44 365.092 106.84H365.062C364.702 104.44 362.842 102.94 359.962 102.94C357.262 102.94 355.462 104.53 354.802 107.08H354.772L354.892 103.18H351.532V118ZM384.585 118.24C387.885 118.24 389.955 116.68 390.585 113.86H390.615C390.615 115.42 390.555 117.01 390.465 118H393.825V103.18H390.465V109.75C390.465 113.35 388.575 115.36 385.575 115.36C383.145 115.36 381.705 114.04 381.705 111.7V103.18H378.345V112.18C378.345 116.11 380.715 118.24 384.585 118.24ZM403.562 118.24C406.592 118.24 408.452 116.74 409.022 114.4H409.082C409.022 115.84 408.992 117.13 408.932 118H412.292V97.21H408.932V105.79H408.902C408.302 104.05 406.562 102.94 403.772 102.94C399.362 102.94 396.572 106.03 396.572 110.5C396.572 115.12 399.272 118.24 403.562 118.24ZM404.252 115.48C401.612 115.48 399.902 113.44 399.902 110.5C399.902 107.68 401.642 105.7 404.312 105.7C407.102 105.7 408.932 107.38 408.932 110.02V110.74C408.932 113.62 407.072 115.48 404.252 115.48ZM420.798 118.24C424.068 118.24 425.838 116.92 426.318 114.73H426.348C426.348 115.93 426.258 117.28 426.198 118H429.558V108.97C429.558 105.07 426.918 102.94 422.418 102.94C418.188 102.94 415.608 104.71 415.608 107.68C415.608 107.95 415.638 108.34 415.668 108.55H418.758C418.728 108.31 418.728 108.07 418.728 107.98C418.728 106.33 420.018 105.46 422.298 105.46C424.908 105.46 426.198 106.45 426.198 108.67V109.72H420.708C416.748 109.72 415.158 111.49 415.158 113.74C415.158 116.62 417.408 118.24 420.798 118.24ZM421.488 115.72C419.448 115.72 418.248 114.94 418.248 113.59C418.248 112.42 419.088 111.76 421.008 111.76H426.198V112.03C426.198 114.31 424.398 115.72 421.488 115.72ZM432.61 118H435.97V111.52C435.97 107.98 437.56 105.82 440.11 105.82C442.09 105.82 443.05 106.99 443.05 109.48C443.05 110.17 442.99 110.92 442.93 111.49H445.99C446.05 110.86 446.14 109.66 446.14 108.73C446.14 105.04 444.37 102.94 441.16 102.94C438.1 102.94 436.57 104.77 435.88 107.44H435.85L435.97 103.18H432.61V118ZM462.89 118.24C467.63 118.24 470.66 115.33 470.66 110.62C470.66 105.88 467.63 102.94 462.89 102.94C458.18 102.94 455.15 105.88 455.15 110.62C455.15 115.33 458.18 118.24 462.89 118.24ZM462.89 115.48C460.16 115.48 458.51 113.62 458.51 110.62C458.51 107.59 460.16 105.7 462.89 105.7C465.62 105.7 467.3 107.59 467.3 110.62C467.3 113.62 465.62 115.48 462.89 115.48ZM4.68 162H8.04V155.52C8.04 151.98 9.63 149.82 12.18 149.82C14.16 149.82 15.12 150.99 15.12 153.48C15.12 154.17 15.06 154.92 15 155.49H18.06C18.12 154.86 18.21 153.66 18.21 152.73C18.21 149.04 16.44 146.94 13.23 146.94C10.17 146.94 8.64 148.77 7.95 151.44H7.92L8.04 147.18H4.68V162ZM34.9613 154.05C34.9613 149.43 32.2913 146.94 28.0912 146.94C23.4112 146.94 20.4712 149.91 20.4712 154.71C20.4712 159.36 23.4112 162.24 28.0912 162.24C32.1412 162.24 34.8413 160.23 34.9613 156.93H31.9312C31.7812 158.67 30.3112 159.63 28.1512 159.63C25.6312 159.63 24.0412 158.1 23.8612 155.25H34.9613V154.05ZM31.9312 153.21H23.9512C24.3412 150.75 25.8112 149.55 28.1212 149.55C30.5512 149.55 31.9312 150.78 31.9312 153V153.21ZM37.8091 162H41.1691V141.21H37.8091V162ZM49.7175 162.24C52.9875 162.24 54.7575 160.92 55.2375 158.73H55.2675C55.2675 159.93 55.1775 161.28 55.1175 162H58.4775V152.97C58.4775 149.07 55.8375 146.94 51.3375 146.94C47.1075 146.94 44.5275 148.71 44.5275 151.68C44.5275 151.95 44.5575 152.34 44.5875 152.55H47.6775C47.6475 152.31 47.6475 152.07 47.6475 151.98C47.6475 150.33 48.9375 149.46 51.2175 149.46C53.8275 149.46 55.1175 150.45 55.1175 152.67V153.72H49.6275C45.6675 153.72 44.0775 155.49 44.0775 157.74C44.0775 160.62 46.3275 162.24 49.7175 162.24ZM50.4075 159.72C48.3675 159.72 47.1675 158.94 47.1675 157.59C47.1675 156.42 48.0075 155.76 49.9275 155.76H55.1175V156.03C55.1175 158.31 53.3175 159.72 50.4075 159.72ZM68.3398 162.24C72.5698 162.24 75.3898 159.93 75.3898 155.97H72.3598C72.3298 158.16 70.8598 159.48 68.4898 159.48C65.9998 159.48 64.4398 157.62 64.4398 154.59C64.4398 151.53 66.0298 149.7 68.6098 149.7C70.8598 149.7 72.2998 151.05 72.3298 153.27H75.3598C75.3598 149.34 72.6598 146.94 68.5198 146.94C64.0498 146.94 61.0798 149.85 61.0798 154.59C61.0798 159.33 63.9898 162.24 68.3398 162.24ZM78.3005 145.44H81.7505V142.14H78.3005V145.44ZM78.3305 162H81.6905V147.18H78.3305V162ZM92.3374 162.24C97.0774 162.24 100.107 159.33 100.107 154.62C100.107 149.88 97.0774 146.94 92.3374 146.94C87.6274 146.94 84.5974 149.88 84.5974 154.62C84.5974 159.33 87.6274 162.24 92.3374 162.24ZM92.3374 159.48C89.6074 159.48 87.9574 157.62 87.9574 154.62C87.9574 151.59 89.6074 149.7 92.3374 149.7C95.0674 149.7 96.7474 151.59 96.7474 154.62C96.7474 157.62 95.0674 159.48 92.3374 159.48ZM102.812 162H106.172V154.83C106.172 151.59 108.032 149.82 110.972 149.82C113.642 149.82 114.962 151.14 114.962 153.48V162H118.322V152.73C118.322 149.07 116.012 146.94 112.262 146.94C108.812 146.94 106.892 148.47 106.082 151.14H106.052L106.172 147.18H102.812V162ZM126.588 162.24C129.858 162.24 131.628 160.92 132.108 158.73H132.138C132.138 159.93 132.048 161.28 131.988 162H135.348V152.97C135.348 149.07 132.708 146.94 128.208 146.94C123.978 146.94 121.398 148.71 121.398 151.68C121.398 151.95 121.428 152.34 121.458 152.55H124.548C124.518 152.31 124.518 152.07 124.518 151.98C124.518 150.33 125.808 149.46 128.088 149.46C130.698 149.46 131.988 150.45 131.988 152.67V153.72H126.498C122.538 153.72 120.948 155.49 120.948 157.74C120.948 160.62 123.198 162.24 126.588 162.24ZM127.278 159.72C125.238 159.72 124.038 158.94 124.038 157.59C124.038 156.42 124.878 155.76 126.798 155.76H131.988V156.03C131.988 158.31 130.188 159.72 127.278 159.72ZM138.4 162H141.76V154.77C141.76 151.59 143.29 149.82 145.57 149.82C147.58 149.82 148.69 151.14 148.69 153.24V162H152.05V154.65C152.05 151.56 153.55 149.82 155.89 149.82C157.9 149.82 158.95 151.14 158.95 153.3V162H162.31V152.55C162.31 149.07 160.42 146.94 157.12 146.94C154.3 146.94 152.5 148.44 151.96 150.84H151.93C151.57 148.44 149.71 146.94 146.83 146.94C144.13 146.94 142.33 148.53 141.67 151.08H141.64L141.76 147.18H138.4V162ZM179.404 154.05C179.404 149.43 176.734 146.94 172.534 146.94C167.854 146.94 164.914 149.91 164.914 154.71C164.914 159.36 167.854 162.24 172.534 162.24C176.584 162.24 179.284 160.23 179.404 156.93H176.374C176.224 158.67 174.754 159.63 172.594 159.63C170.074 159.63 168.484 158.1 168.304 155.25H179.404V154.05ZM176.374 153.21H168.394C168.784 150.75 170.254 149.55 172.564 149.55C174.994 149.55 176.374 150.78 176.374 153V153.21ZM182.162 162H185.522V154.83C185.522 151.59 187.382 149.82 190.322 149.82C192.992 149.82 194.312 151.14 194.312 153.48V162H197.672V152.73C197.672 149.07 195.362 146.94 191.612 146.94C188.162 146.94 186.242 148.47 185.432 151.14H185.402L185.522 147.18H182.162V162ZM207.318 162.18C208.548 162.18 209.568 161.97 210.018 161.82V159.15C209.598 159.27 208.638 159.42 207.798 159.42C205.758 159.42 205.038 158.46 205.038 156.54V149.91H210.138V147.18H205.038V143.82H202.248L202.098 146.04C202.008 146.88 201.798 147.18 201.228 147.18H199.338V149.91H201.678V156.72C201.678 159.99 203.268 162.18 207.318 162.18ZM219.356 162.24C224.096 162.24 227.126 159.33 227.126 154.62C227.126 149.88 224.096 146.94 219.356 146.94C214.646 146.94 211.616 149.88 211.616 154.62C211.616 159.33 214.646 162.24 219.356 162.24ZM219.356 159.48C216.626 159.48 214.976 157.62 214.976 154.62C214.976 151.59 216.626 149.7 219.356 149.7C222.086 149.7 223.766 151.59 223.766 154.62C223.766 157.62 222.086 159.48 219.356 159.48ZM245.64 162.24C249.81 162.24 252.42 159.21 252.42 154.32C252.42 149.76 249.87 146.94 245.61 146.94C242.67 146.94 240.63 148.32 240 150.48H239.97C240 149.76 240.03 148.56 240.03 147.93V141.21H236.67V162H240.03C239.97 161.25 239.91 159.9 239.91 158.85H239.94C240.54 160.92 242.58 162.24 245.64 162.24ZM244.77 159.48C241.86 159.48 240.03 157.89 240.03 155.31V154.56C240.03 151.56 241.89 149.7 244.83 149.7C247.47 149.7 249.06 151.5 249.06 154.41C249.06 157.56 247.41 159.48 244.77 159.48ZM259.623 162.24C262.893 162.24 264.663 160.92 265.143 158.73H265.173C265.173 159.93 265.083 161.28 265.023 162H268.383V152.97C268.383 149.07 265.743 146.94 261.243 146.94C257.013 146.94 254.433 148.71 254.433 151.68C254.433 151.95 254.463 152.34 254.493 152.55H257.583C257.553 152.31 257.553 152.07 257.553 151.98C257.553 150.33 258.843 149.46 261.123 149.46C263.733 149.46 265.023 150.45 265.023 152.67V153.72H259.533C255.573 153.72 253.983 155.49 253.983 157.74C253.983 160.62 256.233 162.24 259.623 162.24ZM260.313 159.72C258.273 159.72 257.073 158.94 257.073 157.59C257.073 156.42 257.913 155.76 259.833 155.76H265.023V156.03C265.023 158.31 263.223 159.72 260.313 159.72ZM271.436 162H274.796V154.83C274.796 151.59 276.656 149.82 279.596 149.82C282.266 149.82 283.586 151.14 283.586 153.48V162H286.946V152.73C286.946 149.07 284.636 146.94 280.886 146.94C277.436 146.94 275.516 148.47 274.706 151.14H274.676L274.796 147.18H271.436V162ZM296.801 162.24C301.031 162.24 303.851 159.93 303.851 155.97H300.821C300.791 158.16 299.321 159.48 296.951 159.48C294.461 159.48 292.901 157.62 292.901 154.59C292.901 151.53 294.491 149.7 297.071 149.7C299.321 149.7 300.761 151.05 300.791 153.27H303.821C303.821 149.34 301.121 146.94 296.981 146.94C292.511 146.94 289.541 149.85 289.541 154.59C289.541 159.33 292.451 162.24 296.801 162.24ZM311.13 145.65H313.77L316.98 141.45H313.47L311.13 145.65ZM311.13 162.24C314.4 162.24 316.17 160.92 316.65 158.73H316.68C316.68 159.93 316.59 161.28 316.53 162H319.89V152.97C319.89 149.07 317.25 146.94 312.75 146.94C308.52 146.94 305.94 148.71 305.94 151.68C305.94 151.95 305.97 152.34 306 152.55H309.09C309.06 152.31 309.06 152.07 309.06 151.98C309.06 150.33 310.35 149.46 312.63 149.46C315.24 149.46 316.53 150.45 316.53 152.67V153.72H311.04C307.08 153.72 305.49 155.49 305.49 157.74C305.49 160.62 307.74 162.24 311.13 162.24ZM311.82 159.72C309.78 159.72 308.58 158.94 308.58 157.59C308.58 156.42 309.42 155.76 311.34 155.76H316.53V156.03C316.53 158.31 314.73 159.72 311.82 159.72ZM322.943 162H326.303V155.52C326.303 151.98 327.893 149.82 330.443 149.82C332.423 149.82 333.383 150.99 333.383 153.48C333.383 154.17 333.323 154.92 333.263 155.49H336.323C336.383 154.86 336.473 153.66 336.473 152.73C336.473 149.04 334.703 146.94 331.493 146.94C328.433 146.94 326.903 148.77 326.213 151.44H326.183L326.303 147.18H322.943V162ZM339.274 145.44H342.724V142.14H339.274V145.44ZM339.304 162H342.664V147.18H339.304V162ZM353.311 162.24C358.051 162.24 361.081 159.33 361.081 154.62C361.081 149.88 358.051 146.94 353.311 146.94C348.601 146.94 345.571 149.88 345.571 154.62C345.571 159.33 348.601 162.24 353.311 162.24ZM353.311 159.48C350.581 159.48 348.931 157.62 348.931 154.62C348.931 151.59 350.581 149.7 353.311 149.7C356.041 149.7 357.721 151.59 357.721 154.62C357.721 157.62 356.041 159.48 353.311 159.48ZM370.624 167.94H373.984V162.12C373.984 161.52 373.924 159.99 373.894 159H373.924C374.554 160.92 376.474 162.24 379.414 162.24C383.674 162.24 386.374 159.12 386.374 154.32C386.374 149.85 383.704 146.94 379.474 146.94C376.534 146.94 374.554 148.38 373.954 150.63H373.924L373.984 147.18H370.624V167.94ZM378.754 159.48C375.874 159.48 373.984 157.86 373.984 155.34V154.56C374.044 151.59 375.904 149.7 378.694 149.7C381.364 149.7 383.014 151.56 383.014 154.41C383.014 157.5 381.334 159.48 378.754 159.48ZM393.578 162.24C396.848 162.24 398.618 160.92 399.098 158.73H399.128C399.128 159.93 399.038 161.28 398.978 162H402.338V152.97C402.338 149.07 399.698 146.94 395.198 146.94C390.968 146.94 388.388 148.71 388.388 151.68C388.388 151.95 388.418 152.34 388.448 152.55H391.538C391.508 152.31 391.508 152.07 391.508 151.98C391.508 150.33 392.798 149.46 395.078 149.46C397.688 149.46 398.978 150.45 398.978 152.67V153.72H393.488C389.528 153.72 387.938 155.49 387.938 157.74C387.938 160.62 390.188 162.24 393.578 162.24ZM394.268 159.72C392.228 159.72 391.028 158.94 391.028 157.59C391.028 156.42 391.868 155.76 393.788 155.76H398.978V156.03C398.978 158.31 397.178 159.72 394.268 159.72ZM405.39 162H408.75V155.52C408.75 151.98 410.34 149.82 412.89 149.82C414.87 149.82 415.83 150.99 415.83 153.48C415.83 154.17 415.77 154.92 415.71 155.49H418.77C418.83 154.86 418.92 153.66 418.92 152.73C418.92 149.04 417.15 146.94 413.94 146.94C410.88 146.94 409.35 148.77 408.66 151.44H408.63L408.75 147.18H405.39V162ZM426.851 162.24C430.121 162.24 431.891 160.92 432.371 158.73H432.401C432.401 159.93 432.311 161.28 432.251 162H435.611V152.97C435.611 149.07 432.971 146.94 428.471 146.94C424.241 146.94 421.661 148.71 421.661 151.68C421.661 151.95 421.691 152.34 421.721 152.55H424.811C424.781 152.31 424.781 152.07 424.781 151.98C424.781 150.33 426.071 149.46 428.351 149.46C430.961 149.46 432.251 150.45 432.251 152.67V153.72H426.761C422.801 153.72 421.211 155.49 421.211 157.74C421.211 160.62 423.461 162.24 426.851 162.24ZM427.541 159.72C425.501 159.72 424.301 158.94 424.301 157.59C424.301 156.42 425.141 155.76 427.061 155.76H432.251V156.03C432.251 158.31 430.451 159.72 427.541 159.72ZM452.703 162.24C457.443 162.24 460.473 159.33 460.473 154.62C460.473 149.88 457.443 146.94 452.703 146.94C447.993 146.94 444.963 149.88 444.963 154.62C444.963 159.33 447.993 162.24 452.703 162.24ZM452.703 159.48C449.973 159.48 448.323 157.62 448.323 154.62C448.323 151.59 449.973 149.7 452.703 149.7C455.433 149.7 457.113 151.59 457.113 154.62C457.113 157.62 455.433 159.48 452.703 159.48ZM469.481 162.24C474.221 162.24 476.741 160.47 476.741 157.47C476.741 156.27 476.171 155.13 475.181 154.59C474.131 153.99 472.931 153.78 470.831 153.57C469.031 153.39 467.621 153.24 466.901 153C466.031 152.7 465.881 152.1 465.881 151.47C465.881 150.21 467.201 149.37 469.541 149.37C472.001 149.37 473.051 150.3 473.081 152.22H476.111C476.111 148.86 474.071 146.94 469.451 146.94C465.431 146.94 462.551 148.74 462.551 151.71C462.551 152.85 463.031 153.93 463.841 154.53C464.741 155.19 466.301 155.49 468.611 155.7C470.261 155.85 471.671 156 472.391 156.27C473.171 156.54 473.381 157.05 473.381 157.62C473.381 158.97 472.181 159.81 469.451 159.81C466.571 159.81 465.581 158.76 465.581 157.05H462.551C462.551 159.96 464.381 162.24 469.481 162.24ZM4.74 189.44H8.22V186.14H4.74V189.44ZM2.94 212.27C6.48 212.27 8.16 209.9 8.16 206.42V191.18H4.8V206.3C4.8 208.31 3.99 209.48 2.1 209.48C1.41 209.48 0.69 209.39 0.12 209.27V211.94C0.54 212.06 1.59 212.27 2.94 212.27ZM18.807 206.24C23.547 206.24 26.577 203.33 26.577 198.62C26.577 193.88 23.547 190.94 18.807 190.94C14.097 190.94 11.067 193.88 11.067 198.62C11.067 203.33 14.097 206.24 18.807 206.24ZM18.807 203.48C16.077 203.48 14.427 201.62 14.427 198.62C14.427 195.59 16.077 193.7 18.807 193.7C21.537 193.7 23.217 195.59 23.217 198.62C23.217 201.62 21.537 203.48 18.807 203.48ZM33.8027 206H37.7927L44.2127 191.18H40.7027L35.9927 202.85H35.9327L31.2827 191.18H27.3527L33.8027 206ZM59.9438 198.05C59.9438 193.43 57.2738 190.94 53.0738 190.94C48.3938 190.94 45.4538 193.91 45.4538 198.71C45.4538 203.36 48.3938 206.24 53.0738 206.24C57.1238 206.24 59.8238 204.23 59.9438 200.93H56.9138C56.7638 202.67 55.2938 203.63 53.1338 203.63C50.6138 203.63 49.0238 202.1 48.8438 199.25H59.9438V198.05ZM56.9138 197.21H48.9338C49.3238 194.75 50.7938 193.55 53.1038 193.55C55.5338 193.55 56.9138 194.78 56.9138 197V197.21ZM62.7016 206H66.0616V198.83C66.0616 195.59 67.9216 193.82 70.8616 193.82C73.5316 193.82 74.8516 195.14 74.8516 197.48V206H78.2116V196.73C78.2116 193.07 75.9016 190.94 72.1516 190.94C68.7016 190.94 66.7816 192.47 65.9716 195.14H65.9416L66.0616 191.18H62.7016V206ZM87.7373 206.24C92.4773 206.24 94.9973 204.47 94.9973 201.47C94.9973 200.27 94.4273 199.13 93.4373 198.59C92.3873 197.99 91.1873 197.78 89.0873 197.57C87.2873 197.39 85.8773 197.24 85.1573 197C84.2873 196.7 84.1373 196.1 84.1373 195.47C84.1373 194.21 85.4573 193.37 87.7973 193.37C90.2573 193.37 91.3073 194.3 91.3373 196.22H94.3673C94.3673 192.86 92.3273 190.94 87.7073 190.94C83.6873 190.94 80.8073 192.74 80.8073 195.71C80.8073 196.85 81.2873 197.93 82.0973 198.53C82.9973 199.19 84.5573 199.49 86.8673 199.7C88.5173 199.85 89.9273 200 90.6473 200.27C91.4273 200.54 91.6373 201.05 91.6373 201.62C91.6373 202.97 90.4373 203.81 87.7073 203.81C84.8273 203.81 83.8373 202.76 83.8373 201.05H80.8073C80.8073 203.96 82.6373 206.24 87.7373 206.24ZM104.482 206H107.842V198.83C107.842 195.59 109.702 193.82 112.642 193.82C115.312 193.82 116.632 195.14 116.632 197.48V206H119.992V196.73C119.992 193.07 117.682 190.94 113.932 190.94C110.482 190.94 108.562 192.47 107.752 195.14H107.722L107.842 191.18H104.482V206ZM130.328 206.24C135.068 206.24 138.098 203.33 138.098 198.62C138.098 193.88 135.068 190.94 130.328 190.94C125.618 190.94 122.588 193.88 122.588 198.62C122.588 203.33 125.618 206.24 130.328 206.24ZM130.328 203.48C127.598 203.48 125.948 201.62 125.948 198.62C125.948 195.59 127.598 193.7 130.328 193.7C133.058 193.7 134.738 195.59 134.738 198.62C134.738 201.62 133.058 203.48 130.328 203.48ZM147.791 206H156.821C161.711 206 163.901 203.81 163.901 200.27C163.901 197.72 162.431 196.04 159.971 195.68V195.65C162.071 195.26 163.151 193.67 163.151 191.42C163.151 188.24 160.751 186.26 156.131 186.26H147.791V206ZM151.391 194.72V189.08H156.101C158.801 189.08 159.941 190.19 159.941 191.96C159.941 193.7 158.801 194.72 156.461 194.72H151.391ZM151.391 203.18V197.06H156.641C159.101 197.06 160.481 198.2 160.481 199.91C160.481 201.92 159.461 203.18 156.761 203.18H151.391ZM166.635 206H169.995V199.52C169.995 195.98 171.585 193.82 174.135 193.82C176.115 193.82 177.075 194.99 177.075 197.48C177.075 198.17 177.015 198.92 176.955 199.49H180.015C180.075 198.86 180.165 197.66 180.165 196.73C180.165 193.04 178.395 190.94 175.185 190.94C172.125 190.94 170.595 192.77 169.905 195.44H169.875L169.995 191.18H166.635V206ZM188.096 206.24C191.366 206.24 193.136 204.92 193.616 202.73H193.646C193.646 203.93 193.556 205.28 193.496 206H196.856V196.97C196.856 193.07 194.216 190.94 189.716 190.94C185.486 190.94 182.906 192.71 182.906 195.68C182.906 195.95 182.936 196.34 182.966 196.55H186.056C186.026 196.31 186.026 196.07 186.026 195.98C186.026 194.33 187.316 193.46 189.596 193.46C192.206 193.46 193.496 194.45 193.496 196.67V197.72H188.006C184.046 197.72 182.456 199.49 182.456 201.74C182.456 204.62 184.706 206.24 188.096 206.24ZM188.786 203.72C186.746 203.72 185.546 202.94 185.546 201.59C185.546 200.42 186.386 199.76 188.306 199.76H193.496V200.03C193.496 202.31 191.696 203.72 188.786 203.72ZM206.388 206.24C211.128 206.24 213.648 204.47 213.648 201.47C213.648 200.27 213.078 199.13 212.088 198.59C211.038 197.99 209.838 197.78 207.738 197.57C205.938 197.39 204.528 197.24 203.808 197C202.938 196.7 202.788 196.1 202.788 195.47C202.788 194.21 204.108 193.37 206.448 193.37C208.908 193.37 209.958 194.3 209.988 196.22H213.018C213.018 192.86 210.978 190.94 206.358 190.94C202.338 190.94 199.458 192.74 199.458 195.71C199.458 196.85 199.938 197.93 200.748 198.53C201.648 199.19 203.208 199.49 205.518 199.7C207.168 199.85 208.578 200 209.298 200.27C210.078 200.54 210.288 201.05 210.288 201.62C210.288 202.97 209.088 203.81 206.358 203.81C203.478 203.81 202.488 202.76 202.488 201.05H199.458C199.458 203.96 201.288 206.24 206.388 206.24ZM216.474 189.44H219.924V186.14H216.474V189.44ZM216.504 206H219.864V191.18H216.504V206ZM223.311 206H226.671V185.21H223.311V206ZM229.999 210.14C232.609 209.93 233.929 208.46 233.929 204.92V202.1H230.539V206H231.949V206.09C231.949 207.56 231.379 208.28 229.999 208.4V210.14ZM251.274 206.24C255.504 206.24 258.324 203.93 258.324 199.97H255.294C255.264 202.16 253.794 203.48 251.424 203.48C248.934 203.48 247.374 201.62 247.374 198.59C247.374 195.53 248.964 193.7 251.544 193.7C253.794 193.7 255.234 195.05 255.264 197.27H258.294C258.294 193.34 255.594 190.94 251.454 190.94C246.984 190.94 244.014 193.85 244.014 198.59C244.014 203.33 246.924 206.24 251.274 206.24ZM268.435 206.24C273.175 206.24 276.205 203.33 276.205 198.62C276.205 193.88 273.175 190.94 268.435 190.94C263.725 190.94 260.695 193.88 260.695 198.62C260.695 203.33 263.725 206.24 268.435 206.24ZM268.435 203.48C265.705 203.48 264.055 201.62 264.055 198.62C264.055 195.59 265.705 193.7 268.435 193.7C271.165 193.7 272.845 195.59 272.845 198.62C272.845 201.62 271.165 203.48 268.435 203.48ZM278.909 206H282.269V198.77C282.269 195.59 283.799 193.82 286.079 193.82C288.089 193.82 289.199 195.14 289.199 197.24V206H292.559V198.65C292.559 195.56 294.059 193.82 296.399 193.82C298.409 193.82 299.459 195.14 299.459 197.3V206H302.819V196.55C302.819 193.07 300.929 190.94 297.629 190.94C294.809 190.94 293.009 192.44 292.469 194.84H292.439C292.079 192.44 290.219 190.94 287.339 190.94C284.639 190.94 282.839 192.53 282.179 195.08H282.149L282.269 191.18H278.909V206ZM305.963 211.94H309.323V206.12C309.323 205.52 309.263 203.99 309.233 203H309.263C309.893 204.92 311.813 206.24 314.753 206.24C319.013 206.24 321.713 203.12 321.713 198.32C321.713 193.85 319.043 190.94 314.813 190.94C311.873 190.94 309.893 192.38 309.293 194.63H309.263L309.323 191.18H305.963V211.94ZM314.093 203.48C311.213 203.48 309.323 201.86 309.323 199.34V198.56C309.383 195.59 311.243 193.7 314.033 193.7C316.703 193.7 318.353 195.56 318.353 198.41C318.353 201.5 316.673 203.48 314.093 203.48ZM328.916 206.24C332.186 206.24 333.956 204.92 334.436 202.73H334.466C334.466 203.93 334.376 205.28 334.316 206H337.676V196.97C337.676 193.07 335.036 190.94 330.536 190.94C326.306 190.94 323.726 192.71 323.726 195.68C323.726 195.95 323.756 196.34 323.786 196.55H326.876C326.846 196.31 326.846 196.07 326.846 195.98C326.846 194.33 328.136 193.46 330.416 193.46C333.026 193.46 334.316 194.45 334.316 196.67V197.72H328.826C324.866 197.72 323.276 199.49 323.276 201.74C323.276 204.62 325.526 206.24 328.916 206.24ZM329.606 203.72C327.566 203.72 326.366 202.94 326.366 201.59C326.366 200.42 327.206 199.76 329.126 199.76H334.316V200.03C334.316 202.31 332.516 203.72 329.606 203.72ZM340.729 206H344.089V199.52C344.089 195.98 345.679 193.82 348.229 193.82C350.209 193.82 351.169 194.99 351.169 197.48C351.169 198.17 351.109 198.92 351.049 199.49H354.109C354.169 198.86 354.259 197.66 354.259 196.73C354.259 193.04 352.489 190.94 349.279 190.94C346.219 190.94 344.689 192.77 343.999 195.44H343.969L344.089 191.18H340.729V206ZM363.57 206.18C364.8 206.18 365.82 205.97 366.27 205.82V203.15C365.85 203.27 364.89 203.42 364.05 203.42C362.01 203.42 361.29 202.46 361.29 200.54V193.91H366.39V191.18H361.29V187.82H358.5L358.35 190.04C358.26 190.88 358.05 191.18 357.48 191.18H355.59V193.91H357.93V200.72C357.93 203.99 359.52 206.18 363.57 206.18ZM368.995 189.44H372.445V186.14H368.995V189.44ZM369.025 206H372.385V191.18H369.025V206ZM375.832 206H379.192V185.21H375.832V206ZM382.61 206H385.97V198.98C385.97 195.65 387.83 193.82 390.8 193.82C393.47 193.82 394.79 195.14 394.79 197.48V206H398.15V196.73C398.15 193.07 395.84 190.94 392.09 190.94C388.61 190.94 386.69 192.47 385.91 195.17H385.88C385.91 194.36 385.97 192.65 385.97 191.93V185.21H382.61V206ZM406.413 206.24C409.683 206.24 411.453 204.92 411.933 202.73H411.963C411.963 203.93 411.873 205.28 411.813 206H415.173V196.97C415.173 193.07 412.533 190.94 408.033 190.94C403.803 190.94 401.223 192.71 401.223 195.68C401.223 195.95 401.253 196.34 401.283 196.55H404.373C404.343 196.31 404.343 196.07 404.343 195.98C404.343 194.33 405.633 193.46 407.913 193.46C410.523 193.46 411.813 194.45 411.813 196.67V197.72H406.323C402.363 197.72 400.773 199.49 400.773 201.74C400.773 204.62 403.023 206.24 406.413 206.24ZM407.103 203.72C405.063 203.72 403.863 202.94 403.863 201.59C403.863 200.42 404.703 199.76 406.623 199.76H411.813V200.03C411.813 202.31 410.013 203.72 407.103 203.72ZM418.225 206H421.585V198.83C421.585 195.59 423.445 193.82 426.385 193.82C429.055 193.82 430.375 195.14 430.375 197.48V206H433.735V196.73C433.735 193.07 431.425 190.94 427.675 190.94C424.225 190.94 422.305 192.47 421.495 195.14H421.465L421.585 191.18H418.225V206ZM443.321 206.24C446.351 206.24 448.211 204.74 448.781 202.4H448.841C448.781 203.84 448.751 205.13 448.691 206H452.051V185.21H448.691V193.79H448.661C448.061 192.05 446.321 190.94 443.531 190.94C439.121 190.94 436.331 194.03 436.331 198.5C436.331 203.12 439.031 206.24 443.321 206.24ZM444.011 203.48C441.371 203.48 439.661 201.44 439.661 198.5C439.661 195.68 441.401 193.7 444.071 193.7C446.861 193.7 448.691 195.38 448.691 198.02V198.74C448.691 201.62 446.831 203.48 444.011 203.48ZM462.626 206.24C467.366 206.24 470.396 203.33 470.396 198.62C470.396 193.88 467.366 190.94 462.626 190.94C457.916 190.94 454.886 193.88 454.886 198.62C454.886 203.33 457.916 206.24 462.626 206.24ZM462.626 203.48C459.896 203.48 458.246 201.62 458.246 198.62C458.246 195.59 459.896 193.7 462.626 193.7C465.356 193.7 467.036 195.59 467.036 198.62C467.036 201.62 465.356 203.48 462.626 203.48ZM11.16 250.24C15.9 250.24 18.42 248.47 18.42 245.47C18.42 244.27 17.85 243.13 16.86 242.59C15.81 241.99 14.61 241.78 12.51 241.57C10.71 241.39 9.3 241.24 8.58 241C7.71 240.7 7.56 240.1 7.56 239.47C7.56 238.21 8.88 237.37 11.22 237.37C13.68 237.37 14.73 238.3 14.76 240.22H17.79C17.79 236.86 15.75 234.94 11.13 234.94C7.11 234.94 4.23 236.74 4.23 239.71C4.23 240.85 4.71 241.93 5.52 242.53C6.42 243.19 7.98 243.49 10.29 243.7C11.94 243.85 13.35 244 14.07 244.27C14.85 244.54 15.06 245.05 15.06 245.62C15.06 246.97 13.86 247.81 11.13 247.81C8.25 247.81 7.26 246.76 7.26 245.05H4.23C4.23 247.96 6.06 250.24 11.16 250.24ZM28.4456 250.24C33.1856 250.24 36.2156 247.33 36.2156 242.62C36.2156 237.88 33.1856 234.94 28.4456 234.94C23.7356 234.94 20.7056 237.88 20.7056 242.62C20.7056 247.33 23.7356 250.24 28.4456 250.24ZM28.4456 247.48C25.7156 247.48 24.0656 245.62 24.0656 242.62C24.0656 239.59 25.7156 237.7 28.4456 237.7C31.1756 237.7 32.8556 239.59 32.8556 242.62C32.8556 245.62 31.1756 247.48 28.4456 247.48ZM38.9203 250H42.2803V242.83C42.2803 239.59 44.1403 237.82 47.0803 237.82C49.7503 237.82 51.0703 239.14 51.0703 241.48V250H54.4303V240.73C54.4303 237.07 52.1203 234.94 48.3703 234.94C44.9203 234.94 43.0003 236.47 42.1903 239.14H42.1603L42.2803 235.18H38.9203V250ZM57.566 250H60.926V242.98C60.926 239.65 62.786 237.82 65.756 237.82C68.426 237.82 69.746 239.14 69.746 241.48V250H73.106V240.73C73.106 237.07 70.796 234.94 67.046 234.94C63.566 234.94 61.646 236.47 60.866 239.17H60.836C60.866 238.36 60.926 236.65 60.926 235.93V229.21H57.566V250ZM83.4389 250.24C88.1789 250.24 91.2089 247.33 91.2089 242.62C91.2089 237.88 88.1789 234.94 83.4389 234.94C78.7289 234.94 75.6989 237.88 75.6989 242.62C75.6989 247.33 78.7289 250.24 83.4389 250.24ZM83.4389 247.48C80.7089 247.48 79.0589 245.62 79.0589 242.62C79.0589 239.59 80.7089 237.7 83.4389 237.7C86.1689 237.7 87.8489 239.59 87.8489 242.62C87.8489 245.62 86.1689 247.48 83.4389 247.48ZM100.218 250.24C104.958 250.24 107.478 248.47 107.478 245.47C107.478 244.27 106.908 243.13 105.918 242.59C104.868 241.99 103.668 241.78 101.568 241.57C99.7678 241.39 98.3578 241.24 97.6378 241C96.7678 240.7 96.6178 240.1 96.6178 239.47C96.6178 238.21 97.9378 237.37 100.278 237.37C102.738 237.37 103.788 238.3 103.818 240.22H106.848C106.848 236.86 104.808 234.94 100.188 234.94C96.1678 234.94 93.2878 236.74 93.2878 239.71C93.2878 240.85 93.7678 241.93 94.5778 242.53C95.4778 243.19 97.0378 243.49 99.3478 243.7C100.998 243.85 102.408 244 103.128 244.27C103.908 244.54 104.118 245.05 104.118 245.62C104.118 246.97 102.918 247.81 100.188 247.81C97.3078 247.81 96.3178 246.76 96.3178 245.05H93.2878C93.2878 247.96 95.1178 250.24 100.218 250.24ZM131.003 242.05C131.003 237.43 128.333 234.94 124.133 234.94C119.453 234.94 116.513 237.91 116.513 242.71C116.513 247.36 119.453 250.24 124.133 250.24C128.183 250.24 130.883 248.23 131.003 244.93H127.973C127.823 246.67 126.353 247.63 124.193 247.63C121.673 247.63 120.083 246.1 119.903 243.25H131.003V242.05ZM127.973 241.21H119.993C120.383 238.75 121.853 237.55 124.163 237.55C126.593 237.55 127.973 238.78 127.973 241V241.21ZM147.319 250.24C151.549 250.24 154.369 247.93 154.369 243.97H151.339C151.309 246.16 149.839 247.48 147.469 247.48C144.979 247.48 143.419 245.62 143.419 242.59C143.419 239.53 145.009 237.7 147.589 237.7C149.839 237.7 151.279 239.05 151.309 241.27H154.339C154.339 237.34 151.639 234.94 147.499 234.94C143.029 234.94 140.059 237.85 140.059 242.59C140.059 247.33 142.969 250.24 147.319 250.24ZM164.48 250.24C169.22 250.24 172.25 247.33 172.25 242.62C172.25 237.88 169.22 234.94 164.48 234.94C159.77 234.94 156.74 237.88 156.74 242.62C156.74 247.33 159.77 250.24 164.48 250.24ZM164.48 247.48C161.75 247.48 160.1 245.62 160.1 242.62C160.1 239.59 161.75 237.7 164.48 237.7C167.21 237.7 168.89 239.59 168.89 242.62C168.89 245.62 167.21 247.48 164.48 247.48ZM174.955 250H178.315V242.77C178.315 239.59 179.845 237.82 182.125 237.82C184.135 237.82 185.245 239.14 185.245 241.24V250H188.605V242.65C188.605 239.56 190.105 237.82 192.445 237.82C194.455 237.82 195.505 239.14 195.505 241.3V250H198.865V240.55C198.865 237.07 196.975 234.94 193.675 234.94C190.855 234.94 189.055 236.44 188.515 238.84H188.485C188.125 236.44 186.265 234.94 183.385 234.94C180.685 234.94 178.885 236.53 178.225 239.08H178.195L178.315 235.18H174.955V250ZM215.959 242.05C215.959 237.43 213.289 234.94 209.089 234.94C204.409 234.94 201.469 237.91 201.469 242.71C201.469 247.36 204.409 250.24 209.089 250.24C213.139 250.24 215.839 248.23 215.959 244.93H212.929C212.779 246.67 211.309 247.63 209.149 247.63C206.629 247.63 205.039 246.1 204.859 243.25H215.959V242.05ZM212.929 241.21H204.949C205.339 238.75 206.809 237.55 209.119 237.55C211.549 237.55 212.929 238.78 212.929 241V241.21ZM218.717 250H222.077V242.77C222.077 239.59 223.607 237.82 225.887 237.82C227.897 237.82 229.007 239.14 229.007 241.24V250H232.367V242.65C232.367 239.56 233.867 237.82 236.207 237.82C238.217 237.82 239.267 239.14 239.267 241.3V250H242.627V240.55C242.627 237.07 240.737 234.94 237.437 234.94C234.617 234.94 232.817 236.44 232.277 238.84H232.247C231.887 236.44 230.027 234.94 227.147 234.94C224.447 234.94 222.647 236.53 221.987 239.08H221.957L222.077 235.18H218.717V250ZM252.971 250.24C257.711 250.24 260.741 247.33 260.741 242.62C260.741 237.88 257.711 234.94 252.971 234.94C248.261 234.94 245.231 237.88 245.231 242.62C245.231 247.33 248.261 250.24 252.971 250.24ZM252.971 247.48C250.241 247.48 248.591 245.62 248.591 242.62C248.591 239.59 250.241 237.7 252.971 237.7C255.701 237.7 257.381 239.59 257.381 242.62C257.381 245.62 255.701 247.48 252.971 247.48ZM263.445 250H266.805V243.52C266.805 239.98 268.395 237.82 270.945 237.82C272.925 237.82 273.885 238.99 273.885 241.48C273.885 242.17 273.825 242.92 273.765 243.49H276.825C276.885 242.86 276.975 241.66 276.975 240.73C276.975 237.04 275.205 234.94 271.995 234.94C268.935 234.94 267.405 236.77 266.715 239.44H266.685L266.805 235.18H263.445V250ZM284.906 250.24C288.176 250.24 289.946 248.92 290.426 246.73H290.456C290.456 247.93 290.366 249.28 290.306 250H293.666V240.97C293.666 237.07 291.026 234.94 286.526 234.94C282.296 234.94 279.716 236.71 279.716 239.68C279.716 239.95 279.746 240.34 279.776 240.55H282.866C282.836 240.31 282.836 240.07 282.836 239.98C282.836 238.33 284.126 237.46 286.406 237.46C289.016 237.46 290.306 238.45 290.306 240.67V241.72H284.816C280.856 241.72 279.266 243.49 279.266 245.74C279.266 248.62 281.516 250.24 284.906 250.24ZM285.596 247.72C283.556 247.72 282.356 246.94 282.356 245.59C282.356 244.42 283.196 243.76 285.116 243.76H290.306V244.03C290.306 246.31 288.506 247.72 285.596 247.72ZM296.719 250H300.079V242.83C300.079 239.59 301.939 237.82 304.879 237.82C307.549 237.82 308.869 239.14 308.869 241.48V250H312.229V240.73C312.229 237.07 309.919 234.94 306.169 234.94C302.719 234.94 300.799 236.47 299.989 239.14H299.959L300.079 235.18H296.719V250ZM321.814 250.24C324.844 250.24 326.704 248.74 327.274 246.4H327.334C327.274 247.84 327.244 249.13 327.184 250H330.544V229.21H327.184V237.79H327.154C326.554 236.05 324.814 234.94 322.024 234.94C317.614 234.94 314.824 238.03 314.824 242.5C314.824 247.12 317.524 250.24 321.814 250.24ZM322.504 247.48C319.864 247.48 318.154 245.44 318.154 242.5C318.154 239.68 319.894 237.7 322.564 237.7C325.354 237.7 327.184 239.38 327.184 242.02V242.74C327.184 245.62 325.324 247.48 322.504 247.48ZM341.12 250.24C345.86 250.24 348.89 247.33 348.89 242.62C348.89 237.88 345.86 234.94 341.12 234.94C336.41 234.94 333.38 237.88 333.38 242.62C333.38 247.33 336.41 250.24 341.12 250.24ZM341.12 247.48C338.39 247.48 336.74 245.62 336.74 242.62C336.74 239.59 338.39 237.7 341.12 237.7C343.85 237.7 345.53 239.59 345.53 242.62C345.53 245.62 343.85 247.48 341.12 247.48ZM11.49 294.24C15.72 294.24 18.54 291.93 18.54 287.97H15.51C15.48 290.16 14.01 291.48 11.64 291.48C9.15 291.48 7.59 289.62 7.59 286.59C7.59 283.53 9.18 281.7 11.76 281.7C14.01 281.7 15.45 283.05 15.48 285.27H18.51C18.51 281.34 15.81 278.94 11.67 278.94C7.2 278.94 4.23 281.85 4.23 286.59C4.23 291.33 7.14 294.24 11.49 294.24ZM28.6507 294.24C33.3907 294.24 36.4207 291.33 36.4207 286.62C36.4207 281.88 33.3907 278.94 28.6507 278.94C23.9407 278.94 20.9107 281.88 20.9107 286.62C20.9107 291.33 23.9407 294.24 28.6507 294.24ZM28.6507 291.48C25.9207 291.48 24.2707 289.62 24.2707 286.62C24.2707 283.59 25.9207 281.7 28.6507 281.7C31.3807 281.7 33.0607 283.59 33.0607 286.62C33.0607 289.62 31.3807 291.48 28.6507 291.48ZM39.1254 294H42.4854V286.83C42.4854 283.59 44.3454 281.82 47.2854 281.82C49.9554 281.82 51.2754 283.14 51.2754 285.48V294H54.6354V284.73C54.6354 281.07 52.3254 278.94 48.5754 278.94C45.1254 278.94 43.2054 280.47 42.3954 283.14H42.3654L42.4854 279.18H39.1254V294ZM69.5911 299.94H72.9511V279.18H69.6211V282H69.5911C68.9911 280.11 67.2211 278.94 64.3411 278.94C60.2011 278.94 57.2311 281.91 57.2311 286.47C57.2311 291.21 59.9311 294.24 64.1911 294.24C67.0411 294.24 69.0211 292.8 69.5611 290.58H69.5911V299.94ZM64.9111 291.48C62.3011 291.48 60.5611 289.53 60.5611 286.47C60.5611 283.59 62.3611 281.7 64.9711 281.7C67.7611 281.7 69.5911 283.38 69.5911 285.99V286.71C69.5911 289.62 67.7311 291.48 64.9111 291.48ZM82.3268 294.24C85.6268 294.24 87.6968 292.68 88.3268 289.86H88.3568C88.3568 291.42 88.2968 293.01 88.2068 294H91.5668V279.18H88.2068V285.75C88.2068 289.35 86.3168 291.36 83.3168 291.36C80.8868 291.36 79.4468 290.04 79.4468 287.7V279.18H76.0868V288.18C76.0868 292.11 78.4568 294.24 82.3268 294.24ZM94.8532 277.44H98.3032V274.14H94.8532V277.44ZM94.8832 294H98.2432V279.18H94.8832V294ZM108.08 294.24C112.82 294.24 115.34 292.47 115.34 289.47C115.34 288.27 114.77 287.13 113.78 286.59C112.73 285.99 111.53 285.78 109.43 285.57C107.63 285.39 106.22 285.24 105.5 285C104.63 284.7 104.48 284.1 104.48 283.47C104.48 282.21 105.8 281.37 108.14 281.37C110.6 281.37 111.65 282.3 111.68 284.22H114.71C114.71 280.86 112.67 278.94 108.05 278.94C104.03 278.94 101.15 280.74 101.15 283.71C101.15 284.85 101.63 285.93 102.44 286.53C103.34 287.19 104.9 287.49 107.21 287.7C108.86 287.85 110.27 288 110.99 288.27C111.77 288.54 111.98 289.05 111.98 289.62C111.98 290.97 110.78 291.81 108.05 291.81C105.17 291.81 104.18 290.76 104.18 289.05H101.15C101.15 291.96 102.98 294.24 108.08 294.24ZM124.676 294.18C125.906 294.18 126.926 293.97 127.376 293.82V291.15C126.956 291.27 125.996 291.42 125.156 291.42C123.116 291.42 122.396 290.46 122.396 288.54V281.91H127.496V279.18H122.396V275.82H119.606L119.456 278.04C119.366 278.88 119.156 279.18 118.586 279.18H116.696V281.91H119.036V288.72C119.036 291.99 120.626 294.18 124.676 294.18ZM134.82 294.24C138.09 294.24 139.86 292.92 140.34 290.73H140.37C140.37 291.93 140.28 293.28 140.22 294H143.58V284.97C143.58 281.07 140.94 278.94 136.44 278.94C132.21 278.94 129.63 280.71 129.63 283.68C129.63 283.95 129.66 284.34 129.69 284.55H132.78C132.75 284.31 132.75 284.07 132.75 283.98C132.75 282.33 134.04 281.46 136.32 281.46C138.93 281.46 140.22 282.45 140.22 284.67V285.72H134.73C130.77 285.72 129.18 287.49 129.18 289.74C129.18 292.62 131.43 294.24 134.82 294.24ZM135.51 291.72C133.47 291.72 132.27 290.94 132.27 289.59C132.27 288.42 133.11 287.76 135.03 287.76H140.22V288.03C140.22 290.31 138.42 291.72 135.51 291.72ZM153.112 294.24C157.852 294.24 160.372 292.47 160.372 289.47C160.372 288.27 159.803 287.13 158.812 286.59C157.762 285.99 156.563 285.78 154.462 285.57C152.662 285.39 151.252 285.24 150.532 285C149.662 284.7 149.512 284.1 149.512 283.47C149.512 282.21 150.832 281.37 153.172 281.37C155.632 281.37 156.683 282.3 156.712 284.22H159.743C159.743 280.86 157.702 278.94 153.083 278.94C149.062 278.94 146.182 280.74 146.182 283.71C146.182 284.85 146.662 285.93 147.472 286.53C148.372 287.19 149.932 287.49 152.242 287.7C153.892 287.85 155.303 288 156.022 288.27C156.802 288.54 157.012 289.05 157.012 289.62C157.012 290.97 155.812 291.81 153.083 291.81C150.202 291.81 149.212 290.76 149.212 289.05H146.182C146.182 291.96 148.012 294.24 153.112 294.24ZM163.678 294H167.068V290.1H163.678V294Z" fill="white"/>
</svg>
