<svg width="477" height="291" viewBox="0 0 477 291" fill="none" xmlns="http://www.w3.org/2000/svg">
<path d="M12 1.41C6.96 1.41 4.92 3.78 4.92 8.01V11.34H10.74V6.39H8.37V6.27C8.37 4.95 9.18 3.96 12 3.96V1.41ZM21.06 1.41C16.02 1.41 13.98 3.78 13.98 8.01V11.34H19.8V6.39H17.43V6.27C17.43 4.95 18.24 3.96 21.06 3.96V1.41ZM177.093 275.16C182.133 275.16 184.173 272.79 184.173 268.56V265.23H178.353V270.18H180.723V270.3C180.723 271.62 179.913 272.61 177.093 272.61V275.16ZM186.183 275.16C191.223 275.16 193.263 272.79 193.263 268.56V265.23H187.443V270.18H189.813V270.3C189.813 271.62 189.003 272.61 186.183 272.61V275.16Z" fill="#01CA30"/>
<path d="M24.003 21H27.603V12.78H35.703V10.26H27.603V4.26H37.203V1.26H24.003V21ZM43.9938 21.24C47.2638 21.24 49.0338 19.92 49.5138 17.73H49.5438C49.5438 18.93 49.4538 20.28 49.3938 21H52.7538V11.97C52.7538 8.07 50.1138 5.94 45.6138 5.94C41.3838 5.94 38.8038 7.71 38.8038 10.68C38.8038 10.95 38.8338 11.34 38.8638 11.55H41.9538C41.9238 11.31 41.9238 11.07 41.9238 10.98C41.9238 9.33 43.2138 8.46 45.4938 8.46C48.1038 8.46 49.3938 9.45 49.3938 11.67V12.72H43.9038C39.9438 12.72 38.3538 14.49 38.3538 16.74C38.3538 19.62 40.6038 21.24 43.9938 21.24ZM44.6838 18.72C42.6438 18.72 41.4438 17.94 41.4438 16.59C41.4438 15.42 42.2838 14.76 44.2038 14.76H49.3938V15.03C49.3938 17.31 47.5938 18.72 44.6838 18.72ZM55.2961 21H67.8361V18.27H59.6461V18.24L67.8361 8.25V6.18H55.5361V8.91H63.4561V8.97L55.2961 18.9V21ZM84.1537 13.05C84.1537 8.43 81.4837 5.94 77.2837 5.94C72.6037 5.94 69.6637 8.91 69.6637 13.71C69.6637 18.36 72.6037 21.24 77.2837 21.24C81.3337 21.24 84.0337 19.23 84.1537 15.93H81.1237C80.9737 17.67 79.5037 18.63 77.3437 18.63C74.8237 18.63 73.2337 17.1 73.0537 14.25H84.1537V13.05ZM81.1237 12.21H73.1437C73.5337 9.75 75.0037 8.55 77.3137 8.55C79.7437 8.55 81.1237 9.78 81.1237 12V12.21ZM86.9116 21H90.2716V14.52C90.2716 10.98 91.8616 8.82 94.4116 8.82C96.3916 8.82 97.3516 9.99 97.3516 12.48C97.3516 13.17 97.2916 13.92 97.2316 14.49H100.292C100.352 13.86 100.442 12.66 100.442 11.73C100.442 8.04 98.6716 5.94 95.4616 5.94C92.4016 5.94 90.8716 7.77 90.1816 10.44H90.1516L90.2716 6.18H86.9116V21ZM109.992 26.94H113.352V21.12C113.352 20.52 113.292 18.99 113.262 18H113.292C113.922 19.92 115.842 21.24 118.782 21.24C123.042 21.24 125.742 18.12 125.742 13.32C125.742 8.85 123.072 5.94 118.842 5.94C115.902 5.94 113.922 7.38 113.322 9.63H113.292L113.352 6.18H109.992V26.94ZM118.122 18.48C115.242 18.48 113.352 16.86 113.352 14.34V13.56C113.412 10.59 115.272 8.7 118.062 8.7C120.732 8.7 122.382 10.56 122.382 13.41C122.382 16.5 120.702 18.48 118.122 18.48ZM132.945 21.24C136.215 21.24 137.985 19.92 138.465 17.73H138.495C138.495 18.93 138.405 20.28 138.345 21H141.705V11.97C141.705 8.07 139.065 5.94 134.565 5.94C130.335 5.94 127.755 7.71 127.755 10.68C127.755 10.95 127.785 11.34 127.815 11.55H130.905C130.875 11.31 130.875 11.07 130.875 10.98C130.875 9.33 132.165 8.46 134.445 8.46C137.055 8.46 138.345 9.45 138.345 11.67V12.72H132.855C128.895 12.72 127.305 14.49 127.305 16.74C127.305 19.62 129.555 21.24 132.945 21.24ZM133.635 18.72C131.595 18.72 130.395 17.94 130.395 16.59C130.395 15.42 131.235 14.76 133.155 14.76H138.345V15.03C138.345 17.31 136.545 18.72 133.635 18.72ZM144.757 21H148.117V14.52C148.117 10.98 149.707 8.82 152.258 8.82C154.237 8.82 155.197 9.99 155.197 12.48C155.197 13.17 155.137 13.92 155.077 14.49H158.138C158.197 13.86 158.288 12.66 158.288 11.73C158.288 8.04 156.517 5.94 153.308 5.94C150.247 5.94 148.717 7.77 148.027 10.44H147.997L148.117 6.18H144.757V21ZM167.599 21.18C168.829 21.18 169.849 20.97 170.299 20.82V18.15C169.879 18.27 168.919 18.42 168.079 18.42C166.039 18.42 165.319 17.46 165.319 15.54V8.91H170.419V6.18H165.319V2.82H162.529L162.379 5.04C162.289 5.88 162.079 6.18 161.509 6.18H159.619V8.91H161.959V15.72C161.959 18.99 163.549 21.18 167.599 21.18ZM186.387 13.05C186.387 8.43 183.717 5.94 179.517 5.94C174.837 5.94 171.897 8.91 171.897 13.71C171.897 18.36 174.837 21.24 179.517 21.24C183.567 21.24 186.267 19.23 186.387 15.93H183.357C183.207 17.67 181.737 18.63 179.577 18.63C177.057 18.63 175.467 17.1 175.287 14.25H186.387V13.05ZM183.357 12.21H175.377C175.767 9.75 177.237 8.55 179.547 8.55C181.977 8.55 183.357 9.78 183.357 12V12.21ZM202.434 21.24C205.464 21.24 207.324 19.74 207.894 17.4H207.954C207.894 18.84 207.864 20.13 207.804 21H211.164V0.209999H207.804V8.79H207.774C207.174 7.05 205.434 5.94 202.644 5.94C198.234 5.94 195.444 9.03 195.444 13.5C195.444 18.12 198.144 21.24 202.434 21.24ZM203.124 18.48C200.484 18.48 198.774 16.44 198.774 13.5C198.774 10.68 200.514 8.7 203.184 8.7C205.974 8.7 207.804 10.38 207.804 13.02V13.74C207.804 16.62 205.944 18.48 203.124 18.48ZM221.74 21.24C226.48 21.24 229.51 18.33 229.51 13.62C229.51 8.88 226.48 5.94 221.74 5.94C217.03 5.94 214 8.88 214 13.62C214 18.33 217.03 21.24 221.74 21.24ZM221.74 18.48C219.01 18.48 217.36 16.62 217.36 13.62C217.36 10.59 219.01 8.7 221.74 8.7C224.47 8.7 226.15 10.59 226.15 13.62C226.15 16.62 224.47 18.48 221.74 18.48ZM245.564 21.18C246.794 21.18 247.814 20.97 248.264 20.82V18.15C247.844 18.27 246.884 18.42 246.044 18.42C244.004 18.42 243.284 17.46 243.284 15.54V8.91H248.384V6.18H243.284V2.82H240.494L240.344 5.04C240.254 5.88 240.044 6.18 239.474 6.18H237.584V8.91H239.924V15.72C239.924 18.99 241.514 21.18 245.564 21.18ZM250.988 4.44H254.438V1.14H250.988V4.44ZM251.018 21H254.378V6.18H251.018V21ZM257.735 21H261.095V13.77C261.095 10.59 262.625 8.82 264.905 8.82C266.915 8.82 268.025 10.14 268.025 12.24V21H271.385V13.65C271.385 10.56 272.885 8.82 275.225 8.82C277.235 8.82 278.285 10.14 278.285 12.3V21H281.645V11.55C281.645 8.07 279.755 5.94 276.455 5.94C273.635 5.94 271.835 7.44 271.295 9.84H271.265C270.905 7.44 269.045 5.94 266.165 5.94C263.465 5.94 261.665 7.53 261.005 10.08H260.975L261.095 6.18H257.735V21ZM298.739 13.05C298.739 8.43 296.069 5.94 291.869 5.94C287.189 5.94 284.249 8.91 284.249 13.71C284.249 18.36 287.189 21.24 291.869 21.24C295.919 21.24 298.619 19.23 298.739 15.93H295.709C295.559 17.67 294.089 18.63 291.929 18.63C289.409 18.63 287.819 17.1 287.639 14.25H298.739V13.05ZM295.709 12.21H287.729C288.119 9.75 289.589 8.55 291.899 8.55C294.329 8.55 295.709 9.78 295.709 12V12.21ZM308.486 21H311.876L311.846 4.26H311.876L322.406 21H326.666V1.26H323.276L323.336 16.26H323.276L313.886 1.26H308.486V21ZM339.472 21.3C343.072 21.3 345.292 19.74 345.892 17.46H345.922C345.892 18.81 345.802 20.22 345.742 21H348.742V11.28H339.142V13.56H345.262V14.01C345.262 16.68 342.922 18.51 339.772 18.51C336.202 18.51 333.292 15.78 333.292 11.37C333.292 6.81 336.112 3.96 339.922 3.96C342.952 3.96 345.352 5.55 345.352 8.34C345.352 8.61 345.352 8.94 345.322 9.3H348.532C348.562 8.94 348.592 8.46 348.592 8.13C348.592 3.63 344.842 0.959999 339.862 0.959999C334.042 0.959999 329.662 5.01 329.662 11.34C329.662 17.52 333.832 21.3 339.472 21.3ZM352.519 21H355.909V17.1H352.519V21ZM369.355 21.3C374.575 21.3 378.295 18.24 378.295 13.77V13.08H375.085V13.56C375.085 16.41 372.775 18.3 369.475 18.3C365.755 18.3 362.875 15.57 362.875 11.16C362.875 6.75 365.635 3.96 369.475 3.96C372.655 3.96 375.025 5.88 375.025 8.91C375.025 9.06 375.025 9.3 374.995 9.57H378.175C378.205 9.21 378.235 8.82 378.235 8.61C378.235 4.05 374.545 0.959999 369.355 0.959999C363.415 0.959999 359.215 4.86 359.215 11.16C359.215 17.43 363.475 21.3 369.355 21.3ZM395.423 21H399.593L391.583 1.26H387.203L379.163 21H382.883L384.563 16.56H393.773L395.423 21ZM385.463 14.16L389.153 4.32H389.213L392.873 14.16H385.463ZM408.856 21.3C415.576 21.3 417.436 18.33 417.436 15.15C417.436 13.32 416.656 11.94 415.306 11.25C414.076 10.59 412.156 10.26 410.086 9.93C408.376 9.69 406.156 9.33 405.286 8.91C404.506 8.55 404.116 7.89 404.116 6.78C404.116 4.98 405.886 3.75 408.856 3.75C411.946 3.75 413.536 5.13 413.536 8.04H416.776C416.776 3.54 414.646 0.959999 408.796 0.959999C403.636 0.959999 400.546 3.48 400.546 7.08C400.546 8.94 401.296 10.29 402.496 11.04C403.576 11.73 405.676 12.18 407.656 12.45C409.366 12.69 411.496 12.96 412.486 13.35C413.416 13.68 413.866 14.31 413.866 15.39C413.866 17.01 412.846 18.51 408.826 18.51C405.046 18.51 403.846 16.77 403.846 14.25H400.606C400.606 17.85 402.316 21.3 408.856 21.3ZM420.465 21H424.065V12.21H434.565V21H438.135V1.26H434.565V9.33H424.065V1.26H420.465V21ZM459.502 0.449998H455.992L453.652 4.65H456.292L459.502 0.449998ZM462.382 13.05C462.382 8.43 459.712 5.94 455.512 5.94C450.832 5.94 447.892 8.91 447.892 13.71C447.892 18.36 450.832 21.24 455.512 21.24C459.562 21.24 462.262 19.23 462.382 15.93H459.352C459.202 17.67 457.732 18.63 455.572 18.63C453.052 18.63 451.462 17.1 451.282 14.25H462.382V13.05ZM459.352 12.21H451.372C451.762 9.75 453.232 8.55 455.542 8.55C457.972 8.55 459.352 9.78 459.352 12V12.21ZM11.16 65.24C15.9 65.24 18.42 63.47 18.42 60.47C18.42 59.27 17.85 58.13 16.86 57.59C15.81 56.99 14.61 56.78 12.51 56.57C10.71 56.39 9.3 56.24 8.58 56C7.71 55.7 7.56 55.1 7.56 54.47C7.56 53.21 8.88 52.37 11.22 52.37C13.68 52.37 14.73 53.3 14.76 55.22H17.79C17.79 51.86 15.75 49.94 11.13 49.94C7.11 49.94 4.23 51.74 4.23 54.71C4.23 55.85 4.71 56.93 5.52 57.53C6.42 58.19 7.98 58.49 10.29 58.7C11.94 58.85 13.35 59 14.07 59.27C14.85 59.54 15.06 60.05 15.06 60.62C15.06 61.97 13.86 62.81 11.13 62.81C8.25 62.81 7.26 61.76 7.26 60.05H4.23C4.23 62.96 6.06 65.24 11.16 65.24ZM26.3756 65.24C29.6456 65.24 31.4156 63.92 31.8956 61.73H31.9256C31.9256 62.93 31.8356 64.28 31.7756 65H35.1356V55.97C35.1356 52.07 32.4956 49.94 27.9956 49.94C23.7656 49.94 21.1856 51.71 21.1856 54.68C21.1856 54.95 21.2156 55.34 21.2456 55.55H24.3356C24.3056 55.31 24.3056 55.07 24.3056 54.98C24.3056 53.33 25.5956 52.46 27.8756 52.46C30.4856 52.46 31.7756 53.45 31.7756 55.67V56.72H26.2856C22.3256 56.72 20.7356 58.49 20.7356 60.74C20.7356 63.62 22.9856 65.24 26.3756 65.24ZM27.0656 62.72C25.0256 62.72 23.8256 61.94 23.8256 60.59C23.8256 59.42 24.6656 58.76 26.5856 58.76H31.7756V59.03C31.7756 61.31 29.9756 62.72 27.0656 62.72ZM47.2479 65.24C51.4179 65.24 54.0279 62.21 54.0279 57.32C54.0279 52.76 51.4779 49.94 47.2179 49.94C44.2779 49.94 42.2379 51.32 41.6079 53.48H41.5779C41.6079 52.76 41.6379 51.56 41.6379 50.93V44.21H38.2779V65H41.6379C41.5779 64.25 41.5179 62.9 41.5179 61.85H41.5479C42.1479 63.92 44.1879 65.24 47.2479 65.24ZM46.3779 62.48C43.4679 62.48 41.6379 60.89 41.6379 58.31V57.56C41.6379 54.56 43.4979 52.7 46.4379 52.7C49.0779 52.7 50.6679 54.5 50.6679 57.41C50.6679 60.56 49.0179 62.48 46.3779 62.48ZM70.8129 57.05C70.8129 52.43 68.1429 49.94 63.9429 49.94C59.2629 49.94 56.3229 52.91 56.3229 57.71C56.3229 62.36 59.2629 65.24 63.9429 65.24C67.9929 65.24 70.6929 63.23 70.8129 59.93H67.7829C67.6329 61.67 66.1629 62.63 64.0029 62.63C61.4829 62.63 59.8929 61.1 59.7129 58.25H70.8129V57.05ZM67.7829 56.21H59.8029C60.1929 53.75 61.6629 52.55 63.9729 52.55C66.4029 52.55 67.7829 53.78 67.7829 56V56.21ZM73.5708 65H76.9308V58.52C76.9308 54.98 78.5208 52.82 81.0708 52.82C83.0508 52.82 84.0108 53.99 84.0108 56.48C84.0108 57.17 83.9508 57.92 83.8908 58.49H86.9508C87.0108 57.86 87.1008 56.66 87.1008 55.73C87.1008 52.04 85.3308 49.94 82.1208 49.94C79.0608 49.94 77.5308 51.77 76.8408 54.44H76.8108L76.9308 50.18H73.5708V65ZM108.471 70.94H111.831V50.18H108.501V53H108.471C107.871 51.11 106.101 49.94 103.221 49.94C99.0811 49.94 96.1111 52.91 96.1111 57.47C96.1111 62.21 98.8111 65.24 103.071 65.24C105.921 65.24 107.901 63.8 108.441 61.58H108.471V70.94ZM103.791 62.48C101.181 62.48 99.4411 60.53 99.4411 57.47C99.4411 54.59 101.241 52.7 103.851 52.7C106.641 52.7 108.471 54.38 108.471 56.99V57.71C108.471 60.62 106.611 62.48 103.791 62.48ZM121.207 65.24C124.507 65.24 126.577 63.68 127.207 60.86H127.237C127.237 62.42 127.177 64.01 127.087 65H130.447V50.18H127.087V56.75C127.087 60.35 125.197 62.36 122.197 62.36C119.767 62.36 118.327 61.04 118.327 58.7V50.18H114.967V59.18C114.967 63.11 117.337 65.24 121.207 65.24ZM147.683 57.05C147.683 52.43 145.013 49.94 140.813 49.94C136.133 49.94 133.193 52.91 133.193 57.71C133.193 62.36 136.133 65.24 140.813 65.24C144.863 65.24 147.563 63.23 147.683 59.93H144.653C144.503 61.67 143.033 62.63 140.873 62.63C138.353 62.63 136.763 61.1 136.583 58.25H147.683V57.05ZM144.653 56.21H136.673C137.063 53.75 138.533 52.55 140.843 52.55C143.273 52.55 144.653 53.78 144.653 56V56.21ZM162.41 65.24C165.68 65.24 167.45 63.92 167.93 61.73H167.96C167.96 62.93 167.87 64.28 167.81 65H171.17V55.97C171.17 52.07 168.53 49.94 164.03 49.94C159.8 49.94 157.22 51.71 157.22 54.68C157.22 54.95 157.25 55.34 157.28 55.55H160.37C160.34 55.31 160.34 55.07 160.34 54.98C160.34 53.33 161.63 52.46 163.91 52.46C166.52 52.46 167.81 53.45 167.81 55.67V56.72H162.32C158.36 56.72 156.77 58.49 156.77 60.74C156.77 63.62 159.02 65.24 162.41 65.24ZM163.1 62.72C161.06 62.72 159.86 61.94 159.86 60.59C159.86 59.42 160.7 58.76 162.62 58.76H167.81V59.03C167.81 61.31 166.01 62.72 163.1 62.72ZM181.032 65.24C185.262 65.24 188.082 62.93 188.082 58.97H185.052C185.022 61.16 183.552 62.48 181.182 62.48C178.692 62.48 177.132 60.62 177.132 57.59C177.132 54.53 178.722 52.7 181.302 52.7C183.552 52.7 184.992 54.05 185.022 56.27H188.052C188.052 52.34 185.352 49.94 181.212 49.94C176.742 49.94 173.772 52.85 173.772 57.59C173.772 62.33 176.682 65.24 181.032 65.24ZM190.993 48.44H194.443V45.14H190.993V48.44ZM191.023 65H194.383V50.18H191.023V65ZM197.74 65H201.1V57.77C201.1 54.59 202.63 52.82 204.91 52.82C206.92 52.82 208.03 54.14 208.03 56.24V65H211.39V57.65C211.39 54.56 212.89 52.82 215.23 52.82C217.24 52.82 218.29 54.14 218.29 56.3V65H221.65V55.55C221.65 52.07 219.76 49.94 216.46 49.94C213.64 49.94 211.84 51.44 211.3 53.84H211.27C210.91 51.44 209.05 49.94 206.17 49.94C203.47 49.94 201.67 51.53 201.01 54.08H200.98L201.1 50.18H197.74V65ZM229.924 65.24C233.194 65.24 234.964 63.92 235.444 61.73H235.474C235.474 62.93 235.384 64.28 235.324 65H238.684V55.97C238.684 52.07 236.044 49.94 231.544 49.94C227.314 49.94 224.734 51.71 224.734 54.68C224.734 54.95 224.764 55.34 224.794 55.55H227.884C227.854 55.31 227.854 55.07 227.854 54.98C227.854 53.33 229.144 52.46 231.424 52.46C234.034 52.46 235.324 53.45 235.324 55.67V56.72H229.834C225.874 56.72 224.284 58.49 224.284 60.74C224.284 63.62 226.534 65.24 229.924 65.24ZM230.614 62.72C228.574 62.72 227.374 61.94 227.374 60.59C227.374 59.42 228.214 58.76 230.134 58.76H235.324V59.03C235.324 61.31 233.524 62.72 230.614 62.72ZM255.025 65.24C258.055 65.24 259.915 63.74 260.485 61.4H260.545C260.485 62.84 260.455 64.13 260.395 65H263.755V44.21H260.395V52.79H260.365C259.765 51.05 258.025 49.94 255.235 49.94C250.825 49.94 248.035 53.03 248.035 57.5C248.035 62.12 250.735 65.24 255.025 65.24ZM255.715 62.48C253.075 62.48 251.365 60.44 251.365 57.5C251.365 54.68 253.105 52.7 255.775 52.7C258.565 52.7 260.395 54.38 260.395 57.02V57.74C260.395 60.62 258.535 62.48 255.715 62.48ZM281.081 57.05C281.081 52.43 278.411 49.94 274.211 49.94C269.531 49.94 266.591 52.91 266.591 57.71C266.591 62.36 269.531 65.24 274.211 65.24C278.261 65.24 280.961 63.23 281.081 59.93H278.051C277.901 61.67 276.431 62.63 274.271 62.63C271.751 62.63 270.161 61.1 269.981 58.25H281.081V57.05ZM278.051 56.21H270.071C270.461 53.75 271.931 52.55 274.241 52.55C276.671 52.55 278.051 53.78 278.051 56V56.21ZM297.188 65.18C298.418 65.18 299.438 64.97 299.888 64.82V62.15C299.468 62.27 298.508 62.42 297.668 62.42C295.628 62.42 294.908 61.46 294.908 59.54V52.91H300.008V50.18H294.908V46.82H292.118L291.968 49.04C291.878 49.88 291.668 50.18 291.098 50.18H289.208V52.91H291.548V59.72C291.548 62.99 293.138 65.18 297.188 65.18ZM308.613 65.24C311.913 65.24 313.983 63.68 314.613 60.86H314.643C314.643 62.42 314.583 64.01 314.493 65H317.853V50.18H314.493V56.75C314.493 60.35 312.603 62.36 309.603 62.36C307.173 62.36 305.733 61.04 305.733 58.7V50.18H302.373V59.18C302.373 63.11 304.743 65.24 308.613 65.24ZM327.589 65.24C330.619 65.24 332.479 63.74 333.049 61.4H333.109C333.049 62.84 333.019 64.13 332.959 65H336.319V44.21H332.959V52.79H332.929C332.329 51.05 330.589 49.94 327.799 49.94C323.389 49.94 320.599 53.03 320.599 57.5C320.599 62.12 323.299 65.24 327.589 65.24ZM328.279 62.48C325.639 62.48 323.929 60.44 323.929 57.5C323.929 54.68 325.669 52.7 328.339 52.7C331.129 52.7 332.959 54.38 332.959 57.02V57.74C332.959 60.62 331.099 62.48 328.279 62.48ZM346.895 65.24C351.635 65.24 354.665 62.33 354.665 57.62C354.665 52.88 351.635 49.94 346.895 49.94C342.185 49.94 339.155 52.88 339.155 57.62C339.155 62.33 342.185 65.24 346.895 65.24ZM346.895 62.48C344.165 62.48 342.515 60.62 342.515 57.62C342.515 54.59 344.165 52.7 346.895 52.7C349.625 52.7 351.305 54.59 351.305 57.62C351.305 60.62 349.625 62.48 346.895 62.48ZM370.598 65.24C375.338 65.24 377.858 63.47 377.858 60.47C377.858 59.27 377.288 58.13 376.298 57.59C375.248 56.99 374.048 56.78 371.948 56.57C370.148 56.39 368.738 56.24 368.018 56C367.148 55.7 366.998 55.1 366.998 54.47C366.998 53.21 368.318 52.37 370.658 52.37C373.118 52.37 374.168 53.3 374.198 55.22H377.228C377.228 51.86 375.188 49.94 370.568 49.94C366.548 49.94 363.668 51.74 363.668 54.71C363.668 55.85 364.148 56.93 364.958 57.53C365.858 58.19 367.418 58.49 369.728 58.7C371.378 58.85 372.788 59 373.508 59.27C374.288 59.54 374.498 60.05 374.498 60.62C374.498 61.97 373.298 62.81 370.568 62.81C367.688 62.81 366.698 61.76 366.698 60.05H363.668C363.668 62.96 365.498 65.24 370.598 65.24ZM387.884 65.24C392.624 65.24 395.654 62.33 395.654 57.62C395.654 52.88 392.624 49.94 387.884 49.94C383.174 49.94 380.144 52.88 380.144 57.62C380.144 62.33 383.174 65.24 387.884 65.24ZM387.884 62.48C385.154 62.48 383.504 60.62 383.504 57.62C383.504 54.59 385.154 52.7 387.884 52.7C390.614 52.7 392.294 54.59 392.294 57.62C392.294 60.62 390.614 62.48 387.884 62.48ZM398.359 65H401.719V57.77C401.719 54.59 403.249 52.82 405.529 52.82C407.539 52.82 408.649 54.14 408.649 56.24V65H412.009V57.65C412.009 54.56 413.509 52.82 415.849 52.82C417.859 52.82 418.909 54.14 418.909 56.3V65H422.269V55.55C422.269 52.07 420.379 49.94 417.079 49.94C414.259 49.94 412.459 51.44 411.919 53.84H411.889C411.529 51.44 409.669 49.94 406.789 49.94C404.089 49.94 402.289 51.53 401.629 54.08H401.599L401.719 50.18H398.359V65ZM432.613 65.24C437.353 65.24 440.383 62.33 440.383 57.62C440.383 52.88 437.353 49.94 432.613 49.94C427.903 49.94 424.873 52.88 424.873 57.62C424.873 62.33 427.903 65.24 432.613 65.24ZM432.613 62.48C429.883 62.48 428.233 60.62 428.233 57.62C428.233 54.59 429.883 52.7 432.613 52.7C435.343 52.7 437.023 54.59 437.023 57.62C437.023 60.62 435.343 62.48 432.613 62.48ZM449.392 65.24C454.132 65.24 456.652 63.47 456.652 60.47C456.652 59.27 456.082 58.13 455.092 57.59C454.042 56.99 452.842 56.78 450.742 56.57C448.942 56.39 447.532 56.24 446.812 56C445.942 55.7 445.792 55.1 445.792 54.47C445.792 53.21 447.112 52.37 449.452 52.37C451.912 52.37 452.962 53.3 452.992 55.22H456.022C456.022 51.86 453.982 49.94 449.362 49.94C445.342 49.94 442.462 51.74 442.462 54.71C442.462 55.85 442.942 56.93 443.752 57.53C444.652 58.19 446.212 58.49 448.522 58.7C450.172 58.85 451.582 59 452.302 59.27C453.082 59.54 453.292 60.05 453.292 60.62C453.292 61.97 452.092 62.81 449.362 62.81C446.482 62.81 445.492 61.76 445.492 60.05H442.462C442.462 62.96 444.292 65.24 449.392 65.24ZM10.77 109.24C14.07 109.24 16.14 107.68 16.77 104.86H16.8C16.8 106.42 16.74 108.01 16.65 109H20.01V94.18H16.65V100.75C16.65 104.35 14.76 106.36 11.76 106.36C9.33 106.36 7.89 105.04 7.89 102.7V94.18H4.53V103.18C4.53 107.11 6.9 109.24 10.77 109.24ZM23.2064 109H26.5664V101.77C26.5664 98.59 28.0964 96.82 30.3764 96.82C32.3864 96.82 33.4964 98.14 33.4964 100.24V109H36.8564V101.65C36.8564 98.56 38.3564 96.82 40.6964 96.82C42.7064 96.82 43.7564 98.14 43.7564 100.3V109H47.1164V99.55C47.1164 96.07 45.2264 93.94 41.9264 93.94C39.1064 93.94 37.3064 95.44 36.7664 97.84H36.7364C36.3764 95.44 34.5164 93.94 31.6364 93.94C28.9364 93.94 27.1364 95.53 26.4764 98.08H26.4464L26.5664 94.18H23.2064V109ZM55.3903 109.24C58.6603 109.24 60.4303 107.92 60.9103 105.73H60.9403C60.9403 106.93 60.8503 108.28 60.7903 109H64.1503V99.97C64.1503 96.07 61.5103 93.94 57.0103 93.94C52.7803 93.94 50.2003 95.71 50.2003 98.68C50.2003 98.95 50.2303 99.34 50.2603 99.55H53.3503C53.3203 99.31 53.3203 99.07 53.3203 98.98C53.3203 97.33 54.6103 96.46 56.8903 96.46C59.5003 96.46 60.7903 97.45 60.7903 99.67V100.72H55.3003C51.3403 100.72 49.7503 102.49 49.7503 104.74C49.7503 107.62 52.0003 109.24 55.3903 109.24ZM56.0803 106.72C54.0403 106.72 52.8403 105.94 52.8403 104.59C52.8403 103.42 53.6803 102.76 55.6003 102.76H60.7903V103.03C60.7903 105.31 58.9903 106.72 56.0803 106.72ZM74.9416 109H78.3016V96.91H83.4616V94.18H78.3016V92.86C78.3016 91.24 79.2316 90.34 80.9416 90.34C81.9616 90.34 82.7416 90.55 83.2216 90.7V88.03C82.7416 87.85 81.6616 87.61 80.3416 87.61C77.1316 87.61 74.9416 89.41 74.9416 92.71V94.18H72.5716V96.91H74.9416V109ZM90.1395 109.24C93.4095 109.24 95.1795 107.92 95.6595 105.73H95.6895C95.6895 106.93 95.5995 108.28 95.5395 109H98.8995V99.97C98.8995 96.07 96.2595 93.94 91.7595 93.94C87.5295 93.94 84.9495 95.71 84.9495 98.68C84.9495 98.95 84.9795 99.34 85.0095 99.55H88.0995C88.0695 99.31 88.0695 99.07 88.0695 98.98C88.0695 97.33 89.3595 96.46 91.6395 96.46C94.2495 96.46 95.5395 97.45 95.5395 99.67V100.72H90.0495C86.0895 100.72 84.4995 102.49 84.4995 104.74C84.4995 107.62 86.7495 109.24 90.1395 109.24ZM90.8295 106.72C88.7895 106.72 87.5895 105.94 87.5895 104.59C87.5895 103.42 88.4295 102.76 90.3495 102.76H95.5395V103.03C95.5395 105.31 93.7395 106.72 90.8295 106.72ZM101.952 109H105.312V101.77C105.312 98.59 106.842 96.82 109.122 96.82C111.132 96.82 112.242 98.14 112.242 100.24V109H115.602V101.65C115.602 98.56 117.102 96.82 119.442 96.82C121.452 96.82 122.502 98.14 122.502 100.3V109H125.862V99.55C125.862 96.07 123.972 93.94 120.672 93.94C117.852 93.94 116.052 95.44 115.512 97.84H115.482C115.122 95.44 113.262 93.94 110.382 93.94C107.682 93.94 105.882 95.53 105.222 98.08H105.192L105.312 94.18H101.952V109ZM129.066 92.65H131.706L134.916 88.45H131.406L129.066 92.65ZM129.036 109H132.396V94.18H129.036V109ZM136.048 109H139.408V88.21H136.048V109ZM142.826 92.44H146.276V89.14H142.826V92.44ZM142.856 109H146.216V94.18H142.856V109ZM154.793 109.24C158.063 109.24 159.833 107.92 160.313 105.73H160.343C160.343 106.93 160.253 108.28 160.193 109H163.553V99.97C163.553 96.07 160.913 93.94 156.413 93.94C152.183 93.94 149.603 95.71 149.603 98.68C149.603 98.95 149.633 99.34 149.663 99.55H152.753C152.723 99.31 152.723 99.07 152.723 98.98C152.723 97.33 154.013 96.46 156.293 96.46C158.903 96.46 160.193 97.45 160.193 99.67V100.72H154.703C150.743 100.72 149.153 102.49 149.153 104.74C149.153 107.62 151.403 109.24 154.793 109.24ZM155.483 106.72C153.443 106.72 152.243 105.94 152.243 104.59C152.243 103.42 153.083 102.76 155.003 102.76H160.193V103.03C160.193 105.31 158.393 106.72 155.483 106.72ZM166.605 113.14C169.215 112.93 170.535 111.46 170.535 107.92V105.1H167.145V109H168.555V109.09C168.555 110.56 167.985 111.28 166.605 111.4V113.14ZM187.61 109.24C190.64 109.24 192.5 107.74 193.07 105.4H193.13C193.07 106.84 193.04 108.13 192.98 109H196.34V88.21H192.98V96.79H192.95C192.35 95.05 190.61 93.94 187.82 93.94C183.41 93.94 180.62 97.03 180.62 101.5C180.62 106.12 183.32 109.24 187.61 109.24ZM188.3 106.48C185.66 106.48 183.95 104.44 183.95 101.5C183.95 98.68 185.69 96.7 188.36 96.7C191.15 96.7 192.98 98.38 192.98 101.02V101.74C192.98 104.62 191.12 106.48 188.3 106.48ZM199.716 92.44H203.166V89.14H199.716V92.44ZM199.746 109H203.106V94.18H199.746V109ZM212.943 109.24C217.683 109.24 220.203 107.47 220.203 104.47C220.203 103.27 219.633 102.13 218.643 101.59C217.593 100.99 216.393 100.78 214.293 100.57C212.493 100.39 211.083 100.24 210.363 100C209.493 99.7 209.343 99.1 209.343 98.47C209.343 97.21 210.663 96.37 213.003 96.37C215.463 96.37 216.513 97.3 216.543 99.22H219.573C219.573 95.86 217.533 93.94 212.913 93.94C208.893 93.94 206.013 95.74 206.013 98.71C206.013 99.85 206.493 100.93 207.303 101.53C208.203 102.19 209.763 102.49 212.073 102.7C213.723 102.85 215.133 103 215.853 103.27C216.633 103.54 216.843 104.05 216.843 104.62C216.843 105.97 215.643 106.81 212.913 106.81C210.033 106.81 209.043 105.76 209.043 104.05H206.013C206.013 106.96 207.843 109.24 212.943 109.24ZM223.028 114.94H226.388V109.12C226.388 108.52 226.328 106.99 226.298 106H226.328C226.958 107.92 228.878 109.24 231.818 109.24C236.078 109.24 238.778 106.12 238.778 101.32C238.778 96.85 236.108 93.94 231.878 93.94C228.938 93.94 226.958 95.38 226.358 97.63H226.328L226.388 94.18H223.028V114.94ZM231.158 106.48C228.278 106.48 226.388 104.86 226.388 102.34V101.56C226.448 98.59 228.308 96.7 231.098 96.7C233.768 96.7 235.418 98.56 235.418 101.41C235.418 104.5 233.738 106.48 231.158 106.48ZM248.813 109.24C253.553 109.24 256.583 106.33 256.583 101.62C256.583 96.88 253.553 93.94 248.813 93.94C244.103 93.94 241.073 96.88 241.073 101.62C241.073 106.33 244.103 109.24 248.813 109.24ZM248.813 106.48C246.083 106.48 244.433 104.62 244.433 101.62C244.433 98.59 246.083 96.7 248.813 96.7C251.543 96.7 253.223 98.59 253.223 101.62C253.223 104.62 251.543 106.48 248.813 106.48ZM265.592 109.24C270.332 109.24 272.852 107.47 272.852 104.47C272.852 103.27 272.282 102.13 271.292 101.59C270.242 100.99 269.042 100.78 266.942 100.57C265.142 100.39 263.732 100.24 263.012 100C262.142 99.7 261.992 99.1 261.992 98.47C261.992 97.21 263.312 96.37 265.652 96.37C268.112 96.37 269.162 97.3 269.192 99.22H272.222C272.222 95.86 270.182 93.94 265.562 93.94C261.542 93.94 258.662 95.74 258.662 98.71C258.662 99.85 259.142 100.93 259.952 101.53C260.852 102.19 262.412 102.49 264.722 102.7C266.372 102.85 267.782 103 268.502 103.27C269.282 103.54 269.492 104.05 269.492 104.62C269.492 105.97 268.292 106.81 265.562 106.81C262.682 106.81 261.692 105.76 261.692 104.05H258.662C258.662 106.96 260.492 109.24 265.592 109.24ZM282.188 109.18C283.418 109.18 284.438 108.97 284.888 108.82V106.15C284.468 106.27 283.508 106.42 282.668 106.42C280.628 106.42 279.908 105.46 279.908 103.54V96.91H285.008V94.18H279.908V90.82H277.118L276.968 93.04C276.878 93.88 276.668 94.18 276.098 94.18H274.208V96.91H276.548V103.72C276.548 106.99 278.138 109.18 282.188 109.18ZM294.227 109.24C298.967 109.24 301.997 106.33 301.997 101.62C301.997 96.88 298.967 93.94 294.227 93.94C289.517 93.94 286.487 96.88 286.487 101.62C286.487 106.33 289.517 109.24 294.227 109.24ZM294.227 106.48C291.497 106.48 289.847 104.62 289.847 101.62C289.847 98.59 291.497 96.7 294.227 96.7C296.957 96.7 298.637 98.59 298.637 101.62C298.637 104.62 296.957 106.48 294.227 106.48ZM311.006 109.24C315.746 109.24 318.266 107.47 318.266 104.47C318.266 103.27 317.696 102.13 316.706 101.59C315.656 100.99 314.456 100.78 312.356 100.57C310.556 100.39 309.146 100.24 308.426 100C307.556 99.7 307.406 99.1 307.406 98.47C307.406 97.21 308.726 96.37 311.066 96.37C313.526 96.37 314.576 97.3 314.606 99.22H317.636C317.636 95.86 315.596 93.94 310.976 93.94C306.956 93.94 304.076 95.74 304.076 98.71C304.076 99.85 304.556 100.93 305.366 101.53C306.266 102.19 307.826 102.49 310.136 102.7C311.786 102.85 313.196 103 313.916 103.27C314.696 103.54 314.906 104.05 314.906 104.62C314.906 105.97 313.706 106.81 310.976 106.81C308.096 106.81 307.106 105.76 307.106 104.05H304.076C304.076 106.96 305.906 109.24 311.006 109.24ZM332.97 109.24C336.24 109.24 338.01 107.92 338.49 105.73H338.52C338.52 106.93 338.43 108.28 338.37 109H341.73V99.97C341.73 96.07 339.09 93.94 334.59 93.94C330.36 93.94 327.78 95.71 327.78 98.68C327.78 98.95 327.81 99.34 327.84 99.55H330.93C330.9 99.31 330.9 99.07 330.9 98.98C330.9 97.33 332.19 96.46 334.47 96.46C337.08 96.46 338.37 97.45 338.37 99.67V100.72H332.88C328.92 100.72 327.33 102.49 327.33 104.74C327.33 107.62 329.58 109.24 332.97 109.24ZM333.66 106.72C331.62 106.72 330.42 105.94 330.42 104.59C330.42 103.42 331.26 102.76 333.18 102.76H338.37V103.03C338.37 105.31 336.57 106.72 333.66 106.72ZM351.532 109H354.892V101.77C354.892 98.59 356.422 96.82 358.702 96.82C360.712 96.82 361.822 98.14 361.822 100.24V109H365.182V101.65C365.182 98.56 366.682 96.82 369.022 96.82C371.032 96.82 372.082 98.14 372.082 100.3V109H375.442V99.55C375.442 96.07 373.552 93.94 370.252 93.94C367.432 93.94 365.632 95.44 365.092 97.84H365.062C364.702 95.44 362.842 93.94 359.962 93.94C357.262 93.94 355.462 95.53 354.802 98.08H354.772L354.892 94.18H351.532V109ZM384.585 109.24C387.885 109.24 389.955 107.68 390.585 104.86H390.615C390.615 106.42 390.555 108.01 390.465 109H393.825V94.18H390.465V100.75C390.465 104.35 388.575 106.36 385.575 106.36C383.145 106.36 381.705 105.04 381.705 102.7V94.18H378.345V103.18C378.345 107.11 380.715 109.24 384.585 109.24ZM403.562 109.24C406.592 109.24 408.452 107.74 409.022 105.4H409.082C409.022 106.84 408.992 108.13 408.932 109H412.292V88.21H408.932V96.79H408.902C408.302 95.05 406.562 93.94 403.772 93.94C399.362 93.94 396.572 97.03 396.572 101.5C396.572 106.12 399.272 109.24 403.562 109.24ZM404.252 106.48C401.612 106.48 399.902 104.44 399.902 101.5C399.902 98.68 401.642 96.7 404.312 96.7C407.102 96.7 408.932 98.38 408.932 101.02V101.74C408.932 104.62 407.072 106.48 404.252 106.48ZM420.798 109.24C424.068 109.24 425.838 107.92 426.318 105.73H426.348C426.348 106.93 426.258 108.28 426.198 109H429.558V99.97C429.558 96.07 426.918 93.94 422.418 93.94C418.188 93.94 415.608 95.71 415.608 98.68C415.608 98.95 415.638 99.34 415.668 99.55H418.758C418.728 99.31 418.728 99.07 418.728 98.98C418.728 97.33 420.018 96.46 422.298 96.46C424.908 96.46 426.198 97.45 426.198 99.67V100.72H420.708C416.748 100.72 415.158 102.49 415.158 104.74C415.158 107.62 417.408 109.24 420.798 109.24ZM421.488 106.72C419.448 106.72 418.248 105.94 418.248 104.59C418.248 103.42 419.088 102.76 421.008 102.76H426.198V103.03C426.198 105.31 424.398 106.72 421.488 106.72ZM432.61 109H435.97V102.52C435.97 98.98 437.56 96.82 440.11 96.82C442.09 96.82 443.05 97.99 443.05 100.48C443.05 101.17 442.99 101.92 442.93 102.49H445.99C446.05 101.86 446.14 100.66 446.14 99.73C446.14 96.04 444.37 93.94 441.16 93.94C438.1 93.94 436.57 95.77 435.88 98.44H435.85L435.97 94.18H432.61V109ZM462.89 109.24C467.63 109.24 470.66 106.33 470.66 101.62C470.66 96.88 467.63 93.94 462.89 93.94C458.18 93.94 455.15 96.88 455.15 101.62C455.15 106.33 458.18 109.24 462.89 109.24ZM462.89 106.48C460.16 106.48 458.51 104.62 458.51 101.62C458.51 98.59 460.16 96.7 462.89 96.7C465.62 96.7 467.3 98.59 467.3 101.62C467.3 104.62 465.62 106.48 462.89 106.48ZM4.68 153H8.04V146.52C8.04 142.98 9.63 140.82 12.18 140.82C14.16 140.82 15.12 141.99 15.12 144.48C15.12 145.17 15.06 145.92 15 146.49H18.06C18.12 145.86 18.21 144.66 18.21 143.73C18.21 140.04 16.44 137.94 13.23 137.94C10.17 137.94 8.64 139.77 7.95 142.44H7.92L8.04 138.18H4.68V153ZM34.9613 145.05C34.9613 140.43 32.2913 137.94 28.0912 137.94C23.4112 137.94 20.4712 140.91 20.4712 145.71C20.4712 150.36 23.4112 153.24 28.0912 153.24C32.1412 153.24 34.8413 151.23 34.9613 147.93H31.9312C31.7812 149.67 30.3112 150.63 28.1512 150.63C25.6312 150.63 24.0412 149.1 23.8612 146.25H34.9613V145.05ZM31.9312 144.21H23.9512C24.3412 141.75 25.8112 140.55 28.1212 140.55C30.5512 140.55 31.9312 141.78 31.9312 144V144.21ZM37.8091 153H41.1691V132.21H37.8091V153ZM49.7175 153.24C52.9875 153.24 54.7575 151.92 55.2375 149.73H55.2675C55.2675 150.93 55.1775 152.28 55.1175 153H58.4775V143.97C58.4775 140.07 55.8375 137.94 51.3375 137.94C47.1075 137.94 44.5275 139.71 44.5275 142.68C44.5275 142.95 44.5575 143.34 44.5875 143.55H47.6775C47.6475 143.31 47.6475 143.07 47.6475 142.98C47.6475 141.33 48.9375 140.46 51.2175 140.46C53.8275 140.46 55.1175 141.45 55.1175 143.67V144.72H49.6275C45.6675 144.72 44.0775 146.49 44.0775 148.74C44.0775 151.62 46.3275 153.24 49.7175 153.24ZM50.4075 150.72C48.3675 150.72 47.1675 149.94 47.1675 148.59C47.1675 147.42 48.0075 146.76 49.9275 146.76H55.1175V147.03C55.1175 149.31 53.3175 150.72 50.4075 150.72ZM68.3398 153.24C72.5698 153.24 75.3898 150.93 75.3898 146.97H72.3598C72.3298 149.16 70.8598 150.48 68.4898 150.48C65.9998 150.48 64.4398 148.62 64.4398 145.59C64.4398 142.53 66.0298 140.7 68.6098 140.7C70.8598 140.7 72.2998 142.05 72.3298 144.27H75.3598C75.3598 140.34 72.6598 137.94 68.5198 137.94C64.0498 137.94 61.0798 140.85 61.0798 145.59C61.0798 150.33 63.9898 153.24 68.3398 153.24ZM78.3005 136.44H81.7505V133.14H78.3005V136.44ZM78.3305 153H81.6905V138.18H78.3305V153ZM92.3374 153.24C97.0774 153.24 100.107 150.33 100.107 145.62C100.107 140.88 97.0774 137.94 92.3374 137.94C87.6274 137.94 84.5974 140.88 84.5974 145.62C84.5974 150.33 87.6274 153.24 92.3374 153.24ZM92.3374 150.48C89.6074 150.48 87.9574 148.62 87.9574 145.62C87.9574 142.59 89.6074 140.7 92.3374 140.7C95.0674 140.7 96.7474 142.59 96.7474 145.62C96.7474 148.62 95.0674 150.48 92.3374 150.48ZM102.812 153H106.172V145.83C106.172 142.59 108.032 140.82 110.972 140.82C113.642 140.82 114.962 142.14 114.962 144.48V153H118.322V143.73C118.322 140.07 116.012 137.94 112.262 137.94C108.812 137.94 106.892 139.47 106.082 142.14H106.052L106.172 138.18H102.812V153ZM126.588 153.24C129.858 153.24 131.628 151.92 132.108 149.73H132.138C132.138 150.93 132.048 152.28 131.988 153H135.348V143.97C135.348 140.07 132.708 137.94 128.208 137.94C123.978 137.94 121.398 139.71 121.398 142.68C121.398 142.95 121.428 143.34 121.458 143.55H124.548C124.518 143.31 124.518 143.07 124.518 142.98C124.518 141.33 125.808 140.46 128.088 140.46C130.698 140.46 131.988 141.45 131.988 143.67V144.72H126.498C122.538 144.72 120.948 146.49 120.948 148.74C120.948 151.62 123.198 153.24 126.588 153.24ZM127.278 150.72C125.238 150.72 124.038 149.94 124.038 148.59C124.038 147.42 124.878 146.76 126.798 146.76H131.988V147.03C131.988 149.31 130.188 150.72 127.278 150.72ZM138.4 153H141.76V145.77C141.76 142.59 143.29 140.82 145.57 140.82C147.58 140.82 148.69 142.14 148.69 144.24V153H152.05V145.65C152.05 142.56 153.55 140.82 155.89 140.82C157.9 140.82 158.95 142.14 158.95 144.3V153H162.31V143.55C162.31 140.07 160.42 137.94 157.12 137.94C154.3 137.94 152.5 139.44 151.96 141.84H151.93C151.57 139.44 149.71 137.94 146.83 137.94C144.13 137.94 142.33 139.53 141.67 142.08H141.64L141.76 138.18H138.4V153ZM179.404 145.05C179.404 140.43 176.734 137.94 172.534 137.94C167.854 137.94 164.914 140.91 164.914 145.71C164.914 150.36 167.854 153.24 172.534 153.24C176.584 153.24 179.284 151.23 179.404 147.93H176.374C176.224 149.67 174.754 150.63 172.594 150.63C170.074 150.63 168.484 149.1 168.304 146.25H179.404V145.05ZM176.374 144.21H168.394C168.784 141.75 170.254 140.55 172.564 140.55C174.994 140.55 176.374 141.78 176.374 144V144.21ZM182.162 153H185.522V145.83C185.522 142.59 187.382 140.82 190.322 140.82C192.992 140.82 194.312 142.14 194.312 144.48V153H197.672V143.73C197.672 140.07 195.362 137.94 191.612 137.94C188.162 137.94 186.242 139.47 185.432 142.14H185.402L185.522 138.18H182.162V153ZM207.318 153.18C208.548 153.18 209.568 152.97 210.018 152.82V150.15C209.598 150.27 208.638 150.42 207.798 150.42C205.758 150.42 205.038 149.46 205.038 147.54V140.91H210.138V138.18H205.038V134.82H202.248L202.098 137.04C202.008 137.88 201.798 138.18 201.228 138.18H199.338V140.91H201.678V147.72C201.678 150.99 203.268 153.18 207.318 153.18ZM219.356 153.24C224.096 153.24 227.126 150.33 227.126 145.62C227.126 140.88 224.096 137.94 219.356 137.94C214.646 137.94 211.616 140.88 211.616 145.62C211.616 150.33 214.646 153.24 219.356 153.24ZM219.356 150.48C216.626 150.48 214.976 148.62 214.976 145.62C214.976 142.59 216.626 140.7 219.356 140.7C222.086 140.7 223.766 142.59 223.766 145.62C223.766 148.62 222.086 150.48 219.356 150.48ZM245.64 153.24C249.81 153.24 252.42 150.21 252.42 145.32C252.42 140.76 249.87 137.94 245.61 137.94C242.67 137.94 240.63 139.32 240 141.48H239.97C240 140.76 240.03 139.56 240.03 138.93V132.21H236.67V153H240.03C239.97 152.25 239.91 150.9 239.91 149.85H239.94C240.54 151.92 242.58 153.24 245.64 153.24ZM244.77 150.48C241.86 150.48 240.03 148.89 240.03 146.31V145.56C240.03 142.56 241.89 140.7 244.83 140.7C247.47 140.7 249.06 142.5 249.06 145.41C249.06 148.56 247.41 150.48 244.77 150.48ZM259.623 153.24C262.893 153.24 264.663 151.92 265.143 149.73H265.173C265.173 150.93 265.083 152.28 265.023 153H268.383V143.97C268.383 140.07 265.743 137.94 261.243 137.94C257.013 137.94 254.433 139.71 254.433 142.68C254.433 142.95 254.463 143.34 254.493 143.55H257.583C257.553 143.31 257.553 143.07 257.553 142.98C257.553 141.33 258.843 140.46 261.123 140.46C263.733 140.46 265.023 141.45 265.023 143.67V144.72H259.533C255.573 144.72 253.983 146.49 253.983 148.74C253.983 151.62 256.233 153.24 259.623 153.24ZM260.313 150.72C258.273 150.72 257.073 149.94 257.073 148.59C257.073 147.42 257.913 146.76 259.833 146.76H265.023V147.03C265.023 149.31 263.223 150.72 260.313 150.72ZM271.436 153H274.796V145.83C274.796 142.59 276.656 140.82 279.596 140.82C282.266 140.82 283.586 142.14 283.586 144.48V153H286.946V143.73C286.946 140.07 284.636 137.94 280.886 137.94C277.436 137.94 275.516 139.47 274.706 142.14H274.676L274.796 138.18H271.436V153ZM296.801 153.24C301.031 153.24 303.851 150.93 303.851 146.97H300.821C300.791 149.16 299.321 150.48 296.951 150.48C294.461 150.48 292.901 148.62 292.901 145.59C292.901 142.53 294.491 140.7 297.071 140.7C299.321 140.7 300.761 142.05 300.791 144.27H303.821C303.821 140.34 301.121 137.94 296.981 137.94C292.511 137.94 289.541 140.85 289.541 145.59C289.541 150.33 292.451 153.24 296.801 153.24ZM311.13 136.65H313.77L316.98 132.45H313.47L311.13 136.65ZM311.13 153.24C314.4 153.24 316.17 151.92 316.65 149.73H316.68C316.68 150.93 316.59 152.28 316.53 153H319.89V143.97C319.89 140.07 317.25 137.94 312.75 137.94C308.52 137.94 305.94 139.71 305.94 142.68C305.94 142.95 305.97 143.34 306 143.55H309.09C309.06 143.31 309.06 143.07 309.06 142.98C309.06 141.33 310.35 140.46 312.63 140.46C315.24 140.46 316.53 141.45 316.53 143.67V144.72H311.04C307.08 144.72 305.49 146.49 305.49 148.74C305.49 151.62 307.74 153.24 311.13 153.24ZM311.82 150.72C309.78 150.72 308.58 149.94 308.58 148.59C308.58 147.42 309.42 146.76 311.34 146.76H316.53V147.03C316.53 149.31 314.73 150.72 311.82 150.72ZM322.943 153H326.303V146.52C326.303 142.98 327.893 140.82 330.443 140.82C332.423 140.82 333.383 141.99 333.383 144.48C333.383 145.17 333.323 145.92 333.263 146.49H336.323C336.383 145.86 336.473 144.66 336.473 143.73C336.473 140.04 334.703 137.94 331.493 137.94C328.433 137.94 326.903 139.77 326.213 142.44H326.183L326.303 138.18H322.943V153ZM339.274 136.44H342.724V133.14H339.274V136.44ZM339.304 153H342.664V138.18H339.304V153ZM353.311 153.24C358.051 153.24 361.081 150.33 361.081 145.62C361.081 140.88 358.051 137.94 353.311 137.94C348.601 137.94 345.571 140.88 345.571 145.62C345.571 150.33 348.601 153.24 353.311 153.24ZM353.311 150.48C350.581 150.48 348.931 148.62 348.931 145.62C348.931 142.59 350.581 140.7 353.311 140.7C356.041 140.7 357.721 142.59 357.721 145.62C357.721 148.62 356.041 150.48 353.311 150.48ZM370.624 158.94H373.984V153.12C373.984 152.52 373.924 150.99 373.894 150H373.924C374.554 151.92 376.474 153.24 379.414 153.24C383.674 153.24 386.374 150.12 386.374 145.32C386.374 140.85 383.704 137.94 379.474 137.94C376.534 137.94 374.554 139.38 373.954 141.63H373.924L373.984 138.18H370.624V158.94ZM378.754 150.48C375.874 150.48 373.984 148.86 373.984 146.34V145.56C374.044 142.59 375.904 140.7 378.694 140.7C381.364 140.7 383.014 142.56 383.014 145.41C383.014 148.5 381.334 150.48 378.754 150.48ZM393.578 153.24C396.848 153.24 398.618 151.92 399.098 149.73H399.128C399.128 150.93 399.038 152.28 398.978 153H402.338V143.97C402.338 140.07 399.698 137.94 395.198 137.94C390.968 137.94 388.388 139.71 388.388 142.68C388.388 142.95 388.418 143.34 388.448 143.55H391.538C391.508 143.31 391.508 143.07 391.508 142.98C391.508 141.33 392.798 140.46 395.078 140.46C397.688 140.46 398.978 141.45 398.978 143.67V144.72H393.488C389.528 144.72 387.938 146.49 387.938 148.74C387.938 151.62 390.188 153.24 393.578 153.24ZM394.268 150.72C392.228 150.72 391.028 149.94 391.028 148.59C391.028 147.42 391.868 146.76 393.788 146.76H398.978V147.03C398.978 149.31 397.178 150.72 394.268 150.72ZM405.39 153H408.75V146.52C408.75 142.98 410.34 140.82 412.89 140.82C414.87 140.82 415.83 141.99 415.83 144.48C415.83 145.17 415.77 145.92 415.71 146.49H418.77C418.83 145.86 418.92 144.66 418.92 143.73C418.92 140.04 417.15 137.94 413.94 137.94C410.88 137.94 409.35 139.77 408.66 142.44H408.63L408.75 138.18H405.39V153ZM426.851 153.24C430.121 153.24 431.891 151.92 432.371 149.73H432.401C432.401 150.93 432.311 152.28 432.251 153H435.611V143.97C435.611 140.07 432.971 137.94 428.471 137.94C424.241 137.94 421.661 139.71 421.661 142.68C421.661 142.95 421.691 143.34 421.721 143.55H424.811C424.781 143.31 424.781 143.07 424.781 142.98C424.781 141.33 426.071 140.46 428.351 140.46C430.961 140.46 432.251 141.45 432.251 143.67V144.72H426.761C422.801 144.72 421.211 146.49 421.211 148.74C421.211 151.62 423.461 153.24 426.851 153.24ZM427.541 150.72C425.501 150.72 424.301 149.94 424.301 148.59C424.301 147.42 425.141 146.76 427.061 146.76H432.251V147.03C432.251 149.31 430.451 150.72 427.541 150.72ZM452.703 153.24C457.443 153.24 460.473 150.33 460.473 145.62C460.473 140.88 457.443 137.94 452.703 137.94C447.993 137.94 444.963 140.88 444.963 145.62C444.963 150.33 447.993 153.24 452.703 153.24ZM452.703 150.48C449.973 150.48 448.323 148.62 448.323 145.62C448.323 142.59 449.973 140.7 452.703 140.7C455.433 140.7 457.113 142.59 457.113 145.62C457.113 148.62 455.433 150.48 452.703 150.48ZM469.481 153.24C474.221 153.24 476.741 151.47 476.741 148.47C476.741 147.27 476.171 146.13 475.181 145.59C474.131 144.99 472.931 144.78 470.831 144.57C469.031 144.39 467.621 144.24 466.901 144C466.031 143.7 465.881 143.1 465.881 142.47C465.881 141.21 467.201 140.37 469.541 140.37C472.001 140.37 473.051 141.3 473.081 143.22H476.111C476.111 139.86 474.071 137.94 469.451 137.94C465.431 137.94 462.551 139.74 462.551 142.71C462.551 143.85 463.031 144.93 463.841 145.53C464.741 146.19 466.301 146.49 468.611 146.7C470.261 146.85 471.671 147 472.391 147.27C473.171 147.54 473.381 148.05 473.381 148.62C473.381 149.97 472.181 150.81 469.451 150.81C466.571 150.81 465.581 149.76 465.581 148.05H462.551C462.551 150.96 464.381 153.24 469.481 153.24ZM4.74 180.44H8.22V177.14H4.74V180.44ZM2.94 203.27C6.48 203.27 8.16 200.9 8.16 197.42V182.18H4.8V197.3C4.8 199.31 3.99 200.48 2.1 200.48C1.41 200.48 0.69 200.39 0.12 200.27V202.94C0.54 203.06 1.59 203.27 2.94 203.27ZM18.807 197.24C23.547 197.24 26.577 194.33 26.577 189.62C26.577 184.88 23.547 181.94 18.807 181.94C14.097 181.94 11.067 184.88 11.067 189.62C11.067 194.33 14.097 197.24 18.807 197.24ZM18.807 194.48C16.077 194.48 14.427 192.62 14.427 189.62C14.427 186.59 16.077 184.7 18.807 184.7C21.537 184.7 23.217 186.59 23.217 189.62C23.217 192.62 21.537 194.48 18.807 194.48ZM33.8027 197H37.7927L44.2127 182.18H40.7027L35.9927 193.85H35.9327L31.2827 182.18H27.3527L33.8027 197ZM59.9438 189.05C59.9438 184.43 57.2738 181.94 53.0738 181.94C48.3938 181.94 45.4538 184.91 45.4538 189.71C45.4538 194.36 48.3938 197.24 53.0738 197.24C57.1238 197.24 59.8238 195.23 59.9438 191.93H56.9138C56.7638 193.67 55.2938 194.63 53.1338 194.63C50.6138 194.63 49.0238 193.1 48.8438 190.25H59.9438V189.05ZM56.9138 188.21H48.9338C49.3238 185.75 50.7938 184.55 53.1038 184.55C55.5338 184.55 56.9138 185.78 56.9138 188V188.21ZM62.7016 197H66.0616V189.83C66.0616 186.59 67.9216 184.82 70.8616 184.82C73.5316 184.82 74.8516 186.14 74.8516 188.48V197H78.2116V187.73C78.2116 184.07 75.9016 181.94 72.1516 181.94C68.7016 181.94 66.7816 183.47 65.9716 186.14H65.9416L66.0616 182.18H62.7016V197ZM87.7373 197.24C92.4773 197.24 94.9973 195.47 94.9973 192.47C94.9973 191.27 94.4273 190.13 93.4373 189.59C92.3873 188.99 91.1873 188.78 89.0873 188.57C87.2873 188.39 85.8773 188.24 85.1573 188C84.2873 187.7 84.1373 187.1 84.1373 186.47C84.1373 185.21 85.4573 184.37 87.7973 184.37C90.2573 184.37 91.3073 185.3 91.3373 187.22H94.3673C94.3673 183.86 92.3273 181.94 87.7073 181.94C83.6873 181.94 80.8073 183.74 80.8073 186.71C80.8073 187.85 81.2873 188.93 82.0973 189.53C82.9973 190.19 84.5573 190.49 86.8673 190.7C88.5173 190.85 89.9273 191 90.6473 191.27C91.4273 191.54 91.6373 192.05 91.6373 192.62C91.6373 193.97 90.4373 194.81 87.7073 194.81C84.8273 194.81 83.8373 193.76 83.8373 192.05H80.8073C80.8073 194.96 82.6373 197.24 87.7373 197.24ZM104.482 197H107.842V189.83C107.842 186.59 109.702 184.82 112.642 184.82C115.312 184.82 116.632 186.14 116.632 188.48V197H119.992V187.73C119.992 184.07 117.682 181.94 113.932 181.94C110.482 181.94 108.562 183.47 107.752 186.14H107.722L107.842 182.18H104.482V197ZM130.328 197.24C135.068 197.24 138.098 194.33 138.098 189.62C138.098 184.88 135.068 181.94 130.328 181.94C125.618 181.94 122.588 184.88 122.588 189.62C122.588 194.33 125.618 197.24 130.328 197.24ZM130.328 194.48C127.598 194.48 125.948 192.62 125.948 189.62C125.948 186.59 127.598 184.7 130.328 184.7C133.058 184.7 134.738 186.59 134.738 189.62C134.738 192.62 133.058 194.48 130.328 194.48ZM147.791 197H156.821C161.711 197 163.901 194.81 163.901 191.27C163.901 188.72 162.431 187.04 159.971 186.68V186.65C162.071 186.26 163.151 184.67 163.151 182.42C163.151 179.24 160.751 177.26 156.131 177.26H147.791V197ZM151.391 185.72V180.08H156.101C158.801 180.08 159.941 181.19 159.941 182.96C159.941 184.7 158.801 185.72 156.461 185.72H151.391ZM151.391 194.18V188.06H156.641C159.101 188.06 160.481 189.2 160.481 190.91C160.481 192.92 159.461 194.18 156.761 194.18H151.391ZM166.635 197H169.995V190.52C169.995 186.98 171.585 184.82 174.135 184.82C176.115 184.82 177.075 185.99 177.075 188.48C177.075 189.17 177.015 189.92 176.955 190.49H180.015C180.075 189.86 180.165 188.66 180.165 187.73C180.165 184.04 178.395 181.94 175.185 181.94C172.125 181.94 170.595 183.77 169.905 186.44H169.875L169.995 182.18H166.635V197ZM188.096 197.24C191.366 197.24 193.136 195.92 193.616 193.73H193.646C193.646 194.93 193.556 196.28 193.496 197H196.856V187.97C196.856 184.07 194.216 181.94 189.716 181.94C185.486 181.94 182.906 183.71 182.906 186.68C182.906 186.95 182.936 187.34 182.966 187.55H186.056C186.026 187.31 186.026 187.07 186.026 186.98C186.026 185.33 187.316 184.46 189.596 184.46C192.206 184.46 193.496 185.45 193.496 187.67V188.72H188.006C184.046 188.72 182.456 190.49 182.456 192.74C182.456 195.62 184.706 197.24 188.096 197.24ZM188.786 194.72C186.746 194.72 185.546 193.94 185.546 192.59C185.546 191.42 186.386 190.76 188.306 190.76H193.496V191.03C193.496 193.31 191.696 194.72 188.786 194.72ZM206.388 197.24C211.128 197.24 213.648 195.47 213.648 192.47C213.648 191.27 213.078 190.13 212.088 189.59C211.038 188.99 209.838 188.78 207.738 188.57C205.938 188.39 204.528 188.24 203.808 188C202.938 187.7 202.788 187.1 202.788 186.47C202.788 185.21 204.108 184.37 206.448 184.37C208.908 184.37 209.958 185.3 209.988 187.22H213.018C213.018 183.86 210.978 181.94 206.358 181.94C202.338 181.94 199.458 183.74 199.458 186.71C199.458 187.85 199.938 188.93 200.748 189.53C201.648 190.19 203.208 190.49 205.518 190.7C207.168 190.85 208.578 191 209.298 191.27C210.078 191.54 210.288 192.05 210.288 192.62C210.288 193.97 209.088 194.81 206.358 194.81C203.478 194.81 202.488 193.76 202.488 192.05H199.458C199.458 194.96 201.288 197.24 206.388 197.24ZM216.474 180.44H219.924V177.14H216.474V180.44ZM216.504 197H219.864V182.18H216.504V197ZM223.311 197H226.671V176.21H223.311V197ZM229.999 201.14C232.609 200.93 233.929 199.46 233.929 195.92V193.1H230.539V197H231.949V197.09C231.949 198.56 231.379 199.28 229.999 199.4V201.14ZM251.274 197.24C255.504 197.24 258.324 194.93 258.324 190.97H255.294C255.264 193.16 253.794 194.48 251.424 194.48C248.934 194.48 247.374 192.62 247.374 189.59C247.374 186.53 248.964 184.7 251.544 184.7C253.794 184.7 255.234 186.05 255.264 188.27H258.294C258.294 184.34 255.594 181.94 251.454 181.94C246.984 181.94 244.014 184.85 244.014 189.59C244.014 194.33 246.924 197.24 251.274 197.24ZM268.435 197.24C273.175 197.24 276.205 194.33 276.205 189.62C276.205 184.88 273.175 181.94 268.435 181.94C263.725 181.94 260.695 184.88 260.695 189.62C260.695 194.33 263.725 197.24 268.435 197.24ZM268.435 194.48C265.705 194.48 264.055 192.62 264.055 189.62C264.055 186.59 265.705 184.7 268.435 184.7C271.165 184.7 272.845 186.59 272.845 189.62C272.845 192.62 271.165 194.48 268.435 194.48ZM278.909 197H282.269V189.77C282.269 186.59 283.799 184.82 286.079 184.82C288.089 184.82 289.199 186.14 289.199 188.24V197H292.559V189.65C292.559 186.56 294.059 184.82 296.399 184.82C298.409 184.82 299.459 186.14 299.459 188.3V197H302.819V187.55C302.819 184.07 300.929 181.94 297.629 181.94C294.809 181.94 293.009 183.44 292.469 185.84H292.439C292.079 183.44 290.219 181.94 287.339 181.94C284.639 181.94 282.839 183.53 282.179 186.08H282.149L282.269 182.18H278.909V197ZM305.963 202.94H309.323V197.12C309.323 196.52 309.263 194.99 309.233 194H309.263C309.893 195.92 311.813 197.24 314.753 197.24C319.013 197.24 321.713 194.12 321.713 189.32C321.713 184.85 319.043 181.94 314.813 181.94C311.873 181.94 309.893 183.38 309.293 185.63H309.263L309.323 182.18H305.963V202.94ZM314.093 194.48C311.213 194.48 309.323 192.86 309.323 190.34V189.56C309.383 186.59 311.243 184.7 314.033 184.7C316.703 184.7 318.353 186.56 318.353 189.41C318.353 192.5 316.673 194.48 314.093 194.48ZM328.916 197.24C332.186 197.24 333.956 195.92 334.436 193.73H334.466C334.466 194.93 334.376 196.28 334.316 197H337.676V187.97C337.676 184.07 335.036 181.94 330.536 181.94C326.306 181.94 323.726 183.71 323.726 186.68C323.726 186.95 323.756 187.34 323.786 187.55H326.876C326.846 187.31 326.846 187.07 326.846 186.98C326.846 185.33 328.136 184.46 330.416 184.46C333.026 184.46 334.316 185.45 334.316 187.67V188.72H328.826C324.866 188.72 323.276 190.49 323.276 192.74C323.276 195.62 325.526 197.24 328.916 197.24ZM329.606 194.72C327.566 194.72 326.366 193.94 326.366 192.59C326.366 191.42 327.206 190.76 329.126 190.76H334.316V191.03C334.316 193.31 332.516 194.72 329.606 194.72ZM340.729 197H344.089V190.52C344.089 186.98 345.679 184.82 348.229 184.82C350.209 184.82 351.169 185.99 351.169 188.48C351.169 189.17 351.109 189.92 351.049 190.49H354.109C354.169 189.86 354.259 188.66 354.259 187.73C354.259 184.04 352.489 181.94 349.279 181.94C346.219 181.94 344.689 183.77 343.999 186.44H343.969L344.089 182.18H340.729V197ZM363.57 197.18C364.8 197.18 365.82 196.97 366.27 196.82V194.15C365.85 194.27 364.89 194.42 364.05 194.42C362.01 194.42 361.29 193.46 361.29 191.54V184.91H366.39V182.18H361.29V178.82H358.5L358.35 181.04C358.26 181.88 358.05 182.18 357.48 182.18H355.59V184.91H357.93V191.72C357.93 194.99 359.52 197.18 363.57 197.18ZM368.995 180.44H372.445V177.14H368.995V180.44ZM369.025 197H372.385V182.18H369.025V197ZM375.832 197H379.192V176.21H375.832V197ZM382.61 197H385.97V189.98C385.97 186.65 387.83 184.82 390.8 184.82C393.47 184.82 394.79 186.14 394.79 188.48V197H398.15V187.73C398.15 184.07 395.84 181.94 392.09 181.94C388.61 181.94 386.69 183.47 385.91 186.17H385.88C385.91 185.36 385.97 183.65 385.97 182.93V176.21H382.61V197ZM406.413 197.24C409.683 197.24 411.453 195.92 411.933 193.73H411.963C411.963 194.93 411.873 196.28 411.813 197H415.173V187.97C415.173 184.07 412.533 181.94 408.033 181.94C403.803 181.94 401.223 183.71 401.223 186.68C401.223 186.95 401.253 187.34 401.283 187.55H404.373C404.343 187.31 404.343 187.07 404.343 186.98C404.343 185.33 405.633 184.46 407.913 184.46C410.523 184.46 411.813 185.45 411.813 187.67V188.72H406.323C402.363 188.72 400.773 190.49 400.773 192.74C400.773 195.62 403.023 197.24 406.413 197.24ZM407.103 194.72C405.063 194.72 403.863 193.94 403.863 192.59C403.863 191.42 404.703 190.76 406.623 190.76H411.813V191.03C411.813 193.31 410.013 194.72 407.103 194.72ZM418.225 197H421.585V189.83C421.585 186.59 423.445 184.82 426.385 184.82C429.055 184.82 430.375 186.14 430.375 188.48V197H433.735V187.73C433.735 184.07 431.425 181.94 427.675 181.94C424.225 181.94 422.305 183.47 421.495 186.14H421.465L421.585 182.18H418.225V197ZM443.321 197.24C446.351 197.24 448.211 195.74 448.781 193.4H448.841C448.781 194.84 448.751 196.13 448.691 197H452.051V176.21H448.691V184.79H448.661C448.061 183.05 446.321 181.94 443.531 181.94C439.121 181.94 436.331 185.03 436.331 189.5C436.331 194.12 439.031 197.24 443.321 197.24ZM444.011 194.48C441.371 194.48 439.661 192.44 439.661 189.5C439.661 186.68 441.401 184.7 444.071 184.7C446.861 184.7 448.691 186.38 448.691 189.02V189.74C448.691 192.62 446.831 194.48 444.011 194.48ZM462.626 197.24C467.366 197.24 470.396 194.33 470.396 189.62C470.396 184.88 467.366 181.94 462.626 181.94C457.916 181.94 454.886 184.88 454.886 189.62C454.886 194.33 457.916 197.24 462.626 197.24ZM462.626 194.48C459.896 194.48 458.246 192.62 458.246 189.62C458.246 186.59 459.896 184.7 462.626 184.7C465.356 184.7 467.036 186.59 467.036 189.62C467.036 192.62 465.356 194.48 462.626 194.48ZM11.16 241.24C15.9 241.24 18.42 239.47 18.42 236.47C18.42 235.27 17.85 234.13 16.86 233.59C15.81 232.99 14.61 232.78 12.51 232.57C10.71 232.39 9.3 232.24 8.58 232C7.71 231.7 7.56 231.1 7.56 230.47C7.56 229.21 8.88 228.37 11.22 228.37C13.68 228.37 14.73 229.3 14.76 231.22H17.79C17.79 227.86 15.75 225.94 11.13 225.94C7.11 225.94 4.23 227.74 4.23 230.71C4.23 231.85 4.71 232.93 5.52 233.53C6.42 234.19 7.98 234.49 10.29 234.7C11.94 234.85 13.35 235 14.07 235.27C14.85 235.54 15.06 236.05 15.06 236.62C15.06 237.97 13.86 238.81 11.13 238.81C8.25 238.81 7.26 237.76 7.26 236.05H4.23C4.23 238.96 6.06 241.24 11.16 241.24ZM28.4456 241.24C33.1856 241.24 36.2156 238.33 36.2156 233.62C36.2156 228.88 33.1856 225.94 28.4456 225.94C23.7356 225.94 20.7056 228.88 20.7056 233.62C20.7056 238.33 23.7356 241.24 28.4456 241.24ZM28.4456 238.48C25.7156 238.48 24.0656 236.62 24.0656 233.62C24.0656 230.59 25.7156 228.7 28.4456 228.7C31.1756 228.7 32.8556 230.59 32.8556 233.62C32.8556 236.62 31.1756 238.48 28.4456 238.48ZM38.9203 241H42.2803V233.83C42.2803 230.59 44.1403 228.82 47.0803 228.82C49.7503 228.82 51.0703 230.14 51.0703 232.48V241H54.4303V231.73C54.4303 228.07 52.1203 225.94 48.3703 225.94C44.9203 225.94 43.0003 227.47 42.1903 230.14H42.1603L42.2803 226.18H38.9203V241ZM57.566 241H60.926V233.98C60.926 230.65 62.786 228.82 65.756 228.82C68.426 228.82 69.746 230.14 69.746 232.48V241H73.106V231.73C73.106 228.07 70.796 225.94 67.046 225.94C63.566 225.94 61.646 227.47 60.866 230.17H60.836C60.866 229.36 60.926 227.65 60.926 226.93V220.21H57.566V241ZM83.4389 241.24C88.1789 241.24 91.2089 238.33 91.2089 233.62C91.2089 228.88 88.1789 225.94 83.4389 225.94C78.7289 225.94 75.6989 228.88 75.6989 233.62C75.6989 238.33 78.7289 241.24 83.4389 241.24ZM83.4389 238.48C80.7089 238.48 79.0589 236.62 79.0589 233.62C79.0589 230.59 80.7089 228.7 83.4389 228.7C86.1689 228.7 87.8489 230.59 87.8489 233.62C87.8489 236.62 86.1689 238.48 83.4389 238.48ZM100.218 241.24C104.958 241.24 107.478 239.47 107.478 236.47C107.478 235.27 106.908 234.13 105.918 233.59C104.868 232.99 103.668 232.78 101.568 232.57C99.7678 232.39 98.3578 232.24 97.6378 232C96.7678 231.7 96.6178 231.1 96.6178 230.47C96.6178 229.21 97.9378 228.37 100.278 228.37C102.738 228.37 103.788 229.3 103.818 231.22H106.848C106.848 227.86 104.808 225.94 100.188 225.94C96.1678 225.94 93.2878 227.74 93.2878 230.71C93.2878 231.85 93.7678 232.93 94.5778 233.53C95.4778 234.19 97.0378 234.49 99.3478 234.7C100.998 234.85 102.408 235 103.128 235.27C103.908 235.54 104.118 236.05 104.118 236.62C104.118 237.97 102.918 238.81 100.188 238.81C97.3078 238.81 96.3178 237.76 96.3178 236.05H93.2878C93.2878 238.96 95.1178 241.24 100.218 241.24ZM131.003 233.05C131.003 228.43 128.333 225.94 124.133 225.94C119.453 225.94 116.513 228.91 116.513 233.71C116.513 238.36 119.453 241.24 124.133 241.24C128.183 241.24 130.883 239.23 131.003 235.93H127.973C127.823 237.67 126.353 238.63 124.193 238.63C121.673 238.63 120.083 237.1 119.903 234.25H131.003V233.05ZM127.973 232.21H119.993C120.383 229.75 121.853 228.55 124.163 228.55C126.593 228.55 127.973 229.78 127.973 232V232.21ZM147.319 241.24C151.549 241.24 154.369 238.93 154.369 234.97H151.339C151.309 237.16 149.839 238.48 147.469 238.48C144.979 238.48 143.419 236.62 143.419 233.59C143.419 230.53 145.009 228.7 147.589 228.7C149.839 228.7 151.279 230.05 151.309 232.27H154.339C154.339 228.34 151.639 225.94 147.499 225.94C143.029 225.94 140.059 228.85 140.059 233.59C140.059 238.33 142.969 241.24 147.319 241.24ZM164.48 241.24C169.22 241.24 172.25 238.33 172.25 233.62C172.25 228.88 169.22 225.94 164.48 225.94C159.77 225.94 156.74 228.88 156.74 233.62C156.74 238.33 159.77 241.24 164.48 241.24ZM164.48 238.48C161.75 238.48 160.1 236.62 160.1 233.62C160.1 230.59 161.75 228.7 164.48 228.7C167.21 228.7 168.89 230.59 168.89 233.62C168.89 236.62 167.21 238.48 164.48 238.48ZM174.955 241H178.315V233.77C178.315 230.59 179.845 228.82 182.125 228.82C184.135 228.82 185.245 230.14 185.245 232.24V241H188.605V233.65C188.605 230.56 190.105 228.82 192.445 228.82C194.455 228.82 195.505 230.14 195.505 232.3V241H198.865V231.55C198.865 228.07 196.975 225.94 193.675 225.94C190.855 225.94 189.055 227.44 188.515 229.84H188.485C188.125 227.44 186.265 225.94 183.385 225.94C180.685 225.94 178.885 227.53 178.225 230.08H178.195L178.315 226.18H174.955V241ZM215.959 233.05C215.959 228.43 213.289 225.94 209.089 225.94C204.409 225.94 201.469 228.91 201.469 233.71C201.469 238.36 204.409 241.24 209.089 241.24C213.139 241.24 215.839 239.23 215.959 235.93H212.929C212.779 237.67 211.309 238.63 209.149 238.63C206.629 238.63 205.039 237.1 204.859 234.25H215.959V233.05ZM212.929 232.21H204.949C205.339 229.75 206.809 228.55 209.119 228.55C211.549 228.55 212.929 229.78 212.929 232V232.21ZM218.717 241H222.077V233.77C222.077 230.59 223.607 228.82 225.887 228.82C227.897 228.82 229.007 230.14 229.007 232.24V241H232.367V233.65C232.367 230.56 233.867 228.82 236.207 228.82C238.217 228.82 239.267 230.14 239.267 232.3V241H242.627V231.55C242.627 228.07 240.737 225.94 237.437 225.94C234.617 225.94 232.817 227.44 232.277 229.84H232.247C231.887 227.44 230.027 225.94 227.147 225.94C224.447 225.94 222.647 227.53 221.987 230.08H221.957L222.077 226.18H218.717V241ZM252.971 241.24C257.711 241.24 260.741 238.33 260.741 233.62C260.741 228.88 257.711 225.94 252.971 225.94C248.261 225.94 245.231 228.88 245.231 233.62C245.231 238.33 248.261 241.24 252.971 241.24ZM252.971 238.48C250.241 238.48 248.591 236.62 248.591 233.62C248.591 230.59 250.241 228.7 252.971 228.7C255.701 228.7 257.381 230.59 257.381 233.62C257.381 236.62 255.701 238.48 252.971 238.48ZM263.445 241H266.805V234.52C266.805 230.98 268.395 228.82 270.945 228.82C272.925 228.82 273.885 229.99 273.885 232.48C273.885 233.17 273.825 233.92 273.765 234.49H276.825C276.885 233.86 276.975 232.66 276.975 231.73C276.975 228.04 275.205 225.94 271.995 225.94C268.935 225.94 267.405 227.77 266.715 230.44H266.685L266.805 226.18H263.445V241ZM284.906 241.24C288.176 241.24 289.946 239.92 290.426 237.73H290.456C290.456 238.93 290.366 240.28 290.306 241H293.666V231.97C293.666 228.07 291.026 225.94 286.526 225.94C282.296 225.94 279.716 227.71 279.716 230.68C279.716 230.95 279.746 231.34 279.776 231.55H282.866C282.836 231.31 282.836 231.07 282.836 230.98C282.836 229.33 284.126 228.46 286.406 228.46C289.016 228.46 290.306 229.45 290.306 231.67V232.72H284.816C280.856 232.72 279.266 234.49 279.266 236.74C279.266 239.62 281.516 241.24 284.906 241.24ZM285.596 238.72C283.556 238.72 282.356 237.94 282.356 236.59C282.356 235.42 283.196 234.76 285.116 234.76H290.306V235.03C290.306 237.31 288.506 238.72 285.596 238.72ZM296.719 241H300.079V233.83C300.079 230.59 301.939 228.82 304.879 228.82C307.549 228.82 308.869 230.14 308.869 232.48V241H312.229V231.73C312.229 228.07 309.919 225.94 306.169 225.94C302.719 225.94 300.799 227.47 299.989 230.14H299.959L300.079 226.18H296.719V241ZM321.814 241.24C324.844 241.24 326.704 239.74 327.274 237.4H327.334C327.274 238.84 327.244 240.13 327.184 241H330.544V220.21H327.184V228.79H327.154C326.554 227.05 324.814 225.94 322.024 225.94C317.614 225.94 314.824 229.03 314.824 233.5C314.824 238.12 317.524 241.24 321.814 241.24ZM322.504 238.48C319.864 238.48 318.154 236.44 318.154 233.5C318.154 230.68 319.894 228.7 322.564 228.7C325.354 228.7 327.184 230.38 327.184 233.02V233.74C327.184 236.62 325.324 238.48 322.504 238.48ZM341.12 241.24C345.86 241.24 348.89 238.33 348.89 233.62C348.89 228.88 345.86 225.94 341.12 225.94C336.41 225.94 333.38 228.88 333.38 233.62C333.38 238.33 336.41 241.24 341.12 241.24ZM341.12 238.48C338.39 238.48 336.74 236.62 336.74 233.62C336.74 230.59 338.39 228.7 341.12 228.7C343.85 228.7 345.53 230.59 345.53 233.62C345.53 236.62 343.85 238.48 341.12 238.48ZM11.49 285.24C15.72 285.24 18.54 282.93 18.54 278.97H15.51C15.48 281.16 14.01 282.48 11.64 282.48C9.15 282.48 7.59 280.62 7.59 277.59C7.59 274.53 9.18 272.7 11.76 272.7C14.01 272.7 15.45 274.05 15.48 276.27H18.51C18.51 272.34 15.81 269.94 11.67 269.94C7.2 269.94 4.23 272.85 4.23 277.59C4.23 282.33 7.14 285.24 11.49 285.24ZM28.6507 285.24C33.3907 285.24 36.4207 282.33 36.4207 277.62C36.4207 272.88 33.3907 269.94 28.6507 269.94C23.9407 269.94 20.9107 272.88 20.9107 277.62C20.9107 282.33 23.9407 285.24 28.6507 285.24ZM28.6507 282.48C25.9207 282.48 24.2707 280.62 24.2707 277.62C24.2707 274.59 25.9207 272.7 28.6507 272.7C31.3807 272.7 33.0607 274.59 33.0607 277.62C33.0607 280.62 31.3807 282.48 28.6507 282.48ZM39.1254 285H42.4854V277.83C42.4854 274.59 44.3454 272.82 47.2854 272.82C49.9554 272.82 51.2754 274.14 51.2754 276.48V285H54.6354V275.73C54.6354 272.07 52.3254 269.94 48.5754 269.94C45.1254 269.94 43.2054 271.47 42.3954 274.14H42.3654L42.4854 270.18H39.1254V285ZM69.5911 290.94H72.9511V270.18H69.6211V273H69.5911C68.9911 271.11 67.2211 269.94 64.3411 269.94C60.2011 269.94 57.2311 272.91 57.2311 277.47C57.2311 282.21 59.9311 285.24 64.1911 285.24C67.0411 285.24 69.0211 283.8 69.5611 281.58H69.5911V290.94ZM64.9111 282.48C62.3011 282.48 60.5611 280.53 60.5611 277.47C60.5611 274.59 62.3611 272.7 64.9711 272.7C67.7611 272.7 69.5911 274.38 69.5911 276.99V277.71C69.5911 280.62 67.7311 282.48 64.9111 282.48ZM82.3268 285.24C85.6268 285.24 87.6968 283.68 88.3268 280.86H88.3568C88.3568 282.42 88.2968 284.01 88.2068 285H91.5668V270.18H88.2068V276.75C88.2068 280.35 86.3168 282.36 83.3168 282.36C80.8868 282.36 79.4468 281.04 79.4468 278.7V270.18H76.0868V279.18C76.0868 283.11 78.4568 285.24 82.3268 285.24ZM94.8532 268.44H98.3032V265.14H94.8532V268.44ZM94.8832 285H98.2432V270.18H94.8832V285ZM108.08 285.24C112.82 285.24 115.34 283.47 115.34 280.47C115.34 279.27 114.77 278.13 113.78 277.59C112.73 276.99 111.53 276.78 109.43 276.57C107.63 276.39 106.22 276.24 105.5 276C104.63 275.7 104.48 275.1 104.48 274.47C104.48 273.21 105.8 272.37 108.14 272.37C110.6 272.37 111.65 273.3 111.68 275.22H114.71C114.71 271.86 112.67 269.94 108.05 269.94C104.03 269.94 101.15 271.74 101.15 274.71C101.15 275.85 101.63 276.93 102.44 277.53C103.34 278.19 104.9 278.49 107.21 278.7C108.86 278.85 110.27 279 110.99 279.27C111.77 279.54 111.98 280.05 111.98 280.62C111.98 281.97 110.78 282.81 108.05 282.81C105.17 282.81 104.18 281.76 104.18 280.05H101.15C101.15 282.96 102.98 285.24 108.08 285.24ZM124.676 285.18C125.906 285.18 126.926 284.97 127.376 284.82V282.15C126.956 282.27 125.996 282.42 125.156 282.42C123.116 282.42 122.396 281.46 122.396 279.54V272.91H127.496V270.18H122.396V266.82H119.606L119.456 269.04C119.366 269.88 119.156 270.18 118.586 270.18H116.696V272.91H119.036V279.72C119.036 282.99 120.626 285.18 124.676 285.18ZM134.82 285.24C138.09 285.24 139.86 283.92 140.34 281.73H140.37C140.37 282.93 140.28 284.28 140.22 285H143.58V275.97C143.58 272.07 140.94 269.94 136.44 269.94C132.21 269.94 129.63 271.71 129.63 274.68C129.63 274.95 129.66 275.34 129.69 275.55H132.78C132.75 275.31 132.75 275.07 132.75 274.98C132.75 273.33 134.04 272.46 136.32 272.46C138.93 272.46 140.22 273.45 140.22 275.67V276.72H134.73C130.77 276.72 129.18 278.49 129.18 280.74C129.18 283.62 131.43 285.24 134.82 285.24ZM135.51 282.72C133.47 282.72 132.27 281.94 132.27 280.59C132.27 279.42 133.11 278.76 135.03 278.76H140.22V279.03C140.22 281.31 138.42 282.72 135.51 282.72ZM153.112 285.24C157.852 285.24 160.372 283.47 160.372 280.47C160.372 279.27 159.803 278.13 158.812 277.59C157.762 276.99 156.563 276.78 154.462 276.57C152.662 276.39 151.252 276.24 150.532 276C149.662 275.7 149.512 275.1 149.512 274.47C149.512 273.21 150.832 272.37 153.172 272.37C155.632 272.37 156.683 273.3 156.712 275.22H159.743C159.743 271.86 157.702 269.94 153.083 269.94C149.062 269.94 146.182 271.74 146.182 274.71C146.182 275.85 146.662 276.93 147.472 277.53C148.372 278.19 149.932 278.49 152.242 278.7C153.892 278.85 155.303 279 156.022 279.27C156.802 279.54 157.012 280.05 157.012 280.62C157.012 281.97 155.812 282.81 153.083 282.81C150.202 282.81 149.212 281.76 149.212 280.05H146.182C146.182 282.96 148.012 285.24 153.112 285.24ZM163.678 285H167.068V281.1H163.678V285Z" fill="white"/>
</svg>
