<svg width="485" height="389" viewBox="0 0 485 389" fill="none" xmlns="http://www.w3.org/2000/svg">
<path d="M9 10.41C3.96 10.41 1.92 12.78 1.92 17.01V20.34H7.74V15.39H5.37V15.27C5.37 13.95 6.18 12.96 9 12.96V10.41ZM18.06 10.41C13.02 10.41 10.98 12.78 10.98 17.01V20.34H16.8V15.39H14.43V15.27C14.43 13.95 15.24 12.96 18.06 12.96V10.41ZM460.832 372.16C465.872 372.16 467.912 369.79 467.912 365.56V362.23H462.092V367.18H464.462V367.3C464.462 368.62 463.652 369.61 460.832 369.61V372.16ZM469.922 372.16C474.962 372.16 477.002 369.79 477.002 365.56V362.23H471.182V367.18H473.552V367.3C473.552 368.62 472.742 369.61 469.922 369.61V372.16Z" fill="#FF00FF"/>
<path d="M28.653 30.3C35.373 30.3 37.233 27.33 37.233 24.15C37.233 22.32 36.453 20.94 35.103 20.25C33.873 19.59 31.953 19.26 29.883 18.93C28.173 18.69 25.953 18.33 25.083 17.91C24.303 17.55 23.913 16.89 23.913 15.78C23.913 13.98 25.683 12.75 28.653 12.75C31.743 12.75 33.333 14.13 33.333 17.04H36.573C36.573 12.54 34.443 9.96 28.593 9.96C23.433 9.96 20.343 12.48 20.343 16.08C20.343 17.94 21.093 19.29 22.293 20.04C23.373 20.73 25.473 21.18 27.453 21.45C29.163 21.69 31.293 21.96 32.283 22.35C33.213 22.68 33.663 23.31 33.663 24.39C33.663 26.01 32.643 27.51 28.623 27.51C24.843 27.51 23.643 25.77 23.643 23.25H20.403C20.403 26.85 22.113 30.3 28.653 30.3ZM54.0619 22.05C54.0619 17.43 51.3919 14.94 47.1919 14.94C42.5119 14.94 39.5719 17.91 39.5719 22.71C39.5719 27.36 42.5119 30.24 47.1919 30.24C51.2419 30.24 53.9419 28.23 54.0619 24.93H51.0319C50.8819 26.67 49.4119 27.63 47.2519 27.63C44.7319 27.63 43.1419 26.1 42.9619 23.25H54.0619V22.05ZM51.0319 21.21H43.0519C43.4419 18.75 44.9119 17.55 47.2219 17.55C49.6519 17.55 51.0319 18.78 51.0319 21V21.21ZM56.8198 30H60.1798V23.52C60.1798 19.98 61.7698 17.82 64.3198 17.82C66.2998 17.82 67.2598 18.99 67.2598 21.48C67.2598 22.17 67.1998 22.92 67.1398 23.49H70.1998C70.2598 22.86 70.3498 21.66 70.3498 20.73C70.3498 17.04 68.5798 14.94 65.3698 14.94C62.3098 14.94 60.7798 16.77 60.0898 19.44H60.0598L60.1798 15.18H56.8198V30ZM86.3501 30.24C89.3801 30.24 91.2401 28.74 91.8101 26.4H91.8701C91.8101 27.84 91.7801 29.13 91.7201 30H95.0801V9.21H91.7201V17.79H91.6901C91.0901 16.05 89.3501 14.94 86.5601 14.94C82.1501 14.94 79.3601 18.03 79.3601 22.5C79.3601 27.12 82.0601 30.24 86.3501 30.24ZM87.0401 27.48C84.4001 27.48 82.6901 25.44 82.6901 22.5C82.6901 19.68 84.4301 17.7 87.1001 17.7C89.8901 17.7 91.7201 19.38 91.7201 22.02V22.74C91.7201 25.62 89.8601 27.48 87.0401 27.48ZM105.656 30.24C110.396 30.24 113.426 27.33 113.426 22.62C113.426 17.88 110.396 14.94 105.656 14.94C100.946 14.94 97.9158 17.88 97.9158 22.62C97.9158 27.33 100.946 30.24 105.656 30.24ZM105.656 27.48C102.926 27.48 101.276 25.62 101.276 22.62C101.276 19.59 102.926 17.7 105.656 17.7C108.386 17.7 110.066 19.59 110.066 22.62C110.066 25.62 108.386 27.48 105.656 27.48ZM129.48 30.18C130.71 30.18 131.73 29.97 132.18 29.82V27.15C131.76 27.27 130.8 27.42 129.96 27.42C127.92 27.42 127.2 26.46 127.2 24.54V17.91H132.3V15.18H127.2V11.82H124.41L124.26 14.04C124.17 14.88 123.96 15.18 123.39 15.18H121.5V17.91H123.84V24.72C123.84 27.99 125.43 30.18 129.48 30.18ZM134.904 13.44H138.354V10.14H134.904V13.44ZM134.934 30H138.294V15.18H134.934V30ZM141.651 30H145.011V22.77C145.011 19.59 146.541 17.82 148.821 17.82C150.831 17.82 151.941 19.14 151.941 21.24V30H155.301V22.65C155.301 19.56 156.801 17.82 159.141 17.82C161.151 17.82 162.201 19.14 162.201 21.3V30H165.561V20.55C165.561 17.07 163.671 14.94 160.371 14.94C157.551 14.94 155.751 16.44 155.211 18.84H155.181C154.821 16.44 152.961 14.94 150.081 14.94C147.381 14.94 145.581 16.53 144.921 19.08H144.891L145.011 15.18H141.651V30ZM182.655 22.05C182.655 17.43 179.985 14.94 175.785 14.94C171.105 14.94 168.165 17.91 168.165 22.71C168.165 27.36 171.105 30.24 175.785 30.24C179.835 30.24 182.535 28.23 182.655 24.93H179.625C179.475 26.67 178.005 27.63 175.845 27.63C173.325 27.63 171.735 26.1 171.555 23.25H182.655V22.05ZM179.625 21.21H171.645C172.035 18.75 173.505 17.55 175.815 17.55C178.245 17.55 179.625 18.78 179.625 21V21.21ZM198.702 30.24C201.732 30.24 203.592 28.74 204.162 26.4H204.222C204.162 27.84 204.132 29.13 204.072 30H207.432V9.21H204.072V17.79H204.042C203.442 16.05 201.702 14.94 198.912 14.94C194.502 14.94 191.712 18.03 191.712 22.5C191.712 27.12 194.412 30.24 198.702 30.24ZM199.392 27.48C196.752 27.48 195.042 25.44 195.042 22.5C195.042 19.68 196.782 17.7 199.452 17.7C202.242 17.7 204.072 19.38 204.072 22.02V22.74C204.072 25.62 202.212 27.48 199.392 27.48ZM215.938 30.24C219.208 30.24 220.978 28.92 221.458 26.73H221.488C221.488 27.93 221.398 29.28 221.338 30H224.698V20.97C224.698 17.07 222.058 14.94 217.558 14.94C213.328 14.94 210.748 16.71 210.748 19.68C210.748 19.95 210.778 20.34 210.808 20.55H213.898C213.868 20.31 213.868 20.07 213.868 19.98C213.868 18.33 215.158 17.46 217.438 17.46C220.048 17.46 221.338 18.45 221.338 20.67V21.72H215.848C211.888 21.72 210.298 23.49 210.298 25.74C210.298 28.62 212.548 30.24 215.938 30.24ZM216.628 27.72C214.588 27.72 213.388 26.94 213.388 25.59C213.388 24.42 214.228 23.76 216.148 23.76H221.338V24.03C221.338 26.31 219.538 27.72 216.628 27.72ZM234.739 30H238.129L238.099 13.26H238.129L248.659 30H252.919V10.26H249.529L249.589 25.26H249.529L240.139 10.26H234.739V30ZM265.725 30.3C269.325 30.3 271.545 28.74 272.145 26.46H272.175C272.145 27.81 272.055 29.22 271.995 30H274.995V20.28H265.395V22.56H271.515V23.01C271.515 25.68 269.175 27.51 266.025 27.51C262.455 27.51 259.545 24.78 259.545 20.37C259.545 15.81 262.365 12.96 266.175 12.96C269.205 12.96 271.605 14.55 271.605 17.34C271.605 17.61 271.605 17.94 271.575 18.3H274.785C274.815 17.94 274.845 17.46 274.845 17.13C274.845 12.63 271.095 9.96 266.115 9.96C260.295 9.96 255.915 14.01 255.915 20.34C255.915 26.52 260.085 30.3 265.725 30.3ZM278.772 30H282.162V26.1H278.772V30ZM295.608 30.3C300.828 30.3 304.548 27.24 304.548 22.77V22.08H301.338V22.56C301.338 25.41 299.028 27.3 295.728 27.3C292.008 27.3 289.128 24.57 289.128 20.16C289.128 15.75 291.888 12.96 295.728 12.96C298.908 12.96 301.278 14.88 301.278 17.91C301.278 18.06 301.278 18.3 301.248 18.57H304.428C304.458 18.21 304.488 17.82 304.488 17.61C304.488 13.05 300.798 9.96 295.608 9.96C289.668 9.96 285.468 13.86 285.468 20.16C285.468 26.43 289.728 30.3 295.608 30.3ZM321.676 30H325.846L317.836 10.26H313.456L305.416 30H309.136L310.816 25.56H320.026L321.676 30ZM311.716 23.16L315.406 13.32H315.466L319.126 23.16H311.716ZM335.109 30.3C341.829 30.3 343.689 27.33 343.689 24.15C343.689 22.32 342.909 20.94 341.559 20.25C340.329 19.59 338.409 19.26 336.339 18.93C334.629 18.69 332.409 18.33 331.539 17.91C330.759 17.55 330.369 16.89 330.369 15.78C330.369 13.98 332.139 12.75 335.109 12.75C338.199 12.75 339.789 14.13 339.789 17.04H343.029C343.029 12.54 340.899 9.96 335.049 9.96C329.889 9.96 326.799 12.48 326.799 16.08C326.799 17.94 327.549 19.29 328.749 20.04C329.829 20.73 331.929 21.18 333.909 21.45C335.619 21.69 337.749 21.96 338.739 22.35C339.669 22.68 340.119 23.31 340.119 24.39C340.119 26.01 339.099 27.51 335.079 27.51C331.299 27.51 330.099 25.77 330.099 23.25H326.859C326.859 26.85 328.569 30.3 335.109 30.3ZM346.718 30H350.318V21.21H360.818V30H364.388V10.26H360.818V18.33H350.318V10.26H346.718V30ZM385.755 9.45H382.245L379.905 13.65H382.545L385.755 9.45ZM388.635 22.05C388.635 17.43 385.965 14.94 381.765 14.94C377.085 14.94 374.145 17.91 374.145 22.71C374.145 27.36 377.085 30.24 381.765 30.24C385.815 30.24 388.515 28.23 388.635 24.93H385.605C385.455 26.67 383.985 27.63 381.825 27.63C379.305 27.63 377.715 26.1 377.535 23.25H388.635V22.05ZM385.605 21.21H377.625C378.015 18.75 379.485 17.55 381.795 17.55C384.225 17.55 385.605 18.78 385.605 21V21.21ZM404.742 30.18C405.972 30.18 406.992 29.97 407.442 29.82V27.15C407.022 27.27 406.062 27.42 405.222 27.42C403.182 27.42 402.462 26.46 402.462 24.54V17.91H407.562V15.18H402.462V11.82H399.672L399.522 14.04C399.432 14.88 399.222 15.18 398.652 15.18H396.762V17.91H399.102V24.72C399.102 27.99 400.692 30.18 404.742 30.18ZM423.531 22.05C423.531 17.43 420.861 14.94 416.661 14.94C411.981 14.94 409.041 17.91 409.041 22.71C409.041 27.36 411.981 30.24 416.661 30.24C420.711 30.24 423.411 28.23 423.531 24.93H420.501C420.351 26.67 418.881 27.63 416.721 27.63C414.201 27.63 412.611 26.1 412.431 23.25H423.531V22.05ZM420.501 21.21H412.521C412.911 18.75 414.381 17.55 416.691 17.55C419.121 17.55 420.501 18.78 420.501 21V21.21ZM426.289 30H429.649V23.52C429.649 19.98 431.239 17.82 433.789 17.82C435.769 17.82 436.729 18.99 436.729 21.48C436.729 22.17 436.669 22.92 436.609 23.49H439.669C439.729 22.86 439.819 21.66 439.819 20.73C439.819 17.04 438.049 14.94 434.839 14.94C431.779 14.94 430.249 16.77 429.559 19.44H429.529L429.649 15.18H426.289V30ZM6.9 74.24C10.17 74.24 11.94 72.92 12.42 70.73H12.45C12.45 71.93 12.36 73.28 12.3 74H15.66V64.97C15.66 61.07 13.02 58.94 8.52 58.94C4.29 58.94 1.71 60.71 1.71 63.68C1.71 63.95 1.74 64.34 1.77 64.55H4.86C4.83 64.31 4.83 64.07 4.83 63.98C4.83 62.33 6.12 61.46 8.4 61.46C11.01 61.46 12.3 62.45 12.3 64.67V65.72H6.81C2.85 65.72 1.26 67.49 1.26 69.74C1.26 72.62 3.51 74.24 6.9 74.24ZM7.59 71.72C5.55 71.72 4.35 70.94 4.35 69.59C4.35 68.42 5.19 67.76 7.11 67.76H12.3V68.03C12.3 70.31 10.5 71.72 7.59 71.72ZM32.2713 74.24C36.5013 74.24 39.3213 71.93 39.3213 67.97H36.2913C36.2613 70.16 34.7913 71.48 32.4213 71.48C29.9313 71.48 28.3713 69.62 28.3713 66.59C28.3713 63.53 29.9613 61.7 32.5413 61.7C34.7913 61.7 36.2313 63.05 36.2613 65.27H39.2913C39.2913 61.34 36.5913 58.94 32.4513 58.94C27.9813 58.94 25.0113 61.85 25.0113 66.59C25.0113 71.33 27.9213 74.24 32.2713 74.24ZM49.432 74.24C54.172 74.24 57.202 71.33 57.202 66.62C57.202 61.88 54.172 58.94 49.432 58.94C44.722 58.94 41.692 61.88 41.692 66.62C41.692 71.33 44.722 74.24 49.432 74.24ZM49.432 71.48C46.702 71.48 45.052 69.62 45.052 66.62C45.052 63.59 46.702 61.7 49.432 61.7C52.162 61.7 53.842 63.59 53.842 66.62C53.842 69.62 52.162 71.48 49.432 71.48ZM59.9067 74H63.2667V66.77C63.2667 63.59 64.7967 61.82 67.0767 61.82C69.0867 61.82 70.1967 63.14 70.1967 65.24V74H73.5567V66.65C73.5567 63.56 75.0567 61.82 77.3967 61.82C79.4067 61.82 80.4567 63.14 80.4567 65.3V74H83.8167V64.55C83.8167 61.07 81.9267 58.94 78.6267 58.94C75.8067 58.94 74.0067 60.44 73.4667 62.84H73.4367C73.0767 60.44 71.2167 58.94 68.3367 58.94C65.6367 58.94 63.8367 60.53 63.1767 63.08H63.1467L63.2667 59.18H59.9067V74ZM95.9306 74.24C100.101 74.24 102.711 71.21 102.711 66.32C102.711 61.76 100.161 58.94 95.9006 58.94C92.9606 58.94 90.9206 60.32 90.2906 62.48H90.2606C90.2906 61.76 90.3206 60.56 90.3206 59.93V53.21H86.9606V74H90.3206C90.2606 73.25 90.2006 71.9 90.2006 70.85H90.2306C90.8306 72.92 92.8706 74.24 95.9306 74.24ZM95.0606 71.48C92.1506 71.48 90.3206 69.89 90.3206 67.31V66.56C90.3206 63.56 92.1806 61.7 95.1206 61.7C97.7606 61.7 99.3506 63.5 99.3506 66.41C99.3506 69.56 97.7006 71.48 95.0606 71.48ZM105.546 57.44H108.996V54.14H105.546V57.44ZM105.576 74H108.936V59.18H105.576V74ZM112.293 74H115.653V66.83C115.653 63.59 117.513 61.82 120.453 61.82C123.123 61.82 124.443 63.14 124.443 65.48V74H127.803V64.73C127.803 61.07 125.493 58.94 121.743 58.94C118.293 58.94 116.373 60.47 115.563 63.14H115.533L115.653 59.18H112.293V74ZM136.068 74.24C139.338 74.24 141.108 72.92 141.588 70.73H141.618C141.618 71.93 141.528 73.28 141.468 74H144.828V64.97C144.828 61.07 142.188 58.94 137.688 58.94C133.458 58.94 130.878 60.71 130.878 63.68C130.878 63.95 130.908 64.34 130.938 64.55H134.028C133.998 64.31 133.998 64.07 133.998 63.98C133.998 62.33 135.288 61.46 137.568 61.46C140.178 61.46 141.468 62.45 141.468 64.67V65.72H135.978C132.018 65.72 130.428 67.49 130.428 69.74C130.428 72.62 132.678 74.24 136.068 74.24ZM136.758 71.72C134.718 71.72 133.518 70.94 133.518 69.59C133.518 68.42 134.358 67.76 136.278 67.76H141.468V68.03C141.468 70.31 139.668 71.72 136.758 71.72ZM161.741 67.97H158.711C158.681 70.16 157.211 71.48 154.841 71.48C152.351 71.48 150.791 69.62 150.791 66.59C150.791 63.53 152.381 61.7 154.961 61.7C157.211 61.7 158.651 63.05 158.681 65.27H161.711C161.711 61.34 159.011 58.94 154.871 58.94C150.401 58.94 147.431 61.85 147.431 66.59C147.431 70.91 149.831 73.7 153.551 74.18L152.591 76.73C152.981 76.67 153.941 76.55 154.961 76.55C156.221 76.55 156.611 76.88 156.611 77.51C156.611 78.29 156.071 78.92 154.841 78.92C153.611 78.92 153.161 78.56 153.041 77.81H150.671C150.791 79.37 152.021 80.54 154.841 80.54C157.751 80.54 158.951 79.1 158.951 77.48C158.951 76.13 158.141 75.26 156.491 75.26C155.651 75.26 155.261 75.5 155.021 75.65L154.991 75.62L155.531 74.21C159.281 73.91 161.741 71.66 161.741 67.97ZM165.18 57.35H167.31C167.49 55.7 167.97 55.04 168.57 55.04C169.11 55.04 169.38 55.28 169.89 55.79L170.34 56.24C170.97 56.87 171.66 57.35 172.8 57.35C174.45 57.35 175.89 56.15 176.13 52.94H174.03C173.85 54.62 173.37 55.28 172.74 55.28C172.23 55.28 171.93 55.01 171.42 54.5L170.97 54.08C170.34 53.45 169.65 52.94 168.51 52.94C166.89 52.94 165.42 54.17 165.18 57.35ZM169.02 74.24C172.29 74.24 174.06 72.92 174.54 70.73H174.57C174.57 71.93 174.48 73.28 174.42 74H177.78V64.97C177.78 61.07 175.14 58.94 170.64 58.94C166.41 58.94 163.83 60.71 163.83 63.68C163.83 63.95 163.86 64.34 163.89 64.55H166.98C166.95 64.31 166.95 64.07 166.95 63.98C166.95 62.33 168.24 61.46 170.52 61.46C173.13 61.46 174.42 62.45 174.42 64.67V65.72H168.93C164.97 65.72 163.38 67.49 163.38 69.74C163.38 72.62 165.63 74.24 169.02 74.24ZM169.71 71.72C167.67 71.72 166.47 70.94 166.47 69.59C166.47 68.42 167.31 67.76 169.23 67.76H174.42V68.03C174.42 70.31 172.62 71.72 169.71 71.72ZM188.122 74.24C192.862 74.24 195.892 71.33 195.892 66.62C195.892 61.88 192.862 58.94 188.122 58.94C183.412 58.94 180.382 61.88 180.382 66.62C180.382 71.33 183.412 74.24 188.122 74.24ZM188.122 71.48C185.392 71.48 183.742 69.62 183.742 66.62C183.742 63.59 185.392 61.7 188.122 61.7C190.852 61.7 192.532 63.59 192.532 66.62C192.532 69.62 190.852 71.48 188.122 71.48ZM211.886 74.24C214.916 74.24 216.776 72.74 217.346 70.4H217.406C217.346 71.84 217.316 73.13 217.256 74H220.616V53.21H217.256V61.79H217.226C216.626 60.05 214.886 58.94 212.096 58.94C207.686 58.94 204.896 62.03 204.896 66.5C204.896 71.12 207.596 74.24 211.886 74.24ZM212.576 71.48C209.936 71.48 208.226 69.44 208.226 66.5C208.226 63.68 209.966 61.7 212.636 61.7C215.426 61.7 217.256 63.38 217.256 66.02V66.74C217.256 69.62 215.396 71.48 212.576 71.48ZM237.941 66.05C237.941 61.43 235.271 58.94 231.071 58.94C226.391 58.94 223.451 61.91 223.451 66.71C223.451 71.36 226.391 74.24 231.071 74.24C235.121 74.24 237.821 72.23 237.941 68.93H234.911C234.761 70.67 233.291 71.63 231.131 71.63C228.611 71.63 227.021 70.1 226.841 67.25H237.941V66.05ZM234.911 65.21H226.931C227.321 62.75 228.791 61.55 231.101 61.55C233.531 61.55 234.911 62.78 234.911 65V65.21ZM247.538 79.94H250.898V74.12C250.898 73.52 250.838 71.99 250.808 71H250.838C251.468 72.92 253.388 74.24 256.328 74.24C260.588 74.24 263.288 71.12 263.288 66.32C263.288 61.85 260.618 58.94 256.388 58.94C253.448 58.94 251.468 60.38 250.868 62.63H250.838L250.898 59.18H247.538V79.94ZM255.668 71.48C252.788 71.48 250.898 69.86 250.898 67.34V66.56C250.958 63.59 252.818 61.7 255.608 61.7C258.278 61.7 259.928 63.56 259.928 66.41C259.928 69.5 258.248 71.48 255.668 71.48ZM266.033 74H269.393V67.52C269.393 63.98 270.983 61.82 273.533 61.82C275.513 61.82 276.473 62.99 276.473 65.48C276.473 66.17 276.413 66.92 276.353 67.49H279.413C279.473 66.86 279.563 65.66 279.563 64.73C279.563 61.04 277.793 58.94 274.583 58.94C271.523 58.94 269.993 60.77 269.303 63.44H269.273L269.393 59.18H266.033V74ZM289.564 74.24C294.304 74.24 297.334 71.33 297.334 66.62C297.334 61.88 294.304 58.94 289.564 58.94C284.854 58.94 281.824 61.88 281.824 66.62C281.824 71.33 284.854 74.24 289.564 74.24ZM289.564 71.48C286.834 71.48 285.184 69.62 285.184 66.62C285.184 63.59 286.834 61.7 289.564 61.7C292.294 61.7 293.974 63.59 293.974 66.62C293.974 69.62 292.294 71.48 289.564 71.48ZM300.129 79.94H303.489V74.12C303.489 73.52 303.429 71.99 303.399 71H303.429C304.059 72.92 305.979 74.24 308.919 74.24C313.179 74.24 315.879 71.12 315.879 66.32C315.879 61.85 313.209 58.94 308.979 58.94C306.039 58.94 304.059 60.38 303.459 62.63H303.429L303.489 59.18H300.129V79.94ZM308.259 71.48C305.379 71.48 303.489 69.86 303.489 67.34V66.56C303.549 63.59 305.409 61.7 308.199 61.7C310.869 61.7 312.519 63.56 312.519 66.41C312.519 69.5 310.839 71.48 308.259 71.48ZM324.264 57.65H326.904L330.114 53.45H326.604L324.264 57.65ZM325.914 74.24C330.654 74.24 333.684 71.33 333.684 66.62C333.684 61.88 330.654 58.94 325.914 58.94C321.204 58.94 318.174 61.88 318.174 66.62C318.174 71.33 321.204 74.24 325.914 74.24ZM325.914 71.48C323.184 71.48 321.534 69.62 321.534 66.62C321.534 63.59 323.184 61.7 325.914 61.7C328.644 61.7 330.324 63.59 330.324 66.62C330.324 69.62 328.644 71.48 325.914 71.48ZM342.693 74.24C347.433 74.24 349.953 72.47 349.953 69.47C349.953 68.27 349.383 67.13 348.393 66.59C347.343 65.99 346.143 65.78 344.043 65.57C342.243 65.39 340.833 65.24 340.113 65C339.243 64.7 339.093 64.1 339.093 63.47C339.093 62.21 340.413 61.37 342.753 61.37C345.213 61.37 346.263 62.3 346.293 64.22H349.323C349.323 60.86 347.283 58.94 342.663 58.94C338.643 58.94 335.763 60.74 335.763 63.71C335.763 64.85 336.243 65.93 337.053 66.53C337.953 67.19 339.513 67.49 341.823 67.7C343.473 67.85 344.883 68 345.603 68.27C346.383 68.54 346.593 69.05 346.593 69.62C346.593 70.97 345.393 71.81 342.663 71.81C339.783 71.81 338.793 70.76 338.793 69.05H335.763C335.763 71.96 337.593 74.24 342.693 74.24ZM352.779 57.44H356.229V54.14H352.779V57.44ZM352.809 74H356.169V59.18H352.809V74ZM366.126 74.18C367.356 74.18 368.376 73.97 368.826 73.82V71.15C368.406 71.27 367.446 71.42 366.606 71.42C364.566 71.42 363.846 70.46 363.846 68.54V61.91H368.946V59.18H363.846V55.82H361.056L360.906 58.04C360.816 58.88 360.606 59.18 360.036 59.18H358.146V61.91H360.486V68.72C360.486 71.99 362.076 74.18 366.126 74.18ZM378.164 74.24C382.904 74.24 385.934 71.33 385.934 66.62C385.934 61.88 382.904 58.94 378.164 58.94C373.454 58.94 370.424 61.88 370.424 66.62C370.424 71.33 373.454 74.24 378.164 74.24ZM378.164 71.48C375.434 71.48 373.784 69.62 373.784 66.62C373.784 63.59 375.434 61.7 378.164 61.7C380.894 61.7 382.574 63.59 382.574 66.62C382.574 69.62 380.894 71.48 378.164 71.48ZM409.428 66.05C409.428 61.43 406.758 58.94 402.558 58.94C397.878 58.94 394.938 61.91 394.938 66.71C394.938 71.36 397.878 74.24 402.558 74.24C406.608 74.24 409.308 72.23 409.428 68.93H406.398C406.248 70.67 404.778 71.63 402.618 71.63C400.098 71.63 398.508 70.1 398.328 67.25H409.428V66.05ZM406.398 65.21H398.418C398.808 62.75 400.278 61.55 402.588 61.55C405.018 61.55 406.398 62.78 406.398 65V65.21ZM8.49 118.24C12.72 118.24 15.54 115.93 15.54 111.97H12.51C12.48 114.16 11.01 115.48 8.64 115.48C6.15 115.48 4.59 113.62 4.59 110.59C4.59 107.53 6.18 105.7 8.76 105.7C11.01 105.7 12.45 107.05 12.48 109.27H15.51C15.51 105.34 12.81 102.94 8.67 102.94C4.2 102.94 1.23 105.85 1.23 110.59C1.23 115.33 4.14 118.24 8.49 118.24ZM18.3607 118H21.7207V111.52C21.7207 107.98 23.3107 105.82 25.8607 105.82C27.8407 105.82 28.8007 106.99 28.8007 109.48C28.8007 110.17 28.7407 110.92 28.6807 111.49H31.7407C31.8007 110.86 31.8907 109.66 31.8907 108.73C31.8907 105.04 30.1207 102.94 26.9107 102.94C23.8507 102.94 22.3207 104.77 21.6307 107.44H21.6007L21.7207 103.18H18.3607V118ZM48.642 110.05C48.642 105.43 45.972 102.94 41.772 102.94C37.092 102.94 34.152 105.91 34.152 110.71C34.152 115.36 37.092 118.24 41.772 118.24C45.822 118.24 48.522 116.23 48.642 112.93H45.612C45.462 114.67 43.992 115.63 41.832 115.63C39.312 115.63 37.722 114.1 37.542 111.25H48.642V110.05ZM45.612 109.21H37.632C38.022 106.75 39.492 105.55 41.802 105.55C44.232 105.55 45.612 106.78 45.612 109V109.21ZM57.8798 118.24C62.6198 118.24 65.1398 116.47 65.1398 113.47C65.1398 112.27 64.5698 111.13 63.5798 110.59C62.5298 109.99 61.3298 109.78 59.2298 109.57C57.4298 109.39 56.0198 109.24 55.2998 109C54.4298 108.7 54.2798 108.1 54.2798 107.47C54.2798 106.21 55.5998 105.37 57.9398 105.37C60.3998 105.37 61.4498 106.3 61.4798 108.22H64.5098C64.5098 104.86 62.4698 102.94 57.8498 102.94C53.8298 102.94 50.9498 104.74 50.9498 107.71C50.9498 108.85 51.4298 109.93 52.2398 110.53C53.1398 111.19 54.6998 111.49 57.0098 111.7C58.6598 111.85 60.0698 112 60.7898 112.27C61.5698 112.54 61.7798 113.05 61.7798 113.62C61.7798 114.97 60.5798 115.81 57.8498 115.81C54.9698 115.81 53.9798 114.76 53.9798 113.05H50.9498C50.9498 115.96 52.7798 118.24 57.8798 118.24ZM74.6855 118.24C78.9155 118.24 81.7355 115.93 81.7355 111.97H78.7055C78.6755 114.16 77.2055 115.48 74.8355 115.48C72.3455 115.48 70.7855 113.62 70.7855 110.59C70.7855 107.53 72.3755 105.7 74.9555 105.7C77.2055 105.7 78.6455 107.05 78.6755 109.27H81.7055C81.7055 105.34 79.0055 102.94 74.8655 102.94C70.3955 102.94 67.4255 105.85 67.4255 110.59C67.4255 115.33 70.3355 118.24 74.6855 118.24ZM84.6462 101.44H88.0962V98.14H84.6462V101.44ZM84.6762 118H88.0362V103.18H84.6762V118ZM91.3931 118H94.7531V110.77C94.7531 107.59 96.2831 105.82 98.5631 105.82C100.573 105.82 101.683 107.14 101.683 109.24V118H105.043V110.65C105.043 107.56 106.543 105.82 108.883 105.82C110.893 105.82 111.943 107.14 111.943 109.3V118H115.303V108.55C115.303 105.07 113.413 102.94 110.113 102.94C107.293 102.94 105.493 104.44 104.953 106.84H104.923C104.563 104.44 102.703 102.94 99.8231 102.94C97.1231 102.94 95.3231 104.53 94.6631 107.08H94.6331L94.7531 103.18H91.3931V118ZM132.397 110.05C132.397 105.43 129.727 102.94 125.527 102.94C120.847 102.94 117.907 105.91 117.907 110.71C117.907 115.36 120.847 118.24 125.527 118.24C129.577 118.24 132.277 116.23 132.397 112.93H129.367C129.217 114.67 127.747 115.63 125.587 115.63C123.067 115.63 121.477 114.1 121.297 111.25H132.397V110.05ZM129.367 109.21H121.387C121.777 106.75 123.247 105.55 125.557 105.55C127.987 105.55 129.367 106.78 129.367 109V109.21ZM135.155 118H138.515V110.83C138.515 107.59 140.375 105.82 143.315 105.82C145.985 105.82 147.305 107.14 147.305 109.48V118H150.665V108.73C150.665 105.07 148.355 102.94 144.605 102.94C141.155 102.94 139.235 104.47 138.425 107.14H138.395L138.515 103.18H135.155V118ZM160.311 118.18C161.541 118.18 162.561 117.97 163.011 117.82V115.15C162.591 115.27 161.631 115.42 160.791 115.42C158.751 115.42 158.031 114.46 158.031 112.54V105.91H163.131V103.18H158.031V99.82H155.241L155.091 102.04C155.001 102.88 154.791 103.18 154.221 103.18H152.331V105.91H154.671V112.72C154.671 115.99 156.261 118.18 160.311 118.18ZM172.349 118.24C177.089 118.24 180.119 115.33 180.119 110.62C180.119 105.88 177.089 102.94 172.349 102.94C167.639 102.94 164.609 105.88 164.609 110.62C164.609 115.33 167.639 118.24 172.349 118.24ZM172.349 115.48C169.619 115.48 167.969 113.62 167.969 110.62C167.969 107.59 169.619 105.7 172.349 105.7C175.079 105.7 176.759 107.59 176.759 110.62C176.759 113.62 175.079 115.48 172.349 115.48ZM183.394 118H186.784V114.1H183.394V118ZM212.499 118H216.669L208.659 98.26H204.279L196.239 118H199.959L201.639 113.56H210.849L212.499 118ZM202.539 111.16L206.229 101.32H206.289L209.949 111.16H202.539ZM229.923 123.94H233.283V103.18H229.953V106H229.923C229.323 104.11 227.553 102.94 224.673 102.94C220.533 102.94 217.563 105.91 217.563 110.47C217.563 115.21 220.263 118.24 224.523 118.24C227.373 118.24 229.353 116.8 229.893 114.58H229.923V123.94ZM225.243 115.48C222.633 115.48 220.893 113.53 220.893 110.47C220.893 107.59 222.693 105.7 225.303 105.7C228.093 105.7 229.923 107.38 229.923 109.99V110.71C229.923 113.62 228.063 115.48 225.243 115.48ZM242.658 118.24C245.958 118.24 248.028 116.68 248.658 113.86H248.688C248.688 115.42 248.628 117.01 248.538 118H251.898V103.18H248.538V109.75C248.538 113.35 246.648 115.36 243.648 115.36C241.218 115.36 239.778 114.04 239.778 111.7V103.18H236.418V112.18C236.418 116.11 238.788 118.24 242.658 118.24ZM255.185 101.44H258.635V98.14H255.185V101.44ZM255.215 118H258.575V103.18H255.215V118ZM273.901 118.24C277.171 118.24 278.941 116.92 279.421 114.73H279.451C279.451 115.93 279.361 117.28 279.301 118H282.661V108.97C282.661 105.07 280.021 102.94 275.521 102.94C271.291 102.94 268.711 104.71 268.711 107.68C268.711 107.95 268.741 108.34 268.771 108.55H271.861C271.831 108.31 271.831 108.07 271.831 107.98C271.831 106.33 273.121 105.46 275.401 105.46C278.011 105.46 279.301 106.45 279.301 108.67V109.72H273.811C269.851 109.72 268.261 111.49 268.261 113.74C268.261 116.62 270.511 118.24 273.901 118.24ZM274.591 115.72C272.551 115.72 271.351 114.94 271.351 113.59C271.351 112.42 272.191 111.76 274.111 111.76H279.301V112.03C279.301 114.31 277.501 115.72 274.591 115.72ZM292.193 118.24C296.933 118.24 299.453 116.47 299.453 113.47C299.453 112.27 298.883 111.13 297.893 110.59C296.843 109.99 295.643 109.78 293.543 109.57C291.743 109.39 290.333 109.24 289.613 109C288.743 108.7 288.593 108.1 288.593 107.47C288.593 106.21 289.913 105.37 292.253 105.37C294.713 105.37 295.763 106.3 295.793 108.22H298.823C298.823 104.86 296.783 102.94 292.163 102.94C288.143 102.94 285.263 104.74 285.263 107.71C285.263 108.85 285.743 109.93 286.553 110.53C287.453 111.19 289.013 111.49 291.323 111.7C292.973 111.85 294.383 112 295.103 112.27C295.883 112.54 296.093 113.05 296.093 113.62C296.093 114.97 294.893 115.81 292.163 115.81C289.283 115.81 288.293 114.76 288.293 113.05H285.263C285.263 115.96 287.093 118.24 292.193 118.24ZM309.028 123.94H312.388V118.12C312.388 117.52 312.328 115.99 312.298 115H312.328C312.958 116.92 314.878 118.24 317.818 118.24C322.078 118.24 324.778 115.12 324.778 110.32C324.778 105.85 322.108 102.94 317.878 102.94C314.938 102.94 312.958 104.38 312.358 106.63H312.328L312.388 103.18H309.028V123.94ZM317.158 115.48C314.278 115.48 312.388 113.86 312.388 111.34V110.56C312.448 107.59 314.308 105.7 317.098 105.7C319.768 105.7 321.418 107.56 321.418 110.41C321.418 113.5 319.738 115.48 317.158 115.48ZM341.563 110.05C341.563 105.43 338.893 102.94 334.693 102.94C330.013 102.94 327.073 105.91 327.073 110.71C327.073 115.36 330.013 118.24 334.693 118.24C338.743 118.24 341.443 116.23 341.563 112.93H338.533C338.383 114.67 336.913 115.63 334.753 115.63C332.233 115.63 330.643 114.1 330.463 111.25H341.563V110.05ZM338.533 109.21H330.553C330.943 106.75 332.413 105.55 334.723 105.55C337.153 105.55 338.533 106.78 338.533 109V109.21ZM350.801 118.24C355.541 118.24 358.061 116.47 358.061 113.47C358.061 112.27 357.491 111.13 356.501 110.59C355.451 109.99 354.251 109.78 352.151 109.57C350.351 109.39 348.941 109.24 348.221 109C347.351 108.7 347.201 108.1 347.201 107.47C347.201 106.21 348.521 105.37 350.861 105.37C353.321 105.37 354.371 106.3 354.401 108.22H357.431C357.431 104.86 355.391 102.94 350.771 102.94C346.751 102.94 343.871 104.74 343.871 107.71C343.871 108.85 344.351 109.93 345.161 110.53C346.061 111.19 347.621 111.49 349.931 111.7C351.581 111.85 352.991 112 353.711 112.27C354.491 112.54 354.701 113.05 354.701 113.62C354.701 114.97 353.501 115.81 350.771 115.81C347.891 115.81 346.901 114.76 346.901 113.05H343.871C343.871 115.96 345.701 118.24 350.801 118.24ZM367.276 118.24C372.016 118.24 374.536 116.47 374.536 113.47C374.536 112.27 373.966 111.13 372.976 110.59C371.926 109.99 370.726 109.78 368.626 109.57C366.826 109.39 365.416 109.24 364.696 109C363.826 108.7 363.676 108.1 363.676 107.47C363.676 106.21 364.996 105.37 367.336 105.37C369.796 105.37 370.846 106.3 370.876 108.22H373.906C373.906 104.86 371.866 102.94 367.246 102.94C363.226 102.94 360.346 104.74 360.346 107.71C360.346 108.85 360.826 109.93 361.636 110.53C362.536 111.19 364.096 111.49 366.406 111.7C368.056 111.85 369.466 112 370.186 112.27C370.966 112.54 371.176 113.05 371.176 113.62C371.176 114.97 369.976 115.81 367.246 115.81C364.366 115.81 363.376 114.76 363.376 113.05H360.346C360.346 115.96 362.176 118.24 367.276 118.24ZM384.562 118.24C389.302 118.24 392.332 115.33 392.332 110.62C392.332 105.88 389.302 102.94 384.562 102.94C379.852 102.94 376.822 105.88 376.822 110.62C376.822 115.33 379.852 118.24 384.562 118.24ZM384.562 115.48C381.832 115.48 380.182 113.62 380.182 110.62C380.182 107.59 381.832 105.7 384.562 105.7C387.292 105.7 388.972 107.59 388.972 110.62C388.972 113.62 387.292 115.48 384.562 115.48ZM399.495 118.24C402.765 118.24 404.535 116.92 405.015 114.73H405.045C405.045 115.93 404.955 117.28 404.895 118H408.255V108.97C408.255 105.07 405.615 102.94 401.115 102.94C396.885 102.94 394.305 104.71 394.305 107.68C394.305 107.95 394.335 108.34 394.365 108.55H397.455C397.425 108.31 397.425 108.07 397.425 107.98C397.425 106.33 398.715 105.46 400.995 105.46C403.605 105.46 404.895 106.45 404.895 108.67V109.72H399.405C395.445 109.72 393.855 111.49 393.855 113.74C393.855 116.62 396.105 118.24 399.495 118.24ZM400.185 115.72C398.145 115.72 396.945 114.94 396.945 113.59C396.945 112.42 397.785 111.76 399.705 111.76H404.895V112.03C404.895 114.31 403.095 115.72 400.185 115.72ZM417.787 118.24C422.527 118.24 425.047 116.47 425.047 113.47C425.047 112.27 424.477 111.13 423.487 110.59C422.437 109.99 421.237 109.78 419.137 109.57C417.337 109.39 415.927 109.24 415.207 109C414.337 108.7 414.187 108.1 414.187 107.47C414.187 106.21 415.507 105.37 417.847 105.37C420.307 105.37 421.357 106.3 421.387 108.22H424.417C424.417 104.86 422.377 102.94 417.757 102.94C413.737 102.94 410.857 104.74 410.857 107.71C410.857 108.85 411.337 109.93 412.147 110.53C413.047 111.19 414.607 111.49 416.917 111.7C418.567 111.85 419.977 112 420.697 112.27C421.477 112.54 421.687 113.05 421.687 113.62C421.687 114.97 420.487 115.81 417.757 115.81C414.877 115.81 413.887 114.76 413.887 113.05H410.857C410.857 115.96 412.687 118.24 417.787 118.24ZM8.28 162.18C9.51 162.18 10.53 161.97 10.98 161.82V159.15C10.56 159.27 9.6 159.42 8.76 159.42C6.72 159.42 6 158.46 6 156.54V149.91H11.1V147.18H6V143.82H3.21L3.06 146.04C2.97 146.88 2.76 147.18 2.19 147.18H0.3V149.91H2.64V156.72C2.64 159.99 4.23 162.18 8.28 162.18ZM20.0187 143.67L24.4587 145.8V143.31L20.0187 141.18H19.9587L15.5187 143.31V145.8L19.9587 143.67H20.0187ZM27.0687 154.05C27.0687 149.43 24.3987 146.94 20.1987 146.94C15.5187 146.94 12.5787 149.91 12.5787 154.71C12.5787 159.36 15.5187 162.24 20.1987 162.24C24.2487 162.24 26.9487 160.23 27.0687 156.93H24.0387C23.8887 158.67 22.4187 159.63 20.2587 159.63C17.7387 159.63 16.1487 158.1 15.9687 155.25H27.0687V154.05ZM24.0387 153.21H16.0587C16.4487 150.75 17.9187 149.55 20.2287 149.55C22.6587 149.55 24.0387 150.78 24.0387 153V153.21ZM29.8266 162H33.1866V154.77C33.1866 151.59 34.7166 149.82 36.9966 149.82C39.0066 149.82 40.1166 151.14 40.1166 153.24V162H43.4766V154.65C43.4766 151.56 44.9766 149.82 47.3166 149.82C49.3266 149.82 50.3766 151.14 50.3766 153.3V162H53.7366V152.55C53.7366 149.07 51.8466 146.94 48.5466 146.94C45.7266 146.94 43.9266 148.44 43.3866 150.84H43.3566C42.9966 148.44 41.1366 146.94 38.2566 146.94C35.5566 146.94 33.7566 148.53 33.0966 151.08H33.0666L33.1866 147.18H29.8266V162ZM68.7595 162.24C72.0295 162.24 73.7995 160.92 74.2795 158.73H74.3095C74.3095 159.93 74.2195 161.28 74.1595 162H77.5195V152.97C77.5195 149.07 74.8795 146.94 70.3795 146.94C66.1495 146.94 63.5695 148.71 63.5695 151.68C63.5695 151.95 63.5995 152.34 63.6295 152.55H66.7195C66.6895 152.31 66.6895 152.07 66.6895 151.98C66.6895 150.33 67.9795 149.46 70.2595 149.46C72.8695 149.46 74.1595 150.45 74.1595 152.67V153.72H68.6695C64.7095 153.72 63.1195 155.49 63.1195 157.74C63.1195 160.62 65.3695 162.24 68.7595 162.24ZM69.4495 159.72C67.4095 159.72 66.2095 158.94 66.2095 157.59C66.2095 156.42 67.0495 155.76 68.9695 155.76H74.1595V156.03C74.1595 158.31 72.3595 159.72 69.4495 159.72ZM86.6618 162.24C89.9618 162.24 92.0318 160.68 92.6618 157.86H92.6918C92.6918 159.42 92.6318 161.01 92.5418 162H95.9018V147.18H92.5418V153.75C92.5418 157.35 90.6518 159.36 87.6518 159.36C85.2218 159.36 83.7818 158.04 83.7818 155.7V147.18H80.4218V156.18C80.4218 160.11 82.7918 162.24 86.6618 162.24ZM105.698 162.18C106.928 162.18 107.948 161.97 108.398 161.82V159.15C107.978 159.27 107.018 159.42 106.178 159.42C104.138 159.42 103.418 158.46 103.418 156.54V149.91H108.518V147.18H103.418V143.82H100.628L100.478 146.04C100.388 146.88 100.178 147.18 99.6082 147.18H97.7182V149.91H100.058V156.72C100.058 159.99 101.648 162.18 105.698 162.18ZM117.737 162.24C122.477 162.24 125.507 159.33 125.507 154.62C125.507 149.88 122.477 146.94 117.737 146.94C113.027 146.94 109.997 149.88 109.997 154.62C109.997 159.33 113.027 162.24 117.737 162.24ZM117.737 159.48C115.007 159.48 113.357 157.62 113.357 154.62C113.357 151.59 115.007 149.7 117.737 149.7C120.467 149.7 122.147 151.59 122.147 154.62C122.147 157.62 120.467 159.48 117.737 159.48ZM128.212 162H131.572V154.83C131.572 151.59 133.432 149.82 136.372 149.82C139.042 149.82 140.362 151.14 140.362 153.48V162H143.722V152.73C143.722 149.07 141.412 146.94 137.662 146.94C134.212 146.94 132.292 148.47 131.482 151.14H131.452L131.572 147.18H128.212V162ZM154.057 162.24C158.797 162.24 161.827 159.33 161.827 154.62C161.827 149.88 158.797 146.94 154.057 146.94C149.347 146.94 146.317 149.88 146.317 154.62C146.317 159.33 149.347 162.24 154.057 162.24ZM154.057 159.48C151.327 159.48 149.677 157.62 149.677 154.62C149.677 151.59 151.327 149.7 154.057 149.7C156.787 149.7 158.467 151.59 158.467 154.62C158.467 157.62 156.787 159.48 154.057 159.48ZM164.532 162H167.892V154.77C167.892 151.59 169.422 149.82 171.702 149.82C173.712 149.82 174.822 151.14 174.822 153.24V162H178.182V154.65C178.182 151.56 179.682 149.82 182.022 149.82C184.032 149.82 185.082 151.14 185.082 153.3V162H188.442V152.55C188.442 149.07 186.552 146.94 183.252 146.94C180.432 146.94 178.632 148.44 178.092 150.84H178.062C177.702 148.44 175.842 146.94 172.962 146.94C170.262 146.94 168.462 148.53 167.802 151.08H167.772L167.892 147.18H164.532V162ZM191.586 145.44H195.036V142.14H191.586V145.44ZM191.616 162H194.976V147.18H191.616V162ZM203.553 162.24C206.823 162.24 208.593 160.92 209.073 158.73H209.103C209.103 159.93 209.013 161.28 208.953 162H212.313V152.97C212.313 149.07 209.673 146.94 205.173 146.94C200.943 146.94 198.363 148.71 198.363 151.68C198.363 151.95 198.393 152.34 198.423 152.55H201.513C201.483 152.31 201.483 152.07 201.483 151.98C201.483 150.33 202.773 149.46 205.053 149.46C207.663 149.46 208.953 150.45 208.953 152.67V153.72H203.463C199.503 153.72 197.913 155.49 197.913 157.74C197.913 160.62 200.163 162.24 203.553 162.24ZM204.243 159.72C202.203 159.72 201.003 158.94 201.003 157.59C201.003 156.42 201.843 155.76 203.763 155.76H208.953V156.03C208.953 158.31 207.153 159.72 204.243 159.72ZM222.204 167.94H225.564V162.12C225.564 161.52 225.504 159.99 225.474 159H225.504C226.134 160.92 228.054 162.24 230.994 162.24C235.254 162.24 237.954 159.12 237.954 154.32C237.954 149.85 235.284 146.94 231.054 146.94C228.114 146.94 226.134 148.38 225.534 150.63H225.504L225.564 147.18H222.204V167.94ZM230.334 159.48C227.454 159.48 225.564 157.86 225.564 155.34V154.56C225.624 151.59 227.484 149.7 230.274 149.7C232.944 149.7 234.594 151.56 234.594 154.41C234.594 157.5 232.914 159.48 230.334 159.48ZM245.157 162.24C248.427 162.24 250.197 160.92 250.677 158.73H250.707C250.707 159.93 250.617 161.28 250.557 162H253.917V152.97C253.917 149.07 251.277 146.94 246.777 146.94C242.547 146.94 239.967 148.71 239.967 151.68C239.967 151.95 239.997 152.34 240.027 152.55H243.117C243.087 152.31 243.087 152.07 243.087 151.98C243.087 150.33 244.377 149.46 246.657 149.46C249.267 149.46 250.557 150.45 250.557 152.67V153.72H245.067C241.107 153.72 239.517 155.49 239.517 157.74C239.517 160.62 241.767 162.24 245.157 162.24ZM245.847 159.72C243.807 159.72 242.607 158.94 242.607 157.59C242.607 156.42 243.447 155.76 245.367 155.76H250.557V156.03C250.557 158.31 248.757 159.72 245.847 159.72ZM256.97 162H260.33V155.52C260.33 151.98 261.92 149.82 264.47 149.82C266.45 149.82 267.41 150.99 267.41 153.48C267.41 154.17 267.35 154.92 267.29 155.49H270.35C270.41 154.86 270.5 153.66 270.5 152.73C270.5 149.04 268.73 146.94 265.52 146.94C262.46 146.94 260.93 148.77 260.24 151.44H260.21L260.33 147.18H256.97V162ZM278.431 162.24C281.701 162.24 283.471 160.92 283.951 158.73H283.981C283.981 159.93 283.891 161.28 283.831 162H287.191V152.97C287.191 149.07 284.551 146.94 280.051 146.94C275.821 146.94 273.241 148.71 273.241 151.68C273.241 151.95 273.271 152.34 273.301 152.55H276.391C276.361 152.31 276.361 152.07 276.361 151.98C276.361 150.33 277.651 149.46 279.931 149.46C282.541 149.46 283.831 150.45 283.831 152.67V153.72H278.341C274.381 153.72 272.791 155.49 272.791 157.74C272.791 160.62 275.041 162.24 278.431 162.24ZM279.121 159.72C277.081 159.72 275.881 158.94 275.881 157.59C275.881 156.42 276.721 155.76 278.641 155.76H283.831V156.03C283.831 158.31 282.031 159.72 279.121 159.72ZM303.472 162.24C308.212 162.24 310.732 160.47 310.732 157.47C310.732 156.27 310.162 155.13 309.172 154.59C308.122 153.99 306.922 153.78 304.822 153.57C303.022 153.39 301.612 153.24 300.892 153C300.022 152.7 299.872 152.1 299.872 151.47C299.872 150.21 301.192 149.37 303.532 149.37C305.992 149.37 307.042 150.3 307.072 152.22H310.102C310.102 148.86 308.062 146.94 303.442 146.94C299.422 146.94 296.542 148.74 296.542 151.71C296.542 152.85 297.022 153.93 297.832 154.53C298.732 155.19 300.292 155.49 302.602 155.7C304.252 155.85 305.662 156 306.382 156.27C307.162 156.54 307.372 157.05 307.372 157.62C307.372 158.97 306.172 159.81 303.442 159.81C300.562 159.81 299.572 158.76 299.572 157.05H296.542C296.542 159.96 298.372 162.24 303.472 162.24ZM327.508 154.05C327.508 149.43 324.838 146.94 320.638 146.94C315.958 146.94 313.018 149.91 313.018 154.71C313.018 159.36 315.958 162.24 320.638 162.24C324.688 162.24 327.388 160.23 327.508 156.93H324.478C324.328 158.67 322.858 159.63 320.698 159.63C318.178 159.63 316.588 158.1 316.408 155.25H327.508V154.05ZM324.478 153.21H316.498C316.888 150.75 318.358 149.55 320.668 149.55C323.098 149.55 324.478 150.78 324.478 153V153.21ZM330.266 162H333.626V155.52C333.626 151.98 335.216 149.82 337.766 149.82C339.746 149.82 340.706 150.99 340.706 153.48C340.706 154.17 340.646 154.92 340.586 155.49H343.646C343.706 154.86 343.796 153.66 343.796 152.73C343.796 149.04 342.026 146.94 338.816 146.94C335.756 146.94 334.226 148.77 333.536 151.44H333.506L333.626 147.18H330.266V162ZM360.547 154.05C360.547 149.43 357.877 146.94 353.677 146.94C348.997 146.94 346.057 149.91 346.057 154.71C346.057 159.36 348.997 162.24 353.677 162.24C357.727 162.24 360.427 160.23 360.547 156.93H357.517C357.367 158.67 355.897 159.63 353.737 159.63C351.217 159.63 349.627 158.1 349.447 155.25H360.547V154.05ZM357.517 153.21H349.537C349.927 150.75 351.397 149.55 353.707 149.55C356.137 149.55 357.517 150.78 357.517 153V153.21ZM363.305 162H366.665V154.77C366.665 151.59 368.195 149.82 370.475 149.82C372.485 149.82 373.595 151.14 373.595 153.24V162H376.955V154.65C376.955 151.56 378.455 149.82 380.795 149.82C382.805 149.82 383.855 151.14 383.855 153.3V162H387.215V152.55C387.215 149.07 385.325 146.94 382.025 146.94C379.205 146.94 377.405 148.44 376.865 150.84H376.835C376.475 148.44 374.615 146.94 371.735 146.94C369.035 146.94 367.235 148.53 366.575 151.08H366.545L366.665 147.18H363.305V162ZM1.77 189.44H5.22V186.14H1.77V189.44ZM1.8 206H5.16V191.18H1.8V206ZM8.51695 206H11.877V198.83C11.877 195.59 13.737 193.82 16.677 193.82C19.347 193.82 20.667 195.14 20.667 197.48V206H24.027V196.73C24.027 193.07 21.717 190.94 17.967 190.94C14.517 190.94 12.597 192.47 11.787 195.14H11.757L11.877 191.18H8.51695V206ZM34.3627 206.24C39.1027 206.24 42.1327 203.33 42.1327 198.62C42.1327 193.88 39.1027 190.94 34.3627 190.94C29.6527 190.94 26.6227 193.88 26.6227 198.62C26.6227 203.33 29.6527 206.24 34.3627 206.24ZM34.3627 203.48C31.6327 203.48 29.9827 201.62 29.9827 198.62C29.9827 195.59 31.6327 193.7 34.3627 193.7C37.0927 193.7 38.7727 195.59 38.7727 198.62C38.7727 201.62 37.0927 203.48 34.3627 203.48ZM49.3584 206H53.3484L59.7684 191.18H56.2584L51.5484 202.85H51.4884L46.8384 191.18H42.9084L49.3584 206ZM66.4158 206.24C69.6858 206.24 71.4558 204.92 71.9358 202.73H71.9658C71.9658 203.93 71.8758 205.28 71.8158 206H75.1758V196.97C75.1758 193.07 72.5358 190.94 68.0358 190.94C63.8058 190.94 61.2258 192.71 61.2258 195.68C61.2258 195.95 61.2558 196.34 61.2858 196.55H64.3758C64.3458 196.31 64.3458 196.07 64.3458 195.98C64.3458 194.33 65.6358 193.46 67.9158 193.46C70.5258 193.46 71.8158 194.45 71.8158 196.67V197.72H66.3258C62.3658 197.72 60.7758 199.49 60.7758 201.74C60.7758 204.62 63.0258 206.24 66.4158 206.24ZM67.1058 203.72C65.0658 203.72 63.8658 202.94 63.8658 201.59C63.8658 200.42 64.7058 199.76 66.6258 199.76H71.8158V200.03C71.8158 202.31 70.0158 203.72 67.1058 203.72ZM84.7681 206.24C87.7981 206.24 89.6581 204.74 90.2281 202.4H90.2881C90.2281 203.84 90.1981 205.13 90.1381 206H93.498V185.21H90.1381V193.79H90.1081C89.5081 192.05 87.7681 190.94 84.9781 190.94C80.5681 190.94 77.778 194.03 77.778 198.5C77.778 203.12 80.4781 206.24 84.7681 206.24ZM85.4581 203.48C82.8181 203.48 81.1081 201.44 81.1081 198.5C81.1081 195.68 82.8481 193.7 85.5181 193.7C88.3081 193.7 90.1381 195.38 90.1381 198.02V198.74C90.1381 201.62 88.2781 203.48 85.4581 203.48ZM104.074 206.24C108.814 206.24 111.844 203.33 111.844 198.62C111.844 193.88 108.814 190.94 104.074 190.94C99.3638 190.94 96.3338 193.88 96.3338 198.62C96.3338 203.33 99.3638 206.24 104.074 206.24ZM104.074 203.48C101.344 203.48 99.6938 201.62 99.6938 198.62C99.6938 195.59 101.344 193.7 104.074 193.7C106.804 193.7 108.484 195.59 108.484 198.62C108.484 201.62 106.804 203.48 104.074 203.48ZM114.548 206H117.908V199.52C117.908 195.98 119.498 193.82 122.048 193.82C124.028 193.82 124.988 194.99 124.988 197.48C124.988 198.17 124.928 198.92 124.868 199.49H127.928C127.988 198.86 128.078 197.66 128.078 196.73C128.078 193.04 126.308 190.94 123.098 190.94C120.038 190.94 118.508 192.77 117.818 195.44H117.788L117.908 191.18H114.548V206ZM136.01 206.24C139.28 206.24 141.05 204.92 141.53 202.73H141.56C141.56 203.93 141.47 205.28 141.41 206H144.77V196.97C144.77 193.07 142.13 190.94 137.63 190.94C133.4 190.94 130.82 192.71 130.82 195.68C130.82 195.95 130.85 196.34 130.88 196.55H133.97C133.94 196.31 133.94 196.07 133.94 195.98C133.94 194.33 135.23 193.46 137.51 193.46C140.12 193.46 141.41 194.45 141.41 196.67V197.72H135.92C131.96 197.72 130.37 199.49 130.37 201.74C130.37 204.62 132.62 206.24 136.01 206.24ZM136.7 203.72C134.66 203.72 133.46 202.94 133.46 201.59C133.46 200.42 134.3 199.76 136.22 199.76H141.41V200.03C141.41 202.31 139.61 203.72 136.7 203.72ZM154.302 206.24C159.042 206.24 161.562 204.47 161.562 201.47C161.562 200.27 160.992 199.13 160.002 198.59C158.952 197.99 157.752 197.78 155.652 197.57C153.852 197.39 152.442 197.24 151.722 197C150.852 196.7 150.702 196.1 150.702 195.47C150.702 194.21 152.022 193.37 154.362 193.37C156.822 193.37 157.872 194.3 157.902 196.22H160.932C160.932 192.86 158.892 190.94 154.272 190.94C150.252 190.94 147.372 192.74 147.372 195.71C147.372 196.85 147.852 197.93 148.662 198.53C149.562 199.19 151.122 199.49 153.432 199.7C155.082 199.85 156.492 200 157.212 200.27C157.992 200.54 158.202 201.05 158.202 201.62C158.202 202.97 157.002 203.81 154.272 203.81C151.392 203.81 150.402 202.76 150.402 201.05H147.372C147.372 203.96 149.202 206.24 154.302 206.24ZM164.298 210.14C166.908 209.93 168.228 208.46 168.228 204.92V202.1H164.838V206H166.248V206.09C166.248 207.56 165.678 208.28 164.298 208.4V210.14ZM185.243 206.24C189.983 206.24 192.503 204.47 192.503 201.47C192.503 200.27 191.933 199.13 190.943 198.59C189.893 197.99 188.693 197.78 186.593 197.57C184.793 197.39 183.383 197.24 182.663 197C181.793 196.7 181.643 196.1 181.643 195.47C181.643 194.21 182.963 193.37 185.303 193.37C187.763 193.37 188.813 194.3 188.843 196.22H191.873C191.873 192.86 189.833 190.94 185.213 190.94C181.193 190.94 178.313 192.74 178.313 195.71C178.313 196.85 178.793 197.93 179.603 198.53C180.503 199.19 182.063 199.49 184.373 199.7C186.023 199.85 187.433 200 188.153 200.27C188.933 200.54 189.143 201.05 189.143 201.62C189.143 202.97 187.943 203.81 185.213 203.81C182.333 203.81 181.343 202.76 181.343 201.05H178.313C178.313 203.96 180.143 206.24 185.243 206.24ZM202.528 206.24C207.268 206.24 210.298 203.33 210.298 198.62C210.298 193.88 207.268 190.94 202.528 190.94C197.818 190.94 194.788 193.88 194.788 198.62C194.788 203.33 197.818 206.24 202.528 206.24ZM202.528 203.48C199.798 203.48 198.148 201.62 198.148 198.62C198.148 195.59 199.798 193.7 202.528 193.7C205.258 193.7 206.938 195.59 206.938 198.62C206.938 201.62 205.258 203.48 202.528 203.48ZM213.003 206H216.363V198.83C216.363 195.59 218.223 193.82 221.163 193.82C223.833 193.82 225.153 195.14 225.153 197.48V206H228.513V196.73C228.513 193.07 226.203 190.94 222.453 190.94C219.003 190.94 217.083 192.47 216.273 195.14H216.243L216.363 191.18H213.003V206ZM231.649 206H235.009V198.98C235.009 195.65 236.869 193.82 239.839 193.82C242.509 193.82 243.829 195.14 243.829 197.48V206H247.189V196.73C247.189 193.07 244.879 190.94 241.129 190.94C237.649 190.94 235.729 192.47 234.949 195.17H234.919C234.949 194.36 235.009 192.65 235.009 191.93V185.21H231.649V206ZM255.451 206.24C258.721 206.24 260.491 204.92 260.971 202.73H261.001C261.001 203.93 260.911 205.28 260.851 206H264.211V196.97C264.211 193.07 261.571 190.94 257.071 190.94C252.841 190.94 250.261 192.71 250.261 195.68C250.261 195.95 250.291 196.34 250.321 196.55H253.411C253.381 196.31 253.381 196.07 253.381 195.98C253.381 194.33 254.671 193.46 256.951 193.46C259.561 193.46 260.851 194.45 260.851 196.67V197.72H255.361C251.401 197.72 249.811 199.49 249.811 201.74C249.811 204.62 252.061 206.24 255.451 206.24ZM256.141 203.72C254.101 203.72 252.901 202.94 252.901 201.59C252.901 200.42 253.741 199.76 255.661 199.76H260.851V200.03C260.851 202.31 259.051 203.72 256.141 203.72ZM267.264 206H270.624V199.52C270.624 195.98 272.214 193.82 274.764 193.82C276.744 193.82 277.704 194.99 277.704 197.48C277.704 198.17 277.644 198.92 277.584 199.49H280.644C280.704 198.86 280.794 197.66 280.794 196.73C280.794 193.04 279.024 190.94 275.814 190.94C272.754 190.94 271.224 192.77 270.534 195.44H270.504L270.624 191.18H267.264V206ZM297.545 198.05C297.545 193.43 294.875 190.94 290.675 190.94C285.995 190.94 283.055 193.91 283.055 198.71C283.055 203.36 285.995 206.24 290.675 206.24C294.725 206.24 297.425 204.23 297.545 200.93H294.515C294.365 202.67 292.895 203.63 290.735 203.63C288.215 203.63 286.625 202.1 286.445 199.25H297.545V198.05ZM294.515 197.21H286.535C286.925 194.75 288.395 193.55 290.705 193.55C293.135 193.55 294.515 194.78 294.515 197V197.21ZM300.303 206H303.663V198.77C303.663 195.59 305.193 193.82 307.473 193.82C309.483 193.82 310.593 195.14 310.593 197.24V206H313.953V198.65C313.953 195.56 315.453 193.82 317.793 193.82C319.803 193.82 320.853 195.14 320.853 197.3V206H324.213V196.55C324.213 193.07 322.323 190.94 319.023 190.94C316.203 190.94 314.403 192.44 313.863 194.84H313.833C313.473 192.44 311.613 190.94 308.733 190.94C306.033 190.94 304.233 192.53 303.573 195.08H303.543L303.663 191.18H300.303V206ZM348.056 198.05C348.056 193.43 345.386 190.94 341.186 190.94C336.506 190.94 333.566 193.91 333.566 198.71C333.566 203.36 336.506 206.24 341.186 206.24C345.236 206.24 347.936 204.23 348.056 200.93H345.026C344.876 202.67 343.406 203.63 341.246 203.63C338.726 203.63 337.136 202.1 336.956 199.25H348.056V198.05ZM345.026 197.21H337.046C337.436 194.75 338.906 193.55 341.216 193.55C343.646 193.55 345.026 194.78 345.026 197V197.21ZM364.163 206.18C365.393 206.18 366.413 205.97 366.863 205.82V203.15C366.443 203.27 365.483 203.42 364.643 203.42C362.603 203.42 361.883 202.46 361.883 200.54V193.91H366.983V191.18H361.883V187.82H359.093L358.943 190.04C358.853 190.88 358.643 191.18 358.073 191.18H356.183V193.91H358.523V200.72C358.523 203.99 360.113 206.18 364.163 206.18ZM376.201 206.24C380.941 206.24 383.971 203.33 383.971 198.62C383.971 193.88 380.941 190.94 376.201 190.94C371.491 190.94 368.461 193.88 368.461 198.62C368.461 203.33 371.491 206.24 376.201 206.24ZM376.201 203.48C373.471 203.48 371.821 201.62 371.821 198.62C371.821 195.59 373.471 193.7 376.201 193.7C378.931 193.7 380.611 195.59 380.611 198.62C380.611 201.62 378.931 203.48 376.201 203.48ZM393.486 206.24C397.716 206.24 400.536 203.93 400.536 199.97H397.506C397.476 202.16 396.006 203.48 393.636 203.48C391.146 203.48 389.586 201.62 389.586 198.59C389.586 195.53 391.176 193.7 393.756 193.7C396.006 193.7 397.446 195.05 397.476 197.27H400.506C400.506 193.34 397.806 190.94 393.666 190.94C389.196 190.94 386.226 193.85 386.226 198.59C386.226 203.33 389.136 206.24 393.486 206.24ZM407.815 206.24C411.085 206.24 412.855 204.92 413.335 202.73H413.365C413.365 203.93 413.275 205.28 413.215 206H416.575V196.97C416.575 193.07 413.935 190.94 409.435 190.94C405.205 190.94 402.625 192.71 402.625 195.68C402.625 195.95 402.655 196.34 402.685 196.55H405.775C405.745 196.31 405.745 196.07 405.745 195.98C405.745 194.33 407.035 193.46 409.315 193.46C411.925 193.46 413.215 194.45 413.215 196.67V197.72H407.725C403.765 197.72 402.175 199.49 402.175 201.74C402.175 204.62 404.425 206.24 407.815 206.24ZM408.505 203.72C406.465 203.72 405.265 202.94 405.265 201.59C405.265 200.42 406.105 199.76 408.025 199.76H413.215V200.03C413.215 202.31 411.415 203.72 408.505 203.72ZM419.627 206H422.987V199.52C422.987 195.98 424.577 193.82 427.127 193.82C429.107 193.82 430.067 194.99 430.067 197.48C430.067 198.17 430.007 198.92 429.947 199.49H433.007C433.067 198.86 433.157 197.66 433.157 196.73C433.157 193.04 431.387 190.94 428.177 190.94C425.117 190.94 423.587 192.77 422.897 195.44H422.867L422.987 191.18H419.627V206ZM449.909 198.05C449.909 193.43 447.239 190.94 443.039 190.94C438.359 190.94 435.419 193.91 435.419 198.71C435.419 203.36 438.359 206.24 443.039 206.24C447.089 206.24 449.789 204.23 449.909 200.93H446.879C446.729 202.67 445.259 203.63 443.099 203.63C440.579 203.63 438.989 202.1 438.809 199.25H449.909V198.05ZM446.879 197.21H438.899C439.289 194.75 440.759 193.55 443.069 193.55C445.499 193.55 446.879 194.78 446.879 197V197.21ZM452.666 206H456.026V198.77C456.026 195.59 457.556 193.82 459.836 193.82C461.846 193.82 462.956 195.14 462.956 197.24V206H466.316V198.65C466.316 195.56 467.816 193.82 470.156 193.82C472.166 193.82 473.216 195.14 473.216 197.3V206H476.576V196.55C476.576 193.07 474.686 190.94 471.386 190.94C468.566 190.94 466.766 192.44 466.226 194.84H466.196C465.836 192.44 463.976 190.94 461.096 190.94C458.396 190.94 456.596 192.53 455.936 195.08H455.906L456.026 191.18H452.666V206ZM8.97 250.24C13.71 250.24 16.74 247.33 16.74 242.62C16.74 237.88 13.71 234.94 8.97 234.94C4.26 234.94 1.23 237.88 1.23 242.62C1.23 247.33 4.26 250.24 8.97 250.24ZM8.97 247.48C6.24 247.48 4.59 245.62 4.59 242.62C4.59 239.59 6.24 237.7 8.97 237.7C11.7 237.7 13.38 239.59 13.38 242.62C13.38 245.62 11.7 247.48 8.97 247.48ZM25.7489 250.24C30.4889 250.24 33.0089 248.47 33.0089 245.47C33.0089 244.27 32.4389 243.13 31.4489 242.59C30.3989 241.99 29.1989 241.78 27.0989 241.57C25.2989 241.39 23.8889 241.24 23.1689 241C22.2989 240.7 22.1489 240.1 22.1489 239.47C22.1489 238.21 23.4689 237.37 25.8089 237.37C28.2689 237.37 29.3189 238.3 29.3489 240.22H32.3789C32.3789 236.86 30.3389 234.94 25.7189 234.94C21.6989 234.94 18.8189 236.74 18.8189 239.71C18.8189 240.85 19.2989 241.93 20.1089 242.53C21.0089 243.19 22.5689 243.49 24.8789 243.7C26.5289 243.85 27.9389 244 28.6589 244.27C29.4389 244.54 29.6489 245.05 29.6489 245.62C29.6489 246.97 28.4489 247.81 25.7189 247.81C22.8389 247.81 21.8489 246.76 21.8489 245.05H18.8189C18.8189 247.96 20.6489 250.24 25.7489 250.24ZM42.4936 250H45.8536V242.77C45.8536 239.59 47.3836 237.82 49.6636 237.82C51.6736 237.82 52.7836 239.14 52.7836 241.24V250H56.1436V242.65C56.1436 239.56 57.6436 237.82 59.9836 237.82C61.9936 237.82 63.0436 239.14 63.0436 241.3V250H66.4036V240.55C66.4036 237.07 64.5136 234.94 61.2136 234.94C58.3936 234.94 56.5936 236.44 56.0536 238.84H56.0236C55.6636 236.44 53.8036 234.94 50.9236 234.94C48.2236 234.94 46.4236 236.53 45.7636 239.08H45.7336L45.8536 235.18H42.4936V250ZM74.6775 250.24C77.9475 250.24 79.7175 248.92 80.1975 246.73H80.2275C80.2275 247.93 80.1375 249.28 80.0775 250H83.4375V240.97C83.4375 237.07 80.7975 234.94 76.2975 234.94C72.0675 234.94 69.4875 236.71 69.4875 239.68C69.4875 239.95 69.5175 240.34 69.5475 240.55H72.6375C72.6075 240.31 72.6075 240.07 72.6075 239.98C72.6075 238.33 73.8975 237.46 76.1775 237.46C78.7875 237.46 80.0775 238.45 80.0775 240.67V241.72H74.5875C70.6275 241.72 69.0375 243.49 69.0375 245.74C69.0375 248.62 71.2875 250.24 74.6775 250.24ZM75.3675 247.72C73.3275 247.72 72.1275 246.94 72.1275 245.59C72.1275 244.42 72.9675 243.76 74.8875 243.76H80.0775V244.03C80.0775 246.31 78.2775 247.72 75.3675 247.72ZM86.5798 233.44H90.0298V230.14H86.5798V233.44ZM86.6098 250H89.9698V235.18H86.6098V250ZM100.617 250.24C105.357 250.24 108.387 247.33 108.387 242.62C108.387 237.88 105.357 234.94 100.617 234.94C95.9067 234.94 92.8767 237.88 92.8767 242.62C92.8767 247.33 95.9067 250.24 100.617 250.24ZM100.617 247.48C97.8867 247.48 96.2367 245.62 96.2367 242.62C96.2367 239.59 97.8867 237.7 100.617 237.7C103.347 237.7 105.027 239.59 105.027 242.62C105.027 245.62 103.347 247.48 100.617 247.48ZM111.091 250H114.451V243.52C114.451 239.98 116.041 237.82 118.591 237.82C120.571 237.82 121.531 238.99 121.531 241.48C121.531 242.17 121.471 242.92 121.411 243.49H124.471C124.531 242.86 124.621 241.66 124.621 240.73C124.621 237.04 122.851 234.94 119.641 234.94C116.581 234.94 115.051 236.77 114.361 239.44H114.331L114.451 235.18H111.091V250ZM141.373 242.05C141.373 237.43 138.703 234.94 134.503 234.94C129.823 234.94 126.883 237.91 126.883 242.71C126.883 247.36 129.823 250.24 134.503 250.24C138.553 250.24 141.253 248.23 141.373 244.93H138.343C138.193 246.67 136.723 247.63 134.563 247.63C132.043 247.63 130.453 246.1 130.273 243.25H141.373V242.05ZM138.343 241.21H130.363C130.753 238.75 132.223 237.55 134.533 237.55C136.963 237.55 138.343 238.78 138.343 241V241.21ZM150.611 250.24C155.351 250.24 157.871 248.47 157.871 245.47C157.871 244.27 157.301 243.13 156.311 242.59C155.261 241.99 154.061 241.78 151.961 241.57C150.161 241.39 148.751 241.24 148.031 241C147.161 240.7 147.011 240.1 147.011 239.47C147.011 238.21 148.331 237.37 150.671 237.37C153.131 237.37 154.181 238.3 154.211 240.22H157.241C157.241 236.86 155.201 234.94 150.581 234.94C146.561 234.94 143.681 236.74 143.681 239.71C143.681 240.85 144.161 241.93 144.971 242.53C145.871 243.19 147.431 243.49 149.741 243.7C151.391 243.85 152.801 244 153.521 244.27C154.301 244.54 154.511 245.05 154.511 245.62C154.511 246.97 153.311 247.81 150.581 247.81C147.701 247.81 146.711 246.76 146.711 245.05H143.681C143.681 247.96 145.511 250.24 150.611 250.24ZM173.895 250.24C176.925 250.24 178.785 248.74 179.355 246.4H179.415C179.355 247.84 179.325 249.13 179.265 250H182.625V229.21H179.265V237.79H179.235C178.635 236.05 176.895 234.94 174.105 234.94C169.695 234.94 166.905 238.03 166.905 242.5C166.905 247.12 169.605 250.24 173.895 250.24ZM174.585 247.48C171.945 247.48 170.235 245.44 170.235 242.5C170.235 239.68 171.975 237.7 174.645 237.7C177.435 237.7 179.265 239.38 179.265 242.02V242.74C179.265 245.62 177.405 247.48 174.585 247.48ZM199.951 242.05C199.951 237.43 197.281 234.94 193.081 234.94C188.401 234.94 185.461 237.91 185.461 242.71C185.461 247.36 188.401 250.24 193.081 250.24C197.131 250.24 199.831 248.23 199.951 244.93H196.921C196.771 246.67 195.301 247.63 193.141 247.63C190.621 247.63 189.031 246.1 188.851 243.25H199.951V242.05ZM196.921 241.21H188.941C189.331 238.75 190.801 237.55 193.111 237.55C195.541 237.55 196.921 238.78 196.921 241V241.21ZM209.189 250.24C213.929 250.24 216.449 248.47 216.449 245.47C216.449 244.27 215.879 243.13 214.889 242.59C213.839 241.99 212.639 241.78 210.539 241.57C208.739 241.39 207.329 241.24 206.609 241C205.739 240.7 205.589 240.1 205.589 239.47C205.589 238.21 206.909 237.37 209.249 237.37C211.709 237.37 212.759 238.3 212.789 240.22H215.819C215.819 236.86 213.779 234.94 209.159 234.94C205.139 234.94 202.259 236.74 202.259 239.71C202.259 240.85 202.739 241.93 203.549 242.53C204.449 243.19 206.009 243.49 208.319 243.7C209.969 243.85 211.379 244 212.099 244.27C212.879 244.54 213.089 245.05 213.089 245.62C213.089 246.97 211.889 247.81 209.159 247.81C206.279 247.81 205.289 246.76 205.289 245.05H202.259C202.259 247.96 204.089 250.24 209.189 250.24ZM224.404 250.24C227.674 250.24 229.444 248.92 229.924 246.73H229.954C229.954 247.93 229.864 249.28 229.804 250H233.164V240.97C233.164 237.07 230.524 234.94 226.024 234.94C221.794 234.94 219.214 236.71 219.214 239.68C219.214 239.95 219.244 240.34 219.274 240.55H222.364C222.334 240.31 222.334 240.07 222.334 239.98C222.334 238.33 223.624 237.46 225.904 237.46C228.514 237.46 229.804 238.45 229.804 240.67V241.72H224.314C220.354 241.72 218.764 243.49 218.764 245.74C218.764 248.62 221.014 250.24 224.404 250.24ZM225.094 247.72C223.054 247.72 221.854 246.94 221.854 245.59C221.854 244.42 222.694 243.76 224.614 243.76H229.804V244.03C229.804 246.31 228.004 247.72 225.094 247.72ZM237.207 250H240.567V237.91H245.727V235.18H240.567V233.86C240.567 232.24 241.497 231.34 243.207 231.34C244.227 231.34 245.007 231.55 245.487 231.7V229.03C245.007 228.85 243.927 228.61 242.607 228.61C239.397 228.61 237.207 230.41 237.207 233.71V235.18H234.837V237.91H237.207V250ZM248.307 233.44H251.757V230.14H248.307V233.44ZM248.337 250H251.697V235.18H248.337V250ZM262.326 250.24C267.066 250.24 270.096 247.33 270.096 242.62C270.096 237.88 267.066 234.94 262.326 234.94C257.616 234.94 254.586 237.88 254.586 242.62C254.586 247.33 257.616 250.24 262.326 250.24ZM262.326 247.48C259.596 247.48 257.946 245.62 257.946 242.62C257.946 239.59 259.596 237.7 262.326 237.7C265.056 237.7 266.736 239.59 266.736 242.62C266.736 245.62 265.056 247.48 262.326 247.48ZM279.105 250.24C283.845 250.24 286.365 248.47 286.365 245.47C286.365 244.27 285.795 243.13 284.805 242.59C283.755 241.99 282.555 241.78 280.455 241.57C278.655 241.39 277.245 241.24 276.525 241C275.655 240.7 275.505 240.1 275.505 239.47C275.505 238.21 276.825 237.37 279.165 237.37C281.625 237.37 282.675 238.3 282.705 240.22H285.735C285.735 236.86 283.695 234.94 279.075 234.94C275.055 234.94 272.175 236.74 272.175 239.71C272.175 240.85 272.655 241.93 273.465 242.53C274.365 243.19 275.925 243.49 278.235 243.7C279.885 243.85 281.295 244 282.015 244.27C282.795 244.54 283.005 245.05 283.005 245.62C283.005 246.97 281.805 247.81 279.075 247.81C276.195 247.81 275.205 246.76 275.205 245.05H272.175C272.175 247.96 274.005 250.24 279.105 250.24ZM302.39 250.24C305.42 250.24 307.28 248.74 307.85 246.4H307.91C307.85 247.84 307.82 249.13 307.76 250H311.12V229.21H307.76V237.79H307.73C307.13 236.05 305.39 234.94 302.6 234.94C298.19 234.94 295.4 238.03 295.4 242.5C295.4 247.12 298.1 250.24 302.39 250.24ZM303.08 247.48C300.44 247.48 298.73 245.44 298.73 242.5C298.73 239.68 300.47 237.7 303.14 237.7C305.93 237.7 307.76 239.38 307.76 242.02V242.74C307.76 245.62 305.9 247.48 303.08 247.48ZM319.625 250.24C322.895 250.24 324.665 248.92 325.145 246.73H325.175C325.175 247.93 325.085 249.28 325.025 250H328.385V240.97C328.385 237.07 325.745 234.94 321.245 234.94C317.015 234.94 314.435 236.71 314.435 239.68C314.435 239.95 314.465 240.34 314.495 240.55H317.585C317.555 240.31 317.555 240.07 317.555 239.98C317.555 238.33 318.845 237.46 321.125 237.46C323.735 237.46 325.025 238.45 325.025 240.67V241.72H319.535C315.575 241.72 313.985 243.49 313.985 245.74C313.985 248.62 316.235 250.24 319.625 250.24ZM320.315 247.72C318.275 247.72 317.075 246.94 317.075 245.59C317.075 244.42 317.915 243.76 319.835 243.76H325.025V244.03C325.025 246.31 323.225 247.72 320.315 247.72ZM8.49 294.24C12.72 294.24 15.54 291.93 15.54 287.97H12.51C12.48 290.16 11.01 291.48 8.64 291.48C6.15 291.48 4.59 289.62 4.59 286.59C4.59 283.53 6.18 281.7 8.76 281.7C11.01 281.7 12.45 283.05 12.48 285.27H15.51C15.51 281.34 12.81 278.94 8.67 278.94C4.2 278.94 1.23 281.85 1.23 286.59C1.23 291.33 4.14 294.24 8.49 294.24ZM25.6507 294.24C30.3907 294.24 33.4207 291.33 33.4207 286.62C33.4207 281.88 30.3907 278.94 25.6507 278.94C20.9407 278.94 17.9107 281.88 17.9107 286.62C17.9107 291.33 20.9407 294.24 25.6507 294.24ZM25.6507 291.48C22.9207 291.48 21.2707 289.62 21.2707 286.62C21.2707 283.59 22.9207 281.7 25.6507 281.7C28.3807 281.7 30.0607 283.59 30.0607 286.62C30.0607 289.62 28.3807 291.48 25.6507 291.48ZM36.1254 294H39.4854V286.77C39.4854 283.59 41.0154 281.82 43.2954 281.82C45.3054 281.82 46.4154 283.14 46.4154 285.24V294H49.7754V286.65C49.7754 283.56 51.2754 281.82 53.6154 281.82C55.6254 281.82 56.6754 283.14 56.6754 285.3V294H60.0354V284.55C60.0354 281.07 58.1454 278.94 54.8454 278.94C52.0254 278.94 50.2254 280.44 49.6854 282.84H49.6554C49.2954 280.44 47.4354 278.94 44.5554 278.94C41.8554 278.94 40.0554 280.53 39.3954 283.08H39.3654L39.4854 279.18H36.1254V294ZM63.1793 299.94H66.5393V294.12C66.5393 293.52 66.4793 291.99 66.4493 291H66.4793C67.1093 292.92 69.0293 294.24 71.9693 294.24C76.2293 294.24 78.9293 291.12 78.9293 286.32C78.9293 281.85 76.2593 278.94 72.0293 278.94C69.0893 278.94 67.1093 280.38 66.5093 282.63H66.4793L66.5393 279.18H63.1793V299.94ZM71.3093 291.48C68.4293 291.48 66.5393 289.86 66.5393 287.34V286.56C66.5993 283.59 68.4593 281.7 71.2493 281.7C73.9193 281.7 75.5693 283.56 75.5693 286.41C75.5693 289.5 73.8893 291.48 71.3093 291.48ZM86.1326 294.24C89.4026 294.24 91.1726 292.92 91.6526 290.73H91.6826C91.6826 291.93 91.5926 293.28 91.5326 294H94.8926V284.97C94.8926 281.07 92.2526 278.94 87.7526 278.94C83.5226 278.94 80.9426 280.71 80.9426 283.68C80.9426 283.95 80.9726 284.34 81.0026 284.55H84.0926C84.0626 284.31 84.0626 284.07 84.0626 283.98C84.0626 282.33 85.3526 281.46 87.6326 281.46C90.2426 281.46 91.5326 282.45 91.5326 284.67V285.72H86.0426C82.0826 285.72 80.4926 287.49 80.4926 289.74C80.4926 292.62 82.7426 294.24 86.1326 294.24ZM86.8226 291.72C84.7826 291.72 83.5826 290.94 83.5826 289.59C83.5826 288.42 84.4226 287.76 86.3426 287.76H91.5326V288.03C91.5326 290.31 89.7326 291.72 86.8226 291.72ZM97.9448 294H101.305V286.83C101.305 283.59 103.165 281.82 106.105 281.82C108.775 281.82 110.095 283.14 110.095 285.48V294H113.455V284.73C113.455 281.07 111.145 278.94 107.395 278.94C103.945 278.94 102.025 280.47 101.215 283.14H101.185L101.305 279.18H97.9448V294ZM116.591 294H119.951V286.98C119.951 283.65 121.811 281.82 124.781 281.82C127.451 281.82 128.771 283.14 128.771 285.48V294H132.131V284.73C132.131 281.07 129.821 278.94 126.071 278.94C122.591 278.94 120.671 280.47 119.891 283.17H119.861C119.891 282.36 119.951 280.65 119.951 279.93V273.21H116.591V294ZM135.263 277.44H138.713V274.14H135.263V277.44ZM135.293 294H138.653V279.18H135.293V294ZM147.23 294.24C150.5 294.24 152.27 292.92 152.75 290.73H152.78C152.78 291.93 152.69 293.28 152.63 294H155.99V284.97C155.99 281.07 153.35 278.94 148.85 278.94C144.62 278.94 142.04 280.71 142.04 283.68C142.04 283.95 142.07 284.34 142.1 284.55H145.19C145.16 284.31 145.16 284.07 145.16 283.98C145.16 282.33 146.45 281.46 148.73 281.46C151.34 281.46 152.63 282.45 152.63 284.67V285.72H147.14C143.18 285.72 141.59 287.49 141.59 289.74C141.59 292.62 143.84 294.24 147.23 294.24ZM147.92 291.72C145.88 291.72 144.68 290.94 144.68 289.59C144.68 288.42 145.52 287.76 147.44 287.76H152.63V288.03C152.63 290.31 150.83 291.72 147.92 291.72ZM159.613 294H163.003V290.1H159.613V294ZM173.748 294H177.348V287.88H182.358C187.098 287.88 189.678 285.42 189.678 281.13C189.678 276.72 186.798 274.26 181.908 274.26H173.748V294ZM177.348 285.33V277.26H181.788C184.668 277.26 186.258 278.7 186.258 281.31C186.258 284.01 184.758 285.33 182.148 285.33H177.348ZM197.547 294.24C200.817 294.24 202.587 292.92 203.067 290.73H203.097C203.097 291.93 203.007 293.28 202.947 294H206.307V284.97C206.307 281.07 203.667 278.94 199.167 278.94C194.937 278.94 192.357 280.71 192.357 283.68C192.357 283.95 192.387 284.34 192.417 284.55H195.507C195.477 284.31 195.477 284.07 195.477 283.98C195.477 282.33 196.767 281.46 199.047 281.46C201.657 281.46 202.947 282.45 202.947 284.67V285.72H197.457C193.497 285.72 191.907 287.49 191.907 289.74C191.907 292.62 194.157 294.24 197.547 294.24ZM198.237 291.72C196.197 291.72 194.997 290.94 194.997 289.59C194.997 288.42 195.837 287.76 197.757 287.76H202.947V288.03C202.947 290.31 201.147 291.72 198.237 291.72ZM209.359 294H212.719V287.52C212.719 283.98 214.309 281.82 216.859 281.82C218.839 281.82 219.799 282.99 219.799 285.48C219.799 286.17 219.739 286.92 219.679 287.49H222.739C222.799 286.86 222.889 285.66 222.889 284.73C222.889 281.04 221.119 278.94 217.909 278.94C214.849 278.94 213.319 280.77 212.629 283.44H212.599L212.719 279.18H209.359V294ZM230.82 294.24C234.09 294.24 235.86 292.92 236.34 290.73H236.37C236.37 291.93 236.28 293.28 236.22 294H239.58V284.97C239.58 281.07 236.94 278.94 232.44 278.94C228.21 278.94 225.63 280.71 225.63 283.68C225.63 283.95 225.66 284.34 225.69 284.55H228.78C228.75 284.31 228.75 284.07 228.75 283.98C228.75 282.33 230.04 281.46 232.32 281.46C234.93 281.46 236.22 282.45 236.22 284.67V285.72H230.73C226.77 285.72 225.18 287.49 225.18 289.74C225.18 292.62 227.43 294.24 230.82 294.24ZM231.51 291.72C229.47 291.72 228.27 290.94 228.27 289.59C228.27 288.42 229.11 287.76 231.03 287.76H236.22V288.03C236.22 290.31 234.42 291.72 231.51 291.72ZM261.292 299.94H264.652V279.18H261.322V282H261.292C260.692 280.11 258.922 278.94 256.042 278.94C251.902 278.94 248.932 281.91 248.932 286.47C248.932 291.21 251.632 294.24 255.892 294.24C258.742 294.24 260.722 292.8 261.262 290.58H261.292V299.94ZM256.612 291.48C254.002 291.48 252.262 289.53 252.262 286.47C252.262 283.59 254.062 281.7 256.672 281.7C259.462 281.7 261.292 283.38 261.292 285.99V286.71C261.292 289.62 259.432 291.48 256.612 291.48ZM274.028 294.24C277.328 294.24 279.398 292.68 280.028 289.86H280.058C280.058 291.42 279.998 293.01 279.908 294H283.268V279.18H279.908V285.75C279.908 289.35 278.018 291.36 275.018 291.36C272.588 291.36 271.148 290.04 271.148 287.7V279.18H267.788V288.18C267.788 292.11 270.158 294.24 274.028 294.24ZM300.504 286.05C300.504 281.43 297.834 278.94 293.634 278.94C288.954 278.94 286.014 281.91 286.014 286.71C286.014 291.36 288.954 294.24 293.634 294.24C297.684 294.24 300.384 292.23 300.504 288.93H297.474C297.324 290.67 295.854 291.63 293.694 291.63C291.174 291.63 289.584 290.1 289.404 287.25H300.504V286.05ZM297.474 285.21H289.494C289.884 282.75 291.354 281.55 293.664 281.55C296.094 281.55 297.474 282.78 297.474 285V285.21ZM303.262 294H306.622V286.77C306.622 283.59 308.152 281.82 310.432 281.82C312.442 281.82 313.552 283.14 313.552 285.24V294H316.912V286.65C316.912 283.56 318.412 281.82 320.752 281.82C322.762 281.82 323.812 283.14 323.812 285.3V294H327.172V284.55C327.172 281.07 325.282 278.94 321.982 278.94C319.162 278.94 317.362 280.44 316.822 282.84H316.792C316.432 280.44 314.572 278.94 311.692 278.94C308.992 278.94 307.192 280.53 306.532 283.08H306.502L306.622 279.18H303.262V294ZM347.265 291.66H342.465C341.385 291.66 340.785 291.15 340.785 290.31C340.785 289.8 340.965 289.38 341.145 289.17C341.925 289.38 342.795 289.5 343.755 289.5C347.835 289.5 350.355 287.49 350.355 284.22C350.355 283.11 350.055 282.12 349.485 281.34C349.305 280.77 349.155 280.26 349.155 279.84C349.155 279.03 349.635 278.61 350.625 278.61C351.045 278.61 351.375 278.67 351.615 278.76V276.39C351.255 276.3 350.835 276.24 350.115 276.24C348.345 276.24 347.205 276.99 347.205 278.19C347.205 278.82 347.475 279.39 347.925 279.87L347.895 279.9C346.815 279.27 345.435 278.94 343.755 278.94C339.675 278.94 337.155 280.98 337.155 284.22C337.155 286.08 337.965 287.55 339.435 288.45V288.51C338.625 288.9 338.055 289.77 338.055 291.03C338.055 292.08 338.505 292.89 339.345 293.46V293.49C337.575 293.58 336.465 294.69 336.465 296.19C336.465 298.86 339.465 300.39 344.475 300.39C349.365 300.39 352.275 298.53 352.275 295.41C352.275 293.04 350.445 291.66 347.265 291.66ZM343.755 281.34C345.855 281.34 347.145 282.45 347.145 284.22C347.145 285.99 345.855 287.1 343.755 287.1C341.655 287.1 340.365 285.99 340.365 284.22C340.365 282.45 341.655 281.34 343.755 281.34ZM344.445 298.02C341.595 298.02 339.795 297.33 339.795 295.92C339.795 294.78 340.875 294.27 342.555 294.27H346.575C348.165 294.27 348.915 294.81 348.915 295.8C348.915 297.12 347.595 298.02 344.445 298.02ZM361.209 294.24C365.949 294.24 368.979 291.33 368.979 286.62C368.979 281.88 365.949 278.94 361.209 278.94C356.499 278.94 353.469 281.88 353.469 286.62C353.469 291.33 356.499 294.24 361.209 294.24ZM361.209 291.48C358.479 291.48 356.829 289.62 356.829 286.62C356.829 283.59 358.479 281.7 361.209 281.7C363.939 281.7 365.619 283.59 365.619 286.62C365.619 289.62 363.939 291.48 361.209 291.48ZM377.988 294.24C382.728 294.24 385.248 292.47 385.248 289.47C385.248 288.27 384.678 287.13 383.688 286.59C382.638 285.99 381.438 285.78 379.338 285.57C377.538 285.39 376.128 285.24 375.408 285C374.538 284.7 374.388 284.1 374.388 283.47C374.388 282.21 375.708 281.37 378.048 281.37C380.508 281.37 381.558 282.3 381.588 284.22H384.618C384.618 280.86 382.578 278.94 377.958 278.94C373.938 278.94 371.058 280.74 371.058 283.71C371.058 284.85 371.538 285.93 372.348 286.53C373.248 287.19 374.808 287.49 377.118 287.7C378.768 287.85 380.178 288 380.898 288.27C381.678 288.54 381.888 289.05 381.888 289.62C381.888 290.97 380.688 291.81 377.958 291.81C375.078 291.81 374.088 290.76 374.088 289.05H371.058C371.058 291.96 372.888 294.24 377.988 294.24ZM394.584 294.18C395.814 294.18 396.834 293.97 397.284 293.82V291.15C396.864 291.27 395.904 291.42 395.064 291.42C393.024 291.42 392.304 290.46 392.304 288.54V281.91H397.404V279.18H392.304V275.82H389.514L389.364 278.04C389.274 278.88 389.064 279.18 388.494 279.18H386.604V281.91H388.944V288.72C388.944 291.99 390.534 294.18 394.584 294.18ZM404.728 294.24C407.998 294.24 409.768 292.92 410.248 290.73H410.278C410.278 291.93 410.188 293.28 410.128 294H413.488V284.97C413.488 281.07 410.848 278.94 406.348 278.94C402.118 278.94 399.538 280.71 399.538 283.68C399.538 283.95 399.568 284.34 399.598 284.55H402.688C402.658 284.31 402.658 284.07 402.658 283.98C402.658 282.33 403.948 281.46 406.228 281.46C408.838 281.46 410.128 282.45 410.128 284.67V285.72H404.638C400.678 285.72 399.088 287.49 399.088 289.74C399.088 292.62 401.338 294.24 404.728 294.24ZM405.418 291.72C403.378 291.72 402.178 290.94 402.178 289.59C402.178 288.42 403.018 287.76 404.938 287.76H410.128V288.03C410.128 290.31 408.328 291.72 405.418 291.72ZM429.829 294.24C432.859 294.24 434.719 292.74 435.289 290.4H435.349C435.289 291.84 435.259 293.13 435.199 294H438.559V273.21H435.199V281.79H435.169C434.569 280.05 432.829 278.94 430.039 278.94C425.629 278.94 422.839 282.03 422.839 286.5C422.839 291.12 425.539 294.24 429.829 294.24ZM430.519 291.48C427.879 291.48 426.169 289.44 426.169 286.5C426.169 283.68 427.909 281.7 430.579 281.7C433.369 281.7 435.199 283.38 435.199 286.02V286.74C435.199 289.62 433.339 291.48 430.519 291.48ZM455.885 286.05C455.885 281.43 453.215 278.94 449.015 278.94C444.335 278.94 441.395 281.91 441.395 286.71C441.395 291.36 444.335 294.24 449.015 294.24C453.065 294.24 455.765 292.23 455.885 288.93H452.855C452.705 290.67 451.235 291.63 449.075 291.63C446.555 291.63 444.965 290.1 444.785 287.25H455.885V286.05ZM452.855 285.21H444.875C445.265 282.75 446.735 281.55 449.045 281.55C451.475 281.55 452.855 282.78 452.855 285V285.21ZM7.77 338.24C11.07 338.24 13.14 336.68 13.77 333.86H13.8C13.8 335.42 13.74 337.01 13.65 338H17.01V323.18H13.65V329.75C13.65 333.35 11.76 335.36 8.76 335.36C6.33 335.36 4.89 334.04 4.89 331.7V323.18H1.53V332.18C1.53 336.11 3.9 338.24 7.77 338.24ZM20.2064 338H23.5664V330.77C23.5664 327.59 25.0964 325.82 27.3764 325.82C29.3864 325.82 30.4964 327.14 30.4964 329.24V338H33.8564V330.65C33.8564 327.56 35.3564 325.82 37.6964 325.82C39.7064 325.82 40.7564 327.14 40.7564 329.3V338H44.1164V328.55C44.1164 325.07 42.2264 322.94 38.9264 322.94C36.1064 322.94 34.3064 324.44 33.7664 326.84H33.7364C33.3764 324.44 31.5164 322.94 28.6364 322.94C25.9364 322.94 24.1364 324.53 23.4764 327.08H23.4464L23.5664 323.18H20.2064V338ZM59.1394 338.24C62.4094 338.24 64.1794 336.92 64.6594 334.73H64.6894C64.6894 335.93 64.5994 337.28 64.5394 338H67.8994V328.97C67.8994 325.07 65.2594 322.94 60.7594 322.94C56.5294 322.94 53.9494 324.71 53.9494 327.68C53.9494 327.95 53.9794 328.34 54.0094 328.55H57.0994C57.0694 328.31 57.0694 328.07 57.0694 327.98C57.0694 326.33 58.3594 325.46 60.6394 325.46C63.2494 325.46 64.5394 326.45 64.5394 328.67V329.72H59.0494C55.0894 329.72 53.4994 331.49 53.4994 333.74C53.4994 336.62 55.7494 338.24 59.1394 338.24ZM59.8294 335.72C57.7894 335.72 56.5894 334.94 56.5894 333.59C56.5894 332.42 57.4294 331.76 59.3494 331.76H64.5394V332.03C64.5394 334.31 62.7394 335.72 59.8294 335.72ZM70.9516 338H74.3116V330.77C74.3116 327.59 75.8416 325.82 78.1216 325.82C80.1316 325.82 81.2416 327.14 81.2416 329.24V338H84.6016V330.65C84.6016 327.56 86.1016 325.82 88.4416 325.82C90.4516 325.82 91.5016 327.14 91.5016 329.3V338H94.8616V328.55C94.8616 325.07 92.9716 322.94 89.6716 322.94C86.8516 322.94 85.0516 324.44 84.5116 326.84H84.4816C84.1216 324.44 82.2616 322.94 79.3816 322.94C76.6816 322.94 74.8816 324.53 74.2216 327.08H74.1916L74.3116 323.18H70.9516V338ZM106.976 338.24C111.146 338.24 113.756 335.21 113.756 330.32C113.756 325.76 111.206 322.94 106.946 322.94C104.006 322.94 101.966 324.32 101.336 326.48H101.306C101.336 325.76 101.366 324.56 101.366 323.93V317.21H98.0056V338H101.366C101.306 337.25 101.246 335.9 101.246 334.85H101.276C101.876 336.92 103.916 338.24 106.976 338.24ZM106.106 335.48C103.196 335.48 101.366 333.89 101.366 331.31V330.56C101.366 327.56 103.226 325.7 106.166 325.7C108.806 325.7 110.396 327.5 110.396 330.41C110.396 333.56 108.746 335.48 106.106 335.48ZM116.591 321.44H120.041V318.14H116.591V321.44ZM116.621 338H119.981V323.18H116.621V338ZM137.378 330.05C137.378 325.43 134.708 322.94 130.508 322.94C125.828 322.94 122.888 325.91 122.888 330.71C122.888 335.36 125.828 338.24 130.508 338.24C134.558 338.24 137.258 336.23 137.378 332.93H134.348C134.198 334.67 132.728 335.63 130.568 335.63C128.048 335.63 126.458 334.1 126.278 331.25H137.378V330.05ZM134.348 329.21H126.368C126.758 326.75 128.228 325.55 130.538 325.55C132.968 325.55 134.348 326.78 134.348 329V329.21ZM140.135 338H143.495V330.83C143.495 327.59 145.355 325.82 148.295 325.82C150.965 325.82 152.285 327.14 152.285 329.48V338H155.645V328.73C155.645 325.07 153.335 322.94 149.585 322.94C146.135 322.94 144.215 324.47 143.405 327.14H143.375L143.495 323.18H140.135V338ZM165.291 338.18C166.521 338.18 167.541 337.97 167.991 337.82V335.15C167.571 335.27 166.611 335.42 165.771 335.42C163.731 335.42 163.011 334.46 163.011 332.54V325.91H168.111V323.18H163.011V319.82H160.221L160.071 322.04C159.981 322.88 159.771 323.18 159.201 323.18H157.311V325.91H159.651V332.72C159.651 335.99 161.241 338.18 165.291 338.18ZM184.08 330.05C184.08 325.43 181.41 322.94 177.21 322.94C172.53 322.94 169.59 325.91 169.59 330.71C169.59 335.36 172.53 338.24 177.21 338.24C181.26 338.24 183.96 336.23 184.08 332.93H181.05C180.9 334.67 179.43 335.63 177.27 335.63C174.75 335.63 173.16 334.1 172.98 331.25H184.08V330.05ZM181.05 329.21H173.07C173.46 326.75 174.93 325.55 177.24 325.55C179.67 325.55 181.05 326.78 181.05 329V329.21ZM200.397 338.24C204.627 338.24 207.447 335.93 207.447 331.97H204.417C204.387 334.16 202.917 335.48 200.547 335.48C198.057 335.48 196.497 333.62 196.497 330.59C196.497 327.53 198.087 325.7 200.667 325.7C202.917 325.7 204.357 327.05 204.387 329.27H207.417C207.417 325.34 204.717 322.94 200.577 322.94C196.107 322.94 193.137 325.85 193.137 330.59C193.137 335.33 196.047 338.24 200.397 338.24ZM210.267 338H213.627V331.52C213.627 327.98 215.217 325.82 217.767 325.82C219.747 325.82 220.707 326.99 220.707 329.48C220.707 330.17 220.647 330.92 220.587 331.49H223.647C223.707 330.86 223.797 329.66 223.797 328.73C223.797 325.04 222.027 322.94 218.817 322.94C215.757 322.94 214.227 324.77 213.537 327.44H213.507L213.627 323.18H210.267V338ZM226.599 321.44H230.049V318.14H226.599V321.44ZM226.629 338H229.989V323.18H226.629V338ZM238.566 338.24C241.836 338.24 243.606 336.92 244.086 334.73H244.116C244.116 335.93 244.026 337.28 243.966 338H247.326V328.97C247.326 325.07 244.686 322.94 240.186 322.94C235.956 322.94 233.376 324.71 233.376 327.68C233.376 327.95 233.406 328.34 233.436 328.55H236.526C236.496 328.31 236.496 328.07 236.496 327.98C236.496 326.33 237.786 325.46 240.066 325.46C242.676 325.46 243.966 326.45 243.966 328.67V329.72H238.476C234.516 329.72 232.926 331.49 232.926 333.74C232.926 336.62 235.176 338.24 238.566 338.24ZM239.256 335.72C237.216 335.72 236.016 334.94 236.016 333.59C236.016 332.42 236.856 331.76 238.776 331.76H243.966V332.03C243.966 334.31 242.166 335.72 239.256 335.72ZM256.978 338.18C258.208 338.18 259.228 337.97 259.678 337.82V335.15C259.258 335.27 258.298 335.42 257.458 335.42C255.418 335.42 254.698 334.46 254.698 332.54V325.91H259.798V323.18H254.698V319.82H251.908L251.758 322.04C251.668 322.88 251.458 323.18 250.888 323.18H248.998V325.91H251.338V332.72C251.338 335.99 252.928 338.18 256.978 338.18ZM262.403 321.44H265.853V318.14H262.403V321.44ZM262.433 338H265.793V323.18H262.433V338ZM274.549 338H278.539L284.959 323.18H281.449L276.739 334.85H276.679L272.029 323.18H268.099L274.549 338ZM293.94 338.24C298.68 338.24 301.71 335.33 301.71 330.62C301.71 325.88 298.68 322.94 293.94 322.94C289.23 322.94 286.2 325.88 286.2 330.62C286.2 335.33 289.23 338.24 293.94 338.24ZM293.94 335.48C291.21 335.48 289.56 333.62 289.56 330.62C289.56 327.59 291.21 325.7 293.94 325.7C296.67 325.7 298.35 327.59 298.35 330.62C298.35 333.62 296.67 335.48 293.94 335.48ZM304.415 342.14C307.025 341.93 308.345 340.46 308.345 336.92V334.1H304.955V338H306.365V338.09C306.365 339.56 305.795 340.28 304.415 340.4V342.14ZM325.42 338.24C328.45 338.24 330.31 336.74 330.88 334.4H330.94C330.88 335.84 330.85 337.13 330.79 338H334.15V317.21H330.79V325.79H330.76C330.16 324.05 328.42 322.94 325.63 322.94C321.22 322.94 318.43 326.03 318.43 330.5C318.43 335.12 321.13 338.24 325.42 338.24ZM326.11 335.48C323.47 335.48 321.76 333.44 321.76 330.5C321.76 327.68 323.5 325.7 326.17 325.7C328.96 325.7 330.79 327.38 330.79 330.02V330.74C330.79 333.62 328.93 335.48 326.11 335.48ZM337.526 321.44H340.976V318.14H337.526V321.44ZM337.556 338H340.916V323.18H337.556V338ZM344.273 338H347.633V330.83C347.633 327.59 349.493 325.82 352.433 325.82C355.103 325.82 356.423 327.14 356.423 329.48V338H359.783V328.73C359.783 325.07 357.473 322.94 353.723 322.94C350.273 322.94 348.353 324.47 347.543 327.14H347.513L347.633 323.18H344.273V338ZM365.228 321.8L369.668 319.67H369.728L374.168 321.8V319.31L369.728 317.18H369.668L365.228 319.31V321.8ZM368.048 338.24C371.318 338.24 373.088 336.92 373.568 334.73H373.598C373.598 335.93 373.508 337.28 373.448 338H376.808V328.97C376.808 325.07 374.168 322.94 369.668 322.94C365.438 322.94 362.858 324.71 362.858 327.68C362.858 327.95 362.888 328.34 362.918 328.55H366.008C365.978 328.31 365.978 328.07 365.978 327.98C365.978 326.33 367.268 325.46 369.548 325.46C372.158 325.46 373.448 326.45 373.448 328.67V329.72H367.958C363.998 329.72 362.408 331.49 362.408 333.74C362.408 336.62 364.658 338.24 368.048 338.24ZM368.738 335.72C366.698 335.72 365.498 334.94 365.498 333.59C365.498 332.42 366.338 331.76 368.258 331.76H373.448V332.03C373.448 334.31 371.648 335.72 368.738 335.72ZM379.861 338H383.221V330.77C383.221 327.59 384.751 325.82 387.031 325.82C389.041 325.82 390.151 327.14 390.151 329.24V338H393.511V330.65C393.511 327.56 395.011 325.82 397.351 325.82C399.361 325.82 400.411 327.14 400.411 329.3V338H403.771V328.55C403.771 325.07 401.881 322.94 398.581 322.94C395.761 322.94 393.961 324.44 393.421 326.84H393.391C393.031 324.44 391.171 322.94 388.291 322.94C385.591 322.94 383.791 324.53 383.131 327.08H383.101L383.221 323.18H379.861V338ZM406.915 321.44H410.365V318.14H406.915V321.44ZM406.945 338H410.305V323.18H406.945V338ZM420.472 338.24C424.702 338.24 427.522 335.93 427.522 331.97H424.492C424.462 334.16 422.992 335.48 420.622 335.48C418.132 335.48 416.572 333.62 416.572 330.59C416.572 327.53 418.162 325.7 420.742 325.7C422.992 325.7 424.432 327.05 424.462 329.27H427.492C427.492 325.34 424.792 322.94 420.652 322.94C416.182 322.94 413.212 325.85 413.212 330.59C413.212 335.33 416.122 338.24 420.472 338.24ZM437.632 338.24C442.372 338.24 445.402 335.33 445.402 330.62C445.402 325.88 442.372 322.94 437.632 322.94C432.922 322.94 429.892 325.88 429.892 330.62C429.892 335.33 432.922 338.24 437.632 338.24ZM437.632 335.48C434.902 335.48 433.252 333.62 433.252 330.62C433.252 327.59 434.902 325.7 437.632 325.7C440.362 325.7 442.042 327.59 442.042 330.62C442.042 333.62 440.362 335.48 437.632 335.48ZM468.896 330.05C468.896 325.43 466.226 322.94 462.026 322.94C457.346 322.94 454.406 325.91 454.406 330.71C454.406 335.36 457.346 338.24 462.026 338.24C466.076 338.24 468.776 336.23 468.896 332.93H465.866C465.716 334.67 464.246 335.63 462.086 335.63C459.566 335.63 457.976 334.1 457.796 331.25H468.896V330.05ZM465.866 329.21H457.886C458.276 326.75 459.746 325.55 462.056 325.55C464.486 325.55 465.866 326.78 465.866 329V329.21ZM8.22 382.24C11.25 382.24 13.11 380.74 13.68 378.4H13.74C13.68 379.84 13.65 381.13 13.59 382H16.95V361.21H13.59V369.79H13.56C12.96 368.05 11.22 366.94 8.43 366.94C4.02 366.94 1.23 370.03 1.23 374.5C1.23 379.12 3.93 382.24 8.22 382.24ZM8.91 379.48C6.27 379.48 4.56 377.44 4.56 374.5C4.56 371.68 6.3 369.7 8.97 369.7C11.76 369.7 13.59 371.38 13.59 374.02V374.74C13.59 377.62 11.73 379.48 8.91 379.48ZM20.3257 365.44H23.7757V362.14H20.3257V365.44ZM20.3557 382H23.7157V367.18H20.3557V382ZM32.4727 382H36.4627L42.8827 367.18H39.3727L34.6627 378.85H34.6027L29.9527 367.18H26.0227L32.4727 382ZM58.6137 374.05C58.6137 369.43 55.9437 366.94 51.7437 366.94C47.0637 366.94 44.1237 369.91 44.1237 374.71C44.1237 379.36 47.0637 382.24 51.7437 382.24C55.7937 382.24 58.4937 380.23 58.6137 376.93H55.5837C55.4337 378.67 53.9637 379.63 51.8037 379.63C49.2837 379.63 47.6937 378.1 47.5137 375.25H58.6137V374.05ZM55.5837 373.21H47.6037C47.9937 370.75 49.4637 369.55 51.7737 369.55C54.2037 369.55 55.5837 370.78 55.5837 373V373.21ZM61.3716 382H64.7316V375.52C64.7316 371.98 66.3216 369.82 68.8716 369.82C70.8516 369.82 71.8116 370.99 71.8116 373.48C71.8116 374.17 71.7516 374.92 71.6916 375.49H74.7516C74.8116 374.86 74.9016 373.66 74.9016 372.73C74.9016 369.04 73.1316 366.94 69.9216 366.94C66.8616 366.94 65.3316 368.77 64.6416 371.44H64.6116L64.7316 367.18H61.3716V382ZM84.2128 382.18C85.4428 382.18 86.4628 381.97 86.9128 381.82V379.15C86.4928 379.27 85.5328 379.42 84.6928 379.42C82.6528 379.42 81.9328 378.46 81.9328 376.54V369.91H87.0328V367.18H81.9328V363.82H79.1428L78.9928 366.04C78.9028 366.88 78.6928 367.18 78.1228 367.18H76.2328V369.91H78.5728V376.72C78.5728 379.99 80.1628 382.18 84.2128 382.18ZM89.6374 365.44H93.0874V362.14H89.6374V365.44ZM89.6674 382H93.0274V367.18H89.6674V382ZM102.924 382.24C105.954 382.24 107.814 380.74 108.384 378.4H108.444C108.384 379.84 108.354 381.13 108.294 382H111.654V361.21H108.294V369.79H108.264C107.664 368.05 105.924 366.94 103.134 366.94C98.7244 366.94 95.9344 370.03 95.9344 374.5C95.9344 379.12 98.6344 382.24 102.924 382.24ZM103.614 379.48C100.974 379.48 99.2644 377.44 99.2644 374.5C99.2644 371.68 101.004 369.7 103.674 369.7C106.464 369.7 108.294 371.38 108.294 374.02V374.74C108.294 377.62 106.434 379.48 103.614 379.48ZM122.23 382.24C126.97 382.24 130 379.33 130 374.62C130 369.88 126.97 366.94 122.23 366.94C117.52 366.94 114.49 369.88 114.49 374.62C114.49 379.33 117.52 382.24 122.23 382.24ZM122.23 379.48C119.5 379.48 117.85 377.62 117.85 374.62C117.85 371.59 119.5 369.7 122.23 369.7C124.96 369.7 126.64 371.59 126.64 374.62C126.64 377.62 124.96 379.48 122.23 379.48ZM132.705 386.14C135.315 385.93 136.635 384.46 136.635 380.92V378.1H133.245V382H134.655V382.09C134.655 383.56 134.085 384.28 132.705 384.4V386.14ZM147.17 382H150.53V374.83C150.53 371.59 152.39 369.82 155.33 369.82C158 369.82 159.32 371.14 159.32 373.48V382H162.68V372.73C162.68 369.07 160.37 366.94 156.62 366.94C153.17 366.94 151.25 368.47 150.44 371.14H150.41L150.53 367.18H147.17V382ZM167.105 365.35H169.235C169.415 363.7 169.895 363.04 170.495 363.04C171.035 363.04 171.305 363.28 171.815 363.79L172.265 364.24C172.895 364.87 173.585 365.35 174.725 365.35C176.375 365.35 177.815 364.15 178.055 360.94H175.955C175.775 362.62 175.295 363.28 174.665 363.28C174.155 363.28 173.855 363.01 173.345 362.5L172.895 362.08C172.265 361.45 171.575 360.94 170.435 360.94C168.815 360.94 167.345 362.17 167.105 365.35ZM170.945 382.24C174.215 382.24 175.985 380.92 176.465 378.73H176.495C176.495 379.93 176.405 381.28 176.345 382H179.705V372.97C179.705 369.07 177.065 366.94 172.565 366.94C168.335 366.94 165.755 368.71 165.755 371.68C165.755 371.95 165.785 372.34 165.815 372.55H168.905C168.875 372.31 168.875 372.07 168.875 371.98C168.875 370.33 170.165 369.46 172.445 369.46C175.055 369.46 176.345 370.45 176.345 372.67V373.72H170.855C166.895 373.72 165.305 375.49 165.305 377.74C165.305 380.62 167.555 382.24 170.945 382.24ZM171.635 379.72C169.595 379.72 168.395 378.94 168.395 377.59C168.395 376.42 169.235 375.76 171.155 375.76H176.345V376.03C176.345 378.31 174.545 379.72 171.635 379.72ZM190.048 382.24C194.788 382.24 197.818 379.33 197.818 374.62C197.818 369.88 194.788 366.94 190.048 366.94C185.338 366.94 182.308 369.88 182.308 374.62C182.308 379.33 185.338 382.24 190.048 382.24ZM190.048 379.48C187.318 379.48 185.668 377.62 185.668 374.62C185.668 371.59 187.318 369.7 190.048 369.7C192.778 369.7 194.458 371.59 194.458 374.62C194.458 377.62 192.778 379.48 190.048 379.48ZM213.871 382.18C215.101 382.18 216.121 381.97 216.571 381.82V379.15C216.151 379.27 215.191 379.42 214.351 379.42C212.311 379.42 211.591 378.46 211.591 376.54V369.91H216.691V367.18H211.591V363.82H208.801L208.651 366.04C208.561 366.88 208.351 367.18 207.781 367.18H205.891V369.91H208.231V376.72C208.231 379.99 209.821 382.18 213.871 382.18ZM232.66 374.05C232.66 369.43 229.99 366.94 225.79 366.94C221.11 366.94 218.17 369.91 218.17 374.71C218.17 379.36 221.11 382.24 225.79 382.24C229.84 382.24 232.54 380.23 232.66 376.93H229.63C229.48 378.67 228.01 379.63 225.85 379.63C223.33 379.63 221.74 378.1 221.56 375.25H232.66V374.05ZM229.63 373.21H221.65C222.04 370.75 223.51 369.55 225.82 369.55C228.25 369.55 229.63 370.78 229.63 373V373.21ZM235.418 382H238.778V374.77C238.778 371.59 240.308 369.82 242.588 369.82C244.598 369.82 245.708 371.14 245.708 373.24V382H249.068V374.65C249.068 371.56 250.568 369.82 252.908 369.82C254.918 369.82 255.968 371.14 255.968 373.3V382H259.328V372.55C259.328 369.07 257.438 366.94 254.138 366.94C251.318 366.94 249.518 368.44 248.978 370.84H248.948C248.588 368.44 246.728 366.94 243.848 366.94C241.148 366.94 239.348 368.53 238.688 371.08H238.658L238.778 367.18H235.418V382ZM269.221 382H272.581V361.21H269.221V382ZM281.999 382.24C285.299 382.24 287.369 380.68 287.999 377.86H288.029C288.029 379.42 287.969 381.01 287.879 382H291.239V367.18H287.879V373.75C287.879 377.35 285.989 379.36 282.989 379.36C280.559 379.36 279.119 378.04 279.119 375.7V367.18H275.759V376.18C275.759 380.11 278.129 382.24 281.999 382.24ZM304.726 379.66H299.926C298.846 379.66 298.246 379.15 298.246 378.31C298.246 377.8 298.426 377.38 298.606 377.17C299.386 377.38 300.256 377.5 301.216 377.5C305.296 377.5 307.816 375.49 307.816 372.22C307.816 371.11 307.516 370.12 306.946 369.34C306.766 368.77 306.616 368.26 306.616 367.84C306.616 367.03 307.096 366.61 308.086 366.61C308.506 366.61 308.836 366.67 309.076 366.76V364.39C308.716 364.3 308.296 364.24 307.576 364.24C305.806 364.24 304.666 364.99 304.666 366.19C304.666 366.82 304.936 367.39 305.386 367.87L305.356 367.9C304.276 367.27 302.896 366.94 301.216 366.94C297.136 366.94 294.616 368.98 294.616 372.22C294.616 374.08 295.426 375.55 296.896 376.45V376.51C296.086 376.9 295.516 377.77 295.516 379.03C295.516 380.08 295.966 380.89 296.806 381.46V381.49C295.036 381.58 293.926 382.69 293.926 384.19C293.926 386.86 296.926 388.39 301.936 388.39C306.826 388.39 309.736 386.53 309.736 383.41C309.736 381.04 307.906 379.66 304.726 379.66ZM301.216 369.34C303.316 369.34 304.606 370.45 304.606 372.22C304.606 373.99 303.316 375.1 301.216 375.1C299.116 375.1 297.826 373.99 297.826 372.22C297.826 370.45 299.116 369.34 301.216 369.34ZM301.906 386.02C299.056 386.02 297.256 385.33 297.256 383.92C297.256 382.78 298.336 382.27 300.016 382.27H304.036C305.626 382.27 306.376 382.81 306.376 383.8C306.376 385.12 305.056 386.02 301.906 386.02ZM316.922 382.24C320.192 382.24 321.962 380.92 322.442 378.73H322.472C322.472 379.93 322.382 381.28 322.322 382H325.682V372.97C325.682 369.07 323.042 366.94 318.542 366.94C314.312 366.94 311.732 368.71 311.732 371.68C311.732 371.95 311.762 372.34 311.792 372.55H314.882C314.852 372.31 314.852 372.07 314.852 371.98C314.852 370.33 316.142 369.46 318.422 369.46C321.032 369.46 322.322 370.45 322.322 372.67V373.72H316.832C312.872 373.72 311.282 375.49 311.282 377.74C311.282 380.62 313.532 382.24 316.922 382.24ZM317.612 379.72C315.572 379.72 314.372 378.94 314.372 377.59C314.372 376.42 315.212 375.76 317.132 375.76H322.322V376.03C322.322 378.31 320.522 379.72 317.612 379.72ZM328.735 382H332.095V375.52C332.095 371.98 333.685 369.82 336.235 369.82C338.215 369.82 339.175 370.99 339.175 373.48C339.175 374.17 339.115 374.92 339.055 375.49H342.115C342.175 374.86 342.265 373.66 342.265 372.73C342.265 369.04 340.495 366.94 337.285 366.94C334.225 366.94 332.695 368.77 332.005 371.44H331.975L332.095 367.18H328.735V382ZM351.725 382H355.085V374.77C355.085 371.59 356.615 369.82 358.895 369.82C360.905 369.82 362.015 371.14 362.015 373.24V382H365.375V374.65C365.375 371.56 366.875 369.82 369.215 369.82C371.225 369.82 372.275 371.14 372.275 373.3V382H375.635V372.55C375.635 369.07 373.745 366.94 370.445 366.94C367.625 366.94 365.825 368.44 365.285 370.84H365.255C364.895 368.44 363.035 366.94 360.155 366.94C357.455 366.94 355.655 368.53 354.995 371.08H354.965L355.085 367.18H351.725V382ZM392.729 374.05C392.729 369.43 390.059 366.94 385.859 366.94C381.179 366.94 378.239 369.91 378.239 374.71C378.239 379.36 381.179 382.24 385.859 382.24C389.909 382.24 392.609 380.23 392.729 376.93H389.699C389.549 378.67 388.079 379.63 385.919 379.63C383.399 379.63 381.809 378.1 381.629 375.25H392.729V374.05ZM389.699 373.21H381.719C382.109 370.75 383.579 369.55 385.889 369.55C388.319 369.55 389.699 370.78 389.699 373V373.21ZM395.577 382H398.937V361.21H395.577V382ZM402.355 382H405.715V374.98C405.715 371.65 407.575 369.82 410.545 369.82C413.215 369.82 414.535 371.14 414.535 373.48V382H417.895V372.73C417.895 369.07 415.585 366.94 411.835 366.94C408.355 366.94 406.435 368.47 405.655 371.17H405.625C405.655 370.36 405.715 368.65 405.715 367.93V361.21H402.355V382ZM428.228 382.24C432.968 382.24 435.998 379.33 435.998 374.62C435.998 369.88 432.968 366.94 428.228 366.94C423.518 366.94 420.488 369.88 420.488 374.62C420.488 379.33 423.518 382.24 428.228 382.24ZM428.228 379.48C425.498 379.48 423.848 377.62 423.848 374.62C423.848 371.59 425.498 369.7 428.228 369.7C430.958 369.7 432.638 371.59 432.638 374.62C432.638 377.62 430.958 379.48 428.228 379.48ZM438.703 382H442.063V375.52C442.063 371.98 443.653 369.82 446.203 369.82C448.183 369.82 449.143 370.99 449.143 373.48C449.143 374.17 449.083 374.92 449.023 375.49H452.083C452.143 374.86 452.233 373.66 452.233 372.73C452.233 369.04 450.463 366.94 447.253 366.94C444.193 366.94 442.663 368.77 441.973 371.44H441.943L442.063 367.18H438.703V382ZM455.874 375.22H457.194L458.184 365.23V361.84H454.884V365.23L455.874 375.22ZM454.824 382H458.244V378.1H454.824V382Z" fill="black"/>
</svg>
