<svg width="583" height="352" viewBox="0 0 583 352" fill="none" xmlns="http://www.w3.org/2000/svg">
<path d="M9 10.41C3.96 10.41 1.92 12.78 1.92 17.01V20.34H7.74V15.39H5.37V15.27C5.37 13.95 6.18 12.96 9 12.96V10.41ZM18.06 10.41C13.02 10.41 10.98 12.78 10.98 17.01V20.34H16.8V15.39H14.43V15.27C14.43 13.95 15.24 12.96 18.06 12.96V10.41ZM193.381 328.16C198.421 328.16 200.461 325.79 200.461 321.56V318.23H194.641V323.18H197.011V323.3C197.011 324.62 196.201 325.61 193.381 325.61V328.16ZM202.471 328.16C207.511 328.16 209.551 325.79 209.551 321.56V318.23H203.731V323.18H206.101V323.3C206.101 324.62 205.291 325.61 202.471 325.61V328.16Z" fill="#FF00FF"/>
<path d="M28.653 30.3C35.373 30.3 37.233 27.33 37.233 24.15C37.233 22.32 36.453 20.94 35.103 20.25C33.873 19.59 31.953 19.26 29.883 18.93C28.173 18.69 25.953 18.33 25.083 17.91C24.303 17.55 23.913 16.89 23.913 15.78C23.913 13.98 25.683 12.75 28.653 12.75C31.743 12.75 33.333 14.13 33.333 17.04H36.573C36.573 12.54 34.443 9.96 28.593 9.96C23.433 9.96 20.343 12.48 20.343 16.08C20.343 17.94 21.093 19.29 22.293 20.04C23.373 20.73 25.473 21.18 27.453 21.45C29.163 21.69 31.293 21.96 32.283 22.35C33.213 22.68 33.663 23.31 33.663 24.39C33.663 26.01 32.643 27.51 28.623 27.51C24.843 27.51 23.643 25.77 23.643 23.25H20.403C20.403 26.85 22.113 30.3 28.653 30.3ZM54.0619 22.05C54.0619 17.43 51.3919 14.94 47.1919 14.94C42.5119 14.94 39.5719 17.91 39.5719 22.71C39.5719 27.36 42.5119 30.24 47.1919 30.24C51.2419 30.24 53.9419 28.23 54.0619 24.93H51.0319C50.8819 26.67 49.4119 27.63 47.2519 27.63C44.7319 27.63 43.1419 26.1 42.9619 23.25H54.0619V22.05ZM51.0319 21.21H43.0519C43.4419 18.75 44.9119 17.55 47.2219 17.55C49.6519 17.55 51.0319 18.78 51.0319 21V21.21ZM56.8198 30H60.1798V23.52C60.1798 19.98 61.7698 17.82 64.3198 17.82C66.2998 17.82 67.2598 18.99 67.2598 21.48C67.2598 22.17 67.1998 22.92 67.1398 23.49H70.1998C70.2598 22.86 70.3498 21.66 70.3498 20.73C70.3498 17.04 68.5798 14.94 65.3698 14.94C62.3098 14.94 60.7798 16.77 60.0898 19.44H60.0598L60.1798 15.18H56.8198V30ZM86.3501 30.24C89.3801 30.24 91.2401 28.74 91.8101 26.4H91.8701C91.8101 27.84 91.7801 29.13 91.7201 30H95.0801V9.21H91.7201V17.79H91.6901C91.0901 16.05 89.3501 14.94 86.5601 14.94C82.1501 14.94 79.3601 18.03 79.3601 22.5C79.3601 27.12 82.0601 30.24 86.3501 30.24ZM87.0401 27.48C84.4001 27.48 82.6901 25.44 82.6901 22.5C82.6901 19.68 84.4301 17.7 87.1001 17.7C89.8901 17.7 91.7201 19.38 91.7201 22.02V22.74C91.7201 25.62 89.8601 27.48 87.0401 27.48ZM105.656 30.24C110.396 30.24 113.426 27.33 113.426 22.62C113.426 17.88 110.396 14.94 105.656 14.94C100.946 14.94 97.9158 17.88 97.9158 22.62C97.9158 27.33 100.946 30.24 105.656 30.24ZM105.656 27.48C102.926 27.48 101.276 25.62 101.276 22.62C101.276 19.59 102.926 17.7 105.656 17.7C108.386 17.7 110.066 19.59 110.066 22.62C110.066 25.62 108.386 27.48 105.656 27.48ZM129.48 30.18C130.71 30.18 131.73 29.97 132.18 29.82V27.15C131.76 27.27 130.8 27.42 129.96 27.42C127.92 27.42 127.2 26.46 127.2 24.54V17.91H132.3V15.18H127.2V11.82H124.41L124.26 14.04C124.17 14.88 123.96 15.18 123.39 15.18H121.5V17.91H123.84V24.72C123.84 27.99 125.43 30.18 129.48 30.18ZM134.904 13.44H138.354V10.14H134.904V13.44ZM134.934 30H138.294V15.18H134.934V30ZM141.651 30H145.011V22.77C145.011 19.59 146.541 17.82 148.821 17.82C150.831 17.82 151.941 19.14 151.941 21.24V30H155.301V22.65C155.301 19.56 156.801 17.82 159.141 17.82C161.151 17.82 162.201 19.14 162.201 21.3V30H165.561V20.55C165.561 17.07 163.671 14.94 160.371 14.94C157.551 14.94 155.751 16.44 155.211 18.84H155.181C154.821 16.44 152.961 14.94 150.081 14.94C147.381 14.94 145.581 16.53 144.921 19.08H144.891L145.011 15.18H141.651V30ZM182.655 22.05C182.655 17.43 179.985 14.94 175.785 14.94C171.105 14.94 168.165 17.91 168.165 22.71C168.165 27.36 171.105 30.24 175.785 30.24C179.835 30.24 182.535 28.23 182.655 24.93H179.625C179.475 26.67 178.005 27.63 175.845 27.63C173.325 27.63 171.735 26.1 171.555 23.25H182.655V22.05ZM179.625 21.21H171.645C172.035 18.75 173.505 17.55 175.815 17.55C178.245 17.55 179.625 18.78 179.625 21V21.21ZM198.702 30.24C201.732 30.24 203.592 28.74 204.162 26.4H204.222C204.162 27.84 204.132 29.13 204.072 30H207.432V9.21H204.072V17.79H204.042C203.442 16.05 201.702 14.94 198.912 14.94C194.502 14.94 191.712 18.03 191.712 22.5C191.712 27.12 194.412 30.24 198.702 30.24ZM199.392 27.48C196.752 27.48 195.042 25.44 195.042 22.5C195.042 19.68 196.782 17.7 199.452 17.7C202.242 17.7 204.072 19.38 204.072 22.02V22.74C204.072 25.62 202.212 27.48 199.392 27.48ZM215.938 30.24C219.208 30.24 220.978 28.92 221.458 26.73H221.488C221.488 27.93 221.398 29.28 221.338 30H224.698V20.97C224.698 17.07 222.058 14.94 217.558 14.94C213.328 14.94 210.748 16.71 210.748 19.68C210.748 19.95 210.778 20.34 210.808 20.55H213.898C213.868 20.31 213.868 20.07 213.868 19.98C213.868 18.33 215.158 17.46 217.438 17.46C220.048 17.46 221.338 18.45 221.338 20.67V21.72H215.848C211.888 21.72 210.298 23.49 210.298 25.74C210.298 28.62 212.548 30.24 215.938 30.24ZM216.628 27.72C214.588 27.72 213.388 26.94 213.388 25.59C213.388 24.42 214.228 23.76 216.148 23.76H221.338V24.03C221.338 26.31 219.538 27.72 216.628 27.72ZM234.739 30H238.129L238.099 13.26H238.129L248.659 30H252.919V10.26H249.529L249.589 25.26H249.529L240.139 10.26H234.739V30ZM265.725 30.3C269.325 30.3 271.545 28.74 272.145 26.46H272.175C272.145 27.81 272.055 29.22 271.995 30H274.995V20.28H265.395V22.56H271.515V23.01C271.515 25.68 269.175 27.51 266.025 27.51C262.455 27.51 259.545 24.78 259.545 20.37C259.545 15.81 262.365 12.96 266.175 12.96C269.205 12.96 271.605 14.55 271.605 17.34C271.605 17.61 271.605 17.94 271.575 18.3H274.785C274.815 17.94 274.845 17.46 274.845 17.13C274.845 12.63 271.095 9.96 266.115 9.96C260.295 9.96 255.915 14.01 255.915 20.34C255.915 26.52 260.085 30.3 265.725 30.3ZM278.772 30H282.162V26.1H278.772V30ZM295.608 30.3C300.828 30.3 304.548 27.24 304.548 22.77V22.08H301.338V22.56C301.338 25.41 299.028 27.3 295.728 27.3C292.008 27.3 289.128 24.57 289.128 20.16C289.128 15.75 291.888 12.96 295.728 12.96C298.908 12.96 301.278 14.88 301.278 17.91C301.278 18.06 301.278 18.3 301.248 18.57H304.428C304.458 18.21 304.488 17.82 304.488 17.61C304.488 13.05 300.798 9.96 295.608 9.96C289.668 9.96 285.468 13.86 285.468 20.16C285.468 26.43 289.728 30.3 295.608 30.3ZM321.676 30H325.846L317.836 10.26H313.456L305.416 30H309.136L310.816 25.56H320.026L321.676 30ZM311.716 23.16L315.406 13.32H315.466L319.126 23.16H311.716ZM335.109 30.3C341.829 30.3 343.689 27.33 343.689 24.15C343.689 22.32 342.909 20.94 341.559 20.25C340.329 19.59 338.409 19.26 336.339 18.93C334.629 18.69 332.409 18.33 331.539 17.91C330.759 17.55 330.369 16.89 330.369 15.78C330.369 13.98 332.139 12.75 335.109 12.75C338.199 12.75 339.789 14.13 339.789 17.04H343.029C343.029 12.54 340.899 9.96 335.049 9.96C329.889 9.96 326.799 12.48 326.799 16.08C326.799 17.94 327.549 19.29 328.749 20.04C329.829 20.73 331.929 21.18 333.909 21.45C335.619 21.69 337.749 21.96 338.739 22.35C339.669 22.68 340.119 23.31 340.119 24.39C340.119 26.01 339.099 27.51 335.079 27.51C331.299 27.51 330.099 25.77 330.099 23.25H326.859C326.859 26.85 328.569 30.3 335.109 30.3ZM346.718 30H350.318V21.21H360.818V30H364.388V10.26H360.818V18.33H350.318V10.26H346.718V30ZM385.755 9.45H382.245L379.905 13.65H382.545L385.755 9.45ZM388.635 22.05C388.635 17.43 385.965 14.94 381.765 14.94C377.085 14.94 374.145 17.91 374.145 22.71C374.145 27.36 377.085 30.24 381.765 30.24C385.815 30.24 388.515 28.23 388.635 24.93H385.605C385.455 26.67 383.985 27.63 381.825 27.63C379.305 27.63 377.715 26.1 377.535 23.25H388.635V22.05ZM385.605 21.21H377.625C378.015 18.75 379.485 17.55 381.795 17.55C384.225 17.55 385.605 18.78 385.605 21V21.21ZM404.742 30.18C405.972 30.18 406.992 29.97 407.442 29.82V27.15C407.022 27.27 406.062 27.42 405.222 27.42C403.182 27.42 402.462 26.46 402.462 24.54V17.91H407.562V15.18H402.462V11.82H399.672L399.522 14.04C399.432 14.88 399.222 15.18 398.652 15.18H396.762V17.91H399.102V24.72C399.102 27.99 400.692 30.18 404.742 30.18ZM423.531 22.05C423.531 17.43 420.861 14.94 416.661 14.94C411.981 14.94 409.041 17.91 409.041 22.71C409.041 27.36 411.981 30.24 416.661 30.24C420.711 30.24 423.411 28.23 423.531 24.93H420.501C420.351 26.67 418.881 27.63 416.721 27.63C414.201 27.63 412.611 26.1 412.431 23.25H423.531V22.05ZM420.501 21.21H412.521C412.911 18.75 414.381 17.55 416.691 17.55C419.121 17.55 420.501 18.78 420.501 21V21.21ZM426.289 30H429.649V23.52C429.649 19.98 431.239 17.82 433.789 17.82C435.769 17.82 436.729 18.99 436.729 21.48C436.729 22.17 436.669 22.92 436.609 23.49H439.669C439.729 22.86 439.819 21.66 439.819 20.73C439.819 17.04 438.049 14.94 434.839 14.94C431.779 14.94 430.249 16.77 429.559 19.44H429.529L429.649 15.18H426.289V30ZM454.499 30.24C457.769 30.24 459.539 28.92 460.019 26.73H460.049C460.049 27.93 459.959 29.28 459.899 30H463.259V20.97C463.259 17.07 460.619 14.94 456.119 14.94C451.889 14.94 449.309 16.71 449.309 19.68C449.309 19.95 449.339 20.34 449.369 20.55H452.459C452.429 20.31 452.429 20.07 452.429 19.98C452.429 18.33 453.719 17.46 455.999 17.46C458.609 17.46 459.899 18.45 459.899 20.67V21.72H454.409C450.449 21.72 448.859 23.49 448.859 25.74C448.859 28.62 451.109 30.24 454.499 30.24ZM455.189 27.72C453.149 27.72 451.949 26.94 451.949 25.59C451.949 24.42 452.789 23.76 454.709 23.76H459.899V24.03C459.899 26.31 458.099 27.72 455.189 27.72ZM8.49 74.24C12.72 74.24 15.54 71.93 15.54 67.97H12.51C12.48 70.16 11.01 71.48 8.64 71.48C6.15 71.48 4.59 69.62 4.59 66.59C4.59 63.53 6.18 61.7 8.76 61.7C11.01 61.7 12.45 63.05 12.48 65.27H15.51C15.51 61.34 12.81 58.94 8.67 58.94C4.2 58.94 1.23 61.85 1.23 66.59C1.23 71.33 4.14 74.24 8.49 74.24ZM25.6507 74.24C30.3907 74.24 33.4207 71.33 33.4207 66.62C33.4207 61.88 30.3907 58.94 25.6507 58.94C20.9407 58.94 17.9107 61.88 17.9107 66.62C17.9107 71.33 20.9407 74.24 25.6507 74.24ZM25.6507 71.48C22.9207 71.48 21.2707 69.62 21.2707 66.62C21.2707 63.59 22.9207 61.7 25.6507 61.7C28.3807 61.7 30.0607 63.59 30.0607 66.62C30.0607 69.62 28.3807 71.48 25.6507 71.48ZM36.1254 74H39.4854V66.77C39.4854 63.59 41.0154 61.82 43.2954 61.82C45.3054 61.82 46.4154 63.14 46.4154 65.24V74H49.7754V66.65C49.7754 63.56 51.2754 61.82 53.6154 61.82C55.6254 61.82 56.6754 63.14 56.6754 65.3V74H60.0354V64.55C60.0354 61.07 58.1454 58.94 54.8454 58.94C52.0254 58.94 50.2254 60.44 49.6854 62.84H49.6554C49.2954 60.44 47.4354 58.94 44.5554 58.94C41.8554 58.94 40.0554 60.53 39.3954 63.08H39.3654L39.4854 59.18H36.1254V74ZM72.1493 74.24C76.3193 74.24 78.9293 71.21 78.9293 66.32C78.9293 61.76 76.3793 58.94 72.1193 58.94C69.1793 58.94 67.1393 60.32 66.5093 62.48H66.4793C66.5093 61.76 66.5393 60.56 66.5393 59.93V53.21H63.1793V74H66.5393C66.4793 73.25 66.4193 71.9 66.4193 70.85H66.4493C67.0493 72.92 69.0893 74.24 72.1493 74.24ZM71.2793 71.48C68.3693 71.48 66.5393 69.89 66.5393 67.31V66.56C66.5393 63.56 68.3993 61.7 71.3393 61.7C73.9793 61.7 75.5693 63.5 75.5693 66.41C75.5693 69.56 73.9193 71.48 71.2793 71.48ZM81.7643 57.44H85.2143V54.14H81.7643V57.44ZM81.7943 74H85.1543V59.18H81.7943V74ZM88.5113 74H91.8713V66.83C91.8713 63.59 93.7313 61.82 96.6713 61.82C99.3413 61.82 100.661 63.14 100.661 65.48V74H104.021V64.73C104.021 61.07 101.711 58.94 97.9613 58.94C94.5113 58.94 92.5913 60.47 91.7813 63.14H91.7513L91.8713 59.18H88.5113V74ZM112.287 74.24C115.557 74.24 117.327 72.92 117.807 70.73H117.837C117.837 71.93 117.747 73.28 117.687 74H121.047V64.97C121.047 61.07 118.407 58.94 113.907 58.94C109.677 58.94 107.097 60.71 107.097 63.68C107.097 63.95 107.127 64.34 107.157 64.55H110.247C110.217 64.31 110.217 64.07 110.217 63.98C110.217 62.33 111.507 61.46 113.787 61.46C116.397 61.46 117.687 62.45 117.687 64.67V65.72H112.197C108.237 65.72 106.647 67.49 106.647 69.74C106.647 72.62 108.897 74.24 112.287 74.24ZM112.977 71.72C110.937 71.72 109.737 70.94 109.737 69.59C109.737 68.42 110.577 67.76 112.497 67.76H117.687V68.03C117.687 70.31 115.887 71.72 112.977 71.72ZM137.959 67.97H134.929C134.899 70.16 133.429 71.48 131.059 71.48C128.569 71.48 127.009 69.62 127.009 66.59C127.009 63.53 128.599 61.7 131.179 61.7C133.429 61.7 134.869 63.05 134.899 65.27H137.929C137.929 61.34 135.229 58.94 131.089 58.94C126.619 58.94 123.649 61.85 123.649 66.59C123.649 70.91 126.049 73.7 129.769 74.18L128.809 76.73C129.199 76.67 130.159 76.55 131.179 76.55C132.439 76.55 132.829 76.88 132.829 77.51C132.829 78.29 132.289 78.92 131.059 78.92C129.829 78.92 129.379 78.56 129.259 77.81H126.889C127.009 79.37 128.239 80.54 131.059 80.54C133.969 80.54 135.169 79.1 135.169 77.48C135.169 76.13 134.359 75.26 132.709 75.26C131.869 75.26 131.479 75.5 131.239 75.65L131.209 75.62L131.749 74.21C135.499 73.91 137.959 71.66 137.959 67.97ZM141.398 57.35H143.528C143.708 55.7 144.188 55.04 144.788 55.04C145.328 55.04 145.598 55.28 146.108 55.79L146.558 56.24C147.188 56.87 147.878 57.35 149.018 57.35C150.668 57.35 152.108 56.15 152.348 52.94H150.248C150.068 54.62 149.588 55.28 148.958 55.28C148.448 55.28 148.148 55.01 147.638 54.5L147.188 54.08C146.558 53.45 145.868 52.94 144.728 52.94C143.108 52.94 141.638 54.17 141.398 57.35ZM145.238 74.24C148.508 74.24 150.278 72.92 150.758 70.73H150.788C150.788 71.93 150.698 73.28 150.638 74H153.998V64.97C153.998 61.07 151.358 58.94 146.858 58.94C142.628 58.94 140.048 60.71 140.048 63.68C140.048 63.95 140.078 64.34 140.108 64.55H143.198C143.168 64.31 143.168 64.07 143.168 63.98C143.168 62.33 144.458 61.46 146.738 61.46C149.348 61.46 150.638 62.45 150.638 64.67V65.72H145.148C141.188 65.72 139.598 67.49 139.598 69.74C139.598 72.62 141.848 74.24 145.238 74.24ZM145.928 71.72C143.888 71.72 142.688 70.94 142.688 69.59C142.688 68.42 143.528 67.76 145.448 67.76H150.638V68.03C150.638 70.31 148.838 71.72 145.928 71.72ZM164.34 74.24C169.08 74.24 172.11 71.33 172.11 66.62C172.11 61.88 169.08 58.94 164.34 58.94C159.63 58.94 156.6 61.88 156.6 66.62C156.6 71.33 159.63 74.24 164.34 74.24ZM164.34 71.48C161.61 71.48 159.96 69.62 159.96 66.62C159.96 63.59 161.61 61.7 164.34 61.7C167.07 61.7 168.75 63.59 168.75 66.62C168.75 69.62 167.07 71.48 164.34 71.48ZM188.104 74.24C191.134 74.24 192.994 72.74 193.564 70.4H193.624C193.564 71.84 193.534 73.13 193.474 74H196.834V53.21H193.474V61.79H193.444C192.844 60.05 191.104 58.94 188.314 58.94C183.904 58.94 181.114 62.03 181.114 66.5C181.114 71.12 183.814 74.24 188.104 74.24ZM188.794 71.48C186.154 71.48 184.444 69.44 184.444 66.5C184.444 63.68 186.184 61.7 188.854 61.7C191.644 61.7 193.474 63.38 193.474 66.02V66.74C193.474 69.62 191.614 71.48 188.794 71.48ZM214.16 66.05C214.16 61.43 211.49 58.94 207.29 58.94C202.61 58.94 199.67 61.91 199.67 66.71C199.67 71.36 202.61 74.24 207.29 74.24C211.34 74.24 214.04 72.23 214.16 68.93H211.13C210.98 70.67 209.51 71.63 207.35 71.63C204.83 71.63 203.24 70.1 203.06 67.25H214.16V66.05ZM211.13 65.21H203.15C203.54 62.75 205.01 61.55 207.32 61.55C209.75 61.55 211.13 62.78 211.13 65V65.21ZM223.757 79.94H227.117V74.12C227.117 73.52 227.057 71.99 227.027 71H227.057C227.687 72.92 229.607 74.24 232.547 74.24C236.807 74.24 239.507 71.12 239.507 66.32C239.507 61.85 236.837 58.94 232.607 58.94C229.667 58.94 227.687 60.38 227.087 62.63H227.057L227.117 59.18H223.757V79.94ZM231.887 71.48C229.007 71.48 227.117 69.86 227.117 67.34V66.56C227.177 63.59 229.037 61.7 231.827 61.7C234.497 61.7 236.147 63.56 236.147 66.41C236.147 69.5 234.467 71.48 231.887 71.48ZM242.252 74H245.612V67.52C245.612 63.98 247.202 61.82 249.752 61.82C251.732 61.82 252.692 62.99 252.692 65.48C252.692 66.17 252.632 66.92 252.572 67.49H255.632C255.692 66.86 255.782 65.66 255.782 64.73C255.782 61.04 254.012 58.94 250.802 58.94C247.742 58.94 246.212 60.77 245.522 63.44H245.492L245.612 59.18H242.252V74ZM265.783 74.24C270.523 74.24 273.553 71.33 273.553 66.62C273.553 61.88 270.523 58.94 265.783 58.94C261.073 58.94 258.043 61.88 258.043 66.62C258.043 71.33 261.073 74.24 265.783 74.24ZM265.783 71.48C263.053 71.48 261.403 69.62 261.403 66.62C261.403 63.59 263.053 61.7 265.783 61.7C268.513 61.7 270.193 63.59 270.193 66.62C270.193 69.62 268.513 71.48 265.783 71.48ZM276.348 79.94H279.708V74.12C279.708 73.52 279.648 71.99 279.618 71H279.648C280.278 72.92 282.198 74.24 285.138 74.24C289.398 74.24 292.098 71.12 292.098 66.32C292.098 61.85 289.428 58.94 285.198 58.94C282.258 58.94 280.278 60.38 279.678 62.63H279.648L279.708 59.18H276.348V79.94ZM284.478 71.48C281.598 71.48 279.708 69.86 279.708 67.34V66.56C279.768 63.59 281.628 61.7 284.418 61.7C287.088 61.7 288.738 63.56 288.738 66.41C288.738 69.5 287.058 71.48 284.478 71.48ZM300.483 57.65H303.123L306.333 53.45H302.823L300.483 57.65ZM302.133 74.24C306.873 74.24 309.903 71.33 309.903 66.62C309.903 61.88 306.873 58.94 302.133 58.94C297.423 58.94 294.393 61.88 294.393 66.62C294.393 71.33 297.423 74.24 302.133 74.24ZM302.133 71.48C299.403 71.48 297.753 69.62 297.753 66.62C297.753 63.59 299.403 61.7 302.133 61.7C304.863 61.7 306.543 63.59 306.543 66.62C306.543 69.62 304.863 71.48 302.133 71.48ZM318.912 74.24C323.652 74.24 326.172 72.47 326.172 69.47C326.172 68.27 325.602 67.13 324.612 66.59C323.562 65.99 322.362 65.78 320.262 65.57C318.462 65.39 317.052 65.24 316.332 65C315.462 64.7 315.312 64.1 315.312 63.47C315.312 62.21 316.632 61.37 318.972 61.37C321.432 61.37 322.482 62.3 322.512 64.22H325.542C325.542 60.86 323.502 58.94 318.882 58.94C314.862 58.94 311.982 60.74 311.982 63.71C311.982 64.85 312.462 65.93 313.272 66.53C314.172 67.19 315.732 67.49 318.042 67.7C319.692 67.85 321.102 68 321.822 68.27C322.602 68.54 322.812 69.05 322.812 69.62C322.812 70.97 321.612 71.81 318.882 71.81C316.002 71.81 315.012 70.76 315.012 69.05H311.982C311.982 71.96 313.812 74.24 318.912 74.24ZM328.997 57.44H332.447V54.14H328.997V57.44ZM329.027 74H332.387V59.18H329.027V74ZM342.344 74.18C343.574 74.18 344.594 73.97 345.044 73.82V71.15C344.624 71.27 343.664 71.42 342.824 71.42C340.784 71.42 340.064 70.46 340.064 68.54V61.91H345.164V59.18H340.064V55.82H337.274L337.124 58.04C337.034 58.88 336.824 59.18 336.254 59.18H334.364V61.91H336.704V68.72C336.704 71.99 338.294 74.18 342.344 74.18ZM354.383 74.24C359.123 74.24 362.153 71.33 362.153 66.62C362.153 61.88 359.123 58.94 354.383 58.94C349.673 58.94 346.643 61.88 346.643 66.62C346.643 71.33 349.673 74.24 354.383 74.24ZM354.383 71.48C351.653 71.48 350.003 69.62 350.003 66.62C350.003 63.59 351.653 61.7 354.383 61.7C357.113 61.7 358.793 63.59 358.793 66.62C358.793 69.62 357.113 71.48 354.383 71.48ZM385.647 66.05C385.647 61.43 382.977 58.94 378.777 58.94C374.097 58.94 371.157 61.91 371.157 66.71C371.157 71.36 374.097 74.24 378.777 74.24C382.827 74.24 385.527 72.23 385.647 68.93H382.617C382.467 70.67 380.997 71.63 378.837 71.63C376.317 71.63 374.727 70.1 374.547 67.25H385.647V66.05ZM382.617 65.21H374.637C375.027 62.75 376.497 61.55 378.807 61.55C381.237 61.55 382.617 62.78 382.617 65V65.21ZM401.964 74.24C406.194 74.24 409.014 71.93 409.014 67.97H405.984C405.954 70.16 404.484 71.48 402.114 71.48C399.624 71.48 398.064 69.62 398.064 66.59C398.064 63.53 399.654 61.7 402.234 61.7C404.484 61.7 405.924 63.05 405.954 65.27H408.984C408.984 61.34 406.284 58.94 402.144 58.94C397.674 58.94 394.704 61.85 394.704 66.59C394.704 71.33 397.614 74.24 401.964 74.24ZM411.834 74H415.194V67.52C415.194 63.98 416.784 61.82 419.334 61.82C421.314 61.82 422.274 62.99 422.274 65.48C422.274 66.17 422.214 66.92 422.154 67.49H425.214C425.274 66.86 425.364 65.66 425.364 64.73C425.364 61.04 423.594 58.94 420.384 58.94C417.324 58.94 415.794 60.77 415.104 63.44H415.074L415.194 59.18H411.834V74ZM442.116 66.05C442.116 61.43 439.446 58.94 435.246 58.94C430.566 58.94 427.626 61.91 427.626 66.71C427.626 71.36 430.566 74.24 435.246 74.24C439.296 74.24 441.996 72.23 442.116 68.93H439.086C438.936 70.67 437.466 71.63 435.306 71.63C432.786 71.63 431.196 70.1 431.016 67.25H442.116V66.05ZM439.086 65.21H431.106C431.496 62.75 432.966 61.55 435.276 61.55C437.706 61.55 439.086 62.78 439.086 65V65.21ZM451.354 74.24C456.094 74.24 458.614 72.47 458.614 69.47C458.614 68.27 458.044 67.13 457.054 66.59C456.004 65.99 454.804 65.78 452.704 65.57C450.904 65.39 449.494 65.24 448.774 65C447.904 64.7 447.754 64.1 447.754 63.47C447.754 62.21 449.074 61.37 451.414 61.37C453.874 61.37 454.924 62.3 454.954 64.22H457.984C457.984 60.86 455.944 58.94 451.324 58.94C447.304 58.94 444.424 60.74 444.424 63.71C444.424 64.85 444.904 65.93 445.714 66.53C446.614 67.19 448.174 67.49 450.484 67.7C452.134 67.85 453.544 68 454.264 68.27C455.044 68.54 455.254 69.05 455.254 69.62C455.254 70.97 454.054 71.81 451.324 71.81C448.444 71.81 447.454 70.76 447.454 69.05H444.424C444.424 71.96 446.254 74.24 451.354 74.24ZM468.159 74.24C472.389 74.24 475.209 71.93 475.209 67.97H472.179C472.149 70.16 470.679 71.48 468.309 71.48C465.819 71.48 464.259 69.62 464.259 66.59C464.259 63.53 465.849 61.7 468.429 61.7C470.679 61.7 472.119 63.05 472.149 65.27H475.179C475.179 61.34 472.479 58.94 468.339 58.94C463.869 58.94 460.899 61.85 460.899 66.59C460.899 71.33 463.809 74.24 468.159 74.24ZM478.12 57.44H481.57V54.14H478.12V57.44ZM478.15 74H481.51V59.18H478.15V74ZM484.867 74H488.227V66.77C488.227 63.59 489.757 61.82 492.037 61.82C494.047 61.82 495.157 63.14 495.157 65.24V74H498.517V66.65C498.517 63.56 500.017 61.82 502.357 61.82C504.367 61.82 505.417 63.14 505.417 65.3V74H508.777V64.55C508.777 61.07 506.887 58.94 503.587 58.94C500.767 58.94 498.967 60.44 498.427 62.84H498.397C498.037 60.44 496.177 58.94 493.297 58.94C490.597 58.94 488.797 60.53 488.137 63.08H488.107L488.227 59.18H484.867V74ZM525.871 66.05C525.871 61.43 523.201 58.94 519.001 58.94C514.321 58.94 511.381 61.91 511.381 66.71C511.381 71.36 514.321 74.24 519.001 74.24C523.051 74.24 525.751 72.23 525.871 68.93H522.841C522.691 70.67 521.221 71.63 519.061 71.63C516.541 71.63 514.951 70.1 514.771 67.25H525.871V66.05ZM522.841 65.21H514.861C515.251 62.75 516.721 61.55 519.031 61.55C521.461 61.55 522.841 62.78 522.841 65V65.21ZM528.629 74H531.989V66.83C531.989 63.59 533.849 61.82 536.789 61.82C539.459 61.82 540.779 63.14 540.779 65.48V74H544.139V64.73C544.139 61.07 541.829 58.94 538.079 58.94C534.629 58.94 532.709 60.47 531.899 63.14H531.869L531.989 59.18H528.629V74ZM553.784 74.18C555.014 74.18 556.034 73.97 556.484 73.82V71.15C556.064 71.27 555.104 71.42 554.264 71.42C552.224 71.42 551.504 70.46 551.504 68.54V61.91H556.604V59.18H551.504V55.82H548.714L548.564 58.04C548.474 58.88 548.264 59.18 547.694 59.18H545.804V61.91H548.144V68.72C548.144 71.99 549.734 74.18 553.784 74.18ZM565.823 74.24C570.563 74.24 573.593 71.33 573.593 66.62C573.593 61.88 570.563 58.94 565.823 58.94C561.113 58.94 558.083 61.88 558.083 66.62C558.083 71.33 561.113 74.24 565.823 74.24ZM565.823 71.48C563.093 71.48 561.443 69.62 561.443 66.62C561.443 63.59 563.093 61.7 565.823 61.7C568.553 61.7 570.233 63.59 570.233 66.62C570.233 69.62 568.553 71.48 565.823 71.48ZM576.868 74H580.258V70.1H576.868V74ZM16.89 118H21.06L13.05 98.26H8.67L0.63 118H4.35L6.03 113.56H15.24L16.89 118ZM6.93 111.16L10.62 101.32H10.68L14.34 111.16H6.93ZM34.3137 123.94H37.6737V103.18H34.3437V106H34.3137C33.7137 104.11 31.9437 102.94 29.0637 102.94C24.9237 102.94 21.9537 105.91 21.9537 110.47C21.9537 115.21 24.6537 118.24 28.9137 118.24C31.7637 118.24 33.7437 116.8 34.2837 114.58H34.3137V123.94ZM29.6337 115.48C27.0237 115.48 25.2837 113.53 25.2837 110.47C25.2837 107.59 27.0837 105.7 29.6937 105.7C32.4837 105.7 34.3137 107.38 34.3137 109.99V110.71C34.3137 113.62 32.4537 115.48 29.6337 115.48ZM47.0494 118.24C50.3494 118.24 52.4194 116.68 53.0494 113.86H53.0794C53.0794 115.42 53.0194 117.01 52.9294 118H56.2894V103.18H52.9294V109.75C52.9294 113.35 51.0394 115.36 48.0394 115.36C45.6094 115.36 44.1694 114.04 44.1694 111.7V103.18H40.8094V112.18C40.8094 116.11 43.1794 118.24 47.0494 118.24ZM59.5758 101.44H63.0258V98.14H59.5758V101.44ZM59.6058 118H62.9658V103.18H59.6058V118ZM78.2918 118.24C81.5618 118.24 83.3318 116.92 83.8118 114.73H83.8418C83.8418 115.93 83.7518 117.28 83.6918 118H87.0518V108.97C87.0518 105.07 84.4118 102.94 79.9118 102.94C75.6818 102.94 73.1018 104.71 73.1018 107.68C73.1018 107.95 73.1318 108.34 73.1618 108.55H76.2518C76.2218 108.31 76.2218 108.07 76.2218 107.98C76.2218 106.33 77.5118 105.46 79.7918 105.46C82.4018 105.46 83.6918 106.45 83.6918 108.67V109.72H78.2018C74.2418 109.72 72.6518 111.49 72.6518 113.74C72.6518 116.62 74.9018 118.24 78.2918 118.24ZM78.9818 115.72C76.9418 115.72 75.7418 114.94 75.7418 113.59C75.7418 112.42 76.5818 111.76 78.5018 111.76H83.6918V112.03C83.6918 114.31 81.8918 115.72 78.9818 115.72ZM96.5841 118.24C101.324 118.24 103.844 116.47 103.844 113.47C103.844 112.27 103.274 111.13 102.284 110.59C101.234 109.99 100.034 109.78 97.9341 109.57C96.1341 109.39 94.7241 109.24 94.0041 109C93.1341 108.7 92.9841 108.1 92.9841 107.47C92.9841 106.21 94.3041 105.37 96.6441 105.37C99.1041 105.37 100.154 106.3 100.184 108.22H103.214C103.214 104.86 101.174 102.94 96.5541 102.94C92.5341 102.94 89.6541 104.74 89.6541 107.71C89.6541 108.85 90.1341 109.93 90.9441 110.53C91.8441 111.19 93.4041 111.49 95.7141 111.7C97.3641 111.85 98.7741 112 99.4941 112.27C100.274 112.54 100.484 113.05 100.484 113.62C100.484 114.97 99.2841 115.81 96.5541 115.81C93.6741 115.81 92.6841 114.76 92.6841 113.05H89.6541C89.6541 115.96 91.4841 118.24 96.5841 118.24ZM113.419 123.94H116.779V118.12C116.779 117.52 116.719 115.99 116.689 115H116.719C117.349 116.92 119.269 118.24 122.209 118.24C126.469 118.24 129.169 115.12 129.169 110.32C129.169 105.85 126.499 102.94 122.269 102.94C119.329 102.94 117.349 104.38 116.749 106.63H116.719L116.779 103.18H113.419V123.94ZM121.549 115.48C118.669 115.48 116.779 113.86 116.779 111.34V110.56C116.839 107.59 118.699 105.7 121.489 105.7C124.159 105.7 125.809 107.56 125.809 110.41C125.809 113.5 124.129 115.48 121.549 115.48ZM145.954 110.05C145.954 105.43 143.284 102.94 139.084 102.94C134.404 102.94 131.464 105.91 131.464 110.71C131.464 115.36 134.404 118.24 139.084 118.24C143.134 118.24 145.834 116.23 145.954 112.93H142.924C142.774 114.67 141.304 115.63 139.144 115.63C136.624 115.63 135.034 114.1 134.854 111.25H145.954V110.05ZM142.924 109.21H134.944C135.334 106.75 136.804 105.55 139.114 105.55C141.544 105.55 142.924 106.78 142.924 109V109.21ZM155.192 118.24C159.932 118.24 162.452 116.47 162.452 113.47C162.452 112.27 161.882 111.13 160.892 110.59C159.842 109.99 158.642 109.78 156.542 109.57C154.742 109.39 153.332 109.24 152.612 109C151.742 108.7 151.592 108.1 151.592 107.47C151.592 106.21 152.912 105.37 155.252 105.37C157.712 105.37 158.762 106.3 158.792 108.22H161.822C161.822 104.86 159.782 102.94 155.162 102.94C151.142 102.94 148.262 104.74 148.262 107.71C148.262 108.85 148.742 109.93 149.552 110.53C150.452 111.19 152.012 111.49 154.322 111.7C155.972 111.85 157.382 112 158.102 112.27C158.882 112.54 159.092 113.05 159.092 113.62C159.092 114.97 157.892 115.81 155.162 115.81C152.282 115.81 151.292 114.76 151.292 113.05H148.262C148.262 115.96 150.092 118.24 155.192 118.24ZM171.667 118.24C176.407 118.24 178.927 116.47 178.927 113.47C178.927 112.27 178.357 111.13 177.367 110.59C176.317 109.99 175.117 109.78 173.017 109.57C171.217 109.39 169.807 109.24 169.087 109C168.217 108.7 168.067 108.1 168.067 107.47C168.067 106.21 169.387 105.37 171.727 105.37C174.187 105.37 175.237 106.3 175.267 108.22H178.297C178.297 104.86 176.257 102.94 171.637 102.94C167.617 102.94 164.737 104.74 164.737 107.71C164.737 108.85 165.217 109.93 166.027 110.53C166.927 111.19 168.487 111.49 170.797 111.7C172.447 111.85 173.857 112 174.577 112.27C175.357 112.54 175.567 113.05 175.567 113.62C175.567 114.97 174.367 115.81 171.637 115.81C168.757 115.81 167.767 114.76 167.767 113.05H164.737C164.737 115.96 166.567 118.24 171.667 118.24ZM188.953 118.24C193.693 118.24 196.723 115.33 196.723 110.62C196.723 105.88 193.693 102.94 188.953 102.94C184.243 102.94 181.213 105.88 181.213 110.62C181.213 115.33 184.243 118.24 188.953 118.24ZM188.953 115.48C186.223 115.48 184.573 113.62 184.573 110.62C184.573 107.59 186.223 105.7 188.953 105.7C191.683 105.7 193.363 107.59 193.363 110.62C193.363 113.62 191.683 115.48 188.953 115.48ZM203.886 118.24C207.156 118.24 208.926 116.92 209.406 114.73H209.436C209.436 115.93 209.346 117.28 209.286 118H212.646V108.97C212.646 105.07 210.006 102.94 205.506 102.94C201.276 102.94 198.696 104.71 198.696 107.68C198.696 107.95 198.726 108.34 198.756 108.55H201.846C201.816 108.31 201.816 108.07 201.816 107.98C201.816 106.33 203.106 105.46 205.386 105.46C207.996 105.46 209.286 106.45 209.286 108.67V109.72H203.796C199.836 109.72 198.246 111.49 198.246 113.74C198.246 116.62 200.496 118.24 203.886 118.24ZM204.576 115.72C202.536 115.72 201.336 114.94 201.336 113.59C201.336 112.42 202.176 111.76 204.096 111.76H209.286V112.03C209.286 114.31 207.486 115.72 204.576 115.72ZM222.178 118.24C226.918 118.24 229.438 116.47 229.438 113.47C229.438 112.27 228.868 111.13 227.878 110.59C226.828 109.99 225.628 109.78 223.528 109.57C221.728 109.39 220.318 109.24 219.598 109C218.728 108.7 218.578 108.1 218.578 107.47C218.578 106.21 219.898 105.37 222.238 105.37C224.698 105.37 225.748 106.3 225.778 108.22H228.808C228.808 104.86 226.768 102.94 222.148 102.94C218.128 102.94 215.248 104.74 215.248 107.71C215.248 108.85 215.728 109.93 216.538 110.53C217.438 111.19 218.998 111.49 221.308 111.7C222.958 111.85 224.368 112 225.088 112.27C225.868 112.54 226.078 113.05 226.078 113.62C226.078 114.97 224.878 115.81 222.148 115.81C219.268 115.81 218.278 114.76 218.278 113.05H215.248C215.248 115.96 217.078 118.24 222.178 118.24ZM245.523 118.18C246.753 118.18 247.773 117.97 248.223 117.82V115.15C247.803 115.27 246.843 115.42 246.003 115.42C243.963 115.42 243.243 114.46 243.243 112.54V105.91H248.343V103.18H243.243V99.82H240.453L240.303 102.04C240.213 102.88 240.003 103.18 239.433 103.18H237.543V105.91H239.883V112.72C239.883 115.99 241.473 118.18 245.523 118.18ZM257.261 99.67L261.701 101.8V99.31L257.261 97.18H257.201L252.761 99.31V101.8L257.201 99.67H257.261ZM264.311 110.05C264.311 105.43 261.641 102.94 257.441 102.94C252.761 102.94 249.821 105.91 249.821 110.71C249.821 115.36 252.761 118.24 257.441 118.24C261.491 118.24 264.191 116.23 264.311 112.93H261.281C261.131 114.67 259.661 115.63 257.501 115.63C254.981 115.63 253.391 114.1 253.211 111.25H264.311V110.05ZM261.281 109.21H253.301C253.691 106.75 255.161 105.55 257.471 105.55C259.901 105.55 261.281 106.78 261.281 109V109.21ZM267.069 118H270.429V110.77C270.429 107.59 271.959 105.82 274.239 105.82C276.249 105.82 277.359 107.14 277.359 109.24V118H280.719V110.65C280.719 107.56 282.219 105.82 284.559 105.82C286.569 105.82 287.619 107.14 287.619 109.3V118H290.979V108.55C290.979 105.07 289.089 102.94 285.789 102.94C282.969 102.94 281.169 104.44 280.629 106.84H280.599C280.239 104.44 278.379 102.94 275.499 102.94C272.799 102.94 270.999 104.53 270.339 107.08H270.309L270.429 103.18H267.069V118ZM306.002 118.24C309.272 118.24 311.042 116.92 311.522 114.73H311.552C311.552 115.93 311.462 117.28 311.402 118H314.762V108.97C314.762 105.07 312.122 102.94 307.622 102.94C303.392 102.94 300.812 104.71 300.812 107.68C300.812 107.95 300.842 108.34 300.872 108.55H303.962C303.932 108.31 303.932 108.07 303.932 107.98C303.932 106.33 305.222 105.46 307.502 105.46C310.112 105.46 311.402 106.45 311.402 108.67V109.72H305.912C301.952 109.72 300.362 111.49 300.362 113.74C300.362 116.62 302.612 118.24 306.002 118.24ZM306.692 115.72C304.652 115.72 303.452 114.94 303.452 113.59C303.452 112.42 304.292 111.76 306.212 111.76H311.402V112.03C311.402 114.31 309.602 115.72 306.692 115.72ZM323.905 118.24C327.205 118.24 329.275 116.68 329.905 113.86H329.935C329.935 115.42 329.875 117.01 329.785 118H333.145V103.18H329.785V109.75C329.785 113.35 327.895 115.36 324.895 115.36C322.465 115.36 321.025 114.04 321.025 111.7V103.18H317.665V112.18C317.665 116.11 320.035 118.24 323.905 118.24ZM342.941 118.18C344.171 118.18 345.191 117.97 345.641 117.82V115.15C345.221 115.27 344.261 115.42 343.421 115.42C341.381 115.42 340.661 114.46 340.661 112.54V105.91H345.761V103.18H340.661V99.82H337.871L337.721 102.04C337.631 102.88 337.421 103.18 336.851 103.18H334.961V105.91H337.301V112.72C337.301 115.99 338.891 118.18 342.941 118.18ZM354.98 118.24C359.72 118.24 362.75 115.33 362.75 110.62C362.75 105.88 359.72 102.94 354.98 102.94C350.27 102.94 347.24 105.88 347.24 110.62C347.24 115.33 350.27 118.24 354.98 118.24ZM354.98 115.48C352.25 115.48 350.6 113.62 350.6 110.62C350.6 107.59 352.25 105.7 354.98 105.7C357.71 105.7 359.39 107.59 359.39 110.62C359.39 113.62 357.71 115.48 354.98 115.48ZM365.454 118H368.814V110.83C368.814 107.59 370.674 105.82 373.614 105.82C376.284 105.82 377.604 107.14 377.604 109.48V118H380.964V108.73C380.964 105.07 378.654 102.94 374.904 102.94C371.454 102.94 369.534 104.47 368.724 107.14H368.694L368.814 103.18H365.454V118ZM391.3 118.24C396.04 118.24 399.07 115.33 399.07 110.62C399.07 105.88 396.04 102.94 391.3 102.94C386.59 102.94 383.56 105.88 383.56 110.62C383.56 115.33 386.59 118.24 391.3 118.24ZM391.3 115.48C388.57 115.48 386.92 113.62 386.92 110.62C386.92 107.59 388.57 105.7 391.3 105.7C394.03 105.7 395.71 107.59 395.71 110.62C395.71 113.62 394.03 115.48 391.3 115.48ZM401.775 118H405.135V110.77C405.135 107.59 406.665 105.82 408.945 105.82C410.955 105.82 412.065 107.14 412.065 109.24V118H415.425V110.65C415.425 107.56 416.925 105.82 419.265 105.82C421.275 105.82 422.325 107.14 422.325 109.3V118H425.685V108.55C425.685 105.07 423.795 102.94 420.495 102.94C417.675 102.94 415.875 104.44 415.335 106.84H415.305C414.945 104.44 413.085 102.94 410.205 102.94C407.505 102.94 405.705 104.53 405.045 107.08H405.015L405.135 103.18H401.775V118ZM428.829 101.44H432.279V98.14H428.829V101.44ZM428.859 118H432.219V103.18H428.859V118ZM440.796 118.24C444.066 118.24 445.836 116.92 446.316 114.73H446.346C446.346 115.93 446.256 117.28 446.196 118H449.556V108.97C449.556 105.07 446.916 102.94 442.416 102.94C438.186 102.94 435.606 104.71 435.606 107.68C435.606 107.95 435.636 108.34 435.666 108.55H438.756C438.726 108.31 438.726 108.07 438.726 107.98C438.726 106.33 440.016 105.46 442.296 105.46C444.906 105.46 446.196 106.45 446.196 108.67V109.72H440.706C436.746 109.72 435.156 111.49 435.156 113.74C435.156 116.62 437.406 118.24 440.796 118.24ZM441.486 115.72C439.446 115.72 438.246 114.94 438.246 113.59C438.246 112.42 439.086 111.76 441.006 111.76H446.196V112.03C446.196 114.31 444.396 115.72 441.486 115.72ZM459.447 123.94H462.807V118.12C462.807 117.52 462.747 115.99 462.717 115H462.747C463.377 116.92 465.297 118.24 468.237 118.24C472.497 118.24 475.197 115.12 475.197 110.32C475.197 105.85 472.527 102.94 468.297 102.94C465.357 102.94 463.377 104.38 462.777 106.63H462.747L462.807 103.18H459.447V123.94ZM467.577 115.48C464.697 115.48 462.807 113.86 462.807 111.34V110.56C462.867 107.59 464.727 105.7 467.517 105.7C470.187 105.7 471.837 107.56 471.837 110.41C471.837 113.5 470.157 115.48 467.577 115.48ZM482.4 118.24C485.67 118.24 487.44 116.92 487.92 114.73H487.95C487.95 115.93 487.86 117.28 487.8 118H491.16V108.97C491.16 105.07 488.52 102.94 484.02 102.94C479.79 102.94 477.21 104.71 477.21 107.68C477.21 107.95 477.24 108.34 477.27 108.55H480.36C480.33 108.31 480.33 108.07 480.33 107.98C480.33 106.33 481.62 105.46 483.9 105.46C486.51 105.46 487.8 106.45 487.8 108.67V109.72H482.31C478.35 109.72 476.76 111.49 476.76 113.74C476.76 116.62 479.01 118.24 482.4 118.24ZM483.09 115.72C481.05 115.72 479.85 114.94 479.85 113.59C479.85 112.42 480.69 111.76 482.61 111.76H487.8V112.03C487.8 114.31 486 115.72 483.09 115.72ZM494.213 118H497.573V111.52C497.573 107.98 499.163 105.82 501.713 105.82C503.693 105.82 504.653 106.99 504.653 109.48C504.653 110.17 504.593 110.92 504.533 111.49H507.593C507.653 110.86 507.743 109.66 507.743 108.73C507.743 105.04 505.973 102.94 502.763 102.94C499.703 102.94 498.173 104.77 497.483 107.44H497.453L497.573 103.18H494.213V118ZM515.674 118.24C518.944 118.24 520.714 116.92 521.194 114.73H521.224C521.224 115.93 521.134 117.28 521.074 118H524.434V108.97C524.434 105.07 521.794 102.94 517.294 102.94C513.064 102.94 510.484 104.71 510.484 107.68C510.484 107.95 510.514 108.34 510.544 108.55H513.634C513.604 108.31 513.604 108.07 513.604 107.98C513.604 106.33 514.894 105.46 517.174 105.46C519.784 105.46 521.074 106.45 521.074 108.67V109.72H515.584C511.624 109.72 510.034 111.49 510.034 113.74C510.034 116.62 512.284 118.24 515.674 118.24ZM516.364 115.72C514.324 115.72 513.124 114.94 513.124 113.59C513.124 112.42 513.964 111.76 515.884 111.76H521.074V112.03C521.074 114.31 519.274 115.72 516.364 115.72ZM8.16 162.24C12.9 162.24 15.42 160.47 15.42 157.47C15.42 156.27 14.85 155.13 13.86 154.59C12.81 153.99 11.61 153.78 9.51 153.57C7.71 153.39 6.3 153.24 5.58 153C4.71 152.7 4.56 152.1 4.56 151.47C4.56 150.21 5.88 149.37 8.22 149.37C10.68 149.37 11.73 150.3 11.76 152.22H14.79C14.79 148.86 12.75 146.94 8.13 146.94C4.11 146.94 1.23 148.74 1.23 151.71C1.23 152.85 1.71 153.93 2.52 154.53C3.42 155.19 4.98 155.49 7.29 155.7C8.94 155.85 10.35 156 11.07 156.27C11.85 156.54 12.06 157.05 12.06 157.62C12.06 158.97 10.86 159.81 8.13 159.81C5.25 159.81 4.26 158.76 4.26 157.05H1.23C1.23 159.96 3.06 162.24 8.16 162.24ZM32.1956 154.05C32.1956 149.43 29.5256 146.94 25.3256 146.94C20.6456 146.94 17.7056 149.91 17.7056 154.71C17.7056 159.36 20.6456 162.24 25.3256 162.24C29.3756 162.24 32.0756 160.23 32.1956 156.93H29.1656C29.0156 158.67 27.5456 159.63 25.3856 159.63C22.8656 159.63 21.2756 158.1 21.0956 155.25H32.1956V154.05ZM29.1656 153.21H21.1856C21.5756 150.75 23.0456 149.55 25.3556 149.55C27.7856 149.55 29.1656 150.78 29.1656 153V153.21ZM34.9535 162H38.3135V155.52C38.3135 151.98 39.9035 149.82 42.4535 149.82C44.4335 149.82 45.3935 150.99 45.3935 153.48C45.3935 154.17 45.3335 154.92 45.2735 155.49H48.3335C48.3935 154.86 48.4835 153.66 48.4835 152.73C48.4835 149.04 46.7135 146.94 43.5035 146.94C40.4435 146.94 38.9135 148.77 38.2235 151.44H38.1935L38.3135 147.18H34.9535V162ZM65.2348 154.05C65.2348 149.43 62.5648 146.94 58.3648 146.94C53.6848 146.94 50.7448 149.91 50.7448 154.71C50.7448 159.36 53.6848 162.24 58.3648 162.24C62.4148 162.24 65.1148 160.23 65.2348 156.93H62.2048C62.0548 158.67 60.5848 159.63 58.4248 159.63C55.9048 159.63 54.3148 158.1 54.1348 155.25H65.2348V154.05ZM62.2048 153.21H54.2248C54.6148 150.75 56.0848 149.55 58.3948 149.55C60.8248 149.55 62.2048 150.78 62.2048 153V153.21ZM67.9927 162H71.3527V154.77C71.3527 151.59 72.8827 149.82 75.1627 149.82C77.1727 149.82 78.2827 151.14 78.2827 153.24V162H81.6427V154.65C81.6427 151.56 83.1427 149.82 85.4827 149.82C87.4927 149.82 88.5427 151.14 88.5427 153.3V162H91.9027V152.55C91.9027 149.07 90.0127 146.94 86.7127 146.94C83.8927 146.94 82.0927 148.44 81.5527 150.84H81.5227C81.1627 148.44 79.3027 146.94 76.4227 146.94C73.7227 146.94 71.9227 148.53 71.2627 151.08H71.2327L71.3527 147.18H67.9927V162ZM101.796 145.44H105.246V142.14H101.796V145.44ZM101.826 162H105.186V147.18H101.826V162ZM108.543 162H111.903V154.83C111.903 151.59 113.763 149.82 116.703 149.82C119.373 149.82 120.693 151.14 120.693 153.48V162H124.053V152.73C124.053 149.07 121.743 146.94 117.993 146.94C114.543 146.94 112.623 148.47 111.813 151.14H111.783L111.903 147.18H108.543V162ZM134.388 162.24C139.128 162.24 142.158 159.33 142.158 154.62C142.158 149.88 139.128 146.94 134.388 146.94C129.678 146.94 126.648 149.88 126.648 154.62C126.648 159.33 129.678 162.24 134.388 162.24ZM134.388 159.48C131.658 159.48 130.008 157.62 130.008 154.62C130.008 151.59 131.658 149.7 134.388 149.7C137.118 149.7 138.798 151.59 138.798 154.62C138.798 157.62 137.118 159.48 134.388 159.48ZM149.384 162H153.374L159.794 147.18H156.284L151.574 158.85H151.514L146.864 147.18H142.934L149.384 162ZM166.441 162.24C169.711 162.24 171.481 160.92 171.961 158.73H171.991C171.991 159.93 171.901 161.28 171.841 162H175.201V152.97C175.201 149.07 172.561 146.94 168.061 146.94C163.831 146.94 161.251 148.71 161.251 151.68C161.251 151.95 161.281 152.34 161.311 152.55H164.401C164.371 152.31 164.371 152.07 164.371 151.98C164.371 150.33 165.661 149.46 167.941 149.46C170.551 149.46 171.841 150.45 171.841 152.67V153.72H166.351C162.391 153.72 160.801 155.49 160.801 157.74C160.801 160.62 163.051 162.24 166.441 162.24ZM167.131 159.72C165.091 159.72 163.891 158.94 163.891 157.59C163.891 156.42 164.731 155.76 166.651 155.76H171.841V156.03C171.841 158.31 170.041 159.72 167.131 159.72ZM184.794 162.24C187.824 162.24 189.684 160.74 190.254 158.4H190.314C190.254 159.84 190.224 161.13 190.164 162H193.524V141.21H190.164V149.79H190.134C189.534 148.05 187.794 146.94 185.004 146.94C180.594 146.94 177.804 150.03 177.804 154.5C177.804 159.12 180.504 162.24 184.794 162.24ZM185.484 159.48C182.844 159.48 181.134 157.44 181.134 154.5C181.134 151.68 182.874 149.7 185.544 149.7C188.334 149.7 190.164 151.38 190.164 154.02V154.74C190.164 157.62 188.304 159.48 185.484 159.48ZM204.099 162.24C208.839 162.24 211.869 159.33 211.869 154.62C211.869 149.88 208.839 146.94 204.099 146.94C199.389 146.94 196.359 149.88 196.359 154.62C196.359 159.33 199.389 162.24 204.099 162.24ZM204.099 159.48C201.369 159.48 199.719 157.62 199.719 154.62C199.719 151.59 201.369 149.7 204.099 149.7C206.829 149.7 208.509 151.59 208.509 154.62C208.509 157.62 206.829 159.48 204.099 159.48ZM214.574 162H217.934V155.52C217.934 151.98 219.524 149.82 222.074 149.82C224.054 149.82 225.014 150.99 225.014 153.48C225.014 154.17 224.954 154.92 224.894 155.49H227.954C228.014 154.86 228.104 153.66 228.104 152.73C228.104 149.04 226.334 146.94 223.124 146.94C220.064 146.94 218.534 148.77 217.844 151.44H217.814L217.934 147.18H214.574V162ZM236.035 162.24C239.305 162.24 241.075 160.92 241.555 158.73H241.585C241.585 159.93 241.495 161.28 241.435 162H244.795V152.97C244.795 149.07 242.155 146.94 237.655 146.94C233.425 146.94 230.845 148.71 230.845 151.68C230.845 151.95 230.875 152.34 230.905 152.55H233.995C233.965 152.31 233.965 152.07 233.965 151.98C233.965 150.33 235.255 149.46 237.535 149.46C240.145 149.46 241.435 150.45 241.435 152.67V153.72H235.945C231.985 153.72 230.395 155.49 230.395 157.74C230.395 160.62 232.645 162.24 236.035 162.24ZM236.725 159.72C234.685 159.72 233.485 158.94 233.485 157.59C233.485 156.42 234.325 155.76 236.245 155.76H241.435V156.03C241.435 158.31 239.635 159.72 236.725 159.72ZM254.328 162.24C259.068 162.24 261.588 160.47 261.588 157.47C261.588 156.27 261.018 155.13 260.028 154.59C258.978 153.99 257.778 153.78 255.678 153.57C253.878 153.39 252.468 153.24 251.748 153C250.878 152.7 250.728 152.1 250.728 151.47C250.728 150.21 252.048 149.37 254.388 149.37C256.848 149.37 257.898 150.3 257.928 152.22H260.958C260.958 148.86 258.918 146.94 254.298 146.94C250.278 146.94 247.398 148.74 247.398 151.71C247.398 152.85 247.878 153.93 248.688 154.53C249.588 155.19 251.148 155.49 253.458 155.7C255.108 155.85 256.518 156 257.238 156.27C258.018 156.54 258.228 157.05 258.228 157.62C258.228 158.97 257.028 159.81 254.298 159.81C251.418 159.81 250.428 158.76 250.428 157.05H247.398C247.398 159.96 249.228 162.24 254.328 162.24ZM264.323 166.14C266.933 165.93 268.253 164.46 268.253 160.92V158.1H264.863V162H266.273V162.09C266.273 163.56 265.703 164.28 264.323 164.4V166.14ZM285.268 162.24C290.008 162.24 292.528 160.47 292.528 157.47C292.528 156.27 291.958 155.13 290.968 154.59C289.918 153.99 288.718 153.78 286.618 153.57C284.818 153.39 283.408 153.24 282.688 153C281.818 152.7 281.668 152.1 281.668 151.47C281.668 150.21 282.988 149.37 285.328 149.37C287.788 149.37 288.838 150.3 288.868 152.22H291.898C291.898 148.86 289.858 146.94 285.238 146.94C281.218 146.94 278.338 148.74 278.338 151.71C278.338 152.85 278.818 153.93 279.628 154.53C280.528 155.19 282.088 155.49 284.398 155.7C286.048 155.85 287.458 156 288.178 156.27C288.958 156.54 289.168 157.05 289.168 157.62C289.168 158.97 287.968 159.81 285.238 159.81C282.358 159.81 281.368 158.76 281.368 157.05H278.338C278.338 159.96 280.168 162.24 285.268 162.24ZM302.554 162.24C307.294 162.24 310.324 159.33 310.324 154.62C310.324 149.88 307.294 146.94 302.554 146.94C297.844 146.94 294.814 149.88 294.814 154.62C294.814 159.33 297.844 162.24 302.554 162.24ZM302.554 159.48C299.824 159.48 298.174 157.62 298.174 154.62C298.174 151.59 299.824 149.7 302.554 149.7C305.284 149.7 306.964 151.59 306.964 154.62C306.964 157.62 305.284 159.48 302.554 159.48ZM313.028 162H316.388V154.83C316.388 151.59 318.248 149.82 321.188 149.82C323.858 149.82 325.178 151.14 325.178 153.48V162H328.538V152.73C328.538 149.07 326.228 146.94 322.478 146.94C319.028 146.94 317.108 148.47 316.298 151.14H316.268L316.388 147.18H313.028V162ZM331.674 162H335.034V154.98C335.034 151.65 336.894 149.82 339.864 149.82C342.534 149.82 343.854 151.14 343.854 153.48V162H347.214V152.73C347.214 149.07 344.904 146.94 341.154 146.94C337.674 146.94 335.754 148.47 334.974 151.17H334.944C334.974 150.36 335.034 148.65 335.034 147.93V141.21H331.674V162ZM355.477 162.24C358.747 162.24 360.517 160.92 360.997 158.73H361.027C361.027 159.93 360.937 161.28 360.877 162H364.237V152.97C364.237 149.07 361.597 146.94 357.097 146.94C352.867 146.94 350.287 148.71 350.287 151.68C350.287 151.95 350.317 152.34 350.347 152.55H353.437C353.407 152.31 353.407 152.07 353.407 151.98C353.407 150.33 354.697 149.46 356.977 149.46C359.587 149.46 360.877 150.45 360.877 152.67V153.72H355.387C351.427 153.72 349.837 155.49 349.837 157.74C349.837 160.62 352.087 162.24 355.477 162.24ZM356.167 159.72C354.127 159.72 352.927 158.94 352.927 157.59C352.927 156.42 353.767 155.76 355.687 155.76H360.877V156.03C360.877 158.31 359.077 159.72 356.167 159.72ZM367.289 162H370.649V155.52C370.649 151.98 372.239 149.82 374.789 149.82C376.769 149.82 377.729 150.99 377.729 153.48C377.729 154.17 377.669 154.92 377.609 155.49H380.669C380.729 154.86 380.819 153.66 380.819 152.73C380.819 149.04 379.049 146.94 375.839 146.94C372.779 146.94 371.249 148.77 370.559 151.44H370.529L370.649 147.18H367.289V162ZM397.571 154.05C397.571 149.43 394.901 146.94 390.701 146.94C386.021 146.94 383.081 149.91 383.081 154.71C383.081 159.36 386.021 162.24 390.701 162.24C394.751 162.24 397.451 160.23 397.571 156.93H394.541C394.391 158.67 392.921 159.63 390.761 159.63C388.241 159.63 386.651 158.1 386.471 155.25H397.571V154.05ZM394.541 153.21H386.561C386.951 150.75 388.421 149.55 390.731 149.55C393.161 149.55 394.541 150.78 394.541 153V153.21ZM400.328 162H403.688V154.77C403.688 151.59 405.218 149.82 407.498 149.82C409.508 149.82 410.618 151.14 410.618 153.24V162H413.978V154.65C413.978 151.56 415.478 149.82 417.818 149.82C419.828 149.82 420.878 151.14 420.878 153.3V162H424.238V152.55C424.238 149.07 422.348 146.94 419.048 146.94C416.228 146.94 414.428 148.44 413.888 150.84H413.858C413.498 148.44 411.638 146.94 408.758 146.94C406.058 146.94 404.258 148.53 403.598 151.08H403.568L403.688 147.18H400.328V162ZM448.081 154.05C448.081 149.43 445.411 146.94 441.211 146.94C436.531 146.94 433.591 149.91 433.591 154.71C433.591 159.36 436.531 162.24 441.211 162.24C445.261 162.24 447.961 160.23 448.081 156.93H445.051C444.901 158.67 443.431 159.63 441.271 159.63C438.751 159.63 437.161 158.1 436.981 155.25H448.081V154.05ZM445.051 153.21H437.071C437.461 150.75 438.931 149.55 441.241 149.55C443.671 149.55 445.051 150.78 445.051 153V153.21ZM464.188 162.18C465.418 162.18 466.438 161.97 466.888 161.82V159.15C466.468 159.27 465.508 159.42 464.668 159.42C462.628 159.42 461.908 158.46 461.908 156.54V149.91H467.008V147.18H461.908V143.82H459.118L458.968 146.04C458.878 146.88 458.668 147.18 458.098 147.18H456.208V149.91H458.548V156.72C458.548 159.99 460.138 162.18 464.188 162.18ZM476.227 162.24C480.967 162.24 483.997 159.33 483.997 154.62C483.997 149.88 480.967 146.94 476.227 146.94C471.517 146.94 468.487 149.88 468.487 154.62C468.487 159.33 471.517 162.24 476.227 162.24ZM476.227 159.48C473.497 159.48 471.847 157.62 471.847 154.62C471.847 151.59 473.497 149.7 476.227 149.7C478.957 149.7 480.637 151.59 480.637 154.62C480.637 157.62 478.957 159.48 476.227 159.48ZM493.512 162.24C497.742 162.24 500.562 159.93 500.562 155.97H497.532C497.502 158.16 496.032 159.48 493.662 159.48C491.172 159.48 489.612 157.62 489.612 154.59C489.612 151.53 491.202 149.7 493.782 149.7C496.032 149.7 497.472 151.05 497.502 153.27H500.532C500.532 149.34 497.832 146.94 493.692 146.94C489.222 146.94 486.252 149.85 486.252 154.59C486.252 159.33 489.162 162.24 493.512 162.24ZM507.841 162.24C511.111 162.24 512.881 160.92 513.361 158.73H513.391C513.391 159.93 513.301 161.28 513.241 162H516.601V152.97C516.601 149.07 513.961 146.94 509.461 146.94C505.231 146.94 502.651 148.71 502.651 151.68C502.651 151.95 502.681 152.34 502.711 152.55H505.801C505.771 152.31 505.771 152.07 505.771 151.98C505.771 150.33 507.061 149.46 509.341 149.46C511.951 149.46 513.241 150.45 513.241 152.67V153.72H507.751C503.791 153.72 502.201 155.49 502.201 157.74C502.201 160.62 504.451 162.24 507.841 162.24ZM508.531 159.72C506.491 159.72 505.291 158.94 505.291 157.59C505.291 156.42 506.131 155.76 508.051 155.76H513.241V156.03C513.241 158.31 511.441 159.72 508.531 159.72ZM519.653 162H523.013V155.52C523.013 151.98 524.603 149.82 527.153 149.82C529.133 149.82 530.093 150.99 530.093 153.48C530.093 154.17 530.033 154.92 529.973 155.49H533.033C533.093 154.86 533.183 153.66 533.183 152.73C533.183 149.04 531.413 146.94 528.203 146.94C525.143 146.94 523.613 148.77 522.923 151.44H522.893L523.013 147.18H519.653V162ZM549.934 154.05C549.934 149.43 547.264 146.94 543.064 146.94C538.384 146.94 535.444 149.91 535.444 154.71C535.444 159.36 538.384 162.24 543.064 162.24C547.114 162.24 549.814 160.23 549.934 156.93H546.904C546.754 158.67 545.284 159.63 543.124 159.63C540.604 159.63 539.014 158.1 538.834 155.25H549.934V154.05ZM546.904 153.21H538.924C539.314 150.75 540.784 149.55 543.094 149.55C545.524 149.55 546.904 150.78 546.904 153V153.21ZM552.692 162H556.052V154.77C556.052 151.59 557.582 149.82 559.862 149.82C561.872 149.82 562.982 151.14 562.982 153.24V162H566.342V154.65C566.342 151.56 567.842 149.82 570.182 149.82C572.192 149.82 573.242 151.14 573.242 153.3V162H576.602V152.55C576.602 149.07 574.712 146.94 571.412 146.94C568.592 146.94 566.792 148.44 566.252 150.84H566.222C565.862 148.44 564.002 146.94 561.122 146.94C558.422 146.94 556.622 148.53 555.962 151.08H555.932L556.052 147.18H552.692V162ZM8.97 206.24C13.71 206.24 16.74 203.33 16.74 198.62C16.74 193.88 13.71 190.94 8.97 190.94C4.26 190.94 1.23 193.88 1.23 198.62C1.23 203.33 4.26 206.24 8.97 206.24ZM8.97 203.48C6.24 203.48 4.59 201.62 4.59 198.62C4.59 195.59 6.24 193.7 8.97 193.7C11.7 193.7 13.38 195.59 13.38 198.62C13.38 201.62 11.7 203.48 8.97 203.48ZM25.7489 206.24C30.4889 206.24 33.0089 204.47 33.0089 201.47C33.0089 200.27 32.4389 199.13 31.4489 198.59C30.3989 197.99 29.1989 197.78 27.0989 197.57C25.2989 197.39 23.8889 197.24 23.1689 197C22.2989 196.7 22.1489 196.1 22.1489 195.47C22.1489 194.21 23.4689 193.37 25.8089 193.37C28.2689 193.37 29.3189 194.3 29.3489 196.22H32.3789C32.3789 192.86 30.3389 190.94 25.7189 190.94C21.6989 190.94 18.8189 192.74 18.8189 195.71C18.8189 196.85 19.2989 197.93 20.1089 198.53C21.0089 199.19 22.5689 199.49 24.8789 199.7C26.5289 199.85 27.9389 200 28.6589 200.27C29.4389 200.54 29.6489 201.05 29.6489 201.62C29.6489 202.97 28.4489 203.81 25.7189 203.81C22.8389 203.81 21.8489 202.76 21.8489 201.05H18.8189C18.8189 203.96 20.6489 206.24 25.7489 206.24ZM42.4936 206H45.8536V198.77C45.8536 195.59 47.3836 193.82 49.6636 193.82C51.6736 193.82 52.7836 195.14 52.7836 197.24V206H56.1436V198.65C56.1436 195.56 57.6436 193.82 59.9836 193.82C61.9936 193.82 63.0436 195.14 63.0436 197.3V206H66.4036V196.55C66.4036 193.07 64.5136 190.94 61.2136 190.94C58.3936 190.94 56.5936 192.44 56.0536 194.84H56.0236C55.6636 192.44 53.8036 190.94 50.9236 190.94C48.2236 190.94 46.4236 192.53 45.7636 195.08H45.7336L45.8536 191.18H42.4936V206ZM74.6775 206.24C77.9475 206.24 79.7175 204.92 80.1975 202.73H80.2275C80.2275 203.93 80.1375 205.28 80.0775 206H83.4375V196.97C83.4375 193.07 80.7975 190.94 76.2975 190.94C72.0675 190.94 69.4875 192.71 69.4875 195.68C69.4875 195.95 69.5175 196.34 69.5475 196.55H72.6375C72.6075 196.31 72.6075 196.07 72.6075 195.98C72.6075 194.33 73.8975 193.46 76.1775 193.46C78.7875 193.46 80.0775 194.45 80.0775 196.67V197.72H74.5875C70.6275 197.72 69.0375 199.49 69.0375 201.74C69.0375 204.62 71.2875 206.24 74.6775 206.24ZM75.3675 203.72C73.3275 203.72 72.1275 202.94 72.1275 201.59C72.1275 200.42 72.9675 199.76 74.8875 199.76H80.0775V200.03C80.0775 202.31 78.2775 203.72 75.3675 203.72ZM86.5798 189.44H90.0298V186.14H86.5798V189.44ZM86.6098 206H89.9698V191.18H86.6098V206ZM100.617 206.24C105.357 206.24 108.387 203.33 108.387 198.62C108.387 193.88 105.357 190.94 100.617 190.94C95.9067 190.94 92.8767 193.88 92.8767 198.62C92.8767 203.33 95.9067 206.24 100.617 206.24ZM100.617 203.48C97.8867 203.48 96.2367 201.62 96.2367 198.62C96.2367 195.59 97.8867 193.7 100.617 193.7C103.347 193.7 105.027 195.59 105.027 198.62C105.027 201.62 103.347 203.48 100.617 203.48ZM111.091 206H114.451V199.52C114.451 195.98 116.041 193.82 118.591 193.82C120.571 193.82 121.531 194.99 121.531 197.48C121.531 198.17 121.471 198.92 121.411 199.49H124.471C124.531 198.86 124.621 197.66 124.621 196.73C124.621 193.04 122.851 190.94 119.641 190.94C116.581 190.94 115.051 192.77 114.361 195.44H114.331L114.451 191.18H111.091V206ZM141.373 198.05C141.373 193.43 138.703 190.94 134.503 190.94C129.823 190.94 126.883 193.91 126.883 198.71C126.883 203.36 129.823 206.24 134.503 206.24C138.553 206.24 141.253 204.23 141.373 200.93H138.343C138.193 202.67 136.723 203.63 134.563 203.63C132.043 203.63 130.453 202.1 130.273 199.25H141.373V198.05ZM138.343 197.21H130.363C130.753 194.75 132.223 193.55 134.533 193.55C136.963 193.55 138.343 194.78 138.343 197V197.21ZM150.611 206.24C155.351 206.24 157.871 204.47 157.871 201.47C157.871 200.27 157.301 199.13 156.311 198.59C155.261 197.99 154.061 197.78 151.961 197.57C150.161 197.39 148.751 197.24 148.031 197C147.161 196.7 147.011 196.1 147.011 195.47C147.011 194.21 148.331 193.37 150.671 193.37C153.131 193.37 154.181 194.3 154.211 196.22H157.241C157.241 192.86 155.201 190.94 150.581 190.94C146.561 190.94 143.681 192.74 143.681 195.71C143.681 196.85 144.161 197.93 144.971 198.53C145.871 199.19 147.431 199.49 149.741 199.7C151.391 199.85 152.801 200 153.521 200.27C154.301 200.54 154.511 201.05 154.511 201.62C154.511 202.97 153.311 203.81 150.581 203.81C147.701 203.81 146.711 202.76 146.711 201.05H143.681C143.681 203.96 145.511 206.24 150.611 206.24ZM173.895 206.24C176.925 206.24 178.785 204.74 179.355 202.4H179.415C179.355 203.84 179.325 205.13 179.265 206H182.625V185.21H179.265V193.79H179.235C178.635 192.05 176.895 190.94 174.105 190.94C169.695 190.94 166.905 194.03 166.905 198.5C166.905 203.12 169.605 206.24 173.895 206.24ZM174.585 203.48C171.945 203.48 170.235 201.44 170.235 198.5C170.235 195.68 171.975 193.7 174.645 193.7C177.435 193.7 179.265 195.38 179.265 198.02V198.74C179.265 201.62 177.405 203.48 174.585 203.48ZM199.951 198.05C199.951 193.43 197.281 190.94 193.081 190.94C188.401 190.94 185.461 193.91 185.461 198.71C185.461 203.36 188.401 206.24 193.081 206.24C197.131 206.24 199.831 204.23 199.951 200.93H196.921C196.771 202.67 195.301 203.63 193.141 203.63C190.621 203.63 189.031 202.1 188.851 199.25H199.951V198.05ZM196.921 197.21H188.941C189.331 194.75 190.801 193.55 193.111 193.55C195.541 193.55 196.921 194.78 196.921 197V197.21ZM209.189 206.24C213.929 206.24 216.449 204.47 216.449 201.47C216.449 200.27 215.879 199.13 214.889 198.59C213.839 197.99 212.639 197.78 210.539 197.57C208.739 197.39 207.329 197.24 206.609 197C205.739 196.7 205.589 196.1 205.589 195.47C205.589 194.21 206.909 193.37 209.249 193.37C211.709 193.37 212.759 194.3 212.789 196.22H215.819C215.819 192.86 213.779 190.94 209.159 190.94C205.139 190.94 202.259 192.74 202.259 195.71C202.259 196.85 202.739 197.93 203.549 198.53C204.449 199.19 206.009 199.49 208.319 199.7C209.969 199.85 211.379 200 212.099 200.27C212.879 200.54 213.089 201.05 213.089 201.62C213.089 202.97 211.889 203.81 209.159 203.81C206.279 203.81 205.289 202.76 205.289 201.05H202.259C202.259 203.96 204.089 206.24 209.189 206.24ZM224.404 206.24C227.674 206.24 229.444 204.92 229.924 202.73H229.954C229.954 203.93 229.864 205.28 229.804 206H233.164V196.97C233.164 193.07 230.524 190.94 226.024 190.94C221.794 190.94 219.214 192.71 219.214 195.68C219.214 195.95 219.244 196.34 219.274 196.55H222.364C222.334 196.31 222.334 196.07 222.334 195.98C222.334 194.33 223.624 193.46 225.904 193.46C228.514 193.46 229.804 194.45 229.804 196.67V197.72H224.314C220.354 197.72 218.764 199.49 218.764 201.74C218.764 204.62 221.014 206.24 224.404 206.24ZM225.094 203.72C223.054 203.72 221.854 202.94 221.854 201.59C221.854 200.42 222.694 199.76 224.614 199.76H229.804V200.03C229.804 202.31 228.004 203.72 225.094 203.72ZM237.207 206H240.567V193.91H245.727V191.18H240.567V189.86C240.567 188.24 241.497 187.34 243.207 187.34C244.227 187.34 245.007 187.55 245.487 187.7V185.03C245.007 184.85 243.927 184.61 242.607 184.61C239.397 184.61 237.207 186.41 237.207 189.71V191.18H234.837V193.91H237.207V206ZM248.307 189.44H251.757V186.14H248.307V189.44ZM248.337 206H251.697V191.18H248.337V206ZM262.326 206.24C267.066 206.24 270.096 203.33 270.096 198.62C270.096 193.88 267.066 190.94 262.326 190.94C257.616 190.94 254.586 193.88 254.586 198.62C254.586 203.33 257.616 206.24 262.326 206.24ZM262.326 203.48C259.596 203.48 257.946 201.62 257.946 198.62C257.946 195.59 259.596 193.7 262.326 193.7C265.056 193.7 266.736 195.59 266.736 198.62C266.736 201.62 265.056 203.48 262.326 203.48ZM279.105 206.24C283.845 206.24 286.365 204.47 286.365 201.47C286.365 200.27 285.795 199.13 284.805 198.59C283.755 197.99 282.555 197.78 280.455 197.57C278.655 197.39 277.245 197.24 276.525 197C275.655 196.7 275.505 196.1 275.505 195.47C275.505 194.21 276.825 193.37 279.165 193.37C281.625 193.37 282.675 194.3 282.705 196.22H285.735C285.735 192.86 283.695 190.94 279.075 190.94C275.055 190.94 272.175 192.74 272.175 195.71C272.175 196.85 272.655 197.93 273.465 198.53C274.365 199.19 275.925 199.49 278.235 199.7C279.885 199.85 281.295 200 282.015 200.27C282.795 200.54 283.005 201.05 283.005 201.62C283.005 202.97 281.805 203.81 279.075 203.81C276.195 203.81 275.205 202.76 275.205 201.05H272.175C272.175 203.96 274.005 206.24 279.105 206.24ZM302.39 206.24C305.42 206.24 307.28 204.74 307.85 202.4H307.91C307.85 203.84 307.82 205.13 307.76 206H311.12V185.21H307.76V193.79H307.73C307.13 192.05 305.39 190.94 302.6 190.94C298.19 190.94 295.4 194.03 295.4 198.5C295.4 203.12 298.1 206.24 302.39 206.24ZM303.08 203.48C300.44 203.48 298.73 201.44 298.73 198.5C298.73 195.68 300.47 193.7 303.14 193.7C305.93 193.7 307.76 195.38 307.76 198.02V198.74C307.76 201.62 305.9 203.48 303.08 203.48ZM319.625 206.24C322.895 206.24 324.665 204.92 325.145 202.73H325.175C325.175 203.93 325.085 205.28 325.025 206H328.385V196.97C328.385 193.07 325.745 190.94 321.245 190.94C317.015 190.94 314.435 192.71 314.435 195.68C314.435 195.95 314.465 196.34 314.495 196.55H317.585C317.555 196.31 317.555 196.07 317.555 195.98C317.555 194.33 318.845 193.46 321.125 193.46C323.735 193.46 325.025 194.45 325.025 196.67V197.72H319.535C315.575 197.72 313.985 199.49 313.985 201.74C313.985 204.62 316.235 206.24 319.625 206.24ZM320.315 203.72C318.275 203.72 317.075 202.94 317.075 201.59C317.075 200.42 317.915 199.76 319.835 199.76H325.025V200.03C325.025 202.31 323.225 203.72 320.315 203.72ZM344.997 206.24C349.227 206.24 352.047 203.93 352.047 199.97H349.017C348.987 202.16 347.517 203.48 345.147 203.48C342.657 203.48 341.097 201.62 341.097 198.59C341.097 195.53 342.687 193.7 345.267 193.7C347.517 193.7 348.957 195.05 348.987 197.27H352.017C352.017 193.34 349.317 190.94 345.177 190.94C340.707 190.94 337.737 193.85 337.737 198.59C337.737 203.33 340.647 206.24 344.997 206.24ZM362.157 206.24C366.897 206.24 369.927 203.33 369.927 198.62C369.927 193.88 366.897 190.94 362.157 190.94C357.447 190.94 354.417 193.88 354.417 198.62C354.417 203.33 357.447 206.24 362.157 206.24ZM362.157 203.48C359.427 203.48 357.777 201.62 357.777 198.62C357.777 195.59 359.427 193.7 362.157 193.7C364.887 193.7 366.567 195.59 366.567 198.62C366.567 201.62 364.887 203.48 362.157 203.48ZM372.632 206H375.992V198.77C375.992 195.59 377.522 193.82 379.802 193.82C381.812 193.82 382.922 195.14 382.922 197.24V206H386.282V198.65C386.282 195.56 387.782 193.82 390.122 193.82C392.132 193.82 393.182 195.14 393.182 197.3V206H396.542V196.55C396.542 193.07 394.652 190.94 391.352 190.94C388.532 190.94 386.732 192.44 386.192 194.84H386.162C385.802 192.44 383.942 190.94 381.062 190.94C378.362 190.94 376.562 192.53 375.902 195.08H375.872L375.992 191.18H372.632V206ZM399.686 211.94H403.046V206.12C403.046 205.52 402.986 203.99 402.956 203H402.986C403.616 204.92 405.536 206.24 408.476 206.24C412.736 206.24 415.436 203.12 415.436 198.32C415.436 193.85 412.766 190.94 408.536 190.94C405.596 190.94 403.616 192.38 403.016 194.63H402.986L403.046 191.18H399.686V211.94ZM407.816 203.48C404.936 203.48 403.046 201.86 403.046 199.34V198.56C403.106 195.59 404.966 193.7 407.756 193.7C410.426 193.7 412.076 195.56 412.076 198.41C412.076 201.5 410.396 203.48 407.816 203.48ZM422.639 206.24C425.909 206.24 427.679 204.92 428.159 202.73H428.189C428.189 203.93 428.099 205.28 428.039 206H431.399V196.97C431.399 193.07 428.759 190.94 424.259 190.94C420.029 190.94 417.449 192.71 417.449 195.68C417.449 195.95 417.479 196.34 417.509 196.55H420.599C420.569 196.31 420.569 196.07 420.569 195.98C420.569 194.33 421.859 193.46 424.139 193.46C426.749 193.46 428.039 194.45 428.039 196.67V197.72H422.549C418.589 197.72 416.999 199.49 416.999 201.74C416.999 204.62 419.249 206.24 422.639 206.24ZM423.329 203.72C421.289 203.72 420.089 202.94 420.089 201.59C420.089 200.42 420.929 199.76 422.849 199.76H428.039V200.03C428.039 202.31 426.239 203.72 423.329 203.72ZM434.452 206H437.812V198.83C437.812 195.59 439.672 193.82 442.612 193.82C445.282 193.82 446.602 195.14 446.602 197.48V206H449.962V196.73C449.962 193.07 447.652 190.94 443.902 190.94C440.452 190.94 438.532 192.47 437.722 195.14H437.692L437.812 191.18H434.452V206ZM453.097 206H456.457V198.98C456.457 195.65 458.317 193.82 461.287 193.82C463.957 193.82 465.277 195.14 465.277 197.48V206H468.637V196.73C468.637 193.07 466.327 190.94 462.577 190.94C459.097 190.94 457.177 192.47 456.397 195.17H456.367C456.397 194.36 456.457 192.65 456.457 191.93V185.21H453.097V206ZM471.77 189.44H475.22V186.14H471.77V189.44ZM471.8 206H475.16V191.18H471.8V206ZM483.737 206.24C487.007 206.24 488.777 204.92 489.257 202.73H489.287C489.287 203.93 489.197 205.28 489.137 206H492.497V196.97C492.497 193.07 489.857 190.94 485.357 190.94C481.127 190.94 478.547 192.71 478.547 195.68C478.547 195.95 478.577 196.34 478.607 196.55H481.697C481.667 196.31 481.667 196.07 481.667 195.98C481.667 194.33 482.957 193.46 485.237 193.46C487.847 193.46 489.137 194.45 489.137 196.67V197.72H483.647C479.687 197.72 478.097 199.49 478.097 201.74C478.097 204.62 480.347 206.24 483.737 206.24ZM484.427 203.72C482.387 203.72 481.187 202.94 481.187 201.59C481.187 200.42 482.027 199.76 483.947 199.76H489.137V200.03C489.137 202.31 487.337 203.72 484.427 203.72ZM496.119 206H499.509V202.1H496.119V206ZM1.92 250H5.52V243.88H10.53C15.27 243.88 17.85 241.42 17.85 237.13C17.85 232.72 14.97 230.26 10.08 230.26H1.92V250ZM5.52 241.33V233.26H9.96C12.84 233.26 14.43 234.7 14.43 237.31C14.43 240.01 12.93 241.33 10.32 241.33H5.52ZM25.7194 250.24C28.9894 250.24 30.7594 248.92 31.2394 246.73H31.2694C31.2694 247.93 31.1794 249.28 31.1194 250H34.4794V240.97C34.4794 237.07 31.8394 234.94 27.3394 234.94C23.1094 234.94 20.5294 236.71 20.5294 239.68C20.5294 239.95 20.5594 240.34 20.5894 240.55H23.6794C23.6494 240.31 23.6494 240.07 23.6494 239.98C23.6494 238.33 24.9394 237.46 27.2194 237.46C29.8294 237.46 31.1194 238.45 31.1194 240.67V241.72H25.6294C21.6694 241.72 20.0794 243.49 20.0794 245.74C20.0794 248.62 22.3294 250.24 25.7194 250.24ZM26.4094 247.72C24.3694 247.72 23.1694 246.94 23.1694 245.59C23.1694 244.42 24.0094 243.76 25.9294 243.76H31.1194V244.03C31.1194 246.31 29.3194 247.72 26.4094 247.72ZM37.5316 250H40.8916V243.52C40.8916 239.98 42.4816 237.82 45.0316 237.82C47.0116 237.82 47.9716 238.99 47.9716 241.48C47.9716 242.17 47.9116 242.92 47.8516 243.49H50.9116C50.9716 242.86 51.0616 241.66 51.0616 240.73C51.0616 237.04 49.2916 234.94 46.0816 234.94C43.0216 234.94 41.4916 236.77 40.8016 239.44H40.7716L40.8916 235.18H37.5316V250ZM58.9929 250.24C62.2629 250.24 64.0329 248.92 64.5129 246.73H64.5429C64.5429 247.93 64.4529 249.28 64.3929 250H67.7529V240.97C67.7529 237.07 65.1129 234.94 60.6129 234.94C56.3829 234.94 53.8029 236.71 53.8029 239.68C53.8029 239.95 53.8329 240.34 53.8629 240.55H56.9529C56.9229 240.31 56.9229 240.07 56.9229 239.98C56.9229 238.33 58.2129 237.46 60.4929 237.46C63.1029 237.46 64.3929 238.45 64.3929 240.67V241.72H58.9029C54.9429 241.72 53.3529 243.49 53.3529 245.74C53.3529 248.62 55.6029 250.24 58.9929 250.24ZM59.6829 247.72C57.6429 247.72 56.4429 246.94 56.4429 245.59C56.4429 244.42 57.2829 243.76 59.2029 243.76H64.3929V244.03C64.3929 246.31 62.5929 247.72 59.6829 247.72ZM89.4642 255.94H92.8242V235.18H89.4942V238H89.4642C88.8642 236.11 87.0942 234.94 84.2142 234.94C80.0742 234.94 77.1042 237.91 77.1042 242.47C77.1042 247.21 79.8042 250.24 84.0642 250.24C86.9142 250.24 88.8942 248.8 89.4342 246.58H89.4642V255.94ZM84.7842 247.48C82.1742 247.48 80.4342 245.53 80.4342 242.47C80.4342 239.59 82.2342 237.7 84.8442 237.7C87.6342 237.7 89.4642 239.38 89.4642 241.99V242.71C89.4642 245.62 87.6042 247.48 84.7842 247.48ZM102.2 250.24C105.5 250.24 107.57 248.68 108.2 245.86H108.23C108.23 247.42 108.17 249.01 108.08 250H111.44V235.18H108.08V241.75C108.08 245.35 106.19 247.36 103.19 247.36C100.76 247.36 99.3199 246.04 99.3199 243.7V235.18H95.9599V244.18C95.9599 248.11 98.3299 250.24 102.2 250.24ZM128.676 242.05C128.676 237.43 126.006 234.94 121.806 234.94C117.126 234.94 114.186 237.91 114.186 242.71C114.186 247.36 117.126 250.24 121.806 250.24C125.856 250.24 128.556 248.23 128.676 244.93H125.646C125.496 246.67 124.026 247.63 121.866 247.63C119.346 247.63 117.756 246.1 117.576 243.25H128.676V242.05ZM125.646 241.21H117.666C118.056 238.75 119.526 237.55 121.836 237.55C124.266 237.55 125.646 238.78 125.646 241V241.21ZM131.434 250H134.794V242.77C134.794 239.59 136.324 237.82 138.604 237.82C140.614 237.82 141.724 239.14 141.724 241.24V250H145.084V242.65C145.084 239.56 146.584 237.82 148.924 237.82C150.934 237.82 151.984 239.14 151.984 241.3V250H155.344V240.55C155.344 237.07 153.454 234.94 150.154 234.94C147.334 234.94 145.534 236.44 144.994 238.84H144.964C144.604 236.44 142.744 234.94 139.864 234.94C137.164 234.94 135.364 236.53 134.704 239.08H134.674L134.794 235.18H131.434V250ZM175.437 247.66H170.637C169.557 247.66 168.957 247.15 168.957 246.31C168.957 245.8 169.137 245.38 169.317 245.17C170.097 245.38 170.967 245.5 171.927 245.5C176.007 245.5 178.527 243.49 178.527 240.22C178.527 239.11 178.227 238.12 177.657 237.34C177.477 236.77 177.327 236.26 177.327 235.84C177.327 235.03 177.807 234.61 178.797 234.61C179.217 234.61 179.547 234.67 179.787 234.76V232.39C179.427 232.3 179.007 232.24 178.287 232.24C176.517 232.24 175.377 232.99 175.377 234.19C175.377 234.82 175.647 235.39 176.097 235.87L176.067 235.9C174.987 235.27 173.607 234.94 171.927 234.94C167.847 234.94 165.327 236.98 165.327 240.22C165.327 242.08 166.137 243.55 167.607 244.45V244.51C166.797 244.9 166.227 245.77 166.227 247.03C166.227 248.08 166.677 248.89 167.517 249.46V249.49C165.747 249.58 164.637 250.69 164.637 252.19C164.637 254.86 167.637 256.39 172.647 256.39C177.537 256.39 180.447 254.53 180.447 251.41C180.447 249.04 178.617 247.66 175.437 247.66ZM171.927 237.34C174.027 237.34 175.317 238.45 175.317 240.22C175.317 241.99 174.027 243.1 171.927 243.1C169.827 243.1 168.537 241.99 168.537 240.22C168.537 238.45 169.827 237.34 171.927 237.34ZM172.617 254.02C169.767 254.02 167.967 253.33 167.967 251.92C167.967 250.78 169.047 250.27 170.727 250.27H174.747C176.337 250.27 177.087 250.81 177.087 251.8C177.087 253.12 175.767 254.02 172.617 254.02ZM189.382 250.24C194.122 250.24 197.152 247.33 197.152 242.62C197.152 237.88 194.122 234.94 189.382 234.94C184.672 234.94 181.642 237.88 181.642 242.62C181.642 247.33 184.672 250.24 189.382 250.24ZM189.382 247.48C186.652 247.48 185.002 245.62 185.002 242.62C185.002 239.59 186.652 237.7 189.382 237.7C192.112 237.7 193.792 239.59 193.792 242.62C193.792 245.62 192.112 247.48 189.382 247.48ZM206.16 250.24C210.9 250.24 213.42 248.47 213.42 245.47C213.42 244.27 212.85 243.13 211.86 242.59C210.81 241.99 209.61 241.78 207.51 241.57C205.71 241.39 204.3 241.24 203.58 241C202.71 240.7 202.56 240.1 202.56 239.47C202.56 238.21 203.88 237.37 206.22 237.37C208.68 237.37 209.73 238.3 209.76 240.22H212.79C212.79 236.86 210.75 234.94 206.13 234.94C202.11 234.94 199.23 236.74 199.23 239.71C199.23 240.85 199.71 241.93 200.52 242.53C201.42 243.19 202.98 243.49 205.29 243.7C206.94 243.85 208.35 244 209.07 244.27C209.85 244.54 210.06 245.05 210.06 245.62C210.06 246.97 208.86 247.81 206.13 247.81C203.25 247.81 202.26 246.76 202.26 245.05H199.23C199.23 247.96 201.06 250.24 206.16 250.24ZM222.756 250.18C223.986 250.18 225.006 249.97 225.456 249.82V247.15C225.036 247.27 224.076 247.42 223.236 247.42C221.196 247.42 220.476 246.46 220.476 244.54V237.91H225.576V235.18H220.476V231.82H217.686L217.536 234.04C217.446 234.88 217.236 235.18 216.666 235.18H214.776V237.91H217.116V244.72C217.116 247.99 218.706 250.18 222.756 250.18ZM232.901 250.24C236.171 250.24 237.941 248.92 238.421 246.73H238.451C238.451 247.93 238.361 249.28 238.301 250H241.661V240.97C241.661 237.07 239.021 234.94 234.521 234.94C230.291 234.94 227.711 236.71 227.711 239.68C227.711 239.95 227.741 240.34 227.771 240.55H230.861C230.831 240.31 230.831 240.07 230.831 239.98C230.831 238.33 232.121 237.46 234.401 237.46C237.011 237.46 238.301 238.45 238.301 240.67V241.72H232.811C228.851 241.72 227.261 243.49 227.261 245.74C227.261 248.62 229.511 250.24 232.901 250.24ZM233.591 247.72C231.551 247.72 230.351 246.94 230.351 245.59C230.351 244.42 231.191 243.76 233.111 243.76H238.301V244.03C238.301 246.31 236.501 247.72 233.591 247.72ZM258.002 250.24C261.032 250.24 262.892 248.74 263.462 246.4H263.522C263.462 247.84 263.432 249.13 263.372 250H266.732V229.21H263.372V237.79H263.342C262.742 236.05 261.002 234.94 258.212 234.94C253.802 234.94 251.012 238.03 251.012 242.5C251.012 247.12 253.712 250.24 258.002 250.24ZM258.692 247.48C256.052 247.48 254.342 245.44 254.342 242.5C254.342 239.68 256.082 237.7 258.752 237.7C261.542 237.7 263.372 239.38 263.372 242.02V242.74C263.372 245.62 261.512 247.48 258.692 247.48ZM284.058 242.05C284.058 237.43 281.388 234.94 277.188 234.94C272.508 234.94 269.568 237.91 269.568 242.71C269.568 247.36 272.508 250.24 277.188 250.24C281.238 250.24 283.938 248.23 284.058 244.93H281.028C280.878 246.67 279.408 247.63 277.248 247.63C274.728 247.63 273.138 246.1 272.958 243.25H284.058V242.05ZM281.028 241.21H273.048C273.438 238.75 274.908 237.55 277.218 237.55C279.648 237.55 281.028 238.78 281.028 241V241.21ZM299.655 250.24C302.955 250.24 305.025 248.68 305.655 245.86H305.685C305.685 247.42 305.625 249.01 305.535 250H308.895V235.18H305.535V241.75C305.535 245.35 303.645 247.36 300.645 247.36C298.215 247.36 296.775 246.04 296.775 243.7V235.18H293.415V244.18C293.415 248.11 295.785 250.24 299.655 250.24ZM312.091 250H315.451V242.77C315.451 239.59 316.981 237.82 319.261 237.82C321.271 237.82 322.381 239.14 322.381 241.24V250H325.741V242.65C325.741 239.56 327.241 237.82 329.581 237.82C331.591 237.82 332.641 239.14 332.641 241.3V250H336.001V240.55C336.001 237.07 334.111 234.94 330.811 234.94C327.991 234.94 326.191 236.44 325.651 238.84H325.621C325.261 236.44 323.401 234.94 320.521 234.94C317.821 234.94 316.021 236.53 315.361 239.08H315.331L315.451 235.18H312.091V250ZM351.024 250.24C354.294 250.24 356.064 248.92 356.544 246.73H356.574C356.574 247.93 356.484 249.28 356.424 250H359.784V240.97C359.784 237.07 357.144 234.94 352.644 234.94C348.414 234.94 345.834 236.71 345.834 239.68C345.834 239.95 345.864 240.34 345.894 240.55H348.984C348.954 240.31 348.954 240.07 348.954 239.98C348.954 238.33 350.244 237.46 352.524 237.46C355.134 237.46 356.424 238.45 356.424 240.67V241.72H350.934C346.974 241.72 345.384 243.49 345.384 245.74C345.384 248.62 347.634 250.24 351.024 250.24ZM351.714 247.72C349.674 247.72 348.474 246.94 348.474 245.59C348.474 244.42 349.314 243.76 351.234 243.76H356.424V244.03C356.424 246.31 354.624 247.72 351.714 247.72ZM362.836 250H366.196V242.77C366.196 239.59 367.726 237.82 370.006 237.82C372.016 237.82 373.126 239.14 373.126 241.24V250H376.486V242.65C376.486 239.56 377.986 237.82 380.326 237.82C382.336 237.82 383.386 239.14 383.386 241.3V250H386.746V240.55C386.746 237.07 384.856 234.94 381.556 234.94C378.736 234.94 376.936 236.44 376.396 238.84H376.366C376.006 236.44 374.146 234.94 371.266 234.94C368.566 234.94 366.766 236.53 366.106 239.08H366.076L366.196 235.18H362.836V250ZM398.86 250.24C403.03 250.24 405.64 247.21 405.64 242.32C405.64 237.76 403.09 234.94 398.83 234.94C395.89 234.94 393.85 236.32 393.22 238.48H393.19C393.22 237.76 393.25 236.56 393.25 235.93V229.21H389.89V250H393.25C393.19 249.25 393.13 247.9 393.13 246.85H393.16C393.76 248.92 395.8 250.24 398.86 250.24ZM397.99 247.48C395.08 247.48 393.25 245.89 393.25 243.31V242.56C393.25 239.56 395.11 237.7 398.05 237.7C400.69 237.7 402.28 239.5 402.28 242.41C402.28 245.56 400.63 247.48 397.99 247.48ZM408.475 233.44H411.925V230.14H408.475V233.44ZM408.505 250H411.865V235.18H408.505V250ZM429.262 242.05C429.262 237.43 426.592 234.94 422.392 234.94C417.712 234.94 414.772 237.91 414.772 242.71C414.772 247.36 417.712 250.24 422.392 250.24C426.442 250.24 429.142 248.23 429.262 244.93H426.232C426.082 246.67 424.612 247.63 422.452 247.63C419.932 247.63 418.342 246.1 418.162 243.25H429.262V242.05ZM426.232 241.21H418.252C418.642 238.75 420.112 237.55 422.422 237.55C424.852 237.55 426.232 238.78 426.232 241V241.21ZM432.02 250H435.38V242.83C435.38 239.59 437.24 237.82 440.18 237.82C442.85 237.82 444.17 239.14 444.17 241.48V250H447.53V240.73C447.53 237.07 445.22 234.94 441.47 234.94C438.02 234.94 436.1 236.47 435.29 239.14H435.26L435.38 235.18H432.02V250ZM457.176 250.18C458.406 250.18 459.426 249.97 459.876 249.82V247.15C459.456 247.27 458.496 247.42 457.656 247.42C455.616 247.42 454.896 246.46 454.896 244.54V237.91H459.996V235.18H454.896V231.82H452.106L451.956 234.04C451.866 234.88 451.656 235.18 451.086 235.18H449.196V237.91H451.536V244.72C451.536 247.99 453.126 250.18 457.176 250.18ZM475.964 242.05C475.964 237.43 473.294 234.94 469.094 234.94C464.414 234.94 461.474 237.91 461.474 242.71C461.474 247.36 464.414 250.24 469.094 250.24C473.144 250.24 475.844 248.23 475.964 244.93H472.934C472.784 246.67 471.314 247.63 469.154 247.63C466.634 247.63 465.044 246.1 464.864 243.25H475.964V242.05ZM472.934 241.21H464.954C465.344 238.75 466.814 237.55 469.124 237.55C471.554 237.55 472.934 238.78 472.934 241V241.21ZM8.49 294.24C12.72 294.24 15.54 291.93 15.54 287.97H12.51C12.48 290.16 11.01 291.48 8.64 291.48C6.15 291.48 4.59 289.62 4.59 286.59C4.59 283.53 6.18 281.7 8.76 281.7C11.01 281.7 12.45 283.05 12.48 285.27H15.51C15.51 281.34 12.81 278.94 8.67 278.94C4.2 278.94 1.23 281.85 1.23 286.59C1.23 291.33 4.14 294.24 8.49 294.24ZM18.3607 294H21.7207V287.52C21.7207 283.98 23.3107 281.82 25.8607 281.82C27.8407 281.82 28.8007 282.99 28.8007 285.48C28.8007 286.17 28.7407 286.92 28.6807 287.49H31.7407C31.8007 286.86 31.8907 285.66 31.8907 284.73C31.8907 281.04 30.1207 278.94 26.9107 278.94C23.8507 278.94 22.3207 280.77 21.6307 283.44H21.6007L21.7207 279.18H18.3607V294ZM34.692 277.44H38.142V274.14H34.692V277.44ZM34.722 294H38.082V279.18H34.722V294ZM46.6589 294.24C49.9289 294.24 51.6989 292.92 52.1789 290.73H52.2089C52.2089 291.93 52.1189 293.28 52.0589 294H55.4189V284.97C55.4189 281.07 52.7789 278.94 48.2789 278.94C44.0489 278.94 41.4689 280.71 41.4689 283.68C41.4689 283.95 41.4989 284.34 41.5289 284.55H44.6189C44.5889 284.31 44.5889 284.07 44.5889 283.98C44.5889 282.33 45.8789 281.46 48.1589 281.46C50.7689 281.46 52.0589 282.45 52.0589 284.67V285.72H46.5689C42.6089 285.72 41.0189 287.49 41.0189 289.74C41.0189 292.62 43.2689 294.24 46.6589 294.24ZM47.3489 291.72C45.3089 291.72 44.1089 290.94 44.1089 289.59C44.1089 288.42 44.9489 287.76 46.8689 287.76H52.0589V288.03C52.0589 290.31 50.2589 291.72 47.3489 291.72ZM65.0712 294.18C66.3012 294.18 67.3212 293.97 67.7712 293.82V291.15C67.3512 291.27 66.3912 291.42 65.5512 291.42C63.5112 291.42 62.7912 290.46 62.7912 288.54V281.91H67.8912V279.18H62.7912V275.82H60.0012L59.8512 278.04C59.7612 278.88 59.5512 279.18 58.9812 279.18H57.0912V281.91H59.4312V288.72C59.4312 291.99 61.0212 294.18 65.0712 294.18ZM70.4958 277.44H73.9458V274.14H70.4958V277.44ZM70.5258 294H73.8858V279.18H70.5258V294ZM82.6427 294H86.6327L93.0527 279.18H89.5427L84.8327 290.85H84.7727L80.1227 279.18H76.1927L82.6427 294ZM102.034 294.24C106.774 294.24 109.804 291.33 109.804 286.62C109.804 281.88 106.774 278.94 102.034 278.94C97.3238 278.94 94.2938 281.88 94.2938 286.62C94.2938 291.33 97.3238 294.24 102.034 294.24ZM102.034 291.48C99.3038 291.48 97.6538 289.62 97.6538 286.62C97.6538 283.59 99.3038 281.7 102.034 281.7C104.764 281.7 106.444 283.59 106.444 286.62C106.444 289.62 104.764 291.48 102.034 291.48ZM112.508 298.14C115.118 297.93 116.438 296.46 116.438 292.92V290.1H113.048V294H114.458V294.09C114.458 295.56 113.888 296.28 112.508 296.4V298.14ZM133.513 294.24C136.543 294.24 138.403 292.74 138.973 290.4H139.033C138.973 291.84 138.943 293.13 138.883 294H142.243V273.21H138.883V281.79H138.853C138.253 280.05 136.513 278.94 133.723 278.94C129.313 278.94 126.523 282.03 126.523 286.5C126.523 291.12 129.223 294.24 133.513 294.24ZM134.203 291.48C131.563 291.48 129.853 289.44 129.853 286.5C129.853 283.68 131.593 281.7 134.263 281.7C137.053 281.7 138.883 283.38 138.883 286.02V286.74C138.883 289.62 137.023 291.48 134.203 291.48ZM145.619 277.44H149.069V274.14H145.619V277.44ZM145.649 294H149.009V279.18H145.649V294ZM152.366 294H155.726V286.83C155.726 283.59 157.586 281.82 160.526 281.82C163.196 281.82 164.516 283.14 164.516 285.48V294H167.876V284.73C167.876 281.07 165.566 278.94 161.816 278.94C158.366 278.94 156.446 280.47 155.636 283.14H155.606L155.726 279.18H152.366V294ZM173.322 277.8L177.762 275.67H177.822L182.262 277.8V275.31L177.822 273.18H177.762L173.322 275.31V277.8ZM176.142 294.24C179.412 294.24 181.182 292.92 181.662 290.73H181.692C181.692 291.93 181.602 293.28 181.542 294H184.902V284.97C184.902 281.07 182.262 278.94 177.762 278.94C173.532 278.94 170.952 280.71 170.952 283.68C170.952 283.95 170.982 284.34 171.012 284.55H174.102C174.072 284.31 174.072 284.07 174.072 283.98C174.072 282.33 175.362 281.46 177.642 281.46C180.252 281.46 181.542 282.45 181.542 284.67V285.72H176.052C172.092 285.72 170.502 287.49 170.502 289.74C170.502 292.62 172.752 294.24 176.142 294.24ZM176.832 291.72C174.792 291.72 173.592 290.94 173.592 289.59C173.592 288.42 174.432 287.76 176.352 287.76H181.542V288.03C181.542 290.31 179.742 291.72 176.832 291.72ZM187.954 294H191.314V286.77C191.314 283.59 192.844 281.82 195.124 281.82C197.134 281.82 198.244 283.14 198.244 285.24V294H201.604V286.65C201.604 283.56 203.104 281.82 205.444 281.82C207.454 281.82 208.504 283.14 208.504 285.3V294H211.864V284.55C211.864 281.07 209.974 278.94 206.674 278.94C203.854 278.94 202.054 280.44 201.514 282.84H201.484C201.124 280.44 199.264 278.94 196.384 278.94C193.684 278.94 191.884 280.53 191.224 283.08H191.194L191.314 279.18H187.954V294ZM215.008 277.44H218.458V274.14H215.008V277.44ZM215.038 294H218.398V279.18H215.038V294ZM228.565 294.24C232.795 294.24 235.615 291.93 235.615 287.97H232.585C232.555 290.16 231.085 291.48 228.715 291.48C226.225 291.48 224.665 289.62 224.665 286.59C224.665 283.53 226.255 281.7 228.835 281.7C231.085 281.7 232.525 283.05 232.555 285.27H235.585C235.585 281.34 232.885 278.94 228.745 278.94C224.275 278.94 221.305 281.85 221.305 286.59C221.305 291.33 224.215 294.24 228.565 294.24ZM245.726 294.24C250.466 294.24 253.496 291.33 253.496 286.62C253.496 281.88 250.466 278.94 245.726 278.94C241.016 278.94 237.986 281.88 237.986 286.62C237.986 291.33 241.016 294.24 245.726 294.24ZM245.726 291.48C242.996 291.48 241.346 289.62 241.346 286.62C241.346 283.59 242.996 281.7 245.726 281.7C248.456 281.7 250.136 283.59 250.136 286.62C250.136 289.62 248.456 291.48 245.726 291.48ZM276.989 286.05C276.989 281.43 274.319 278.94 270.119 278.94C265.439 278.94 262.499 281.91 262.499 286.71C262.499 291.36 265.439 294.24 270.119 294.24C274.169 294.24 276.869 292.23 276.989 288.93H273.959C273.809 290.67 272.339 291.63 270.179 291.63C267.659 291.63 266.069 290.1 265.889 287.25H276.989V286.05ZM273.959 285.21H265.979C266.369 282.75 267.839 281.55 270.149 281.55C272.579 281.55 273.959 282.78 273.959 285V285.21ZM293.036 294.24C296.066 294.24 297.926 292.74 298.496 290.4H298.556C298.496 291.84 298.466 293.13 298.406 294H301.766V273.21H298.406V281.79H298.376C297.776 280.05 296.036 278.94 293.246 278.94C288.836 278.94 286.046 282.03 286.046 286.5C286.046 291.12 288.746 294.24 293.036 294.24ZM293.726 291.48C291.086 291.48 289.376 289.44 289.376 286.5C289.376 283.68 291.116 281.7 293.786 281.7C296.576 281.7 298.406 283.38 298.406 286.02V286.74C298.406 289.62 296.546 291.48 293.726 291.48ZM305.142 277.44H308.592V274.14H305.142V277.44ZM305.172 294H308.532V279.18H305.172V294ZM317.289 294H321.279L327.699 279.18H324.189L319.479 290.85H319.419L314.769 279.18H310.839L317.289 294ZM343.43 286.05C343.43 281.43 340.76 278.94 336.56 278.94C331.88 278.94 328.94 281.91 328.94 286.71C328.94 291.36 331.88 294.24 336.56 294.24C340.61 294.24 343.31 292.23 343.43 288.93H340.4C340.25 290.67 338.78 291.63 336.62 291.63C334.1 291.63 332.51 290.1 332.33 287.25H343.43V286.05ZM340.4 285.21H332.42C332.81 282.75 334.28 281.55 336.59 281.55C339.02 281.55 340.4 282.78 340.4 285V285.21ZM346.188 294H349.548V287.52C349.548 283.98 351.138 281.82 353.688 281.82C355.668 281.82 356.628 282.99 356.628 285.48C356.628 286.17 356.568 286.92 356.508 287.49H359.568C359.628 286.86 359.718 285.66 359.718 284.73C359.718 281.04 357.948 278.94 354.738 278.94C351.678 278.94 350.148 280.77 349.458 283.44H349.428L349.548 279.18H346.188V294ZM369.029 294.18C370.259 294.18 371.279 293.97 371.729 293.82V291.15C371.309 291.27 370.349 291.42 369.509 291.42C367.469 291.42 366.749 290.46 366.749 288.54V281.91H371.849V279.18H366.749V275.82H363.959L363.809 278.04C363.719 278.88 363.509 279.18 362.939 279.18H361.049V281.91H363.389V288.72C363.389 291.99 364.979 294.18 369.029 294.18ZM374.454 277.44H377.904V274.14H374.454V277.44ZM374.484 294H377.844V279.18H374.484V294ZM387.741 294.24C390.771 294.24 392.631 292.74 393.201 290.4H393.261C393.201 291.84 393.171 293.13 393.111 294H396.471V273.21H393.111V281.79H393.081C392.481 280.05 390.741 278.94 387.951 278.94C383.541 278.94 380.751 282.03 380.751 286.5C380.751 291.12 383.451 294.24 387.741 294.24ZM388.431 291.48C385.791 291.48 384.081 289.44 384.081 286.5C384.081 283.68 385.821 281.7 388.491 281.7C391.281 281.7 393.111 283.38 393.111 286.02V286.74C393.111 289.62 391.251 291.48 388.431 291.48ZM407.046 294.24C411.786 294.24 414.816 291.33 414.816 286.62C414.816 281.88 411.786 278.94 407.046 278.94C402.336 278.94 399.306 281.88 399.306 286.62C399.306 291.33 402.336 294.24 407.046 294.24ZM407.046 291.48C404.316 291.48 402.666 289.62 402.666 286.62C402.666 283.59 404.316 281.7 407.046 281.7C409.776 281.7 411.456 283.59 411.456 286.62C411.456 289.62 409.776 291.48 407.046 291.48ZM417.521 298.14C420.131 297.93 421.451 296.46 421.451 292.92V290.1H418.061V294H419.471V294.09C419.471 295.56 418.901 296.28 417.521 296.4V298.14ZM431.986 294H435.346V286.83C435.346 283.59 437.206 281.82 440.146 281.82C442.816 281.82 444.136 283.14 444.136 285.48V294H447.496V284.73C447.496 281.07 445.186 278.94 441.436 278.94C437.986 278.94 436.066 280.47 435.256 283.14H435.226L435.346 279.18H431.986V294ZM451.922 277.35H454.052C454.232 275.7 454.712 275.04 455.312 275.04C455.852 275.04 456.122 275.28 456.632 275.79L457.082 276.24C457.712 276.87 458.402 277.35 459.542 277.35C461.192 277.35 462.632 276.15 462.872 272.94H460.772C460.592 274.62 460.112 275.28 459.482 275.28C458.972 275.28 458.672 275.01 458.162 274.5L457.712 274.08C457.082 273.45 456.392 272.94 455.252 272.94C453.632 272.94 452.162 274.17 451.922 277.35ZM455.762 294.24C459.032 294.24 460.802 292.92 461.282 290.73H461.312C461.312 291.93 461.222 293.28 461.162 294H464.522V284.97C464.522 281.07 461.882 278.94 457.382 278.94C453.152 278.94 450.572 280.71 450.572 283.68C450.572 283.95 450.602 284.34 450.632 284.55H453.722C453.692 284.31 453.692 284.07 453.692 283.98C453.692 282.33 454.982 281.46 457.262 281.46C459.872 281.46 461.162 282.45 461.162 284.67V285.72H455.672C451.712 285.72 450.122 287.49 450.122 289.74C450.122 292.62 452.372 294.24 455.762 294.24ZM456.452 291.72C454.412 291.72 453.212 290.94 453.212 289.59C453.212 288.42 454.052 287.76 455.972 287.76H461.162V288.03C461.162 290.31 459.362 291.72 456.452 291.72ZM474.864 294.24C479.604 294.24 482.634 291.33 482.634 286.62C482.634 281.88 479.604 278.94 474.864 278.94C470.154 278.94 467.124 281.88 467.124 286.62C467.124 291.33 470.154 294.24 474.864 294.24ZM474.864 291.48C472.134 291.48 470.484 289.62 470.484 286.62C470.484 283.59 472.134 281.7 474.864 281.7C477.594 281.7 479.274 283.59 479.274 286.62C479.274 289.62 477.594 291.48 474.864 291.48ZM498.688 294.18C499.918 294.18 500.938 293.97 501.388 293.82V291.15C500.968 291.27 500.008 291.42 499.168 291.42C497.128 291.42 496.408 290.46 496.408 288.54V281.91H501.508V279.18H496.408V275.82H493.618L493.468 278.04C493.378 278.88 493.168 279.18 492.598 279.18H490.708V281.91H493.048V288.72C493.048 291.99 494.638 294.18 498.688 294.18ZM517.476 286.05C517.476 281.43 514.806 278.94 510.606 278.94C505.926 278.94 502.986 281.91 502.986 286.71C502.986 291.36 505.926 294.24 510.606 294.24C514.656 294.24 517.356 292.23 517.476 288.93H514.446C514.296 290.67 512.826 291.63 510.666 291.63C508.146 291.63 506.556 290.1 506.376 287.25H517.476V286.05ZM514.446 285.21H506.466C506.856 282.75 508.326 281.55 510.636 281.55C513.066 281.55 514.446 282.78 514.446 285V285.21ZM520.234 294H523.594V286.77C523.594 283.59 525.124 281.82 527.404 281.82C529.414 281.82 530.524 283.14 530.524 285.24V294H533.884V286.65C533.884 283.56 535.384 281.82 537.724 281.82C539.734 281.82 540.784 283.14 540.784 285.3V294H544.144V284.55C544.144 281.07 542.254 278.94 538.954 278.94C536.134 278.94 534.334 280.44 533.794 282.84H533.764C533.404 280.44 531.544 278.94 528.664 278.94C525.964 278.94 524.164 280.53 523.504 283.08H523.474L523.594 279.18H520.234V294ZM1.77 338H5.13V317.21H1.77V338ZM14.5484 338.24C17.8484 338.24 19.9184 336.68 20.5484 333.86H20.5784C20.5784 335.42 20.5184 337.01 20.4284 338H23.7884V323.18H20.4284V329.75C20.4284 333.35 18.5384 335.36 15.5384 335.36C13.1084 335.36 11.6684 334.04 11.6684 331.7V323.18H8.30836V332.18C8.30836 336.11 10.6784 338.24 14.5484 338.24ZM37.2748 335.66H32.4748C31.3948 335.66 30.7948 335.15 30.7948 334.31C30.7948 333.8 30.9748 333.38 31.1548 333.17C31.9348 333.38 32.8048 333.5 33.7648 333.5C37.8448 333.5 40.3648 331.49 40.3648 328.22C40.3648 327.11 40.0648 326.12 39.4948 325.34C39.3148 324.77 39.1648 324.26 39.1648 323.84C39.1648 323.03 39.6448 322.61 40.6348 322.61C41.0548 322.61 41.3848 322.67 41.6248 322.76V320.39C41.2648 320.3 40.8448 320.24 40.1248 320.24C38.3548 320.24 37.2148 320.99 37.2148 322.19C37.2148 322.82 37.4848 323.39 37.9348 323.87L37.9048 323.9C36.8248 323.27 35.4448 322.94 33.7648 322.94C29.6848 322.94 27.1648 324.98 27.1648 328.22C27.1648 330.08 27.9748 331.55 29.4448 332.45V332.51C28.6348 332.9 28.0648 333.77 28.0648 335.03C28.0648 336.08 28.5148 336.89 29.3548 337.46V337.49C27.5848 337.58 26.4748 338.69 26.4748 340.19C26.4748 342.86 29.4748 344.39 34.4848 344.39C39.3748 344.39 42.2848 342.53 42.2848 339.41C42.2848 337.04 40.4548 335.66 37.2748 335.66ZM33.7648 325.34C35.8648 325.34 37.1548 326.45 37.1548 328.22C37.1548 329.99 35.8648 331.1 33.7648 331.1C31.6648 331.1 30.3748 329.99 30.3748 328.22C30.3748 326.45 31.6648 325.34 33.7648 325.34ZM34.4548 342.02C31.6048 342.02 29.8048 341.33 29.8048 339.92C29.8048 338.78 30.8848 338.27 32.5648 338.27H36.5848C38.1748 338.27 38.9248 338.81 38.9248 339.8C38.9248 341.12 37.6048 342.02 34.4548 342.02ZM49.4714 338.24C52.7414 338.24 54.5114 336.92 54.9914 334.73H55.0214C55.0214 335.93 54.9314 337.28 54.8714 338H58.2314V328.97C58.2314 325.07 55.5914 322.94 51.0914 322.94C46.8614 322.94 44.2814 324.71 44.2814 327.68C44.2814 327.95 44.3114 328.34 44.3414 328.55H47.4314C47.4014 328.31 47.4014 328.07 47.4014 327.98C47.4014 326.33 48.6914 325.46 50.9714 325.46C53.5814 325.46 54.8714 326.45 54.8714 328.67V329.72H49.3814C45.4214 329.72 43.8314 331.49 43.8314 333.74C43.8314 336.62 46.0814 338.24 49.4714 338.24ZM50.1614 335.72C48.1214 335.72 46.9214 334.94 46.9214 333.59C46.9214 332.42 47.7614 331.76 49.6814 331.76H54.8714V332.03C54.8714 334.31 53.0714 335.72 50.1614 335.72ZM61.2837 338H64.6437V331.52C64.6437 327.98 66.2337 325.82 68.7837 325.82C70.7637 325.82 71.7237 326.99 71.7237 329.48C71.7237 330.17 71.6637 330.92 71.6037 331.49H74.6637C74.7237 330.86 74.8137 329.66 74.8137 328.73C74.8137 325.04 73.0437 322.94 69.8337 322.94C66.7737 322.94 65.2437 324.77 64.5537 327.44H64.5237L64.6437 323.18H61.2837V338ZM84.274 338H87.634V330.77C87.634 327.59 89.164 325.82 91.444 325.82C93.454 325.82 94.564 327.14 94.564 329.24V338H97.924V330.65C97.924 327.56 99.424 325.82 101.764 325.82C103.774 325.82 104.824 327.14 104.824 329.3V338H108.184V328.55C108.184 325.07 106.294 322.94 102.994 322.94C100.174 322.94 98.374 324.44 97.834 326.84H97.804C97.444 324.44 95.584 322.94 92.704 322.94C90.004 322.94 88.204 324.53 87.544 327.08H87.514L87.634 323.18H84.274V338ZM125.278 330.05C125.278 325.43 122.608 322.94 118.408 322.94C113.728 322.94 110.788 325.91 110.788 330.71C110.788 335.36 113.728 338.24 118.408 338.24C122.458 338.24 125.158 336.23 125.278 332.93H122.248C122.098 334.67 120.628 335.63 118.468 335.63C115.948 335.63 114.358 334.1 114.178 331.25H125.278V330.05ZM122.248 329.21H114.268C114.658 326.75 116.128 325.55 118.438 325.55C120.868 325.55 122.248 326.78 122.248 329V329.21ZM128.126 338H131.486V317.21H128.126V338ZM134.904 338H138.264V330.98C138.264 327.65 140.124 325.82 143.094 325.82C145.764 325.82 147.084 327.14 147.084 329.48V338H150.444V328.73C150.444 325.07 148.134 322.94 144.384 322.94C140.904 322.94 138.984 324.47 138.204 327.17H138.174C138.204 326.36 138.264 324.65 138.264 323.93V317.21H134.904V338ZM160.777 338.24C165.517 338.24 168.547 335.33 168.547 330.62C168.547 325.88 165.517 322.94 160.777 322.94C156.067 322.94 153.037 325.88 153.037 330.62C153.037 335.33 156.067 338.24 160.777 338.24ZM160.777 335.48C158.047 335.48 156.397 333.62 156.397 330.62C156.397 327.59 158.047 325.7 160.777 325.7C163.507 325.7 165.187 327.59 165.187 330.62C165.187 333.62 163.507 335.48 160.777 335.48ZM171.252 338H174.612V331.52C174.612 327.98 176.202 325.82 178.752 325.82C180.732 325.82 181.692 326.99 181.692 329.48C181.692 330.17 181.632 330.92 181.572 331.49H184.632C184.692 330.86 184.782 329.66 184.782 328.73C184.782 325.04 183.012 322.94 179.802 322.94C176.742 322.94 175.212 324.77 174.522 327.44H174.492L174.612 323.18H171.252V338ZM188.423 331.22H189.743L190.733 321.23V317.84H187.433V321.23L188.423 331.22ZM187.373 338H190.793V334.1H187.373V338Z" fill="black"/>
</svg>
