<svg width="578" height="308" viewBox="0 0 578 308" fill="none" xmlns="http://www.w3.org/2000/svg">
<path d="M9 10.41C3.96 10.41 1.92 12.78 1.92 17.01V20.34H7.74V15.39H5.37V15.27C5.37 13.95 6.18 12.96 9 12.96V10.41ZM18.06 10.41C13.02 10.41 10.98 12.78 10.98 17.01V20.34H16.8V15.39H14.43V15.27C14.43 13.95 15.24 12.96 18.06 12.96V10.41ZM340.908 284.16C345.948 284.16 347.988 281.79 347.988 277.56V274.23H342.168V279.18H344.538V279.3C344.538 280.62 343.728 281.61 340.908 281.61V284.16ZM349.998 284.16C355.038 284.16 357.078 281.79 357.078 277.56V274.23H351.258V279.18H353.628V279.3C353.628 280.62 352.818 281.61 349.998 281.61V284.16Z" fill="#7D2CFF"/>
<path d="M25.803 30H29.403V13.23H35.523V10.26H19.683V13.23H25.803V30ZM36.7992 30H40.1592V23.52C40.1592 19.98 41.7492 17.82 44.2992 17.82C46.2792 17.82 47.2392 18.99 47.2392 21.48C47.2392 22.17 47.1792 22.92 47.1192 23.49H50.1792C50.2392 22.86 50.3292 21.66 50.3292 20.73C50.3292 17.04 48.5592 14.94 45.3492 14.94C42.2892 14.94 40.7592 16.77 40.0692 19.44H40.0392L40.1592 15.18H36.7992V30ZM58.2605 30.24C61.5305 30.24 63.3005 28.92 63.7805 26.73H63.8105C63.8105 27.93 63.7205 29.28 63.6605 30H67.0205V20.97C67.0205 17.07 64.3805 14.94 59.8805 14.94C55.6505 14.94 53.0705 16.71 53.0705 19.68C53.0705 19.95 53.1005 20.34 53.1305 20.55H56.2205C56.1905 20.31 56.1905 20.07 56.1905 19.98C56.1905 18.33 57.4805 17.46 59.7605 17.46C62.3705 17.46 63.6605 18.45 63.6605 20.67V21.72H58.1705C54.2105 21.72 52.6205 23.49 52.6205 25.74C52.6205 28.62 54.8705 30.24 58.2605 30.24ZM58.9505 27.72C56.9105 27.72 55.7105 26.94 55.7105 25.59C55.7105 24.42 56.5505 23.76 58.4705 23.76H63.6605V24.03C63.6605 26.31 61.8605 27.72 58.9505 27.72ZM79.1327 30.24C83.3027 30.24 85.9127 27.21 85.9127 22.32C85.9127 17.76 83.3627 14.94 79.1027 14.94C76.1627 14.94 74.1227 16.32 73.4927 18.48H73.4627C73.4927 17.76 73.5227 16.56 73.5227 15.93V9.21H70.1627V30H73.5227C73.4627 29.25 73.4027 27.9 73.4027 26.85H73.4327C74.0327 28.92 76.0727 30.24 79.1327 30.24ZM78.2627 27.48C75.3527 27.48 73.5227 25.89 73.5227 23.31V22.56C73.5227 19.56 75.3827 17.7 78.3227 17.7C80.9627 17.7 82.5527 19.5 82.5527 22.41C82.5527 25.56 80.9027 27.48 78.2627 27.48ZM93.116 30.24C96.386 30.24 98.156 28.92 98.636 26.73H98.666C98.666 27.93 98.576 29.28 98.516 30H101.876V20.97C101.876 17.07 99.236 14.94 94.736 14.94C90.506 14.94 87.926 16.71 87.926 19.68C87.926 19.95 87.956 20.34 87.986 20.55H91.076C91.046 20.31 91.046 20.07 91.046 19.98C91.046 18.33 92.336 17.46 94.616 17.46C97.226 17.46 98.516 18.45 98.516 20.67V21.72H93.026C89.066 21.72 87.476 23.49 87.476 25.74C87.476 28.62 89.726 30.24 93.116 30.24ZM93.806 27.72C91.766 27.72 90.566 26.94 90.566 25.59C90.566 24.42 91.406 23.76 93.326 23.76H98.516V24.03C98.516 26.31 96.716 27.72 93.806 27.72ZM105.018 30H108.378V9.21H105.018V30ZM111.797 30H115.157V22.98C115.157 19.65 117.017 17.82 119.987 17.82C122.657 17.82 123.977 19.14 123.977 21.48V30H127.337V20.73C127.337 17.07 125.027 14.94 121.277 14.94C117.797 14.94 115.877 16.47 115.097 19.17H115.067C115.097 18.36 115.157 16.65 115.157 15.93V9.21H111.797V30ZM135.6 30.24C138.87 30.24 140.64 28.92 141.12 26.73H141.15C141.15 27.93 141.06 29.28 141 30H144.36V20.97C144.36 17.07 141.72 14.94 137.22 14.94C132.99 14.94 130.41 16.71 130.41 19.68C130.41 19.95 130.44 20.34 130.47 20.55H133.56C133.53 20.31 133.53 20.07 133.53 19.98C133.53 18.33 134.82 17.46 137.1 17.46C139.71 17.46 141 18.45 141 20.67V21.72H135.51C131.55 21.72 129.96 23.49 129.96 25.74C129.96 28.62 132.21 30.24 135.6 30.24ZM136.29 27.72C134.25 27.72 133.05 26.94 133.05 25.59C133.05 24.42 133.89 23.76 135.81 23.76H141V24.03C141 26.31 139.2 27.72 136.29 27.72ZM147.412 30H150.772V23.52C150.772 19.98 152.362 17.82 154.912 17.82C156.892 17.82 157.852 18.99 157.852 21.48C157.852 22.17 157.792 22.92 157.732 23.49H160.792C160.852 22.86 160.942 21.66 160.942 20.73C160.942 17.04 159.172 14.94 155.962 14.94C152.902 14.94 151.372 16.77 150.682 19.44H150.652L150.772 15.18H147.412V30ZM177.212 30.24C181.442 30.24 184.262 27.93 184.262 23.97H181.232C181.202 26.16 179.732 27.48 177.362 27.48C174.872 27.48 173.312 25.62 173.312 22.59C173.312 19.53 174.902 17.7 177.482 17.7C179.732 17.7 181.172 19.05 181.202 21.27H184.232C184.232 17.34 181.532 14.94 177.392 14.94C172.922 14.94 169.952 17.85 169.952 22.59C169.952 27.33 172.862 30.24 177.212 30.24ZM194.373 30.24C199.113 30.24 202.143 27.33 202.143 22.62C202.143 17.88 199.113 14.94 194.373 14.94C189.663 14.94 186.633 17.88 186.633 22.62C186.633 27.33 189.663 30.24 194.373 30.24ZM194.373 27.48C191.643 27.48 189.993 25.62 189.993 22.62C189.993 19.59 191.643 17.7 194.373 17.7C197.103 17.7 198.783 19.59 198.783 22.62C198.783 25.62 197.103 27.48 194.373 27.48ZM204.847 30H208.207V22.77C208.207 19.59 209.737 17.82 212.017 17.82C214.027 17.82 215.137 19.14 215.137 21.24V30H218.497V22.65C218.497 19.56 219.997 17.82 222.337 17.82C224.347 17.82 225.397 19.14 225.397 21.3V30H228.757V20.55C228.757 17.07 226.867 14.94 223.567 14.94C220.747 14.94 218.947 16.44 218.407 18.84H218.377C218.017 16.44 216.157 14.94 213.277 14.94C210.577 14.94 208.777 16.53 208.117 19.08H208.087L208.207 15.18H204.847V30ZM243.78 30.24C247.05 30.24 248.82 28.92 249.3 26.73H249.33C249.33 27.93 249.24 29.28 249.18 30H252.54V20.97C252.54 17.07 249.9 14.94 245.4 14.94C241.17 14.94 238.59 16.71 238.59 19.68C238.59 19.95 238.62 20.34 238.65 20.55H241.74C241.71 20.31 241.71 20.07 241.71 19.98C241.71 18.33 243 17.46 245.28 17.46C247.89 17.46 249.18 18.45 249.18 20.67V21.72H243.69C239.73 21.72 238.14 23.49 238.14 25.74C238.14 28.62 240.39 30.24 243.78 30.24ZM244.47 27.72C242.43 27.72 241.23 26.94 241.23 25.59C241.23 24.42 242.07 23.76 243.99 23.76H249.18V24.03C249.18 26.31 247.38 27.72 244.47 27.72ZM276.382 22.05C276.382 17.43 273.712 14.94 269.512 14.94C264.832 14.94 261.892 17.91 261.892 22.71C261.892 27.36 264.832 30.24 269.512 30.24C273.562 30.24 276.262 28.23 276.382 24.93H273.352C273.202 26.67 271.732 27.63 269.572 27.63C267.052 27.63 265.462 26.1 265.282 23.25H276.382V22.05ZM273.352 21.21H265.372C265.762 18.75 267.232 17.55 269.542 17.55C271.972 17.55 273.352 18.78 273.352 21V21.21ZM291.05 35.94H294.41V15.18H291.08V18H291.05C290.45 16.11 288.68 14.94 285.8 14.94C281.66 14.94 278.69 17.91 278.69 22.47C278.69 27.21 281.39 30.24 285.65 30.24C288.5 30.24 290.48 28.8 291.02 26.58H291.05V35.94ZM286.37 27.48C283.76 27.48 282.02 25.53 282.02 22.47C282.02 19.59 283.82 17.7 286.43 17.7C289.22 17.7 291.05 19.38 291.05 21.99V22.71C291.05 25.62 289.19 27.48 286.37 27.48ZM303.785 30.24C307.085 30.24 309.155 28.68 309.785 25.86H309.815C309.815 27.42 309.755 29.01 309.665 30H313.025V15.18H309.665V21.75C309.665 25.35 307.775 27.36 304.775 27.36C302.345 27.36 300.905 26.04 300.905 23.7V15.18H297.545V24.18C297.545 28.11 299.915 30.24 303.785 30.24ZM316.312 13.44H319.762V10.14H316.312V13.44ZM316.342 30H319.702V15.18H316.342V30ZM323.149 35.94H326.509V30.12C326.509 29.52 326.449 27.99 326.419 27H326.449C327.079 28.92 328.999 30.24 331.939 30.24C336.199 30.24 338.899 27.12 338.899 22.32C338.899 17.85 336.229 14.94 331.999 14.94C329.059 14.94 327.079 16.38 326.479 18.63H326.449L326.509 15.18H323.149V35.94ZM331.279 27.48C328.399 27.48 326.509 25.86 326.509 23.34V22.56C326.569 19.59 328.429 17.7 331.219 17.7C333.889 17.7 335.539 19.56 335.539 22.41C335.539 25.5 333.859 27.48 331.279 27.48ZM355.684 22.05C355.684 17.43 353.014 14.94 348.814 14.94C344.134 14.94 341.194 17.91 341.194 22.71C341.194 27.36 344.134 30.24 348.814 30.24C352.864 30.24 355.564 28.23 355.684 24.93H352.654C352.504 26.67 351.034 27.63 348.874 27.63C346.354 27.63 344.764 26.1 344.584 23.25H355.684V22.05ZM352.654 21.21H344.674C345.064 18.75 346.534 17.55 348.844 17.55C351.274 17.55 352.654 18.78 352.654 21V21.21ZM371.731 30.24C374.761 30.24 376.621 28.74 377.191 26.4H377.251C377.191 27.84 377.161 29.13 377.101 30H380.461V9.21H377.101V17.79H377.071C376.471 16.05 374.731 14.94 371.941 14.94C367.531 14.94 364.741 18.03 364.741 22.5C364.741 27.12 367.441 30.24 371.731 30.24ZM372.421 27.48C369.781 27.48 368.071 25.44 368.071 22.5C368.071 19.68 369.811 17.7 372.481 17.7C375.271 17.7 377.101 19.38 377.101 22.02V22.74C377.101 25.62 375.241 27.48 372.421 27.48ZM391.036 30.24C395.776 30.24 398.806 27.33 398.806 22.62C398.806 17.88 395.776 14.94 391.036 14.94C386.326 14.94 383.296 17.88 383.296 22.62C383.296 27.33 386.326 30.24 391.036 30.24ZM391.036 27.48C388.306 27.48 386.656 25.62 386.656 22.62C386.656 19.59 388.306 17.7 391.036 17.7C393.766 17.7 395.446 19.59 395.446 22.62C395.446 25.62 393.766 27.48 391.036 27.48ZM408.5 30H411.89L411.86 13.26H411.89L422.42 30H426.68V10.26H423.29L423.35 25.26H423.29L413.9 10.26H408.5V30ZM439.486 30.3C443.086 30.3 445.306 28.74 445.906 26.46H445.936C445.906 27.81 445.816 29.22 445.756 30H448.756V20.28H439.156V22.56H445.276V23.01C445.276 25.68 442.936 27.51 439.786 27.51C436.216 27.51 433.306 24.78 433.306 20.37C433.306 15.81 436.126 12.96 439.936 12.96C442.966 12.96 445.366 14.55 445.366 17.34C445.366 17.61 445.366 17.94 445.336 18.3H448.546C448.576 17.94 448.606 17.46 448.606 17.13C448.606 12.63 444.856 9.96 439.876 9.96C434.056 9.96 429.676 14.01 429.676 20.34C429.676 26.52 433.846 30.3 439.486 30.3ZM452.533 30H455.923V26.1H452.533V30ZM469.369 30.3C474.589 30.3 478.309 27.24 478.309 22.77V22.08H475.099V22.56C475.099 25.41 472.789 27.3 469.489 27.3C465.769 27.3 462.889 24.57 462.889 20.16C462.889 15.75 465.649 12.96 469.489 12.96C472.669 12.96 475.039 14.88 475.039 17.91C475.039 18.06 475.039 18.3 475.009 18.57H478.189C478.219 18.21 478.249 17.82 478.249 17.61C478.249 13.05 474.559 9.96 469.369 9.96C463.429 9.96 459.229 13.86 459.229 20.16C459.229 26.43 463.489 30.3 469.369 30.3ZM495.437 30H499.607L491.597 10.26H487.217L479.177 30H482.897L484.577 25.56H493.787L495.437 30ZM485.477 23.16L489.167 13.32H489.227L492.887 23.16H485.477ZM508.87 30.3C515.59 30.3 517.45 27.33 517.45 24.15C517.45 22.32 516.67 20.94 515.32 20.25C514.09 19.59 512.17 19.26 510.1 18.93C508.39 18.69 506.17 18.33 505.3 17.91C504.52 17.55 504.13 16.89 504.13 15.78C504.13 13.98 505.9 12.75 508.87 12.75C511.96 12.75 513.55 14.13 513.55 17.04H516.79C516.79 12.54 514.66 9.96 508.81 9.96C503.65 9.96 500.56 12.48 500.56 16.08C500.56 17.94 501.31 19.29 502.51 20.04C503.59 20.73 505.69 21.18 507.67 21.45C509.38 21.69 511.51 21.96 512.5 22.35C513.43 22.68 513.88 23.31 513.88 24.39C513.88 26.01 512.86 27.51 508.84 27.51C505.06 27.51 503.86 25.77 503.86 23.25H500.62C500.62 26.85 502.33 30.3 508.87 30.3ZM520.479 30H524.079V21.21H534.579V30H538.149V10.26H534.579V18.33H524.079V10.26H520.479V30ZM1.68 74H5.04V66.77C5.04 63.59 6.57 61.82 8.85 61.82C10.86 61.82 11.97 63.14 11.97 65.24V74H15.33V66.65C15.33 63.56 16.83 61.82 19.17 61.82C21.18 61.82 22.23 63.14 22.23 65.3V74H25.59V64.55C25.59 61.07 23.7 58.94 20.4 58.94C17.58 58.94 15.78 60.44 15.24 62.84H15.21C14.85 60.44 12.99 58.94 10.11 58.94C7.41 58.94 5.61 60.53 4.95 63.08H4.92L5.04 59.18H1.68V74ZM42.6839 66.05C42.6839 61.43 40.0139 58.94 35.8139 58.94C31.1339 58.94 28.1939 61.91 28.1939 66.71C28.1939 71.36 31.1339 74.24 35.8139 74.24C39.8639 74.24 42.5639 72.23 42.6839 68.93H39.6539C39.5039 70.67 38.0339 71.63 35.8739 71.63C33.3539 71.63 31.7639 70.1 31.5839 67.25H42.6839V66.05ZM39.6539 65.21H31.6739C32.0639 62.75 33.5339 61.55 35.8439 61.55C38.2739 61.55 39.6539 62.78 39.6539 65V65.21ZM52.1909 74H55.5509V66.77C55.5509 63.59 57.0809 61.82 59.3609 61.82C61.3709 61.82 62.4809 63.14 62.4809 65.24V74H65.8409V66.65C65.8409 63.56 67.3409 61.82 69.6809 61.82C71.6909 61.82 72.7409 63.14 72.7409 65.3V74H76.1009V64.55C76.1009 61.07 74.2109 58.94 70.9109 58.94C68.0909 58.94 66.2909 60.44 65.7509 62.84H65.7209C65.3609 60.44 63.5009 58.94 60.6209 58.94C57.9209 58.94 56.1209 60.53 55.4609 63.08H55.4309L55.5509 59.18H52.1909V74ZM86.4448 74.24C91.1848 74.24 94.2148 71.33 94.2148 66.62C94.2148 61.88 91.1848 58.94 86.4448 58.94C81.7348 58.94 78.7048 61.88 78.7048 66.62C78.7048 71.33 81.7348 74.24 86.4448 74.24ZM86.4448 71.48C83.7148 71.48 82.0648 69.62 82.0648 66.62C82.0648 63.59 83.7148 61.7 86.4448 61.7C89.1748 61.7 90.8548 63.59 90.8548 66.62C90.8548 69.62 89.1748 71.48 86.4448 71.48ZM103.224 74.24C107.964 74.24 110.484 72.47 110.484 69.47C110.484 68.27 109.914 67.13 108.924 66.59C107.874 65.99 106.674 65.78 104.574 65.57C102.774 65.39 101.364 65.24 100.644 65C99.7737 64.7 99.6237 64.1 99.6237 63.47C99.6237 62.21 100.944 61.37 103.284 61.37C105.744 61.37 106.794 62.3 106.824 64.22H109.854C109.854 60.86 107.814 58.94 103.194 58.94C99.1737 58.94 96.2937 60.74 96.2937 63.71C96.2937 64.85 96.7737 65.93 97.5837 66.53C98.4837 67.19 100.044 67.49 102.354 67.7C104.004 67.85 105.414 68 106.134 68.27C106.914 68.54 107.124 69.05 107.124 69.62C107.124 70.97 105.924 71.81 103.194 71.81C100.314 71.81 99.3237 70.76 99.3237 69.05H96.2937C96.2937 71.96 98.1237 74.24 103.224 74.24ZM119.819 74.18C121.049 74.18 122.069 73.97 122.519 73.82V71.15C122.099 71.27 121.139 71.42 120.299 71.42C118.259 71.42 117.539 70.46 117.539 68.54V61.91H122.639V59.18H117.539V55.82H114.749L114.599 58.04C114.509 58.88 114.299 59.18 113.729 59.18H111.839V61.91H114.179V68.72C114.179 71.99 115.769 74.18 119.819 74.18ZM125.154 74H128.514V67.52C128.514 63.98 130.104 61.82 132.654 61.82C134.634 61.82 135.594 62.99 135.594 65.48C135.594 66.17 135.534 66.92 135.474 67.49H138.534C138.594 66.86 138.684 65.66 138.684 64.73C138.684 61.04 136.914 58.94 133.704 58.94C130.644 58.94 129.114 60.77 128.424 63.44H128.394L128.514 59.18H125.154V74ZM148.685 74.24C153.425 74.24 156.455 71.33 156.455 66.62C156.455 61.88 153.425 58.94 148.685 58.94C143.975 58.94 140.945 61.88 140.945 66.62C140.945 71.33 143.975 74.24 148.685 74.24ZM148.685 71.48C145.955 71.48 144.305 69.62 144.305 66.62C144.305 63.59 145.955 61.7 148.685 61.7C151.415 61.7 153.095 63.59 153.095 66.62C153.095 69.62 151.415 71.48 148.685 71.48ZM165.25 74.24C168.55 74.24 170.62 72.68 171.25 69.86H171.28C171.28 71.42 171.22 73.01 171.13 74H174.49V59.18H171.13V65.75C171.13 69.35 169.24 71.36 166.24 71.36C163.81 71.36 162.37 70.04 162.37 67.7V59.18H159.01V68.18C159.01 72.11 161.38 74.24 165.25 74.24ZM190.525 74.24C193.825 74.24 195.895 72.68 196.525 69.86H196.555C196.555 71.42 196.495 73.01 196.405 74H199.765V59.18H196.405V65.75C196.405 69.35 194.515 71.36 191.515 71.36C189.085 71.36 187.645 70.04 187.645 67.7V59.18H184.285V68.18C184.285 72.11 186.655 74.24 190.525 74.24ZM202.962 74H206.322V66.77C206.322 63.59 207.852 61.82 210.132 61.82C212.142 61.82 213.252 63.14 213.252 65.24V74H216.612V66.65C216.612 63.56 218.112 61.82 220.452 61.82C222.462 61.82 223.512 63.14 223.512 65.3V74H226.872V64.55C226.872 61.07 224.982 58.94 221.682 58.94C218.862 58.94 217.062 60.44 216.522 62.84H216.492C216.132 60.44 214.272 58.94 211.392 58.94C208.692 58.94 206.892 60.53 206.232 63.08H206.202L206.322 59.18H202.962V74ZM250.715 66.05C250.715 61.43 248.045 58.94 243.845 58.94C239.165 58.94 236.225 61.91 236.225 66.71C236.225 71.36 239.165 74.24 243.845 74.24C247.895 74.24 250.595 72.23 250.715 68.93H247.685C247.535 70.67 246.065 71.63 243.905 71.63C241.385 71.63 239.795 70.1 239.615 67.25H250.715V66.05ZM247.685 65.21H239.705C240.095 62.75 241.565 61.55 243.875 61.55C246.305 61.55 247.685 62.78 247.685 65V65.21ZM259.953 74.24C264.693 74.24 267.213 72.47 267.213 69.47C267.213 68.27 266.643 67.13 265.653 66.59C264.603 65.99 263.403 65.78 261.303 65.57C259.503 65.39 258.093 65.24 257.373 65C256.503 64.7 256.353 64.1 256.353 63.47C256.353 62.21 257.673 61.37 260.013 61.37C262.473 61.37 263.523 62.3 263.553 64.22H266.583C266.583 60.86 264.543 58.94 259.923 58.94C255.903 58.94 253.023 60.74 253.023 63.71C253.023 64.85 253.503 65.93 254.313 66.53C255.213 67.19 256.773 67.49 259.083 67.7C260.733 67.85 262.143 68 262.863 68.27C263.643 68.54 263.853 69.05 263.853 69.62C263.853 70.97 262.653 71.81 259.923 71.81C257.043 71.81 256.053 70.76 256.053 69.05H253.023C253.023 71.96 254.853 74.24 259.953 74.24ZM270.038 79.94H273.398V74.12C273.398 73.52 273.338 71.99 273.308 71H273.338C273.968 72.92 275.888 74.24 278.828 74.24C283.088 74.24 285.788 71.12 285.788 66.32C285.788 61.85 283.118 58.94 278.888 58.94C275.948 58.94 273.968 60.38 273.368 62.63H273.338L273.398 59.18H270.038V79.94ZM278.168 71.48C275.288 71.48 273.398 69.86 273.398 67.34V66.56C273.458 63.59 275.318 61.7 278.108 61.7C280.778 61.7 282.428 63.56 282.428 66.41C282.428 69.5 280.748 71.48 278.168 71.48ZM292.991 74.24C296.261 74.24 298.031 72.92 298.511 70.73H298.541C298.541 71.93 298.451 73.28 298.391 74H301.751V64.97C301.751 61.07 299.111 58.94 294.611 58.94C290.381 58.94 287.801 60.71 287.801 63.68C287.801 63.95 287.831 64.34 287.861 64.55H290.951C290.921 64.31 290.921 64.07 290.921 63.98C290.921 62.33 292.211 61.46 294.491 61.46C297.101 61.46 298.391 62.45 298.391 64.67V65.72H292.901C288.941 65.72 287.351 67.49 287.351 69.74C287.351 72.62 289.601 74.24 292.991 74.24ZM293.681 71.72C291.641 71.72 290.441 70.94 290.441 69.59C290.441 68.42 291.281 67.76 293.201 67.76H298.391V68.03C298.391 70.31 296.591 71.72 293.681 71.72ZM318.664 67.97H315.634C315.604 70.16 314.134 71.48 311.764 71.48C309.274 71.48 307.714 69.62 307.714 66.59C307.714 63.53 309.304 61.7 311.884 61.7C314.134 61.7 315.574 63.05 315.604 65.27H318.634C318.634 61.34 315.934 58.94 311.794 58.94C307.324 58.94 304.354 61.85 304.354 66.59C304.354 70.91 306.754 73.7 310.474 74.18L309.514 76.73C309.904 76.67 310.864 76.55 311.884 76.55C313.144 76.55 313.534 76.88 313.534 77.51C313.534 78.29 312.994 78.92 311.764 78.92C310.534 78.92 310.084 78.56 309.964 77.81H307.594C307.714 79.37 308.944 80.54 311.764 80.54C314.674 80.54 315.874 79.1 315.874 77.48C315.874 76.13 315.064 75.26 313.414 75.26C312.574 75.26 312.184 75.5 311.944 75.65L311.914 75.62L312.454 74.21C316.204 73.91 318.664 71.66 318.664 67.97ZM328.774 74.24C333.514 74.24 336.544 71.33 336.544 66.62C336.544 61.88 333.514 58.94 328.774 58.94C324.064 58.94 321.034 61.88 321.034 66.62C321.034 71.33 324.064 74.24 328.774 74.24ZM328.774 71.48C326.044 71.48 324.394 69.62 324.394 66.62C324.394 63.59 326.044 61.7 328.774 61.7C331.504 61.7 333.184 63.59 333.184 66.62C333.184 69.62 331.504 71.48 328.774 71.48ZM352.538 74.24C355.568 74.24 357.428 72.74 357.998 70.4H358.058C357.998 71.84 357.968 73.13 357.908 74H361.268V53.21H357.908V61.79H357.878C357.278 60.05 355.538 58.94 352.748 58.94C348.338 58.94 345.548 62.03 345.548 66.5C345.548 71.12 348.248 74.24 352.538 74.24ZM353.228 71.48C350.588 71.48 348.878 69.44 348.878 66.5C348.878 63.68 350.618 61.7 353.288 61.7C356.078 61.7 357.908 63.38 357.908 66.02V66.74C357.908 69.62 356.048 71.48 353.228 71.48ZM378.594 66.05C378.594 61.43 375.924 58.94 371.724 58.94C367.044 58.94 364.104 61.91 364.104 66.71C364.104 71.36 367.044 74.24 371.724 74.24C375.774 74.24 378.474 72.23 378.594 68.93H375.564C375.414 70.67 373.944 71.63 371.784 71.63C369.264 71.63 367.674 70.1 367.494 67.25H378.594V66.05ZM375.564 65.21H367.584C367.974 62.75 369.444 61.55 371.754 61.55C374.184 61.55 375.564 62.78 375.564 65V65.21ZM394.911 74.24C399.141 74.24 401.961 71.93 401.961 67.97H398.931C398.901 70.16 397.431 71.48 395.061 71.48C392.571 71.48 391.011 69.62 391.011 66.59C391.011 63.53 392.601 61.7 395.181 61.7C397.431 61.7 398.871 63.05 398.901 65.27H401.931C401.931 61.34 399.231 58.94 395.091 58.94C390.621 58.94 387.651 61.85 387.651 66.59C387.651 71.33 390.561 74.24 394.911 74.24ZM404.782 74H408.142V67.52C408.142 63.98 409.732 61.82 412.282 61.82C414.262 61.82 415.222 62.99 415.222 65.48C415.222 66.17 415.162 66.92 415.102 67.49H418.162C418.222 66.86 418.312 65.66 418.312 64.73C418.312 61.04 416.542 58.94 413.332 58.94C410.272 58.94 408.742 60.77 408.052 63.44H408.022L408.142 59.18H404.782V74ZM435.063 66.05C435.063 61.43 432.393 58.94 428.193 58.94C423.513 58.94 420.573 61.91 420.573 66.71C420.573 71.36 423.513 74.24 428.193 74.24C432.243 74.24 434.943 72.23 435.063 68.93H432.033C431.883 70.67 430.413 71.63 428.253 71.63C425.733 71.63 424.143 70.1 423.963 67.25H435.063V66.05ZM432.033 65.21H424.053C424.443 62.75 425.913 61.55 428.223 61.55C430.653 61.55 432.033 62.78 432.033 65V65.21ZM444.301 74.24C449.041 74.24 451.561 72.47 451.561 69.47C451.561 68.27 450.991 67.13 450.001 66.59C448.951 65.99 447.751 65.78 445.651 65.57C443.851 65.39 442.441 65.24 441.721 65C440.851 64.7 440.701 64.1 440.701 63.47C440.701 62.21 442.021 61.37 444.361 61.37C446.821 61.37 447.871 62.3 447.901 64.22H450.931C450.931 60.86 448.891 58.94 444.271 58.94C440.251 58.94 437.371 60.74 437.371 63.71C437.371 64.85 437.851 65.93 438.661 66.53C439.561 67.19 441.121 67.49 443.431 67.7C445.081 67.85 446.491 68 447.211 68.27C447.991 68.54 448.201 69.05 448.201 69.62C448.201 70.97 447.001 71.81 444.271 71.81C441.391 71.81 440.401 70.76 440.401 69.05H437.371C437.371 71.96 439.201 74.24 444.301 74.24ZM461.106 74.24C465.336 74.24 468.156 71.93 468.156 67.97H465.126C465.096 70.16 463.626 71.48 461.256 71.48C458.766 71.48 457.206 69.62 457.206 66.59C457.206 63.53 458.796 61.7 461.376 61.7C463.626 61.7 465.066 63.05 465.096 65.27H468.126C468.126 61.34 465.426 58.94 461.286 58.94C456.816 58.94 453.846 61.85 453.846 66.59C453.846 71.33 456.756 74.24 461.106 74.24ZM471.067 57.44H474.517V54.14H471.067V57.44ZM471.097 74H474.457V59.18H471.097V74ZM477.814 74H481.174V66.77C481.174 63.59 482.704 61.82 484.984 61.82C486.994 61.82 488.104 63.14 488.104 65.24V74H491.464V66.65C491.464 63.56 492.964 61.82 495.304 61.82C497.314 61.82 498.364 63.14 498.364 65.3V74H501.724V64.55C501.724 61.07 499.834 58.94 496.534 58.94C493.714 58.94 491.914 60.44 491.374 62.84H491.344C490.984 60.44 489.124 58.94 486.244 58.94C483.544 58.94 481.744 60.53 481.084 63.08H481.054L481.174 59.18H477.814V74ZM518.818 66.05C518.818 61.43 516.148 58.94 511.948 58.94C507.268 58.94 504.328 61.91 504.328 66.71C504.328 71.36 507.268 74.24 511.948 74.24C515.998 74.24 518.698 72.23 518.818 68.93H515.788C515.638 70.67 514.168 71.63 512.008 71.63C509.488 71.63 507.898 70.1 507.718 67.25H518.818V66.05ZM515.788 65.21H507.808C508.198 62.75 509.668 61.55 511.978 61.55C514.408 61.55 515.788 62.78 515.788 65V65.21ZM521.576 74H524.936V66.83C524.936 63.59 526.796 61.82 529.736 61.82C532.406 61.82 533.726 63.14 533.726 65.48V74H537.086V64.73C537.086 61.07 534.776 58.94 531.026 58.94C527.576 58.94 525.656 60.47 524.846 63.14H524.816L524.936 59.18H521.576V74ZM546.731 74.18C547.961 74.18 548.981 73.97 549.431 73.82V71.15C549.011 71.27 548.051 71.42 547.211 71.42C545.171 71.42 544.451 70.46 544.451 68.54V61.91H549.551V59.18H544.451V55.82H541.661L541.511 58.04C541.421 58.88 541.211 59.18 540.641 59.18H538.751V61.91H541.091V68.72C541.091 71.99 542.681 74.18 546.731 74.18ZM558.77 74.24C563.51 74.24 566.54 71.33 566.54 66.62C566.54 61.88 563.51 58.94 558.77 58.94C554.06 58.94 551.03 61.88 551.03 66.62C551.03 71.33 554.06 74.24 558.77 74.24ZM558.77 71.48C556.04 71.48 554.39 69.62 554.39 66.62C554.39 63.59 556.04 61.7 558.77 61.7C561.5 61.7 563.18 63.59 563.18 66.62C563.18 69.62 561.5 71.48 558.77 71.48ZM15.72 110.05C15.72 105.43 13.05 102.94 8.85 102.94C4.17 102.94 1.23 105.91 1.23 110.71C1.23 115.36 4.17 118.24 8.85 118.24C12.9 118.24 15.6 116.23 15.72 112.93H12.69C12.54 114.67 11.07 115.63 8.91 115.63C6.39 115.63 4.8 114.1 4.62 111.25H15.72V110.05ZM12.69 109.21H4.71C5.1 106.75 6.57 105.55 8.88 105.55C11.31 105.55 12.69 106.78 12.69 109V109.21ZM31.827 118.18C33.057 118.18 34.077 117.97 34.527 117.82V115.15C34.107 115.27 33.147 115.42 32.307 115.42C30.267 115.42 29.547 114.46 29.547 112.54V105.91H34.647V103.18H29.547V99.82H26.757L26.607 102.04C26.517 102.88 26.307 103.18 25.737 103.18H23.847V105.91H26.187V112.72C26.187 115.99 27.777 118.18 31.827 118.18ZM37.1616 118H40.5216V111.52C40.5216 107.98 42.1116 105.82 44.6616 105.82C46.6416 105.82 47.6016 106.99 47.6016 109.48C47.6016 110.17 47.5416 110.92 47.4816 111.49H50.5416C50.6016 110.86 50.6916 109.66 50.6916 108.73C50.6916 105.04 48.9216 102.94 45.7116 102.94C42.6516 102.94 41.1216 104.77 40.4316 107.44H40.4016L40.5216 103.18H37.1616V118ZM60.6928 118.24C65.4328 118.24 68.4628 115.33 68.4628 110.62C68.4628 105.88 65.4328 102.94 60.6928 102.94C55.9828 102.94 52.9528 105.88 52.9528 110.62C52.9528 115.33 55.9828 118.24 60.6928 118.24ZM60.6928 115.48C57.9628 115.48 56.3128 113.62 56.3128 110.62C56.3128 107.59 57.9628 105.7 60.6928 105.7C63.4228 105.7 65.1028 107.59 65.1028 110.62C65.1028 113.62 63.4228 115.48 60.6928 115.48ZM77.9775 118.24C82.2075 118.24 85.0275 115.93 85.0275 111.97H81.9975C81.9675 114.16 80.4975 115.48 78.1275 115.48C75.6375 115.48 74.0775 113.62 74.0775 110.59C74.0775 107.53 75.6675 105.7 78.2475 105.7C80.4975 105.7 81.9375 107.05 81.9675 109.27H84.9975C84.9975 105.34 82.2975 102.94 78.1575 102.94C73.6875 102.94 70.7175 105.85 70.7175 110.59C70.7175 115.33 73.6275 118.24 77.9775 118.24ZM92.3065 118.24C95.5765 118.24 97.3465 116.92 97.8265 114.73H97.8565C97.8565 115.93 97.7665 117.28 97.7065 118H101.066V108.97C101.066 105.07 98.4265 102.94 93.9265 102.94C89.6965 102.94 87.1165 104.71 87.1165 107.68C87.1165 107.95 87.1465 108.34 87.1765 108.55H90.2665C90.2365 108.31 90.2365 108.07 90.2365 107.98C90.2365 106.33 91.5265 105.46 93.8065 105.46C96.4165 105.46 97.7065 106.45 97.7065 108.67V109.72H92.2165C88.2565 109.72 86.6665 111.49 86.6665 113.74C86.6665 116.62 88.9165 118.24 92.3065 118.24ZM92.9965 115.72C90.9565 115.72 89.7565 114.94 89.7565 113.59C89.7565 112.42 90.5965 111.76 92.5165 111.76H97.7065V112.03C97.7065 114.31 95.9065 115.72 92.9965 115.72ZM110.868 118H114.228V110.77C114.228 107.59 115.758 105.82 118.038 105.82C120.048 105.82 121.158 107.14 121.158 109.24V118H124.518V110.65C124.518 107.56 126.018 105.82 128.358 105.82C130.368 105.82 131.418 107.14 131.418 109.3V118H134.778V108.55C134.778 105.07 132.888 102.94 129.588 102.94C126.768 102.94 124.968 104.44 124.428 106.84H124.398C124.038 104.44 122.178 102.94 119.298 102.94C116.598 102.94 114.798 104.53 114.138 107.08H114.108L114.228 103.18H110.868V118ZM143.862 101.65H146.502L149.712 97.45H146.202L143.862 101.65ZM143.922 118.24C147.222 118.24 149.292 116.68 149.922 113.86H149.952C149.952 115.42 149.892 117.01 149.802 118H153.162V103.18H149.802V109.75C149.802 113.35 147.912 115.36 144.912 115.36C142.482 115.36 141.042 114.04 141.042 111.7V103.18H137.682V112.18C137.682 116.11 140.052 118.24 143.922 118.24ZM162.958 118.18C164.188 118.18 165.208 117.97 165.658 117.82V115.15C165.238 115.27 164.278 115.42 163.438 115.42C161.398 115.42 160.678 114.46 160.678 112.54V105.91H165.778V103.18H160.678V99.82H157.888L157.738 102.04C157.648 102.88 157.438 103.18 156.868 103.18H154.978V105.91H157.318V112.72C157.318 115.99 158.908 118.18 162.958 118.18ZM174.383 118.24C177.683 118.24 179.753 116.68 180.383 113.86H180.413C180.413 115.42 180.353 117.01 180.263 118H183.623V103.18H180.263V109.75C180.263 113.35 178.373 115.36 175.373 115.36C172.943 115.36 171.503 114.04 171.503 111.7V103.18H168.143V112.18C168.143 116.11 170.513 118.24 174.383 118.24ZM194.109 118.24C198.849 118.24 201.879 115.33 201.879 110.62C201.879 105.88 198.849 102.94 194.109 102.94C189.399 102.94 186.369 105.88 186.369 110.62C186.369 115.33 189.399 118.24 194.109 118.24ZM194.109 115.48C191.379 115.48 189.729 113.62 189.729 110.62C189.729 107.59 191.379 105.7 194.109 105.7C196.839 105.7 198.519 107.59 198.519 110.62C198.519 113.62 196.839 115.48 194.109 115.48ZM210.888 118.24C215.628 118.24 218.148 116.47 218.148 113.47C218.148 112.27 217.578 111.13 216.588 110.59C215.538 109.99 214.338 109.78 212.238 109.57C210.438 109.39 209.028 109.24 208.308 109C207.438 108.7 207.288 108.1 207.288 107.47C207.288 106.21 208.608 105.37 210.948 105.37C213.408 105.37 214.458 106.3 214.488 108.22H217.518C217.518 104.86 215.478 102.94 210.858 102.94C206.838 102.94 203.958 104.74 203.958 107.71C203.958 108.85 204.438 109.93 205.248 110.53C206.148 111.19 207.708 111.49 210.018 111.7C211.668 111.85 213.078 112 213.798 112.27C214.578 112.54 214.788 113.05 214.788 113.62C214.788 114.97 213.588 115.81 210.858 115.81C207.978 115.81 206.988 114.76 206.988 113.05H203.958C203.958 115.96 205.788 118.24 210.888 118.24ZM227.633 118H230.993V110.83C230.993 107.59 232.853 105.82 235.793 105.82C238.463 105.82 239.783 107.14 239.783 109.48V118H243.143V108.73C243.143 105.07 240.833 102.94 237.083 102.94C233.633 102.94 231.713 104.47 230.903 107.14H230.873L230.993 103.18H227.633V118ZM253.478 118.24C258.218 118.24 261.248 115.33 261.248 110.62C261.248 105.88 258.218 102.94 253.478 102.94C248.768 102.94 245.738 105.88 245.738 110.62C245.738 115.33 248.768 118.24 253.478 118.24ZM253.478 115.48C250.748 115.48 249.098 113.62 249.098 110.62C249.098 107.59 250.748 105.7 253.478 105.7C256.208 105.7 257.888 107.59 257.888 110.62C257.888 113.62 256.208 115.48 253.478 115.48ZM270.257 118.24C274.997 118.24 277.517 116.47 277.517 113.47C277.517 112.27 276.947 111.13 275.957 110.59C274.907 109.99 273.707 109.78 271.607 109.57C269.807 109.39 268.397 109.24 267.677 109C266.807 108.7 266.657 108.1 266.657 107.47C266.657 106.21 267.977 105.37 270.317 105.37C272.777 105.37 273.827 106.3 273.857 108.22H276.887C276.887 104.86 274.847 102.94 270.227 102.94C266.207 102.94 263.327 104.74 263.327 107.71C263.327 108.85 263.807 109.93 264.617 110.53C265.517 111.19 267.077 111.49 269.387 111.7C271.037 111.85 272.447 112 273.167 112.27C273.947 112.54 274.157 113.05 274.157 113.62C274.157 114.97 272.957 115.81 270.227 115.81C267.347 115.81 266.357 114.76 266.357 113.05H263.327C263.327 115.96 265.157 118.24 270.257 118.24ZM287.002 118H290.362V110.77C290.362 107.59 291.892 105.82 294.172 105.82C296.182 105.82 297.292 107.14 297.292 109.24V118H300.652V110.65C300.652 107.56 302.152 105.82 304.492 105.82C306.502 105.82 307.552 107.14 307.552 109.3V118H310.912V108.55C310.912 105.07 309.022 102.94 305.722 102.94C302.902 102.94 301.102 104.44 300.562 106.84H300.532C300.172 104.44 298.312 102.94 295.432 102.94C292.732 102.94 290.932 104.53 290.272 107.08H290.242L290.362 103.18H287.002V118ZM319.186 118.24C322.456 118.24 324.226 116.92 324.706 114.73H324.736C324.736 115.93 324.646 117.28 324.586 118H327.946V108.97C327.946 105.07 325.306 102.94 320.806 102.94C316.576 102.94 313.996 104.71 313.996 107.68C313.996 107.95 314.026 108.34 314.056 108.55H317.146C317.116 108.31 317.116 108.07 317.116 107.98C317.116 106.33 318.406 105.46 320.686 105.46C323.296 105.46 324.586 106.45 324.586 108.67V109.72H319.096C315.136 109.72 313.546 111.49 313.546 113.74C313.546 116.62 315.796 118.24 319.186 118.24ZM319.876 115.72C317.836 115.72 316.636 114.94 316.636 113.59C316.636 112.42 317.476 111.76 319.396 111.76H324.586V112.03C324.586 114.31 322.786 115.72 319.876 115.72ZM331.088 101.44H334.538V98.14H331.088V101.44ZM331.118 118H334.478V103.18H331.118V118ZM344.315 118.24C349.055 118.24 351.575 116.47 351.575 113.47C351.575 112.27 351.005 111.13 350.015 110.59C348.965 109.99 347.765 109.78 345.665 109.57C343.865 109.39 342.455 109.24 341.735 109C340.865 108.7 340.715 108.1 340.715 107.47C340.715 106.21 342.035 105.37 344.375 105.37C346.835 105.37 347.885 106.3 347.915 108.22H350.945C350.945 104.86 348.905 102.94 344.285 102.94C340.265 102.94 337.385 104.74 337.385 107.71C337.385 108.85 337.865 109.93 338.675 110.53C339.575 111.19 341.135 111.49 343.445 111.7C345.095 111.85 346.505 112 347.225 112.27C348.005 112.54 348.215 113.05 348.215 113.62C348.215 114.97 347.015 115.81 344.285 115.81C341.405 115.81 340.415 114.76 340.415 113.05H337.385C337.385 115.96 339.215 118.24 344.315 118.24ZM367.6 118.24C370.63 118.24 372.49 116.74 373.06 114.4H373.12C373.06 115.84 373.03 117.13 372.97 118H376.33V97.21H372.97V105.79H372.94C372.34 104.05 370.6 102.94 367.81 102.94C363.4 102.94 360.61 106.03 360.61 110.5C360.61 115.12 363.31 118.24 367.6 118.24ZM368.29 115.48C365.65 115.48 363.94 113.44 363.94 110.5C363.94 107.68 365.68 105.7 368.35 105.7C371.14 105.7 372.97 107.38 372.97 110.02V110.74C372.97 113.62 371.11 115.48 368.29 115.48ZM379.706 101.44H383.156V98.14H379.706V101.44ZM379.736 118H383.096V103.18H379.736V118ZM387.442 118H390.802V105.91H395.962V103.18H390.802V101.86C390.802 100.24 391.732 99.34 393.442 99.34C394.462 99.34 395.242 99.55 395.722 99.7V97.03C395.242 96.85 394.162 96.61 392.842 96.61C389.632 96.61 387.442 98.41 387.442 101.71V103.18H385.072V105.91H387.442V118ZM411.138 110.05C411.138 105.43 408.468 102.94 404.268 102.94C399.588 102.94 396.648 105.91 396.648 110.71C396.648 115.36 399.588 118.24 404.268 118.24C408.318 118.24 411.018 116.23 411.138 112.93H408.108C407.958 114.67 406.488 115.63 404.328 115.63C401.808 115.63 400.218 114.1 400.038 111.25H411.138V110.05ZM408.108 109.21H400.128C400.518 106.75 401.988 105.55 404.298 105.55C406.728 105.55 408.108 106.78 408.108 109V109.21ZM413.896 118H417.256V111.52C417.256 107.98 418.846 105.82 421.396 105.82C423.376 105.82 424.336 106.99 424.336 109.48C424.336 110.17 424.276 110.92 424.216 111.49H427.276C427.336 110.86 427.426 109.66 427.426 108.73C427.426 105.04 425.656 102.94 422.446 102.94C419.386 102.94 417.856 104.77 417.166 107.44H417.136L417.256 103.18H413.896V118ZM444.177 110.05C444.177 105.43 441.507 102.94 437.307 102.94C432.627 102.94 429.687 105.91 429.687 110.71C429.687 115.36 432.627 118.24 437.307 118.24C441.357 118.24 444.057 116.23 444.177 112.93H441.147C440.997 114.67 439.527 115.63 437.367 115.63C434.847 115.63 433.257 114.1 433.077 111.25H444.177V110.05ZM441.147 109.21H433.167C433.557 106.75 435.027 105.55 437.337 105.55C439.767 105.55 441.147 106.78 441.147 109V109.21ZM446.935 118H450.295V110.83C450.295 107.59 452.155 105.82 455.095 105.82C457.765 105.82 459.085 107.14 459.085 109.48V118H462.445V108.73C462.445 105.07 460.135 102.94 456.385 102.94C452.935 102.94 451.015 104.47 450.205 107.14H450.175L450.295 103.18H446.935V118ZM472.091 118.18C473.321 118.18 474.341 117.97 474.791 117.82V115.15C474.371 115.27 473.411 115.42 472.571 115.42C470.531 115.42 469.811 114.46 469.811 112.54V105.91H474.911V103.18H469.811V99.82H467.021L466.871 102.04C466.781 102.88 466.571 103.18 466.001 103.18H464.111V105.91H466.451V112.72C466.451 115.99 468.041 118.18 472.091 118.18ZM490.879 110.05C490.879 105.43 488.209 102.94 484.009 102.94C479.329 102.94 476.389 105.91 476.389 110.71C476.389 115.36 479.329 118.24 484.009 118.24C488.059 118.24 490.759 116.23 490.879 112.93H487.849C487.699 114.67 486.229 115.63 484.069 115.63C481.549 115.63 479.959 114.1 479.779 111.25H490.879V110.05ZM487.849 109.21H479.869C480.259 106.75 481.729 105.55 484.039 105.55C486.469 105.55 487.849 106.78 487.849 109V109.21ZM500.117 118.24C504.857 118.24 507.377 116.47 507.377 113.47C507.377 112.27 506.807 111.13 505.817 110.59C504.767 109.99 503.567 109.78 501.467 109.57C499.667 109.39 498.257 109.24 497.537 109C496.667 108.7 496.517 108.1 496.517 107.47C496.517 106.21 497.837 105.37 500.177 105.37C502.637 105.37 503.687 106.3 503.717 108.22H506.747C506.747 104.86 504.707 102.94 500.087 102.94C496.067 102.94 493.187 104.74 493.187 107.71C493.187 108.85 493.667 109.93 494.477 110.53C495.377 111.19 496.937 111.49 499.247 111.7C500.897 111.85 502.307 112 503.027 112.27C503.807 112.54 504.017 113.05 504.017 113.62C504.017 114.97 502.817 115.81 500.087 115.81C497.207 115.81 496.217 114.76 496.217 113.05H493.187C493.187 115.96 495.017 118.24 500.117 118.24ZM8.49 162.24C12.72 162.24 15.54 159.93 15.54 155.97H12.51C12.48 158.16 11.01 159.48 8.64 159.48C6.15 159.48 4.59 157.62 4.59 154.59C4.59 151.53 6.18 149.7 8.76 149.7C11.01 149.7 12.45 151.05 12.48 153.27H15.51C15.51 149.34 12.81 146.94 8.67 146.94C4.2 146.94 1.23 149.85 1.23 154.59C1.23 159.33 4.14 162.24 8.49 162.24ZM25.6507 162.24C30.3907 162.24 33.4207 159.33 33.4207 154.62C33.4207 149.88 30.3907 146.94 25.6507 146.94C20.9407 146.94 17.9107 149.88 17.9107 154.62C17.9107 159.33 20.9407 162.24 25.6507 162.24ZM25.6507 159.48C22.9207 159.48 21.2707 157.62 21.2707 154.62C21.2707 151.59 22.9207 149.7 25.6507 149.7C28.3807 149.7 30.0607 151.59 30.0607 154.62C30.0607 157.62 28.3807 159.48 25.6507 159.48ZM36.1254 162H39.4854V154.83C39.4854 151.59 41.3454 149.82 44.2854 149.82C46.9554 149.82 48.2754 151.14 48.2754 153.48V162H51.6354V152.73C51.6354 149.07 49.3254 146.94 45.5754 146.94C42.1254 146.94 40.2054 148.47 39.3954 151.14H39.3654L39.4854 147.18H36.1254V162ZM61.2811 162.18C62.5111 162.18 63.5311 161.97 63.9811 161.82V159.15C63.5611 159.27 62.6011 159.42 61.7611 159.42C59.7211 159.42 59.0011 158.46 59.0011 156.54V149.91H64.1011V147.18H59.0011V143.82H56.2111L56.0611 146.04C55.9711 146.88 55.7611 147.18 55.1911 147.18H53.3011V149.91H55.6411V156.72C55.6411 159.99 57.2311 162.18 61.2811 162.18ZM80.0698 154.05C80.0698 149.43 77.3998 146.94 73.1998 146.94C68.5198 146.94 65.5798 149.91 65.5798 154.71C65.5798 159.36 68.5198 162.24 73.1998 162.24C77.2498 162.24 79.9498 160.23 80.0698 156.93H77.0398C76.8898 158.67 75.4198 159.63 73.2598 159.63C70.7398 159.63 69.1498 158.1 68.9698 155.25H80.0698V154.05ZM77.0398 153.21H69.0598C69.4498 150.75 70.9198 149.55 73.2298 149.55C75.6598 149.55 77.0398 150.78 77.0398 153V153.21ZM80.6644 162H84.6544L88.3444 156.45L92.1844 162H96.4444L90.7444 154.41L96.1744 147.18H92.3644L88.8244 152.52L85.1644 147.18H80.9044L86.2744 154.41L80.6644 162ZM105.2 162.18C106.43 162.18 107.45 161.97 107.9 161.82V159.15C107.48 159.27 106.52 159.42 105.68 159.42C103.64 159.42 102.92 158.46 102.92 156.54V149.91H108.02V147.18H102.92V143.82H100.13L99.9802 146.04C99.8902 146.88 99.6802 147.18 99.1102 147.18H97.2202V149.91H99.5602V156.72C99.5602 159.99 101.15 162.18 105.2 162.18ZM117.239 162.24C121.979 162.24 125.009 159.33 125.009 154.62C125.009 149.88 121.979 146.94 117.239 146.94C112.529 146.94 109.499 149.88 109.499 154.62C109.499 159.33 112.529 162.24 117.239 162.24ZM117.239 159.48C114.509 159.48 112.859 157.62 112.859 154.62C112.859 151.59 114.509 149.7 117.239 149.7C119.969 149.7 121.649 151.59 121.649 154.62C121.649 157.62 119.969 159.48 117.239 159.48ZM134.018 162.24C138.758 162.24 141.278 160.47 141.278 157.47C141.278 156.27 140.708 155.13 139.718 154.59C138.668 153.99 137.468 153.78 135.368 153.57C133.568 153.39 132.158 153.24 131.438 153C130.568 152.7 130.418 152.1 130.418 151.47C130.418 150.21 131.738 149.37 134.078 149.37C136.538 149.37 137.588 150.3 137.618 152.22H140.648C140.648 148.86 138.608 146.94 133.988 146.94C129.968 146.94 127.088 148.74 127.088 151.71C127.088 152.85 127.568 153.93 128.378 154.53C129.278 155.19 130.838 155.49 133.148 155.7C134.798 155.85 136.208 156 136.928 156.27C137.708 156.54 137.918 157.05 137.918 157.62C137.918 158.97 136.718 159.81 133.988 159.81C131.108 159.81 130.118 158.76 130.118 157.05H127.088C127.088 159.96 128.918 162.24 134.018 162.24ZM144.583 151.92H147.973V148.02H144.583V151.92ZM144.583 162H147.973V158.1H144.583V162ZM165.018 162.24C168.048 162.24 169.908 160.74 170.478 158.4H170.538C170.478 159.84 170.448 161.13 170.388 162H173.748V141.21H170.388V149.79H170.358C169.758 148.05 168.018 146.94 165.228 146.94C160.818 146.94 158.028 150.03 158.028 154.5C158.028 159.12 160.728 162.24 165.018 162.24ZM165.708 159.48C163.068 159.48 161.358 157.44 161.358 154.5C161.358 151.68 163.098 149.7 165.768 149.7C168.558 149.7 170.388 151.38 170.388 154.02V154.74C170.388 157.62 168.528 159.48 165.708 159.48ZM191.074 154.05C191.074 149.43 188.404 146.94 184.204 146.94C179.524 146.94 176.584 149.91 176.584 154.71C176.584 159.36 179.524 162.24 184.204 162.24C188.254 162.24 190.954 160.23 191.074 156.93H188.044C187.894 158.67 186.424 159.63 184.264 159.63C181.744 159.63 180.154 158.1 179.974 155.25H191.074V154.05ZM188.044 153.21H180.064C180.454 150.75 181.924 149.55 184.234 149.55C186.664 149.55 188.044 150.78 188.044 153V153.21ZM200.312 162.24C205.052 162.24 207.572 160.47 207.572 157.47C207.572 156.27 207.002 155.13 206.012 154.59C204.962 153.99 203.762 153.78 201.662 153.57C199.862 153.39 198.452 153.24 197.732 153C196.862 152.7 196.712 152.1 196.712 151.47C196.712 150.21 198.032 149.37 200.372 149.37C202.832 149.37 203.882 150.3 203.912 152.22H206.942C206.942 148.86 204.902 146.94 200.282 146.94C196.262 146.94 193.382 148.74 193.382 151.71C193.382 152.85 193.862 153.93 194.672 154.53C195.572 155.19 197.132 155.49 199.442 155.7C201.092 155.85 202.502 156 203.222 156.27C204.002 156.54 204.212 157.05 204.212 157.62C204.212 158.97 203.012 159.81 200.282 159.81C197.402 159.81 196.412 158.76 196.412 157.05H193.382C193.382 159.96 195.212 162.24 200.312 162.24ZM216.848 162.24C219.878 162.24 221.738 160.74 222.308 158.4H222.368C222.308 159.84 222.278 161.13 222.218 162H225.578V141.21H222.218V149.79H222.188C221.588 148.05 219.848 146.94 217.058 146.94C212.648 146.94 209.858 150.03 209.858 154.5C209.858 159.12 212.558 162.24 216.848 162.24ZM217.538 159.48C214.898 159.48 213.188 157.44 213.188 154.5C213.188 151.68 214.928 149.7 217.598 149.7C220.388 149.7 222.218 151.38 222.218 154.02V154.74C222.218 157.62 220.358 159.48 217.538 159.48ZM242.903 154.05C242.903 149.43 240.233 146.94 236.033 146.94C231.353 146.94 228.413 149.91 228.413 154.71C228.413 159.36 231.353 162.24 236.033 162.24C240.083 162.24 242.783 160.23 242.903 156.93H239.873C239.723 158.67 238.253 159.63 236.093 159.63C233.573 159.63 231.983 158.1 231.803 155.25H242.903V154.05ZM239.873 153.21H231.893C232.283 150.75 233.753 149.55 236.063 149.55C238.493 149.55 239.873 150.78 239.873 153V153.21ZM252.5 167.94H255.86V162.12C255.86 161.52 255.8 159.99 255.77 159H255.8C256.43 160.92 258.35 162.24 261.29 162.24C265.55 162.24 268.25 159.12 268.25 154.32C268.25 149.85 265.58 146.94 261.35 146.94C258.41 146.94 256.43 148.38 255.83 150.63H255.8L255.86 147.18H252.5V167.94ZM260.63 159.48C257.75 159.48 255.86 157.86 255.86 155.34V154.56C255.92 151.59 257.78 149.7 260.57 149.7C263.24 149.7 264.89 151.56 264.89 154.41C264.89 157.5 263.21 159.48 260.63 159.48ZM285.035 154.05C285.035 149.43 282.365 146.94 278.165 146.94C273.485 146.94 270.545 149.91 270.545 154.71C270.545 159.36 273.485 162.24 278.165 162.24C282.215 162.24 284.915 160.23 285.035 156.93H282.005C281.855 158.67 280.385 159.63 278.225 159.63C275.705 159.63 274.115 158.1 273.935 155.25H285.035V154.05ZM282.005 153.21H274.025C274.415 150.75 275.885 149.55 278.195 149.55C280.625 149.55 282.005 150.78 282.005 153V153.21ZM301.653 155.97H298.623C298.593 158.16 297.123 159.48 294.753 159.48C292.263 159.48 290.703 157.62 290.703 154.59C290.703 151.53 292.293 149.7 294.873 149.7C297.123 149.7 298.563 151.05 298.593 153.27H301.623C301.623 149.34 298.923 146.94 294.783 146.94C290.313 146.94 287.343 149.85 287.343 154.59C287.343 158.91 289.743 161.7 293.463 162.18L292.503 164.73C292.893 164.67 293.853 164.55 294.873 164.55C296.133 164.55 296.523 164.88 296.523 165.51C296.523 166.29 295.983 166.92 294.753 166.92C293.523 166.92 293.073 166.56 292.953 165.81H290.583C290.703 167.37 291.933 168.54 294.753 168.54C297.663 168.54 298.863 167.1 298.863 165.48C298.863 164.13 298.053 163.26 296.403 163.26C295.563 163.26 295.173 163.5 294.933 163.65L294.903 163.62L295.443 162.21C299.193 161.91 301.653 159.66 301.653 155.97ZM308.932 162.24C312.202 162.24 313.972 160.92 314.452 158.73H314.482C314.482 159.93 314.392 161.28 314.332 162H317.692V152.97C317.692 149.07 315.052 146.94 310.552 146.94C306.322 146.94 303.742 148.71 303.742 151.68C303.742 151.95 303.772 152.34 303.802 152.55H306.892C306.862 152.31 306.862 152.07 306.862 151.98C306.862 150.33 308.152 149.46 310.432 149.46C313.042 149.46 314.332 150.45 314.332 152.67V153.72H308.842C304.882 153.72 303.292 155.49 303.292 157.74C303.292 160.62 305.542 162.24 308.932 162.24ZM309.622 159.72C307.582 159.72 306.382 158.94 306.382 157.59C306.382 156.42 307.222 155.76 309.142 155.76H314.332V156.03C314.332 158.31 312.532 159.72 309.622 159.72ZM327.224 162.24C331.964 162.24 334.484 160.47 334.484 157.47C334.484 156.27 333.914 155.13 332.924 154.59C331.874 153.99 330.674 153.78 328.574 153.57C326.774 153.39 325.364 153.24 324.644 153C323.774 152.7 323.624 152.1 323.624 151.47C323.624 150.21 324.944 149.37 327.284 149.37C329.744 149.37 330.794 150.3 330.824 152.22H333.854C333.854 148.86 331.814 146.94 327.194 146.94C323.174 146.94 320.294 148.74 320.294 151.71C320.294 152.85 320.774 153.93 321.584 154.53C322.484 155.19 324.044 155.49 326.354 155.7C328.004 155.85 329.414 156 330.134 156.27C330.914 156.54 331.124 157.05 331.124 157.62C331.124 158.97 329.924 159.81 327.194 159.81C324.314 159.81 323.324 158.76 323.324 157.05H320.294C320.294 159.96 322.124 162.24 327.224 162.24ZM350.509 162.24C353.539 162.24 355.399 160.74 355.969 158.4H356.029C355.969 159.84 355.939 161.13 355.879 162H359.239V141.21H355.879V149.79H355.849C355.249 148.05 353.509 146.94 350.719 146.94C346.309 146.94 343.519 150.03 343.519 154.5C343.519 159.12 346.219 162.24 350.509 162.24ZM351.199 159.48C348.559 159.48 346.849 157.44 346.849 154.5C346.849 151.68 348.589 149.7 351.259 149.7C354.049 149.7 355.879 151.38 355.879 154.02V154.74C355.879 157.62 354.019 159.48 351.199 159.48ZM376.565 154.05C376.565 149.43 373.895 146.94 369.695 146.94C365.015 146.94 362.075 149.91 362.075 154.71C362.075 159.36 365.015 162.24 369.695 162.24C373.745 162.24 376.445 160.23 376.565 156.93H373.535C373.385 158.67 371.915 159.63 369.755 159.63C367.235 159.63 365.645 158.1 365.465 155.25H376.565V154.05ZM373.535 153.21H365.555C365.945 150.75 367.415 149.55 369.725 149.55C372.155 149.55 373.535 150.78 373.535 153V153.21ZM392.612 162.24C395.642 162.24 397.502 160.74 398.072 158.4H398.132C398.072 159.84 398.042 161.13 397.982 162H401.342V141.21H397.982V149.79H397.952C397.352 148.05 395.612 146.94 392.822 146.94C388.412 146.94 385.622 150.03 385.622 154.5C385.622 159.12 388.322 162.24 392.612 162.24ZM393.302 159.48C390.662 159.48 388.952 157.44 388.952 154.5C388.952 151.68 390.692 149.7 393.362 149.7C396.152 149.7 397.982 151.38 397.982 154.02V154.74C397.982 157.62 396.122 159.48 393.302 159.48ZM418.667 154.05C418.667 149.43 415.997 146.94 411.797 146.94C407.117 146.94 404.177 149.91 404.177 154.71C404.177 159.36 407.117 162.24 411.797 162.24C415.847 162.24 418.547 160.23 418.667 156.93H415.637C415.487 158.67 414.017 159.63 411.857 159.63C409.337 159.63 407.747 158.1 407.567 155.25H418.667V154.05ZM415.637 153.21H407.657C408.047 150.75 409.517 149.55 411.827 149.55C414.257 149.55 415.637 150.78 415.637 153V153.21ZM427.905 162.24C432.645 162.24 435.165 160.47 435.165 157.47C435.165 156.27 434.595 155.13 433.605 154.59C432.555 153.99 431.355 153.78 429.255 153.57C427.455 153.39 426.045 153.24 425.325 153C424.455 152.7 424.305 152.1 424.305 151.47C424.305 150.21 425.625 149.37 427.965 149.37C430.425 149.37 431.475 150.3 431.505 152.22H434.535C434.535 148.86 432.495 146.94 427.875 146.94C423.855 146.94 420.975 148.74 420.975 151.71C420.975 152.85 421.455 153.93 422.265 154.53C423.165 155.19 424.725 155.49 427.035 155.7C428.685 155.85 430.095 156 430.815 156.27C431.595 156.54 431.805 157.05 431.805 157.62C431.805 158.97 430.605 159.81 427.875 159.81C424.995 159.81 424.005 158.76 424.005 157.05H420.975C420.975 159.96 422.805 162.24 427.905 162.24ZM437.991 145.44H441.441V142.14H437.991V145.44ZM438.021 162H441.381V147.18H438.021V162ZM455.028 159.66H450.228C449.148 159.66 448.548 159.15 448.548 158.31C448.548 157.8 448.728 157.38 448.908 157.17C449.688 157.38 450.558 157.5 451.518 157.5C455.598 157.5 458.118 155.49 458.118 152.22C458.118 151.11 457.818 150.12 457.248 149.34C457.068 148.77 456.918 148.26 456.918 147.84C456.918 147.03 457.398 146.61 458.388 146.61C458.808 146.61 459.138 146.67 459.378 146.76V144.39C459.018 144.3 458.598 144.24 457.878 144.24C456.108 144.24 454.968 144.99 454.968 146.19C454.968 146.82 455.238 147.39 455.688 147.87L455.658 147.9C454.578 147.27 453.198 146.94 451.518 146.94C447.438 146.94 444.918 148.98 444.918 152.22C444.918 154.08 445.728 155.55 447.198 156.45V156.51C446.388 156.9 445.818 157.77 445.818 159.03C445.818 160.08 446.268 160.89 447.108 161.46V161.49C445.338 161.58 444.228 162.69 444.228 164.19C444.228 166.86 447.228 168.39 452.238 168.39C457.128 168.39 460.038 166.53 460.038 163.41C460.038 161.04 458.208 159.66 455.028 159.66ZM451.518 149.34C453.618 149.34 454.908 150.45 454.908 152.22C454.908 153.99 453.618 155.1 451.518 155.1C449.418 155.1 448.128 153.99 448.128 152.22C448.128 150.45 449.418 149.34 451.518 149.34ZM452.208 166.02C449.358 166.02 447.558 165.33 447.558 163.92C447.558 162.78 448.638 162.27 450.318 162.27H454.338C455.928 162.27 456.678 162.81 456.678 163.8C456.678 165.12 455.358 166.02 452.208 166.02ZM462.503 162H465.863V154.83C465.863 151.59 467.723 149.82 470.663 149.82C473.333 149.82 474.653 151.14 474.653 153.48V162H478.013V152.73C478.013 149.07 475.703 146.94 471.953 146.94C468.503 146.94 466.583 148.47 465.773 151.14H465.743L465.863 147.18H462.503V162ZM501.847 154.05C501.847 149.43 499.177 146.94 494.977 146.94C490.297 146.94 487.357 149.91 487.357 154.71C487.357 159.36 490.297 162.24 494.977 162.24C499.027 162.24 501.727 160.23 501.847 156.93H498.817C498.667 158.67 497.197 159.63 495.037 159.63C492.517 159.63 490.927 158.1 490.747 155.25H501.847V154.05ZM498.817 153.21H490.837C491.227 150.75 492.697 149.55 495.007 149.55C497.437 149.55 498.817 150.78 498.817 153V153.21ZM8.22 206.24C11.25 206.24 13.11 204.74 13.68 202.4H13.74C13.68 203.84 13.65 205.13 13.59 206H16.95V185.21H13.59V193.79H13.56C12.96 192.05 11.22 190.94 8.43 190.94C4.02 190.94 1.23 194.03 1.23 198.5C1.23 203.12 3.93 206.24 8.22 206.24ZM8.91 203.48C6.27 203.48 4.56 201.44 4.56 198.5C4.56 195.68 6.3 193.7 8.97 193.7C11.76 193.7 13.59 195.38 13.59 198.02V198.74C13.59 201.62 11.73 203.48 8.91 203.48ZM34.2757 198.05C34.2757 193.43 31.6057 190.94 27.4057 190.94C22.7257 190.94 19.7857 193.91 19.7857 198.71C19.7857 203.36 22.7257 206.24 27.4057 206.24C31.4557 206.24 34.1557 204.23 34.2757 200.93H31.2457C31.0957 202.67 29.6257 203.63 27.4657 203.63C24.9457 203.63 23.3557 202.1 23.1757 199.25H34.2757V198.05ZM31.2457 197.21H23.2657C23.6557 194.75 25.1257 193.55 27.4357 193.55C29.8657 193.55 31.2457 194.78 31.2457 197V197.21ZM43.8436 206.24C48.0736 206.24 50.8936 203.93 50.8936 199.97H47.8636C47.8336 202.16 46.3636 203.48 43.9936 203.48C41.5036 203.48 39.9436 201.62 39.9436 198.59C39.9436 195.53 41.5336 193.7 44.1136 193.7C46.3636 193.7 47.8036 195.05 47.8336 197.27H50.8636C50.8636 193.34 48.1636 190.94 44.0236 190.94C39.5536 190.94 36.5836 193.85 36.5836 198.59C36.5836 203.33 39.4936 206.24 43.8436 206.24ZM53.8043 189.44H57.2543V186.14H53.8043V189.44ZM53.8343 206H57.1943V191.18H53.8343V206ZM67.0313 206.24C71.7713 206.24 74.2913 204.47 74.2913 201.47C74.2913 200.27 73.7213 199.13 72.7313 198.59C71.6813 197.99 70.4813 197.78 68.3813 197.57C66.5813 197.39 65.1713 197.24 64.4513 197C63.5813 196.7 63.4313 196.1 63.4313 195.47C63.4313 194.21 64.7513 193.37 67.0913 193.37C69.5513 193.37 70.6013 194.3 70.6313 196.22H73.6613C73.6613 192.86 71.6213 190.94 67.0013 190.94C62.9813 190.94 60.1013 192.74 60.1013 195.71C60.1013 196.85 60.5813 197.93 61.3913 198.53C62.2913 199.19 63.8513 199.49 66.1613 199.7C67.8113 199.85 69.2213 200 69.9413 200.27C70.7213 200.54 70.9313 201.05 70.9313 201.62C70.9313 202.97 69.7313 203.81 67.0013 203.81C64.1213 203.81 63.1313 202.76 63.1313 201.05H60.1013C60.1013 203.96 61.9313 206.24 67.0313 206.24ZM78.8269 189.35H80.9569C81.1369 187.7 81.6169 187.04 82.2169 187.04C82.7569 187.04 83.0269 187.28 83.5369 187.79L83.9869 188.24C84.6169 188.87 85.3069 189.35 86.4469 189.35C88.0969 189.35 89.5369 188.15 89.7769 184.94H87.6769C87.4969 186.62 87.0169 187.28 86.3869 187.28C85.8769 187.28 85.5769 187.01 85.0669 186.5L84.6169 186.08C83.9869 185.45 83.2969 184.94 82.1569 184.94C80.5369 184.94 79.0669 186.17 78.8269 189.35ZM84.3169 206.24C89.0569 206.24 92.0869 203.33 92.0869 198.62C92.0869 193.88 89.0569 190.94 84.3169 190.94C79.6069 190.94 76.5769 193.88 76.5769 198.62C76.5769 203.33 79.6069 206.24 84.3169 206.24ZM84.3169 203.48C81.5869 203.48 79.9369 201.62 79.9369 198.62C79.9369 195.59 81.5869 193.7 84.3169 193.7C87.0469 193.7 88.7269 195.59 88.7269 198.62C88.7269 201.62 87.0469 203.48 84.3169 203.48ZM108.832 198.05C108.832 193.43 106.162 190.94 101.962 190.94C97.2816 190.94 94.3416 193.91 94.3416 198.71C94.3416 203.36 97.2816 206.24 101.962 206.24C106.012 206.24 108.712 204.23 108.832 200.93H105.802C105.652 202.67 104.182 203.63 102.022 203.63C99.5016 203.63 97.9116 202.1 97.7316 199.25H108.832V198.05ZM105.802 197.21H97.8216C98.2116 194.75 99.6816 193.55 101.992 193.55C104.422 193.55 105.802 194.78 105.802 197V197.21ZM118.069 206.24C122.809 206.24 125.329 204.47 125.329 201.47C125.329 200.27 124.759 199.13 123.769 198.59C122.719 197.99 121.519 197.78 119.419 197.57C117.619 197.39 116.209 197.24 115.489 197C114.619 196.7 114.469 196.1 114.469 195.47C114.469 194.21 115.789 193.37 118.129 193.37C120.589 193.37 121.639 194.3 121.669 196.22H124.699C124.699 192.86 122.659 190.94 118.039 190.94C114.019 190.94 111.139 192.74 111.139 195.71C111.139 196.85 111.619 197.93 112.429 198.53C113.329 199.19 114.889 199.49 117.199 199.7C118.849 199.85 120.259 200 120.979 200.27C121.759 200.54 121.969 201.05 121.969 201.62C121.969 202.97 120.769 203.81 118.039 203.81C115.159 203.81 114.169 202.76 114.169 201.05H111.139C111.139 203.96 112.969 206.24 118.069 206.24ZM141.354 206.24C144.384 206.24 146.244 204.74 146.814 202.4H146.874C146.814 203.84 146.784 205.13 146.724 206H150.084V185.21H146.724V193.79H146.694C146.094 192.05 144.354 190.94 141.564 190.94C137.154 190.94 134.364 194.03 134.364 198.5C134.364 203.12 137.064 206.24 141.354 206.24ZM142.044 203.48C139.404 203.48 137.694 201.44 137.694 198.5C137.694 195.68 139.434 193.7 142.104 193.7C144.894 193.7 146.724 195.38 146.724 198.02V198.74C146.724 201.62 144.864 203.48 142.044 203.48ZM167.41 198.05C167.41 193.43 164.74 190.94 160.54 190.94C155.86 190.94 152.92 193.91 152.92 198.71C152.92 203.36 155.86 206.24 160.54 206.24C164.59 206.24 167.29 204.23 167.41 200.93H164.38C164.23 202.67 162.76 203.63 160.6 203.63C158.08 203.63 156.49 202.1 156.31 199.25H167.41V198.05ZM164.38 197.21H156.4C156.79 194.75 158.26 193.55 160.57 193.55C163 193.55 164.38 194.78 164.38 197V197.21ZM190.957 198.05C190.957 193.43 188.287 190.94 184.087 190.94C179.407 190.94 176.467 193.91 176.467 198.71C176.467 203.36 179.407 206.24 184.087 206.24C188.137 206.24 190.837 204.23 190.957 200.93H187.927C187.777 202.67 186.307 203.63 184.147 203.63C181.627 203.63 180.037 202.1 179.857 199.25H190.957V198.05ZM187.927 197.21H179.947C180.337 194.75 181.807 193.55 184.117 193.55C186.547 193.55 187.927 194.78 187.927 197V197.21ZM200.195 206.24C204.935 206.24 207.455 204.47 207.455 201.47C207.455 200.27 206.885 199.13 205.895 198.59C204.845 197.99 203.645 197.78 201.545 197.57C199.745 197.39 198.335 197.24 197.615 197C196.745 196.7 196.595 196.1 196.595 195.47C196.595 194.21 197.915 193.37 200.255 193.37C202.715 193.37 203.765 194.3 203.795 196.22H206.825C206.825 192.86 204.785 190.94 200.165 190.94C196.145 190.94 193.265 192.74 193.265 195.71C193.265 196.85 193.745 197.93 194.555 198.53C195.455 199.19 197.015 199.49 199.325 199.7C200.975 199.85 202.385 200 203.105 200.27C203.885 200.54 204.095 201.05 204.095 201.62C204.095 202.97 202.895 203.81 200.165 203.81C197.285 203.81 196.295 202.76 196.295 201.05H193.265C193.265 203.96 195.095 206.24 200.195 206.24ZM216.79 206.18C218.02 206.18 219.04 205.97 219.49 205.82V203.15C219.07 203.27 218.11 203.42 217.27 203.42C215.23 203.42 214.51 202.46 214.51 200.54V193.91H219.61V191.18H214.51V187.82H211.72L211.57 190.04C211.48 190.88 211.27 191.18 210.7 191.18H208.81V193.91H211.15V200.72C211.15 203.99 212.74 206.18 216.79 206.18ZM222.125 206H225.485V199.52C225.485 195.98 227.075 193.82 229.625 193.82C231.605 193.82 232.565 194.99 232.565 197.48C232.565 198.17 232.505 198.92 232.445 199.49H235.505C235.565 198.86 235.655 197.66 235.655 196.73C235.655 193.04 233.885 190.94 230.675 190.94C227.615 190.94 226.085 192.77 225.395 195.44H225.365L225.485 191.18H222.125V206ZM243.586 206.24C246.856 206.24 248.626 204.92 249.106 202.73H249.136C249.136 203.93 249.046 205.28 248.986 206H252.346V196.97C252.346 193.07 249.706 190.94 245.206 190.94C240.976 190.94 238.396 192.71 238.396 195.68C238.396 195.95 238.426 196.34 238.456 196.55H241.546C241.516 196.31 241.516 196.07 241.516 195.98C241.516 194.33 242.806 193.46 245.086 193.46C247.696 193.46 248.986 194.45 248.986 196.67V197.72H243.496C239.536 197.72 237.946 199.49 237.946 201.74C237.946 204.62 240.196 206.24 243.586 206.24ZM244.276 203.72C242.236 203.72 241.036 202.94 241.036 201.59C241.036 200.42 241.876 199.76 243.796 199.76H248.986V200.03C248.986 202.31 247.186 203.72 244.276 203.72ZM261.998 206.18C263.228 206.18 264.248 205.97 264.698 205.82V203.15C264.278 203.27 263.318 203.42 262.478 203.42C260.438 203.42 259.718 202.46 259.718 200.54V193.91H264.818V191.18H259.718V187.82H256.928L256.778 190.04C256.688 190.88 256.478 191.18 255.908 191.18H254.018V193.91H256.358V200.72C256.358 203.99 257.948 206.18 261.998 206.18ZM277.907 185.45H274.397L272.057 189.65H274.697L277.907 185.45ZM280.787 198.05C280.787 193.43 278.117 190.94 273.917 190.94C269.237 190.94 266.297 193.91 266.297 198.71C266.297 203.36 269.237 206.24 273.917 206.24C277.967 206.24 280.667 204.23 280.787 200.93H277.757C277.607 202.67 276.137 203.63 273.977 203.63C271.457 203.63 269.867 202.1 269.687 199.25H280.787V198.05ZM277.757 197.21H269.777C270.167 194.75 271.637 193.55 273.947 193.55C276.377 193.55 277.757 194.78 277.757 197V197.21ZM293.659 203.66H288.859C287.779 203.66 287.179 203.15 287.179 202.31C287.179 201.8 287.359 201.38 287.539 201.17C288.319 201.38 289.189 201.5 290.149 201.5C294.229 201.5 296.749 199.49 296.749 196.22C296.749 195.11 296.449 194.12 295.879 193.34C295.699 192.77 295.549 192.26 295.549 191.84C295.549 191.03 296.029 190.61 297.019 190.61C297.439 190.61 297.769 190.67 298.009 190.76V188.39C297.649 188.3 297.229 188.24 296.509 188.24C294.739 188.24 293.599 188.99 293.599 190.19C293.599 190.82 293.869 191.39 294.319 191.87L294.289 191.9C293.209 191.27 291.829 190.94 290.149 190.94C286.069 190.94 283.549 192.98 283.549 196.22C283.549 198.08 284.359 199.55 285.829 200.45V200.51C285.019 200.9 284.449 201.77 284.449 203.03C284.449 204.08 284.899 204.89 285.739 205.46V205.49C283.969 205.58 282.859 206.69 282.859 208.19C282.859 210.86 285.859 212.39 290.869 212.39C295.759 212.39 298.669 210.53 298.669 207.41C298.669 205.04 296.839 203.66 293.659 203.66ZM290.149 193.34C292.249 193.34 293.539 194.45 293.539 196.22C293.539 197.99 292.249 199.1 290.149 199.1C288.049 199.1 286.759 197.99 286.759 196.22C286.759 194.45 288.049 193.34 290.149 193.34ZM290.839 210.02C287.989 210.02 286.189 209.33 286.189 207.92C286.189 206.78 287.269 206.27 288.949 206.27H292.969C294.559 206.27 295.309 206.81 295.309 207.8C295.309 209.12 293.989 210.02 290.839 210.02ZM301.224 189.44H304.674V186.14H301.224V189.44ZM301.254 206H304.614V191.18H301.254V206ZM313.191 206.24C316.461 206.24 318.231 204.92 318.711 202.73H318.741C318.741 203.93 318.651 205.28 318.591 206H321.951V196.97C321.951 193.07 319.311 190.94 314.811 190.94C310.581 190.94 308.001 192.71 308.001 195.68C308.001 195.95 308.031 196.34 308.061 196.55H311.151C311.121 196.31 311.121 196.07 311.121 195.98C311.121 194.33 312.411 193.46 314.691 193.46C317.301 193.46 318.591 194.45 318.591 196.67V197.72H313.101C309.141 197.72 307.551 199.49 307.551 201.74C307.551 204.62 309.801 206.24 313.191 206.24ZM313.881 203.72C311.841 203.72 310.641 202.94 310.641 201.59C310.641 200.42 311.481 199.76 313.401 199.76H318.591V200.03C318.591 202.31 316.791 203.72 313.881 203.72ZM338.292 206.24C341.322 206.24 343.182 204.74 343.752 202.4H343.812C343.752 203.84 343.722 205.13 343.662 206H347.022V185.21H343.662V193.79H343.632C343.032 192.05 341.292 190.94 338.502 190.94C334.092 190.94 331.302 194.03 331.302 198.5C331.302 203.12 334.002 206.24 338.292 206.24ZM338.982 203.48C336.342 203.48 334.632 201.44 334.632 198.5C334.632 195.68 336.372 193.7 339.042 193.7C341.832 193.7 343.662 195.38 343.662 198.02V198.74C343.662 201.62 341.802 203.48 338.982 203.48ZM364.348 198.05C364.348 193.43 361.678 190.94 357.478 190.94C352.798 190.94 349.858 193.91 349.858 198.71C349.858 203.36 352.798 206.24 357.478 206.24C361.528 206.24 364.228 204.23 364.348 200.93H361.318C361.168 202.67 359.698 203.63 357.538 203.63C355.018 203.63 353.428 202.1 353.248 199.25H364.348V198.05ZM361.318 197.21H353.338C353.728 194.75 355.198 193.55 357.508 193.55C359.938 193.55 361.318 194.78 361.318 197V197.21ZM373.945 189.44H377.395V186.14H373.945V189.44ZM373.975 206H377.335V191.18H373.975V206ZM387.232 206.24C390.262 206.24 392.122 204.74 392.692 202.4H392.752C392.692 203.84 392.662 205.13 392.602 206H395.962V185.21H392.602V193.79H392.572C391.972 192.05 390.232 190.94 387.442 190.94C383.032 190.94 380.242 194.03 380.242 198.5C380.242 203.12 382.942 206.24 387.232 206.24ZM387.922 203.48C385.282 203.48 383.572 201.44 383.572 198.5C383.572 195.68 385.312 193.7 387.982 193.7C390.772 193.7 392.602 195.38 392.602 198.02V198.74C392.602 201.62 390.742 203.48 387.922 203.48ZM413.288 198.05C413.288 193.43 410.618 190.94 406.418 190.94C401.738 190.94 398.798 193.91 398.798 198.71C398.798 203.36 401.738 206.24 406.418 206.24C410.468 206.24 413.168 204.23 413.288 200.93H410.258C410.108 202.67 408.638 203.63 406.478 203.63C403.958 203.63 402.368 202.1 402.188 199.25H413.288V198.05ZM410.258 197.21H402.278C402.668 194.75 404.138 193.55 406.448 193.55C408.878 193.55 410.258 194.78 410.258 197V197.21ZM416.045 206H419.405V198.83C419.405 195.59 421.265 193.82 424.205 193.82C426.875 193.82 428.195 195.14 428.195 197.48V206H431.555V196.73C431.555 193.07 429.245 190.94 425.495 190.94C422.045 190.94 420.125 192.47 419.315 195.14H419.285L419.405 191.18H416.045V206ZM441.201 206.18C442.431 206.18 443.451 205.97 443.901 205.82V203.15C443.481 203.27 442.521 203.42 441.681 203.42C439.641 203.42 438.921 202.46 438.921 200.54V193.91H444.021V191.18H438.921V187.82H436.131L435.981 190.04C435.891 190.88 435.681 191.18 435.111 191.18H433.221V193.91H435.561V200.72C435.561 203.99 437.151 206.18 441.201 206.18ZM446.626 189.44H450.076V186.14H446.626V189.44ZM446.656 206H450.016V191.18H446.656V206ZM459.913 206.24C462.943 206.24 464.803 204.74 465.373 202.4H465.433C465.373 203.84 465.343 205.13 465.283 206H468.643V185.21H465.283V193.79H465.253C464.653 192.05 462.913 190.94 460.123 190.94C455.713 190.94 452.923 194.03 452.923 198.5C452.923 203.12 455.623 206.24 459.913 206.24ZM460.603 203.48C457.963 203.48 456.253 201.44 456.253 198.5C456.253 195.68 457.993 193.7 460.663 193.7C463.453 193.7 465.283 195.38 465.283 198.02V198.74C465.283 201.62 463.423 203.48 460.603 203.48ZM477.148 206.24C480.418 206.24 482.188 204.92 482.668 202.73H482.698C482.698 203.93 482.608 205.28 482.548 206H485.908V196.97C485.908 193.07 483.268 190.94 478.768 190.94C474.538 190.94 471.958 192.71 471.958 195.68C471.958 195.95 471.988 196.34 472.018 196.55H475.108C475.078 196.31 475.078 196.07 475.078 195.98C475.078 194.33 476.368 193.46 478.648 193.46C481.258 193.46 482.548 194.45 482.548 196.67V197.72H477.058C473.098 197.72 471.508 199.49 471.508 201.74C471.508 204.62 473.758 206.24 477.148 206.24ZM477.838 203.72C475.798 203.72 474.598 202.94 474.598 201.59C474.598 200.42 475.438 199.76 477.358 199.76H482.548V200.03C482.548 202.31 480.748 203.72 477.838 203.72ZM495.501 206.24C498.531 206.24 500.391 204.74 500.961 202.4H501.021C500.961 203.84 500.931 205.13 500.871 206H504.231V185.21H500.871V193.79H500.841C500.241 192.05 498.501 190.94 495.711 190.94C491.301 190.94 488.511 194.03 488.511 198.5C488.511 203.12 491.211 206.24 495.501 206.24ZM496.191 203.48C493.551 203.48 491.841 201.44 491.841 198.5C491.841 195.68 493.581 193.7 496.251 193.7C499.041 193.7 500.871 195.38 500.871 198.02V198.74C500.871 201.62 499.011 203.48 496.191 203.48ZM521.556 198.05C521.556 193.43 518.886 190.94 514.686 190.94C510.006 190.94 507.066 193.91 507.066 198.71C507.066 203.36 510.006 206.24 514.686 206.24C518.736 206.24 521.436 204.23 521.556 200.93H518.526C518.376 202.67 516.906 203.63 514.746 203.63C512.226 203.63 510.636 202.1 510.456 199.25H521.556V198.05ZM518.526 197.21H510.546C510.936 194.75 512.406 193.55 514.716 193.55C517.146 193.55 518.526 194.78 518.526 197V197.21ZM7.08 250H11.07L17.49 235.18H13.98L9.27 246.85H9.21L4.56 235.18H0.63L7.08 250ZM19.7105 233.44H23.1605V230.14H19.7105V233.44ZM19.7405 250H23.1005V235.18H19.7405V250ZM32.9374 250.24C37.6774 250.24 40.1974 248.47 40.1974 245.47C40.1974 244.27 39.6274 243.13 38.6374 242.59C37.5874 241.99 36.3874 241.78 34.2874 241.57C32.4874 241.39 31.0774 241.24 30.3574 241C29.4874 240.7 29.3374 240.1 29.3374 239.47C29.3374 238.21 30.6574 237.37 32.9974 237.37C35.4574 237.37 36.5074 238.3 36.5374 240.22H39.5674C39.5674 236.86 37.5274 234.94 32.9074 234.94C28.8874 234.94 26.0074 236.74 26.0074 239.71C26.0074 240.85 26.4874 241.93 27.2974 242.53C28.1974 243.19 29.7574 243.49 32.0674 243.7C33.7174 243.85 35.1274 244 35.8474 244.27C36.6274 244.54 36.8374 245.05 36.8374 245.62C36.8374 246.97 35.6374 247.81 32.9074 247.81C30.0274 247.81 29.0374 246.76 29.0374 245.05H26.0074C26.0074 247.96 27.8374 250.24 32.9374 250.24ZM49.023 250.24C52.323 250.24 54.393 248.68 55.023 245.86H55.053C55.053 247.42 54.993 249.01 54.903 250H58.263V235.18H54.903V241.75C54.903 245.35 53.013 247.36 50.013 247.36C47.583 247.36 46.143 246.04 46.143 243.7V235.18H42.783V244.18C42.783 248.11 45.153 250.24 49.023 250.24ZM66.6795 250.24C69.9495 250.24 71.7195 248.92 72.1995 246.73H72.2295C72.2295 247.93 72.1395 249.28 72.0795 250H75.4395V240.97C75.4395 237.07 72.7995 234.94 68.2995 234.94C64.0695 234.94 61.4895 236.71 61.4895 239.68C61.4895 239.95 61.5195 240.34 61.5495 240.55H64.6395C64.6095 240.31 64.6095 240.07 64.6095 239.98C64.6095 238.33 65.8995 237.46 68.1795 237.46C70.7895 237.46 72.0795 238.45 72.0795 240.67V241.72H66.5895C62.6295 241.72 61.0395 243.49 61.0395 245.74C61.0395 248.62 63.2895 250.24 66.6795 250.24ZM67.3695 247.72C65.3295 247.72 64.1295 246.94 64.1295 245.59C64.1295 244.42 64.9695 243.76 66.8895 243.76H72.0795V244.03C72.0795 246.31 70.2795 247.72 67.3695 247.72ZM78.5817 250H81.9417V229.21H78.5817V250ZM98.2291 233.65H100.839L98.4991 229.45H94.9891L98.2291 233.65ZM97.2391 250.24C100.509 250.24 102.279 248.92 102.759 246.73H102.789C102.789 247.93 102.699 249.28 102.639 250H105.999V240.97C105.999 237.07 103.359 234.94 98.8591 234.94C94.6291 234.94 92.0491 236.71 92.0491 239.68C92.0491 239.95 92.0791 240.34 92.1091 240.55H95.1991C95.1691 240.31 95.1691 240.07 95.1691 239.98C95.1691 238.33 96.4591 237.46 98.7391 237.46C101.349 237.46 102.639 238.45 102.639 240.67V241.72H97.1491C93.1891 241.72 91.5991 243.49 91.5991 245.74C91.5991 248.62 93.8491 250.24 97.2391 250.24ZM97.9291 247.72C95.8891 247.72 94.6891 246.94 94.6891 245.59C94.6891 244.42 95.5291 243.76 97.4491 243.76H102.639V244.03C102.639 246.31 100.839 247.72 97.9291 247.72ZM115.86 233.44H119.34V230.14H115.86V233.44ZM114.06 256.27C117.6 256.27 119.28 253.9 119.28 250.42V235.18H115.92V250.3C115.92 252.31 115.11 253.48 113.22 253.48C112.53 253.48 111.81 253.39 111.24 253.27V255.94C111.66 256.06 112.71 256.27 114.06 256.27ZM129.927 250.24C134.667 250.24 137.697 247.33 137.697 242.62C137.697 237.88 134.667 234.94 129.927 234.94C125.217 234.94 122.187 237.88 122.187 242.62C122.187 247.33 125.217 250.24 129.927 250.24ZM129.927 247.48C127.197 247.48 125.547 245.62 125.547 242.62C125.547 239.59 127.197 237.7 129.927 237.7C132.657 237.7 134.337 239.59 134.337 242.62C134.337 245.62 132.657 247.48 129.927 247.48ZM150.516 247.66H145.716C144.636 247.66 144.036 247.15 144.036 246.31C144.036 245.8 144.216 245.38 144.396 245.17C145.176 245.38 146.046 245.5 147.006 245.5C151.086 245.5 153.606 243.49 153.606 240.22C153.606 239.11 153.306 238.12 152.736 237.34C152.556 236.77 152.406 236.26 152.406 235.84C152.406 235.03 152.886 234.61 153.876 234.61C154.296 234.61 154.626 234.67 154.866 234.76V232.39C154.506 232.3 154.086 232.24 153.366 232.24C151.596 232.24 150.456 232.99 150.456 234.19C150.456 234.82 150.726 235.39 151.176 235.87L151.146 235.9C150.066 235.27 148.686 234.94 147.006 234.94C142.926 234.94 140.406 236.98 140.406 240.22C140.406 242.08 141.216 243.55 142.686 244.45V244.51C141.876 244.9 141.306 245.77 141.306 247.03C141.306 248.08 141.756 248.89 142.596 249.46V249.49C140.826 249.58 139.716 250.69 139.716 252.19C139.716 254.86 142.716 256.39 147.726 256.39C152.616 256.39 155.526 254.53 155.526 251.41C155.526 249.04 153.696 247.66 150.516 247.66ZM147.006 237.34C149.106 237.34 150.396 238.45 150.396 240.22C150.396 241.99 149.106 243.1 147.006 243.1C144.906 243.1 143.616 241.99 143.616 240.22C143.616 238.45 144.906 237.34 147.006 237.34ZM147.696 254.02C144.846 254.02 143.046 253.33 143.046 251.92C143.046 250.78 144.126 250.27 145.806 250.27H149.826C151.416 250.27 152.166 250.81 152.166 251.8C152.166 253.12 150.846 254.02 147.696 254.02ZM162.713 250.24C165.983 250.24 167.753 248.92 168.233 246.73H168.263C168.263 247.93 168.173 249.28 168.113 250H171.473V240.97C171.473 237.07 168.833 234.94 164.333 234.94C160.103 234.94 157.523 236.71 157.523 239.68C157.523 239.95 157.553 240.34 157.583 240.55H160.673C160.643 240.31 160.643 240.07 160.643 239.98C160.643 238.33 161.933 237.46 164.213 237.46C166.823 237.46 168.113 238.45 168.113 240.67V241.72H162.623C158.663 241.72 157.073 243.49 157.073 245.74C157.073 248.62 159.323 250.24 162.713 250.24ZM163.403 247.72C161.363 247.72 160.163 246.94 160.163 245.59C160.163 244.42 161.003 243.76 162.923 243.76H168.113V244.03C168.113 246.31 166.313 247.72 163.403 247.72ZM181.125 250.18C182.355 250.18 183.375 249.97 183.825 249.82V247.15C183.405 247.27 182.445 247.42 181.605 247.42C179.565 247.42 178.845 246.46 178.845 244.54V237.91H183.945V235.18H178.845V231.82H176.055L175.905 234.04C175.815 234.88 175.605 235.18 175.035 235.18H173.145V237.91H175.485V244.72C175.485 247.99 177.075 250.18 181.125 250.18ZM186.55 233.44H190V230.14H186.55V233.44ZM186.58 250H189.94V235.18H186.58V250ZM193.297 250H196.657V242.83C196.657 239.59 198.517 237.82 201.457 237.82C204.127 237.82 205.447 239.14 205.447 241.48V250H208.807V240.73C208.807 237.07 206.497 234.94 202.747 234.94C199.297 234.94 197.377 236.47 196.567 239.14H196.537L196.657 235.18H193.297V250ZM217.073 250.24C220.343 250.24 222.113 248.92 222.593 246.73H222.623C222.623 247.93 222.533 249.28 222.473 250H225.833V240.97C225.833 237.07 223.193 234.94 218.693 234.94C214.463 234.94 211.883 236.71 211.883 239.68C211.883 239.95 211.913 240.34 211.943 240.55H215.033C215.003 240.31 215.003 240.07 215.003 239.98C215.003 238.33 216.293 237.46 218.573 237.46C221.183 237.46 222.473 238.45 222.473 240.67V241.72H216.983C213.023 241.72 211.433 243.49 211.433 245.74C211.433 248.62 213.683 250.24 217.073 250.24ZM217.763 247.72C215.723 247.72 214.523 246.94 214.523 245.59C214.523 244.42 215.363 243.76 217.283 243.76H222.473V244.03C222.473 246.31 220.673 247.72 217.763 247.72ZM235.365 250.24C240.105 250.24 242.625 248.47 242.625 245.47C242.625 244.27 242.055 243.13 241.065 242.59C240.015 241.99 238.815 241.78 236.715 241.57C234.915 241.39 233.505 241.24 232.785 241C231.915 240.7 231.765 240.1 231.765 239.47C231.765 238.21 233.085 237.37 235.425 237.37C237.885 237.37 238.935 238.3 238.965 240.22H241.995C241.995 236.86 239.955 234.94 235.335 234.94C231.315 234.94 228.435 236.74 228.435 239.71C228.435 240.85 228.915 241.93 229.725 242.53C230.625 243.19 232.185 243.49 234.495 243.7C236.145 243.85 237.555 244 238.275 244.27C239.055 244.54 239.265 245.05 239.265 245.62C239.265 246.97 238.065 247.81 235.335 247.81C232.455 247.81 231.465 246.76 231.465 245.05H228.435C228.435 247.96 230.265 250.24 235.365 250.24ZM259.399 250.24C264.139 250.24 267.169 247.33 267.169 242.62C267.169 237.88 264.139 234.94 259.399 234.94C254.689 234.94 251.659 237.88 251.659 242.62C251.659 247.33 254.689 250.24 259.399 250.24ZM259.399 247.48C256.669 247.48 255.019 245.62 255.019 242.62C255.019 239.59 256.669 237.7 259.399 237.7C262.129 237.7 263.809 239.59 263.809 242.62C263.809 245.62 262.129 247.48 259.399 247.48ZM269.874 250H273.234V242.83C273.234 239.59 275.094 237.82 278.034 237.82C280.704 237.82 282.024 239.14 282.024 241.48V250H285.384V240.73C285.384 237.07 283.074 234.94 279.324 234.94C275.874 234.94 273.954 236.47 273.144 239.14H273.114L273.234 235.18H269.874V250ZM288.52 250H291.88V229.21H288.52V250ZM295.298 233.44H298.748V230.14H295.298V233.44ZM295.328 250H298.688V235.18H295.328V250ZM302.045 250H305.405V242.83C305.405 239.59 307.265 237.82 310.205 237.82C312.875 237.82 314.195 239.14 314.195 241.48V250H317.555V240.73C317.555 237.07 315.245 234.94 311.495 234.94C308.045 234.94 306.125 236.47 305.315 239.14H305.285L305.405 235.18H302.045V250ZM334.641 242.05C334.641 237.43 331.971 234.94 327.771 234.94C323.091 234.94 320.151 237.91 320.151 242.71C320.151 247.36 323.091 250.24 327.771 250.24C331.821 250.24 334.521 248.23 334.641 244.93H331.611C331.461 246.67 329.991 247.63 327.831 247.63C325.311 247.63 323.721 246.1 323.541 243.25H334.641V242.05ZM331.611 241.21H323.631C324.021 238.75 325.491 237.55 327.801 237.55C330.231 237.55 331.611 238.78 331.611 241V241.21ZM358.188 242.05C358.188 237.43 355.518 234.94 351.318 234.94C346.638 234.94 343.698 237.91 343.698 242.71C343.698 247.36 346.638 250.24 351.318 250.24C355.368 250.24 358.068 248.23 358.188 244.93H355.158C355.008 246.67 353.538 247.63 351.378 247.63C348.858 247.63 347.268 246.1 347.088 243.25H358.188V242.05ZM355.158 241.21H347.178C347.568 238.75 349.038 237.55 351.348 237.55C353.778 237.55 355.158 238.78 355.158 241V241.21ZM360.946 250H364.306V242.77C364.306 239.59 365.836 237.82 368.116 237.82C370.126 237.82 371.236 239.14 371.236 241.24V250H374.596V242.65C374.596 239.56 376.096 237.82 378.436 237.82C380.446 237.82 381.496 239.14 381.496 241.3V250H384.856V240.55C384.856 237.07 382.966 234.94 379.666 234.94C376.846 234.94 375.046 236.44 374.506 238.84H374.476C374.116 236.44 372.256 234.94 369.376 234.94C366.676 234.94 364.876 236.53 364.216 239.08H364.186L364.306 235.18H360.946V250ZM8.49 294.24C12.72 294.24 15.54 291.93 15.54 287.97H12.51C12.48 290.16 11.01 291.48 8.64 291.48C6.15 291.48 4.59 289.62 4.59 286.59C4.59 283.53 6.18 281.7 8.76 281.7C11.01 281.7 12.45 283.05 12.48 285.27H15.51C15.51 281.34 12.81 278.94 8.67 278.94C4.2 278.94 1.23 281.85 1.23 286.59C1.23 291.33 4.14 294.24 8.49 294.24ZM22.819 294.24C26.089 294.24 27.859 292.92 28.339 290.73H28.369C28.369 291.93 28.279 293.28 28.219 294H31.579V284.97C31.579 281.07 28.939 278.94 24.439 278.94C20.209 278.94 17.629 280.71 17.629 283.68C17.629 283.95 17.659 284.34 17.689 284.55H20.779C20.749 284.31 20.749 284.07 20.749 283.98C20.749 282.33 22.039 281.46 24.319 281.46C26.929 281.46 28.219 282.45 28.219 284.67V285.72H22.729C18.769 285.72 17.179 287.49 17.179 289.74C17.179 292.62 19.429 294.24 22.819 294.24ZM23.509 291.72C21.469 291.72 20.269 290.94 20.269 289.59C20.269 288.42 21.109 287.76 23.029 287.76H28.219V288.03C28.219 290.31 26.419 291.72 23.509 291.72ZM34.6312 294H37.9912V286.77C37.9912 283.59 39.5212 281.82 41.8012 281.82C43.8112 281.82 44.9212 283.14 44.9212 285.24V294H48.2812V286.65C48.2812 283.56 49.7812 281.82 52.1212 281.82C54.1312 281.82 55.1812 283.14 55.1812 285.3V294H58.5412V284.55C58.5412 281.07 56.6512 278.94 53.3512 278.94C50.5312 278.94 48.7312 280.44 48.1912 282.84H48.1612C47.8012 280.44 45.9412 278.94 43.0612 278.94C40.3612 278.94 38.5612 280.53 37.9012 283.08H37.8712L37.9912 279.18H34.6312V294ZM61.6852 299.94H65.0452V294.12C65.0452 293.52 64.9852 291.99 64.9552 291H64.9852C65.6152 292.92 67.5352 294.24 70.4752 294.24C74.7352 294.24 77.4352 291.12 77.4352 286.32C77.4352 281.85 74.7652 278.94 70.5352 278.94C67.5952 278.94 65.6152 280.38 65.0152 282.63H64.9852L65.0452 279.18H61.6852V299.94ZM69.8152 291.48C66.9352 291.48 65.0452 289.86 65.0452 287.34V286.56C65.1052 283.59 66.9652 281.7 69.7552 281.7C72.4252 281.7 74.0752 283.56 74.0752 286.41C74.0752 289.5 72.3952 291.48 69.8152 291.48ZM94.2202 286.05C94.2202 281.43 91.5502 278.94 87.3502 278.94C82.6702 278.94 79.7302 281.91 79.7302 286.71C79.7302 291.36 82.6702 294.24 87.3502 294.24C91.4002 294.24 94.1002 292.23 94.2202 288.93H91.1902C91.0402 290.67 89.5702 291.63 87.4102 291.63C84.8902 291.63 83.3002 290.1 83.1202 287.25H94.2202V286.05ZM91.1902 285.21H83.2102C83.6002 282.75 85.0702 281.55 87.3802 281.55C89.8102 281.55 91.1902 282.78 91.1902 285V285.21ZM104.268 294.24C109.008 294.24 112.038 291.33 112.038 286.62C112.038 281.88 109.008 278.94 104.268 278.94C99.5581 278.94 96.528 281.88 96.528 286.62C96.528 291.33 99.5581 294.24 104.268 294.24ZM104.268 291.48C101.538 291.48 99.8881 289.62 99.8881 286.62C99.8881 283.59 101.538 281.7 104.268 281.7C106.998 281.7 108.678 283.59 108.678 286.62C108.678 289.62 106.998 291.48 104.268 291.48ZM114.743 294H118.103V286.83C118.103 283.59 119.963 281.82 122.903 281.82C125.573 281.82 126.893 283.14 126.893 285.48V294H130.253V284.73C130.253 281.07 127.943 278.94 124.193 278.94C120.743 278.94 118.823 280.47 118.013 283.14H117.983L118.103 279.18H114.743V294ZM138.518 294.24C141.788 294.24 143.558 292.92 144.038 290.73H144.068C144.068 291.93 143.978 293.28 143.918 294H147.278V284.97C147.278 281.07 144.638 278.94 140.138 278.94C135.908 278.94 133.328 280.71 133.328 283.68C133.328 283.95 133.358 284.34 133.388 284.55H136.478C136.448 284.31 136.448 284.07 136.448 283.98C136.448 282.33 137.738 281.46 140.018 281.46C142.628 281.46 143.918 282.45 143.918 284.67V285.72H138.428C134.468 285.72 132.878 287.49 132.878 289.74C132.878 292.62 135.128 294.24 138.518 294.24ZM139.208 291.72C137.168 291.72 135.968 290.94 135.968 289.59C135.968 288.42 136.808 287.76 138.728 287.76H143.918V288.03C143.918 290.31 142.118 291.72 139.208 291.72ZM156.931 294.18C158.161 294.18 159.181 293.97 159.631 293.82V291.15C159.211 291.27 158.251 291.42 157.411 291.42C155.371 291.42 154.651 290.46 154.651 288.54V281.91H159.751V279.18H154.651V275.82H151.861L151.711 278.04C151.621 278.88 151.411 279.18 150.841 279.18H148.951V281.91H151.291V288.72C151.291 291.99 152.881 294.18 156.931 294.18ZM168.969 294.24C173.709 294.24 176.739 291.33 176.739 286.62C176.739 281.88 173.709 278.94 168.969 278.94C164.259 278.94 161.229 281.88 161.229 286.62C161.229 291.33 164.259 294.24 168.969 294.24ZM168.969 291.48C166.239 291.48 164.589 289.62 164.589 286.62C164.589 283.59 166.239 281.7 168.969 281.7C171.699 281.7 173.379 283.59 173.379 286.62C173.379 289.62 171.699 291.48 168.969 291.48ZM185.748 294.24C190.488 294.24 193.008 292.47 193.008 289.47C193.008 288.27 192.438 287.13 191.448 286.59C190.398 285.99 189.198 285.78 187.098 285.57C185.298 285.39 183.888 285.24 183.168 285C182.298 284.7 182.148 284.1 182.148 283.47C182.148 282.21 183.468 281.37 185.808 281.37C188.268 281.37 189.318 282.3 189.348 284.22H192.378C192.378 280.86 190.338 278.94 185.718 278.94C181.698 278.94 178.818 280.74 178.818 283.71C178.818 284.85 179.298 285.93 180.108 286.53C181.008 287.19 182.568 287.49 184.878 287.7C186.528 287.85 187.938 288 188.658 288.27C189.438 288.54 189.648 289.05 189.648 289.62C189.648 290.97 188.448 291.81 185.718 291.81C182.838 291.81 181.848 290.76 181.848 289.05H178.818C178.818 291.96 180.648 294.24 185.748 294.24ZM209.033 294.24C212.063 294.24 213.923 292.74 214.493 290.4H214.553C214.493 291.84 214.463 293.13 214.403 294H217.763V273.21H214.403V281.79H214.373C213.773 280.05 212.033 278.94 209.243 278.94C204.833 278.94 202.043 282.03 202.043 286.5C202.043 291.12 204.743 294.24 209.033 294.24ZM209.723 291.48C207.083 291.48 205.373 289.44 205.373 286.5C205.373 283.68 207.113 281.7 209.783 281.7C212.573 281.7 214.403 283.38 214.403 286.02V286.74C214.403 289.62 212.543 291.48 209.723 291.48ZM235.089 286.05C235.089 281.43 232.419 278.94 228.219 278.94C223.539 278.94 220.599 281.91 220.599 286.71C220.599 291.36 223.539 294.24 228.219 294.24C232.269 294.24 234.969 292.23 235.089 288.93H232.059C231.909 290.67 230.439 291.63 228.279 291.63C225.759 291.63 224.169 290.1 223.989 287.25H235.089V286.05ZM232.059 285.21H224.079C224.469 282.75 225.939 281.55 228.249 281.55C230.679 281.55 232.059 282.78 232.059 285V285.21ZM244.836 294H248.226L248.166 277.08H248.226L254.256 294H257.256L263.286 277.08H263.346L263.256 294H266.856V274.26H261.246L255.936 289.17H255.876L250.596 274.26H244.836V294ZM280.08 294.3C285.84 294.3 290.34 290.43 290.34 284.04C290.34 277.77 285.84 273.96 280.08 273.96C274.35 273.96 269.85 277.77 269.85 284.04C269.85 290.43 274.35 294.3 280.08 294.3ZM280.08 291.3C276.45 291.3 273.51 288.57 273.51 284.04C273.51 279.63 276.45 276.96 280.08 276.96C283.74 276.96 286.68 279.63 286.68 284.04C286.68 288.57 283.74 291.3 280.08 291.3ZM293.314 294H302.344C307.234 294 309.424 291.81 309.424 288.27C309.424 285.72 307.954 284.04 305.494 283.68V283.65C307.594 283.26 308.674 281.67 308.674 279.42C308.674 276.24 306.274 274.26 301.654 274.26H293.314V294ZM296.914 282.72V277.08H301.624C304.324 277.08 305.464 278.19 305.464 279.96C305.464 281.7 304.324 282.72 301.984 282.72H296.914ZM296.914 291.18V285.06H302.164C304.624 285.06 306.004 286.2 306.004 287.91C306.004 289.92 304.984 291.18 302.284 291.18H296.914ZM327.338 294H331.508L323.498 274.26H319.118L311.078 294H314.798L316.478 289.56H325.688L327.338 294ZM317.378 287.16L321.068 277.32H321.128L324.788 287.16H317.378ZM334.242 294H337.632V290.1H334.242V294Z" fill="black"/>
</svg>
