<svg width="485" height="348" viewBox="0 0 485 348" fill="none" xmlns="http://www.w3.org/2000/svg">
<path d="M9 10.41C3.96 10.41 1.92 12.78 1.92 17.01V20.34H7.74V15.39H5.37V15.27C5.37 13.95 6.18 12.96 9 12.96V10.41ZM18.06 10.41C13.02 10.41 10.98 12.78 10.98 17.01V20.34H16.8V15.39H14.43V15.27C14.43 13.95 15.24 12.96 18.06 12.96V10.41ZM340.908 328.16C345.948 328.16 347.988 325.79 347.988 321.56V318.23H342.168V323.18H344.538V323.3C344.538 324.62 343.728 325.61 340.908 325.61V328.16ZM349.998 328.16C355.038 328.16 357.078 325.79 357.078 321.56V318.23H351.258V323.18H353.628V323.3C353.628 324.62 352.818 325.61 349.998 325.61V328.16Z" fill="#7D2CFF"/>
<path d="M25.803 30H29.403V13.23H35.523V10.26H19.683V13.23H25.803V30ZM36.7992 30H40.1592V23.52C40.1592 19.98 41.7492 17.82 44.2992 17.82C46.2792 17.82 47.2392 18.99 47.2392 21.48C47.2392 22.17 47.1792 22.92 47.1192 23.49H50.1792C50.2392 22.86 50.3292 21.66 50.3292 20.73C50.3292 17.04 48.5592 14.94 45.3492 14.94C42.2892 14.94 40.7592 16.77 40.0692 19.44H40.0392L40.1592 15.18H36.7992V30ZM58.2605 30.24C61.5305 30.24 63.3005 28.92 63.7805 26.73H63.8105C63.8105 27.93 63.7205 29.28 63.6605 30H67.0205V20.97C67.0205 17.07 64.3805 14.94 59.8805 14.94C55.6505 14.94 53.0705 16.71 53.0705 19.68C53.0705 19.95 53.1005 20.34 53.1305 20.55H56.2205C56.1905 20.31 56.1905 20.07 56.1905 19.98C56.1905 18.33 57.4805 17.46 59.7605 17.46C62.3705 17.46 63.6605 18.45 63.6605 20.67V21.72H58.1705C54.2105 21.72 52.6205 23.49 52.6205 25.74C52.6205 28.62 54.8705 30.24 58.2605 30.24ZM58.9505 27.72C56.9105 27.72 55.7105 26.94 55.7105 25.59C55.7105 24.42 56.5505 23.76 58.4705 23.76H63.6605V24.03C63.6605 26.31 61.8605 27.72 58.9505 27.72ZM79.1327 30.24C83.3027 30.24 85.9127 27.21 85.9127 22.32C85.9127 17.76 83.3627 14.94 79.1027 14.94C76.1627 14.94 74.1227 16.32 73.4927 18.48H73.4627C73.4927 17.76 73.5227 16.56 73.5227 15.93V9.21H70.1627V30H73.5227C73.4627 29.25 73.4027 27.9 73.4027 26.85H73.4327C74.0327 28.92 76.0727 30.24 79.1327 30.24ZM78.2627 27.48C75.3527 27.48 73.5227 25.89 73.5227 23.31V22.56C73.5227 19.56 75.3827 17.7 78.3227 17.7C80.9627 17.7 82.5527 19.5 82.5527 22.41C82.5527 25.56 80.9027 27.48 78.2627 27.48ZM93.116 30.24C96.386 30.24 98.156 28.92 98.636 26.73H98.666C98.666 27.93 98.576 29.28 98.516 30H101.876V20.97C101.876 17.07 99.236 14.94 94.736 14.94C90.506 14.94 87.926 16.71 87.926 19.68C87.926 19.95 87.956 20.34 87.986 20.55H91.076C91.046 20.31 91.046 20.07 91.046 19.98C91.046 18.33 92.336 17.46 94.616 17.46C97.226 17.46 98.516 18.45 98.516 20.67V21.72H93.026C89.066 21.72 87.476 23.49 87.476 25.74C87.476 28.62 89.726 30.24 93.116 30.24ZM93.806 27.72C91.766 27.72 90.566 26.94 90.566 25.59C90.566 24.42 91.406 23.76 93.326 23.76H98.516V24.03C98.516 26.31 96.716 27.72 93.806 27.72ZM105.018 30H108.378V9.21H105.018V30ZM111.797 30H115.157V22.98C115.157 19.65 117.017 17.82 119.987 17.82C122.657 17.82 123.977 19.14 123.977 21.48V30H127.337V20.73C127.337 17.07 125.027 14.94 121.277 14.94C117.797 14.94 115.877 16.47 115.097 19.17H115.067C115.097 18.36 115.157 16.65 115.157 15.93V9.21H111.797V30ZM135.6 30.24C138.87 30.24 140.64 28.92 141.12 26.73H141.15C141.15 27.93 141.06 29.28 141 30H144.36V20.97C144.36 17.07 141.72 14.94 137.22 14.94C132.99 14.94 130.41 16.71 130.41 19.68C130.41 19.95 130.44 20.34 130.47 20.55H133.56C133.53 20.31 133.53 20.07 133.53 19.98C133.53 18.33 134.82 17.46 137.1 17.46C139.71 17.46 141 18.45 141 20.67V21.72H135.51C131.55 21.72 129.96 23.49 129.96 25.74C129.96 28.62 132.21 30.24 135.6 30.24ZM136.29 27.72C134.25 27.72 133.05 26.94 133.05 25.59C133.05 24.42 133.89 23.76 135.81 23.76H141V24.03C141 26.31 139.2 27.72 136.29 27.72ZM147.412 30H150.772V23.52C150.772 19.98 152.362 17.82 154.912 17.82C156.892 17.82 157.852 18.99 157.852 21.48C157.852 22.17 157.792 22.92 157.732 23.49H160.792C160.852 22.86 160.942 21.66 160.942 20.73C160.942 17.04 159.172 14.94 155.962 14.94C152.902 14.94 151.372 16.77 150.682 19.44H150.652L150.772 15.18H147.412V30ZM177.212 30.24C181.442 30.24 184.262 27.93 184.262 23.97H181.232C181.202 26.16 179.732 27.48 177.362 27.48C174.872 27.48 173.312 25.62 173.312 22.59C173.312 19.53 174.902 17.7 177.482 17.7C179.732 17.7 181.172 19.05 181.202 21.27H184.232C184.232 17.34 181.532 14.94 177.392 14.94C172.922 14.94 169.952 17.85 169.952 22.59C169.952 27.33 172.862 30.24 177.212 30.24ZM194.373 30.24C199.113 30.24 202.143 27.33 202.143 22.62C202.143 17.88 199.113 14.94 194.373 14.94C189.663 14.94 186.633 17.88 186.633 22.62C186.633 27.33 189.663 30.24 194.373 30.24ZM194.373 27.48C191.643 27.48 189.993 25.62 189.993 22.62C189.993 19.59 191.643 17.7 194.373 17.7C197.103 17.7 198.783 19.59 198.783 22.62C198.783 25.62 197.103 27.48 194.373 27.48ZM204.847 30H208.207V22.77C208.207 19.59 209.737 17.82 212.017 17.82C214.027 17.82 215.137 19.14 215.137 21.24V30H218.497V22.65C218.497 19.56 219.997 17.82 222.337 17.82C224.347 17.82 225.397 19.14 225.397 21.3V30H228.757V20.55C228.757 17.07 226.867 14.94 223.567 14.94C220.747 14.94 218.947 16.44 218.407 18.84H218.377C218.017 16.44 216.157 14.94 213.277 14.94C210.577 14.94 208.777 16.53 208.117 19.08H208.087L208.207 15.18H204.847V30ZM243.78 30.24C247.05 30.24 248.82 28.92 249.3 26.73H249.33C249.33 27.93 249.24 29.28 249.18 30H252.54V20.97C252.54 17.07 249.9 14.94 245.4 14.94C241.17 14.94 238.59 16.71 238.59 19.68C238.59 19.95 238.62 20.34 238.65 20.55H241.74C241.71 20.31 241.71 20.07 241.71 19.98C241.71 18.33 243 17.46 245.28 17.46C247.89 17.46 249.18 18.45 249.18 20.67V21.72H243.69C239.73 21.72 238.14 23.49 238.14 25.74C238.14 28.62 240.39 30.24 243.78 30.24ZM244.47 27.72C242.43 27.72 241.23 26.94 241.23 25.59C241.23 24.42 242.07 23.76 243.99 23.76H249.18V24.03C249.18 26.31 247.38 27.72 244.47 27.72ZM276.382 22.05C276.382 17.43 273.712 14.94 269.512 14.94C264.832 14.94 261.892 17.91 261.892 22.71C261.892 27.36 264.832 30.24 269.512 30.24C273.562 30.24 276.262 28.23 276.382 24.93H273.352C273.202 26.67 271.732 27.63 269.572 27.63C267.052 27.63 265.462 26.1 265.282 23.25H276.382V22.05ZM273.352 21.21H265.372C265.762 18.75 267.232 17.55 269.542 17.55C271.972 17.55 273.352 18.78 273.352 21V21.21ZM291.05 35.94H294.41V15.18H291.08V18H291.05C290.45 16.11 288.68 14.94 285.8 14.94C281.66 14.94 278.69 17.91 278.69 22.47C278.69 27.21 281.39 30.24 285.65 30.24C288.5 30.24 290.48 28.8 291.02 26.58H291.05V35.94ZM286.37 27.48C283.76 27.48 282.02 25.53 282.02 22.47C282.02 19.59 283.82 17.7 286.43 17.7C289.22 17.7 291.05 19.38 291.05 21.99V22.71C291.05 25.62 289.19 27.48 286.37 27.48ZM303.785 30.24C307.085 30.24 309.155 28.68 309.785 25.86H309.815C309.815 27.42 309.755 29.01 309.665 30H313.025V15.18H309.665V21.75C309.665 25.35 307.775 27.36 304.775 27.36C302.345 27.36 300.905 26.04 300.905 23.7V15.18H297.545V24.18C297.545 28.11 299.915 30.24 303.785 30.24ZM316.312 13.44H319.762V10.14H316.312V13.44ZM316.342 30H319.702V15.18H316.342V30ZM323.149 35.94H326.509V30.12C326.509 29.52 326.449 27.99 326.419 27H326.449C327.079 28.92 328.999 30.24 331.939 30.24C336.199 30.24 338.899 27.12 338.899 22.32C338.899 17.85 336.229 14.94 331.999 14.94C329.059 14.94 327.079 16.38 326.479 18.63H326.449L326.509 15.18H323.149V35.94ZM331.279 27.48C328.399 27.48 326.509 25.86 326.509 23.34V22.56C326.569 19.59 328.429 17.7 331.219 17.7C333.889 17.7 335.539 19.56 335.539 22.41C335.539 25.5 333.859 27.48 331.279 27.48ZM355.684 22.05C355.684 17.43 353.014 14.94 348.814 14.94C344.134 14.94 341.194 17.91 341.194 22.71C341.194 27.36 344.134 30.24 348.814 30.24C352.864 30.24 355.564 28.23 355.684 24.93H352.654C352.504 26.67 351.034 27.63 348.874 27.63C346.354 27.63 344.764 26.1 344.584 23.25H355.684V22.05ZM352.654 21.21H344.674C345.064 18.75 346.534 17.55 348.844 17.55C351.274 17.55 352.654 18.78 352.654 21V21.21ZM371.731 30.24C374.761 30.24 376.621 28.74 377.191 26.4H377.251C377.191 27.84 377.161 29.13 377.101 30H380.461V9.21H377.101V17.79H377.071C376.471 16.05 374.731 14.94 371.941 14.94C367.531 14.94 364.741 18.03 364.741 22.5C364.741 27.12 367.441 30.24 371.731 30.24ZM372.421 27.48C369.781 27.48 368.071 25.44 368.071 22.5C368.071 19.68 369.811 17.7 372.481 17.7C375.271 17.7 377.101 19.38 377.101 22.02V22.74C377.101 25.62 375.241 27.48 372.421 27.48ZM391.036 30.24C395.776 30.24 398.806 27.33 398.806 22.62C398.806 17.88 395.776 14.94 391.036 14.94C386.326 14.94 383.296 17.88 383.296 22.62C383.296 27.33 386.326 30.24 391.036 30.24ZM391.036 27.48C388.306 27.48 386.656 25.62 386.656 22.62C386.656 19.59 388.306 17.7 391.036 17.7C393.766 17.7 395.446 19.59 395.446 22.62C395.446 25.62 393.766 27.48 391.036 27.48ZM1.92 74H5.31L5.28 57.26H5.31L15.84 74H20.1V54.26H16.71L16.77 69.26H16.71L7.32 54.26H1.92V74ZM32.9062 74.3C36.5063 74.3 38.7263 72.74 39.3262 70.46H39.3562C39.3262 71.81 39.2363 73.22 39.1762 74H42.1763V64.28H32.5762V66.56H38.6963V67.01C38.6963 69.68 36.3562 71.51 33.2062 71.51C29.6362 71.51 26.7262 68.78 26.7262 64.37C26.7262 59.81 29.5462 56.96 33.3562 56.96C36.3862 56.96 38.7862 58.55 38.7862 61.34C38.7862 61.61 38.7862 61.94 38.7562 62.3H41.9662C41.9962 61.94 42.0263 61.46 42.0263 61.13C42.0263 56.63 38.2763 53.96 33.2962 53.96C27.4762 53.96 23.0962 58.01 23.0962 64.34C23.0962 70.52 27.2662 74.3 32.9062 74.3ZM45.9532 74H49.3432V70.1H45.9532V74ZM62.7891 74.3C68.0091 74.3 71.7291 71.24 71.7291 66.77V66.08H68.5191V66.56C68.5191 69.41 66.2091 71.3 62.9091 71.3C59.1891 71.3 56.3091 68.57 56.3091 64.16C56.3091 59.75 59.0691 56.96 62.9091 56.96C66.0891 56.96 68.4591 58.88 68.4591 61.91C68.4591 62.06 68.4591 62.3 68.4291 62.57H71.6091C71.6391 62.21 71.6691 61.82 71.6691 61.61C71.6691 57.05 67.9791 53.96 62.7891 53.96C56.8491 53.96 52.6491 57.86 52.6491 64.16C52.6491 70.43 56.9091 74.3 62.7891 74.3ZM88.857 74H93.027L85.017 54.26H80.6369L72.5969 74H76.3169L77.9969 69.56H87.2069L88.857 74ZM78.8969 67.16L82.5869 57.32H82.6469L86.3069 67.16H78.8969ZM102.29 74.3C109.01 74.3 110.87 71.33 110.87 68.15C110.87 66.32 110.09 64.94 108.74 64.25C107.51 63.59 105.59 63.26 103.52 62.93C101.81 62.69 99.5899 62.33 98.7199 61.91C97.9399 61.55 97.5499 60.89 97.5499 59.78C97.5499 57.98 99.3199 56.75 102.29 56.75C105.38 56.75 106.97 58.13 106.97 61.04H110.21C110.21 56.54 108.08 53.96 102.23 53.96C97.0699 53.96 93.9799 56.48 93.9799 60.08C93.9799 61.94 94.7299 63.29 95.9299 64.04C97.0099 64.73 99.1099 65.18 101.09 65.45C102.8 65.69 104.93 65.96 105.92 66.35C106.85 66.68 107.3 67.31 107.3 68.39C107.3 70.01 106.28 71.51 102.26 71.51C98.4799 71.51 97.2799 69.77 97.2799 67.25H94.0399C94.0399 70.85 95.7499 74.3 102.29 74.3ZM113.899 74H117.499V65.21H127.999V74H131.569V54.26H127.999V62.33H117.499V54.26H113.899V74ZM141.776 74H145.136V66.77C145.136 63.59 146.666 61.82 148.946 61.82C150.956 61.82 152.066 63.14 152.066 65.24V74H155.426V66.65C155.426 63.56 156.926 61.82 159.266 61.82C161.276 61.82 162.326 63.14 162.326 65.3V74H165.686V64.55C165.686 61.07 163.796 58.94 160.496 58.94C157.676 58.94 155.876 60.44 155.336 62.84H155.306C154.946 60.44 153.086 58.94 150.206 58.94C147.506 58.94 145.706 60.53 145.046 63.08H145.016L145.136 59.18H141.776V74ZM182.78 66.05C182.78 61.43 180.11 58.94 175.91 58.94C171.23 58.94 168.29 61.91 168.29 66.71C168.29 71.36 171.23 74.24 175.91 74.24C179.96 74.24 182.66 72.23 182.78 68.93H179.75C179.6 70.67 178.13 71.63 175.97 71.63C173.45 71.63 171.86 70.1 171.68 67.25H182.78V66.05ZM179.75 65.21H171.77C172.16 62.75 173.63 61.55 175.94 61.55C178.37 61.55 179.75 62.78 179.75 65V65.21ZM192.287 74H195.647V66.77C195.647 63.59 197.177 61.82 199.457 61.82C201.467 61.82 202.577 63.14 202.577 65.24V74H205.937V66.65C205.937 63.56 207.437 61.82 209.777 61.82C211.787 61.82 212.837 63.14 212.837 65.3V74H216.197V64.55C216.197 61.07 214.307 58.94 211.007 58.94C208.187 58.94 206.387 60.44 205.847 62.84H205.817C205.457 60.44 203.597 58.94 200.717 58.94C198.017 58.94 196.217 60.53 195.557 63.08H195.527L195.647 59.18H192.287V74ZM226.541 74.24C231.281 74.24 234.311 71.33 234.311 66.62C234.311 61.88 231.281 58.94 226.541 58.94C221.831 58.94 218.801 61.88 218.801 66.62C218.801 71.33 221.831 74.24 226.541 74.24ZM226.541 71.48C223.811 71.48 222.161 69.62 222.161 66.62C222.161 63.59 223.811 61.7 226.541 61.7C229.271 61.7 230.951 63.59 230.951 66.62C230.951 69.62 229.271 71.48 226.541 71.48ZM243.32 74.24C248.06 74.24 250.58 72.47 250.58 69.47C250.58 68.27 250.01 67.13 249.02 66.59C247.97 65.99 246.77 65.78 244.67 65.57C242.87 65.39 241.46 65.24 240.74 65C239.87 64.7 239.72 64.1 239.72 63.47C239.72 62.21 241.04 61.37 243.38 61.37C245.84 61.37 246.89 62.3 246.92 64.22H249.95C249.95 60.86 247.91 58.94 243.29 58.94C239.27 58.94 236.39 60.74 236.39 63.71C236.39 64.85 236.87 65.93 237.68 66.53C238.58 67.19 240.14 67.49 242.45 67.7C244.1 67.85 245.51 68 246.23 68.27C247.01 68.54 247.22 69.05 247.22 69.62C247.22 70.97 246.02 71.81 243.29 71.81C240.41 71.81 239.42 70.76 239.42 69.05H236.39C236.39 71.96 238.22 74.24 243.32 74.24ZM259.915 74.18C261.145 74.18 262.165 73.97 262.615 73.82V71.15C262.195 71.27 261.235 71.42 260.395 71.42C258.355 71.42 257.635 70.46 257.635 68.54V61.91H262.735V59.18H257.635V55.82H254.845L254.695 58.04C254.605 58.88 254.395 59.18 253.825 59.18H251.935V61.91H254.275V68.72C254.275 71.99 255.865 74.18 259.915 74.18ZM265.25 74H268.61V67.52C268.61 63.98 270.2 61.82 272.75 61.82C274.73 61.82 275.69 62.99 275.69 65.48C275.69 66.17 275.63 66.92 275.57 67.49H278.63C278.69 66.86 278.78 65.66 278.78 64.73C278.78 61.04 277.01 58.94 273.8 58.94C270.74 58.94 269.21 60.77 268.52 63.44H268.49L268.61 59.18H265.25V74ZM288.781 74.24C293.521 74.24 296.551 71.33 296.551 66.62C296.551 61.88 293.521 58.94 288.781 58.94C284.071 58.94 281.041 61.88 281.041 66.62C281.041 71.33 284.071 74.24 288.781 74.24ZM288.781 71.48C286.051 71.48 284.401 69.62 284.401 66.62C284.401 63.59 286.051 61.7 288.781 61.7C291.511 61.7 293.191 63.59 293.191 66.62C293.191 69.62 291.511 71.48 288.781 71.48ZM305.346 74.24C308.646 74.24 310.716 72.68 311.346 69.86H311.376C311.376 71.42 311.316 73.01 311.226 74H314.586V59.18H311.226V65.75C311.226 69.35 309.336 71.36 306.336 71.36C303.906 71.36 302.466 70.04 302.466 67.7V59.18H299.106V68.18C299.106 72.11 301.476 74.24 305.346 74.24ZM330.621 74.24C333.921 74.24 335.991 72.68 336.621 69.86H336.651C336.651 71.42 336.591 73.01 336.501 74H339.861V59.18H336.501V65.75C336.501 69.35 334.611 71.36 331.611 71.36C329.181 71.36 327.741 70.04 327.741 67.7V59.18H324.381V68.18C324.381 72.11 326.751 74.24 330.621 74.24ZM343.058 74H346.418V66.77C346.418 63.59 347.948 61.82 350.228 61.82C352.238 61.82 353.348 63.14 353.348 65.24V74H356.708V66.65C356.708 63.56 358.208 61.82 360.548 61.82C362.558 61.82 363.608 63.14 363.608 65.3V74H366.968V64.55C366.968 61.07 365.078 58.94 361.778 58.94C358.958 58.94 357.158 60.44 356.618 62.84H356.588C356.228 60.44 354.368 58.94 351.488 58.94C348.788 58.94 346.988 60.53 346.328 63.08H346.298L346.418 59.18H343.058V74ZM390.811 66.05C390.811 61.43 388.141 58.94 383.941 58.94C379.261 58.94 376.321 61.91 376.321 66.71C376.321 71.36 379.261 74.24 383.941 74.24C387.991 74.24 390.691 72.23 390.811 68.93H387.781C387.631 70.67 386.161 71.63 384.001 71.63C381.481 71.63 379.891 70.1 379.711 67.25H390.811V66.05ZM387.781 65.21H379.801C380.191 62.75 381.661 61.55 383.971 61.55C386.401 61.55 387.781 62.78 387.781 65V65.21ZM400.049 74.24C404.789 74.24 407.309 72.47 407.309 69.47C407.309 68.27 406.739 67.13 405.749 66.59C404.699 65.99 403.499 65.78 401.399 65.57C399.599 65.39 398.189 65.24 397.469 65C396.599 64.7 396.449 64.1 396.449 63.47C396.449 62.21 397.769 61.37 400.109 61.37C402.569 61.37 403.619 62.3 403.649 64.22H406.679C406.679 60.86 404.639 58.94 400.019 58.94C395.999 58.94 393.119 60.74 393.119 63.71C393.119 64.85 393.599 65.93 394.409 66.53C395.309 67.19 396.869 67.49 399.179 67.7C400.829 67.85 402.239 68 402.959 68.27C403.739 68.54 403.949 69.05 403.949 69.62C403.949 70.97 402.749 71.81 400.019 71.81C397.139 71.81 396.149 70.76 396.149 69.05H393.119C393.119 71.96 394.949 74.24 400.049 74.24ZM410.134 79.94H413.494V74.12C413.494 73.52 413.434 71.99 413.404 71H413.434C414.064 72.92 415.984 74.24 418.924 74.24C423.184 74.24 425.884 71.12 425.884 66.32C425.884 61.85 423.214 58.94 418.984 58.94C416.044 58.94 414.064 60.38 413.464 62.63H413.434L413.494 59.18H410.134V79.94ZM418.264 71.48C415.384 71.48 413.494 69.86 413.494 67.34V66.56C413.554 63.59 415.414 61.7 418.204 61.7C420.874 61.7 422.524 63.56 422.524 66.41C422.524 69.5 420.844 71.48 418.264 71.48ZM433.088 74.24C436.358 74.24 438.128 72.92 438.608 70.73H438.638C438.638 71.93 438.548 73.28 438.488 74H441.848V64.97C441.848 61.07 439.208 58.94 434.708 58.94C430.478 58.94 427.898 60.71 427.898 63.68C427.898 63.95 427.928 64.34 427.958 64.55H431.048C431.018 64.31 431.018 64.07 431.018 63.98C431.018 62.33 432.308 61.46 434.588 61.46C437.198 61.46 438.488 62.45 438.488 64.67V65.72H432.998C429.038 65.72 427.448 67.49 427.448 69.74C427.448 72.62 429.698 74.24 433.088 74.24ZM433.778 71.72C431.738 71.72 430.538 70.94 430.538 69.59C430.538 68.42 431.378 67.76 433.298 67.76H438.488V68.03C438.488 70.31 436.688 71.72 433.778 71.72ZM458.76 67.97H455.73C455.7 70.16 454.23 71.48 451.86 71.48C449.37 71.48 447.81 69.62 447.81 66.59C447.81 63.53 449.4 61.7 451.98 61.7C454.23 61.7 455.67 63.05 455.7 65.27H458.73C458.73 61.34 456.03 58.94 451.89 58.94C447.42 58.94 444.45 61.85 444.45 66.59C444.45 70.91 446.85 73.7 450.57 74.18L449.61 76.73C450 76.67 450.96 76.55 451.98 76.55C453.24 76.55 453.63 76.88 453.63 77.51C453.63 78.29 453.09 78.92 451.86 78.92C450.63 78.92 450.18 78.56 450.06 77.81H447.69C447.81 79.37 449.04 80.54 451.86 80.54C454.77 80.54 455.97 79.1 455.97 77.48C455.97 76.13 455.16 75.26 453.51 75.26C452.67 75.26 452.28 75.5 452.04 75.65L452.01 75.62L452.55 74.21C456.3 73.91 458.76 71.66 458.76 67.97ZM468.87 74.24C473.61 74.24 476.64 71.33 476.64 66.62C476.64 61.88 473.61 58.94 468.87 58.94C464.16 58.94 461.13 61.88 461.13 66.62C461.13 71.33 464.16 74.24 468.87 74.24ZM468.87 71.48C466.14 71.48 464.49 69.62 464.49 66.62C464.49 63.59 466.14 61.7 468.87 61.7C471.6 61.7 473.28 63.59 473.28 66.62C473.28 69.62 471.6 71.48 468.87 71.48ZM8.22 118.24C11.25 118.24 13.11 116.74 13.68 114.4H13.74C13.68 115.84 13.65 117.13 13.59 118H16.95V97.21H13.59V105.79H13.56C12.96 104.05 11.22 102.94 8.43 102.94C4.02 102.94 1.23 106.03 1.23 110.5C1.23 115.12 3.93 118.24 8.22 118.24ZM8.91 115.48C6.27 115.48 4.56 113.44 4.56 110.5C4.56 107.68 6.3 105.7 8.97 105.7C11.76 105.7 13.59 107.38 13.59 110.02V110.74C13.59 113.62 11.73 115.48 8.91 115.48ZM34.2757 110.05C34.2757 105.43 31.6057 102.94 27.4057 102.94C22.7257 102.94 19.7857 105.91 19.7857 110.71C19.7857 115.36 22.7257 118.24 27.4057 118.24C31.4557 118.24 34.1557 116.23 34.2757 112.93H31.2457C31.0957 114.67 29.6257 115.63 27.4657 115.63C24.9457 115.63 23.3557 114.1 23.1757 111.25H34.2757V110.05ZM31.2457 109.21H23.2657C23.6557 106.75 25.1257 105.55 27.4357 105.55C29.8657 105.55 31.2457 106.78 31.2457 109V109.21ZM50.5927 118.24C54.8227 118.24 57.6427 115.93 57.6427 111.97H54.6127C54.5827 114.16 53.1127 115.48 50.7427 115.48C48.2527 115.48 46.6927 113.62 46.6927 110.59C46.6927 107.53 48.2827 105.7 50.8627 105.7C53.1127 105.7 54.5527 107.05 54.5827 109.27H57.6127C57.6127 105.34 54.9127 102.94 50.7727 102.94C46.3027 102.94 43.3327 105.85 43.3327 110.59C43.3327 115.33 46.2427 118.24 50.5927 118.24ZM60.4634 118H63.8234V111.52C63.8234 107.98 65.4134 105.82 67.9634 105.82C69.9434 105.82 70.9034 106.99 70.9034 109.48C70.9034 110.17 70.8434 110.92 70.7834 111.49H73.8434C73.9034 110.86 73.9934 109.66 73.9934 108.73C73.9934 105.04 72.2234 102.94 69.0134 102.94C65.9534 102.94 64.4234 104.77 63.7334 107.44H63.7034L63.8234 103.18H60.4634V118ZM90.7446 110.05C90.7446 105.43 88.0746 102.94 83.8746 102.94C79.1946 102.94 76.2546 105.91 76.2546 110.71C76.2546 115.36 79.1946 118.24 83.8746 118.24C87.9246 118.24 90.6246 116.23 90.7446 112.93H87.7146C87.5646 114.67 86.0946 115.63 83.9346 115.63C81.4146 115.63 79.8246 114.1 79.6446 111.25H90.7446V110.05ZM87.7146 109.21H79.7346C80.1246 106.75 81.5946 105.55 83.9046 105.55C86.3346 105.55 87.7146 106.78 87.7146 109V109.21ZM99.9825 118.24C104.723 118.24 107.243 116.47 107.243 113.47C107.243 112.27 106.673 111.13 105.683 110.59C104.633 109.99 103.433 109.78 101.333 109.57C99.5325 109.39 98.1225 109.24 97.4025 109C96.5325 108.7 96.3825 108.1 96.3825 107.47C96.3825 106.21 97.7025 105.37 100.043 105.37C102.503 105.37 103.553 106.3 103.583 108.22H106.613C106.613 104.86 104.573 102.94 99.9525 102.94C95.9325 102.94 93.0525 104.74 93.0525 107.71C93.0525 108.85 93.5325 109.93 94.3425 110.53C95.2425 111.19 96.8025 111.49 99.1125 111.7C100.763 111.85 102.173 112 102.893 112.27C103.673 112.54 103.883 113.05 103.883 113.62C103.883 114.97 102.683 115.81 99.9525 115.81C97.0725 115.81 96.0825 114.76 96.0825 113.05H93.0525C93.0525 115.96 94.8825 118.24 99.9825 118.24ZM116.788 118.24C121.018 118.24 123.838 115.93 123.838 111.97H120.808C120.778 114.16 119.308 115.48 116.938 115.48C114.448 115.48 112.888 113.62 112.888 110.59C112.888 107.53 114.478 105.7 117.058 105.7C119.308 105.7 120.748 107.05 120.778 109.27H123.808C123.808 105.34 121.108 102.94 116.968 102.94C112.498 102.94 109.528 105.85 109.528 110.59C109.528 115.33 112.438 118.24 116.788 118.24ZM126.749 101.44H130.199V98.14H126.749V101.44ZM126.779 118H130.139V103.18H126.779V118ZM133.496 118H136.856V110.77C136.856 107.59 138.386 105.82 140.666 105.82C142.676 105.82 143.786 107.14 143.786 109.24V118H147.146V110.65C147.146 107.56 148.646 105.82 150.986 105.82C152.996 105.82 154.046 107.14 154.046 109.3V118H157.406V108.55C157.406 105.07 155.516 102.94 152.216 102.94C149.396 102.94 147.596 104.44 147.056 106.84H147.026C146.666 104.44 144.806 102.94 141.926 102.94C139.226 102.94 137.426 104.53 136.766 107.08H136.736L136.856 103.18H133.496V118ZM174.5 110.05C174.5 105.43 171.83 102.94 167.63 102.94C162.95 102.94 160.01 105.91 160.01 110.71C160.01 115.36 162.95 118.24 167.63 118.24C171.68 118.24 174.38 116.23 174.5 112.93H171.47C171.32 114.67 169.85 115.63 167.69 115.63C165.17 115.63 163.58 114.1 163.4 111.25H174.5V110.05ZM171.47 109.21H163.49C163.88 106.75 165.35 105.55 167.66 105.55C170.09 105.55 171.47 106.78 171.47 109V109.21ZM177.258 118H180.618V110.83C180.618 107.59 182.478 105.82 185.418 105.82C188.088 105.82 189.408 107.14 189.408 109.48V118H192.768V108.73C192.768 105.07 190.458 102.94 186.708 102.94C183.258 102.94 181.338 104.47 180.528 107.14H180.498L180.618 103.18H177.258V118ZM202.413 118.18C203.643 118.18 204.663 117.97 205.113 117.82V115.15C204.693 115.27 203.733 115.42 202.893 115.42C200.853 115.42 200.133 114.46 200.133 112.54V105.91H205.233V103.18H200.133V99.82H197.343L197.193 102.04C197.103 102.88 196.893 103.18 196.323 103.18H194.433V105.91H196.773V112.72C196.773 115.99 198.363 118.18 202.413 118.18ZM214.452 118.24C219.192 118.24 222.222 115.33 222.222 110.62C222.222 105.88 219.192 102.94 214.452 102.94C209.742 102.94 206.712 105.88 206.712 110.62C206.712 115.33 209.742 118.24 214.452 118.24ZM214.452 115.48C211.722 115.48 210.072 113.62 210.072 110.62C210.072 107.59 211.722 105.7 214.452 105.7C217.182 105.7 218.862 107.59 218.862 110.62C218.862 113.62 217.182 115.48 214.452 115.48ZM245.716 110.05C245.716 105.43 243.046 102.94 238.846 102.94C234.166 102.94 231.226 105.91 231.226 110.71C231.226 115.36 234.166 118.24 238.846 118.24C242.896 118.24 245.596 116.23 245.716 112.93H242.686C242.536 114.67 241.066 115.63 238.906 115.63C236.386 115.63 234.796 114.1 234.616 111.25H245.716V110.05ZM242.686 109.21H234.706C235.096 106.75 236.566 105.55 238.876 105.55C241.306 105.55 242.686 106.78 242.686 109V109.21ZM261.823 118.18C263.053 118.18 264.073 117.97 264.523 117.82V115.15C264.103 115.27 263.143 115.42 262.303 115.42C260.263 115.42 259.543 114.46 259.543 112.54V105.91H264.643V103.18H259.543V99.82H256.753L256.603 102.04C256.513 102.88 256.303 103.18 255.733 103.18H253.843V105.91H256.183V112.72C256.183 115.99 257.773 118.18 261.823 118.18ZM267.157 118H270.517V111.52C270.517 107.98 272.107 105.82 274.657 105.82C276.637 105.82 277.597 106.99 277.597 109.48C277.597 110.17 277.537 110.92 277.477 111.49H280.537C280.597 110.86 280.687 109.66 280.687 108.73C280.687 105.04 278.917 102.94 275.707 102.94C272.647 102.94 271.117 104.77 270.427 107.44H270.397L270.517 103.18H267.157V118ZM290.689 118.24C295.429 118.24 298.459 115.33 298.459 110.62C298.459 105.88 295.429 102.94 290.689 102.94C285.979 102.94 282.949 105.88 282.949 110.62C282.949 115.33 285.979 118.24 290.689 118.24ZM290.689 115.48C287.959 115.48 286.309 113.62 286.309 110.62C286.309 107.59 287.959 105.7 290.689 105.7C293.419 105.7 295.099 107.59 295.099 110.62C295.099 113.62 293.419 115.48 290.689 115.48ZM307.973 118.24C312.203 118.24 315.023 115.93 315.023 111.97H311.993C311.963 114.16 310.493 115.48 308.123 115.48C305.633 115.48 304.073 113.62 304.073 110.59C304.073 107.53 305.663 105.7 308.243 105.7C310.493 105.7 311.933 107.05 311.963 109.27H314.993C314.993 105.34 312.293 102.94 308.153 102.94C303.683 102.94 300.713 105.85 300.713 110.59C300.713 115.33 303.623 118.24 307.973 118.24ZM322.302 118.24C325.572 118.24 327.342 116.92 327.822 114.73H327.852C327.852 115.93 327.762 117.28 327.702 118H331.062V108.97C331.062 105.07 328.422 102.94 323.922 102.94C319.692 102.94 317.112 104.71 317.112 107.68C317.112 107.95 317.142 108.34 317.172 108.55H320.262C320.232 108.31 320.232 108.07 320.232 107.98C320.232 106.33 321.522 105.46 323.802 105.46C326.412 105.46 327.702 106.45 327.702 108.67V109.72H322.212C318.252 109.72 316.662 111.49 316.662 113.74C316.662 116.62 318.912 118.24 322.302 118.24ZM322.992 115.72C320.952 115.72 319.752 114.94 319.752 113.59C319.752 112.42 320.592 111.76 322.512 111.76H327.702V112.03C327.702 114.31 325.902 115.72 322.992 115.72ZM340.864 118H344.224V110.77C344.224 107.59 345.754 105.82 348.034 105.82C350.044 105.82 351.154 107.14 351.154 109.24V118H354.514V110.65C354.514 107.56 356.014 105.82 358.354 105.82C360.364 105.82 361.414 107.14 361.414 109.3V118H364.774V108.55C364.774 105.07 362.884 102.94 359.584 102.94C356.764 102.94 354.964 104.44 354.424 106.84H354.394C354.034 104.44 352.174 102.94 349.294 102.94C346.594 102.94 344.794 104.53 344.134 107.08H344.104L344.224 103.18H340.864V118ZM373.857 101.65H376.497L379.707 97.45H376.197L373.857 101.65ZM373.917 118.24C377.217 118.24 379.287 116.68 379.917 113.86H379.947C379.947 115.42 379.887 117.01 379.797 118H383.157V103.18H379.797V109.75C379.797 113.35 377.907 115.36 374.907 115.36C372.477 115.36 371.037 114.04 371.037 111.7V103.18H367.677V112.18C367.677 116.11 370.047 118.24 373.917 118.24ZM392.954 118.18C394.184 118.18 395.204 117.97 395.654 117.82V115.15C395.234 115.27 394.274 115.42 393.434 115.42C391.394 115.42 390.674 114.46 390.674 112.54V105.91H395.774V103.18H390.674V99.82H387.884L387.734 102.04C387.644 102.88 387.434 103.18 386.864 103.18H384.974V105.91H387.314V112.72C387.314 115.99 388.904 118.18 392.954 118.18ZM404.378 118.24C407.678 118.24 409.748 116.68 410.378 113.86H410.408C410.408 115.42 410.348 117.01 410.258 118H413.618V103.18H410.258V109.75C410.258 113.35 408.368 115.36 405.368 115.36C402.938 115.36 401.498 114.04 401.498 111.7V103.18H398.138V112.18C398.138 116.11 400.508 118.24 404.378 118.24ZM424.105 118.24C428.845 118.24 431.875 115.33 431.875 110.62C431.875 105.88 428.845 102.94 424.105 102.94C419.395 102.94 416.365 105.88 416.365 110.62C416.365 115.33 419.395 118.24 424.105 118.24ZM424.105 115.48C421.375 115.48 419.725 113.62 419.725 110.62C419.725 107.59 421.375 105.7 424.105 105.7C426.835 105.7 428.515 107.59 428.515 110.62C428.515 113.62 426.835 115.48 424.105 115.48ZM440.884 118.24C445.624 118.24 448.144 116.47 448.144 113.47C448.144 112.27 447.574 111.13 446.584 110.59C445.534 109.99 444.334 109.78 442.234 109.57C440.434 109.39 439.024 109.24 438.304 109C437.434 108.7 437.284 108.1 437.284 107.47C437.284 106.21 438.604 105.37 440.944 105.37C443.404 105.37 444.454 106.3 444.484 108.22H447.514C447.514 104.86 445.474 102.94 440.854 102.94C436.834 102.94 433.954 104.74 433.954 107.71C433.954 108.85 434.434 109.93 435.244 110.53C436.144 111.19 437.704 111.49 440.014 111.7C441.664 111.85 443.074 112 443.794 112.27C444.574 112.54 444.784 113.05 444.784 113.62C444.784 114.97 443.584 115.81 440.854 115.81C437.974 115.81 436.984 114.76 436.984 113.05H433.954C433.954 115.96 435.784 118.24 440.884 118.24ZM1.68 162H5.04V154.83C5.04 151.59 6.9 149.82 9.84 149.82C12.51 149.82 13.83 151.14 13.83 153.48V162H17.19V152.73C17.19 149.07 14.88 146.94 11.13 146.94C7.68 146.94 5.76 148.47 4.95 151.14H4.92L5.04 147.18H1.68V162ZM27.5257 162.24C32.2657 162.24 35.2957 159.33 35.2957 154.62C35.2957 149.88 32.2657 146.94 27.5257 146.94C22.8157 146.94 19.7857 149.88 19.7857 154.62C19.7857 159.33 22.8157 162.24 27.5257 162.24ZM27.5257 159.48C24.7957 159.48 23.1457 157.62 23.1457 154.62C23.1457 151.59 24.7957 149.7 27.5257 149.7C30.2557 149.7 31.9357 151.59 31.9357 154.62C31.9357 157.62 30.2557 159.48 27.5257 159.48ZM44.3046 162.24C49.0446 162.24 51.5646 160.47 51.5646 157.47C51.5646 156.27 50.9946 155.13 50.0046 154.59C48.9546 153.99 47.7546 153.78 45.6546 153.57C43.8546 153.39 42.4446 153.24 41.7246 153C40.8546 152.7 40.7046 152.1 40.7046 151.47C40.7046 150.21 42.0246 149.37 44.3646 149.37C46.8246 149.37 47.8746 150.3 47.9046 152.22H50.9346C50.9346 148.86 48.8946 146.94 44.2746 146.94C40.2546 146.94 37.3746 148.74 37.3746 151.71C37.3746 152.85 37.8546 153.93 38.6646 154.53C39.5646 155.19 41.1246 155.49 43.4346 155.7C45.0846 155.85 46.4946 156 47.2146 156.27C47.9946 156.54 48.2046 157.05 48.2046 157.62C48.2046 158.97 47.0046 159.81 44.2746 159.81C41.3946 159.81 40.4046 158.76 40.4046 157.05H37.3746C37.3746 159.96 39.2046 162.24 44.3046 162.24ZM61.0493 162H64.4093V154.77C64.4093 151.59 65.9393 149.82 68.2193 149.82C70.2293 149.82 71.3393 151.14 71.3393 153.24V162H74.6993V154.65C74.6993 151.56 76.1993 149.82 78.5393 149.82C80.5493 149.82 81.5993 151.14 81.5993 153.3V162H84.9593V152.55C84.9593 149.07 83.0693 146.94 79.7693 146.94C76.9493 146.94 75.1493 148.44 74.6093 150.84H74.5793C74.2193 148.44 72.3593 146.94 69.4793 146.94C66.7793 146.94 64.9793 148.53 64.3193 151.08H64.2893L64.4093 147.18H61.0493V162ZM93.2332 162.24C96.5032 162.24 98.2732 160.92 98.7532 158.73H98.7832C98.7832 159.93 98.6932 161.28 98.6332 162H101.993V152.97C101.993 149.07 99.3532 146.94 94.8532 146.94C90.6232 146.94 88.0432 148.71 88.0432 151.68C88.0432 151.95 88.0732 152.34 88.1032 152.55H91.1932C91.1632 152.31 91.1632 152.07 91.1632 151.98C91.1632 150.33 92.4532 149.46 94.7332 149.46C97.3432 149.46 98.6332 150.45 98.6332 152.67V153.72H93.1432C89.1832 153.72 87.5932 155.49 87.5932 157.74C87.5932 160.62 89.8432 162.24 93.2332 162.24ZM93.9232 159.72C91.8832 159.72 90.6832 158.94 90.6832 157.59C90.6832 156.42 91.5232 155.76 93.4432 155.76H98.6332V156.03C98.6332 158.31 96.8332 159.72 93.9232 159.72ZM105.135 145.44H108.585V142.14H105.135V145.44ZM105.165 162H108.525V147.18H105.165V162ZM118.362 162.24C123.102 162.24 125.622 160.47 125.622 157.47C125.622 156.27 125.052 155.13 124.062 154.59C123.012 153.99 121.812 153.78 119.712 153.57C117.912 153.39 116.502 153.24 115.782 153C114.912 152.7 114.762 152.1 114.762 151.47C114.762 150.21 116.082 149.37 118.422 149.37C120.882 149.37 121.932 150.3 121.962 152.22H124.992C124.992 148.86 122.952 146.94 118.332 146.94C114.312 146.94 111.432 148.74 111.432 151.71C111.432 152.85 111.912 153.93 112.722 154.53C113.622 155.19 115.182 155.49 117.492 155.7C119.142 155.85 120.552 156 121.272 156.27C122.052 156.54 122.262 157.05 122.262 157.62C122.262 158.97 121.062 159.81 118.332 159.81C115.452 159.81 114.462 158.76 114.462 157.05H111.432C111.432 159.96 113.262 162.24 118.362 162.24ZM141.647 162.24C144.677 162.24 146.537 160.74 147.107 158.4H147.167C147.107 159.84 147.077 161.13 147.017 162H150.377V141.21H147.017V149.79H146.987C146.387 148.05 144.647 146.94 141.857 146.94C137.447 146.94 134.657 150.03 134.657 154.5C134.657 159.12 137.357 162.24 141.647 162.24ZM142.337 159.48C139.697 159.48 137.987 157.44 137.987 154.5C137.987 151.68 139.727 149.7 142.397 149.7C145.187 149.7 147.017 151.38 147.017 154.02V154.74C147.017 157.62 145.157 159.48 142.337 159.48ZM153.753 145.44H157.203V142.14H153.753V145.44ZM153.783 162H157.143V147.18H153.783V162ZM161.49 162H164.85V149.91H170.01V147.18H164.85V145.86C164.85 144.24 165.78 143.34 167.49 143.34C168.51 143.34 169.29 143.55 169.77 143.7V141.03C169.29 140.85 168.21 140.61 166.89 140.61C163.68 140.61 161.49 142.41 161.49 145.71V147.18H159.12V149.91H161.49V162ZM185.185 154.05C185.185 149.43 182.515 146.94 178.315 146.94C173.635 146.94 170.695 149.91 170.695 154.71C170.695 159.36 173.635 162.24 178.315 162.24C182.365 162.24 185.065 160.23 185.185 156.93H182.155C182.005 158.67 180.535 159.63 178.375 159.63C175.855 159.63 174.265 158.1 174.085 155.25H185.185V154.05ZM182.155 153.21H174.175C174.565 150.75 176.035 149.55 178.345 149.55C180.775 149.55 182.155 150.78 182.155 153V153.21ZM187.943 162H191.303V155.52C191.303 151.98 192.893 149.82 195.443 149.82C197.423 149.82 198.383 150.99 198.383 153.48C198.383 154.17 198.323 154.92 198.263 155.49H201.323C201.383 154.86 201.473 153.66 201.473 152.73C201.473 149.04 199.703 146.94 196.493 146.94C193.433 146.94 191.903 148.77 191.213 151.44H191.183L191.303 147.18H187.943V162ZM218.224 154.05C218.224 149.43 215.554 146.94 211.354 146.94C206.674 146.94 203.734 149.91 203.734 154.71C203.734 159.36 206.674 162.24 211.354 162.24C215.404 162.24 218.104 160.23 218.224 156.93H215.194C215.044 158.67 213.574 159.63 211.414 159.63C208.894 159.63 207.304 158.1 207.124 155.25H218.224V154.05ZM215.194 153.21H207.214C207.604 150.75 209.074 149.55 211.384 149.55C213.814 149.55 215.194 150.78 215.194 153V153.21ZM220.982 162H224.342V154.83C224.342 151.59 226.202 149.82 229.142 149.82C231.812 149.82 233.132 151.14 233.132 153.48V162H236.492V152.73C236.492 149.07 234.182 146.94 230.432 146.94C226.982 146.94 225.062 148.47 224.252 151.14H224.222L224.342 147.18H220.982V162ZM246.138 162.18C247.368 162.18 248.388 161.97 248.838 161.82V159.15C248.418 159.27 247.458 159.42 246.618 159.42C244.578 159.42 243.858 158.46 243.858 156.54V149.91H248.958V147.18H243.858V143.82H241.068L240.918 146.04C240.828 146.88 240.618 147.18 240.048 147.18H238.158V149.91H240.498V156.72C240.498 159.99 242.088 162.18 246.138 162.18ZM264.927 154.05C264.927 149.43 262.257 146.94 258.057 146.94C253.377 146.94 250.437 149.91 250.437 154.71C250.437 159.36 253.377 162.24 258.057 162.24C262.107 162.24 264.807 160.23 264.927 156.93H261.897C261.747 158.67 260.277 159.63 258.117 159.63C255.597 159.63 254.007 158.1 253.827 155.25H264.927V154.05ZM261.897 153.21H253.917C254.307 150.75 255.777 149.55 258.087 149.55C260.517 149.55 261.897 150.78 261.897 153V153.21ZM274.165 162.24C278.905 162.24 281.425 160.47 281.425 157.47C281.425 156.27 280.855 155.13 279.865 154.59C278.815 153.99 277.615 153.78 275.515 153.57C273.715 153.39 272.305 153.24 271.585 153C270.715 152.7 270.565 152.1 270.565 151.47C270.565 150.21 271.885 149.37 274.225 149.37C276.685 149.37 277.735 150.3 277.765 152.22H280.795C280.795 148.86 278.755 146.94 274.135 146.94C270.115 146.94 267.235 148.74 267.235 151.71C267.235 152.85 267.715 153.93 268.525 154.53C269.425 155.19 270.985 155.49 273.295 155.7C274.945 155.85 276.355 156 277.075 156.27C277.855 156.54 278.065 157.05 278.065 157.62C278.065 158.97 276.865 159.81 274.135 159.81C271.255 159.81 270.265 158.76 270.265 157.05H267.235C267.235 159.96 269.065 162.24 274.165 162.24ZM297.719 162.24C301.949 162.24 304.769 159.93 304.769 155.97H301.739C301.709 158.16 300.239 159.48 297.869 159.48C295.379 159.48 293.819 157.62 293.819 154.59C293.819 151.53 295.409 149.7 297.989 149.7C300.239 149.7 301.679 151.05 301.709 153.27H304.739C304.739 149.34 302.039 146.94 297.899 146.94C293.429 146.94 290.459 149.85 290.459 154.59C290.459 159.33 293.369 162.24 297.719 162.24ZM314.88 162.24C319.62 162.24 322.65 159.33 322.65 154.62C322.65 149.88 319.62 146.94 314.88 146.94C310.17 146.94 307.14 149.88 307.14 154.62C307.14 159.33 310.17 162.24 314.88 162.24ZM314.88 159.48C312.15 159.48 310.5 157.62 310.5 154.62C310.5 151.59 312.15 149.7 314.88 149.7C317.61 149.7 319.29 151.59 319.29 154.62C319.29 157.62 317.61 159.48 314.88 159.48ZM325.355 162H328.715V154.83C328.715 151.59 330.575 149.82 333.515 149.82C336.185 149.82 337.505 151.14 337.505 153.48V162H340.865V152.73C340.865 149.07 338.555 146.94 334.805 146.94C331.355 146.94 329.435 148.47 328.625 151.14H328.595L328.715 147.18H325.355V162ZM350.51 162.18C351.74 162.18 352.76 161.97 353.21 161.82V159.15C352.79 159.27 351.83 159.42 350.99 159.42C348.95 159.42 348.23 158.46 348.23 156.54V149.91H353.33V147.18H348.23V143.82H345.44L345.29 146.04C345.2 146.88 344.99 147.18 344.42 147.18H342.53V149.91H344.87V156.72C344.87 159.99 346.46 162.18 350.51 162.18ZM369.299 154.05C369.299 149.43 366.629 146.94 362.429 146.94C357.749 146.94 354.809 149.91 354.809 154.71C354.809 159.36 357.749 162.24 362.429 162.24C366.479 162.24 369.179 160.23 369.299 156.93H366.269C366.119 158.67 364.649 159.63 362.489 159.63C359.969 159.63 358.379 158.1 358.199 155.25H369.299V154.05ZM366.269 153.21H358.289C358.679 150.75 360.149 149.55 362.459 149.55C364.889 149.55 366.269 150.78 366.269 153V153.21ZM369.894 162H373.884L377.574 156.45L381.414 162H385.674L379.974 154.41L385.404 147.18H381.594L378.054 152.52L374.394 147.18H370.134L375.504 154.41L369.894 162ZM394.429 162.18C395.659 162.18 396.679 161.97 397.129 161.82V159.15C396.709 159.27 395.749 159.42 394.909 159.42C392.869 159.42 392.149 158.46 392.149 156.54V149.91H397.249V147.18H392.149V143.82H389.359L389.209 146.04C389.119 146.88 388.909 147.18 388.339 147.18H386.449V149.91H388.789V156.72C388.789 159.99 390.379 162.18 394.429 162.18ZM406.468 162.24C411.208 162.24 414.238 159.33 414.238 154.62C414.238 149.88 411.208 146.94 406.468 146.94C401.758 146.94 398.728 149.88 398.728 154.62C398.728 159.33 401.758 162.24 406.468 162.24ZM406.468 159.48C403.738 159.48 402.088 157.62 402.088 154.62C402.088 151.59 403.738 149.7 406.468 149.7C409.198 149.7 410.878 151.59 410.878 154.62C410.878 157.62 409.198 159.48 406.468 159.48ZM423.247 162.24C427.987 162.24 430.507 160.47 430.507 157.47C430.507 156.27 429.937 155.13 428.947 154.59C427.897 153.99 426.697 153.78 424.597 153.57C422.797 153.39 421.387 153.24 420.667 153C419.797 152.7 419.647 152.1 419.647 151.47C419.647 150.21 420.967 149.37 423.307 149.37C425.767 149.37 426.817 150.3 426.847 152.22H429.877C429.877 148.86 427.837 146.94 423.217 146.94C419.197 146.94 416.317 148.74 416.317 151.71C416.317 152.85 416.797 153.93 417.607 154.53C418.507 155.19 420.067 155.49 422.377 155.7C424.027 155.85 425.437 156 426.157 156.27C426.937 156.54 427.147 157.05 427.147 157.62C427.147 158.97 425.947 159.81 423.217 159.81C420.337 159.81 419.347 158.76 419.347 157.05H416.317C416.317 159.96 418.147 162.24 423.247 162.24ZM433.813 151.92H437.203V148.02H433.813V151.92ZM433.813 162H437.203V158.1H433.813V162ZM8.22 206.24C11.25 206.24 13.11 204.74 13.68 202.4H13.74C13.68 203.84 13.65 205.13 13.59 206H16.95V185.21H13.59V193.79H13.56C12.96 192.05 11.22 190.94 8.43 190.94C4.02 190.94 1.23 194.03 1.23 198.5C1.23 203.12 3.93 206.24 8.22 206.24ZM8.91 203.48C6.27 203.48 4.56 201.44 4.56 198.5C4.56 195.68 6.3 193.7 8.97 193.7C11.76 193.7 13.59 195.38 13.59 198.02V198.74C13.59 201.62 11.73 203.48 8.91 203.48ZM34.2757 198.05C34.2757 193.43 31.6057 190.94 27.4057 190.94C22.7257 190.94 19.7857 193.91 19.7857 198.71C19.7857 203.36 22.7257 206.24 27.4057 206.24C31.4557 206.24 34.1557 204.23 34.2757 200.93H31.2457C31.0957 202.67 29.6257 203.63 27.4657 203.63C24.9457 203.63 23.3557 202.1 23.1757 199.25H34.2757V198.05ZM31.2457 197.21H23.2657C23.6557 194.75 25.1257 193.55 27.4357 193.55C29.8657 193.55 31.2457 194.78 31.2457 197V197.21ZM43.5136 206.24C48.2536 206.24 50.7736 204.47 50.7736 201.47C50.7736 200.27 50.2036 199.13 49.2136 198.59C48.1636 197.99 46.9636 197.78 44.8636 197.57C43.0636 197.39 41.6536 197.24 40.9336 197C40.0636 196.7 39.9136 196.1 39.9136 195.47C39.9136 194.21 41.2336 193.37 43.5736 193.37C46.0336 193.37 47.0836 194.3 47.1136 196.22H50.1436C50.1436 192.86 48.1036 190.94 43.4836 190.94C39.4636 190.94 36.5836 192.74 36.5836 195.71C36.5836 196.85 37.0636 197.93 37.8736 198.53C38.7736 199.19 40.3336 199.49 42.6436 199.7C44.2936 199.85 45.7036 200 46.4236 200.27C47.2036 200.54 47.4136 201.05 47.4136 201.62C47.4136 202.97 46.2136 203.81 43.4836 203.81C40.6036 203.81 39.6136 202.76 39.6136 201.05H36.5836C36.5836 203.96 38.4136 206.24 43.5136 206.24ZM60.0492 206.24C63.0792 206.24 64.9392 204.74 65.5092 202.4H65.5692C65.5092 203.84 65.4792 205.13 65.4192 206H68.7792V185.21H65.4192V193.79H65.3892C64.7892 192.05 63.0492 190.94 60.2592 190.94C55.8492 190.94 53.0592 194.03 53.0592 198.5C53.0592 203.12 55.7592 206.24 60.0492 206.24ZM60.7392 203.48C58.0992 203.48 56.3892 201.44 56.3892 198.5C56.3892 195.68 58.1292 193.7 60.7992 193.7C63.5892 193.7 65.4192 195.38 65.4192 198.02V198.74C65.4192 201.62 63.5592 203.48 60.7392 203.48ZM86.1049 198.05C86.1049 193.43 83.4349 190.94 79.2349 190.94C74.5549 190.94 71.6149 193.91 71.6149 198.71C71.6149 203.36 74.5549 206.24 79.2349 206.24C83.2849 206.24 85.9849 204.23 86.1049 200.93H83.0749C82.9249 202.67 81.4549 203.63 79.2949 203.63C76.7749 203.63 75.1849 202.1 75.0049 199.25H86.1049V198.05ZM83.0749 197.21H75.0949C75.4849 194.75 76.9549 193.55 79.2649 193.55C81.6949 193.55 83.0749 194.78 83.0749 197V197.21ZM95.7019 211.94H99.0619V206.12C99.0619 205.52 99.0019 203.99 98.9719 203H99.0019C99.6319 204.92 101.552 206.24 104.492 206.24C108.752 206.24 111.452 203.12 111.452 198.32C111.452 193.85 108.782 190.94 104.552 190.94C101.612 190.94 99.6319 192.38 99.0319 194.63H99.0019L99.0619 191.18H95.7019V211.94ZM103.832 203.48C100.952 203.48 99.0619 201.86 99.0619 199.34V198.56C99.1219 195.59 100.982 193.7 103.772 193.7C106.442 193.7 108.092 195.56 108.092 198.41C108.092 201.5 106.412 203.48 103.832 203.48ZM128.237 198.05C128.237 193.43 125.567 190.94 121.367 190.94C116.687 190.94 113.747 193.91 113.747 198.71C113.747 203.36 116.687 206.24 121.367 206.24C125.417 206.24 128.117 204.23 128.237 200.93H125.207C125.057 202.67 123.587 203.63 121.427 203.63C118.907 203.63 117.317 202.1 117.137 199.25H128.237V198.05ZM125.207 197.21H117.227C117.617 194.75 119.087 193.55 121.397 193.55C123.827 193.55 125.207 194.78 125.207 197V197.21ZM144.855 199.97H141.825C141.795 202.16 140.325 203.48 137.955 203.48C135.465 203.48 133.905 201.62 133.905 198.59C133.905 195.53 135.495 193.7 138.075 193.7C140.325 193.7 141.765 195.05 141.795 197.27H144.825C144.825 193.34 142.125 190.94 137.985 190.94C133.515 190.94 130.545 193.85 130.545 198.59C130.545 202.91 132.945 205.7 136.665 206.18L135.705 208.73C136.095 208.67 137.055 208.55 138.075 208.55C139.335 208.55 139.725 208.88 139.725 209.51C139.725 210.29 139.185 210.92 137.955 210.92C136.725 210.92 136.275 210.56 136.155 209.81H133.785C133.905 211.37 135.135 212.54 137.955 212.54C140.865 212.54 142.065 211.1 142.065 209.48C142.065 208.13 141.255 207.26 139.605 207.26C138.765 207.26 138.375 207.5 138.135 207.65L138.105 207.62L138.645 206.21C142.395 205.91 144.855 203.66 144.855 199.97ZM152.134 206.24C155.404 206.24 157.174 204.92 157.654 202.73H157.684C157.684 203.93 157.594 205.28 157.534 206H160.894V196.97C160.894 193.07 158.254 190.94 153.754 190.94C149.524 190.94 146.944 192.71 146.944 195.68C146.944 195.95 146.974 196.34 147.004 196.55H150.094C150.064 196.31 150.064 196.07 150.064 195.98C150.064 194.33 151.354 193.46 153.634 193.46C156.244 193.46 157.534 194.45 157.534 196.67V197.72H152.044C148.084 197.72 146.494 199.49 146.494 201.74C146.494 204.62 148.744 206.24 152.134 206.24ZM152.824 203.72C150.784 203.72 149.584 202.94 149.584 201.59C149.584 200.42 150.424 199.76 152.344 199.76H157.534V200.03C157.534 202.31 155.734 203.72 152.824 203.72ZM170.426 206.24C175.166 206.24 177.686 204.47 177.686 201.47C177.686 200.27 177.116 199.13 176.126 198.59C175.076 197.99 173.876 197.78 171.776 197.57C169.976 197.39 168.566 197.24 167.846 197C166.976 196.7 166.826 196.1 166.826 195.47C166.826 194.21 168.146 193.37 170.486 193.37C172.946 193.37 173.996 194.3 174.026 196.22H177.056C177.056 192.86 175.016 190.94 170.396 190.94C166.376 190.94 163.496 192.74 163.496 195.71C163.496 196.85 163.976 197.93 164.786 198.53C165.686 199.19 167.246 199.49 169.556 199.7C171.206 199.85 172.616 200 173.336 200.27C174.116 200.54 174.326 201.05 174.326 201.62C174.326 202.97 173.126 203.81 170.396 203.81C167.516 203.81 166.526 202.76 166.526 201.05H163.496C163.496 203.96 165.326 206.24 170.426 206.24ZM193.711 206.24C196.741 206.24 198.601 204.74 199.171 202.4H199.231C199.171 203.84 199.141 205.13 199.081 206H202.441V185.21H199.081V193.79H199.051C198.451 192.05 196.711 190.94 193.921 190.94C189.511 190.94 186.721 194.03 186.721 198.5C186.721 203.12 189.421 206.24 193.711 206.24ZM194.401 203.48C191.761 203.48 190.051 201.44 190.051 198.5C190.051 195.68 191.791 193.7 194.461 193.7C197.251 193.7 199.081 195.38 199.081 198.02V198.74C199.081 201.62 197.221 203.48 194.401 203.48ZM219.766 198.05C219.766 193.43 217.096 190.94 212.896 190.94C208.216 190.94 205.276 193.91 205.276 198.71C205.276 203.36 208.216 206.24 212.896 206.24C216.946 206.24 219.646 204.23 219.766 200.93H216.736C216.586 202.67 215.116 203.63 212.956 203.63C210.436 203.63 208.846 202.1 208.666 199.25H219.766V198.05ZM216.736 197.21H208.756C209.146 194.75 210.616 193.55 212.926 193.55C215.356 193.55 216.736 194.78 216.736 197V197.21ZM235.813 206.24C238.843 206.24 240.703 204.74 241.273 202.4H241.333C241.273 203.84 241.243 205.13 241.183 206H244.543V185.21H241.183V193.79H241.153C240.553 192.05 238.813 190.94 236.023 190.94C231.613 190.94 228.823 194.03 228.823 198.5C228.823 203.12 231.523 206.24 235.813 206.24ZM236.503 203.48C233.863 203.48 232.153 201.44 232.153 198.5C232.153 195.68 233.893 193.7 236.563 193.7C239.353 193.7 241.183 195.38 241.183 198.02V198.74C241.183 201.62 239.323 203.48 236.503 203.48ZM261.869 198.05C261.869 193.43 259.199 190.94 254.999 190.94C250.319 190.94 247.379 193.91 247.379 198.71C247.379 203.36 250.319 206.24 254.999 206.24C259.049 206.24 261.749 204.23 261.869 200.93H258.839C258.689 202.67 257.219 203.63 255.059 203.63C252.539 203.63 250.949 202.1 250.769 199.25H261.869V198.05ZM258.839 197.21H250.859C251.249 194.75 252.719 193.55 255.029 193.55C257.459 193.55 258.839 194.78 258.839 197V197.21ZM271.107 206.24C275.847 206.24 278.367 204.47 278.367 201.47C278.367 200.27 277.797 199.13 276.807 198.59C275.757 197.99 274.557 197.78 272.457 197.57C270.657 197.39 269.247 197.24 268.527 197C267.657 196.7 267.507 196.1 267.507 195.47C267.507 194.21 268.827 193.37 271.167 193.37C273.627 193.37 274.677 194.3 274.707 196.22H277.737C277.737 192.86 275.697 190.94 271.077 190.94C267.057 190.94 264.177 192.74 264.177 195.71C264.177 196.85 264.657 197.93 265.467 198.53C266.367 199.19 267.927 199.49 270.237 199.7C271.887 199.85 273.297 200 274.017 200.27C274.797 200.54 275.007 201.05 275.007 201.62C275.007 202.97 273.807 203.81 271.077 203.81C268.197 203.81 267.207 202.76 267.207 201.05H264.177C264.177 203.96 266.007 206.24 271.107 206.24ZM281.193 189.44H284.643V186.14H281.193V189.44ZM281.223 206H284.583V191.18H281.223V206ZM298.23 203.66H293.43C292.35 203.66 291.75 203.15 291.75 202.31C291.75 201.8 291.93 201.38 292.11 201.17C292.89 201.38 293.76 201.5 294.72 201.5C298.8 201.5 301.32 199.49 301.32 196.22C301.32 195.11 301.02 194.12 300.45 193.34C300.27 192.77 300.12 192.26 300.12 191.84C300.12 191.03 300.6 190.61 301.59 190.61C302.01 190.61 302.34 190.67 302.58 190.76V188.39C302.22 188.3 301.8 188.24 301.08 188.24C299.31 188.24 298.17 188.99 298.17 190.19C298.17 190.82 298.44 191.39 298.89 191.87L298.86 191.9C297.78 191.27 296.4 190.94 294.72 190.94C290.64 190.94 288.12 192.98 288.12 196.22C288.12 198.08 288.93 199.55 290.4 200.45V200.51C289.59 200.9 289.02 201.77 289.02 203.03C289.02 204.08 289.47 204.89 290.31 205.46V205.49C288.54 205.58 287.43 206.69 287.43 208.19C287.43 210.86 290.43 212.39 295.44 212.39C300.33 212.39 303.24 210.53 303.24 207.41C303.24 205.04 301.41 203.66 298.23 203.66ZM294.72 193.34C296.82 193.34 298.11 194.45 298.11 196.22C298.11 197.99 296.82 199.1 294.72 199.1C292.62 199.1 291.33 197.99 291.33 196.22C291.33 194.45 292.62 193.34 294.72 193.34ZM295.41 210.02C292.56 210.02 290.76 209.33 290.76 207.92C290.76 206.78 291.84 206.27 293.52 206.27H297.54C299.13 206.27 299.88 206.81 299.88 207.8C299.88 209.12 298.56 210.02 295.41 210.02ZM305.704 206H309.064V198.83C309.064 195.59 310.924 193.82 313.864 193.82C316.534 193.82 317.854 195.14 317.854 197.48V206H321.214V196.73C321.214 193.07 318.904 190.94 315.154 190.94C311.704 190.94 309.784 192.47 308.974 195.14H308.944L309.064 191.18H305.704V206ZM345.049 198.05C345.049 193.43 342.379 190.94 338.179 190.94C333.499 190.94 330.559 193.91 330.559 198.71C330.559 203.36 333.499 206.24 338.179 206.24C342.229 206.24 344.929 204.23 345.049 200.93H342.019C341.869 202.67 340.399 203.63 338.239 203.63C335.719 203.63 334.129 202.1 333.949 199.25H345.049V198.05ZM342.019 197.21H334.039C334.429 194.75 335.899 193.55 338.209 193.55C340.639 193.55 342.019 194.78 342.019 197V197.21ZM361.096 206.24C364.126 206.24 365.986 204.74 366.556 202.4H366.616C366.556 203.84 366.526 205.13 366.466 206H369.826V185.21H366.466V193.79H366.436C365.836 192.05 364.096 190.94 361.306 190.94C356.896 190.94 354.106 194.03 354.106 198.5C354.106 203.12 356.806 206.24 361.096 206.24ZM361.786 203.48C359.146 203.48 357.436 201.44 357.436 198.5C357.436 195.68 359.176 193.7 361.846 193.7C364.636 193.7 366.466 195.38 366.466 198.02V198.74C366.466 201.62 364.606 203.48 361.786 203.48ZM387.152 198.05C387.152 193.43 384.482 190.94 380.282 190.94C375.602 190.94 372.662 193.91 372.662 198.71C372.662 203.36 375.602 206.24 380.282 206.24C384.332 206.24 387.032 204.23 387.152 200.93H384.122C383.972 202.67 382.502 203.63 380.342 203.63C377.822 203.63 376.232 202.1 376.052 199.25H387.152V198.05ZM384.122 197.21H376.142C376.532 194.75 378.002 193.55 380.312 193.55C382.742 193.55 384.122 194.78 384.122 197V197.21ZM396.72 206.24C400.95 206.24 403.77 203.93 403.77 199.97H400.74C400.71 202.16 399.24 203.48 396.87 203.48C394.38 203.48 392.82 201.62 392.82 198.59C392.82 195.53 394.41 193.7 396.99 193.7C399.24 193.7 400.68 195.05 400.71 197.27H403.74C403.74 193.34 401.04 190.94 396.9 190.94C392.43 190.94 389.46 193.85 389.46 198.59C389.46 203.33 392.37 206.24 396.72 206.24ZM406.68 189.44H410.13V186.14H406.68V189.44ZM406.71 206H410.07V191.18H406.71V206ZM419.907 206.24C424.647 206.24 427.167 204.47 427.167 201.47C427.167 200.27 426.597 199.13 425.607 198.59C424.557 197.99 423.357 197.78 421.257 197.57C419.457 197.39 418.047 197.24 417.327 197C416.457 196.7 416.307 196.1 416.307 195.47C416.307 194.21 417.627 193.37 419.967 193.37C422.427 193.37 423.477 194.3 423.507 196.22H426.537C426.537 192.86 424.497 190.94 419.877 190.94C415.857 190.94 412.977 192.74 412.977 195.71C412.977 196.85 413.457 197.93 414.267 198.53C415.167 199.19 416.727 199.49 419.037 199.7C420.687 199.85 422.097 200 422.817 200.27C423.597 200.54 423.807 201.05 423.807 201.62C423.807 202.97 422.607 203.81 419.877 203.81C416.997 203.81 416.007 202.76 416.007 201.05H412.977C412.977 203.96 414.807 206.24 419.907 206.24ZM431.703 189.35H433.833C434.013 187.7 434.493 187.04 435.093 187.04C435.633 187.04 435.903 187.28 436.413 187.79L436.863 188.24C437.493 188.87 438.183 189.35 439.323 189.35C440.973 189.35 442.413 188.15 442.653 184.94H440.553C440.373 186.62 439.893 187.28 439.263 187.28C438.753 187.28 438.453 187.01 437.943 186.5L437.493 186.08C436.863 185.45 436.173 184.94 435.033 184.94C433.413 184.94 431.943 186.17 431.703 189.35ZM437.193 206.24C441.933 206.24 444.963 203.33 444.963 198.62C444.963 193.88 441.933 190.94 437.193 190.94C432.483 190.94 429.453 193.88 429.453 198.62C429.453 203.33 432.483 206.24 437.193 206.24ZM437.193 203.48C434.463 203.48 432.813 201.62 432.813 198.62C432.813 195.59 434.463 193.7 437.193 193.7C439.923 193.7 441.603 195.59 441.603 198.62C441.603 201.62 439.923 203.48 437.193 203.48ZM461.707 198.05C461.707 193.43 459.037 190.94 454.837 190.94C450.157 190.94 447.217 193.91 447.217 198.71C447.217 203.36 450.157 206.24 454.837 206.24C458.887 206.24 461.587 204.23 461.707 200.93H458.677C458.527 202.67 457.057 203.63 454.897 203.63C452.377 203.63 450.787 202.1 450.607 199.25H461.707V198.05ZM458.677 197.21H450.697C451.087 194.75 452.557 193.55 454.867 193.55C457.297 193.55 458.677 194.78 458.677 197V197.21ZM470.945 206.24C475.685 206.24 478.205 204.47 478.205 201.47C478.205 200.27 477.635 199.13 476.645 198.59C475.595 197.99 474.395 197.78 472.295 197.57C470.495 197.39 469.085 197.24 468.365 197C467.495 196.7 467.345 196.1 467.345 195.47C467.345 194.21 468.665 193.37 471.005 193.37C473.465 193.37 474.515 194.3 474.545 196.22H477.575C477.575 192.86 475.535 190.94 470.915 190.94C466.895 190.94 464.015 192.74 464.015 195.71C464.015 196.85 464.495 197.93 465.305 198.53C466.205 199.19 467.765 199.49 470.075 199.7C471.725 199.85 473.135 200 473.855 200.27C474.635 200.54 474.845 201.05 474.845 201.62C474.845 202.97 473.645 203.81 470.915 203.81C468.035 203.81 467.045 202.76 467.045 201.05H464.015C464.015 203.96 465.845 206.24 470.945 206.24ZM8.22 250.24C11.25 250.24 13.11 248.74 13.68 246.4H13.74C13.68 247.84 13.65 249.13 13.59 250H16.95V229.21H13.59V237.79H13.56C12.96 236.05 11.22 234.94 8.43 234.94C4.02 234.94 1.23 238.03 1.23 242.5C1.23 247.12 3.93 250.24 8.22 250.24ZM8.91 247.48C6.27 247.48 4.56 245.44 4.56 242.5C4.56 239.68 6.3 237.7 8.97 237.7C11.76 237.7 13.59 239.38 13.59 242.02V242.74C13.59 245.62 11.73 247.48 8.91 247.48ZM34.2757 242.05C34.2757 237.43 31.6057 234.94 27.4057 234.94C22.7257 234.94 19.7857 237.91 19.7857 242.71C19.7857 247.36 22.7257 250.24 27.4057 250.24C31.4557 250.24 34.1557 248.23 34.2757 244.93H31.2457C31.0957 246.67 29.6257 247.63 27.4657 247.63C24.9457 247.63 23.3557 246.1 23.1757 243.25H34.2757V242.05ZM31.2457 241.21H23.2657C23.6557 238.75 25.1257 237.55 27.4357 237.55C29.8657 237.55 31.2457 238.78 31.2457 241V241.21ZM57.8227 242.05C57.8227 237.43 55.1527 234.94 50.9527 234.94C46.2727 234.94 43.3327 237.91 43.3327 242.71C43.3327 247.36 46.2727 250.24 50.9527 250.24C55.0027 250.24 57.7027 248.23 57.8227 244.93H54.7927C54.6427 246.67 53.1727 247.63 51.0127 247.63C48.4927 247.63 46.9027 246.1 46.7227 243.25H57.8227V242.05ZM54.7927 241.21H46.8127C47.2027 238.75 48.6727 237.55 50.9827 237.55C53.4127 237.55 54.7927 238.78 54.7927 241V241.21ZM67.0605 250.24C71.8005 250.24 74.3205 248.47 74.3205 245.47C74.3205 244.27 73.7505 243.13 72.7605 242.59C71.7105 241.99 70.5105 241.78 68.4105 241.57C66.6105 241.39 65.2005 241.24 64.4805 241C63.6105 240.7 63.4605 240.1 63.4605 239.47C63.4605 238.21 64.7805 237.37 67.1205 237.37C69.5805 237.37 70.6305 238.3 70.6605 240.22H73.6905C73.6905 236.86 71.6505 234.94 67.0305 234.94C63.0105 234.94 60.1305 236.74 60.1305 239.71C60.1305 240.85 60.6105 241.93 61.4205 242.53C62.3205 243.19 63.8805 243.49 66.1905 243.7C67.8405 243.85 69.2505 244 69.9705 244.27C70.7505 244.54 70.9605 245.05 70.9605 245.62C70.9605 246.97 69.7605 247.81 67.0305 247.81C64.1505 247.81 63.1605 246.76 63.1605 245.05H60.1305C60.1305 247.96 61.9605 250.24 67.0605 250.24ZM83.6562 250.18C84.8862 250.18 85.9062 249.97 86.3562 249.82V247.15C85.9362 247.27 84.9762 247.42 84.1362 247.42C82.0962 247.42 81.3762 246.46 81.3762 244.54V237.91H86.4762V235.18H81.3762V231.82H78.5862L78.4362 234.04C78.3462 234.88 78.1362 235.18 77.5662 235.18H75.6762V237.91H78.0162V244.72C78.0162 247.99 79.6062 250.18 83.6562 250.18ZM88.9908 250H92.3508V243.52C92.3508 239.98 93.9408 237.82 96.4908 237.82C98.4708 237.82 99.4308 238.99 99.4308 241.48C99.4308 242.17 99.3708 242.92 99.3108 243.49H102.371C102.431 242.86 102.521 241.66 102.521 240.73C102.521 237.04 100.751 234.94 97.5408 234.94C94.4808 234.94 92.9508 236.77 92.2608 239.44H92.2308L92.3508 235.18H88.9908V250ZM110.452 250.24C113.722 250.24 115.492 248.92 115.972 246.73H116.002C116.002 247.93 115.912 249.28 115.852 250H119.212V240.97C119.212 237.07 116.572 234.94 112.072 234.94C107.842 234.94 105.262 236.71 105.262 239.68C105.262 239.95 105.292 240.34 105.322 240.55H108.412C108.382 240.31 108.382 240.07 108.382 239.98C108.382 238.33 109.672 237.46 111.952 237.46C114.562 237.46 115.852 238.45 115.852 240.67V241.72H110.362C106.402 241.72 104.812 243.49 104.812 245.74C104.812 248.62 107.062 250.24 110.452 250.24ZM111.142 247.72C109.102 247.72 107.902 246.94 107.902 245.59C107.902 244.42 108.742 243.76 110.662 243.76H115.852V244.03C115.852 246.31 114.052 247.72 111.142 247.72ZM128.864 250.18C130.094 250.18 131.114 249.97 131.564 249.82V247.15C131.144 247.27 130.184 247.42 129.344 247.42C127.304 247.42 126.584 246.46 126.584 244.54V237.91H131.684V235.18H126.584V231.82H123.794L123.644 234.04C123.554 234.88 123.344 235.18 122.774 235.18H120.884V237.91H123.224V244.72C123.224 247.99 124.814 250.18 128.864 250.18ZM144.773 229.45H141.263L138.923 233.65H141.563L144.773 229.45ZM147.653 242.05C147.653 237.43 144.983 234.94 140.783 234.94C136.103 234.94 133.163 237.91 133.163 242.71C133.163 247.36 136.103 250.24 140.783 250.24C144.833 250.24 147.533 248.23 147.653 244.93H144.623C144.473 246.67 143.003 247.63 140.843 247.63C138.323 247.63 136.733 246.1 136.553 243.25H147.653V242.05ZM144.623 241.21H136.643C137.033 238.75 138.503 237.55 140.813 237.55C143.243 237.55 144.623 238.78 144.623 241V241.21ZM160.525 247.66H155.725C154.645 247.66 154.045 247.15 154.045 246.31C154.045 245.8 154.225 245.38 154.405 245.17C155.185 245.38 156.055 245.5 157.015 245.5C161.095 245.5 163.615 243.49 163.615 240.22C163.615 239.11 163.315 238.12 162.745 237.34C162.565 236.77 162.415 236.26 162.415 235.84C162.415 235.03 162.895 234.61 163.885 234.61C164.305 234.61 164.635 234.67 164.875 234.76V232.39C164.515 232.3 164.095 232.24 163.375 232.24C161.605 232.24 160.465 232.99 160.465 234.19C160.465 234.82 160.735 235.39 161.185 235.87L161.155 235.9C160.075 235.27 158.695 234.94 157.015 234.94C152.935 234.94 150.415 236.98 150.415 240.22C150.415 242.08 151.225 243.55 152.695 244.45V244.51C151.885 244.9 151.315 245.77 151.315 247.03C151.315 248.08 151.765 248.89 152.605 249.46V249.49C150.835 249.58 149.725 250.69 149.725 252.19C149.725 254.86 152.725 256.39 157.735 256.39C162.625 256.39 165.535 254.53 165.535 251.41C165.535 249.04 163.705 247.66 160.525 247.66ZM157.015 237.34C159.115 237.34 160.405 238.45 160.405 240.22C160.405 241.99 159.115 243.1 157.015 243.1C154.915 243.1 153.625 241.99 153.625 240.22C153.625 238.45 154.915 237.34 157.015 237.34ZM157.705 254.02C154.855 254.02 153.055 253.33 153.055 251.92C153.055 250.78 154.135 250.27 155.815 250.27H159.835C161.425 250.27 162.175 250.81 162.175 251.8C162.175 253.12 160.855 254.02 157.705 254.02ZM168.09 233.44H171.54V230.14H168.09V233.44ZM168.12 250H171.48V235.18H168.12V250ZM180.057 250.24C183.327 250.24 185.097 248.92 185.577 246.73H185.607C185.607 247.93 185.517 249.28 185.457 250H188.817V240.97C188.817 237.07 186.177 234.94 181.677 234.94C177.447 234.94 174.867 236.71 174.867 239.68C174.867 239.95 174.897 240.34 174.927 240.55H178.017C177.987 240.31 177.987 240.07 177.987 239.98C177.987 238.33 179.277 237.46 181.557 237.46C184.167 237.46 185.457 238.45 185.457 240.67V241.72H179.967C176.007 241.72 174.417 243.49 174.417 245.74C174.417 248.62 176.667 250.24 180.057 250.24ZM180.747 247.72C178.707 247.72 177.507 246.94 177.507 245.59C177.507 244.42 178.347 243.76 180.267 243.76H185.457V244.03C185.457 246.31 183.657 247.72 180.747 247.72ZM205.158 250.24C208.188 250.24 210.048 248.74 210.618 246.4H210.678C210.618 247.84 210.588 249.13 210.528 250H213.888V229.21H210.528V237.79H210.498C209.898 236.05 208.158 234.94 205.368 234.94C200.958 234.94 198.168 238.03 198.168 242.5C198.168 247.12 200.868 250.24 205.158 250.24ZM205.848 247.48C203.208 247.48 201.498 245.44 201.498 242.5C201.498 239.68 203.238 237.7 205.908 237.7C208.698 237.7 210.528 239.38 210.528 242.02V242.74C210.528 245.62 208.668 247.48 205.848 247.48ZM231.214 242.05C231.214 237.43 228.544 234.94 224.344 234.94C219.664 234.94 216.724 237.91 216.724 242.71C216.724 247.36 219.664 250.24 224.344 250.24C228.394 250.24 231.094 248.23 231.214 244.93H228.184C228.034 246.67 226.564 247.63 224.404 247.63C221.884 247.63 220.294 246.1 220.114 243.25H231.214V242.05ZM228.184 241.21H220.204C220.594 238.75 222.064 237.55 224.374 237.55C226.804 237.55 228.184 238.78 228.184 241V241.21ZM240.811 233.44H244.261V230.14H240.811V233.44ZM240.841 250H244.201V235.18H240.841V250ZM254.098 250.24C257.128 250.24 258.988 248.74 259.558 246.4H259.618C259.558 247.84 259.528 249.13 259.468 250H262.828V229.21H259.468V237.79H259.438C258.838 236.05 257.098 234.94 254.308 234.94C249.898 234.94 247.108 238.03 247.108 242.5C247.108 247.12 249.808 250.24 254.098 250.24ZM254.788 247.48C252.148 247.48 250.438 245.44 250.438 242.5C250.438 239.68 252.178 237.7 254.848 237.7C257.638 237.7 259.468 239.38 259.468 242.02V242.74C259.468 245.62 257.608 247.48 254.788 247.48ZM280.153 242.05C280.153 237.43 277.483 234.94 273.283 234.94C268.603 234.94 265.663 237.91 265.663 242.71C265.663 247.36 268.603 250.24 273.283 250.24C277.333 250.24 280.033 248.23 280.153 244.93H277.123C276.973 246.67 275.503 247.63 273.343 247.63C270.823 247.63 269.233 246.1 269.053 243.25H280.153V242.05ZM277.123 241.21H269.143C269.533 238.75 271.003 237.55 273.313 237.55C275.743 237.55 277.123 238.78 277.123 241V241.21ZM282.911 250H286.271V242.83C286.271 239.59 288.131 237.82 291.071 237.82C293.741 237.82 295.061 239.14 295.061 241.48V250H298.421V240.73C298.421 237.07 296.111 234.94 292.361 234.94C288.911 234.94 286.991 236.47 286.181 239.14H286.151L286.271 235.18H282.911V250ZM308.067 250.18C309.297 250.18 310.317 249.97 310.767 249.82V247.15C310.347 247.27 309.387 247.42 308.547 247.42C306.507 247.42 305.787 246.46 305.787 244.54V237.91H310.887V235.18H305.787V231.82H302.997L302.847 234.04C302.757 234.88 302.547 235.18 301.977 235.18H300.087V237.91H302.427V244.72C302.427 247.99 304.017 250.18 308.067 250.18ZM313.492 233.44H316.942V230.14H313.492V233.44ZM313.522 250H316.882V235.18H313.522V250ZM326.779 250.24C329.809 250.24 331.669 248.74 332.239 246.4H332.299C332.239 247.84 332.209 249.13 332.149 250H335.509V229.21H332.149V237.79H332.119C331.519 236.05 329.779 234.94 326.989 234.94C322.579 234.94 319.789 238.03 319.789 242.5C319.789 247.12 322.489 250.24 326.779 250.24ZM327.469 247.48C324.829 247.48 323.119 245.44 323.119 242.5C323.119 239.68 324.859 237.7 327.529 237.7C330.319 237.7 332.149 239.38 332.149 242.02V242.74C332.149 245.62 330.289 247.48 327.469 247.48ZM344.014 250.24C347.284 250.24 349.054 248.92 349.534 246.73H349.564C349.564 247.93 349.474 249.28 349.414 250H352.774V240.97C352.774 237.07 350.134 234.94 345.634 234.94C341.404 234.94 338.824 236.71 338.824 239.68C338.824 239.95 338.854 240.34 338.884 240.55H341.974C341.944 240.31 341.944 240.07 341.944 239.98C341.944 238.33 343.234 237.46 345.514 237.46C348.124 237.46 349.414 238.45 349.414 240.67V241.72H343.924C339.964 241.72 338.374 243.49 338.374 245.74C338.374 248.62 340.624 250.24 344.014 250.24ZM344.704 247.72C342.664 247.72 341.464 246.94 341.464 245.59C341.464 244.42 342.304 243.76 344.224 243.76H349.414V244.03C349.414 246.31 347.614 247.72 344.704 247.72ZM362.366 250.24C365.396 250.24 367.256 248.74 367.826 246.4H367.886C367.826 247.84 367.796 249.13 367.736 250H371.096V229.21H367.736V237.79H367.706C367.106 236.05 365.366 234.94 362.576 234.94C358.166 234.94 355.376 238.03 355.376 242.5C355.376 247.12 358.076 250.24 362.366 250.24ZM363.056 247.48C360.416 247.48 358.706 245.44 358.706 242.5C358.706 239.68 360.446 237.7 363.116 237.7C365.906 237.7 367.736 239.38 367.736 242.02V242.74C367.736 245.62 365.876 247.48 363.056 247.48ZM388.422 242.05C388.422 237.43 385.752 234.94 381.552 234.94C376.872 234.94 373.932 237.91 373.932 242.71C373.932 247.36 376.872 250.24 381.552 250.24C385.602 250.24 388.302 248.23 388.422 244.93H385.392C385.242 246.67 383.772 247.63 381.612 247.63C379.092 247.63 377.502 246.1 377.322 243.25H388.422V242.05ZM385.392 241.21H377.412C377.802 238.75 379.272 237.55 381.582 237.55C384.012 237.55 385.392 238.78 385.392 241V241.21ZM403.329 250H407.319L413.739 235.18H410.229L405.519 246.85H405.459L400.809 235.18H396.879L403.329 250ZM415.96 233.44H419.41V230.14H415.96V233.44ZM415.99 250H419.35V235.18H415.99V250ZM429.187 250.24C433.927 250.24 436.447 248.47 436.447 245.47C436.447 244.27 435.877 243.13 434.887 242.59C433.837 241.99 432.637 241.78 430.537 241.57C428.737 241.39 427.327 241.24 426.607 241C425.737 240.7 425.587 240.1 425.587 239.47C425.587 238.21 426.907 237.37 429.247 237.37C431.707 237.37 432.757 238.3 432.787 240.22H435.817C435.817 236.86 433.777 234.94 429.157 234.94C425.137 234.94 422.257 236.74 422.257 239.71C422.257 240.85 422.737 241.93 423.547 242.53C424.447 243.19 426.007 243.49 428.317 243.7C429.967 243.85 431.377 244 432.097 244.27C432.877 244.54 433.087 245.05 433.087 245.62C433.087 246.97 431.887 247.81 429.157 247.81C426.277 247.81 425.287 246.76 425.287 245.05H422.257C422.257 247.96 424.087 250.24 429.187 250.24ZM445.272 250.24C448.572 250.24 450.642 248.68 451.272 245.86H451.302C451.302 247.42 451.242 249.01 451.152 250H454.512V235.18H451.152V241.75C451.152 245.35 449.262 247.36 446.262 247.36C443.832 247.36 442.392 246.04 442.392 243.7V235.18H439.032V244.18C439.032 248.11 441.402 250.24 445.272 250.24ZM462.929 250.24C466.199 250.24 467.969 248.92 468.449 246.73H468.479C468.479 247.93 468.389 249.28 468.329 250H471.689V240.97C471.689 237.07 469.049 234.94 464.549 234.94C460.319 234.94 457.739 236.71 457.739 239.68C457.739 239.95 457.769 240.34 457.799 240.55H460.889C460.859 240.31 460.859 240.07 460.859 239.98C460.859 238.33 462.149 237.46 464.429 237.46C467.039 237.46 468.329 238.45 468.329 240.67V241.72H462.839C458.879 241.72 457.289 243.49 457.289 245.74C457.289 248.62 459.539 250.24 462.929 250.24ZM463.619 247.72C461.579 247.72 460.379 246.94 460.379 245.59C460.379 244.42 461.219 243.76 463.139 243.76H468.329V244.03C468.329 246.31 466.529 247.72 463.619 247.72ZM474.831 250H478.191V229.21H474.831V250ZM7.89 277.65H10.5L8.16 273.45H4.65L7.89 277.65ZM6.9 294.24C10.17 294.24 11.94 292.92 12.42 290.73H12.45C12.45 291.93 12.36 293.28 12.3 294H15.66V284.97C15.66 281.07 13.02 278.94 8.52 278.94C4.29 278.94 1.71 280.71 1.71 283.68C1.71 283.95 1.74 284.34 1.77 284.55H4.86C4.83 284.31 4.83 284.07 4.83 283.98C4.83 282.33 6.12 281.46 8.4 281.46C11.01 281.46 12.3 282.45 12.3 284.67V285.72H6.81C2.85 285.72 1.26 287.49 1.26 289.74C1.26 292.62 3.51 294.24 6.9 294.24ZM7.59 291.72C5.55 291.72 4.35 290.94 4.35 289.59C4.35 288.42 5.19 287.76 7.11 287.76H12.3V288.03C12.3 290.31 10.5 291.72 7.59 291.72ZM25.5213 277.44H29.0013V274.14H25.5213V277.44ZM23.7213 300.27C27.2613 300.27 28.9413 297.9 28.9413 294.42V279.18H25.5813V294.3C25.5813 296.31 24.7713 297.48 22.8813 297.48C22.1913 297.48 21.4713 297.39 20.9013 297.27V299.94C21.3213 300.06 22.3713 300.27 23.7213 300.27ZM39.5883 294.24C44.3283 294.24 47.3583 291.33 47.3583 286.62C47.3583 281.88 44.3283 278.94 39.5883 278.94C34.8783 278.94 31.8483 281.88 31.8483 286.62C31.8483 291.33 34.8783 294.24 39.5883 294.24ZM39.5883 291.48C36.8583 291.48 35.2083 289.62 35.2083 286.62C35.2083 283.59 36.8583 281.7 39.5883 281.7C42.3183 281.7 43.9983 283.59 43.9983 286.62C43.9983 289.62 42.3183 291.48 39.5883 291.48ZM60.1772 291.66H55.3772C54.2972 291.66 53.6972 291.15 53.6972 290.31C53.6972 289.8 53.8772 289.38 54.0572 289.17C54.8372 289.38 55.7072 289.5 56.6672 289.5C60.7472 289.5 63.2672 287.49 63.2672 284.22C63.2672 283.11 62.9672 282.12 62.3972 281.34C62.2172 280.77 62.0672 280.26 62.0672 279.84C62.0672 279.03 62.5472 278.61 63.5372 278.61C63.9572 278.61 64.2872 278.67 64.5272 278.76V276.39C64.1672 276.3 63.7472 276.24 63.0272 276.24C61.2572 276.24 60.1172 276.99 60.1172 278.19C60.1172 278.82 60.3872 279.39 60.8372 279.87L60.8072 279.9C59.7272 279.27 58.3472 278.94 56.6672 278.94C52.5872 278.94 50.0672 280.98 50.0672 284.22C50.0672 286.08 50.8772 287.55 52.3472 288.45V288.51C51.5372 288.9 50.9672 289.77 50.9672 291.03C50.9672 292.08 51.4172 292.89 52.2572 293.46V293.49C50.4872 293.58 49.3772 294.69 49.3772 296.19C49.3772 298.86 52.3772 300.39 57.3872 300.39C62.2772 300.39 65.1872 298.53 65.1872 295.41C65.1872 293.04 63.3572 291.66 60.1772 291.66ZM56.6672 281.34C58.7672 281.34 60.0572 282.45 60.0572 284.22C60.0572 285.99 58.7672 287.1 56.6672 287.1C54.5672 287.1 53.2772 285.99 53.2772 284.22C53.2772 282.45 54.5672 281.34 56.6672 281.34ZM57.3572 298.02C54.5072 298.02 52.7072 297.33 52.7072 295.92C52.7072 294.78 53.7872 294.27 55.4672 294.27H59.4872C61.0772 294.27 61.8272 294.81 61.8272 295.8C61.8272 297.12 60.5072 298.02 57.3572 298.02ZM72.3738 294.24C75.6438 294.24 77.4138 292.92 77.8938 290.73H77.9238C77.9238 291.93 77.8338 293.28 77.7738 294H81.1338V284.97C81.1338 281.07 78.4938 278.94 73.9938 278.94C69.7638 278.94 67.1838 280.71 67.1838 283.68C67.1838 283.95 67.2138 284.34 67.2438 284.55H70.3338C70.3038 284.31 70.3038 284.07 70.3038 283.98C70.3038 282.33 71.5938 281.46 73.8738 281.46C76.4838 281.46 77.7738 282.45 77.7738 284.67V285.72H72.2838C68.3238 285.72 66.7338 287.49 66.7338 289.74C66.7338 292.62 68.9838 294.24 72.3738 294.24ZM73.0638 291.72C71.0238 291.72 69.8238 290.94 69.8238 289.59C69.8238 288.42 70.6638 287.76 72.5838 287.76H77.7738V288.03C77.7738 290.31 75.9738 291.72 73.0638 291.72ZM90.7861 294.18C92.0161 294.18 93.0361 293.97 93.4861 293.82V291.15C93.0661 291.27 92.1061 291.42 91.2661 291.42C89.2261 291.42 88.5061 290.46 88.5061 288.54V281.91H93.6061V279.18H88.5061V275.82H85.7161L85.5661 278.04C85.4761 278.88 85.2661 279.18 84.6961 279.18H82.8061V281.91H85.1461V288.72C85.1461 291.99 86.7361 294.18 90.7861 294.18ZM96.2107 277.44H99.6607V274.14H96.2107V277.44ZM96.2407 294H99.6007V279.18H96.2407V294ZM102.958 294H106.318V286.83C106.318 283.59 108.178 281.82 111.118 281.82C113.788 281.82 115.108 283.14 115.108 285.48V294H118.468V284.73C118.468 281.07 116.158 278.94 112.408 278.94C108.958 278.94 107.038 280.47 106.228 283.14H106.198L106.318 279.18H102.958V294ZM126.733 294.24C130.003 294.24 131.773 292.92 132.253 290.73H132.283C132.283 291.93 132.193 293.28 132.133 294H135.493V284.97C135.493 281.07 132.853 278.94 128.353 278.94C124.123 278.94 121.543 280.71 121.543 283.68C121.543 283.95 121.573 284.34 121.603 284.55H124.693C124.663 284.31 124.663 284.07 124.663 283.98C124.663 282.33 125.953 281.46 128.233 281.46C130.843 281.46 132.133 282.45 132.133 284.67V285.72H126.643C122.683 285.72 121.093 287.49 121.093 289.74C121.093 292.62 123.343 294.24 126.733 294.24ZM127.423 291.72C125.383 291.72 124.183 290.94 124.183 289.59C124.183 288.42 125.023 287.76 126.943 287.76H132.133V288.03C132.133 290.31 130.333 291.72 127.423 291.72ZM145.026 294.24C149.766 294.24 152.286 292.47 152.286 289.47C152.286 288.27 151.716 287.13 150.726 286.59C149.676 285.99 148.476 285.78 146.376 285.57C144.576 285.39 143.166 285.24 142.446 285C141.576 284.7 141.426 284.1 141.426 283.47C141.426 282.21 142.746 281.37 145.086 281.37C147.546 281.37 148.596 282.3 148.626 284.22H151.656C151.656 280.86 149.616 278.94 144.996 278.94C140.976 278.94 138.096 280.74 138.096 283.71C138.096 284.85 138.576 285.93 139.386 286.53C140.286 287.19 141.846 287.49 144.156 287.7C145.806 287.85 147.216 288 147.936 288.27C148.716 288.54 148.926 289.05 148.926 289.62C148.926 290.97 147.726 291.81 144.996 291.81C142.116 291.81 141.126 290.76 141.126 289.05H138.096C138.096 291.96 139.926 294.24 145.026 294.24ZM169.06 294.24C173.8 294.24 176.83 291.33 176.83 286.62C176.83 281.88 173.8 278.94 169.06 278.94C164.35 278.94 161.32 281.88 161.32 286.62C161.32 291.33 164.35 294.24 169.06 294.24ZM169.06 291.48C166.33 291.48 164.68 289.62 164.68 286.62C164.68 283.59 166.33 281.7 169.06 281.7C171.79 281.7 173.47 283.59 173.47 286.62C173.47 289.62 171.79 291.48 169.06 291.48ZM179.535 294H182.895V286.83C182.895 283.59 184.755 281.82 187.695 281.82C190.365 281.82 191.685 283.14 191.685 285.48V294H195.045V284.73C195.045 281.07 192.735 278.94 188.985 278.94C185.535 278.94 183.615 280.47 182.805 283.14H182.775L182.895 279.18H179.535V294ZM198.181 294H201.541V273.21H198.181V294ZM204.959 277.44H208.409V274.14H204.959V277.44ZM204.989 294H208.349V279.18H204.989V294ZM211.706 294H215.066V286.83C215.066 283.59 216.926 281.82 219.866 281.82C222.536 281.82 223.856 283.14 223.856 285.48V294H227.216V284.73C227.216 281.07 224.906 278.94 221.156 278.94C217.706 278.94 215.786 280.47 214.976 283.14H214.946L215.066 279.18H211.706V294ZM244.302 286.05C244.302 281.43 241.632 278.94 237.432 278.94C232.752 278.94 229.812 281.91 229.812 286.71C229.812 291.36 232.752 294.24 237.432 294.24C241.482 294.24 244.182 292.23 244.302 288.93H241.272C241.122 290.67 239.652 291.63 237.492 291.63C234.972 291.63 233.382 290.1 233.202 287.25H244.302V286.05ZM241.272 285.21H233.292C233.682 282.75 235.152 281.55 237.462 281.55C239.892 281.55 241.272 282.78 241.272 285V285.21ZM267.849 286.05C267.849 281.43 265.179 278.94 260.979 278.94C256.299 278.94 253.359 281.91 253.359 286.71C253.359 291.36 256.299 294.24 260.979 294.24C265.029 294.24 267.729 292.23 267.849 288.93H264.819C264.669 290.67 263.199 291.63 261.039 291.63C258.519 291.63 256.929 290.1 256.749 287.25H267.849V286.05ZM264.819 285.21H256.839C257.229 282.75 258.699 281.55 261.009 281.55C263.439 281.55 264.819 282.78 264.819 285V285.21ZM270.607 294H273.967V286.77C273.967 283.59 275.497 281.82 277.777 281.82C279.787 281.82 280.897 283.14 280.897 285.24V294H284.257V286.65C284.257 283.56 285.757 281.82 288.097 281.82C290.107 281.82 291.157 283.14 291.157 285.3V294H294.517V284.55C294.517 281.07 292.627 278.94 289.327 278.94C286.507 278.94 284.707 280.44 284.167 282.84H284.137C283.777 280.44 281.917 278.94 279.037 278.94C276.337 278.94 274.537 280.53 273.877 283.08H273.847L273.967 279.18H270.607V294ZM8.49 338.24C12.72 338.24 15.54 335.93 15.54 331.97H12.51C12.48 334.16 11.01 335.48 8.64 335.48C6.15 335.48 4.59 333.62 4.59 330.59C4.59 327.53 6.18 325.7 8.76 325.7C11.01 325.7 12.45 327.05 12.48 329.27H15.51C15.51 325.34 12.81 322.94 8.67 322.94C4.2 322.94 1.23 325.85 1.23 330.59C1.23 335.33 4.14 338.24 8.49 338.24ZM22.819 338.24C26.089 338.24 27.859 336.92 28.339 334.73H28.369C28.369 335.93 28.279 337.28 28.219 338H31.579V328.97C31.579 325.07 28.939 322.94 24.439 322.94C20.209 322.94 17.629 324.71 17.629 327.68C17.629 327.95 17.659 328.34 17.689 328.55H20.779C20.749 328.31 20.749 328.07 20.749 327.98C20.749 326.33 22.039 325.46 24.319 325.46C26.929 325.46 28.219 326.45 28.219 328.67V329.72H22.729C18.769 329.72 17.179 331.49 17.179 333.74C17.179 336.62 19.429 338.24 22.819 338.24ZM23.509 335.72C21.469 335.72 20.269 334.94 20.269 333.59C20.269 332.42 21.109 331.76 23.029 331.76H28.219V332.03C28.219 334.31 26.419 335.72 23.509 335.72ZM34.6312 338H37.9912V330.77C37.9912 327.59 39.5212 325.82 41.8012 325.82C43.8112 325.82 44.9212 327.14 44.9212 329.24V338H48.2812V330.65C48.2812 327.56 49.7812 325.82 52.1212 325.82C54.1312 325.82 55.1812 327.14 55.1812 329.3V338H58.5412V328.55C58.5412 325.07 56.6512 322.94 53.3512 322.94C50.5312 322.94 48.7312 324.44 48.1912 326.84H48.1612C47.8012 324.44 45.9412 322.94 43.0612 322.94C40.3612 322.94 38.5612 324.53 37.9012 327.08H37.8712L37.9912 323.18H34.6312V338ZM61.6852 343.94H65.0452V338.12C65.0452 337.52 64.9852 335.99 64.9552 335H64.9852C65.6152 336.92 67.5352 338.24 70.4752 338.24C74.7352 338.24 77.4352 335.12 77.4352 330.32C77.4352 325.85 74.7652 322.94 70.5352 322.94C67.5952 322.94 65.6152 324.38 65.0152 326.63H64.9852L65.0452 323.18H61.6852V343.94ZM69.8152 335.48C66.9352 335.48 65.0452 333.86 65.0452 331.34V330.56C65.1052 327.59 66.9652 325.7 69.7552 325.7C72.4252 325.7 74.0752 327.56 74.0752 330.41C74.0752 333.5 72.3952 335.48 69.8152 335.48ZM94.2202 330.05C94.2202 325.43 91.5502 322.94 87.3502 322.94C82.6702 322.94 79.7302 325.91 79.7302 330.71C79.7302 335.36 82.6702 338.24 87.3502 338.24C91.4002 338.24 94.1002 336.23 94.2202 332.93H91.1902C91.0402 334.67 89.5702 335.63 87.4102 335.63C84.8902 335.63 83.3002 334.1 83.1202 331.25H94.2202V330.05ZM91.1902 329.21H83.2102C83.6002 326.75 85.0702 325.55 87.3802 325.55C89.8102 325.55 91.1902 326.78 91.1902 329V329.21ZM104.268 338.24C109.008 338.24 112.038 335.33 112.038 330.62C112.038 325.88 109.008 322.94 104.268 322.94C99.5581 322.94 96.528 325.88 96.528 330.62C96.528 335.33 99.5581 338.24 104.268 338.24ZM104.268 335.48C101.538 335.48 99.8881 333.62 99.8881 330.62C99.8881 327.59 101.538 325.7 104.268 325.7C106.998 325.7 108.678 327.59 108.678 330.62C108.678 333.62 106.998 335.48 104.268 335.48ZM114.743 338H118.103V330.83C118.103 327.59 119.963 325.82 122.903 325.82C125.573 325.82 126.893 327.14 126.893 329.48V338H130.253V328.73C130.253 325.07 127.943 322.94 124.193 322.94C120.743 322.94 118.823 324.47 118.013 327.14H117.983L118.103 323.18H114.743V338ZM138.518 338.24C141.788 338.24 143.558 336.92 144.038 334.73H144.068C144.068 335.93 143.978 337.28 143.918 338H147.278V328.97C147.278 325.07 144.638 322.94 140.138 322.94C135.908 322.94 133.328 324.71 133.328 327.68C133.328 327.95 133.358 328.34 133.388 328.55H136.478C136.448 328.31 136.448 328.07 136.448 327.98C136.448 326.33 137.738 325.46 140.018 325.46C142.628 325.46 143.918 326.45 143.918 328.67V329.72H138.428C134.468 329.72 132.878 331.49 132.878 333.74C132.878 336.62 135.128 338.24 138.518 338.24ZM139.208 335.72C137.168 335.72 135.968 334.94 135.968 333.59C135.968 332.42 136.808 331.76 138.728 331.76H143.918V332.03C143.918 334.31 142.118 335.72 139.208 335.72ZM156.931 338.18C158.161 338.18 159.181 337.97 159.631 337.82V335.15C159.211 335.27 158.251 335.42 157.411 335.42C155.371 335.42 154.651 334.46 154.651 332.54V325.91H159.751V323.18H154.651V319.82H151.861L151.711 322.04C151.621 322.88 151.411 323.18 150.841 323.18H148.951V325.91H151.291V332.72C151.291 335.99 152.881 338.18 156.931 338.18ZM168.969 338.24C173.709 338.24 176.739 335.33 176.739 330.62C176.739 325.88 173.709 322.94 168.969 322.94C164.259 322.94 161.229 325.88 161.229 330.62C161.229 335.33 164.259 338.24 168.969 338.24ZM168.969 335.48C166.239 335.48 164.589 333.62 164.589 330.62C164.589 327.59 166.239 325.7 168.969 325.7C171.699 325.7 173.379 327.59 173.379 330.62C173.379 333.62 171.699 335.48 168.969 335.48ZM185.748 338.24C190.488 338.24 193.008 336.47 193.008 333.47C193.008 332.27 192.438 331.13 191.448 330.59C190.398 329.99 189.198 329.78 187.098 329.57C185.298 329.39 183.888 329.24 183.168 329C182.298 328.7 182.148 328.1 182.148 327.47C182.148 326.21 183.468 325.37 185.808 325.37C188.268 325.37 189.318 326.3 189.348 328.22H192.378C192.378 324.86 190.338 322.94 185.718 322.94C181.698 322.94 178.818 324.74 178.818 327.71C178.818 328.85 179.298 329.93 180.108 330.53C181.008 331.19 182.568 331.49 184.878 331.7C186.528 331.85 187.938 332 188.658 332.27C189.438 332.54 189.648 333.05 189.648 333.62C189.648 334.97 188.448 335.81 185.718 335.81C182.838 335.81 181.848 334.76 181.848 333.05H178.818C178.818 335.96 180.648 338.24 185.748 338.24ZM209.033 338.24C212.063 338.24 213.923 336.74 214.493 334.4H214.553C214.493 335.84 214.463 337.13 214.403 338H217.763V317.21H214.403V325.79H214.373C213.773 324.05 212.033 322.94 209.243 322.94C204.833 322.94 202.043 326.03 202.043 330.5C202.043 335.12 204.743 338.24 209.033 338.24ZM209.723 335.48C207.083 335.48 205.373 333.44 205.373 330.5C205.373 327.68 207.113 325.7 209.783 325.7C212.573 325.7 214.403 327.38 214.403 330.02V330.74C214.403 333.62 212.543 335.48 209.723 335.48ZM235.089 330.05C235.089 325.43 232.419 322.94 228.219 322.94C223.539 322.94 220.599 325.91 220.599 330.71C220.599 335.36 223.539 338.24 228.219 338.24C232.269 338.24 234.969 336.23 235.089 332.93H232.059C231.909 334.67 230.439 335.63 228.279 335.63C225.759 335.63 224.169 334.1 223.989 331.25H235.089V330.05ZM232.059 329.21H224.079C224.469 326.75 225.939 325.55 228.249 325.55C230.679 325.55 232.059 326.78 232.059 329V329.21ZM244.836 338H248.226L248.166 321.08H248.226L254.256 338H257.256L263.286 321.08H263.346L263.256 338H266.856V318.26H261.246L255.936 333.17H255.876L250.596 318.26H244.836V338ZM280.08 338.3C285.84 338.3 290.34 334.43 290.34 328.04C290.34 321.77 285.84 317.96 280.08 317.96C274.35 317.96 269.85 321.77 269.85 328.04C269.85 334.43 274.35 338.3 280.08 338.3ZM280.08 335.3C276.45 335.3 273.51 332.57 273.51 328.04C273.51 323.63 276.45 320.96 280.08 320.96C283.74 320.96 286.68 323.63 286.68 328.04C286.68 332.57 283.74 335.3 280.08 335.3ZM293.314 338H302.344C307.234 338 309.424 335.81 309.424 332.27C309.424 329.72 307.954 328.04 305.494 327.68V327.65C307.594 327.26 308.674 325.67 308.674 323.42C308.674 320.24 306.274 318.26 301.654 318.26H293.314V338ZM296.914 326.72V321.08H301.624C304.324 321.08 305.464 322.19 305.464 323.96C305.464 325.7 304.324 326.72 301.984 326.72H296.914ZM296.914 335.18V329.06H302.164C304.624 329.06 306.004 330.2 306.004 331.91C306.004 333.92 304.984 335.18 302.284 335.18H296.914ZM327.338 338H331.508L323.498 318.26H319.118L311.078 338H314.798L316.478 333.56H325.688L327.338 338ZM317.378 331.16L321.068 321.32H321.128L324.788 331.16H317.378ZM334.242 338H337.632V334.1H334.242V338Z" fill="black"/>
</svg>
