<svg width="485" height="307" viewBox="0 0 485 307" fill="none" xmlns="http://www.w3.org/2000/svg">
<path d="M9 10.41C3.96 10.41 1.92 12.78 1.92 17.01V20.34H7.74V15.39H5.37V15.27C5.37 13.95 6.18 12.96 9 12.96V10.41ZM18.06 10.41C13.02 10.41 10.98 12.78 10.98 17.01V20.34H16.8V15.39H14.43V15.27C14.43 13.95 15.24 12.96 18.06 12.96V10.41ZM354.545 284.16C359.585 284.16 361.625 281.79 361.625 277.56V274.23H355.805V279.18H358.175V279.3C358.175 280.62 357.365 281.61 354.545 281.61V284.16ZM363.635 284.16C368.675 284.16 370.715 281.79 370.715 277.56V274.23H364.895V279.18H367.265V279.3C367.265 280.62 366.455 281.61 363.635 281.61V284.16Z" fill="#FF0000"/>
<path d="M25.803 30H29.403V13.23H35.523V10.26H19.683V13.23H25.803V30ZM36.7992 30H40.1592V23.52C40.1592 19.98 41.7492 17.82 44.2992 17.82C46.2792 17.82 47.2392 18.99 47.2392 21.48C47.2392 22.17 47.1792 22.92 47.1192 23.49H50.1792C50.2392 22.86 50.3292 21.66 50.3292 20.73C50.3292 17.04 48.5592 14.94 45.3492 14.94C42.2892 14.94 40.7592 16.77 40.0692 19.44H40.0392L40.1592 15.18H36.7992V30ZM58.2605 30.24C61.5305 30.24 63.3005 28.92 63.7805 26.73H63.8105C63.8105 27.93 63.7205 29.28 63.6605 30H67.0205V20.97C67.0205 17.07 64.3805 14.94 59.8805 14.94C55.6505 14.94 53.0705 16.71 53.0705 19.68C53.0705 19.95 53.1005 20.34 53.1305 20.55H56.2205C56.1905 20.31 56.1905 20.07 56.1905 19.98C56.1905 18.33 57.4805 17.46 59.7605 17.46C62.3705 17.46 63.6605 18.45 63.6605 20.67V21.72H58.1705C54.2105 21.72 52.6205 23.49 52.6205 25.74C52.6205 28.62 54.8705 30.24 58.2605 30.24ZM58.9505 27.72C56.9105 27.72 55.7105 26.94 55.7105 25.59C55.7105 24.42 56.5505 23.76 58.4705 23.76H63.6605V24.03C63.6605 26.31 61.8605 27.72 58.9505 27.72ZM79.1327 30.24C83.3027 30.24 85.9127 27.21 85.9127 22.32C85.9127 17.76 83.3627 14.94 79.1027 14.94C76.1627 14.94 74.1227 16.32 73.4927 18.48H73.4627C73.4927 17.76 73.5227 16.56 73.5227 15.93V9.21H70.1627V30H73.5227C73.4627 29.25 73.4027 27.9 73.4027 26.85H73.4327C74.0327 28.92 76.0727 30.24 79.1327 30.24ZM78.2627 27.48C75.3527 27.48 73.5227 25.89 73.5227 23.31V22.56C73.5227 19.56 75.3827 17.7 78.3227 17.7C80.9627 17.7 82.5527 19.5 82.5527 22.41C82.5527 25.56 80.9027 27.48 78.2627 27.48ZM93.116 30.24C96.386 30.24 98.156 28.92 98.636 26.73H98.666C98.666 27.93 98.576 29.28 98.516 30H101.876V20.97C101.876 17.07 99.236 14.94 94.736 14.94C90.506 14.94 87.926 16.71 87.926 19.68C87.926 19.95 87.956 20.34 87.986 20.55H91.076C91.046 20.31 91.046 20.07 91.046 19.98C91.046 18.33 92.336 17.46 94.616 17.46C97.226 17.46 98.516 18.45 98.516 20.67V21.72H93.026C89.066 21.72 87.476 23.49 87.476 25.74C87.476 28.62 89.726 30.24 93.116 30.24ZM93.806 27.72C91.766 27.72 90.566 26.94 90.566 25.59C90.566 24.42 91.406 23.76 93.326 23.76H98.516V24.03C98.516 26.31 96.716 27.72 93.806 27.72ZM105.018 30H108.378V9.21H105.018V30ZM111.797 30H115.157V22.98C115.157 19.65 117.017 17.82 119.987 17.82C122.657 17.82 123.977 19.14 123.977 21.48V30H127.337V20.73C127.337 17.07 125.027 14.94 121.277 14.94C117.797 14.94 115.877 16.47 115.097 19.17H115.067C115.097 18.36 115.157 16.65 115.157 15.93V9.21H111.797V30ZM135.6 30.24C138.87 30.24 140.64 28.92 141.12 26.73H141.15C141.15 27.93 141.06 29.28 141 30H144.36V20.97C144.36 17.07 141.72 14.94 137.22 14.94C132.99 14.94 130.41 16.71 130.41 19.68C130.41 19.95 130.44 20.34 130.47 20.55H133.56C133.53 20.31 133.53 20.07 133.53 19.98C133.53 18.33 134.82 17.46 137.1 17.46C139.71 17.46 141 18.45 141 20.67V21.72H135.51C131.55 21.72 129.96 23.49 129.96 25.74C129.96 28.62 132.21 30.24 135.6 30.24ZM136.29 27.72C134.25 27.72 133.05 26.94 133.05 25.59C133.05 24.42 133.89 23.76 135.81 23.76H141V24.03C141 26.31 139.2 27.72 136.29 27.72ZM147.412 30H150.772V23.52C150.772 19.98 152.362 17.82 154.912 17.82C156.892 17.82 157.852 18.99 157.852 21.48C157.852 22.17 157.792 22.92 157.732 23.49H160.792C160.852 22.86 160.942 21.66 160.942 20.73C160.942 17.04 159.172 14.94 155.962 14.94C152.902 14.94 151.372 16.77 150.682 19.44H150.652L150.772 15.18H147.412V30ZM175.622 30.24C178.892 30.24 180.662 28.92 181.142 26.73H181.172C181.172 27.93 181.082 29.28 181.022 30H184.382V20.97C184.382 17.07 181.742 14.94 177.242 14.94C173.012 14.94 170.432 16.71 170.432 19.68C170.432 19.95 170.462 20.34 170.492 20.55H173.582C173.552 20.31 173.552 20.07 173.552 19.98C173.552 18.33 174.842 17.46 177.122 17.46C179.732 17.46 181.022 18.45 181.022 20.67V21.72H175.532C171.572 21.72 169.982 23.49 169.982 25.74C169.982 28.62 172.232 30.24 175.622 30.24ZM176.312 27.72C174.272 27.72 173.072 26.94 173.072 25.59C173.072 24.42 173.912 23.76 175.832 23.76H181.022V24.03C181.022 26.31 179.222 27.72 176.312 27.72ZM199.344 35.94H202.704V15.18H199.374V18H199.344C198.744 16.11 196.974 14.94 194.094 14.94C189.954 14.94 186.984 17.91 186.984 22.47C186.984 27.21 189.684 30.24 193.944 30.24C196.794 30.24 198.774 28.8 199.314 26.58H199.344V35.94ZM194.664 27.48C192.054 27.48 190.314 25.53 190.314 22.47C190.314 19.59 192.114 17.7 194.724 17.7C197.514 17.7 199.344 19.38 199.344 21.99V22.71C199.344 25.62 197.484 27.48 194.664 27.48ZM212.08 30.24C215.38 30.24 217.45 28.68 218.08 25.86H218.11C218.11 27.42 218.05 29.01 217.96 30H221.32V15.18H217.96V21.75C217.96 25.35 216.07 27.36 213.07 27.36C210.64 27.36 209.2 26.04 209.2 23.7V15.18H205.84V24.18C205.84 28.11 208.21 30.24 212.08 30.24ZM224.606 13.44H228.056V10.14H224.606V13.44ZM224.636 30H227.996V15.18H224.636V30ZM249.263 9.45H245.753L243.413 13.65H246.053L249.263 9.45ZM252.143 22.05C252.143 17.43 249.473 14.94 245.273 14.94C240.593 14.94 237.653 17.91 237.653 22.71C237.653 27.36 240.593 30.24 245.273 30.24C249.323 30.24 252.023 28.23 252.143 24.93H249.113C248.963 26.67 247.493 27.63 245.333 27.63C242.813 27.63 241.223 26.1 241.043 23.25H252.143V22.05ZM249.113 21.21H241.133C241.523 18.75 242.993 17.55 245.303 17.55C247.733 17.55 249.113 18.78 249.113 21V21.21ZM268.189 30.24C271.219 30.24 273.079 28.74 273.649 26.4H273.709C273.649 27.84 273.619 29.13 273.559 30H276.919V9.21H273.559V17.79H273.529C272.929 16.05 271.189 14.94 268.399 14.94C263.989 14.94 261.199 18.03 261.199 22.5C261.199 27.12 263.899 30.24 268.189 30.24ZM268.879 27.48C266.239 27.48 264.529 25.44 264.529 22.5C264.529 19.68 266.269 17.7 268.939 17.7C271.729 17.7 273.559 19.38 273.559 22.02V22.74C273.559 25.62 271.699 27.48 268.879 27.48ZM280.295 13.44H283.745V10.14H280.295V13.44ZM280.325 30H283.685V15.18H280.325V30ZM288.032 30H291.392V17.91H296.552V15.18H291.392V13.86C291.392 12.24 292.322 11.34 294.032 11.34C295.052 11.34 295.832 11.55 296.312 11.7V9.03C295.832 8.85 294.752 8.61 293.432 8.61C290.222 8.61 288.032 10.41 288.032 13.71V15.18H285.662V17.91H288.032V30ZM311.728 22.05C311.728 17.43 309.058 14.94 304.858 14.94C300.178 14.94 297.238 17.91 297.238 22.71C297.238 27.36 300.178 30.24 304.858 30.24C308.908 30.24 311.608 28.23 311.728 24.93H308.698C308.548 26.67 307.078 27.63 304.918 27.63C302.398 27.63 300.808 26.1 300.628 23.25H311.728V22.05ZM308.698 21.21H300.718C301.108 18.75 302.578 17.55 304.888 17.55C307.318 17.55 308.698 18.78 308.698 21V21.21ZM314.486 30H317.846V23.52C317.846 19.98 319.436 17.82 321.986 17.82C323.966 17.82 324.926 18.99 324.926 21.48C324.926 22.17 324.866 22.92 324.806 23.49H327.866C327.926 22.86 328.016 21.66 328.016 20.73C328.016 17.04 326.246 14.94 323.036 14.94C319.976 14.94 318.446 16.77 317.756 19.44H317.726L317.846 15.18H314.486V30ZM344.767 22.05C344.767 17.43 342.097 14.94 337.897 14.94C333.217 14.94 330.277 17.91 330.277 22.71C330.277 27.36 333.217 30.24 337.897 30.24C341.947 30.24 344.647 28.23 344.767 24.93H341.737C341.587 26.67 340.117 27.63 337.957 27.63C335.437 27.63 333.847 26.1 333.667 23.25H344.767V22.05ZM341.737 21.21H333.757C334.147 18.75 335.617 17.55 337.927 17.55C340.357 17.55 341.737 18.78 341.737 21V21.21ZM347.525 30H350.885V22.83C350.885 19.59 352.745 17.82 355.685 17.82C358.355 17.82 359.675 19.14 359.675 21.48V30H363.035V20.73C363.035 17.07 360.725 14.94 356.975 14.94C353.525 14.94 351.605 16.47 350.795 19.14H350.765L350.885 15.18H347.525V30ZM372.68 30.18C373.91 30.18 374.93 29.97 375.38 29.82V27.15C374.96 27.27 374 27.42 373.16 27.42C371.12 27.42 370.4 26.46 370.4 24.54V17.91H375.5V15.18H370.4V11.82H367.61L367.46 14.04C367.37 14.88 367.16 15.18 366.59 15.18H364.7V17.91H367.04V24.72C367.04 27.99 368.63 30.18 372.68 30.18ZM391.469 22.05C391.469 17.43 388.799 14.94 384.599 14.94C379.919 14.94 376.979 17.91 376.979 22.71C376.979 27.36 379.919 30.24 384.599 30.24C388.649 30.24 391.349 28.23 391.469 24.93H388.439C388.289 26.67 386.819 27.63 384.659 27.63C382.139 27.63 380.549 26.1 380.369 23.25H391.469V22.05ZM388.439 21.21H380.459C380.849 18.75 382.319 17.55 384.629 17.55C387.059 17.55 388.439 18.78 388.439 21V21.21ZM407.516 30.24C410.546 30.24 412.406 28.74 412.976 26.4H413.036C412.976 27.84 412.946 29.13 412.886 30H416.246V9.21H412.886V17.79H412.856C412.256 16.05 410.516 14.94 407.726 14.94C403.316 14.94 400.526 18.03 400.526 22.5C400.526 27.12 403.226 30.24 407.516 30.24ZM408.206 27.48C405.566 27.48 403.856 25.44 403.856 22.5C403.856 19.68 405.596 17.7 408.266 17.7C411.056 17.7 412.886 19.38 412.886 22.02V22.74C412.886 25.62 411.026 27.48 408.206 27.48ZM433.572 22.05C433.572 17.43 430.902 14.94 426.702 14.94C422.022 14.94 419.082 17.91 419.082 22.71C419.082 27.36 422.022 30.24 426.702 30.24C430.752 30.24 433.452 28.23 433.572 24.93H430.542C430.392 26.67 428.922 27.63 426.762 27.63C424.242 27.63 422.652 26.1 422.472 23.25H433.572V22.05ZM430.542 21.21H422.562C422.952 18.75 424.422 17.55 426.732 17.55C429.162 17.55 430.542 18.78 430.542 21V21.21ZM13.59 79.94H16.95V59.18H13.62V62H13.59C12.99 60.11 11.22 58.94 8.34 58.94C4.2 58.94 1.23 61.91 1.23 66.47C1.23 71.21 3.93 74.24 8.19 74.24C11.04 74.24 13.02 72.8 13.56 70.58H13.59V79.94ZM8.91 71.48C6.3 71.48 4.56 69.53 4.56 66.47C4.56 63.59 6.36 61.7 8.97 61.7C11.76 61.7 13.59 63.38 13.59 65.99V66.71C13.59 69.62 11.73 71.48 8.91 71.48ZM26.3257 74.24C29.6257 74.24 31.6957 72.68 32.3257 69.86H32.3557C32.3557 71.42 32.2957 73.01 32.2057 74H35.5657V59.18H32.2057V65.75C32.2057 69.35 30.3157 71.36 27.3157 71.36C24.8857 71.36 23.4457 70.04 23.4457 67.7V59.18H20.0857V68.18C20.0857 72.11 22.4557 74.24 26.3257 74.24ZM43.9821 74.24C47.2521 74.24 49.0221 72.92 49.5021 70.73H49.5321C49.5321 71.93 49.4421 73.28 49.3821 74H52.7421V64.97C52.7421 61.07 50.1021 58.94 45.6021 58.94C41.3721 58.94 38.7921 60.71 38.7921 63.68C38.7921 63.95 38.8221 64.34 38.8521 64.55H41.9421C41.9121 64.31 41.9121 64.07 41.9121 63.98C41.9121 62.33 43.2021 61.46 45.4821 61.46C48.0921 61.46 49.3821 62.45 49.3821 64.67V65.72H43.8921C39.9321 65.72 38.3421 67.49 38.3421 69.74C38.3421 72.62 40.5921 74.24 43.9821 74.24ZM44.6721 71.72C42.6321 71.72 41.4321 70.94 41.4321 69.59C41.4321 68.42 42.2721 67.76 44.1921 67.76H49.3821V68.03C49.3821 70.31 47.5821 71.72 44.6721 71.72ZM55.8844 74H59.2444V53.21H55.8844V74ZM74.4827 79.94H77.8427V59.18H74.5127V62H74.4827C73.8827 60.11 72.1127 58.94 69.2327 58.94C65.0927 58.94 62.1227 61.91 62.1227 66.47C62.1227 71.21 64.8227 74.24 69.0827 74.24C71.9327 74.24 73.9127 72.8 74.4527 70.58H74.4827V79.94ZM69.8027 71.48C67.1927 71.48 65.4527 69.53 65.4527 66.47C65.4527 63.59 67.2527 61.7 69.8627 61.7C72.6527 61.7 74.4827 63.38 74.4827 65.99V66.71C74.4827 69.62 72.6227 71.48 69.8027 71.48ZM87.2184 74.24C90.5184 74.24 92.5884 72.68 93.2184 69.86H93.2484C93.2484 71.42 93.1884 73.01 93.0984 74H96.4584V59.18H93.0984V65.75C93.0984 69.35 91.2084 71.36 88.2084 71.36C85.7784 71.36 84.3384 70.04 84.3384 67.7V59.18H80.9784V68.18C80.9784 72.11 83.3484 74.24 87.2184 74.24ZM113.695 66.05C113.695 61.43 111.025 58.94 106.825 58.94C102.145 58.94 99.2048 61.91 99.2048 66.71C99.2048 71.36 102.145 74.24 106.825 74.24C110.875 74.24 113.575 72.23 113.695 68.93H110.665C110.515 70.67 109.045 71.63 106.885 71.63C104.365 71.63 102.775 70.1 102.595 67.25H113.695V66.05ZM110.665 65.21H102.685C103.075 62.75 104.545 61.55 106.855 61.55C109.285 61.55 110.665 62.78 110.665 65V65.21ZM116.453 74H119.813V67.52C119.813 63.98 121.403 61.82 123.953 61.82C125.933 61.82 126.893 62.99 126.893 65.48C126.893 66.17 126.833 66.92 126.773 67.49H129.833C129.893 66.86 129.983 65.66 129.983 64.73C129.983 61.04 128.213 58.94 125.003 58.94C121.943 58.94 120.413 60.77 119.723 63.44H119.693L119.813 59.18H116.453V74ZM146.733 74.24C151.473 74.24 154.503 71.33 154.503 66.62C154.503 61.88 151.473 58.94 146.733 58.94C142.023 58.94 138.993 61.88 138.993 66.62C138.993 71.33 142.023 74.24 146.733 74.24ZM146.733 71.48C144.003 71.48 142.353 69.62 142.353 66.62C142.353 63.59 144.003 61.7 146.733 61.7C149.463 61.7 151.143 63.59 151.143 66.62C151.143 69.62 149.463 71.48 146.733 71.48ZM163.298 74.24C166.598 74.24 168.668 72.68 169.298 69.86H169.328C169.328 71.42 169.268 73.01 169.178 74H172.538V59.18H169.178V65.75C169.178 69.35 167.288 71.36 164.288 71.36C161.858 71.36 160.418 70.04 160.418 67.7V59.18H157.058V68.18C157.058 72.11 159.428 74.24 163.298 74.24ZM182.334 74.18C183.564 74.18 184.584 73.97 185.034 73.82V71.15C184.614 71.27 183.654 71.42 182.814 71.42C180.774 71.42 180.054 70.46 180.054 68.54V61.91H185.154V59.18H180.054V55.82H177.264L177.114 58.04C177.024 58.88 176.814 59.18 176.244 59.18H174.354V61.91H176.694V68.72C176.694 71.99 178.284 74.18 182.334 74.18ZM187.669 74H191.029V67.52C191.029 63.98 192.619 61.82 195.169 61.82C197.149 61.82 198.109 62.99 198.109 65.48C198.109 66.17 198.049 66.92 197.989 67.49H201.049C201.109 66.86 201.199 65.66 201.199 64.73C201.199 61.04 199.429 58.94 196.219 58.94C193.159 58.94 191.629 60.77 190.939 63.44H190.909L191.029 59.18H187.669V74ZM211.2 74.24C215.94 74.24 218.97 71.33 218.97 66.62C218.97 61.88 215.94 58.94 211.2 58.94C206.49 58.94 203.46 61.88 203.46 66.62C203.46 71.33 206.49 74.24 211.2 74.24ZM211.2 71.48C208.47 71.48 206.82 69.62 206.82 66.62C206.82 63.59 208.47 61.7 211.2 61.7C213.93 61.7 215.61 63.59 215.61 66.62C215.61 69.62 213.93 71.48 211.2 71.48ZM228.514 74H231.874V53.21H228.514V74ZM241.292 74.24C244.592 74.24 246.662 72.68 247.292 69.86H247.322C247.322 71.42 247.262 73.01 247.172 74H250.532V59.18H247.172V65.75C247.172 69.35 245.282 71.36 242.282 71.36C239.852 71.36 238.412 70.04 238.412 67.7V59.18H235.052V68.18C235.052 72.11 237.422 74.24 241.292 74.24ZM264.019 71.66H259.219C258.139 71.66 257.539 71.15 257.539 70.31C257.539 69.8 257.719 69.38 257.899 69.17C258.679 69.38 259.549 69.5 260.509 69.5C264.589 69.5 267.109 67.49 267.109 64.22C267.109 63.11 266.809 62.12 266.239 61.34C266.059 60.77 265.909 60.26 265.909 59.84C265.909 59.03 266.389 58.61 267.379 58.61C267.799 58.61 268.129 58.67 268.369 58.76V56.39C268.009 56.3 267.589 56.24 266.869 56.24C265.099 56.24 263.959 56.99 263.959 58.19C263.959 58.82 264.229 59.39 264.679 59.87L264.649 59.9C263.569 59.27 262.189 58.94 260.509 58.94C256.429 58.94 253.909 60.98 253.909 64.22C253.909 66.08 254.719 67.55 256.189 68.45V68.51C255.379 68.9 254.809 69.77 254.809 71.03C254.809 72.08 255.259 72.89 256.099 73.46V73.49C254.329 73.58 253.219 74.69 253.219 76.19C253.219 78.86 256.219 80.39 261.229 80.39C266.119 80.39 269.029 78.53 269.029 75.41C269.029 73.04 267.199 71.66 264.019 71.66ZM260.509 61.34C262.609 61.34 263.899 62.45 263.899 64.22C263.899 65.99 262.609 67.1 260.509 67.1C258.409 67.1 257.119 65.99 257.119 64.22C257.119 62.45 258.409 61.34 260.509 61.34ZM261.199 78.02C258.349 78.02 256.549 77.33 256.549 75.92C256.549 74.78 257.629 74.27 259.309 74.27H263.329C264.919 74.27 265.669 74.81 265.669 75.8C265.669 77.12 264.349 78.02 261.199 78.02ZM276.215 74.24C279.485 74.24 281.255 72.92 281.735 70.73H281.765C281.765 71.93 281.675 73.28 281.615 74H284.975V64.97C284.975 61.07 282.335 58.94 277.835 58.94C273.605 58.94 271.025 60.71 271.025 63.68C271.025 63.95 271.055 64.34 271.085 64.55H274.175C274.145 64.31 274.145 64.07 274.145 63.98C274.145 62.33 275.435 61.46 277.715 61.46C280.325 61.46 281.615 62.45 281.615 64.67V65.72H276.125C272.165 65.72 270.575 67.49 270.575 69.74C270.575 72.62 272.825 74.24 276.215 74.24ZM276.905 71.72C274.865 71.72 273.665 70.94 273.665 69.59C273.665 68.42 274.505 67.76 276.425 67.76H281.615V68.03C281.615 70.31 279.815 71.72 276.905 71.72ZM288.027 74H291.387V67.52C291.387 63.98 292.977 61.82 295.527 61.82C297.507 61.82 298.467 62.99 298.467 65.48C298.467 66.17 298.407 66.92 298.347 67.49H301.407C301.467 66.86 301.557 65.66 301.557 64.73C301.557 61.04 299.787 58.94 296.577 58.94C293.517 58.94 291.987 60.77 291.297 63.44H291.267L291.387 59.18H288.027V74ZM305.199 67.22H306.519L307.509 57.23V53.84H304.209V57.23L305.199 67.22ZM304.149 74H307.569V70.1H304.149V74ZM322.426 74H326.026V57.23H332.146V54.26H316.306V57.23H322.426V74ZM339.364 74.24C344.104 74.24 347.134 71.33 347.134 66.62C347.134 61.88 344.104 58.94 339.364 58.94C334.654 58.94 331.624 61.88 331.624 66.62C331.624 71.33 334.654 74.24 339.364 74.24ZM339.364 71.48C336.634 71.48 334.984 69.62 334.984 66.62C334.984 63.59 336.634 61.7 339.364 61.7C342.094 61.7 343.774 63.59 343.774 66.62C343.774 69.62 342.094 71.48 339.364 71.48ZM356.379 74.24C359.409 74.24 361.269 72.74 361.839 70.4H361.899C361.839 71.84 361.809 73.13 361.749 74H365.109V53.21H361.749V61.79H361.719C361.119 60.05 359.379 58.94 356.589 58.94C352.179 58.94 349.389 62.03 349.389 66.5C349.389 71.12 352.089 74.24 356.379 74.24ZM357.069 71.48C354.429 71.48 352.719 69.44 352.719 66.5C352.719 63.68 354.459 61.7 357.129 61.7C359.919 61.7 361.749 63.38 361.749 66.02V66.74C361.749 69.62 359.889 71.48 357.069 71.48ZM375.685 74.24C380.425 74.24 383.455 71.33 383.455 66.62C383.455 61.88 380.425 58.94 375.685 58.94C370.975 58.94 367.945 61.88 367.945 66.62C367.945 71.33 370.975 74.24 375.685 74.24ZM375.685 71.48C372.955 71.48 371.305 69.62 371.305 66.62C371.305 63.59 372.955 61.7 375.685 61.7C378.415 61.7 380.095 63.59 380.095 66.62C380.095 69.62 378.415 71.48 375.685 71.48ZM392.464 74.24C397.204 74.24 399.724 72.47 399.724 69.47C399.724 68.27 399.154 67.13 398.164 66.59C397.114 65.99 395.914 65.78 393.814 65.57C392.014 65.39 390.604 65.24 389.884 65C389.014 64.7 388.864 64.1 388.864 63.47C388.864 62.21 390.184 61.37 392.524 61.37C394.984 61.37 396.034 62.3 396.064 64.22H399.094C399.094 60.86 397.054 58.94 392.434 58.94C388.414 58.94 385.534 60.74 385.534 63.71C385.534 64.85 386.014 65.93 386.824 66.53C387.724 67.19 389.284 67.49 391.594 67.7C393.244 67.85 394.654 68 395.374 68.27C396.154 68.54 396.364 69.05 396.364 69.62C396.364 70.97 395.164 71.81 392.434 71.81C389.554 71.81 388.564 70.76 388.564 69.05H385.534C385.534 71.96 387.364 74.24 392.464 74.24ZM421.118 79.94H424.478V59.18H421.148V62H421.118C420.518 60.11 418.748 58.94 415.868 58.94C411.728 58.94 408.758 61.91 408.758 66.47C408.758 71.21 411.458 74.24 415.718 74.24C418.568 74.24 420.548 72.8 421.088 70.58H421.118V79.94ZM416.438 71.48C413.828 71.48 412.088 69.53 412.088 66.47C412.088 63.59 413.888 61.7 416.498 61.7C419.288 61.7 421.118 63.38 421.118 65.99V66.71C421.118 69.62 419.258 71.48 416.438 71.48ZM433.854 74.24C437.154 74.24 439.224 72.68 439.854 69.86H439.884C439.884 71.42 439.824 73.01 439.734 74H443.094V59.18H439.734V65.75C439.734 69.35 437.844 71.36 434.844 71.36C432.414 71.36 430.974 70.04 430.974 67.7V59.18H427.614V68.18C427.614 72.11 429.984 74.24 433.854 74.24ZM460.331 66.05C460.331 61.43 457.661 58.94 453.461 58.94C448.781 58.94 445.841 61.91 445.841 66.71C445.841 71.36 448.781 74.24 453.461 74.24C457.511 74.24 460.211 72.23 460.331 68.93H457.301C457.151 70.67 455.681 71.63 453.521 71.63C451.001 71.63 449.411 70.1 449.231 67.25H460.331V66.05ZM457.301 65.21H449.321C449.711 62.75 451.181 61.55 453.491 61.55C455.921 61.55 457.301 62.78 457.301 65V65.21ZM2.67 118H6.03V105.91H11.19V103.18H6.03V101.86C6.03 100.24 6.96 99.34 8.67 99.34C9.69 99.34 10.47 99.55 10.95 99.7V97.03C10.47 96.85 9.39 96.61 8.07 96.61C4.86 96.61 2.67 98.41 2.67 101.71V103.18H0.3V105.91H2.67V118ZM17.8678 118.24C21.1378 118.24 22.9078 116.92 23.3878 114.73H23.4178C23.4178 115.93 23.3278 117.28 23.2678 118H26.6278V108.97C26.6278 105.07 23.9878 102.94 19.4878 102.94C15.2578 102.94 12.6778 104.71 12.6778 107.68C12.6778 107.95 12.7078 108.34 12.7378 108.55H15.8278C15.7978 108.31 15.7978 108.07 15.7978 107.98C15.7978 106.33 17.0878 105.46 19.3678 105.46C21.9778 105.46 23.2678 106.45 23.2678 108.67V109.72H17.7778C13.8178 109.72 12.2278 111.49 12.2278 113.74C12.2278 116.62 14.4778 118.24 17.8678 118.24ZM18.5578 115.72C16.5178 115.72 15.3178 114.94 15.3178 113.59C15.3178 112.42 16.1578 111.76 18.0778 111.76H23.2678V112.03C23.2678 114.31 21.4678 115.72 18.5578 115.72ZM29.1701 118H41.7101V115.27H33.5201V115.24L41.7101 105.25V103.18H29.4101V105.91H37.3301V105.97L29.1701 115.9V118ZM58.0277 110.05C58.0277 105.43 55.3577 102.94 51.1577 102.94C46.4777 102.94 43.5377 105.91 43.5377 110.71C43.5377 115.36 46.4777 118.24 51.1577 118.24C55.2077 118.24 57.9077 116.23 58.0277 112.93H54.9977C54.8477 114.67 53.3777 115.63 51.2177 115.63C48.6977 115.63 47.1077 114.1 46.9277 111.25H58.0277V110.05ZM54.9977 109.21H47.0177C47.4077 106.75 48.8777 105.55 51.1877 105.55C53.6177 105.55 54.9977 106.78 54.9977 109V109.21ZM60.7856 118H64.1456V110.77C64.1456 107.59 65.6756 105.82 67.9556 105.82C69.9656 105.82 71.0756 107.14 71.0756 109.24V118H74.4356V110.65C74.4356 107.56 75.9356 105.82 78.2756 105.82C80.2856 105.82 81.3356 107.14 81.3356 109.3V118H84.6956V108.55C84.6956 105.07 82.8056 102.94 79.5056 102.94C76.6856 102.94 74.8856 104.44 74.3456 106.84H74.3156C73.9556 104.44 72.0956 102.94 69.2156 102.94C66.5156 102.94 64.7156 104.53 64.0556 107.08H64.0256L64.1456 103.18H60.7856V118ZM94.5886 123.94H97.9486V118.12C97.9486 117.52 97.8886 115.99 97.8586 115H97.8886C98.5186 116.92 100.439 118.24 103.379 118.24C107.639 118.24 110.339 115.12 110.339 110.32C110.339 105.85 107.669 102.94 103.439 102.94C100.499 102.94 98.5186 104.38 97.9186 106.63H97.8886L97.9486 103.18H94.5886V123.94ZM102.719 115.48C99.8386 115.48 97.9486 113.86 97.9486 111.34V110.56C98.0086 107.59 99.8686 105.7 102.659 105.7C105.329 105.7 106.979 107.56 106.979 110.41C106.979 113.5 105.299 115.48 102.719 115.48ZM117.542 118.24C120.812 118.24 122.582 116.92 123.062 114.73H123.092C123.092 115.93 123.002 117.28 122.942 118H126.302V108.97C126.302 105.07 123.662 102.94 119.162 102.94C114.932 102.94 112.352 104.71 112.352 107.68C112.352 107.95 112.382 108.34 112.412 108.55H115.502C115.472 108.31 115.472 108.07 115.472 107.98C115.472 106.33 116.762 105.46 119.042 105.46C121.652 105.46 122.942 106.45 122.942 108.67V109.72H117.452C113.492 109.72 111.902 111.49 111.902 113.74C111.902 116.62 114.152 118.24 117.542 118.24ZM118.232 115.72C116.192 115.72 114.992 114.94 114.992 113.59C114.992 112.42 115.832 111.76 117.752 111.76H122.942V112.03C122.942 114.31 121.142 115.72 118.232 115.72ZM129.354 118H132.714V111.52C132.714 107.98 134.304 105.82 136.854 105.82C138.834 105.82 139.794 106.99 139.794 109.48C139.794 110.17 139.734 110.92 139.674 111.49H142.734C142.794 110.86 142.884 109.66 142.884 108.73C142.884 105.04 141.114 102.94 137.904 102.94C134.844 102.94 133.314 104.77 132.624 107.44H132.594L132.714 103.18H129.354V118ZM152.195 118.18C153.425 118.18 154.445 117.97 154.895 117.82V115.15C154.475 115.27 153.515 115.42 152.675 115.42C150.635 115.42 149.915 114.46 149.915 112.54V105.91H155.015V103.18H149.915V99.82H147.125L146.975 102.04C146.885 102.88 146.675 103.18 146.105 103.18H144.215V105.91H146.555V112.72C146.555 115.99 148.145 118.18 152.195 118.18ZM170.984 110.05C170.984 105.43 168.314 102.94 164.114 102.94C159.434 102.94 156.494 105.91 156.494 110.71C156.494 115.36 159.434 118.24 164.114 118.24C168.164 118.24 170.864 116.23 170.984 112.93H167.954C167.804 114.67 166.334 115.63 164.174 115.63C161.654 115.63 160.064 114.1 159.884 111.25H170.984V110.05ZM167.954 109.21H159.974C160.364 106.75 161.834 105.55 164.144 105.55C166.574 105.55 167.954 106.78 167.954 109V109.21ZM187.031 118.24C190.061 118.24 191.921 116.74 192.491 114.4H192.551C192.491 115.84 192.461 117.13 192.401 118H195.761V97.21H192.401V105.79H192.371C191.771 104.05 190.031 102.94 187.241 102.94C182.831 102.94 180.041 106.03 180.041 110.5C180.041 115.12 182.741 118.24 187.031 118.24ZM187.721 115.48C185.081 115.48 183.371 113.44 183.371 110.5C183.371 107.68 185.111 105.7 187.781 105.7C190.571 105.7 192.401 107.38 192.401 110.02V110.74C192.401 113.62 190.541 115.48 187.721 115.48ZM206.337 118.24C211.077 118.24 214.107 115.33 214.107 110.62C214.107 105.88 211.077 102.94 206.337 102.94C201.627 102.94 198.597 105.88 198.597 110.62C198.597 115.33 201.627 118.24 206.337 118.24ZM206.337 115.48C203.607 115.48 201.957 113.62 201.957 110.62C201.957 107.59 203.607 105.7 206.337 105.7C209.067 105.7 210.747 107.59 210.747 110.62C210.747 113.62 209.067 115.48 206.337 115.48ZM230.16 118.18C231.39 118.18 232.41 117.97 232.86 117.82V115.15C232.44 115.27 231.48 115.42 230.64 115.42C228.6 115.42 227.88 114.46 227.88 112.54V105.91H232.98V103.18H227.88V99.82H225.09L224.94 102.04C224.85 102.88 224.64 103.18 224.07 103.18H222.18V105.91H224.52V112.72C224.52 115.99 226.11 118.18 230.16 118.18ZM235.585 101.44H239.035V98.14H235.585V101.44ZM235.615 118H238.975V103.18H235.615V118ZM242.332 118H245.692V110.77C245.692 107.59 247.222 105.82 249.502 105.82C251.512 105.82 252.622 107.14 252.622 109.24V118H255.982V110.65C255.982 107.56 257.482 105.82 259.822 105.82C261.832 105.82 262.882 107.14 262.882 109.3V118H266.242V108.55C266.242 105.07 264.352 102.94 261.052 102.94C258.232 102.94 256.432 104.44 255.892 106.84H255.862C255.502 104.44 253.642 102.94 250.762 102.94C248.062 102.94 246.262 104.53 245.602 107.08H245.572L245.692 103.18H242.332V118ZM283.336 110.05C283.336 105.43 280.666 102.94 276.466 102.94C271.786 102.94 268.846 105.91 268.846 110.71C268.846 115.36 271.786 118.24 276.466 118.24C280.516 118.24 283.216 116.23 283.336 112.93H280.306C280.156 114.67 278.686 115.63 276.526 115.63C274.006 115.63 272.416 114.1 272.236 111.25H283.336V110.05ZM280.306 109.21H272.326C272.716 106.75 274.186 105.55 276.496 105.55C278.926 105.55 280.306 106.78 280.306 109V109.21ZM298.063 118.24C301.333 118.24 303.103 116.92 303.583 114.73H303.613C303.613 115.93 303.523 117.28 303.463 118H306.823V108.97C306.823 105.07 304.183 102.94 299.683 102.94C295.453 102.94 292.873 104.71 292.873 107.68C292.873 107.95 292.903 108.34 292.933 108.55H296.023C295.993 108.31 295.993 108.07 295.993 107.98C295.993 106.33 297.283 105.46 299.563 105.46C302.173 105.46 303.463 106.45 303.463 108.67V109.72H297.973C294.013 109.72 292.423 111.49 292.423 113.74C292.423 116.62 294.673 118.24 298.063 118.24ZM298.753 115.72C296.713 115.72 295.513 114.94 295.513 113.59C295.513 112.42 296.353 111.76 298.273 111.76H303.463V112.03C303.463 114.31 301.663 115.72 298.753 115.72ZM316.685 118.24C320.915 118.24 323.735 115.93 323.735 111.97H320.705C320.675 114.16 319.205 115.48 316.835 115.48C314.345 115.48 312.785 113.62 312.785 110.59C312.785 107.53 314.375 105.7 316.955 105.7C319.205 105.7 320.645 107.05 320.675 109.27H323.705C323.705 105.34 321.005 102.94 316.865 102.94C312.395 102.94 309.425 105.85 309.425 110.59C309.425 115.33 312.335 118.24 316.685 118.24ZM326.556 118H329.916V111.52C329.916 107.98 331.506 105.82 334.056 105.82C336.036 105.82 336.996 106.99 336.996 109.48C336.996 110.17 336.936 110.92 336.876 111.49H339.936C339.996 110.86 340.086 109.66 340.086 108.73C340.086 105.04 338.316 102.94 335.106 102.94C332.046 102.94 330.516 104.77 329.826 107.44H329.796L329.916 103.18H326.556V118ZM356.837 110.05C356.837 105.43 354.167 102.94 349.967 102.94C345.287 102.94 342.347 105.91 342.347 110.71C342.347 115.36 345.287 118.24 349.967 118.24C354.017 118.24 356.717 116.23 356.837 112.93H353.807C353.657 114.67 352.187 115.63 350.027 115.63C347.507 115.63 345.917 114.1 345.737 111.25H356.837V110.05ZM353.807 109.21H345.827C346.217 106.75 347.687 105.55 349.997 105.55C352.427 105.55 353.807 106.78 353.807 109V109.21ZM366.135 118.24C369.165 118.24 371.025 116.74 371.595 114.4H371.655C371.595 115.84 371.565 117.13 371.505 118H374.865V97.21H371.505V105.79H371.475C370.875 104.05 369.135 102.94 366.345 102.94C361.935 102.94 359.145 106.03 359.145 110.5C359.145 115.12 361.845 118.24 366.135 118.24ZM366.825 115.48C364.185 115.48 362.475 113.44 362.475 110.5C362.475 107.68 364.215 105.7 366.885 105.7C369.675 105.7 371.505 107.38 371.505 110.02V110.74C371.505 113.62 369.645 115.48 366.825 115.48ZM378.241 101.44H381.691V98.14H378.241V101.44ZM378.271 118H381.631V103.18H378.271V118ZM391.588 118.18C392.818 118.18 393.838 117.97 394.288 117.82V115.15C393.868 115.27 392.908 115.42 392.068 115.42C390.028 115.42 389.308 114.46 389.308 112.54V105.91H394.408V103.18H389.308V99.82H386.518L386.368 102.04C386.278 102.88 386.068 103.18 385.498 103.18H383.608V105.91H385.948V112.72C385.948 115.99 387.538 118.18 391.588 118.18ZM401.732 118.24C405.002 118.24 406.772 116.92 407.252 114.73H407.282C407.282 115.93 407.192 117.28 407.132 118H410.492V108.97C410.492 105.07 407.852 102.94 403.352 102.94C399.122 102.94 396.542 104.71 396.542 107.68C396.542 107.95 396.572 108.34 396.602 108.55H399.692C399.662 108.31 399.662 108.07 399.662 107.98C399.662 106.33 400.952 105.46 403.232 105.46C405.842 105.46 407.132 106.45 407.132 108.67V109.72H401.642C397.682 109.72 396.092 111.49 396.092 113.74C396.092 116.62 398.342 118.24 401.732 118.24ZM402.422 115.72C400.382 115.72 399.182 114.94 399.182 113.59C399.182 112.42 400.022 111.76 401.942 111.76H407.132V112.03C407.132 114.31 405.332 115.72 402.422 115.72ZM413.544 118H416.904V110.77C416.904 107.59 418.434 105.82 420.714 105.82C422.724 105.82 423.834 107.14 423.834 109.24V118H427.194V110.65C427.194 107.56 428.694 105.82 431.034 105.82C433.044 105.82 434.094 107.14 434.094 109.3V118H437.454V108.55C437.454 105.07 435.564 102.94 432.264 102.94C429.444 102.94 427.644 104.44 427.104 106.84H427.074C426.714 104.44 424.854 102.94 421.974 102.94C419.274 102.94 417.474 104.53 416.814 107.08H416.784L416.904 103.18H413.544V118ZM447.257 118H450.617V110.83C450.617 107.59 452.477 105.82 455.417 105.82C458.087 105.82 459.407 107.14 459.407 109.48V118H462.767V108.73C462.767 105.07 460.457 102.94 456.707 102.94C453.257 102.94 451.337 104.47 450.527 107.14H450.497L450.617 103.18H447.257V118ZM473.103 118.24C477.843 118.24 480.873 115.33 480.873 110.62C480.873 105.88 477.843 102.94 473.103 102.94C468.393 102.94 465.363 105.88 465.363 110.62C465.363 115.33 468.393 118.24 473.103 118.24ZM473.103 115.48C470.373 115.48 468.723 113.62 468.723 110.62C468.723 107.59 470.373 105.7 473.103 105.7C475.833 105.7 477.513 107.59 477.513 110.62C477.513 113.62 475.833 115.48 473.103 115.48ZM8.16 162.24C12.9 162.24 15.42 160.47 15.42 157.47C15.42 156.27 14.85 155.13 13.86 154.59C12.81 153.99 11.61 153.78 9.51 153.57C7.71 153.39 6.3 153.24 5.58 153C4.71 152.7 4.56 152.1 4.56 151.47C4.56 150.21 5.88 149.37 8.22 149.37C10.68 149.37 11.73 150.3 11.76 152.22H14.79C14.79 148.86 12.75 146.94 8.13 146.94C4.11 146.94 1.23 148.74 1.23 151.71C1.23 152.85 1.71 153.93 2.52 154.53C3.42 155.19 4.98 155.49 7.29 155.7C8.94 155.85 10.35 156 11.07 156.27C11.85 156.54 12.06 157.05 12.06 157.62C12.06 158.97 10.86 159.81 8.13 159.81C5.25 159.81 4.26 158.76 4.26 157.05H1.23C1.23 159.96 3.06 162.24 8.16 162.24ZM32.1956 154.05C32.1956 149.43 29.5256 146.94 25.3256 146.94C20.6456 146.94 17.7056 149.91 17.7056 154.71C17.7056 159.36 20.6456 162.24 25.3256 162.24C29.3756 162.24 32.0756 160.23 32.1956 156.93H29.1656C29.0156 158.67 27.5456 159.63 25.3856 159.63C22.8656 159.63 21.2756 158.1 21.0956 155.25H32.1956V154.05ZM29.1656 153.21H21.1856C21.5756 150.75 23.0456 149.55 25.3556 149.55C27.7856 149.55 29.1656 150.78 29.1656 153V153.21ZM41.0435 162.24C44.3435 162.24 46.4135 160.68 47.0435 157.86H47.0735C47.0735 159.42 47.0135 161.01 46.9235 162H50.2835V147.18H46.9235V153.75C46.9235 157.35 45.0335 159.36 42.0335 159.36C39.6035 159.36 38.1635 158.04 38.1635 155.7V147.18H34.8035V156.18C34.8035 160.11 37.1735 162.24 41.0435 162.24ZM60.319 167.94H63.679V162.12C63.679 161.52 63.619 159.99 63.589 159H63.619C64.249 160.92 66.169 162.24 69.109 162.24C73.369 162.24 76.069 159.12 76.069 154.32C76.069 149.85 73.399 146.94 69.169 146.94C66.229 146.94 64.249 148.38 63.649 150.63H63.619L63.679 147.18H60.319V167.94ZM68.449 159.48C65.569 159.48 63.679 157.86 63.679 155.34V154.56C63.739 151.59 65.599 149.7 68.389 149.7C71.059 149.7 72.709 151.56 72.709 154.41C72.709 157.5 71.029 159.48 68.449 159.48ZM78.814 162H82.174V155.52C82.174 151.98 83.764 149.82 86.314 149.82C88.294 149.82 89.254 150.99 89.254 153.48C89.254 154.17 89.194 154.92 89.134 155.49H92.194C92.254 154.86 92.344 153.66 92.344 152.73C92.344 149.04 90.574 146.94 87.364 146.94C84.304 146.94 82.774 148.77 82.084 151.44H82.054L82.174 147.18H78.814V162ZM100.695 145.65H103.335L106.545 141.45H103.035L100.695 145.65ZM102.345 162.24C107.085 162.24 110.115 159.33 110.115 154.62C110.115 149.88 107.085 146.94 102.345 146.94C97.6352 146.94 94.6052 149.88 94.6052 154.62C94.6052 159.33 97.6352 162.24 102.345 162.24ZM102.345 159.48C99.6152 159.48 97.9652 157.62 97.9652 154.62C97.9652 151.59 99.6152 149.7 102.345 149.7C105.075 149.7 106.755 151.59 106.755 154.62C106.755 157.62 105.075 159.48 102.345 159.48ZM112.91 167.94H116.27V162.12C116.27 161.52 116.21 159.99 116.18 159H116.21C116.84 160.92 118.76 162.24 121.7 162.24C125.96 162.24 128.66 159.12 128.66 154.32C128.66 149.85 125.99 146.94 121.76 146.94C118.82 146.94 116.84 148.38 116.24 150.63H116.21L116.27 147.18H112.91V167.94ZM121.04 159.48C118.16 159.48 116.27 157.86 116.27 155.34V154.56C116.33 151.59 118.19 149.7 120.98 149.7C123.65 149.7 125.3 151.56 125.3 154.41C125.3 157.5 123.62 159.48 121.04 159.48ZM131.405 162H134.765V155.52C134.765 151.98 136.355 149.82 138.905 149.82C140.885 149.82 141.845 150.99 141.845 153.48C141.845 154.17 141.785 154.92 141.725 155.49H144.785C144.845 154.86 144.935 153.66 144.935 152.73C144.935 149.04 143.165 146.94 139.955 146.94C136.895 146.94 135.365 148.77 134.675 151.44H134.645L134.765 147.18H131.405V162ZM147.736 145.44H151.186V142.14H147.736V145.44ZM147.766 162H151.126V147.18H147.766V162ZM161.773 162.24C166.513 162.24 169.543 159.33 169.543 154.62C169.543 149.88 166.513 146.94 161.773 146.94C157.063 146.94 154.033 149.88 154.033 154.62C154.033 159.33 157.063 162.24 161.773 162.24ZM161.773 159.48C159.043 159.48 157.393 157.62 157.393 154.62C157.393 151.59 159.043 149.7 161.773 149.7C164.503 149.7 166.183 151.59 166.183 154.62C166.183 157.62 164.503 159.48 161.773 159.48ZM179.087 167.94H182.447V162.12C182.447 161.52 182.387 159.99 182.357 159H182.387C183.017 160.92 184.937 162.24 187.877 162.24C192.137 162.24 194.837 159.12 194.837 154.32C194.837 149.85 192.167 146.94 187.937 146.94C184.997 146.94 183.017 148.38 182.417 150.63H182.387L182.447 147.18H179.087V167.94ZM187.217 159.48C184.337 159.48 182.447 157.86 182.447 155.34V154.56C182.507 151.59 184.367 149.7 187.157 149.7C189.827 149.7 191.477 151.56 191.477 154.41C191.477 157.5 189.797 159.48 187.217 159.48ZM204.872 162.24C209.612 162.24 212.642 159.33 212.642 154.62C212.642 149.88 209.612 146.94 204.872 146.94C200.162 146.94 197.132 149.88 197.132 154.62C197.132 159.33 200.162 162.24 204.872 162.24ZM204.872 159.48C202.142 159.48 200.492 157.62 200.492 154.62C200.492 151.59 202.142 149.7 204.872 149.7C207.602 149.7 209.282 151.59 209.282 154.62C209.282 157.62 207.602 159.48 204.872 159.48ZM221.712 162.18C222.942 162.18 223.962 161.97 224.412 161.82V159.15C223.992 159.27 223.032 159.42 222.192 159.42C220.152 159.42 219.432 158.46 219.432 156.54V149.91H224.532V147.18H219.432V143.82H216.642L216.492 146.04C216.402 146.88 216.192 147.18 215.622 147.18H213.732V149.91H216.072V156.72C216.072 159.99 217.662 162.18 221.712 162.18ZM240.501 154.05C240.501 149.43 237.831 146.94 233.631 146.94C228.951 146.94 226.011 149.91 226.011 154.71C226.011 159.36 228.951 162.24 233.631 162.24C237.681 162.24 240.381 160.23 240.501 156.93H237.471C237.321 158.67 235.851 159.63 233.691 159.63C231.171 159.63 229.581 158.1 229.401 155.25H240.501V154.05ZM237.471 153.21H229.491C229.881 150.75 231.351 149.55 233.661 149.55C236.091 149.55 237.471 150.78 237.471 153V153.21ZM243.259 162H246.619V154.83C246.619 151.59 248.479 149.82 251.419 149.82C254.089 149.82 255.409 151.14 255.409 153.48V162H258.769V152.73C258.769 149.07 256.459 146.94 252.709 146.94C249.259 146.94 247.339 148.47 246.529 151.14H246.499L246.619 147.18H243.259V162ZM268.624 162.24C272.854 162.24 275.674 159.93 275.674 155.97H272.644C272.614 158.16 271.144 159.48 268.774 159.48C266.284 159.48 264.724 157.62 264.724 154.59C264.724 151.53 266.314 149.7 268.894 149.7C271.144 149.7 272.584 151.05 272.614 153.27H275.644C275.644 149.34 272.944 146.94 268.804 146.94C264.334 146.94 261.364 149.85 261.364 154.59C261.364 159.33 264.274 162.24 268.624 162.24ZM278.585 145.44H282.035V142.14H278.585V145.44ZM278.615 162H281.975V147.18H278.615V162ZM290.552 162.24C293.822 162.24 295.592 160.92 296.072 158.73H296.102C296.102 159.93 296.012 161.28 295.952 162H299.312V152.97C299.312 149.07 296.672 146.94 292.172 146.94C287.942 146.94 285.362 148.71 285.362 151.68C285.362 151.95 285.392 152.34 285.422 152.55H288.512C288.482 152.31 288.482 152.07 288.482 151.98C288.482 150.33 289.772 149.46 292.052 149.46C294.662 149.46 295.952 150.45 295.952 152.67V153.72H290.462C286.502 153.72 284.912 155.49 284.912 157.74C284.912 160.62 287.162 162.24 290.552 162.24ZM291.242 159.72C289.202 159.72 288.002 158.94 288.002 157.59C288.002 156.42 288.842 155.76 290.762 155.76H295.952V156.03C295.952 158.31 294.152 159.72 291.242 159.72ZM302.454 162H305.814V141.21H302.454V162ZM329.932 154.05C329.932 149.43 327.262 146.94 323.062 146.94C318.382 146.94 315.442 149.91 315.442 154.71C315.442 159.36 318.382 162.24 323.062 162.24C327.112 162.24 329.812 160.23 329.932 156.93H326.902C326.752 158.67 325.282 159.63 323.122 159.63C320.602 159.63 319.012 158.1 318.832 155.25H329.932V154.05ZM326.902 153.21H318.922C319.312 150.75 320.782 149.55 323.092 149.55C325.522 149.55 326.902 150.78 326.902 153V153.21ZM339.439 162H342.799V154.83C342.799 151.59 344.659 149.82 347.599 149.82C350.269 149.82 351.589 151.14 351.589 153.48V162H354.949V152.73C354.949 149.07 352.639 146.94 348.889 146.94C345.439 146.94 343.519 148.47 342.709 151.14H342.679L342.799 147.18H339.439V162ZM365.284 162.24C370.024 162.24 373.054 159.33 373.054 154.62C373.054 149.88 370.024 146.94 365.284 146.94C360.574 146.94 357.544 149.88 357.544 154.62C357.544 159.33 360.574 162.24 365.284 162.24ZM365.284 159.48C362.554 159.48 360.904 157.62 360.904 154.62C360.904 151.59 362.554 149.7 365.284 149.7C368.014 149.7 369.694 151.59 369.694 154.62C369.694 157.62 368.014 159.48 365.284 159.48ZM1.77 211.94H5.13V206.12C5.13 205.52 5.07 203.99 5.04 203H5.07C5.7 204.92 7.62 206.24 10.56 206.24C14.82 206.24 17.52 203.12 17.52 198.32C17.52 193.85 14.85 190.94 10.62 190.94C7.68 190.94 5.7 192.38 5.1 194.63H5.07L5.13 191.18H1.77V211.94ZM9.9 203.48C7.02 203.48 5.13 201.86 5.13 199.34V198.56C5.19 195.59 7.05 193.7 9.84 193.7C12.51 193.7 14.16 195.56 14.16 198.41C14.16 201.5 12.48 203.48 9.9 203.48ZM20.265 206H23.625V199.52C23.625 195.98 25.215 193.82 27.765 193.82C29.745 193.82 30.705 194.99 30.705 197.48C30.705 198.17 30.645 198.92 30.585 199.49H33.645C33.705 198.86 33.795 197.66 33.795 196.73C33.795 193.04 32.025 190.94 28.815 190.94C25.755 190.94 24.225 192.77 23.535 195.44H23.505L23.625 191.18H20.265V206ZM43.7962 206.24C48.5362 206.24 51.5662 203.33 51.5662 198.62C51.5662 193.88 48.5362 190.94 43.7962 190.94C39.0862 190.94 36.0562 193.88 36.0562 198.62C36.0562 203.33 39.0862 206.24 43.7962 206.24ZM43.7962 203.48C41.0662 203.48 39.4162 201.62 39.4162 198.62C39.4162 195.59 41.0662 193.7 43.7962 193.7C46.5262 193.7 48.2062 195.59 48.2062 198.62C48.2062 201.62 46.5262 203.48 43.7962 203.48ZM54.3609 211.94H57.7209V206.12C57.7209 205.52 57.6609 203.99 57.6309 203H57.6609C58.2909 204.92 60.2109 206.24 63.1509 206.24C67.4109 206.24 70.1109 203.12 70.1109 198.32C70.1109 193.85 67.4409 190.94 63.2109 190.94C60.2709 190.94 58.2909 192.38 57.6909 194.63H57.6609L57.7209 191.18H54.3609V211.94ZM62.4909 203.48C59.6109 203.48 57.7209 201.86 57.7209 199.34V198.56C57.7809 195.59 59.6409 193.7 62.4309 193.7C65.1009 193.7 66.7509 195.56 66.7509 198.41C66.7509 201.5 65.0709 203.48 62.4909 203.48ZM78.4959 189.65H81.1359L84.3459 185.45H80.8359L78.4959 189.65ZM80.1459 206.24C84.8859 206.24 87.9159 203.33 87.9159 198.62C87.9159 193.88 84.8859 190.94 80.1459 190.94C75.4359 190.94 72.4059 193.88 72.4059 198.62C72.4059 203.33 75.4359 206.24 80.1459 206.24ZM80.1459 203.48C77.4159 203.48 75.7659 201.62 75.7659 198.62C75.7659 195.59 77.4159 193.7 80.1459 193.7C82.8759 193.7 84.5559 195.59 84.5559 198.62C84.5559 201.62 82.8759 203.48 80.1459 203.48ZM96.9248 206.24C101.665 206.24 104.185 204.47 104.185 201.47C104.185 200.27 103.615 199.13 102.625 198.59C101.575 197.99 100.375 197.78 98.2748 197.57C96.4748 197.39 95.0648 197.24 94.3448 197C93.4748 196.7 93.3248 196.1 93.3248 195.47C93.3248 194.21 94.6448 193.37 96.9848 193.37C99.4448 193.37 100.495 194.3 100.525 196.22H103.555C103.555 192.86 101.515 190.94 96.8948 190.94C92.8748 190.94 89.9948 192.74 89.9948 195.71C89.9948 196.85 90.4748 197.93 91.2848 198.53C92.1848 199.19 93.7448 199.49 96.0548 199.7C97.7048 199.85 99.1148 200 99.8348 200.27C100.615 200.54 100.825 201.05 100.825 201.62C100.825 202.97 99.6248 203.81 96.8948 203.81C94.0148 203.81 93.0248 202.76 93.0248 201.05H89.9948C89.9948 203.96 91.8248 206.24 96.9248 206.24ZM107.01 189.44H110.46V186.14H107.01V189.44ZM107.04 206H110.4V191.18H107.04V206ZM120.357 206.18C121.587 206.18 122.607 205.97 123.057 205.82V203.15C122.637 203.27 121.677 203.42 120.837 203.42C118.797 203.42 118.077 202.46 118.077 200.54V193.91H123.177V191.18H118.077V187.82H115.287L115.137 190.04C115.047 190.88 114.837 191.18 114.267 191.18H112.377V193.91H114.717V200.72C114.717 203.99 116.307 206.18 120.357 206.18ZM132.396 206.24C137.136 206.24 140.166 203.33 140.166 198.62C140.166 193.88 137.136 190.94 132.396 190.94C127.686 190.94 124.656 193.88 124.656 198.62C124.656 203.33 127.686 206.24 132.396 206.24ZM132.396 203.48C129.666 203.48 128.016 201.62 128.016 198.62C128.016 195.59 129.666 193.7 132.396 193.7C135.126 193.7 136.806 195.59 136.806 198.62C136.806 201.62 135.126 203.48 132.396 203.48ZM156.16 206.24C159.19 206.24 161.05 204.74 161.62 202.4H161.68C161.62 203.84 161.59 205.13 161.53 206H164.89V185.21H161.53V193.79H161.5C160.9 192.05 159.16 190.94 156.37 190.94C151.96 190.94 149.17 194.03 149.17 198.5C149.17 203.12 151.87 206.24 156.16 206.24ZM156.85 203.48C154.21 203.48 152.5 201.44 152.5 198.5C152.5 195.68 154.24 193.7 156.91 193.7C159.7 193.7 161.53 195.38 161.53 198.02V198.74C161.53 201.62 159.67 203.48 156.85 203.48ZM173.396 206.24C176.666 206.24 178.436 204.92 178.916 202.73H178.946C178.946 203.93 178.856 205.28 178.796 206H182.156V196.97C182.156 193.07 179.516 190.94 175.016 190.94C170.786 190.94 168.206 192.71 168.206 195.68C168.206 195.95 168.236 196.34 168.266 196.55H171.356C171.326 196.31 171.326 196.07 171.326 195.98C171.326 194.33 172.616 193.46 174.896 193.46C177.506 193.46 178.796 194.45 178.796 196.67V197.72H173.306C169.346 197.72 167.756 199.49 167.756 201.74C167.756 204.62 170.006 206.24 173.396 206.24ZM174.086 203.72C172.046 203.72 170.846 202.94 170.846 201.59C170.846 200.42 171.686 199.76 173.606 199.76H178.796V200.03C178.796 202.31 176.996 203.72 174.086 203.72ZM205.997 198.05C205.997 193.43 203.327 190.94 199.127 190.94C194.447 190.94 191.507 193.91 191.507 198.71C191.507 203.36 194.447 206.24 199.127 206.24C203.177 206.24 205.877 204.23 205.997 200.93H202.967C202.817 202.67 201.347 203.63 199.187 203.63C196.667 203.63 195.077 202.1 194.897 199.25H205.997V198.05ZM202.967 197.21H194.987C195.377 194.75 196.847 193.55 199.157 193.55C201.587 193.55 202.967 194.78 202.967 197V197.21ZM208.755 206H212.115V198.77C212.115 195.59 213.645 193.82 215.925 193.82C217.935 193.82 219.045 195.14 219.045 197.24V206H222.405V198.65C222.405 195.56 223.905 193.82 226.245 193.82C228.255 193.82 229.305 195.14 229.305 197.3V206H232.665V196.55C232.665 193.07 230.775 190.94 227.475 190.94C224.655 190.94 222.855 192.44 222.315 194.84H222.285C221.925 192.44 220.065 190.94 217.185 190.94C214.485 190.94 212.685 192.53 212.025 195.08H211.995L212.115 191.18H208.755V206ZM235.809 211.94H239.169V206.12C239.169 205.52 239.109 203.99 239.079 203H239.109C239.739 204.92 241.659 206.24 244.599 206.24C248.859 206.24 251.559 203.12 251.559 198.32C251.559 193.85 248.889 190.94 244.659 190.94C241.719 190.94 239.739 192.38 239.139 194.63H239.109L239.169 191.18H235.809V211.94ZM243.939 203.48C241.059 203.48 239.169 201.86 239.169 199.34V198.56C239.229 195.59 241.089 193.7 243.879 193.7C246.549 193.7 248.199 195.56 248.199 198.41C248.199 201.5 246.519 203.48 243.939 203.48ZM254.304 206H257.664V199.52C257.664 195.98 259.254 193.82 261.804 193.82C263.784 193.82 264.744 194.99 264.744 197.48C264.744 198.17 264.684 198.92 264.624 199.49H267.684C267.744 198.86 267.834 197.66 267.834 196.73C267.834 193.04 266.064 190.94 262.854 190.94C259.794 190.94 258.264 192.77 257.574 195.44H257.544L257.664 191.18H254.304V206ZM284.585 198.05C284.585 193.43 281.915 190.94 277.715 190.94C273.035 190.94 270.095 193.91 270.095 198.71C270.095 203.36 273.035 206.24 277.715 206.24C281.765 206.24 284.465 204.23 284.585 200.93H281.555C281.405 202.67 279.935 203.63 277.775 203.63C275.255 203.63 273.665 202.1 273.485 199.25H284.585V198.05ZM281.555 197.21H273.575C273.965 194.75 275.435 193.55 277.745 193.55C280.175 193.55 281.555 194.78 281.555 197V197.21ZM293.823 206.24C298.563 206.24 301.083 204.47 301.083 201.47C301.083 200.27 300.513 199.13 299.523 198.59C298.473 197.99 297.273 197.78 295.173 197.57C293.373 197.39 291.963 197.24 291.243 197C290.373 196.7 290.223 196.1 290.223 195.47C290.223 194.21 291.543 193.37 293.883 193.37C296.343 193.37 297.393 194.3 297.423 196.22H300.453C300.453 192.86 298.413 190.94 293.793 190.94C289.773 190.94 286.893 192.74 286.893 195.71C286.893 196.85 287.373 197.93 288.183 198.53C289.083 199.19 290.643 199.49 292.953 199.7C294.603 199.85 296.013 200 296.733 200.27C297.513 200.54 297.723 201.05 297.723 201.62C297.723 202.97 296.523 203.81 293.793 203.81C290.913 203.81 289.923 202.76 289.923 201.05H286.893C286.893 203.96 288.723 206.24 293.823 206.24ZM309.038 206.24C312.308 206.24 314.078 204.92 314.558 202.73H314.588C314.588 203.93 314.498 205.28 314.438 206H317.798V196.97C317.798 193.07 315.158 190.94 310.658 190.94C306.428 190.94 303.848 192.71 303.848 195.68C303.848 195.95 303.878 196.34 303.908 196.55H306.998C306.968 196.31 306.968 196.07 306.968 195.98C306.968 194.33 308.258 193.46 310.538 193.46C313.148 193.46 314.438 194.45 314.438 196.67V197.72H308.948C304.988 197.72 303.398 199.49 303.398 201.74C303.398 204.62 305.648 206.24 309.038 206.24ZM309.728 203.72C307.688 203.72 306.488 202.94 306.488 201.59C306.488 200.42 307.328 199.76 309.248 199.76H314.438V200.03C314.438 202.31 312.638 203.72 309.728 203.72ZM321.781 199.22H323.101L324.091 189.23V185.84H320.791V189.23L321.781 199.22ZM320.731 206H324.151V202.1H320.731V206ZM339.008 206H342.608V189.23H348.728V186.26H332.888V189.23H339.008V206ZM359.491 206.3C365.251 206.3 369.751 202.43 369.751 196.04C369.751 189.77 365.251 185.96 359.491 185.96C353.761 185.96 349.261 189.77 349.261 196.04C349.261 202.43 353.761 206.3 359.491 206.3ZM359.491 203.3C355.861 203.3 352.921 200.57 352.921 196.04C352.921 191.63 355.861 188.96 359.491 188.96C363.151 188.96 366.091 191.63 366.091 196.04C366.091 200.57 363.151 203.3 359.491 203.3ZM372.726 206H380.916C386.676 206 390.276 202.43 390.276 196.1C390.276 189.83 386.466 186.26 380.286 186.26H372.726V206ZM376.326 203V189.26H380.436C384.216 189.26 386.706 191.6 386.706 196.1C386.706 200.63 384.396 203 380.856 203H376.326ZM402.814 206.3C408.574 206.3 413.074 202.43 413.074 196.04C413.074 189.77 408.574 185.96 402.814 185.96C397.084 185.96 392.584 189.77 392.584 196.04C392.584 202.43 397.084 206.3 402.814 206.3ZM402.814 203.3C399.184 203.3 396.244 200.57 396.244 196.04C396.244 191.63 399.184 188.96 402.814 188.96C406.474 188.96 409.414 191.63 409.414 196.04C409.414 200.57 406.474 203.3 402.814 203.3ZM423.698 206.3C430.418 206.3 432.278 203.33 432.278 200.15C432.278 198.32 431.498 196.94 430.148 196.25C428.918 195.59 426.998 195.26 424.928 194.93C423.218 194.69 420.998 194.33 420.128 193.91C419.348 193.55 418.958 192.89 418.958 191.78C418.958 189.98 420.728 188.75 423.698 188.75C426.788 188.75 428.378 190.13 428.378 193.04H431.618C431.618 188.54 429.488 185.96 423.638 185.96C418.478 185.96 415.388 188.48 415.388 192.08C415.388 193.94 416.138 195.29 417.338 196.04C418.418 196.73 420.518 197.18 422.498 197.45C424.208 197.69 426.338 197.96 427.328 198.35C428.258 198.68 428.708 199.31 428.708 200.39C428.708 202.01 427.688 203.51 423.668 203.51C419.888 203.51 418.688 201.77 418.688 199.25H415.448C415.448 202.85 417.158 206.3 423.698 206.3ZM8.73 250.3C13.59 250.3 16.38 247.3 16.38 241.48V230.26H12.78V241.72C12.78 245.5 11.22 247.3 8.61 247.3C6 247.3 4.62 245.56 4.62 242.68C4.62 241.63 4.65 240.49 4.68 239.8H1.47C1.44 240.49 1.38 241.75 1.38 242.77C1.38 247.54 3.96 250.3 8.73 250.3ZM28.5284 250.3C33.8384 250.3 37.1684 247.3 37.1684 242.56V230.26H33.9584V242.5C33.9584 245.5 31.9184 247.21 28.6784 247.21C25.4684 247.21 23.3984 245.5 23.3984 242.5V230.26H19.8284V242.56C19.8284 247.3 23.1884 250.3 28.5284 250.3ZM40.7306 250H44.1206L44.0906 233.26H44.1206L54.6506 250H58.9106V230.26H55.5206L55.5806 245.26H55.5206L46.1306 230.26H40.7306V250ZM67.3969 250H70.9969V233.23H77.1169V230.26H61.2769V233.23H67.3969V250ZM87.8801 250.3C93.6401 250.3 98.1401 246.43 98.1401 240.04C98.1401 233.77 93.6401 229.96 87.8801 229.96C82.1501 229.96 77.6501 233.77 77.6501 240.04C77.6501 246.43 82.1501 250.3 87.8801 250.3ZM87.8801 247.3C84.2501 247.3 81.3101 244.57 81.3101 240.04C81.3101 235.63 84.2501 232.96 87.8801 232.96C91.5401 232.96 94.4801 235.63 94.4801 240.04C94.4801 244.57 91.5401 247.3 87.8801 247.3ZM108.765 250.3C115.485 250.3 117.345 247.33 117.345 244.15C117.345 242.32 116.565 240.94 115.215 240.25C113.985 239.59 112.065 239.26 109.995 238.93C108.285 238.69 106.065 238.33 105.195 237.91C104.415 237.55 104.025 236.89 104.025 235.78C104.025 233.98 105.795 232.75 108.765 232.75C111.855 232.75 113.445 234.13 113.445 237.04H116.685C116.685 232.54 114.555 229.96 108.705 229.96C103.545 229.96 100.455 232.48 100.455 236.08C100.455 237.94 101.205 239.29 102.405 240.04C103.485 240.73 105.585 241.18 107.565 241.45C109.275 241.69 111.405 241.96 112.395 242.35C113.325 242.68 113.775 243.31 113.775 244.39C113.775 246.01 112.755 247.51 108.735 247.51C104.955 247.51 103.755 245.77 103.755 243.25H100.515C100.515 246.85 102.225 250.3 108.765 250.3ZM127.872 250H131.232V237.91H136.392V235.18H131.232V233.86C131.232 232.24 132.162 231.34 133.872 231.34C134.892 231.34 135.672 231.55 136.152 231.7V229.03C135.672 228.85 134.592 228.61 133.272 228.61C130.062 228.61 127.872 230.41 127.872 233.71V235.18H125.502V237.91H127.872V250ZM143.07 250.24C146.34 250.24 148.11 248.92 148.59 246.73H148.62C148.62 247.93 148.53 249.28 148.47 250H151.83V240.97C151.83 237.07 149.19 234.94 144.69 234.94C140.46 234.94 137.88 236.71 137.88 239.68C137.88 239.95 137.91 240.34 137.94 240.55H141.03C141 240.31 141 240.07 141 239.98C141 238.33 142.29 237.46 144.57 237.46C147.18 237.46 148.47 238.45 148.47 240.67V241.72H142.98C139.02 241.72 137.43 243.49 137.43 245.74C137.43 248.62 139.68 250.24 143.07 250.24ZM143.76 247.72C141.72 247.72 140.52 246.94 140.52 245.59C140.52 244.42 141.36 243.76 143.28 243.76H148.47V244.03C148.47 246.31 146.67 247.72 143.76 247.72ZM154.372 250H166.912V247.27H158.722V247.24L166.912 237.25V235.18H154.612V237.91H162.532V237.97L154.372 247.9V250ZM183.23 242.05C183.23 237.43 180.56 234.94 176.36 234.94C171.68 234.94 168.74 237.91 168.74 242.71C168.74 247.36 171.68 250.24 176.36 250.24C180.41 250.24 183.11 248.23 183.23 244.93H180.2C180.05 246.67 178.58 247.63 176.42 247.63C173.9 247.63 172.31 246.1 172.13 243.25H183.23V242.05ZM180.2 241.21H172.22C172.61 238.75 174.08 237.55 176.39 237.55C178.82 237.55 180.2 238.78 180.2 241V241.21ZM185.988 250H189.348V242.83C189.348 239.59 191.208 237.82 194.148 237.82C196.818 237.82 198.138 239.14 198.138 241.48V250H201.498V240.73C201.498 237.07 199.188 234.94 195.438 234.94C191.988 234.94 190.068 236.47 189.258 239.14H189.228L189.348 235.18H185.988V250ZM211.084 250.24C214.114 250.24 215.974 248.74 216.544 246.4H216.604C216.544 247.84 216.514 249.13 216.454 250H219.814V229.21H216.454V237.79H216.424C215.824 236.05 214.084 234.94 211.294 234.94C206.884 234.94 204.094 238.03 204.094 242.5C204.094 247.12 206.794 250.24 211.084 250.24ZM211.774 247.48C209.134 247.48 207.424 245.44 207.424 242.5C207.424 239.68 209.164 237.7 211.834 237.7C214.624 237.7 216.454 239.38 216.454 242.02V242.74C216.454 245.62 214.594 247.48 211.774 247.48ZM230.389 250.24C235.129 250.24 238.159 247.33 238.159 242.62C238.159 237.88 235.129 234.94 230.389 234.94C225.679 234.94 222.649 237.88 222.649 242.62C222.649 247.33 225.679 250.24 230.389 250.24ZM230.389 247.48C227.659 247.48 226.009 245.62 226.009 242.62C226.009 239.59 227.659 237.7 230.389 237.7C233.119 237.7 234.799 239.59 234.799 242.62C234.799 245.62 233.119 247.48 230.389 247.48ZM254.903 250.24C259.643 250.24 262.673 247.33 262.673 242.62C262.673 237.88 259.643 234.94 254.903 234.94C250.193 234.94 247.163 237.88 247.163 242.62C247.163 247.33 250.193 250.24 254.903 250.24ZM254.903 247.48C252.173 247.48 250.523 245.62 250.523 242.62C250.523 239.59 252.173 237.7 254.903 237.7C257.633 237.7 259.313 239.59 259.313 242.62C259.313 245.62 257.633 247.48 254.903 247.48ZM284.037 255.94H287.397V235.18H284.067V238H284.037C283.437 236.11 281.667 234.94 278.787 234.94C274.647 234.94 271.677 237.91 271.677 242.47C271.677 247.21 274.377 250.24 278.637 250.24C281.487 250.24 283.467 248.8 284.007 246.58H284.037V255.94ZM279.357 247.48C276.747 247.48 275.007 245.53 275.007 242.47C275.007 239.59 276.807 237.7 279.417 237.7C282.207 237.7 284.037 239.38 284.037 241.99V242.71C284.037 245.62 282.177 247.48 279.357 247.48ZM296.773 250.24C300.073 250.24 302.143 248.68 302.773 245.86H302.803C302.803 247.42 302.743 249.01 302.653 250H306.013V235.18H302.653V241.75C302.653 245.35 300.763 247.36 297.763 247.36C295.333 247.36 293.893 246.04 293.893 243.7V235.18H290.533V244.18C290.533 248.11 292.903 250.24 296.773 250.24ZM323.249 242.05C323.249 237.43 320.579 234.94 316.379 234.94C311.699 234.94 308.759 237.91 308.759 242.71C308.759 247.36 311.699 250.24 316.379 250.24C320.429 250.24 323.129 248.23 323.249 244.93H320.219C320.069 246.67 318.599 247.63 316.439 247.63C313.919 247.63 312.329 246.1 312.149 243.25H323.249V242.05ZM320.219 241.21H312.239C312.629 238.75 314.099 237.55 316.409 237.55C318.839 237.55 320.219 238.78 320.219 241V241.21ZM337.976 250.24C341.246 250.24 343.016 248.92 343.496 246.73H343.526C343.526 247.93 343.436 249.28 343.376 250H346.736V240.97C346.736 237.07 344.096 234.94 339.596 234.94C335.366 234.94 332.786 236.71 332.786 239.68C332.786 239.95 332.816 240.34 332.846 240.55H335.936C335.906 240.31 335.906 240.07 335.906 239.98C335.906 238.33 337.196 237.46 339.476 237.46C342.086 237.46 343.376 238.45 343.376 240.67V241.72H337.886C333.926 241.72 332.336 243.49 332.336 245.74C332.336 248.62 334.586 250.24 337.976 250.24ZM338.666 247.72C336.626 247.72 335.426 246.94 335.426 245.59C335.426 244.42 336.266 243.76 338.186 243.76H343.376V244.03C343.376 246.31 341.576 247.72 338.666 247.72ZM349.788 250H353.148V242.77C353.148 239.59 354.678 237.82 356.958 237.82C358.968 237.82 360.078 239.14 360.078 241.24V250H363.438V242.65C363.438 239.56 364.938 237.82 367.278 237.82C369.288 237.82 370.338 239.14 370.338 241.3V250H373.698V240.55C373.698 237.07 371.808 234.94 368.508 234.94C365.688 234.94 363.888 236.44 363.348 238.84H363.318C362.958 236.44 361.098 234.94 358.218 234.94C355.518 234.94 353.718 236.53 353.058 239.08H353.028L353.148 235.18H349.788V250ZM381.972 250.24C385.242 250.24 387.012 248.92 387.492 246.73H387.522C387.522 247.93 387.432 249.28 387.372 250H390.732V240.97C390.732 237.07 388.092 234.94 383.592 234.94C379.362 234.94 376.782 236.71 376.782 239.68C376.782 239.95 376.812 240.34 376.842 240.55H379.932C379.902 240.31 379.902 240.07 379.902 239.98C379.902 238.33 381.192 237.46 383.472 237.46C386.082 237.46 387.372 238.45 387.372 240.67V241.72H381.882C377.922 241.72 376.332 243.49 376.332 245.74C376.332 248.62 378.582 250.24 381.972 250.24ZM382.662 247.72C380.622 247.72 379.422 246.94 379.422 245.59C379.422 244.42 380.262 243.76 382.182 243.76H387.372V244.03C387.372 246.31 385.572 247.72 382.662 247.72ZM393.784 250H397.144V242.77C397.144 239.59 398.674 237.82 400.954 237.82C402.964 237.82 404.074 239.14 404.074 241.24V250H407.434V242.65C407.434 239.56 408.934 237.82 411.274 237.82C413.284 237.82 414.334 239.14 414.334 241.3V250H417.694V240.55C417.694 237.07 415.804 234.94 412.504 234.94C409.684 234.94 407.884 236.44 407.344 238.84H407.314C406.954 236.44 405.094 234.94 402.214 234.94C399.514 234.94 397.714 236.53 397.054 239.08H397.024L397.144 235.18H393.784V250ZM428.487 250H431.847V237.91H437.007V235.18H431.847V233.86C431.847 232.24 432.777 231.34 434.487 231.34C435.507 231.34 436.287 231.55 436.767 231.7V229.03C436.287 228.85 435.207 228.61 433.887 228.61C430.677 228.61 428.487 230.41 428.487 233.71V235.18H426.117V237.91H428.487V250ZM443.685 250.24C446.955 250.24 448.725 248.92 449.205 246.73H449.235C449.235 247.93 449.145 249.28 449.085 250H452.445V240.97C452.445 237.07 449.805 234.94 445.305 234.94C441.075 234.94 438.495 236.71 438.495 239.68C438.495 239.95 438.525 240.34 438.555 240.55H441.645C441.615 240.31 441.615 240.07 441.615 239.98C441.615 238.33 442.905 237.46 445.185 237.46C447.795 237.46 449.085 238.45 449.085 240.67V241.72H443.595C439.635 241.72 438.045 243.49 438.045 245.74C438.045 248.62 440.295 250.24 443.685 250.24ZM444.375 247.72C442.335 247.72 441.135 246.94 441.135 245.59C441.135 244.42 441.975 243.76 443.895 243.76H449.085V244.03C449.085 246.31 447.285 247.72 444.375 247.72ZM454.988 250H467.528V247.27H459.338V247.24L467.528 237.25V235.18H455.228V237.91H463.148V237.97L454.988 247.9V250ZM8.97 294.24C13.71 294.24 16.74 291.33 16.74 286.62C16.74 281.88 13.71 278.94 8.97 278.94C4.26 278.94 1.23 281.88 1.23 286.62C1.23 291.33 4.26 294.24 8.97 294.24ZM8.97 291.48C6.24 291.48 4.59 289.62 4.59 286.62C4.59 283.59 6.24 281.7 8.97 281.7C11.7 281.7 13.38 283.59 13.38 286.62C13.38 289.62 11.7 291.48 8.97 291.48ZM26.4338 294H29.8238L29.7938 277.26H29.8238L40.3537 294H44.6138V274.26H41.2238L41.2838 289.26H41.2238L31.8338 274.26H26.4338V294ZM57.42 294.3C61.02 294.3 63.24 292.74 63.84 290.46H63.87C63.84 291.81 63.75 293.22 63.69 294H66.69V284.28H57.09V286.56H63.21V287.01C63.21 289.68 60.87 291.51 57.72 291.51C54.15 291.51 51.24 288.78 51.24 284.37C51.24 279.81 54.06 276.96 57.87 276.96C60.9 276.96 63.3 278.55 63.3 281.34C63.3 281.61 63.3 281.94 63.27 282.3H66.48C66.51 281.94 66.54 281.46 66.54 281.13C66.54 276.63 62.79 273.96 57.81 273.96C51.99 273.96 47.61 278.01 47.61 284.34C47.61 290.52 51.78 294.3 57.42 294.3ZM70.4669 294H73.8569V290.1H70.4669V294ZM87.3028 294.3C92.5228 294.3 96.2428 291.24 96.2428 286.77V286.08H93.0328V286.56C93.0328 289.41 90.7228 291.3 87.4228 291.3C83.7028 291.3 80.8228 288.57 80.8228 284.16C80.8228 279.75 83.5828 276.96 87.4228 276.96C90.6028 276.96 92.9728 278.88 92.9728 281.91C92.9728 282.06 92.9728 282.3 92.9428 282.57H96.1228C96.1528 282.21 96.1828 281.82 96.1828 281.61C96.1828 277.05 92.4928 273.96 87.3028 273.96C81.3628 273.96 77.1628 277.86 77.1628 284.16C77.1628 290.43 81.4228 294.3 87.3028 294.3ZM113.371 294H117.541L109.531 274.26H105.151L97.1107 294H100.831L102.511 289.56H111.721L113.371 294ZM103.411 287.16L107.101 277.32H107.161L110.821 287.16H103.411ZM126.804 294.3C133.524 294.3 135.384 291.33 135.384 288.15C135.384 286.32 134.604 284.94 133.254 284.25C132.024 283.59 130.104 283.26 128.034 282.93C126.324 282.69 124.104 282.33 123.234 281.91C122.454 281.55 122.064 280.89 122.064 279.78C122.064 277.98 123.834 276.75 126.804 276.75C129.894 276.75 131.484 278.13 131.484 281.04H134.724C134.724 276.54 132.594 273.96 126.744 273.96C121.584 273.96 118.494 276.48 118.494 280.08C118.494 281.94 119.244 283.29 120.444 284.04C121.524 284.73 123.624 285.18 125.604 285.45C127.314 285.69 129.444 285.96 130.434 286.35C131.364 286.68 131.814 287.31 131.814 288.39C131.814 290.01 130.794 291.51 126.774 291.51C122.994 291.51 121.794 289.77 121.794 287.25H118.554C118.554 290.85 120.264 294.3 126.804 294.3ZM138.412 294H142.012V285.21H152.512V294H156.082V274.26H152.512V282.33H142.012V274.26H138.412V294ZM172.77 294.24C177.51 294.24 180.03 292.47 180.03 289.47C180.03 288.27 179.46 287.13 178.47 286.59C177.42 285.99 176.22 285.78 174.12 285.57C172.32 285.39 170.91 285.24 170.19 285C169.32 284.7 169.17 284.1 169.17 283.47C169.17 282.21 170.49 281.37 172.83 281.37C175.29 281.37 176.34 282.3 176.37 284.22H179.4C179.4 280.86 177.36 278.94 172.74 278.94C168.72 278.94 165.84 280.74 165.84 283.71C165.84 284.85 166.32 285.93 167.13 286.53C168.03 287.19 169.59 287.49 171.9 287.7C173.55 287.85 174.96 288 175.68 288.27C176.46 288.54 176.67 289.05 176.67 289.62C176.67 290.97 175.47 291.81 172.74 291.81C169.86 291.81 168.87 290.76 168.87 289.05H165.84C165.84 291.96 167.67 294.24 172.77 294.24ZM196.805 286.05C196.805 281.43 194.135 278.94 189.935 278.94C185.255 278.94 182.315 281.91 182.315 286.71C182.315 291.36 185.255 294.24 189.935 294.24C193.985 294.24 196.685 292.23 196.805 288.93H193.775C193.625 290.67 192.155 291.63 189.995 291.63C187.475 291.63 185.885 290.1 185.705 287.25H196.805V286.05ZM193.775 285.21H185.795C186.185 282.75 187.655 281.55 189.965 281.55C192.395 281.55 193.775 282.78 193.775 285V285.21ZM199.563 294H202.923V287.52C202.923 283.98 204.513 281.82 207.063 281.82C209.043 281.82 210.003 282.99 210.003 285.48C210.003 286.17 209.943 286.92 209.883 287.49H212.943C213.003 286.86 213.093 285.66 213.093 284.73C213.093 281.04 211.323 278.94 208.113 278.94C205.053 278.94 203.523 280.77 202.833 283.44H202.803L202.923 279.18H199.563V294ZM229.844 294.24C234.584 294.24 237.614 291.33 237.614 286.62C237.614 281.88 234.584 278.94 229.844 278.94C225.134 278.94 222.104 281.88 222.104 286.62C222.104 291.33 225.134 294.24 229.844 294.24ZM229.844 291.48C227.114 291.48 225.464 289.62 225.464 286.62C225.464 283.59 227.114 281.7 229.844 281.7C232.574 281.7 234.254 283.59 234.254 286.62C234.254 289.62 232.574 291.48 229.844 291.48ZM248.057 294H251.417V281.91H256.577V279.18H251.417V277.86C251.417 276.24 252.347 275.34 254.057 275.34C255.077 275.34 255.857 275.55 256.337 275.7V273.03C255.857 272.85 254.777 272.61 253.457 272.61C250.247 272.61 248.057 274.41 248.057 277.71V279.18H245.687V281.91H248.057V294ZM265.004 294.24C268.304 294.24 270.374 292.68 271.004 289.86H271.034C271.034 291.42 270.974 293.01 270.884 294H274.244V279.18H270.884V285.75C270.884 289.35 268.994 291.36 265.994 291.36C263.564 291.36 262.124 290.04 262.124 287.7V279.18H258.764V288.18C258.764 292.11 261.134 294.24 265.004 294.24ZM284.04 294.18C285.27 294.18 286.29 293.97 286.74 293.82V291.15C286.32 291.27 285.36 291.42 284.52 291.42C282.48 291.42 281.76 290.46 281.76 288.54V281.91H286.86V279.18H281.76V275.82H278.97L278.82 278.04C278.73 278.88 278.52 279.18 277.95 279.18H276.06V281.91H278.4V288.72C278.4 291.99 279.99 294.18 284.04 294.18ZM295.465 294.24C298.765 294.24 300.835 292.68 301.465 289.86H301.495C301.495 291.42 301.435 293.01 301.345 294H304.705V279.18H301.345V285.75C301.345 289.35 299.455 291.36 296.455 291.36C294.025 291.36 292.585 290.04 292.585 287.7V279.18H289.225V288.18C289.225 292.11 291.595 294.24 295.465 294.24ZM307.901 294H311.261V287.52C311.261 283.98 312.851 281.82 315.401 281.82C317.381 281.82 318.341 282.99 318.341 285.48C318.341 286.17 318.281 286.92 318.221 287.49H321.281C321.341 286.86 321.431 285.66 321.431 284.73C321.431 281.04 319.661 278.94 316.451 278.94C313.391 278.94 311.861 280.77 311.171 283.44H311.141L311.261 279.18H307.901V294ZM331.433 294.24C336.173 294.24 339.203 291.33 339.203 286.62C339.203 281.88 336.173 278.94 331.433 278.94C326.723 278.94 323.693 281.88 323.693 286.62C323.693 291.33 326.723 294.24 331.433 294.24ZM331.433 291.48C328.703 291.48 327.053 289.62 327.053 286.62C327.053 283.59 328.703 281.7 331.433 281.7C334.163 281.7 335.843 283.59 335.843 286.62C335.843 289.62 334.163 291.48 331.433 291.48ZM342.837 287.22H344.157L345.147 277.23V273.84H341.847V277.23L342.837 287.22ZM341.787 294H345.207V290.1H341.787V294Z" fill="white"/>
</svg>
