<svg width="485" height="348" viewBox="0 0 485 348" fill="none" xmlns="http://www.w3.org/2000/svg">
<path d="M9 10.41C3.96 10.41 1.92 12.78 1.92 17.01V20.34H7.74V15.39H5.37V15.27C5.37 13.95 6.18 12.96 9 12.96V10.41ZM18.06 10.41C13.02 10.41 10.98 12.78 10.98 17.01V20.34H16.8V15.39H14.43V15.27C14.43 13.95 15.24 12.96 18.06 12.96V10.41ZM354.545 328.16C359.585 328.16 361.625 325.79 361.625 321.56V318.23H355.805V323.18H358.175V323.3C358.175 324.62 357.365 325.61 354.545 325.61V328.16ZM363.635 328.16C368.675 328.16 370.715 325.79 370.715 321.56V318.23H364.895V323.18H367.265V323.3C367.265 324.62 366.455 325.61 363.635 325.61V328.16Z" fill="#FF0000"/>
<path d="M25.803 30H29.403V13.23H35.523V10.26H19.683V13.23H25.803V30ZM36.7992 30H40.1592V23.52C40.1592 19.98 41.7492 17.82 44.2992 17.82C46.2792 17.82 47.2392 18.99 47.2392 21.48C47.2392 22.17 47.1792 22.92 47.1192 23.49H50.1792C50.2392 22.86 50.3292 21.66 50.3292 20.73C50.3292 17.04 48.5592 14.94 45.3492 14.94C42.2892 14.94 40.7592 16.77 40.0692 19.44H40.0392L40.1592 15.18H36.7992V30ZM58.2605 30.24C61.5305 30.24 63.3005 28.92 63.7805 26.73H63.8105C63.8105 27.93 63.7205 29.28 63.6605 30H67.0205V20.97C67.0205 17.07 64.3805 14.94 59.8805 14.94C55.6505 14.94 53.0705 16.71 53.0705 19.68C53.0705 19.95 53.1005 20.34 53.1305 20.55H56.2205C56.1905 20.31 56.1905 20.07 56.1905 19.98C56.1905 18.33 57.4805 17.46 59.7605 17.46C62.3705 17.46 63.6605 18.45 63.6605 20.67V21.72H58.1705C54.2105 21.72 52.6205 23.49 52.6205 25.74C52.6205 28.62 54.8705 30.24 58.2605 30.24ZM58.9505 27.72C56.9105 27.72 55.7105 26.94 55.7105 25.59C55.7105 24.42 56.5505 23.76 58.4705 23.76H63.6605V24.03C63.6605 26.31 61.8605 27.72 58.9505 27.72ZM79.1327 30.24C83.3027 30.24 85.9127 27.21 85.9127 22.32C85.9127 17.76 83.3627 14.94 79.1027 14.94C76.1627 14.94 74.1227 16.32 73.4927 18.48H73.4627C73.4927 17.76 73.5227 16.56 73.5227 15.93V9.21H70.1627V30H73.5227C73.4627 29.25 73.4027 27.9 73.4027 26.85H73.4327C74.0327 28.92 76.0727 30.24 79.1327 30.24ZM78.2627 27.48C75.3527 27.48 73.5227 25.89 73.5227 23.31V22.56C73.5227 19.56 75.3827 17.7 78.3227 17.7C80.9627 17.7 82.5527 19.5 82.5527 22.41C82.5527 25.56 80.9027 27.48 78.2627 27.48ZM93.116 30.24C96.386 30.24 98.156 28.92 98.636 26.73H98.666C98.666 27.93 98.576 29.28 98.516 30H101.876V20.97C101.876 17.07 99.236 14.94 94.736 14.94C90.506 14.94 87.926 16.71 87.926 19.68C87.926 19.95 87.956 20.34 87.986 20.55H91.076C91.046 20.31 91.046 20.07 91.046 19.98C91.046 18.33 92.336 17.46 94.616 17.46C97.226 17.46 98.516 18.45 98.516 20.67V21.72H93.026C89.066 21.72 87.476 23.49 87.476 25.74C87.476 28.62 89.726 30.24 93.116 30.24ZM93.806 27.72C91.766 27.72 90.566 26.94 90.566 25.59C90.566 24.42 91.406 23.76 93.326 23.76H98.516V24.03C98.516 26.31 96.716 27.72 93.806 27.72ZM105.018 30H108.378V9.21H105.018V30ZM111.797 30H115.157V22.98C115.157 19.65 117.017 17.82 119.987 17.82C122.657 17.82 123.977 19.14 123.977 21.48V30H127.337V20.73C127.337 17.07 125.027 14.94 121.277 14.94C117.797 14.94 115.877 16.47 115.097 19.17H115.067C115.097 18.36 115.157 16.65 115.157 15.93V9.21H111.797V30ZM135.6 30.24C138.87 30.24 140.64 28.92 141.12 26.73H141.15C141.15 27.93 141.06 29.28 141 30H144.36V20.97C144.36 17.07 141.72 14.94 137.22 14.94C132.99 14.94 130.41 16.71 130.41 19.68C130.41 19.95 130.44 20.34 130.47 20.55H133.56C133.53 20.31 133.53 20.07 133.53 19.98C133.53 18.33 134.82 17.46 137.1 17.46C139.71 17.46 141 18.45 141 20.67V21.72H135.51C131.55 21.72 129.96 23.49 129.96 25.74C129.96 28.62 132.21 30.24 135.6 30.24ZM136.29 27.72C134.25 27.72 133.05 26.94 133.05 25.59C133.05 24.42 133.89 23.76 135.81 23.76H141V24.03C141 26.31 139.2 27.72 136.29 27.72ZM147.412 30H150.772V23.52C150.772 19.98 152.362 17.82 154.912 17.82C156.892 17.82 157.852 18.99 157.852 21.48C157.852 22.17 157.792 22.92 157.732 23.49H160.792C160.852 22.86 160.942 21.66 160.942 20.73C160.942 17.04 159.172 14.94 155.962 14.94C152.902 14.94 151.372 16.77 150.682 19.44H150.652L150.772 15.18H147.412V30ZM175.622 30.24C178.892 30.24 180.662 28.92 181.142 26.73H181.172C181.172 27.93 181.082 29.28 181.022 30H184.382V20.97C184.382 17.07 181.742 14.94 177.242 14.94C173.012 14.94 170.432 16.71 170.432 19.68C170.432 19.95 170.462 20.34 170.492 20.55H173.582C173.552 20.31 173.552 20.07 173.552 19.98C173.552 18.33 174.842 17.46 177.122 17.46C179.732 17.46 181.022 18.45 181.022 20.67V21.72H175.532C171.572 21.72 169.982 23.49 169.982 25.74C169.982 28.62 172.232 30.24 175.622 30.24ZM176.312 27.72C174.272 27.72 173.072 26.94 173.072 25.59C173.072 24.42 173.912 23.76 175.832 23.76H181.022V24.03C181.022 26.31 179.222 27.72 176.312 27.72ZM199.344 35.94H202.704V15.18H199.374V18H199.344C198.744 16.11 196.974 14.94 194.094 14.94C189.954 14.94 186.984 17.91 186.984 22.47C186.984 27.21 189.684 30.24 193.944 30.24C196.794 30.24 198.774 28.8 199.314 26.58H199.344V35.94ZM194.664 27.48C192.054 27.48 190.314 25.53 190.314 22.47C190.314 19.59 192.114 17.7 194.724 17.7C197.514 17.7 199.344 19.38 199.344 21.99V22.71C199.344 25.62 197.484 27.48 194.664 27.48ZM212.08 30.24C215.38 30.24 217.45 28.68 218.08 25.86H218.11C218.11 27.42 218.05 29.01 217.96 30H221.32V15.18H217.96V21.75C217.96 25.35 216.07 27.36 213.07 27.36C210.64 27.36 209.2 26.04 209.2 23.7V15.18H205.84V24.18C205.84 28.11 208.21 30.24 212.08 30.24ZM224.606 13.44H228.056V10.14H224.606V13.44ZM224.636 30H227.996V15.18H224.636V30ZM249.263 9.45H245.753L243.413 13.65H246.053L249.263 9.45ZM252.143 22.05C252.143 17.43 249.473 14.94 245.273 14.94C240.593 14.94 237.653 17.91 237.653 22.71C237.653 27.36 240.593 30.24 245.273 30.24C249.323 30.24 252.023 28.23 252.143 24.93H249.113C248.963 26.67 247.493 27.63 245.333 27.63C242.813 27.63 241.223 26.1 241.043 23.25H252.143V22.05ZM249.113 21.21H241.133C241.523 18.75 242.993 17.55 245.303 17.55C247.733 17.55 249.113 18.78 249.113 21V21.21ZM268.189 30.24C271.219 30.24 273.079 28.74 273.649 26.4H273.709C273.649 27.84 273.619 29.13 273.559 30H276.919V9.21H273.559V17.79H273.529C272.929 16.05 271.189 14.94 268.399 14.94C263.989 14.94 261.199 18.03 261.199 22.5C261.199 27.12 263.899 30.24 268.189 30.24ZM268.879 27.48C266.239 27.48 264.529 25.44 264.529 22.5C264.529 19.68 266.269 17.7 268.939 17.7C271.729 17.7 273.559 19.38 273.559 22.02V22.74C273.559 25.62 271.699 27.48 268.879 27.48ZM280.295 13.44H283.745V10.14H280.295V13.44ZM280.325 30H283.685V15.18H280.325V30ZM288.032 30H291.392V17.91H296.552V15.18H291.392V13.86C291.392 12.24 292.322 11.34 294.032 11.34C295.052 11.34 295.832 11.55 296.312 11.7V9.03C295.832 8.85 294.752 8.61 293.432 8.61C290.222 8.61 288.032 10.41 288.032 13.71V15.18H285.662V17.91H288.032V30ZM311.728 22.05C311.728 17.43 309.058 14.94 304.858 14.94C300.178 14.94 297.238 17.91 297.238 22.71C297.238 27.36 300.178 30.24 304.858 30.24C308.908 30.24 311.608 28.23 311.728 24.93H308.698C308.548 26.67 307.078 27.63 304.918 27.63C302.398 27.63 300.808 26.1 300.628 23.25H311.728V22.05ZM308.698 21.21H300.718C301.108 18.75 302.578 17.55 304.888 17.55C307.318 17.55 308.698 18.78 308.698 21V21.21ZM314.486 30H317.846V23.52C317.846 19.98 319.436 17.82 321.986 17.82C323.966 17.82 324.926 18.99 324.926 21.48C324.926 22.17 324.866 22.92 324.806 23.49H327.866C327.926 22.86 328.016 21.66 328.016 20.73C328.016 17.04 326.246 14.94 323.036 14.94C319.976 14.94 318.446 16.77 317.756 19.44H317.726L317.846 15.18H314.486V30ZM344.767 22.05C344.767 17.43 342.097 14.94 337.897 14.94C333.217 14.94 330.277 17.91 330.277 22.71C330.277 27.36 333.217 30.24 337.897 30.24C341.947 30.24 344.647 28.23 344.767 24.93H341.737C341.587 26.67 340.117 27.63 337.957 27.63C335.437 27.63 333.847 26.1 333.667 23.25H344.767V22.05ZM341.737 21.21H333.757C334.147 18.75 335.617 17.55 337.927 17.55C340.357 17.55 341.737 18.78 341.737 21V21.21ZM347.525 30H350.885V22.83C350.885 19.59 352.745 17.82 355.685 17.82C358.355 17.82 359.675 19.14 359.675 21.48V30H363.035V20.73C363.035 17.07 360.725 14.94 356.975 14.94C353.525 14.94 351.605 16.47 350.795 19.14H350.765L350.885 15.18H347.525V30ZM372.68 30.18C373.91 30.18 374.93 29.97 375.38 29.82V27.15C374.96 27.27 374 27.42 373.16 27.42C371.12 27.42 370.4 26.46 370.4 24.54V17.91H375.5V15.18H370.4V11.82H367.61L367.46 14.04C367.37 14.88 367.16 15.18 366.59 15.18H364.7V17.91H367.04V24.72C367.04 27.99 368.63 30.18 372.68 30.18ZM391.469 22.05C391.469 17.43 388.799 14.94 384.599 14.94C379.919 14.94 376.979 17.91 376.979 22.71C376.979 27.36 379.919 30.24 384.599 30.24C388.649 30.24 391.349 28.23 391.469 24.93H388.439C388.289 26.67 386.819 27.63 384.659 27.63C382.139 27.63 380.549 26.1 380.369 23.25H391.469V22.05ZM388.439 21.21H380.459C380.849 18.75 382.319 17.55 384.629 17.55C387.059 17.55 388.439 18.78 388.439 21V21.21ZM407.516 30.24C410.546 30.24 412.406 28.74 412.976 26.4H413.036C412.976 27.84 412.946 29.13 412.886 30H416.246V9.21H412.886V17.79H412.856C412.256 16.05 410.516 14.94 407.726 14.94C403.316 14.94 400.526 18.03 400.526 22.5C400.526 27.12 403.226 30.24 407.516 30.24ZM408.206 27.48C405.566 27.48 403.856 25.44 403.856 22.5C403.856 19.68 405.596 17.7 408.266 17.7C411.056 17.7 412.886 19.38 412.886 22.02V22.74C412.886 25.62 411.026 27.48 408.206 27.48ZM433.572 22.05C433.572 17.43 430.902 14.94 426.702 14.94C422.022 14.94 419.082 17.91 419.082 22.71C419.082 27.36 422.022 30.24 426.702 30.24C430.752 30.24 433.452 28.23 433.572 24.93H430.542C430.392 26.67 428.922 27.63 426.762 27.63C424.242 27.63 422.652 26.1 422.472 23.25H433.572V22.05ZM430.542 21.21H422.562C422.952 18.75 424.422 17.55 426.732 17.55C429.162 17.55 430.542 18.78 430.542 21V21.21ZM13.59 79.94H16.95V59.18H13.62V62H13.59C12.99 60.11 11.22 58.94 8.34 58.94C4.2 58.94 1.23 61.91 1.23 66.47C1.23 71.21 3.93 74.24 8.19 74.24C11.04 74.24 13.02 72.8 13.56 70.58H13.59V79.94ZM8.91 71.48C6.3 71.48 4.56 69.53 4.56 66.47C4.56 63.59 6.36 61.7 8.97 61.7C11.76 61.7 13.59 63.38 13.59 65.99V66.71C13.59 69.62 11.73 71.48 8.91 71.48ZM26.3257 74.24C29.6257 74.24 31.6957 72.68 32.3257 69.86H32.3557C32.3557 71.42 32.2957 73.01 32.2057 74H35.5657V59.18H32.2057V65.75C32.2057 69.35 30.3157 71.36 27.3157 71.36C24.8857 71.36 23.4457 70.04 23.4457 67.7V59.18H20.0857V68.18C20.0857 72.11 22.4557 74.24 26.3257 74.24ZM43.9821 74.24C47.2521 74.24 49.0221 72.92 49.5021 70.73H49.5321C49.5321 71.93 49.4421 73.28 49.3821 74H52.7421V64.97C52.7421 61.07 50.1021 58.94 45.6021 58.94C41.3721 58.94 38.7921 60.71 38.7921 63.68C38.7921 63.95 38.8221 64.34 38.8521 64.55H41.9421C41.9121 64.31 41.9121 64.07 41.9121 63.98C41.9121 62.33 43.2021 61.46 45.4821 61.46C48.0921 61.46 49.3821 62.45 49.3821 64.67V65.72H43.8921C39.9321 65.72 38.3421 67.49 38.3421 69.74C38.3421 72.62 40.5921 74.24 43.9821 74.24ZM44.6721 71.72C42.6321 71.72 41.4321 70.94 41.4321 69.59C41.4321 68.42 42.2721 67.76 44.1921 67.76H49.3821V68.03C49.3821 70.31 47.5821 71.72 44.6721 71.72ZM55.8844 74H59.2444V53.21H55.8844V74ZM74.4827 79.94H77.8427V59.18H74.5127V62H74.4827C73.8827 60.11 72.1127 58.94 69.2327 58.94C65.0927 58.94 62.1227 61.91 62.1227 66.47C62.1227 71.21 64.8227 74.24 69.0827 74.24C71.9327 74.24 73.9127 72.8 74.4527 70.58H74.4827V79.94ZM69.8027 71.48C67.1927 71.48 65.4527 69.53 65.4527 66.47C65.4527 63.59 67.2527 61.7 69.8627 61.7C72.6527 61.7 74.4827 63.38 74.4827 65.99V66.71C74.4827 69.62 72.6227 71.48 69.8027 71.48ZM87.2184 74.24C90.5184 74.24 92.5884 72.68 93.2184 69.86H93.2484C93.2484 71.42 93.1884 73.01 93.0984 74H96.4584V59.18H93.0984V65.75C93.0984 69.35 91.2084 71.36 88.2084 71.36C85.7784 71.36 84.3384 70.04 84.3384 67.7V59.18H80.9784V68.18C80.9784 72.11 83.3484 74.24 87.2184 74.24ZM113.695 66.05C113.695 61.43 111.025 58.94 106.825 58.94C102.145 58.94 99.2048 61.91 99.2048 66.71C99.2048 71.36 102.145 74.24 106.825 74.24C110.875 74.24 113.575 72.23 113.695 68.93H110.665C110.515 70.67 109.045 71.63 106.885 71.63C104.365 71.63 102.775 70.1 102.595 67.25H113.695V66.05ZM110.665 65.21H102.685C103.075 62.75 104.545 61.55 106.855 61.55C109.285 61.55 110.665 62.78 110.665 65V65.21ZM116.453 74H119.813V67.52C119.813 63.98 121.403 61.82 123.953 61.82C125.933 61.82 126.893 62.99 126.893 65.48C126.893 66.17 126.833 66.92 126.773 67.49H129.833C129.893 66.86 129.983 65.66 129.983 64.73C129.983 61.04 128.213 58.94 125.003 58.94C121.943 58.94 120.413 60.77 119.723 63.44H119.693L119.813 59.18H116.453V74ZM146.733 74.24C151.473 74.24 154.503 71.33 154.503 66.62C154.503 61.88 151.473 58.94 146.733 58.94C142.023 58.94 138.993 61.88 138.993 66.62C138.993 71.33 142.023 74.24 146.733 74.24ZM146.733 71.48C144.003 71.48 142.353 69.62 142.353 66.62C142.353 63.59 144.003 61.7 146.733 61.7C149.463 61.7 151.143 63.59 151.143 66.62C151.143 69.62 149.463 71.48 146.733 71.48ZM163.298 74.24C166.598 74.24 168.668 72.68 169.298 69.86H169.328C169.328 71.42 169.268 73.01 169.178 74H172.538V59.18H169.178V65.75C169.178 69.35 167.288 71.36 164.288 71.36C161.858 71.36 160.418 70.04 160.418 67.7V59.18H157.058V68.18C157.058 72.11 159.428 74.24 163.298 74.24ZM182.334 74.18C183.564 74.18 184.584 73.97 185.034 73.82V71.15C184.614 71.27 183.654 71.42 182.814 71.42C180.774 71.42 180.054 70.46 180.054 68.54V61.91H185.154V59.18H180.054V55.82H177.264L177.114 58.04C177.024 58.88 176.814 59.18 176.244 59.18H174.354V61.91H176.694V68.72C176.694 71.99 178.284 74.18 182.334 74.18ZM187.669 74H191.029V67.52C191.029 63.98 192.619 61.82 195.169 61.82C197.149 61.82 198.109 62.99 198.109 65.48C198.109 66.17 198.049 66.92 197.989 67.49H201.049C201.109 66.86 201.199 65.66 201.199 64.73C201.199 61.04 199.429 58.94 196.219 58.94C193.159 58.94 191.629 60.77 190.939 63.44H190.909L191.029 59.18H187.669V74ZM211.2 74.24C215.94 74.24 218.97 71.33 218.97 66.62C218.97 61.88 215.94 58.94 211.2 58.94C206.49 58.94 203.46 61.88 203.46 66.62C203.46 71.33 206.49 74.24 211.2 74.24ZM211.2 71.48C208.47 71.48 206.82 69.62 206.82 66.62C206.82 63.59 208.47 61.7 211.2 61.7C213.93 61.7 215.61 63.59 215.61 66.62C215.61 69.62 213.93 71.48 211.2 71.48ZM228.514 74H231.874V53.21H228.514V74ZM241.292 74.24C244.592 74.24 246.662 72.68 247.292 69.86H247.322C247.322 71.42 247.262 73.01 247.172 74H250.532V59.18H247.172V65.75C247.172 69.35 245.282 71.36 242.282 71.36C239.852 71.36 238.412 70.04 238.412 67.7V59.18H235.052V68.18C235.052 72.11 237.422 74.24 241.292 74.24ZM264.019 71.66H259.219C258.139 71.66 257.539 71.15 257.539 70.31C257.539 69.8 257.719 69.38 257.899 69.17C258.679 69.38 259.549 69.5 260.509 69.5C264.589 69.5 267.109 67.49 267.109 64.22C267.109 63.11 266.809 62.12 266.239 61.34C266.059 60.77 265.909 60.26 265.909 59.84C265.909 59.03 266.389 58.61 267.379 58.61C267.799 58.61 268.129 58.67 268.369 58.76V56.39C268.009 56.3 267.589 56.24 266.869 56.24C265.099 56.24 263.959 56.99 263.959 58.19C263.959 58.82 264.229 59.39 264.679 59.87L264.649 59.9C263.569 59.27 262.189 58.94 260.509 58.94C256.429 58.94 253.909 60.98 253.909 64.22C253.909 66.08 254.719 67.55 256.189 68.45V68.51C255.379 68.9 254.809 69.77 254.809 71.03C254.809 72.08 255.259 72.89 256.099 73.46V73.49C254.329 73.58 253.219 74.69 253.219 76.19C253.219 78.86 256.219 80.39 261.229 80.39C266.119 80.39 269.029 78.53 269.029 75.41C269.029 73.04 267.199 71.66 264.019 71.66ZM260.509 61.34C262.609 61.34 263.899 62.45 263.899 64.22C263.899 65.99 262.609 67.1 260.509 67.1C258.409 67.1 257.119 65.99 257.119 64.22C257.119 62.45 258.409 61.34 260.509 61.34ZM261.199 78.02C258.349 78.02 256.549 77.33 256.549 75.92C256.549 74.78 257.629 74.27 259.309 74.27H263.329C264.919 74.27 265.669 74.81 265.669 75.8C265.669 77.12 264.349 78.02 261.199 78.02ZM276.215 74.24C279.485 74.24 281.255 72.92 281.735 70.73H281.765C281.765 71.93 281.675 73.28 281.615 74H284.975V64.97C284.975 61.07 282.335 58.94 277.835 58.94C273.605 58.94 271.025 60.71 271.025 63.68C271.025 63.95 271.055 64.34 271.085 64.55H274.175C274.145 64.31 274.145 64.07 274.145 63.98C274.145 62.33 275.435 61.46 277.715 61.46C280.325 61.46 281.615 62.45 281.615 64.67V65.72H276.125C272.165 65.72 270.575 67.49 270.575 69.74C270.575 72.62 272.825 74.24 276.215 74.24ZM276.905 71.72C274.865 71.72 273.665 70.94 273.665 69.59C273.665 68.42 274.505 67.76 276.425 67.76H281.615V68.03C281.615 70.31 279.815 71.72 276.905 71.72ZM288.027 74H291.387V67.52C291.387 63.98 292.977 61.82 295.527 61.82C297.507 61.82 298.467 62.99 298.467 65.48C298.467 66.17 298.407 66.92 298.347 67.49H301.407C301.467 66.86 301.557 65.66 301.557 64.73C301.557 61.04 299.787 58.94 296.577 58.94C293.517 58.94 291.987 60.77 291.297 63.44H291.267L291.387 59.18H288.027V74ZM305.199 67.22H306.519L307.509 57.23V53.84H304.209V57.23L305.199 67.22ZM304.149 74H307.569V70.1H304.149V74ZM322.426 74H326.026V57.23H332.146V54.26H316.306V57.23H322.426V74ZM339.364 74.24C344.104 74.24 347.134 71.33 347.134 66.62C347.134 61.88 344.104 58.94 339.364 58.94C334.654 58.94 331.624 61.88 331.624 66.62C331.624 71.33 334.654 74.24 339.364 74.24ZM339.364 71.48C336.634 71.48 334.984 69.62 334.984 66.62C334.984 63.59 336.634 61.7 339.364 61.7C342.094 61.7 343.774 63.59 343.774 66.62C343.774 69.62 342.094 71.48 339.364 71.48ZM356.379 74.24C359.409 74.24 361.269 72.74 361.839 70.4H361.899C361.839 71.84 361.809 73.13 361.749 74H365.109V53.21H361.749V61.79H361.719C361.119 60.05 359.379 58.94 356.589 58.94C352.179 58.94 349.389 62.03 349.389 66.5C349.389 71.12 352.089 74.24 356.379 74.24ZM357.069 71.48C354.429 71.48 352.719 69.44 352.719 66.5C352.719 63.68 354.459 61.7 357.129 61.7C359.919 61.7 361.749 63.38 361.749 66.02V66.74C361.749 69.62 359.889 71.48 357.069 71.48ZM375.685 74.24C380.425 74.24 383.455 71.33 383.455 66.62C383.455 61.88 380.425 58.94 375.685 58.94C370.975 58.94 367.945 61.88 367.945 66.62C367.945 71.33 370.975 74.24 375.685 74.24ZM375.685 71.48C372.955 71.48 371.305 69.62 371.305 66.62C371.305 63.59 372.955 61.7 375.685 61.7C378.415 61.7 380.095 63.59 380.095 66.62C380.095 69.62 378.415 71.48 375.685 71.48ZM392.464 74.24C397.204 74.24 399.724 72.47 399.724 69.47C399.724 68.27 399.154 67.13 398.164 66.59C397.114 65.99 395.914 65.78 393.814 65.57C392.014 65.39 390.604 65.24 389.884 65C389.014 64.7 388.864 64.1 388.864 63.47C388.864 62.21 390.184 61.37 392.524 61.37C394.984 61.37 396.034 62.3 396.064 64.22H399.094C399.094 60.86 397.054 58.94 392.434 58.94C388.414 58.94 385.534 60.74 385.534 63.71C385.534 64.85 386.014 65.93 386.824 66.53C387.724 67.19 389.284 67.49 391.594 67.7C393.244 67.85 394.654 68 395.374 68.27C396.154 68.54 396.364 69.05 396.364 69.62C396.364 70.97 395.164 71.81 392.434 71.81C389.554 71.81 388.564 70.76 388.564 69.05H385.534C385.534 71.96 387.364 74.24 392.464 74.24ZM421.118 79.94H424.478V59.18H421.148V62H421.118C420.518 60.11 418.748 58.94 415.868 58.94C411.728 58.94 408.758 61.91 408.758 66.47C408.758 71.21 411.458 74.24 415.718 74.24C418.568 74.24 420.548 72.8 421.088 70.58H421.118V79.94ZM416.438 71.48C413.828 71.48 412.088 69.53 412.088 66.47C412.088 63.59 413.888 61.7 416.498 61.7C419.288 61.7 421.118 63.38 421.118 65.99V66.71C421.118 69.62 419.258 71.48 416.438 71.48ZM433.854 74.24C437.154 74.24 439.224 72.68 439.854 69.86H439.884C439.884 71.42 439.824 73.01 439.734 74H443.094V59.18H439.734V65.75C439.734 69.35 437.844 71.36 434.844 71.36C432.414 71.36 430.974 70.04 430.974 67.7V59.18H427.614V68.18C427.614 72.11 429.984 74.24 433.854 74.24ZM460.331 66.05C460.331 61.43 457.661 58.94 453.461 58.94C448.781 58.94 445.841 61.91 445.841 66.71C445.841 71.36 448.781 74.24 453.461 74.24C457.511 74.24 460.211 72.23 460.331 68.93H457.301C457.151 70.67 455.681 71.63 453.521 71.63C451.001 71.63 449.411 70.1 449.231 67.25H460.331V66.05ZM457.301 65.21H449.321C449.711 62.75 451.181 61.55 453.491 61.55C455.921 61.55 457.301 62.78 457.301 65V65.21ZM2.67 118H6.03V105.91H11.19V103.18H6.03V101.86C6.03 100.24 6.96 99.34 8.67 99.34C9.69 99.34 10.47 99.55 10.95 99.7V97.03C10.47 96.85 9.39 96.61 8.07 96.61C4.86 96.61 2.67 98.41 2.67 101.71V103.18H0.3V105.91H2.67V118ZM17.8678 118.24C21.1378 118.24 22.9078 116.92 23.3878 114.73H23.4178C23.4178 115.93 23.3278 117.28 23.2678 118H26.6278V108.97C26.6278 105.07 23.9878 102.94 19.4878 102.94C15.2578 102.94 12.6778 104.71 12.6778 107.68C12.6778 107.95 12.7078 108.34 12.7378 108.55H15.8278C15.7978 108.31 15.7978 108.07 15.7978 107.98C15.7978 106.33 17.0878 105.46 19.3678 105.46C21.9778 105.46 23.2678 106.45 23.2678 108.67V109.72H17.7778C13.8178 109.72 12.2278 111.49 12.2278 113.74C12.2278 116.62 14.4778 118.24 17.8678 118.24ZM18.5578 115.72C16.5178 115.72 15.3178 114.94 15.3178 113.59C15.3178 112.42 16.1578 111.76 18.0778 111.76H23.2678V112.03C23.2678 114.31 21.4678 115.72 18.5578 115.72ZM29.1701 118H41.7101V115.27H33.5201V115.24L41.7101 105.25V103.18H29.4101V105.91H37.3301V105.97L29.1701 115.9V118ZM58.0277 110.05C58.0277 105.43 55.3577 102.94 51.1577 102.94C46.4777 102.94 43.5377 105.91 43.5377 110.71C43.5377 115.36 46.4777 118.24 51.1577 118.24C55.2077 118.24 57.9077 116.23 58.0277 112.93H54.9977C54.8477 114.67 53.3777 115.63 51.2177 115.63C48.6977 115.63 47.1077 114.1 46.9277 111.25H58.0277V110.05ZM54.9977 109.21H47.0177C47.4077 106.75 48.8777 105.55 51.1877 105.55C53.6177 105.55 54.9977 106.78 54.9977 109V109.21ZM60.7856 118H64.1456V110.77C64.1456 107.59 65.6756 105.82 67.9556 105.82C69.9656 105.82 71.0756 107.14 71.0756 109.24V118H74.4356V110.65C74.4356 107.56 75.9356 105.82 78.2756 105.82C80.2856 105.82 81.3356 107.14 81.3356 109.3V118H84.6956V108.55C84.6956 105.07 82.8056 102.94 79.5056 102.94C76.6856 102.94 74.8856 104.44 74.3456 106.84H74.3156C73.9556 104.44 72.0956 102.94 69.2156 102.94C66.5156 102.94 64.7156 104.53 64.0556 107.08H64.0256L64.1456 103.18H60.7856V118ZM94.5886 123.94H97.9486V118.12C97.9486 117.52 97.8886 115.99 97.8586 115H97.8886C98.5186 116.92 100.439 118.24 103.379 118.24C107.639 118.24 110.339 115.12 110.339 110.32C110.339 105.85 107.669 102.94 103.439 102.94C100.499 102.94 98.5186 104.38 97.9186 106.63H97.8886L97.9486 103.18H94.5886V123.94ZM102.719 115.48C99.8386 115.48 97.9486 113.86 97.9486 111.34V110.56C98.0086 107.59 99.8686 105.7 102.659 105.7C105.329 105.7 106.979 107.56 106.979 110.41C106.979 113.5 105.299 115.48 102.719 115.48ZM117.542 118.24C120.812 118.24 122.582 116.92 123.062 114.73H123.092C123.092 115.93 123.002 117.28 122.942 118H126.302V108.97C126.302 105.07 123.662 102.94 119.162 102.94C114.932 102.94 112.352 104.71 112.352 107.68C112.352 107.95 112.382 108.34 112.412 108.55H115.502C115.472 108.31 115.472 108.07 115.472 107.98C115.472 106.33 116.762 105.46 119.042 105.46C121.652 105.46 122.942 106.45 122.942 108.67V109.72H117.452C113.492 109.72 111.902 111.49 111.902 113.74C111.902 116.62 114.152 118.24 117.542 118.24ZM118.232 115.72C116.192 115.72 114.992 114.94 114.992 113.59C114.992 112.42 115.832 111.76 117.752 111.76H122.942V112.03C122.942 114.31 121.142 115.72 118.232 115.72ZM129.354 118H132.714V111.52C132.714 107.98 134.304 105.82 136.854 105.82C138.834 105.82 139.794 106.99 139.794 109.48C139.794 110.17 139.734 110.92 139.674 111.49H142.734C142.794 110.86 142.884 109.66 142.884 108.73C142.884 105.04 141.114 102.94 137.904 102.94C134.844 102.94 133.314 104.77 132.624 107.44H132.594L132.714 103.18H129.354V118ZM152.195 118.18C153.425 118.18 154.445 117.97 154.895 117.82V115.15C154.475 115.27 153.515 115.42 152.675 115.42C150.635 115.42 149.915 114.46 149.915 112.54V105.91H155.015V103.18H149.915V99.82H147.125L146.975 102.04C146.885 102.88 146.675 103.18 146.105 103.18H144.215V105.91H146.555V112.72C146.555 115.99 148.145 118.18 152.195 118.18ZM170.984 110.05C170.984 105.43 168.314 102.94 164.114 102.94C159.434 102.94 156.494 105.91 156.494 110.71C156.494 115.36 159.434 118.24 164.114 118.24C168.164 118.24 170.864 116.23 170.984 112.93H167.954C167.804 114.67 166.334 115.63 164.174 115.63C161.654 115.63 160.064 114.1 159.884 111.25H170.984V110.05ZM167.954 109.21H159.974C160.364 106.75 161.834 105.55 164.144 105.55C166.574 105.55 167.954 106.78 167.954 109V109.21ZM187.031 118.24C190.061 118.24 191.921 116.74 192.491 114.4H192.551C192.491 115.84 192.461 117.13 192.401 118H195.761V97.21H192.401V105.79H192.371C191.771 104.05 190.031 102.94 187.241 102.94C182.831 102.94 180.041 106.03 180.041 110.5C180.041 115.12 182.741 118.24 187.031 118.24ZM187.721 115.48C185.081 115.48 183.371 113.44 183.371 110.5C183.371 107.68 185.111 105.7 187.781 105.7C190.571 105.7 192.401 107.38 192.401 110.02V110.74C192.401 113.62 190.541 115.48 187.721 115.48ZM206.337 118.24C211.077 118.24 214.107 115.33 214.107 110.62C214.107 105.88 211.077 102.94 206.337 102.94C201.627 102.94 198.597 105.88 198.597 110.62C198.597 115.33 201.627 118.24 206.337 118.24ZM206.337 115.48C203.607 115.48 201.957 113.62 201.957 110.62C201.957 107.59 203.607 105.7 206.337 105.7C209.067 105.7 210.747 107.59 210.747 110.62C210.747 113.62 209.067 115.48 206.337 115.48ZM230.16 118.18C231.39 118.18 232.41 117.97 232.86 117.82V115.15C232.44 115.27 231.48 115.42 230.64 115.42C228.6 115.42 227.88 114.46 227.88 112.54V105.91H232.98V103.18H227.88V99.82H225.09L224.94 102.04C224.85 102.88 224.64 103.18 224.07 103.18H222.18V105.91H224.52V112.72C224.52 115.99 226.11 118.18 230.16 118.18ZM235.585 101.44H239.035V98.14H235.585V101.44ZM235.615 118H238.975V103.18H235.615V118ZM242.332 118H245.692V110.77C245.692 107.59 247.222 105.82 249.502 105.82C251.512 105.82 252.622 107.14 252.622 109.24V118H255.982V110.65C255.982 107.56 257.482 105.82 259.822 105.82C261.832 105.82 262.882 107.14 262.882 109.3V118H266.242V108.55C266.242 105.07 264.352 102.94 261.052 102.94C258.232 102.94 256.432 104.44 255.892 106.84H255.862C255.502 104.44 253.642 102.94 250.762 102.94C248.062 102.94 246.262 104.53 245.602 107.08H245.572L245.692 103.18H242.332V118ZM283.336 110.05C283.336 105.43 280.666 102.94 276.466 102.94C271.786 102.94 268.846 105.91 268.846 110.71C268.846 115.36 271.786 118.24 276.466 118.24C280.516 118.24 283.216 116.23 283.336 112.93H280.306C280.156 114.67 278.686 115.63 276.526 115.63C274.006 115.63 272.416 114.1 272.236 111.25H283.336V110.05ZM280.306 109.21H272.326C272.716 106.75 274.186 105.55 276.496 105.55C278.926 105.55 280.306 106.78 280.306 109V109.21ZM304.003 97.45H300.493L298.153 101.65H300.793L304.003 97.45ZM306.883 110.05C306.883 105.43 304.213 102.94 300.013 102.94C295.333 102.94 292.393 105.91 292.393 110.71C292.393 115.36 295.333 118.24 300.013 118.24C304.063 118.24 306.763 116.23 306.883 112.93H303.853C303.703 114.67 302.233 115.63 300.073 115.63C297.553 115.63 295.963 114.1 295.783 111.25H306.883V110.05ZM303.853 109.21H295.873C296.263 106.75 297.733 105.55 300.043 105.55C302.473 105.55 303.853 106.78 303.853 109V109.21ZM316.48 123.94H319.84V118.12C319.84 117.52 319.78 115.99 319.75 115H319.78C320.41 116.92 322.33 118.24 325.27 118.24C329.53 118.24 332.23 115.12 332.23 110.32C332.23 105.85 329.56 102.94 325.33 102.94C322.39 102.94 320.41 104.38 319.81 106.63H319.78L319.84 103.18H316.48V123.94ZM324.61 115.48C321.73 115.48 319.84 113.86 319.84 111.34V110.56C319.9 107.59 321.76 105.7 324.55 105.7C327.22 105.7 328.87 107.56 328.87 110.41C328.87 113.5 327.19 115.48 324.61 115.48ZM342.265 118.24C347.005 118.24 350.035 115.33 350.035 110.62C350.035 105.88 347.005 102.94 342.265 102.94C337.555 102.94 334.525 105.88 334.525 110.62C334.525 115.33 337.555 118.24 342.265 118.24ZM342.265 115.48C339.535 115.48 337.885 113.62 337.885 110.62C337.885 107.59 339.535 105.7 342.265 105.7C344.995 105.7 346.675 107.59 346.675 110.62C346.675 113.62 344.995 115.48 342.265 115.48ZM352.74 118H356.1V111.52C356.1 107.98 357.69 105.82 360.24 105.82C362.22 105.82 363.18 106.99 363.18 109.48C363.18 110.17 363.12 110.92 363.06 111.49H366.12C366.18 110.86 366.27 109.66 366.27 108.73C366.27 105.04 364.5 102.94 361.29 102.94C358.23 102.94 356.7 104.77 356.01 107.44H355.98L356.1 103.18H352.74V118ZM380.891 123.94H384.251V103.18H380.921V106H380.891C380.291 104.11 378.521 102.94 375.641 102.94C371.501 102.94 368.531 105.91 368.531 110.47C368.531 115.21 371.231 118.24 375.491 118.24C378.341 118.24 380.321 116.8 380.861 114.58H380.891V123.94ZM376.211 115.48C373.601 115.48 371.861 113.53 371.861 110.47C371.861 107.59 373.661 105.7 376.271 105.7C379.061 105.7 380.891 107.38 380.891 109.99V110.71C380.891 113.62 379.031 115.48 376.211 115.48ZM393.626 118.24C396.926 118.24 398.996 116.68 399.626 113.86H399.656C399.656 115.42 399.596 117.01 399.506 118H402.866V103.18H399.506V109.75C399.506 113.35 397.616 115.36 394.616 115.36C392.186 115.36 390.746 114.04 390.746 111.7V103.18H387.386V112.18C387.386 116.11 389.756 118.24 393.626 118.24ZM420.103 110.05C420.103 105.43 417.433 102.94 413.233 102.94C408.553 102.94 405.613 105.91 405.613 110.71C405.613 115.36 408.553 118.24 413.233 118.24C417.283 118.24 419.983 116.23 420.103 112.93H417.073C416.923 114.67 415.453 115.63 413.293 115.63C410.773 115.63 409.183 114.1 409.003 111.25H420.103V110.05ZM417.073 109.21H409.093C409.483 106.75 410.953 105.55 413.263 105.55C415.693 105.55 417.073 106.78 417.073 109V109.21ZM6.9 162.24C10.17 162.24 11.94 160.92 12.42 158.73H12.45C12.45 159.93 12.36 161.28 12.3 162H15.66V152.97C15.66 149.07 13.02 146.94 8.52 146.94C4.29 146.94 1.71 148.71 1.71 151.68C1.71 151.95 1.74 152.34 1.77 152.55H4.86C4.83 152.31 4.83 152.07 4.83 151.98C4.83 150.33 6.12 149.46 8.4 149.46C11.01 149.46 12.3 150.45 12.3 152.67V153.72H6.81C2.85 153.72 1.26 155.49 1.26 157.74C1.26 160.62 3.51 162.24 6.9 162.24ZM7.59 159.72C5.55 159.72 4.35 158.94 4.35 157.59C4.35 156.42 5.19 155.76 7.11 155.76H12.3V156.03C12.3 158.31 10.5 159.72 7.59 159.72ZM25.5223 162.24C29.7523 162.24 32.5723 159.93 32.5723 155.97H29.5423C29.5123 158.16 28.0423 159.48 25.6723 159.48C23.1823 159.48 21.6223 157.62 21.6223 154.59C21.6223 151.53 23.2123 149.7 25.7923 149.7C28.0423 149.7 29.4823 151.05 29.5123 153.27H32.5423C32.5423 149.34 29.8423 146.94 25.7023 146.94C21.2323 146.94 18.2623 149.85 18.2623 154.59C18.2623 159.33 21.1723 162.24 25.5223 162.24ZM35.393 162H38.753V155.52C38.753 151.98 40.343 149.82 42.893 149.82C44.873 149.82 45.833 150.99 45.833 153.48C45.833 154.17 45.773 154.92 45.713 155.49H48.773C48.833 154.86 48.923 153.66 48.923 152.73C48.923 149.04 47.153 146.94 43.943 146.94C40.883 146.94 39.353 148.77 38.663 151.44H38.633L38.753 147.18H35.393V162ZM65.6742 154.05C65.6742 149.43 63.0042 146.94 58.8042 146.94C54.1242 146.94 51.1842 149.91 51.1842 154.71C51.1842 159.36 54.1242 162.24 58.8042 162.24C62.8542 162.24 65.5542 160.23 65.6742 156.93H62.6442C62.4942 158.67 61.0242 159.63 58.8642 159.63C56.3442 159.63 54.7542 158.1 54.5742 155.25H65.6742V154.05ZM62.6442 153.21H54.6642C55.0542 150.75 56.5242 149.55 58.8342 149.55C61.2642 149.55 62.6442 150.78 62.6442 153V153.21ZM74.9721 162.24C78.0021 162.24 79.8621 160.74 80.4321 158.4H80.4921C80.4321 159.84 80.4021 161.13 80.3421 162H83.7021V141.21H80.3421V149.79H80.3121C79.7121 148.05 77.9721 146.94 75.1821 146.94C70.7721 146.94 67.9821 150.03 67.9821 154.5C67.9821 159.12 70.6821 162.24 74.9721 162.24ZM75.6621 159.48C73.0221 159.48 71.3121 157.44 71.3121 154.5C71.3121 151.68 73.0521 149.7 75.7221 149.7C78.5121 149.7 80.3421 151.38 80.3421 154.02V154.74C80.3421 157.62 78.4821 159.48 75.6621 159.48ZM87.0778 145.44H90.5278V142.14H87.0778V145.44ZM87.1078 162H90.4678V147.18H87.1078V162ZM100.425 162.18C101.655 162.18 102.675 161.97 103.125 161.82V159.15C102.705 159.27 101.745 159.42 100.905 159.42C98.8648 159.42 98.1448 158.46 98.1448 156.54V149.91H103.245V147.18H98.1448V143.82H95.3548L95.2048 146.04C95.1148 146.88 94.9048 147.18 94.3348 147.18H92.4448V149.91H94.7848V156.72C94.7848 159.99 96.3748 162.18 100.425 162.18ZM110.569 162.24C113.839 162.24 115.609 160.92 116.089 158.73H116.119C116.119 159.93 116.029 161.28 115.969 162H119.329V152.97C119.329 149.07 116.689 146.94 112.189 146.94C107.959 146.94 105.379 148.71 105.379 151.68C105.379 151.95 105.409 152.34 105.439 152.55H108.529C108.499 152.31 108.499 152.07 108.499 151.98C108.499 150.33 109.789 149.46 112.069 149.46C114.679 149.46 115.969 150.45 115.969 152.67V153.72H110.479C106.519 153.72 104.929 155.49 104.929 157.74C104.929 160.62 107.179 162.24 110.569 162.24ZM111.259 159.72C109.219 159.72 108.019 158.94 108.019 157.59C108.019 156.42 108.859 155.76 110.779 155.76H115.969V156.03C115.969 158.31 114.169 159.72 111.259 159.72ZM122.381 162H125.741V154.77C125.741 151.59 127.271 149.82 129.551 149.82C131.561 149.82 132.671 151.14 132.671 153.24V162H136.031V154.65C136.031 151.56 137.531 149.82 139.871 149.82C141.881 149.82 142.931 151.14 142.931 153.3V162H146.291V152.55C146.291 149.07 144.401 146.94 141.101 146.94C138.281 146.94 136.481 148.44 135.941 150.84H135.911C135.551 148.44 133.691 146.94 130.811 146.94C128.111 146.94 126.311 148.53 125.651 151.08H125.621L125.741 147.18H122.381V162ZM156.094 162H159.454V154.83C159.454 151.59 161.314 149.82 164.254 149.82C166.924 149.82 168.244 151.14 168.244 153.48V162H171.604V152.73C171.604 149.07 169.294 146.94 165.544 146.94C162.094 146.94 160.174 148.47 159.364 151.14H159.334L159.454 147.18H156.094V162ZM181.94 162.24C186.68 162.24 189.71 159.33 189.71 154.62C189.71 149.88 186.68 146.94 181.94 146.94C177.23 146.94 174.2 149.88 174.2 154.62C174.2 159.33 177.23 162.24 181.94 162.24ZM181.94 159.48C179.21 159.48 177.56 157.62 177.56 154.62C177.56 151.59 179.21 149.7 181.94 149.7C184.67 149.7 186.35 151.59 186.35 154.62C186.35 157.62 184.67 159.48 181.94 159.48ZM205.644 162.24C210.384 162.24 212.904 160.47 212.904 157.47C212.904 156.27 212.334 155.13 211.344 154.59C210.294 153.99 209.094 153.78 206.994 153.57C205.194 153.39 203.784 153.24 203.064 153C202.194 152.7 202.044 152.1 202.044 151.47C202.044 150.21 203.364 149.37 205.704 149.37C208.164 149.37 209.214 150.3 209.244 152.22H212.274C212.274 148.86 210.234 146.94 205.614 146.94C201.594 146.94 198.714 148.74 198.714 151.71C198.714 152.85 199.194 153.93 200.004 154.53C200.904 155.19 202.464 155.49 204.774 155.7C206.424 155.85 207.834 156 208.554 156.27C209.334 156.54 209.544 157.05 209.544 157.62C209.544 158.97 208.344 159.81 205.614 159.81C202.734 159.81 201.744 158.76 201.744 157.05H198.714C198.714 159.96 200.544 162.24 205.644 162.24ZM229.68 154.05C229.68 149.43 227.01 146.94 222.81 146.94C218.13 146.94 215.19 149.91 215.19 154.71C215.19 159.36 218.13 162.24 222.81 162.24C226.86 162.24 229.56 160.23 229.68 156.93H226.65C226.5 158.67 225.03 159.63 222.87 159.63C220.35 159.63 218.76 158.1 218.58 155.25H229.68V154.05ZM226.65 153.21H218.67C219.06 150.75 220.53 149.55 222.84 149.55C225.27 149.55 226.65 150.78 226.65 153V153.21ZM238.527 162.24C241.827 162.24 243.897 160.68 244.527 157.86H244.557C244.557 159.42 244.497 161.01 244.407 162H247.767V147.18H244.407V153.75C244.407 157.35 242.517 159.36 239.517 159.36C237.087 159.36 235.647 158.04 235.647 155.7V147.18H232.287V156.18C232.287 160.11 234.657 162.24 238.527 162.24ZM257.803 167.94H261.163V162.12C261.163 161.52 261.103 159.99 261.073 159H261.103C261.733 160.92 263.653 162.24 266.593 162.24C270.853 162.24 273.553 159.12 273.553 154.32C273.553 149.85 270.883 146.94 266.653 146.94C263.713 146.94 261.733 148.38 261.133 150.63H261.103L261.163 147.18H257.803V167.94ZM265.933 159.48C263.053 159.48 261.163 157.86 261.163 155.34V154.56C261.223 151.59 263.083 149.7 265.873 149.7C268.543 149.7 270.193 151.56 270.193 154.41C270.193 157.5 268.513 159.48 265.933 159.48ZM276.298 162H279.658V155.52C279.658 151.98 281.248 149.82 283.798 149.82C285.778 149.82 286.738 150.99 286.738 153.48C286.738 154.17 286.678 154.92 286.618 155.49H289.678C289.738 154.86 289.828 153.66 289.828 152.73C289.828 149.04 288.058 146.94 284.848 146.94C281.788 146.94 280.258 148.77 279.568 151.44H279.538L279.658 147.18H276.298V162ZM298.179 145.65H300.819L304.029 141.45H300.519L298.179 145.65ZM299.829 162.24C304.569 162.24 307.599 159.33 307.599 154.62C307.599 149.88 304.569 146.94 299.829 146.94C295.119 146.94 292.089 149.88 292.089 154.62C292.089 159.33 295.119 162.24 299.829 162.24ZM299.829 159.48C297.099 159.48 295.449 157.62 295.449 154.62C295.449 151.59 297.099 149.7 299.829 149.7C302.559 149.7 304.239 151.59 304.239 154.62C304.239 157.62 302.559 159.48 299.829 159.48ZM310.394 167.94H313.754V162.12C313.754 161.52 313.694 159.99 313.664 159H313.694C314.324 160.92 316.244 162.24 319.184 162.24C323.444 162.24 326.144 159.12 326.144 154.32C326.144 149.85 323.474 146.94 319.244 146.94C316.304 146.94 314.324 148.38 313.724 150.63H313.694L313.754 147.18H310.394V167.94ZM318.524 159.48C315.644 159.48 313.754 157.86 313.754 155.34V154.56C313.814 151.59 315.674 149.7 318.464 149.7C321.134 149.7 322.784 151.56 322.784 154.41C322.784 157.5 321.104 159.48 318.524 159.48ZM328.889 162H332.249V155.52C332.249 151.98 333.839 149.82 336.389 149.82C338.369 149.82 339.329 150.99 339.329 153.48C339.329 154.17 339.269 154.92 339.209 155.49H342.269C342.329 154.86 342.419 153.66 342.419 152.73C342.419 149.04 340.649 146.94 337.439 146.94C334.379 146.94 332.849 148.77 332.159 151.44H332.129L332.249 147.18H328.889V162ZM345.22 145.44H348.67V142.14H345.22V145.44ZM345.25 162H348.61V147.18H345.25V162ZM359.257 162.24C363.997 162.24 367.027 159.33 367.027 154.62C367.027 149.88 363.997 146.94 359.257 146.94C354.547 146.94 351.517 149.88 351.517 154.62C351.517 159.33 354.547 162.24 359.257 162.24ZM359.257 159.48C356.527 159.48 354.877 157.62 354.877 154.62C354.877 151.59 356.527 149.7 359.257 149.7C361.987 149.7 363.667 151.59 363.667 154.62C363.667 157.62 361.987 159.48 359.257 159.48ZM1.77 211.94H5.13V206.12C5.13 205.52 5.07 203.99 5.04 203H5.07C5.7 204.92 7.62 206.24 10.56 206.24C14.82 206.24 17.52 203.12 17.52 198.32C17.52 193.85 14.85 190.94 10.62 190.94C7.68 190.94 5.7 192.38 5.1 194.63H5.07L5.13 191.18H1.77V211.94ZM9.9 203.48C7.02 203.48 5.13 201.86 5.13 199.34V198.56C5.19 195.59 7.05 193.7 9.84 193.7C12.51 193.7 14.16 195.56 14.16 198.41C14.16 201.5 12.48 203.48 9.9 203.48ZM27.555 206.24C32.295 206.24 35.325 203.33 35.325 198.62C35.325 193.88 32.295 190.94 27.555 190.94C22.845 190.94 19.815 193.88 19.815 198.62C19.815 203.33 22.845 206.24 27.555 206.24ZM27.555 203.48C24.825 203.48 23.175 201.62 23.175 198.62C23.175 195.59 24.825 193.7 27.555 193.7C30.285 193.7 31.965 195.59 31.965 198.62C31.965 201.62 30.285 203.48 27.555 203.48ZM44.3953 206.18C45.6253 206.18 46.6453 205.97 47.0953 205.82V203.15C46.6753 203.27 45.7153 203.42 44.8753 203.42C42.8353 203.42 42.1153 202.46 42.1153 200.54V193.91H47.2153V191.18H42.1153V187.82H39.3253L39.1753 190.04C39.0853 190.88 38.8753 191.18 38.3053 191.18H36.4153V193.91H38.7553V200.72C38.7553 203.99 40.3453 206.18 44.3953 206.18ZM63.184 198.05C63.184 193.43 60.514 190.94 56.314 190.94C51.634 190.94 48.694 193.91 48.694 198.71C48.694 203.36 51.634 206.24 56.314 206.24C60.364 206.24 63.064 204.23 63.184 200.93H60.154C60.004 202.67 58.534 203.63 56.374 203.63C53.854 203.63 52.264 202.1 52.084 199.25H63.184V198.05ZM60.154 197.21H52.174C52.564 194.75 54.034 193.55 56.344 193.55C58.774 193.55 60.154 194.78 60.154 197V197.21ZM65.9419 206H69.3019V198.83C69.3019 195.59 71.1619 193.82 74.1019 193.82C76.7719 193.82 78.0919 195.14 78.0919 197.48V206H81.4519V196.73C81.4519 193.07 79.1419 190.94 75.3919 190.94C71.9419 190.94 70.0219 192.47 69.2119 195.14H69.1819L69.3019 191.18H65.9419V206ZM91.3076 206.24C95.5376 206.24 98.3576 203.93 98.3576 199.97H95.3276C95.2976 202.16 93.8276 203.48 91.4576 203.48C88.9676 203.48 87.4076 201.62 87.4076 198.59C87.4076 195.53 88.9976 193.7 91.5776 193.7C93.8276 193.7 95.2676 195.05 95.2976 197.27H98.3276C98.3276 193.34 95.6276 190.94 91.4876 190.94C87.0176 190.94 84.0476 193.85 84.0476 198.59C84.0476 203.33 86.9576 206.24 91.3076 206.24ZM101.268 189.44H104.718V186.14H101.268V189.44ZM101.298 206H104.658V191.18H101.298V206ZM113.235 206.24C116.505 206.24 118.275 204.92 118.755 202.73H118.785C118.785 203.93 118.695 205.28 118.635 206H121.995V196.97C121.995 193.07 119.355 190.94 114.855 190.94C110.625 190.94 108.045 192.71 108.045 195.68C108.045 195.95 108.075 196.34 108.105 196.55H111.195C111.165 196.31 111.165 196.07 111.165 195.98C111.165 194.33 112.455 193.46 114.735 193.46C117.345 193.46 118.635 194.45 118.635 196.67V197.72H113.145C109.185 197.72 107.595 199.49 107.595 201.74C107.595 204.62 109.845 206.24 113.235 206.24ZM113.925 203.72C111.885 203.72 110.685 202.94 110.685 201.59C110.685 200.42 111.525 199.76 113.445 199.76H118.635V200.03C118.635 202.31 116.835 203.72 113.925 203.72ZM125.138 206H128.498V185.21H125.138V206ZM152.615 198.05C152.615 193.43 149.945 190.94 145.745 190.94C141.065 190.94 138.125 193.91 138.125 198.71C138.125 203.36 141.065 206.24 145.745 206.24C149.795 206.24 152.495 204.23 152.615 200.93H149.585C149.435 202.67 147.965 203.63 145.805 203.63C143.285 203.63 141.695 202.1 141.515 199.25H152.615V198.05ZM149.585 197.21H141.605C141.995 194.75 143.465 193.55 145.775 193.55C148.205 193.55 149.585 194.78 149.585 197V197.21ZM162.122 206H165.482V198.83C165.482 195.59 167.342 193.82 170.282 193.82C172.952 193.82 174.272 195.14 174.272 197.48V206H177.632V196.73C177.632 193.07 175.322 190.94 171.572 190.94C168.122 190.94 166.202 192.47 165.392 195.14H165.362L165.482 191.18H162.122V206ZM187.968 206.24C192.708 206.24 195.738 203.33 195.738 198.62C195.738 193.88 192.708 190.94 187.968 190.94C183.258 190.94 180.228 193.88 180.228 198.62C180.228 203.33 183.258 206.24 187.968 206.24ZM187.968 203.48C185.238 203.48 183.588 201.62 183.588 198.62C183.588 195.59 185.238 193.7 187.968 193.7C190.698 193.7 192.378 195.59 192.378 198.62C192.378 201.62 190.698 203.48 187.968 203.48ZM205.281 211.94H208.641V206.12C208.641 205.52 208.581 203.99 208.551 203H208.581C209.211 204.92 211.131 206.24 214.071 206.24C218.331 206.24 221.031 203.12 221.031 198.32C221.031 193.85 218.361 190.94 214.131 190.94C211.191 190.94 209.211 192.38 208.611 194.63H208.581L208.641 191.18H205.281V211.94ZM213.411 203.48C210.531 203.48 208.641 201.86 208.641 199.34V198.56C208.701 195.59 210.561 193.7 213.351 193.7C216.021 193.7 217.671 195.56 217.671 198.41C217.671 201.5 215.991 203.48 213.411 203.48ZM223.776 206H227.136V199.52C227.136 195.98 228.726 193.82 231.276 193.82C233.256 193.82 234.216 194.99 234.216 197.48C234.216 198.17 234.156 198.92 234.096 199.49H237.156C237.216 198.86 237.306 197.66 237.306 196.73C237.306 193.04 235.536 190.94 232.326 190.94C229.266 190.94 227.736 192.77 227.046 195.44H227.016L227.136 191.18H223.776V206ZM247.308 206.24C252.048 206.24 255.078 203.33 255.078 198.62C255.078 193.88 252.048 190.94 247.308 190.94C242.598 190.94 239.568 193.88 239.568 198.62C239.568 203.33 242.598 206.24 247.308 206.24ZM247.308 203.48C244.578 203.48 242.928 201.62 242.928 198.62C242.928 195.59 244.578 193.7 247.308 193.7C250.038 193.7 251.718 195.59 251.718 198.62C251.718 201.62 250.038 203.48 247.308 203.48ZM257.872 211.94H261.232V206.12C261.232 205.52 261.172 203.99 261.142 203H261.172C261.802 204.92 263.722 206.24 266.662 206.24C270.922 206.24 273.622 203.12 273.622 198.32C273.622 193.85 270.952 190.94 266.722 190.94C263.782 190.94 261.802 192.38 261.202 194.63H261.172L261.232 191.18H257.872V211.94ZM266.002 203.48C263.122 203.48 261.232 201.86 261.232 199.34V198.56C261.292 195.59 263.152 193.7 265.942 193.7C268.612 193.7 270.262 195.56 270.262 198.41C270.262 201.5 268.582 203.48 266.002 203.48ZM282.007 189.65H284.647L287.857 185.45H284.347L282.007 189.65ZM283.657 206.24C288.397 206.24 291.427 203.33 291.427 198.62C291.427 193.88 288.397 190.94 283.657 190.94C278.947 190.94 275.917 193.88 275.917 198.62C275.917 203.33 278.947 206.24 283.657 206.24ZM283.657 203.48C280.927 203.48 279.277 201.62 279.277 198.62C279.277 195.59 280.927 193.7 283.657 193.7C286.387 193.7 288.067 195.59 288.067 198.62C288.067 201.62 286.387 203.48 283.657 203.48ZM300.436 206.24C305.176 206.24 307.696 204.47 307.696 201.47C307.696 200.27 307.126 199.13 306.136 198.59C305.086 197.99 303.886 197.78 301.786 197.57C299.986 197.39 298.576 197.24 297.856 197C296.986 196.7 296.836 196.1 296.836 195.47C296.836 194.21 298.156 193.37 300.496 193.37C302.956 193.37 304.006 194.3 304.036 196.22H307.066C307.066 192.86 305.026 190.94 300.406 190.94C296.386 190.94 293.506 192.74 293.506 195.71C293.506 196.85 293.986 197.93 294.796 198.53C295.696 199.19 297.256 199.49 299.566 199.7C301.216 199.85 302.626 200 303.346 200.27C304.126 200.54 304.336 201.05 304.336 201.62C304.336 202.97 303.136 203.81 300.406 203.81C297.526 203.81 296.536 202.76 296.536 201.05H293.506C293.506 203.96 295.336 206.24 300.436 206.24ZM310.522 189.44H313.972V186.14H310.522V189.44ZM310.552 206H313.912V191.18H310.552V206ZM323.869 206.18C325.099 206.18 326.119 205.97 326.569 205.82V203.15C326.149 203.27 325.189 203.42 324.349 203.42C322.309 203.42 321.589 202.46 321.589 200.54V193.91H326.689V191.18H321.589V187.82H318.799L318.649 190.04C318.559 190.88 318.349 191.18 317.779 191.18H315.889V193.91H318.229V200.72C318.229 203.99 319.819 206.18 323.869 206.18ZM335.907 206.24C340.647 206.24 343.677 203.33 343.677 198.62C343.677 193.88 340.647 190.94 335.907 190.94C331.197 190.94 328.167 193.88 328.167 198.62C328.167 203.33 331.197 206.24 335.907 206.24ZM335.907 203.48C333.177 203.48 331.527 201.62 331.527 198.62C331.527 195.59 333.177 193.7 335.907 193.7C338.637 193.7 340.317 195.59 340.317 198.62C340.317 201.62 338.637 203.48 335.907 203.48ZM359.671 206.24C362.701 206.24 364.561 204.74 365.131 202.4H365.191C365.131 203.84 365.101 205.13 365.041 206H368.401V185.21H365.041V193.79H365.011C364.411 192.05 362.671 190.94 359.881 190.94C355.471 190.94 352.681 194.03 352.681 198.5C352.681 203.12 355.381 206.24 359.671 206.24ZM360.361 203.48C357.721 203.48 356.011 201.44 356.011 198.5C356.011 195.68 357.751 193.7 360.421 193.7C363.211 193.7 365.041 195.38 365.041 198.02V198.74C365.041 201.62 363.181 203.48 360.361 203.48ZM376.907 206.24C380.177 206.24 381.947 204.92 382.427 202.73H382.457C382.457 203.93 382.367 205.28 382.307 206H385.667V196.97C385.667 193.07 383.027 190.94 378.527 190.94C374.297 190.94 371.717 192.71 371.717 195.68C371.717 195.95 371.747 196.34 371.777 196.55H374.867C374.837 196.31 374.837 196.07 374.837 195.98C374.837 194.33 376.127 193.46 378.407 193.46C381.017 193.46 382.307 194.45 382.307 196.67V197.72H376.817C372.857 197.72 371.267 199.49 371.267 201.74C371.267 204.62 373.517 206.24 376.907 206.24ZM377.597 203.72C375.557 203.72 374.357 202.94 374.357 201.59C374.357 200.42 375.197 199.76 377.117 199.76H382.307V200.03C382.307 202.31 380.507 203.72 377.597 203.72ZM15.72 242.05C15.72 237.43 13.05 234.94 8.85 234.94C4.17 234.94 1.23 237.91 1.23 242.71C1.23 247.36 4.17 250.24 8.85 250.24C12.9 250.24 15.6 248.23 15.72 244.93H12.69C12.54 246.67 11.07 247.63 8.91 247.63C6.39 247.63 4.8 246.1 4.62 243.25H15.72V242.05ZM12.69 241.21H4.71C5.1 238.75 6.57 237.55 8.88 237.55C11.31 237.55 12.69 238.78 12.69 241V241.21ZM18.4779 250H21.8379V242.77C21.8379 239.59 23.3679 237.82 25.6479 237.82C27.6579 237.82 28.7679 239.14 28.7679 241.24V250H32.1279V242.65C32.1279 239.56 33.6279 237.82 35.9679 237.82C37.9779 237.82 39.0279 239.14 39.0279 241.3V250H42.3879V240.55C42.3879 237.07 40.4979 234.94 37.1979 234.94C34.3779 234.94 32.5779 236.44 32.0379 238.84H32.0079C31.6479 236.44 29.7879 234.94 26.9079 234.94C24.2079 234.94 22.4079 236.53 21.7479 239.08H21.7179L21.8379 235.18H18.4779V250ZM45.5318 255.94H48.8918V250.12C48.8918 249.52 48.8318 247.99 48.8018 247H48.8318C49.4618 248.92 51.3818 250.24 54.3218 250.24C58.5818 250.24 61.2818 247.12 61.2818 242.32C61.2818 237.85 58.6118 234.94 54.3818 234.94C51.4418 234.94 49.4618 236.38 48.8618 238.63H48.8318L48.8918 235.18H45.5318V255.94ZM53.6618 247.48C50.7818 247.48 48.8918 245.86 48.8918 243.34V242.56C48.9518 239.59 50.8118 237.7 53.6018 237.7C56.2718 237.7 57.9218 239.56 57.9218 242.41C57.9218 245.5 56.2418 247.48 53.6618 247.48ZM64.0268 250H67.3868V243.52C67.3868 239.98 68.9768 237.82 71.5268 237.82C73.5068 237.82 74.4668 238.99 74.4668 241.48C74.4668 242.17 74.4068 242.92 74.3468 243.49H77.4068C77.4668 242.86 77.5568 241.66 77.5568 240.73C77.5568 237.04 75.7868 234.94 72.5768 234.94C69.5168 234.94 67.9868 236.77 67.2968 239.44H67.2668L67.3868 235.18H64.0268V250ZM94.308 242.05C94.308 237.43 91.638 234.94 87.438 234.94C82.758 234.94 79.818 237.91 79.818 242.71C79.818 247.36 82.758 250.24 87.438 250.24C91.488 250.24 94.188 248.23 94.308 244.93H91.278C91.128 246.67 89.658 247.63 87.498 247.63C84.978 247.63 83.388 246.1 83.208 243.25H94.308V242.05ZM91.278 241.21H83.298C83.688 238.75 85.158 237.55 87.468 237.55C89.898 237.55 91.278 238.78 91.278 241V241.21ZM103.546 250.24C108.286 250.24 110.806 248.47 110.806 245.47C110.806 244.27 110.236 243.13 109.246 242.59C108.196 241.99 106.996 241.78 104.896 241.57C103.096 241.39 101.686 241.24 100.966 241C100.096 240.7 99.9459 240.1 99.9459 239.47C99.9459 238.21 101.266 237.37 103.606 237.37C106.066 237.37 107.116 238.3 107.146 240.22H110.176C110.176 236.86 108.136 234.94 103.516 234.94C99.4959 234.94 96.6159 236.74 96.6159 239.71C96.6159 240.85 97.0959 241.93 97.9059 242.53C98.8059 243.19 100.366 243.49 102.676 243.7C104.326 243.85 105.736 244 106.456 244.27C107.236 244.54 107.446 245.05 107.446 245.62C107.446 246.97 106.246 247.81 103.516 247.81C100.636 247.81 99.6459 246.76 99.6459 245.05H96.6159C96.6159 247.96 98.4459 250.24 103.546 250.24ZM118.762 250.24C122.032 250.24 123.802 248.92 124.282 246.73H124.312C124.312 247.93 124.222 249.28 124.162 250H127.522V240.97C127.522 237.07 124.882 234.94 120.382 234.94C116.152 234.94 113.572 236.71 113.572 239.68C113.572 239.95 113.602 240.34 113.632 240.55H116.722C116.692 240.31 116.692 240.07 116.692 239.98C116.692 238.33 117.982 237.46 120.262 237.46C122.872 237.46 124.162 238.45 124.162 240.67V241.72H118.672C114.712 241.72 113.122 243.49 113.122 245.74C113.122 248.62 115.372 250.24 118.762 250.24ZM119.452 247.72C117.412 247.72 116.212 246.94 116.212 245.59C116.212 244.42 117.052 243.76 118.972 243.76H124.162V244.03C124.162 246.31 122.362 247.72 119.452 247.72ZM131.504 243.22H132.824L133.814 233.23V229.84H130.514V233.23L131.504 243.22ZM130.454 250H133.874V246.1H130.454V250ZM158.901 250H163.071L155.061 230.26H150.681L142.641 250H146.361L148.041 245.56H157.251L158.901 250ZM148.941 243.16L152.631 233.32H152.691L156.351 243.16H148.941ZM178.464 250.24C183.204 250.24 185.724 248.47 185.724 245.47C185.724 244.27 185.154 243.13 184.164 242.59C183.114 241.99 181.914 241.78 179.814 241.57C178.014 241.39 176.604 241.24 175.884 241C175.014 240.7 174.864 240.1 174.864 239.47C174.864 238.21 176.184 237.37 178.524 237.37C180.984 237.37 182.034 238.3 182.064 240.22H185.094C185.094 236.86 183.054 234.94 178.434 234.94C174.414 234.94 171.534 236.74 171.534 239.71C171.534 240.85 172.014 241.93 172.824 242.53C173.724 243.19 175.284 243.49 177.594 243.7C179.244 243.85 180.654 244 181.374 244.27C182.154 244.54 182.364 245.05 182.364 245.62C182.364 246.97 181.164 247.81 178.434 247.81C175.554 247.81 174.564 246.76 174.564 245.05H171.534C171.534 247.96 173.364 250.24 178.464 250.24ZM195.75 250.24C200.49 250.24 203.52 247.33 203.52 242.62C203.52 237.88 200.49 234.94 195.75 234.94C191.04 234.94 188.01 237.88 188.01 242.62C188.01 247.33 191.04 250.24 195.75 250.24ZM195.75 247.48C193.02 247.48 191.37 245.62 191.37 242.62C191.37 239.59 193.02 237.7 195.75 237.7C198.48 237.7 200.16 239.59 200.16 242.62C200.16 245.62 198.48 247.48 195.75 247.48ZM206.224 250H209.584V242.77C209.584 239.59 211.114 237.82 213.394 237.82C215.404 237.82 216.514 239.14 216.514 241.24V250H219.874V242.65C219.874 239.56 221.374 237.82 223.714 237.82C225.724 237.82 226.774 239.14 226.774 241.3V250H230.134V240.55C230.134 237.07 228.244 234.94 224.944 234.94C222.124 234.94 220.324 236.44 219.784 238.84H219.754C219.394 236.44 217.534 234.94 214.654 234.94C211.954 234.94 210.154 236.53 209.494 239.08H209.464L209.584 235.18H206.224V250ZM238.408 250.24C241.678 250.24 243.448 248.92 243.928 246.73H243.958C243.958 247.93 243.868 249.28 243.808 250H247.168V240.97C247.168 237.07 244.528 234.94 240.028 234.94C235.798 234.94 233.218 236.71 233.218 239.68C233.218 239.95 233.248 240.34 233.278 240.55H236.368C236.338 240.31 236.338 240.07 236.338 239.98C236.338 238.33 237.628 237.46 239.908 237.46C242.518 237.46 243.808 238.45 243.808 240.67V241.72H238.318C234.358 241.72 232.768 243.49 232.768 245.74C232.768 248.62 235.018 250.24 238.408 250.24ZM239.098 247.72C237.058 247.72 235.858 246.94 235.858 245.59C235.858 244.42 236.698 243.76 238.618 243.76H243.808V244.03C243.808 246.31 242.008 247.72 239.098 247.72ZM263.51 250.24C266.54 250.24 268.4 248.74 268.97 246.4H269.03C268.97 247.84 268.94 249.13 268.88 250H272.24V229.21H268.88V237.79H268.85C268.25 236.05 266.51 234.94 263.72 234.94C259.31 234.94 256.52 238.03 256.52 242.5C256.52 247.12 259.22 250.24 263.51 250.24ZM264.2 247.48C261.56 247.48 259.85 245.44 259.85 242.5C259.85 239.68 261.59 237.7 264.26 237.7C267.05 237.7 268.88 239.38 268.88 242.02V242.74C268.88 245.62 267.02 247.48 264.2 247.48ZM289.565 242.05C289.565 237.43 286.895 234.94 282.695 234.94C278.015 234.94 275.075 237.91 275.075 242.71C275.075 247.36 278.015 250.24 282.695 250.24C286.745 250.24 289.445 248.23 289.565 244.93H286.535C286.385 246.67 284.915 247.63 282.755 247.63C280.235 247.63 278.645 246.1 278.465 243.25H289.565V242.05ZM286.535 241.21H278.555C278.945 238.75 280.415 237.55 282.725 237.55C285.155 237.55 286.535 238.78 286.535 241V241.21ZM304.112 250H307.712V233.23H313.832V230.26H297.992V233.23H304.112V250ZM324.596 250.3C330.356 250.3 334.856 246.43 334.856 240.04C334.856 233.77 330.356 229.96 324.596 229.96C318.866 229.96 314.366 233.77 314.366 240.04C314.366 246.43 318.866 250.3 324.596 250.3ZM324.596 247.3C320.966 247.3 318.026 244.57 318.026 240.04C318.026 235.63 320.966 232.96 324.596 232.96C328.256 232.96 331.196 235.63 331.196 240.04C331.196 244.57 328.256 247.3 324.596 247.3ZM337.83 250H346.02C351.78 250 355.38 246.43 355.38 240.1C355.38 233.83 351.57 230.26 345.39 230.26H337.83V250ZM341.43 247V233.26H345.54C349.32 233.26 351.81 235.6 351.81 240.1C351.81 244.63 349.5 247 345.96 247H341.43ZM367.918 250.3C373.678 250.3 378.178 246.43 378.178 240.04C378.178 233.77 373.678 229.96 367.918 229.96C362.188 229.96 357.688 233.77 357.688 240.04C357.688 246.43 362.188 250.3 367.918 250.3ZM367.918 247.3C364.288 247.3 361.348 244.57 361.348 240.04C361.348 235.63 364.288 232.96 367.918 232.96C371.578 232.96 374.518 235.63 374.518 240.04C374.518 244.57 371.578 247.3 367.918 247.3ZM388.802 250.3C395.522 250.3 397.382 247.33 397.382 244.15C397.382 242.32 396.602 240.94 395.252 240.25C394.022 239.59 392.102 239.26 390.032 238.93C388.322 238.69 386.102 238.33 385.232 237.91C384.452 237.55 384.062 236.89 384.062 235.78C384.062 233.98 385.832 232.75 388.802 232.75C391.892 232.75 393.482 234.13 393.482 237.04H396.722C396.722 232.54 394.592 229.96 388.742 229.96C383.582 229.96 380.492 232.48 380.492 236.08C380.492 237.94 381.242 239.29 382.442 240.04C383.522 240.73 385.622 241.18 387.602 241.45C389.312 241.69 391.442 241.96 392.432 242.35C393.362 242.68 393.812 243.31 393.812 244.39C393.812 246.01 392.792 247.51 388.772 247.51C384.992 247.51 383.792 245.77 383.792 243.25H380.552C380.552 246.85 382.262 250.3 388.802 250.3ZM8.73 294.3C13.59 294.3 16.38 291.3 16.38 285.48V274.26H12.78V285.72C12.78 289.5 11.22 291.3 8.61 291.3C6 291.3 4.62 289.56 4.62 286.68C4.62 285.63 4.65 284.49 4.68 283.8H1.47C1.44 284.49 1.38 285.75 1.38 286.77C1.38 291.54 3.96 294.3 8.73 294.3ZM28.5284 294.3C33.8384 294.3 37.1684 291.3 37.1684 286.56V274.26H33.9584V286.5C33.9584 289.5 31.9184 291.21 28.6784 291.21C25.4684 291.21 23.3984 289.5 23.3984 286.5V274.26H19.8284V286.56C19.8284 291.3 23.1884 294.3 28.5284 294.3ZM40.7306 294H44.1206L44.0906 277.26H44.1206L54.6506 294H58.9106V274.26H55.5206L55.5806 289.26H55.5206L46.1306 274.26H40.7306V294ZM67.3969 294H70.9969V277.23H77.1169V274.26H61.2769V277.23H67.3969V294ZM87.8801 294.3C93.6401 294.3 98.1401 290.43 98.1401 284.04C98.1401 277.77 93.6401 273.96 87.8801 273.96C82.1501 273.96 77.6501 277.77 77.6501 284.04C77.6501 290.43 82.1501 294.3 87.8801 294.3ZM87.8801 291.3C84.2501 291.3 81.3101 288.57 81.3101 284.04C81.3101 279.63 84.2501 276.96 87.8801 276.96C91.5401 276.96 94.4801 279.63 94.4801 284.04C94.4801 288.57 91.5401 291.3 87.8801 291.3ZM108.765 294.3C115.485 294.3 117.345 291.33 117.345 288.15C117.345 286.32 116.565 284.94 115.215 284.25C113.985 283.59 112.065 283.26 109.995 282.93C108.285 282.69 106.065 282.33 105.195 281.91C104.415 281.55 104.025 280.89 104.025 279.78C104.025 277.98 105.795 276.75 108.765 276.75C111.855 276.75 113.445 278.13 113.445 281.04H116.685C116.685 276.54 114.555 273.96 108.705 273.96C103.545 273.96 100.455 276.48 100.455 280.08C100.455 281.94 101.205 283.29 102.405 284.04C103.485 284.73 105.585 285.18 107.565 285.45C109.275 285.69 111.405 285.96 112.395 286.35C113.325 286.68 113.775 287.31 113.775 288.39C113.775 290.01 112.755 291.51 108.735 291.51C104.955 291.51 103.755 289.77 103.755 287.25H100.515C100.515 290.85 102.225 294.3 108.765 294.3ZM127.872 294H131.232V281.91H136.392V279.18H131.232V277.86C131.232 276.24 132.162 275.34 133.872 275.34C134.892 275.34 135.672 275.55 136.152 275.7V273.03C135.672 272.85 134.592 272.61 133.272 272.61C130.062 272.61 127.872 274.41 127.872 277.71V279.18H125.502V281.91H127.872V294ZM143.07 294.24C146.34 294.24 148.11 292.92 148.59 290.73H148.62C148.62 291.93 148.53 293.28 148.47 294H151.83V284.97C151.83 281.07 149.19 278.94 144.69 278.94C140.46 278.94 137.88 280.71 137.88 283.68C137.88 283.95 137.91 284.34 137.94 284.55H141.03C141 284.31 141 284.07 141 283.98C141 282.33 142.29 281.46 144.57 281.46C147.18 281.46 148.47 282.45 148.47 284.67V285.72H142.98C139.02 285.72 137.43 287.49 137.43 289.74C137.43 292.62 139.68 294.24 143.07 294.24ZM143.76 291.72C141.72 291.72 140.52 290.94 140.52 289.59C140.52 288.42 141.36 287.76 143.28 287.76H148.47V288.03C148.47 290.31 146.67 291.72 143.76 291.72ZM154.372 294H166.912V291.27H158.722V291.24L166.912 281.25V279.18H154.612V281.91H162.532V281.97L154.372 291.9V294ZM183.23 286.05C183.23 281.43 180.56 278.94 176.36 278.94C171.68 278.94 168.74 281.91 168.74 286.71C168.74 291.36 171.68 294.24 176.36 294.24C180.41 294.24 183.11 292.23 183.23 288.93H180.2C180.05 290.67 178.58 291.63 176.42 291.63C173.9 291.63 172.31 290.1 172.13 287.25H183.23V286.05ZM180.2 285.21H172.22C172.61 282.75 174.08 281.55 176.39 281.55C178.82 281.55 180.2 282.78 180.2 285V285.21ZM185.988 294H189.348V286.83C189.348 283.59 191.208 281.82 194.148 281.82C196.818 281.82 198.138 283.14 198.138 285.48V294H201.498V284.73C201.498 281.07 199.188 278.94 195.438 278.94C191.988 278.94 190.068 280.47 189.258 283.14H189.228L189.348 279.18H185.988V294ZM211.084 294.24C214.114 294.24 215.974 292.74 216.544 290.4H216.604C216.544 291.84 216.514 293.13 216.454 294H219.814V273.21H216.454V281.79H216.424C215.824 280.05 214.084 278.94 211.294 278.94C206.884 278.94 204.094 282.03 204.094 286.5C204.094 291.12 206.794 294.24 211.084 294.24ZM211.774 291.48C209.134 291.48 207.424 289.44 207.424 286.5C207.424 283.68 209.164 281.7 211.834 281.7C214.624 281.7 216.454 283.38 216.454 286.02V286.74C216.454 289.62 214.594 291.48 211.774 291.48ZM230.389 294.24C235.129 294.24 238.159 291.33 238.159 286.62C238.159 281.88 235.129 278.94 230.389 278.94C225.679 278.94 222.649 281.88 222.649 286.62C222.649 291.33 225.679 294.24 230.389 294.24ZM230.389 291.48C227.659 291.48 226.009 289.62 226.009 286.62C226.009 283.59 227.659 281.7 230.389 281.7C233.119 281.7 234.799 283.59 234.799 286.62C234.799 289.62 233.119 291.48 230.389 291.48ZM254.903 294.24C259.643 294.24 262.673 291.33 262.673 286.62C262.673 281.88 259.643 278.94 254.903 278.94C250.193 278.94 247.163 281.88 247.163 286.62C247.163 291.33 250.193 294.24 254.903 294.24ZM254.903 291.48C252.173 291.48 250.523 289.62 250.523 286.62C250.523 283.59 252.173 281.7 254.903 281.7C257.633 281.7 259.313 283.59 259.313 286.62C259.313 289.62 257.633 291.48 254.903 291.48ZM284.037 299.94H287.397V279.18H284.067V282H284.037C283.437 280.11 281.667 278.94 278.787 278.94C274.647 278.94 271.677 281.91 271.677 286.47C271.677 291.21 274.377 294.24 278.637 294.24C281.487 294.24 283.467 292.8 284.007 290.58H284.037V299.94ZM279.357 291.48C276.747 291.48 275.007 289.53 275.007 286.47C275.007 283.59 276.807 281.7 279.417 281.7C282.207 281.7 284.037 283.38 284.037 285.99V286.71C284.037 289.62 282.177 291.48 279.357 291.48ZM296.773 294.24C300.073 294.24 302.143 292.68 302.773 289.86H302.803C302.803 291.42 302.743 293.01 302.653 294H306.013V279.18H302.653V285.75C302.653 289.35 300.763 291.36 297.763 291.36C295.333 291.36 293.893 290.04 293.893 287.7V279.18H290.533V288.18C290.533 292.11 292.903 294.24 296.773 294.24ZM323.249 286.05C323.249 281.43 320.579 278.94 316.379 278.94C311.699 278.94 308.759 281.91 308.759 286.71C308.759 291.36 311.699 294.24 316.379 294.24C320.429 294.24 323.129 292.23 323.249 288.93H320.219C320.069 290.67 318.599 291.63 316.439 291.63C313.919 291.63 312.329 290.1 312.149 287.25H323.249V286.05ZM320.219 285.21H312.239C312.629 282.75 314.099 281.55 316.409 281.55C318.839 281.55 320.219 282.78 320.219 285V285.21ZM337.976 294.24C341.246 294.24 343.016 292.92 343.496 290.73H343.526C343.526 291.93 343.436 293.28 343.376 294H346.736V284.97C346.736 281.07 344.096 278.94 339.596 278.94C335.366 278.94 332.786 280.71 332.786 283.68C332.786 283.95 332.816 284.34 332.846 284.55H335.936C335.906 284.31 335.906 284.07 335.906 283.98C335.906 282.33 337.196 281.46 339.476 281.46C342.086 281.46 343.376 282.45 343.376 284.67V285.72H337.886C333.926 285.72 332.336 287.49 332.336 289.74C332.336 292.62 334.586 294.24 337.976 294.24ZM338.666 291.72C336.626 291.72 335.426 290.94 335.426 289.59C335.426 288.42 336.266 287.76 338.186 287.76H343.376V288.03C343.376 290.31 341.576 291.72 338.666 291.72ZM349.788 294H353.148V286.77C353.148 283.59 354.678 281.82 356.958 281.82C358.968 281.82 360.078 283.14 360.078 285.24V294H363.438V286.65C363.438 283.56 364.938 281.82 367.278 281.82C369.288 281.82 370.338 283.14 370.338 285.3V294H373.698V284.55C373.698 281.07 371.808 278.94 368.508 278.94C365.688 278.94 363.888 280.44 363.348 282.84H363.318C362.958 280.44 361.098 278.94 358.218 278.94C355.518 278.94 353.718 280.53 353.058 283.08H353.028L353.148 279.18H349.788V294ZM381.972 294.24C385.242 294.24 387.012 292.92 387.492 290.73H387.522C387.522 291.93 387.432 293.28 387.372 294H390.732V284.97C390.732 281.07 388.092 278.94 383.592 278.94C379.362 278.94 376.782 280.71 376.782 283.68C376.782 283.95 376.812 284.34 376.842 284.55H379.932C379.902 284.31 379.902 284.07 379.902 283.98C379.902 282.33 381.192 281.46 383.472 281.46C386.082 281.46 387.372 282.45 387.372 284.67V285.72H381.882C377.922 285.72 376.332 287.49 376.332 289.74C376.332 292.62 378.582 294.24 381.972 294.24ZM382.662 291.72C380.622 291.72 379.422 290.94 379.422 289.59C379.422 288.42 380.262 287.76 382.182 287.76H387.372V288.03C387.372 290.31 385.572 291.72 382.662 291.72ZM393.784 294H397.144V286.77C397.144 283.59 398.674 281.82 400.954 281.82C402.964 281.82 404.074 283.14 404.074 285.24V294H407.434V286.65C407.434 283.56 408.934 281.82 411.274 281.82C413.284 281.82 414.334 283.14 414.334 285.3V294H417.694V284.55C417.694 281.07 415.804 278.94 412.504 278.94C409.684 278.94 407.884 280.44 407.344 282.84H407.314C406.954 280.44 405.094 278.94 402.214 278.94C399.514 278.94 397.714 280.53 397.054 283.08H397.024L397.144 279.18H393.784V294ZM428.487 294H431.847V281.91H437.007V279.18H431.847V277.86C431.847 276.24 432.777 275.34 434.487 275.34C435.507 275.34 436.287 275.55 436.767 275.7V273.03C436.287 272.85 435.207 272.61 433.887 272.61C430.677 272.61 428.487 274.41 428.487 277.71V279.18H426.117V281.91H428.487V294ZM443.685 294.24C446.955 294.24 448.725 292.92 449.205 290.73H449.235C449.235 291.93 449.145 293.28 449.085 294H452.445V284.97C452.445 281.07 449.805 278.94 445.305 278.94C441.075 278.94 438.495 280.71 438.495 283.68C438.495 283.95 438.525 284.34 438.555 284.55H441.645C441.615 284.31 441.615 284.07 441.615 283.98C441.615 282.33 442.905 281.46 445.185 281.46C447.795 281.46 449.085 282.45 449.085 284.67V285.72H443.595C439.635 285.72 438.045 287.49 438.045 289.74C438.045 292.62 440.295 294.24 443.685 294.24ZM444.375 291.72C442.335 291.72 441.135 290.94 441.135 289.59C441.135 288.42 441.975 287.76 443.895 287.76H449.085V288.03C449.085 290.31 447.285 291.72 444.375 291.72ZM454.988 294H467.528V291.27H459.338V291.24L467.528 281.25V279.18H455.228V281.91H463.148V281.97L454.988 291.9V294ZM8.97 338.24C13.71 338.24 16.74 335.33 16.74 330.62C16.74 325.88 13.71 322.94 8.97 322.94C4.26 322.94 1.23 325.88 1.23 330.62C1.23 335.33 4.26 338.24 8.97 338.24ZM8.97 335.48C6.24 335.48 4.59 333.62 4.59 330.62C4.59 327.59 6.24 325.7 8.97 325.7C11.7 325.7 13.38 327.59 13.38 330.62C13.38 333.62 11.7 335.48 8.97 335.48ZM26.4338 338H29.8238L29.7938 321.26H29.8238L40.3537 338H44.6138V318.26H41.2238L41.2838 333.26H41.2238L31.8338 318.26H26.4338V338ZM57.42 338.3C61.02 338.3 63.24 336.74 63.84 334.46H63.87C63.84 335.81 63.75 337.22 63.69 338H66.69V328.28H57.09V330.56H63.21V331.01C63.21 333.68 60.87 335.51 57.72 335.51C54.15 335.51 51.24 332.78 51.24 328.37C51.24 323.81 54.06 320.96 57.87 320.96C60.9 320.96 63.3 322.55 63.3 325.34C63.3 325.61 63.3 325.94 63.27 326.3H66.48C66.51 325.94 66.54 325.46 66.54 325.13C66.54 320.63 62.79 317.96 57.81 317.96C51.99 317.96 47.61 322.01 47.61 328.34C47.61 334.52 51.78 338.3 57.42 338.3ZM70.4669 338H73.8569V334.1H70.4669V338ZM87.3028 338.3C92.5228 338.3 96.2428 335.24 96.2428 330.77V330.08H93.0328V330.56C93.0328 333.41 90.7228 335.3 87.4228 335.3C83.7028 335.3 80.8228 332.57 80.8228 328.16C80.8228 323.75 83.5828 320.96 87.4228 320.96C90.6028 320.96 92.9728 322.88 92.9728 325.91C92.9728 326.06 92.9728 326.3 92.9428 326.57H96.1228C96.1528 326.21 96.1828 325.82 96.1828 325.61C96.1828 321.05 92.4928 317.96 87.3028 317.96C81.3628 317.96 77.1628 321.86 77.1628 328.16C77.1628 334.43 81.4228 338.3 87.3028 338.3ZM113.371 338H117.541L109.531 318.26H105.151L97.1107 338H100.831L102.511 333.56H111.721L113.371 338ZM103.411 331.16L107.101 321.32H107.161L110.821 331.16H103.411ZM126.804 338.3C133.524 338.3 135.384 335.33 135.384 332.15C135.384 330.32 134.604 328.94 133.254 328.25C132.024 327.59 130.104 327.26 128.034 326.93C126.324 326.69 124.104 326.33 123.234 325.91C122.454 325.55 122.064 324.89 122.064 323.78C122.064 321.98 123.834 320.75 126.804 320.75C129.894 320.75 131.484 322.13 131.484 325.04H134.724C134.724 320.54 132.594 317.96 126.744 317.96C121.584 317.96 118.494 320.48 118.494 324.08C118.494 325.94 119.244 327.29 120.444 328.04C121.524 328.73 123.624 329.18 125.604 329.45C127.314 329.69 129.444 329.96 130.434 330.35C131.364 330.68 131.814 331.31 131.814 332.39C131.814 334.01 130.794 335.51 126.774 335.51C122.994 335.51 121.794 333.77 121.794 331.25H118.554C118.554 334.85 120.264 338.3 126.804 338.3ZM138.412 338H142.012V329.21H152.512V338H156.082V318.26H152.512V326.33H142.012V318.26H138.412V338ZM172.77 338.24C177.51 338.24 180.03 336.47 180.03 333.47C180.03 332.27 179.46 331.13 178.47 330.59C177.42 329.99 176.22 329.78 174.12 329.57C172.32 329.39 170.91 329.24 170.19 329C169.32 328.7 169.17 328.1 169.17 327.47C169.17 326.21 170.49 325.37 172.83 325.37C175.29 325.37 176.34 326.3 176.37 328.22H179.4C179.4 324.86 177.36 322.94 172.74 322.94C168.72 322.94 165.84 324.74 165.84 327.71C165.84 328.85 166.32 329.93 167.13 330.53C168.03 331.19 169.59 331.49 171.9 331.7C173.55 331.85 174.96 332 175.68 332.27C176.46 332.54 176.67 333.05 176.67 333.62C176.67 334.97 175.47 335.81 172.74 335.81C169.86 335.81 168.87 334.76 168.87 333.05H165.84C165.84 335.96 167.67 338.24 172.77 338.24ZM196.805 330.05C196.805 325.43 194.135 322.94 189.935 322.94C185.255 322.94 182.315 325.91 182.315 330.71C182.315 335.36 185.255 338.24 189.935 338.24C193.985 338.24 196.685 336.23 196.805 332.93H193.775C193.625 334.67 192.155 335.63 189.995 335.63C187.475 335.63 185.885 334.1 185.705 331.25H196.805V330.05ZM193.775 329.21H185.795C186.185 326.75 187.655 325.55 189.965 325.55C192.395 325.55 193.775 326.78 193.775 329V329.21ZM199.563 338H202.923V331.52C202.923 327.98 204.513 325.82 207.063 325.82C209.043 325.82 210.003 326.99 210.003 329.48C210.003 330.17 209.943 330.92 209.883 331.49H212.943C213.003 330.86 213.093 329.66 213.093 328.73C213.093 325.04 211.323 322.94 208.113 322.94C205.053 322.94 203.523 324.77 202.833 327.44H202.803L202.923 323.18H199.563V338ZM229.844 338.24C234.584 338.24 237.614 335.33 237.614 330.62C237.614 325.88 234.584 322.94 229.844 322.94C225.134 322.94 222.104 325.88 222.104 330.62C222.104 335.33 225.134 338.24 229.844 338.24ZM229.844 335.48C227.114 335.48 225.464 333.62 225.464 330.62C225.464 327.59 227.114 325.7 229.844 325.7C232.574 325.7 234.254 327.59 234.254 330.62C234.254 333.62 232.574 335.48 229.844 335.48ZM248.057 338H251.417V325.91H256.577V323.18H251.417V321.86C251.417 320.24 252.347 319.34 254.057 319.34C255.077 319.34 255.857 319.55 256.337 319.7V317.03C255.857 316.85 254.777 316.61 253.457 316.61C250.247 316.61 248.057 318.41 248.057 321.71V323.18H245.687V325.91H248.057V338ZM265.004 338.24C268.304 338.24 270.374 336.68 271.004 333.86H271.034C271.034 335.42 270.974 337.01 270.884 338H274.244V323.18H270.884V329.75C270.884 333.35 268.994 335.36 265.994 335.36C263.564 335.36 262.124 334.04 262.124 331.7V323.18H258.764V332.18C258.764 336.11 261.134 338.24 265.004 338.24ZM284.04 338.18C285.27 338.18 286.29 337.97 286.74 337.82V335.15C286.32 335.27 285.36 335.42 284.52 335.42C282.48 335.42 281.76 334.46 281.76 332.54V325.91H286.86V323.18H281.76V319.82H278.97L278.82 322.04C278.73 322.88 278.52 323.18 277.95 323.18H276.06V325.91H278.4V332.72C278.4 335.99 279.99 338.18 284.04 338.18ZM295.465 338.24C298.765 338.24 300.835 336.68 301.465 333.86H301.495C301.495 335.42 301.435 337.01 301.345 338H304.705V323.18H301.345V329.75C301.345 333.35 299.455 335.36 296.455 335.36C294.025 335.36 292.585 334.04 292.585 331.7V323.18H289.225V332.18C289.225 336.11 291.595 338.24 295.465 338.24ZM307.901 338H311.261V331.52C311.261 327.98 312.851 325.82 315.401 325.82C317.381 325.82 318.341 326.99 318.341 329.48C318.341 330.17 318.281 330.92 318.221 331.49H321.281C321.341 330.86 321.431 329.66 321.431 328.73C321.431 325.04 319.661 322.94 316.451 322.94C313.391 322.94 311.861 324.77 311.171 327.44H311.141L311.261 323.18H307.901V338ZM331.433 338.24C336.173 338.24 339.203 335.33 339.203 330.62C339.203 325.88 336.173 322.94 331.433 322.94C326.723 322.94 323.693 325.88 323.693 330.62C323.693 335.33 326.723 338.24 331.433 338.24ZM331.433 335.48C328.703 335.48 327.053 333.62 327.053 330.62C327.053 327.59 328.703 325.7 331.433 325.7C334.163 325.7 335.843 327.59 335.843 330.62C335.843 333.62 334.163 335.48 331.433 335.48ZM342.837 331.22H344.157L345.147 321.23V317.84H341.847V321.23L342.837 331.22ZM341.787 338H345.207V334.1H341.787V338Z" fill="white"/>
</svg>
