<svg width="311" height="177" viewBox="0 0 311 177" fill="none" xmlns="http://www.w3.org/2000/svg">
<path d="M1.912 14H4.984V11.664L7.272 9.888L11.592 14H15.896L9.544 8.112L15.512 3.472H11.64L5.016 8.736H4.984V3.472H1.912V14ZM27.8181 14H31.3861L25.6581 3.472H22.0101L16.2821 14H19.4501L20.5381 11.856H26.7301L27.8181 14ZM21.4341 10.064L23.6101 5.776H23.6261L25.8181 10.064H21.4341ZM32.1236 14H43.2756V11.728H36.1236V11.712L43.3396 5.664V3.472H32.2036V5.744H39.5316V5.776L32.1236 12V14ZM50.7696 14.192C54.6256 14.192 56.9616 12.624 56.9616 9.296V3.472H54.2096V8.96C54.2096 10.976 52.9616 11.76 50.9136 11.76C48.8656 11.76 47.6176 10.976 47.6176 8.96V3.472H44.5456V9.296C44.5456 12.624 46.9296 14.192 50.7696 14.192ZM58.5728 14H68.6848V11.728H61.6448V9.6H66.9248V7.808H61.6448V5.744H68.5248V3.472H58.5728V14ZM74.7469 14H77.8189V11.664L80.1069 9.888L84.4269 14H88.7309L82.3789 8.112L88.3469 3.472H84.4749L77.8509 8.736H77.8189V3.472H74.7469V14ZM95.3159 14.192C100.228 14.192 102.228 11.68 102.228 8.688C102.228 5.776 100.068 3.28 95.3159 3.28C90.5639 3.28 88.4039 5.776 88.4039 8.688C88.4039 11.84 90.5479 14.192 95.3159 14.192ZM95.3159 11.92C92.8039 11.92 91.6359 10.592 91.6359 8.704C91.6359 6.992 92.8199 5.552 95.3159 5.552C97.8119 5.552 98.9959 6.992 98.9959 8.704C98.9959 10.512 97.8919 11.92 95.3159 11.92ZM106.584 14H109.656V5.744H113.8V3.472H102.44V5.744H106.584V14ZM118.796 14H121.868V5.744H126.012V3.472H114.652V5.744H118.796V14ZM131.008 14H134.384L137.088 7.2H137.12L139.728 14H143.104L147.328 3.472H144.304L141.632 10.704H141.6L138.848 3.472H135.744L132.944 10.704H132.912L130.112 3.472H126.784L131.008 14ZM148.544 14H151.616V3.472H148.544V14ZM157.058 14H160.13V5.744H164.274V3.472H152.914V5.744H157.058V14ZM165.081 14H176.233V11.728H169.081V11.712L176.297 5.664V3.472H165.161V5.744H172.489V5.776L165.081 12V14ZM5.352 34.128C7.24 34.128 8.536 33.072 8.888 31.552H8.904C8.904 32.448 8.888 33.472 8.872 34H9.736V26.096H8.872V29.776C8.872 31.936 7.48 33.344 5.56 33.344C3.8 33.344 2.904 32.32 2.904 30.848V26.096H2.04V30.976C2.04 32.848 3.176 34.128 5.352 34.128ZM11.2073 34H12.2953L15.0153 30.528L17.7993 34H18.9193L15.6713 29.968L18.7753 26.096H17.7193L15.1113 29.424L12.4713 26.096H11.3353L14.4393 29.952L11.2073 34ZM18.8835 37.2H19.5075L24.4355 22.16H23.7955L18.8835 37.2ZM28.2695 34.128C30.1575 34.128 31.4535 33.072 31.8055 31.552H31.8215C31.8215 32.448 31.8055 33.472 31.7895 34H32.6535V26.096H31.7895V29.776C31.7895 31.936 30.3975 33.344 28.4775 33.344C26.7175 33.344 25.8215 32.32 25.8215 30.848V26.096H24.9575V30.976C24.9575 32.848 26.0935 34.128 28.2695 34.128ZM34.8288 25.024H35.7728V23.536H34.8288V25.024ZM34.8768 34H35.7408V26.096H34.8768V34ZM45.1468 34.128C46.9548 34.128 48.1228 33.104 48.4268 31.696H48.4588C48.4428 32.464 48.4268 33.232 48.3948 34H49.2588V22.912H48.3948V27.856H48.3788C48.0268 26.64 46.9228 25.968 45.2268 25.968C42.8748 25.968 41.3708 27.616 41.3708 29.952C41.3708 32.512 42.8588 34.128 45.1468 34.128ZM45.2588 33.344C43.4348 33.344 42.2348 32.016 42.2348 29.952C42.2348 28.096 43.4508 26.752 45.2908 26.752C47.1628 26.752 48.3948 27.808 48.3948 29.76V30.144C48.3948 31.872 47.2428 33.344 45.2588 33.344ZM58.5671 29.664C58.5671 27.28 57.2391 25.968 55.0631 25.968C52.7271 25.968 51.2391 27.552 51.2391 30.112C51.2391 32.592 52.7431 34.128 55.0951 34.128C57.0951 34.128 58.4871 33.072 58.5671 31.376H57.7511C57.6391 32.608 56.5831 33.376 55.0951 33.376C53.2871 33.376 52.1191 32.16 52.1031 30.144H58.5671V29.664ZM57.7511 29.488H52.1351C52.3431 27.712 53.4471 26.72 55.0951 26.72C56.7271 26.72 57.7511 27.664 57.7511 29.408V29.488ZM63.5452 34.128C65.8172 34.128 67.0812 33.232 67.0812 31.728C67.0812 31.104 66.8252 30.544 66.3292 30.256C65.8332 29.984 65.2572 29.872 63.8972 29.728C62.7452 29.6 61.9772 29.488 61.5772 29.28C61.1772 29.088 61.0652 28.688 61.0652 28.304C61.0652 27.36 62.0572 26.72 63.5612 26.72C65.1772 26.72 65.9452 27.392 65.9452 28.784H66.7612C66.7612 26.976 65.7692 25.968 63.5292 25.968C61.5132 25.968 60.2012 26.928 60.2012 28.352C60.2012 28.928 60.4092 29.456 60.8412 29.76C61.3052 30.08 62.0892 30.256 63.4172 30.384C64.6332 30.496 65.3372 30.608 65.6892 30.784C66.0732 30.992 66.2172 31.344 66.2172 31.76C66.2172 32.768 65.2892 33.376 63.5452 33.376C61.7372 33.376 61.0012 32.624 61.0012 31.36H60.2012C60.2012 32.976 61.0812 34.128 63.5452 34.128ZM69.0141 25.024H69.9581V23.536H69.0141V25.024ZM69.0621 34H69.9261V26.096H69.0621V34ZM77.2826 33.024H74.7386C74.0506 33.024 73.6826 32.672 73.6826 32.096C73.6826 31.76 73.7946 31.472 73.9386 31.344C74.3706 31.504 74.8666 31.6 75.4426 31.6C77.4266 31.6 78.6586 30.496 78.6586 28.784C78.6586 28.112 78.4666 27.536 78.1146 27.072C77.9546 26.704 77.8426 26.336 77.8426 26.032C77.8426 25.552 78.1626 25.312 78.6906 25.312C78.9786 25.312 79.1866 25.376 79.2826 25.424V24.704C79.1706 24.656 78.9466 24.592 78.5946 24.592C77.7626 24.592 77.2666 24.992 77.2666 25.648C77.2666 26 77.3946 26.32 77.5546 26.528V26.544C77.0106 26.176 76.2906 25.968 75.4426 25.968C73.4586 25.968 72.2266 27.072 72.2266 28.784C72.2266 29.792 72.6426 30.576 73.3946 31.072V31.104C73.1546 31.28 72.9306 31.664 72.9306 32.224C72.9306 32.768 73.1706 33.2 73.5706 33.472V33.488C72.5626 33.488 71.8426 34.16 71.8426 35.088C71.8426 36.544 73.3466 37.376 75.8586 37.376C78.2426 37.376 79.6666 36.432 79.6666 34.88C79.6666 33.712 78.8026 33.024 77.2826 33.024ZM75.4426 26.72C76.9146 26.72 77.8106 27.52 77.8106 28.784C77.8106 30.048 76.9146 30.848 75.4426 30.848C73.9706 30.848 73.0746 30.048 73.0746 28.784C73.0746 27.52 73.9706 26.72 75.4426 26.72ZM75.8586 36.624C73.9066 36.624 72.7066 36.096 72.7066 35.056C72.7066 34.208 73.4586 33.776 74.7386 33.776H77.1706C78.2426 33.776 78.8026 34.192 78.8026 34.96C78.8026 35.952 77.8906 36.624 75.8586 36.624ZM81.4215 34H82.2855V29.952C82.2855 27.92 83.5975 26.752 85.5175 26.752C87.3255 26.752 88.2535 27.664 88.2535 29.264V34H89.1175V29.104C89.1175 27.12 87.8855 25.968 85.7735 25.968C83.8855 25.968 82.7015 26.848 82.2695 28.288H82.2535L82.2855 26.096H81.4215V34ZM98.2368 29.664C98.2368 27.28 96.9088 25.968 94.7328 25.968C92.3968 25.968 90.9088 27.552 90.9088 30.112C90.9088 32.592 92.4128 34.128 94.7648 34.128C96.7648 34.128 98.1568 33.072 98.2368 31.376H97.4208C97.3088 32.608 96.2528 33.376 94.7648 33.376C92.9568 33.376 91.7888 32.16 91.7728 30.144H98.2368V29.664ZM97.4208 29.488H91.8048C92.0128 27.712 93.1168 26.72 94.7648 26.72C96.3968 26.72 97.4208 27.664 97.4208 29.408V29.488ZM100.127 34H100.991V30.32C100.991 28.16 102.095 26.752 103.775 26.752C105.183 26.752 105.855 27.584 105.855 29.248C105.855 29.664 105.823 30.08 105.791 30.32H106.591C106.623 30.048 106.655 29.552 106.655 29.088C106.655 27.088 105.711 25.968 103.951 25.968C102.303 25.968 101.327 27.008 100.975 28.448H100.959L100.991 26.096H100.127V34ZM117.888 36.56C119.504 36.56 121.136 36.304 122.16 35.904L122.128 35.232C121.216 35.6 119.552 35.904 117.904 35.888C114.384 35.888 112.304 34.08 112.304 30.64C112.304 26.592 115.04 23.952 118.304 23.952C121.856 23.952 123.536 25.488 123.536 28.288C123.536 30.784 122.416 32.896 121.296 32.896C120.736 32.896 120.528 32.576 120.528 32C120.528 31.6 120.608 31.104 120.72 30.448L121.504 26.288H120.368L120.096 27.264H120.08C119.76 26.608 119.088 26.16 118 26.16C115.792 26.16 114.352 28.656 114.352 30.896C114.352 32.448 115.184 33.68 116.8 33.68C118.256 33.68 119.024 32.784 119.392 31.456H119.424C119.168 32.832 119.648 33.68 120.96 33.68C122.768 33.68 124.256 31.504 124.256 28.288C124.256 25.216 122.336 23.28 118.32 23.28C114.592 23.28 111.584 26.208 111.584 30.64C111.584 34.56 114.064 36.56 117.888 36.56ZM117.04 32.608C116.096 32.608 115.584 31.92 115.584 30.848C115.584 29.248 116.56 27.232 118.128 27.232C119.008 27.232 119.648 27.664 119.888 28.176L119.648 29.424C119.296 31.264 118.32 32.608 117.04 32.608ZM125.954 34H127.234V24.448H127.266L133.554 34H135.138V23.472H133.858V32.208H133.826L128.114 23.472H125.954V34ZM142.34 34.16C144.436 34.16 145.604 33.248 145.924 32.048H145.94C145.908 32.816 145.86 33.568 145.812 34H147.076V28.944H142.036V29.936H145.732V30.24C145.732 31.824 144.436 33.008 142.34 33.008C140.228 33.008 138.468 31.392 138.468 28.848C138.468 26.224 140.196 24.528 142.42 24.528C144.324 24.528 145.732 25.52 145.732 27.2C145.732 27.36 145.732 27.552 145.716 27.76H146.964C146.98 27.504 146.98 27.264 146.98 27.136C146.98 24.736 145.076 23.312 142.42 23.312C139.428 23.312 137.124 25.536 137.124 28.832C137.124 32.096 139.348 34.16 142.34 34.16ZM149.443 34H150.819V32.176H149.443V34ZM158.157 34.16C160.845 34.16 162.829 32.528 162.829 30.16V29.904H161.581V30.096C161.581 31.776 160.093 32.944 158.157 32.944C155.949 32.944 154.205 31.312 154.205 28.752C154.205 26.176 155.869 24.528 158.157 24.528C160.077 24.528 161.533 25.728 161.533 27.504V27.792H162.765C162.781 27.584 162.781 27.44 162.781 27.408C162.781 24.976 160.829 23.312 158.157 23.312C155.037 23.312 152.861 25.44 152.861 28.752C152.861 32.048 155.101 34.16 158.157 34.16ZM172.46 34H174.028L169.58 23.472H167.98L163.532 34H164.94L165.98 31.44H171.436L172.46 34ZM166.38 30.448L168.716 24.704H168.748L171.036 30.448H166.38ZM179.041 34.16C182.481 34.16 183.473 32.576 183.473 30.976C183.473 30.016 183.041 29.28 182.337 28.928C181.649 28.576 180.545 28.4 179.489 28.256C178.577 28.128 177.313 27.936 176.801 27.68C176.353 27.456 176.097 27.056 176.097 26.384C176.097 25.232 177.313 24.464 179.025 24.464C180.833 24.464 181.857 25.264 181.857 27.104H183.105C183.105 24.672 181.937 23.312 178.993 23.312C176.481 23.312 174.753 24.624 174.753 26.496C174.753 27.488 175.185 28.192 175.793 28.56C176.369 28.912 177.521 29.168 178.609 29.296C179.521 29.424 180.721 29.552 181.297 29.792C181.841 30.016 182.129 30.384 182.129 31.056C182.129 32.064 181.457 33.008 179.041 33.008C176.801 33.008 176.033 31.936 176.033 30.416H174.785C174.785 32.32 175.665 34.16 179.041 34.16ZM185.446 34H186.79V29.072H193.254V34H194.598V23.472H193.254V27.952H186.79V23.472H185.446V34Z" fill="black"/>
<line x1="3.99082e-08" y1="49.0162" x2="295.228" y2="49.0162" stroke="black" stroke-width="0.912994"/>
<path d="M295.407 65.3246C295.407 53.8472 291.239 49.7326 279.815 49.7326C291.293 49.7326 295.407 45.5639 295.407 34.1406C295.407 45.6181 299.576 49.7326 310.999 49.7326C299.576 49.6785 295.407 53.8472 295.407 65.3246Z" fill="black"/>
<path d="M4.2 72.1822C1.848 72.1822 0.896 73.2882 0.896 75.2622V76.8162H3.612V74.5062H2.506V74.4502C2.506 73.8342 2.884 73.3722 4.2 73.3722V72.1822ZM8.428 72.1822C6.076 72.1822 5.124 73.2882 5.124 75.2622V76.8162H7.84V74.5062H6.734V74.4502C6.734 73.8342 7.112 73.3722 8.428 73.3722V72.1822ZM111.914 166.732C114.266 166.732 115.218 165.626 115.218 163.652V162.098H112.502V164.408H113.608V164.464C113.608 165.08 113.23 165.542 111.914 165.542V166.732ZM116.156 166.732C118.508 166.732 119.46 165.626 119.46 163.652V162.098H116.744V164.408H117.85V164.464C117.85 165.08 117.472 165.542 116.156 165.542V166.732Z" fill="white"/>
<path d="M9.71342 81.3242H11.3934V78.4682H13.7314C15.9434 78.4682 17.1474 77.3202 17.1474 75.3182C17.1474 73.2602 15.8034 72.1122 13.5214 72.1122H9.71342V81.3242ZM11.3934 77.2782V73.5122H13.4654C14.8094 73.5122 15.5514 74.1842 15.5514 75.4022C15.5514 76.6622 14.8514 77.2782 13.6334 77.2782H11.3934ZM20.7318 81.4362C22.2578 81.4362 23.0838 80.8202 23.3078 79.7982H23.3218C23.3218 80.3582 23.2798 80.9882 23.2518 81.3242H24.8198V77.1102C24.8198 75.2902 23.5878 74.2962 21.4878 74.2962C19.5138 74.2962 18.3098 75.1222 18.3098 76.5082C18.3098 76.6342 18.3238 76.8162 18.3378 76.9142H19.7798C19.7658 76.8022 19.7658 76.6902 19.7658 76.6482C19.7658 75.8782 20.3678 75.4722 21.4318 75.4722C22.6498 75.4722 23.2518 75.9342 23.2518 76.9702V77.4602H20.6898C18.8418 77.4602 18.0998 78.2862 18.0998 79.3362C18.0998 80.6802 19.1498 81.4362 20.7318 81.4362ZM21.0538 80.2602C20.1018 80.2602 19.5418 79.8962 19.5418 79.2662C19.5418 78.7202 19.9338 78.4122 20.8298 78.4122H23.2518V78.5382C23.2518 79.6022 22.4118 80.2602 21.0538 80.2602ZM26.1562 81.3242H27.7242V78.3002C27.7242 76.6482 28.4662 75.6402 29.6562 75.6402C30.5802 75.6402 31.0282 76.1862 31.0282 77.3482C31.0282 77.6702 31.0002 78.0202 30.9722 78.2862H32.4002C32.4282 77.9922 32.4702 77.4322 32.4702 76.9982C32.4702 75.2762 31.6442 74.2962 30.1462 74.2962C28.7182 74.2962 28.0042 75.1502 27.6822 76.3962H27.6682L27.7242 74.4082H26.1562V81.3242ZM36.7274 81.4082C37.3014 81.4082 37.7774 81.3102 37.9874 81.2402V79.9942C37.7914 80.0502 37.3434 80.1202 36.9514 80.1202C35.9994 80.1202 35.6634 79.6722 35.6634 78.7762V75.6822H38.0434V74.4082H35.6634V72.8402H34.3614L34.2914 73.8762C34.2494 74.2682 34.1514 74.4082 33.8854 74.4082H33.0034V75.6822H34.0954V78.8602C34.0954 80.3862 34.8374 81.4082 36.7274 81.4082ZM39.1709 73.5962H40.7809V72.0562H39.1709V73.5962ZM39.1849 81.3242H40.7529V74.4082H39.1849V81.3242ZM45.4095 81.4362C47.3835 81.4362 48.6995 80.3582 48.6995 78.5102H47.2855C47.2715 79.5322 46.5855 80.1482 45.4795 80.1482C44.3175 80.1482 43.5895 79.2802 43.5895 77.8662C43.5895 76.4382 44.3315 75.5842 45.5355 75.5842C46.5855 75.5842 47.2575 76.2142 47.2715 77.2502H48.6855C48.6855 75.4162 47.4255 74.2962 45.4935 74.2962C43.4075 74.2962 42.0215 75.6542 42.0215 77.8662C42.0215 80.0782 43.3795 81.4362 45.4095 81.4362ZM49.9698 73.5962H51.5798V72.0562H49.9698V73.5962ZM49.9838 81.3242H51.5518V74.4082H49.9838V81.3242ZM53.0724 84.0962H54.6404V81.3802C54.6404 81.1002 54.6124 80.3862 54.5984 79.9242H54.6124C54.9064 80.8202 55.8024 81.4362 57.1744 81.4362C59.1624 81.4362 60.4224 79.9802 60.4224 77.7402C60.4224 75.6542 59.1764 74.2962 57.2024 74.2962C55.8304 74.2962 54.9064 74.9682 54.6264 76.0182H54.6124L54.6404 74.4082H53.0724V84.0962ZM56.8664 80.1482C55.5224 80.1482 54.6404 79.3922 54.6404 78.2162V77.8522C54.6684 76.4662 55.5364 75.5842 56.8384 75.5842C58.0844 75.5842 58.8544 76.4522 58.8544 77.7822C58.8544 79.2242 58.0704 80.1482 56.8664 80.1482ZM63.6959 81.4362C65.2219 81.4362 66.0479 80.8202 66.2719 79.7982H66.2859C66.2859 80.3582 66.2439 80.9882 66.2159 81.3242H67.7839V77.1102C67.7839 75.2902 66.5519 74.2962 64.4519 74.2962C62.4779 74.2962 61.2739 75.1222 61.2739 76.5082C61.2739 76.6342 61.2879 76.8162 61.3019 76.9142H62.7439C62.7299 76.8022 62.7299 76.6902 62.7299 76.6482C62.7299 75.8782 63.3319 75.4722 64.3959 75.4722C65.6139 75.4722 66.2159 75.9342 66.2159 76.9702V77.4602H63.6539C61.8059 77.4602 61.0639 78.2862 61.0639 79.3362C61.0639 80.6802 62.1139 81.4362 63.6959 81.4362ZM64.0179 80.2602C63.0659 80.2602 62.5059 79.8962 62.5059 79.2662C62.5059 78.7202 62.8979 78.4122 63.7939 78.4122H66.2159V78.5382C66.2159 79.6022 65.3759 80.2602 64.0179 80.2602ZM69.1203 81.3242H70.6883V78.3002C70.6883 76.6482 71.4303 75.6402 72.6203 75.6402C73.5443 75.6402 73.9923 76.1862 73.9923 77.3482C73.9923 77.6702 73.9643 78.0202 73.9363 78.2862H75.3643C75.3923 77.9922 75.4343 77.4322 75.4343 76.9982C75.4343 75.2762 74.6083 74.2962 73.1103 74.2962C71.6823 74.2962 70.9683 75.1502 70.6463 76.3962H70.6323L70.6883 74.4082H69.1203V81.3242ZM82.7251 81.4362C84.1391 81.4362 85.0071 80.7362 85.2731 79.6442H85.3011C85.2731 80.3162 85.2591 80.9182 85.2311 81.3242H86.7991V71.6222H85.2311V75.6262H85.2171C84.9371 74.8142 84.1251 74.2962 82.8231 74.2962C80.7651 74.2962 79.4631 75.7382 79.4631 77.8242C79.4631 79.9802 80.7231 81.4362 82.7251 81.4362ZM83.0471 80.1482C81.8151 80.1482 81.0171 79.1962 81.0171 77.8242C81.0171 76.5082 81.8291 75.5842 83.0751 75.5842C84.3771 75.5842 85.2311 76.3682 85.2311 77.6002V77.9362C85.2311 79.2802 84.3631 80.1482 83.0471 80.1482ZM91.6465 81.4362C93.8585 81.4362 95.2725 80.0782 95.2725 77.8802C95.2725 75.6682 93.8585 74.2962 91.6465 74.2962C89.4485 74.2962 88.0345 75.6682 88.0345 77.8802C88.0345 80.0782 89.4485 81.4362 91.6465 81.4362ZM91.6465 80.1482C90.3725 80.1482 89.6025 79.2802 89.6025 77.8802C89.6025 76.4662 90.3725 75.5842 91.6465 75.5842C92.9205 75.5842 93.7045 76.4662 93.7045 77.8802C93.7045 79.2802 92.9205 80.1482 91.6465 80.1482ZM102.588 81.4082C103.162 81.4082 103.638 81.3102 103.848 81.2402V79.9942C103.652 80.0502 103.204 80.1202 102.812 80.1202C101.86 80.1202 101.524 79.6722 101.524 78.7762V75.6822H103.904V74.4082H101.524V72.8402H100.222L100.152 73.8762C100.11 74.2682 100.012 74.4082 99.7462 74.4082H98.8642V75.6822H99.9562V78.8602C99.9562 80.3862 100.698 81.4082 102.588 81.4082ZM105.032 73.5962H106.642V72.0562H105.032V73.5962ZM105.046 81.3242H106.614V74.4082H105.046V81.3242ZM108.092 81.3242H109.66V77.9502C109.66 76.4662 110.374 75.6402 111.438 75.6402C112.376 75.6402 112.894 76.2562 112.894 77.2362V81.3242H114.462V77.8942C114.462 76.4522 115.162 75.6402 116.254 75.6402C117.192 75.6402 117.682 76.2562 117.682 77.2642V81.3242H119.25V76.9142C119.25 75.2902 118.368 74.2962 116.828 74.2962C115.512 74.2962 114.672 74.9962 114.42 76.1162H114.406C114.238 74.9962 113.37 74.2962 112.026 74.2962C110.766 74.2962 109.926 75.0382 109.618 76.2282H109.604L109.66 74.4082H108.092V81.3242ZM127.139 77.6142C127.139 75.4582 125.893 74.2962 123.933 74.2962C121.749 74.2962 120.377 75.6822 120.377 77.9222C120.377 80.0922 121.749 81.4362 123.933 81.4362C125.823 81.4362 127.083 80.4982 127.139 78.9582H125.725C125.655 79.7702 124.969 80.2182 123.961 80.2182C122.785 80.2182 122.043 79.5042 121.959 78.1742H127.139V77.6142ZM125.725 77.2222H122.001C122.183 76.0742 122.869 75.5142 123.947 75.5142C125.081 75.5142 125.725 76.0882 125.725 77.1242V77.2222ZM131.512 81.3242H133.094L133.08 73.5122H133.094L138.008 81.3242H139.996V72.1122H138.414L138.442 79.1122H138.414L134.032 72.1122H131.512V81.3242ZM145.884 81.4642C147.564 81.4642 148.6 80.7362 148.88 79.6722H148.894C148.88 80.3022 148.838 80.9602 148.81 81.3242H150.21V76.7882H145.73V77.8522H148.586V78.0622C148.586 79.3082 147.494 80.1622 146.024 80.1622C144.358 80.1622 143 78.8882 143 76.8302C143 74.7022 144.316 73.3722 146.094 73.3722C147.508 73.3722 148.628 74.1142 148.628 75.4162C148.628 75.5422 148.628 75.6962 148.614 75.8642H150.112C150.126 75.6962 150.14 75.4722 150.14 75.3182C150.14 73.2182 148.39 71.9722 146.066 71.9722C143.35 71.9722 141.306 73.8622 141.306 76.8162C141.306 79.7002 143.252 81.4642 145.884 81.4642ZM151.885 81.3242H153.467V79.5042H151.885V81.3242ZM159.654 81.4642C162.09 81.4642 163.826 80.0362 163.826 77.9502V77.6282H162.328V77.8522C162.328 79.1822 161.25 80.0642 159.71 80.0642C157.974 80.0642 156.63 78.7902 156.63 76.7322C156.63 74.6742 157.918 73.3722 159.71 73.3722C161.194 73.3722 162.3 74.2682 162.3 75.6822C162.3 75.7522 162.3 75.8642 162.286 75.9902H163.77C163.784 75.8222 163.798 75.6402 163.798 75.5422C163.798 73.4142 162.076 71.9722 159.654 71.9722C156.882 71.9722 154.922 73.7922 154.922 76.7322C154.922 79.6582 156.91 81.4642 159.654 81.4642ZM171.731 81.3242H173.677L169.939 72.1122H167.895L164.143 81.3242H165.879L166.663 79.2522H170.961L171.731 81.3242ZM167.083 78.1322L168.805 73.5402H168.833L170.541 78.1322H167.083ZM177.911 81.4642C181.047 81.4642 181.915 80.0782 181.915 78.5942C181.915 77.7402 181.551 77.0962 180.921 76.7742C180.347 76.4662 179.451 76.3122 178.485 76.1582C177.687 76.0462 176.651 75.8782 176.245 75.6822C175.881 75.5142 175.699 75.2062 175.699 74.6882C175.699 73.8482 176.525 73.2742 177.911 73.2742C179.353 73.2742 180.095 73.9182 180.095 75.2762H181.607C181.607 73.1762 180.613 71.9722 177.883 71.9722C175.475 71.9722 174.033 73.1482 174.033 74.8282C174.033 75.6962 174.383 76.3262 174.943 76.6762C175.447 76.9982 176.427 77.2082 177.351 77.3342C178.149 77.4462 179.143 77.5722 179.605 77.7542C180.039 77.9082 180.249 78.2022 180.249 78.7062C180.249 79.4622 179.773 80.1622 177.897 80.1622C176.133 80.1622 175.573 79.3502 175.573 78.1742H174.061C174.061 79.8542 174.859 81.4642 177.911 81.4642ZM183.241 81.3242H184.921V77.2222H189.821V81.3242H191.487V72.1122H189.821V75.8782H184.921V72.1122H183.241V81.3242ZM201.282 71.7342H199.644L198.552 73.6942H199.784L201.282 71.7342ZM202.626 77.6142C202.626 75.4582 201.38 74.2962 199.42 74.2962C197.236 74.2962 195.864 75.6822 195.864 77.9222C195.864 80.0922 197.236 81.4362 199.42 81.4362C201.31 81.4362 202.57 80.4982 202.626 78.9582H201.212C201.142 79.7702 200.456 80.2182 199.448 80.2182C198.272 80.2182 197.53 79.5042 197.446 78.1742H202.626V77.6142ZM201.212 77.2222H197.488C197.67 76.0742 198.356 75.5142 199.434 75.5142C200.568 75.5142 201.212 76.0882 201.212 77.1242V77.2222ZM209.967 81.4082C210.541 81.4082 211.017 81.3102 211.227 81.2402V79.9942C211.031 80.0502 210.583 80.1202 210.191 80.1202C209.239 80.1202 208.903 79.6722 208.903 78.7762V75.6822H211.283V74.4082H208.903V72.8402H207.601L207.531 73.8762C207.489 74.2682 207.391 74.4082 207.125 74.4082H206.243V75.6822H207.335V78.8602C207.335 80.3862 208.077 81.4082 209.967 81.4082ZM218.647 77.6142C218.647 75.4582 217.401 74.2962 215.441 74.2962C213.257 74.2962 211.885 75.6822 211.885 77.9222C211.885 80.0922 213.257 81.4362 215.441 81.4362C217.331 81.4362 218.591 80.4982 218.647 78.9582H217.233C217.163 79.7702 216.477 80.2182 215.469 80.2182C214.293 80.2182 213.551 79.5042 213.467 78.1742H218.647V77.6142ZM217.233 77.2222H213.509C213.691 76.0742 214.377 75.5142 215.455 75.5142C216.589 75.5142 217.233 76.0882 217.233 77.1242V77.2222ZM219.846 81.3242H221.414V78.3002C221.414 76.6482 222.156 75.6402 223.346 75.6402C224.27 75.6402 224.718 76.1862 224.718 77.3482C224.718 77.6702 224.69 78.0202 224.662 78.2862H226.09C226.118 77.9922 226.16 77.4322 226.16 76.9982C226.16 75.2762 225.334 74.2962 223.836 74.2962C222.408 74.2962 221.694 75.1502 221.372 76.3962H221.358L221.414 74.4082H219.846V81.3242ZM232.835 81.4362C234.361 81.4362 235.187 80.8202 235.411 79.7982H235.425C235.425 80.3582 235.383 80.9882 235.355 81.3242H236.923V77.1102C236.923 75.2902 235.691 74.2962 233.591 74.2962C231.617 74.2962 230.413 75.1222 230.413 76.5082C230.413 76.6342 230.427 76.8162 230.441 76.9142H231.883C231.869 76.8022 231.869 76.6902 231.869 76.6482C231.869 75.8782 232.471 75.4722 233.535 75.4722C234.753 75.4722 235.355 75.9342 235.355 76.9702V77.4602H232.793C230.945 77.4602 230.203 78.2862 230.203 79.3362C230.203 80.6802 231.253 81.4362 232.835 81.4362ZM233.157 80.2602C232.205 80.2602 231.645 79.8962 231.645 79.2662C231.645 78.7202 232.037 78.4122 232.933 78.4122H235.355V78.5382C235.355 79.6022 234.515 80.2602 233.157 80.2602ZM4.186 99.4362C6.398 99.4362 7.812 98.0782 7.812 95.8802C7.812 93.6682 6.398 92.2962 4.186 92.2962C1.988 92.2962 0.574 93.6682 0.574 95.8802C0.574 98.0782 1.988 99.4362 4.186 99.4362ZM4.186 98.1482C2.912 98.1482 2.142 97.2802 2.142 95.8802C2.142 94.4662 2.912 93.5842 4.186 93.5842C5.46 93.5842 6.244 94.4662 6.244 95.8802C6.244 97.2802 5.46 98.1482 4.186 98.1482ZM9.02819 102.096H10.5962V99.3802C10.5962 99.1002 10.5682 98.3862 10.5542 97.9242H10.5682C10.8622 98.8202 11.7582 99.4362 13.1302 99.4362C15.1182 99.4362 16.3782 97.9802 16.3782 95.7402C16.3782 93.6542 15.1322 92.2962 13.1582 92.2962C11.7862 92.2962 10.8622 92.9682 10.5822 94.0182H10.5682L10.5962 92.4082H9.02819V102.096ZM12.8222 98.1482C11.4782 98.1482 10.5962 97.3922 10.5962 96.2162V95.8522C10.6242 94.4662 11.4922 93.5842 12.7942 93.5842C14.0402 93.5842 14.8102 94.4522 14.8102 95.7822C14.8102 97.2242 14.0262 98.1482 12.8222 98.1482ZM20.9732 99.4362C23.1852 99.4362 24.5992 98.0782 24.5992 95.8802C24.5992 93.6682 23.1852 92.2962 20.9732 92.2962C18.7752 92.2962 17.3612 93.6682 17.3612 95.8802C17.3612 98.0782 18.7752 99.4362 20.9732 99.4362ZM20.9732 98.1482C19.6992 98.1482 18.9292 97.2802 18.9292 95.8802C18.9292 94.4662 19.6992 93.5842 20.9732 93.5842C22.2472 93.5842 23.0312 94.4662 23.0312 95.8802C23.0312 97.2802 22.2472 98.1482 20.9732 98.1482ZM25.7734 99.3242H27.3414V96.3002C27.3414 94.6482 28.0834 93.6402 29.2734 93.6402C30.1974 93.6402 30.6454 94.1862 30.6454 95.3482C30.6454 95.6702 30.6174 96.0202 30.5894 96.2862H32.0174C32.0454 95.9922 32.0874 95.4322 32.0874 94.9982C32.0874 93.2762 31.2614 92.2962 29.7634 92.2962C28.3354 92.2962 27.6214 93.1502 27.2994 94.3962H27.2854L27.3414 92.4082H25.7734V99.3242ZM36.3446 99.4082C36.9186 99.4082 37.3946 99.3102 37.6046 99.2402V97.9942C37.4086 98.0502 36.9606 98.1202 36.5686 98.1202C35.6166 98.1202 35.2806 97.6722 35.2806 96.7762V93.6822H37.6606V92.4082H35.2806V90.8402H33.9786L33.9086 91.8762C33.8666 92.2682 33.7686 92.4082 33.5026 92.4082H32.6206V93.6822H33.7126V96.8602C33.7126 98.3862 34.4546 99.4082 36.3446 99.4082ZM41.5881 99.4362C43.1281 99.4362 44.0941 98.7082 44.3881 97.3922H44.4021C44.4021 98.1202 44.3741 98.8622 44.3321 99.3242H45.9001V92.4082H44.3321V95.4742C44.3321 97.1542 43.4501 98.0922 42.0501 98.0922C40.9161 98.0922 40.2441 97.4762 40.2441 96.3842V92.4082H38.6761V96.6082C38.6761 98.4422 39.7821 99.4362 41.5881 99.4362ZM47.3038 99.3242H48.8718V95.9782C48.8718 94.4662 49.7398 93.6402 51.1118 93.6402C52.3578 93.6402 52.9738 94.2562 52.9738 95.3482V99.3242H54.5418V94.9982C54.5418 93.2902 53.4638 92.2962 51.7138 92.2962C50.1038 92.2962 49.2078 93.0102 48.8298 94.2562H48.8158L48.8718 92.4082H47.3038V99.3242ZM55.9171 91.5962H57.5271V90.0562H55.9171V91.5962ZM55.9311 99.3242H57.4991V92.4082H55.9311V99.3242ZM62.0297 99.4362C63.4437 99.4362 64.3117 98.7362 64.5777 97.6442H64.6057C64.5777 98.3162 64.5637 98.9182 64.5357 99.3242H66.1037V89.6222H64.5357V93.6262H64.5217C64.2417 92.8142 63.4297 92.2962 62.1277 92.2962C60.0697 92.2962 58.7677 93.7382 58.7677 95.8242C58.7677 97.9802 60.0277 99.4362 62.0297 99.4362ZM62.3517 98.1482C61.1197 98.1482 60.3217 97.1962 60.3217 95.8242C60.3217 94.5082 61.1337 93.5842 62.3797 93.5842C63.6817 93.5842 64.5357 94.3682 64.5357 95.6002V95.9362C64.5357 97.2802 63.6677 98.1482 62.3517 98.1482ZM69.985 99.4362C71.511 99.4362 72.337 98.8202 72.561 97.7982H72.575C72.575 98.3582 72.533 98.9882 72.505 99.3242H74.073V95.1102C74.073 93.2902 72.841 92.2962 70.741 92.2962C68.767 92.2962 67.563 93.1222 67.563 94.5082C67.563 94.6342 67.577 94.8162 67.591 94.9142H69.033C69.019 94.8022 69.019 94.6902 69.019 94.6482C69.019 93.8782 69.621 93.4722 70.685 93.4722C71.903 93.4722 72.505 93.9342 72.505 94.9702V95.4602H69.943C68.095 95.4602 67.353 96.2862 67.353 97.3362C67.353 98.6802 68.403 99.4362 69.985 99.4362ZM70.307 98.2602C69.355 98.2602 68.795 97.8962 68.795 97.2662C68.795 96.7202 69.187 96.4122 70.083 96.4122H72.505V96.5382C72.505 97.6022 71.665 98.2602 70.307 98.2602ZM78.4614 99.4362C79.8754 99.4362 80.7434 98.7362 81.0094 97.6442H81.0374C81.0094 98.3162 80.9954 98.9182 80.9674 99.3242H82.5354V89.6222H80.9674V93.6262H80.9534C80.6734 92.8142 79.8614 92.2962 78.5594 92.2962C76.5014 92.2962 75.1994 93.7382 75.1994 95.8242C75.1994 97.9802 76.4594 99.4362 78.4614 99.4362ZM78.7834 98.1482C77.5514 98.1482 76.7534 97.1962 76.7534 95.8242C76.7534 94.5082 77.5654 93.5842 78.8114 93.5842C80.1134 93.5842 80.9674 94.3682 80.9674 95.6002V95.9362C80.9674 97.2802 80.0994 98.1482 78.7834 98.1482ZM90.5327 95.6142C90.5327 93.4582 89.2867 92.2962 87.3267 92.2962C85.1427 92.2962 83.7707 93.6822 83.7707 95.9222C83.7707 98.0922 85.1427 99.4362 87.3267 99.4362C89.2167 99.4362 90.4767 98.4982 90.5327 96.9582H89.1187C89.0487 97.7702 88.3627 98.2182 87.3547 98.2182C86.1787 98.2182 85.4367 97.5042 85.3527 96.1742H90.5327V95.6142ZM89.1187 95.2222H85.3947C85.5767 94.0742 86.2627 93.5142 87.3407 93.5142C88.4747 93.5142 89.1187 94.0882 89.1187 95.1242V95.2222ZM97.8453 99.4362C99.2593 99.4362 100.127 98.7362 100.393 97.6442H100.421C100.393 98.3162 100.379 98.9182 100.351 99.3242H101.919V89.6222H100.351V93.6262H100.337C100.057 92.8142 99.2453 92.2962 97.9433 92.2962C95.8853 92.2962 94.5833 93.7382 94.5833 95.8242C94.5833 97.9802 95.8433 99.4362 97.8453 99.4362ZM98.1673 98.1482C96.9353 98.1482 96.1373 97.1962 96.1373 95.8242C96.1373 94.5082 96.9493 93.5842 98.1953 93.5842C99.4973 93.5842 100.351 94.3682 100.351 95.6002V95.9362C100.351 97.2802 99.4833 98.1482 98.1673 98.1482ZM109.917 95.6142C109.917 93.4582 108.671 92.2962 106.711 92.2962C104.527 92.2962 103.155 93.6822 103.155 95.9222C103.155 98.0922 104.527 99.4362 106.711 99.4362C108.601 99.4362 109.861 98.4982 109.917 96.9582H108.503C108.433 97.7702 107.747 98.2182 106.739 98.2182C105.563 98.2182 104.821 97.5042 104.737 96.1742H109.917V95.6142ZM108.503 95.2222H104.779C104.961 94.0742 105.647 93.5142 106.725 93.5142C107.859 93.5142 108.503 94.0882 108.503 95.1242V95.2222ZM116.613 99.4362C118.139 99.4362 118.965 98.8202 119.189 97.7982H119.203C119.203 98.3582 119.161 98.9882 119.133 99.3242H120.701V95.1102C120.701 93.2902 119.469 92.2962 117.369 92.2962C115.395 92.2962 114.191 93.1222 114.191 94.5082C114.191 94.6342 114.205 94.8162 114.219 94.9142H115.661C115.647 94.8022 115.647 94.6902 115.647 94.6482C115.647 93.8782 116.249 93.4722 117.313 93.4722C118.531 93.4722 119.133 93.9342 119.133 94.9702V95.4602H116.571C114.723 95.4602 113.981 96.2862 113.981 97.3362C113.981 98.6802 115.031 99.4362 116.613 99.4362ZM116.935 98.2602C115.983 98.2602 115.423 97.8962 115.423 97.2662C115.423 96.7202 115.815 96.4122 116.711 96.4122H119.133V96.5382C119.133 97.6022 118.293 98.2602 116.935 98.2602ZM122.08 102.096H123.648V99.3802C123.648 99.1002 123.62 98.3862 123.606 97.9242H123.62C123.914 98.8202 124.81 99.4362 126.182 99.4362C128.17 99.4362 129.43 97.9802 129.43 95.7402C129.43 93.6542 128.184 92.2962 126.21 92.2962C124.838 92.2962 123.914 92.9682 123.634 94.0182H123.62L123.648 92.4082H122.08V102.096ZM125.874 98.1482C124.53 98.1482 123.648 97.3922 123.648 96.2162V95.8522C123.676 94.4662 124.544 93.5842 125.846 93.5842C127.092 93.5842 127.862 94.4522 127.862 95.7822C127.862 97.2242 127.078 98.1482 125.874 98.1482ZM130.623 99.3242H132.191V96.3002C132.191 94.6482 132.933 93.6402 134.123 93.6402C135.047 93.6402 135.495 94.1862 135.495 95.3482C135.495 95.6702 135.467 96.0202 135.439 96.2862H136.867C136.895 95.9922 136.937 95.4322 136.937 94.9982C136.937 93.2762 136.111 92.2962 134.613 92.2962C133.185 92.2962 132.471 93.1502 132.149 94.3962H132.135L132.191 92.4082H130.623V99.3242ZM144.666 95.6142C144.666 93.4582 143.42 92.2962 141.46 92.2962C139.276 92.2962 137.904 93.6822 137.904 95.9222C137.904 98.0922 139.276 99.4362 141.46 99.4362C143.35 99.4362 144.61 98.4982 144.666 96.9582H143.252C143.182 97.7702 142.496 98.2182 141.488 98.2182C140.312 98.2182 139.57 97.5042 139.486 96.1742H144.666V95.6142ZM143.252 95.2222H139.528C139.71 94.0742 140.396 93.5142 141.474 93.5142C142.608 93.5142 143.252 94.0882 143.252 95.1242V95.2222ZM145.865 99.3242H147.433V95.9782C147.433 94.4662 148.301 93.6402 149.673 93.6402C150.919 93.6402 151.535 94.2562 151.535 95.3482V99.3242H153.103V94.9982C153.103 93.2902 152.025 92.2962 150.275 92.2962C148.665 92.2962 147.769 93.0102 147.391 94.2562H147.377L147.433 92.4082H145.865V99.3242ZM157.488 99.4362C158.902 99.4362 159.77 98.7362 160.036 97.6442H160.064C160.036 98.3162 160.022 98.9182 159.994 99.3242H161.562V89.6222H159.994V93.6262H159.98C159.7 92.8142 158.888 92.2962 157.586 92.2962C155.528 92.2962 154.226 93.7382 154.226 95.8242C154.226 97.9802 155.486 99.4362 157.488 99.4362ZM157.81 98.1482C156.578 98.1482 155.78 97.1962 155.78 95.8242C155.78 94.5082 156.592 93.5842 157.838 93.5842C159.14 93.5842 159.994 94.3682 159.994 95.6002V95.9362C159.994 97.2802 159.126 98.1482 157.81 98.1482ZM169.56 95.6142C169.56 93.4582 168.314 92.2962 166.354 92.2962C164.17 92.2962 162.798 93.6822 162.798 95.9222C162.798 98.0922 164.17 99.4362 166.354 99.4362C168.244 99.4362 169.504 98.4982 169.56 96.9582H168.146C168.076 97.7702 167.39 98.2182 166.382 98.2182C165.206 98.2182 164.464 97.5042 164.38 96.1742H169.56V95.6142ZM168.146 95.2222H164.422C164.604 94.0742 165.29 93.5142 166.368 93.5142C167.502 93.5142 168.146 94.0882 168.146 95.1242V95.2222ZM170.759 99.3242H172.327V96.3002C172.327 94.6482 173.069 93.6402 174.259 93.6402C175.183 93.6402 175.631 94.1862 175.631 95.3482C175.631 95.6702 175.603 96.0202 175.575 96.2862H177.003C177.031 95.9922 177.073 95.4322 177.073 94.9982C177.073 93.2762 176.247 92.2962 174.749 92.2962C173.321 92.2962 172.607 93.1502 172.285 94.3962H172.271L172.327 92.4082H170.759V99.3242ZM187.863 95.6142C187.863 93.4582 186.617 92.2962 184.657 92.2962C182.473 92.2962 181.101 93.6822 181.101 95.9222C181.101 98.0922 182.473 99.4362 184.657 99.4362C186.547 99.4362 187.807 98.4982 187.863 96.9582H186.449C186.379 97.7702 185.693 98.2182 184.685 98.2182C183.509 98.2182 182.767 97.5042 182.683 96.1742H187.863V95.6142ZM186.449 95.2222H182.725C182.907 94.0742 183.593 93.5142 184.671 93.5142C185.805 93.5142 186.449 94.0882 186.449 95.1242V95.2222ZM195.302 99.4362C197.276 99.4362 198.592 98.3582 198.592 96.5102H197.178C197.164 97.5322 196.478 98.1482 195.372 98.1482C194.21 98.1482 193.482 97.2802 193.482 95.8662C193.482 94.4382 194.224 93.5842 195.428 93.5842C196.478 93.5842 197.15 94.2142 197.164 95.2502H198.578C198.578 93.4162 197.318 92.2962 195.386 92.2962C193.3 92.2962 191.914 93.6542 191.914 95.8662C191.914 98.0782 193.272 99.4362 195.302 99.4362ZM199.82 99.3242H201.388V96.3002C201.388 94.6482 202.13 93.6402 203.32 93.6402C204.244 93.6402 204.692 94.1862 204.692 95.3482C204.692 95.6702 204.664 96.0202 204.636 96.2862H206.064C206.092 95.9922 206.134 95.4322 206.134 94.9982C206.134 93.2762 205.308 92.2962 203.81 92.2962C202.382 92.2962 201.668 93.1502 201.346 94.3962H201.332L201.388 92.4082H199.82V99.3242ZM207.353 91.5962H208.963V90.0562H207.353V91.5962ZM207.367 99.3242H208.935V92.4082H207.367V99.3242ZM212.85 99.4362C214.376 99.4362 215.202 98.8202 215.426 97.7982H215.44C215.44 98.3582 215.398 98.9882 215.37 99.3242H216.938V95.1102C216.938 93.2902 215.706 92.2962 213.606 92.2962C211.632 92.2962 210.428 93.1222 210.428 94.5082C210.428 94.6342 210.442 94.8162 210.456 94.9142H211.898C211.884 94.8022 211.884 94.6902 211.884 94.6482C211.884 93.8782 212.486 93.4722 213.55 93.4722C214.768 93.4722 215.37 93.9342 215.37 94.9702V95.4602H212.808C210.96 95.4602 210.218 96.2862 210.218 97.3362C210.218 98.6802 211.268 99.4362 212.85 99.4362ZM213.172 98.2602C212.22 98.2602 211.66 97.8962 211.66 97.2662C211.66 96.7202 212.052 96.4122 212.948 96.4122H215.37V96.5382C215.37 97.6022 214.53 98.2602 213.172 98.2602ZM218.274 99.3242H219.842V96.3002C219.842 94.6482 220.584 93.6402 221.774 93.6402C222.698 93.6402 223.146 94.1862 223.146 95.3482C223.146 95.6702 223.118 96.0202 223.09 96.2862H224.518C224.546 95.9922 224.588 95.4322 224.588 94.9982C224.588 93.2762 223.762 92.2962 222.264 92.2962C220.836 92.2962 220.122 93.1502 219.8 94.3962H219.786L219.842 92.4082H218.274V99.3242ZM232.005 99.4362C233.979 99.4362 235.295 98.3582 235.295 96.5102H233.881C233.867 97.5322 233.181 98.1482 232.075 98.1482C230.913 98.1482 230.185 97.2802 230.185 95.8662C230.185 94.4382 230.927 93.5842 232.131 93.5842C233.181 93.5842 233.853 94.2142 233.867 95.2502H235.281C235.281 93.4162 234.021 92.2962 232.089 92.2962C230.003 92.2962 228.617 93.6542 228.617 95.8662C228.617 98.0782 229.975 99.4362 232.005 99.4362ZM239.926 99.4362C242.138 99.4362 243.552 98.0782 243.552 95.8802C243.552 93.6682 242.138 92.2962 239.926 92.2962C237.728 92.2962 236.314 93.6682 236.314 95.8802C236.314 98.0782 237.728 99.4362 239.926 99.4362ZM239.926 98.1482C238.652 98.1482 237.882 97.2802 237.882 95.8802C237.882 94.4662 238.652 93.5842 239.926 93.5842C241.2 93.5842 241.984 94.4662 241.984 95.8802C241.984 97.2802 241.2 98.1482 239.926 98.1482ZM244.768 91.5962H246.378V90.0562H244.768V91.5962ZM244.782 99.3242H246.35V92.4082H244.782V99.3242ZM250.852 99.4362C253.064 99.4362 254.24 98.6102 254.24 97.2102C254.24 96.6502 253.974 96.1182 253.512 95.8662C253.022 95.5862 252.462 95.4882 251.482 95.3902C250.642 95.3062 249.984 95.2362 249.648 95.1242C249.242 94.9842 249.172 94.7042 249.172 94.4102C249.172 93.8222 249.788 93.4302 250.88 93.4302C252.028 93.4302 252.518 93.8642 252.532 94.7602H253.946C253.946 93.1922 252.994 92.2962 250.838 92.2962C248.962 92.2962 247.618 93.1362 247.618 94.5222C247.618 95.0542 247.842 95.5582 248.22 95.8382C248.64 96.1462 249.368 96.2862 250.446 96.3842C251.216 96.4542 251.874 96.5242 252.21 96.6502C252.574 96.7762 252.672 97.0142 252.672 97.2802C252.672 97.9102 252.112 98.3022 250.838 98.3022C249.494 98.3022 249.032 97.8122 249.032 97.0142H247.618C247.618 98.3722 248.472 99.4362 250.852 99.4362ZM257.865 99.4362C259.391 99.4362 260.217 98.8202 260.441 97.7982H260.455C260.455 98.3582 260.413 98.9882 260.385 99.3242H261.953V95.1102C261.953 93.2902 260.721 92.2962 258.621 92.2962C256.647 92.2962 255.443 93.1222 255.443 94.5082C255.443 94.6342 255.457 94.8162 255.471 94.9142H256.913C256.899 94.8022 256.899 94.6902 256.899 94.6482C256.899 93.8782 257.501 93.4722 258.565 93.4722C259.783 93.4722 260.385 93.9342 260.385 94.9702V95.4602H257.823C255.975 95.4602 255.233 96.2862 255.233 97.3362C255.233 98.6802 256.283 99.4362 257.865 99.4362ZM258.187 98.2602C257.235 98.2602 256.675 97.8962 256.675 97.2662C256.675 96.7202 257.067 96.4122 257.963 96.4122H260.385V96.5382C260.385 97.6022 259.545 98.2602 258.187 98.2602ZM266.313 99.4362C268.525 99.4362 269.701 98.6102 269.701 97.2102C269.701 96.6502 269.435 96.1182 268.973 95.8662C268.483 95.5862 267.923 95.4882 266.943 95.3902C266.103 95.3062 265.445 95.2362 265.109 95.1242C264.703 94.9842 264.633 94.7042 264.633 94.4102C264.633 93.8222 265.249 93.4302 266.341 93.4302C267.489 93.4302 267.979 93.8642 267.993 94.7602H269.407C269.407 93.1922 268.455 92.2962 266.299 92.2962C264.423 92.2962 263.079 93.1362 263.079 94.5222C263.079 95.0542 263.303 95.5582 263.681 95.8382C264.101 96.1462 264.829 96.2862 265.907 96.3842C266.677 96.4542 267.335 96.5242 267.671 96.6502C268.035 96.7762 268.133 97.0142 268.133 97.2802C268.133 97.9102 267.573 98.3022 266.299 98.3022C264.955 98.3022 264.493 97.8122 264.493 97.0142H263.079C263.079 98.3722 263.933 99.4362 266.313 99.4362ZM0.784 117.324H2.352V113.978C2.352 112.466 3.22 111.64 4.592 111.64C5.838 111.64 6.454 112.256 6.454 113.348V117.324H8.022V112.998C8.022 111.29 6.944 110.296 5.194 110.296C3.584 110.296 2.688 111.01 2.31 112.256H2.296L2.352 110.408H0.784V117.324ZM12.7573 117.436C14.9693 117.436 16.3833 116.078 16.3833 113.88C16.3833 111.668 14.9693 110.296 12.7573 110.296C10.5593 110.296 9.14533 111.668 9.14533 113.88C9.14533 116.078 10.5593 117.436 12.7573 117.436ZM12.7573 116.148C11.4833 116.148 10.7133 115.28 10.7133 113.88C10.7133 112.466 11.4833 111.584 12.7573 111.584C14.0313 111.584 14.8153 112.466 14.8153 113.88C14.8153 115.28 14.0313 116.148 12.7573 116.148ZM19.6674 117.324H21.5294L24.5254 110.408H22.8874L20.6894 115.854H20.6614L18.4914 110.408H16.6574L19.6674 117.324ZM27.5395 117.436C29.0655 117.436 29.8915 116.82 30.1155 115.798H30.1295C30.1295 116.358 30.0875 116.988 30.0595 117.324H31.6275V113.11C31.6275 111.29 30.3955 110.296 28.2955 110.296C26.3215 110.296 25.1175 111.122 25.1175 112.508C25.1175 112.634 25.1315 112.816 25.1455 112.914H26.5875C26.5735 112.802 26.5735 112.69 26.5735 112.648C26.5735 111.878 27.1755 111.472 28.2395 111.472C29.4575 111.472 30.0595 111.934 30.0595 112.97V113.46H27.4975C25.6495 113.46 24.9075 114.286 24.9075 115.336C24.9075 116.68 25.9575 117.436 27.5395 117.436ZM27.8615 116.26C26.9095 116.26 26.3495 115.896 26.3495 115.266C26.3495 114.72 26.7415 114.412 27.6375 114.412H30.0595V114.538C30.0595 115.602 29.2195 116.26 27.8615 116.26ZM35.9878 117.436C38.1998 117.436 39.3758 116.61 39.3758 115.21C39.3758 114.65 39.1098 114.118 38.6478 113.866C38.1578 113.586 37.5978 113.488 36.6178 113.39C35.7778 113.306 35.1198 113.236 34.7838 113.124C34.3778 112.984 34.3078 112.704 34.3078 112.41C34.3078 111.822 34.9238 111.43 36.0158 111.43C37.1638 111.43 37.6538 111.864 37.6678 112.76H39.0818C39.0818 111.192 38.1298 110.296 35.9738 110.296C34.0978 110.296 32.7538 111.136 32.7538 112.522C32.7538 113.054 32.9778 113.558 33.3558 113.838C33.7758 114.146 34.5038 114.286 35.5818 114.384C36.3518 114.454 37.0098 114.524 37.3458 114.65C37.7098 114.776 37.8078 115.014 37.8078 115.28C37.8078 115.91 37.2478 116.302 35.9738 116.302C34.6298 116.302 34.1678 115.812 34.1678 115.014H32.7538C32.7538 116.372 33.6078 117.436 35.9878 117.436ZM46.706 117.408C47.28 117.408 47.756 117.31 47.966 117.24V115.994C47.77 116.05 47.322 116.12 46.93 116.12C45.978 116.12 45.642 115.672 45.642 114.776V111.682H48.022V110.408H45.642V108.84H44.34L44.27 109.876C44.228 110.268 44.13 110.408 43.864 110.408H42.982V111.682H44.074V114.86C44.074 116.386 44.816 117.408 46.706 117.408ZM52.2361 117.436C54.4481 117.436 55.8621 116.078 55.8621 113.88C55.8621 111.668 54.4481 110.296 52.2361 110.296C50.0381 110.296 48.6241 111.668 48.6241 113.88C48.6241 116.078 50.0381 117.436 52.2361 117.436ZM52.2361 116.148C50.9621 116.148 50.1921 115.28 50.1921 113.88C50.1921 112.466 50.9621 111.584 52.2361 111.584C53.5101 111.584 54.2941 112.466 54.2941 113.88C54.2941 115.28 53.5101 116.148 52.2361 116.148ZM60.0883 117.436C61.5023 117.436 62.3703 116.736 62.6363 115.644H62.6643C62.6363 116.316 62.6223 116.918 62.5943 117.324H64.1623V107.622H62.5943V111.626H62.5803C62.3003 110.814 61.4883 110.296 60.1863 110.296C58.1283 110.296 56.8263 111.738 56.8263 113.824C56.8263 115.98 58.0863 117.436 60.0883 117.436ZM60.4103 116.148C59.1783 116.148 58.3803 115.196 58.3803 113.824C58.3803 112.508 59.1923 111.584 60.4383 111.584C61.7403 111.584 62.5943 112.368 62.5943 113.6V113.936C62.5943 115.28 61.7263 116.148 60.4103 116.148ZM69.0096 117.436C71.2216 117.436 72.6356 116.078 72.6356 113.88C72.6356 111.668 71.2216 110.296 69.0096 110.296C66.8116 110.296 65.3976 111.668 65.3976 113.88C65.3976 116.078 66.8116 117.436 69.0096 117.436ZM69.0096 116.148C67.7356 116.148 66.9656 115.28 66.9656 113.88C66.9656 112.466 67.7356 111.584 69.0096 111.584C70.2836 111.584 71.0676 112.466 71.0676 113.88C71.0676 115.28 70.2836 116.148 69.0096 116.148ZM76.7517 117.436C78.9637 117.436 80.1397 116.61 80.1397 115.21C80.1397 114.65 79.8737 114.118 79.4117 113.866C78.9217 113.586 78.3617 113.488 77.3817 113.39C76.5417 113.306 75.8837 113.236 75.5477 113.124C75.1417 112.984 75.0717 112.704 75.0717 112.41C75.0717 111.822 75.6877 111.43 76.7797 111.43C77.9277 111.43 78.4177 111.864 78.4317 112.76H79.8457C79.8457 111.192 78.8937 110.296 76.7377 110.296C74.8617 110.296 73.5177 111.136 73.5177 112.522C73.5177 113.054 73.7417 113.558 74.1197 113.838C74.5397 114.146 75.2677 114.286 76.3457 114.384C77.1157 114.454 77.7737 114.524 78.1097 114.65C78.4737 114.776 78.5717 115.014 78.5717 115.28C78.5717 115.91 78.0117 116.302 76.7377 116.302C75.3937 116.302 74.9317 115.812 74.9317 115.014H73.5177C73.5177 116.372 74.3717 117.436 76.7517 117.436ZM87.7919 117.436C90.0039 117.436 91.4179 116.078 91.4179 113.88C91.4179 111.668 90.0039 110.296 87.7919 110.296C85.5939 110.296 84.1799 111.668 84.1799 113.88C84.1799 116.078 85.5939 117.436 87.7919 117.436ZM87.7919 116.148C86.5179 116.148 85.7479 115.28 85.7479 113.88C85.7479 112.466 86.5179 111.584 87.7919 111.584C89.0659 111.584 89.8499 112.466 89.8499 113.88C89.8499 115.28 89.0659 116.148 87.7919 116.148ZM95.5341 117.436C97.7461 117.436 98.9221 116.61 98.9221 115.21C98.9221 114.65 98.6561 114.118 98.1941 113.866C97.7041 113.586 97.1441 113.488 96.1641 113.39C95.3241 113.306 94.6661 113.236 94.3301 113.124C93.9241 112.984 93.8541 112.704 93.8541 112.41C93.8541 111.822 94.4701 111.43 95.5621 111.43C96.7101 111.43 97.2001 111.864 97.2141 112.76H98.6281C98.6281 111.192 97.6761 110.296 95.5201 110.296C93.6441 110.296 92.3001 111.136 92.3001 112.522C92.3001 113.054 92.5241 113.558 92.9021 113.838C93.3221 114.146 94.0501 114.286 95.1281 114.384C95.8981 114.454 96.5561 114.524 96.8921 114.65C97.2561 114.776 97.3541 115.014 97.3541 115.28C97.3541 115.91 96.7941 116.302 95.5201 116.302C94.1761 116.302 93.7141 115.812 93.7141 115.014H92.3001C92.3001 116.372 93.1541 117.436 95.5341 117.436ZM106.224 117.436C107.638 117.436 108.506 116.736 108.772 115.644H108.8C108.772 116.316 108.758 116.918 108.73 117.324H110.298V107.622H108.73V111.626H108.716C108.436 110.814 107.624 110.296 106.322 110.296C104.264 110.296 102.962 111.738 102.962 113.824C102.962 115.98 104.222 117.436 106.224 117.436ZM106.546 116.148C105.314 116.148 104.516 115.196 104.516 113.824C104.516 112.508 105.328 111.584 106.574 111.584C107.876 111.584 108.73 112.368 108.73 113.6V113.936C108.73 115.28 107.862 116.148 106.546 116.148ZM111.786 109.596H113.396V108.056H111.786V109.596ZM111.8 117.324H113.368V110.408H111.8V117.324ZM117.282 117.436C118.808 117.436 119.634 116.82 119.858 115.798H119.872C119.872 116.358 119.83 116.988 119.802 117.324H121.37V113.11C121.37 111.29 120.138 110.296 118.038 110.296C116.064 110.296 114.86 111.122 114.86 112.508C114.86 112.634 114.874 112.816 114.888 112.914H116.33C116.316 112.802 116.316 112.69 116.316 112.648C116.316 111.878 116.918 111.472 117.982 111.472C119.2 111.472 119.802 111.934 119.802 112.97V113.46H117.24C115.392 113.46 114.65 114.286 114.65 115.336C114.65 116.68 115.7 117.436 117.282 117.436ZM117.604 116.26C116.652 116.26 116.092 115.896 116.092 115.266C116.092 114.72 116.484 114.412 117.38 114.412H119.802V114.538C119.802 115.602 118.962 116.26 117.604 116.26ZM125.731 117.436C127.943 117.436 129.119 116.61 129.119 115.21C129.119 114.65 128.853 114.118 128.391 113.866C127.901 113.586 127.341 113.488 126.361 113.39C125.521 113.306 124.863 113.236 124.527 113.124C124.121 112.984 124.051 112.704 124.051 112.41C124.051 111.822 124.667 111.43 125.759 111.43C126.907 111.43 127.397 111.864 127.411 112.76H128.825C128.825 111.192 127.873 110.296 125.717 110.296C123.841 110.296 122.497 111.136 122.497 112.522C122.497 113.054 122.721 113.558 123.099 113.838C123.519 114.146 124.247 114.286 125.325 114.384C126.095 114.454 126.753 114.524 127.089 114.65C127.453 114.776 127.551 115.014 127.551 115.28C127.551 115.91 126.991 116.302 125.717 116.302C124.373 116.302 123.911 115.812 123.911 115.014H122.497C122.497 116.372 123.351 117.436 125.731 117.436ZM130.573 117.324H132.155V115.504H130.573V117.324ZM143.98 117.324H145.926L142.188 108.112H140.144L136.392 117.324H138.128L138.912 115.252H143.21L143.98 117.324ZM139.332 114.132L141.054 109.54H141.082L142.79 114.132H139.332ZM153.087 117.436C155.061 117.436 156.377 116.358 156.377 114.51H154.963C154.949 115.532 154.263 116.148 153.157 116.148C151.995 116.148 151.267 115.28 151.267 113.866C151.267 112.438 152.009 111.584 153.213 111.584C154.263 111.584 154.935 112.214 154.949 113.25H156.363C156.363 111.416 155.103 110.296 153.171 110.296C151.085 110.296 149.699 111.654 149.699 113.866C149.699 116.078 151.057 117.436 153.087 117.436ZM161.007 117.436C163.219 117.436 164.633 116.078 164.633 113.88C164.633 111.668 163.219 110.296 161.007 110.296C158.809 110.296 157.395 111.668 157.395 113.88C157.395 116.078 158.809 117.436 161.007 117.436ZM161.007 116.148C159.733 116.148 158.963 115.28 158.963 113.88C158.963 112.466 159.733 111.584 161.007 111.584C162.281 111.584 163.065 112.466 163.065 113.88C163.065 115.28 162.281 116.148 161.007 116.148ZM165.807 117.324H167.375V113.978C167.375 112.466 168.243 111.64 169.615 111.64C170.861 111.64 171.477 112.256 171.477 113.348V117.324H173.045V112.998C173.045 111.29 171.967 110.296 170.217 110.296C168.607 110.296 167.711 111.01 167.333 112.256H167.319L167.375 110.408H165.807V117.324ZM180.931 113.614C180.931 111.458 179.685 110.296 177.725 110.296C175.541 110.296 174.169 111.682 174.169 113.922C174.169 116.092 175.541 117.436 177.725 117.436C179.615 117.436 180.875 116.498 180.931 114.958H179.517C179.447 115.77 178.761 116.218 177.753 116.218C176.577 116.218 175.835 115.504 175.751 114.174H180.931V113.614ZM179.517 113.222H175.793C175.975 112.074 176.661 111.514 177.739 111.514C178.873 111.514 179.517 112.088 179.517 113.124V113.222ZM181.12 117.324H182.982L184.704 114.734L186.496 117.324H188.484L185.824 113.782L188.358 110.408H186.58L184.928 112.9L183.22 110.408H181.232L183.738 113.782L181.12 117.324ZM189.527 109.554H190.521C190.605 108.784 190.829 108.476 191.109 108.476C191.361 108.476 191.487 108.588 191.725 108.826L191.935 109.036C192.229 109.33 192.551 109.554 193.083 109.554C193.853 109.554 194.525 108.994 194.637 107.496H193.657C193.573 108.28 193.349 108.588 193.055 108.588C192.817 108.588 192.677 108.462 192.439 108.224L192.229 108.028C191.935 107.734 191.613 107.496 191.081 107.496C190.325 107.496 189.639 108.07 189.527 109.554ZM191.319 117.436C192.845 117.436 193.671 116.82 193.895 115.798H193.909C193.909 116.358 193.867 116.988 193.839 117.324H195.407V113.11C195.407 111.29 194.175 110.296 192.075 110.296C190.101 110.296 188.897 111.122 188.897 112.508C188.897 112.634 188.911 112.816 188.925 112.914H190.367C190.353 112.802 190.353 112.69 190.353 112.648C190.353 111.878 190.955 111.472 192.019 111.472C193.237 111.472 193.839 111.934 193.839 112.97V113.46H191.277C189.429 113.46 188.687 114.286 188.687 115.336C188.687 116.68 189.737 117.436 191.319 117.436ZM191.641 116.26C190.689 116.26 190.129 115.896 190.129 115.266C190.129 114.72 190.521 114.412 191.417 114.412H193.839V114.538C193.839 115.602 192.999 116.26 191.641 116.26ZM200.145 117.436C202.357 117.436 203.771 116.078 203.771 113.88C203.771 111.668 202.357 110.296 200.145 110.296C197.947 110.296 196.533 111.668 196.533 113.88C196.533 116.078 197.947 117.436 200.145 117.436ZM200.145 116.148C198.871 116.148 198.101 115.28 198.101 113.88C198.101 112.466 198.871 111.584 200.145 111.584C201.419 111.584 202.203 112.466 202.203 113.88C202.203 115.28 201.419 116.148 200.145 116.148ZM214.559 113.614C214.559 111.458 213.313 110.296 211.353 110.296C209.169 110.296 207.797 111.682 207.797 113.922C207.797 116.092 209.169 117.436 211.353 117.436C213.243 117.436 214.503 116.498 214.559 114.958H213.145C213.075 115.77 212.389 116.218 211.381 116.218C210.205 116.218 209.463 115.504 209.379 114.174H214.559V113.614ZM213.145 113.222H209.421C209.603 112.074 210.289 111.514 211.367 111.514C212.501 111.514 213.145 112.088 213.145 113.124V113.222ZM218.861 120.096H220.429V117.38C220.429 117.1 220.401 116.386 220.387 115.924H220.401C220.695 116.82 221.591 117.436 222.963 117.436C224.951 117.436 226.211 115.98 226.211 113.74C226.211 111.654 224.965 110.296 222.991 110.296C221.619 110.296 220.695 110.968 220.415 112.018H220.401L220.429 110.408H218.861V120.096ZM222.655 116.148C221.311 116.148 220.429 115.392 220.429 114.216V113.852C220.457 112.466 221.325 111.584 222.627 111.584C223.873 111.584 224.643 112.452 224.643 113.782C224.643 115.224 223.859 116.148 222.655 116.148ZM227.404 117.324H228.972V114.3C228.972 112.648 229.714 111.64 230.904 111.64C231.828 111.64 232.276 112.186 232.276 113.348C232.276 113.67 232.248 114.02 232.22 114.286H233.648C233.676 113.992 233.718 113.432 233.718 112.998C233.718 111.276 232.892 110.296 231.394 110.296C229.966 110.296 229.252 111.15 228.93 112.396H228.916L228.972 110.408H227.404V117.324ZM238.298 117.436C240.51 117.436 241.924 116.078 241.924 113.88C241.924 111.668 240.51 110.296 238.298 110.296C236.1 110.296 234.686 111.668 234.686 113.88C234.686 116.078 236.1 117.436 238.298 117.436ZM238.298 116.148C237.024 116.148 236.254 115.28 236.254 113.88C236.254 112.466 237.024 111.584 238.298 111.584C239.572 111.584 240.356 112.466 240.356 113.88C240.356 115.28 239.572 116.148 238.298 116.148ZM242.034 117.324H243.896L245.618 114.734L247.41 117.324H249.398L246.738 113.782L249.272 110.408H247.494L245.842 112.9L244.134 110.408H242.146L244.652 113.782L242.034 117.324ZM250.358 109.596H251.968V108.056H250.358V109.596ZM250.372 117.324H251.94V110.408H250.372V117.324ZM253.418 117.324H254.986V113.95C254.986 112.466 255.7 111.64 256.764 111.64C257.702 111.64 258.22 112.256 258.22 113.236V117.324H259.788V113.894C259.788 112.452 260.488 111.64 261.58 111.64C262.518 111.64 263.008 112.256 263.008 113.264V117.324H264.576V112.914C264.576 111.29 263.694 110.296 262.154 110.296C260.838 110.296 259.998 110.996 259.746 112.116H259.732C259.564 110.996 258.696 110.296 257.352 110.296C256.092 110.296 255.252 111.038 254.944 112.228H254.93L254.986 110.408H253.418V117.324ZM265.955 109.596H267.565V108.056H265.955V109.596ZM265.969 117.324H267.537V110.408H265.969V117.324ZM272.068 117.436C273.482 117.436 274.35 116.736 274.616 115.644H274.644C274.616 116.316 274.602 116.918 274.574 117.324H276.142V107.622H274.574V111.626H274.56C274.28 110.814 273.468 110.296 272.166 110.296C270.108 110.296 268.806 111.738 268.806 113.824C268.806 115.98 270.066 117.436 272.068 117.436ZM272.39 116.148C271.158 116.148 270.36 115.196 270.36 113.824C270.36 112.508 271.172 111.584 272.418 111.584C273.72 111.584 274.574 112.368 274.574 113.6V113.936C274.574 115.28 273.706 116.148 272.39 116.148ZM280.023 117.436C281.549 117.436 282.375 116.82 282.599 115.798H282.613C282.613 116.358 282.571 116.988 282.543 117.324H284.111V113.11C284.111 111.29 282.879 110.296 280.779 110.296C278.805 110.296 277.601 111.122 277.601 112.508C277.601 112.634 277.615 112.816 277.629 112.914H279.071C279.057 112.802 279.057 112.69 279.057 112.648C279.057 111.878 279.659 111.472 280.723 111.472C281.941 111.472 282.543 111.934 282.543 112.97V113.46H279.981C278.133 113.46 277.391 114.286 277.391 115.336C277.391 116.68 278.441 117.436 280.023 117.436ZM280.345 116.26C279.393 116.26 278.833 115.896 278.833 115.266C278.833 114.72 279.225 114.412 280.121 114.412H282.543V114.538C282.543 115.602 281.703 116.26 280.345 116.26ZM288.5 117.436C289.914 117.436 290.782 116.736 291.048 115.644H291.076C291.048 116.316 291.034 116.918 291.006 117.324H292.574V107.622H291.006V111.626H290.992C290.712 110.814 289.9 110.296 288.598 110.296C286.54 110.296 285.238 111.738 285.238 113.824C285.238 115.98 286.498 117.436 288.5 117.436ZM288.822 116.148C287.59 116.148 286.792 115.196 286.792 113.824C286.792 112.508 287.604 111.584 288.85 111.584C290.152 111.584 291.006 112.368 291.006 113.6V113.936C291.006 115.28 290.138 116.148 288.822 116.148ZM300.571 113.614C300.571 111.458 299.325 110.296 297.365 110.296C295.181 110.296 293.809 111.682 293.809 113.922C293.809 116.092 295.181 117.436 297.365 117.436C299.255 117.436 300.515 116.498 300.571 114.958H299.157C299.087 115.77 298.401 116.218 297.393 116.218C296.217 116.218 295.475 115.504 295.391 114.174H300.571V113.614ZM299.157 113.222H295.433C295.615 112.074 296.301 111.514 297.379 111.514C298.513 111.514 299.157 112.088 299.157 113.124V113.222ZM3.836 135.436C5.25 135.436 6.118 134.736 6.384 133.644H6.412C6.384 134.316 6.37 134.918 6.342 135.324H7.91V125.622H6.342V129.626H6.328C6.048 128.814 5.236 128.296 3.934 128.296C1.876 128.296 0.574 129.738 0.574 131.824C0.574 133.98 1.834 135.436 3.836 135.436ZM4.158 134.148C2.926 134.148 2.128 133.196 2.128 131.824C2.128 130.508 2.94 129.584 4.186 129.584C5.488 129.584 6.342 130.368 6.342 131.6V131.936C6.342 133.28 5.474 134.148 4.158 134.148ZM11.7913 135.436C13.3173 135.436 14.1433 134.82 14.3673 133.798H14.3813C14.3813 134.358 14.3393 134.988 14.3113 135.324H15.8793V131.11C15.8793 129.29 14.6473 128.296 12.5473 128.296C10.5733 128.296 9.36933 129.122 9.36933 130.508C9.36933 130.634 9.38333 130.816 9.39733 130.914H10.8393C10.8253 130.802 10.8253 130.69 10.8253 130.648C10.8253 129.878 11.4273 129.472 12.4913 129.472C13.7093 129.472 14.3113 129.934 14.3113 130.97V131.46H11.7493C9.90133 131.46 9.15933 132.286 9.15933 133.336C9.15933 134.68 10.2093 135.436 11.7913 135.436ZM12.1133 134.26C11.1613 134.26 10.6013 133.896 10.6013 133.266C10.6013 132.72 10.9933 132.412 11.8893 132.412H14.3113V132.538C14.3113 133.602 13.4713 134.26 12.1133 134.26ZM26.8293 131.614C26.8293 129.458 25.5833 128.296 23.6233 128.296C21.4393 128.296 20.0673 129.682 20.0673 131.922C20.0673 134.092 21.4393 135.436 23.6233 135.436C25.5133 135.436 26.7733 134.498 26.8293 132.958H25.4153C25.3453 133.77 24.6593 134.218 23.6513 134.218C22.4753 134.218 21.7333 133.504 21.6493 132.174H26.8293V131.614ZM25.4153 131.222H21.6913C21.8733 130.074 22.5593 129.514 23.6373 129.514C24.7713 129.514 25.4153 130.088 25.4153 131.124V131.222ZM33.5863 138.096H35.1543V128.408H33.6003V129.724H33.5863C33.3063 128.842 32.4803 128.296 31.1363 128.296C29.2043 128.296 27.8183 129.682 27.8183 131.81C27.8183 134.022 29.0783 135.436 31.0663 135.436C32.3963 135.436 33.3203 134.764 33.5723 133.728H33.5863V138.096ZM31.4023 134.148C30.1843 134.148 29.3723 133.238 29.3723 131.81C29.3723 130.466 30.2123 129.584 31.4303 129.584C32.7323 129.584 33.5863 130.368 33.5863 131.586V131.922C33.5863 133.28 32.7183 134.148 31.4023 134.148ZM39.4416 135.436C40.9816 135.436 41.9476 134.708 42.2416 133.392H42.2556C42.2556 134.12 42.2276 134.862 42.1856 135.324H43.7536V128.408H42.1856V131.474C42.1856 133.154 41.3036 134.092 39.9036 134.092C38.7696 134.092 38.0976 133.476 38.0976 132.384V128.408H36.5296V132.608C36.5296 134.442 37.6356 135.436 39.4416 135.436ZM45.1993 127.596H46.8093V126.056H45.1993V127.596ZM45.2133 135.324H46.7813V128.408H45.2133V135.324ZM48.3019 138.096H49.8699V135.38C49.8699 135.1 49.8419 134.386 49.8279 133.924H49.8419C50.1359 134.82 51.0319 135.436 52.4039 135.436C54.3919 135.436 55.6519 133.98 55.6519 131.74C55.6519 129.654 54.4059 128.296 52.4319 128.296C51.0599 128.296 50.1359 128.968 49.8559 130.018H49.8419L49.8699 128.408H48.3019V138.096ZM52.0959 134.148C50.7519 134.148 49.8699 133.392 49.8699 132.216V131.852C49.8979 130.466 50.7659 129.584 52.0679 129.584C53.3139 129.584 54.0839 130.452 54.0839 131.782C54.0839 133.224 53.2999 134.148 52.0959 134.148ZM63.3969 131.614C63.3969 129.458 62.1509 128.296 60.1909 128.296C58.0069 128.296 56.6349 129.682 56.6349 131.922C56.6349 134.092 58.0069 135.436 60.1909 135.436C62.0809 135.436 63.3409 134.498 63.3969 132.958H61.9829C61.9129 133.77 61.2269 134.218 60.2189 134.218C59.0429 134.218 58.3009 133.504 58.2169 132.174H63.3969V131.614ZM61.9829 131.222H58.2589C58.4409 130.074 59.1269 129.514 60.2049 129.514C61.3389 129.514 61.9829 130.088 61.9829 131.124V131.222ZM72.8654 125.734H71.2274L70.1354 127.694H71.3674L72.8654 125.734ZM74.2094 131.614C74.2094 129.458 72.9634 128.296 71.0034 128.296C68.8194 128.296 67.4474 129.682 67.4474 131.922C67.4474 134.092 68.8194 135.436 71.0034 135.436C72.8934 135.436 74.1534 134.498 74.2094 132.958H72.7954C72.7254 133.77 72.0394 134.218 71.0314 134.218C69.8554 134.218 69.1134 133.504 69.0294 132.174H74.2094V131.614ZM72.7954 131.222H69.0714C69.2534 130.074 69.9394 129.514 71.0174 129.514C72.1514 129.514 72.7954 130.088 72.7954 131.124V131.222ZM81.312 135.436C82.852 135.436 83.818 134.708 84.112 133.392H84.126C84.126 134.12 84.098 134.862 84.056 135.324H85.624V128.408H84.056V131.474C84.056 133.154 83.174 134.092 81.774 134.092C80.64 134.092 79.968 133.476 79.968 132.384V128.408H78.4V132.608C78.4 134.442 79.506 135.436 81.312 135.436ZM87.0277 135.324H88.5957V131.95C88.5957 130.466 89.3097 129.64 90.3737 129.64C91.3117 129.64 91.8297 130.256 91.8297 131.236V135.324H93.3977V131.894C93.3977 130.452 94.0977 129.64 95.1897 129.64C96.1277 129.64 96.6177 130.256 96.6177 131.264V135.324H98.1857V130.914C98.1857 129.29 97.3037 128.296 95.7637 128.296C94.4477 128.296 93.6077 128.996 93.3557 130.116H93.3417C93.1737 128.996 92.3057 128.296 90.9617 128.296C89.7017 128.296 88.8617 129.038 88.5537 130.228H88.5397L88.5957 128.408H87.0277V135.324ZM105.636 135.436C107.05 135.436 107.918 134.736 108.184 133.644H108.212C108.184 134.316 108.17 134.918 108.142 135.324H109.71V125.622H108.142V129.626H108.128C107.848 128.814 107.036 128.296 105.734 128.296C103.676 128.296 102.374 129.738 102.374 131.824C102.374 133.98 103.634 135.436 105.636 135.436ZM105.958 134.148C104.726 134.148 103.928 133.196 103.928 131.824C103.928 130.508 104.74 129.584 105.986 129.584C107.288 129.584 108.142 130.368 108.142 131.6V131.936C108.142 133.28 107.274 134.148 105.958 134.148ZM111.198 127.596H112.808V126.056H111.198V127.596ZM111.212 135.324H112.78V128.408H111.212V135.324ZM114.72 135.324H116.288V129.682H118.696V128.408H116.288V127.792C116.288 127.036 116.722 126.616 117.52 126.616C117.996 126.616 118.36 126.714 118.584 126.784V125.538C118.36 125.454 117.856 125.342 117.24 125.342C115.742 125.342 114.72 126.182 114.72 127.722V128.408H113.614V129.682H114.72V135.324ZM125.69 131.614C125.69 129.458 124.444 128.296 122.484 128.296C120.3 128.296 118.928 129.682 118.928 131.922C118.928 134.092 120.3 135.436 122.484 135.436C124.374 135.436 125.634 134.498 125.69 132.958H124.276C124.206 133.77 123.52 134.218 122.512 134.218C121.336 134.218 120.594 133.504 120.51 132.174H125.69V131.614ZM124.276 131.222H120.552C120.734 130.074 121.42 129.514 122.498 129.514C123.632 129.514 124.276 130.088 124.276 131.124V131.222ZM126.889 135.324H128.457V132.3C128.457 130.648 129.199 129.64 130.389 129.64C131.313 129.64 131.761 130.186 131.761 131.348C131.761 131.67 131.733 132.02 131.705 132.286H133.133C133.161 131.992 133.203 131.432 133.203 130.998C133.203 129.276 132.377 128.296 130.879 128.296C129.451 128.296 128.737 129.15 128.415 130.396H128.401L128.457 128.408H126.889V135.324ZM140.932 131.614C140.932 129.458 139.686 128.296 137.726 128.296C135.542 128.296 134.17 129.682 134.17 131.922C134.17 134.092 135.542 135.436 137.726 135.436C139.616 135.436 140.876 134.498 140.932 132.958H139.518C139.448 133.77 138.762 134.218 137.754 134.218C136.578 134.218 135.836 133.504 135.752 132.174H140.932V131.614ZM139.518 131.222H135.794C135.976 130.074 136.662 129.514 137.74 129.514C138.874 129.514 139.518 130.088 139.518 131.124V131.222ZM142.132 135.324H143.7V131.978C143.7 130.466 144.568 129.64 145.94 129.64C147.186 129.64 147.802 130.256 147.802 131.348V135.324H149.37V130.998C149.37 129.29 148.292 128.296 146.542 128.296C144.932 128.296 144.036 129.01 143.658 130.256H143.644L143.7 128.408H142.132V135.324ZM153.881 135.436C155.855 135.436 157.171 134.358 157.171 132.51H155.757C155.743 133.532 155.057 134.148 153.951 134.148C152.789 134.148 152.061 133.28 152.061 131.866C152.061 130.438 152.803 129.584 154.007 129.584C155.057 129.584 155.729 130.214 155.743 131.25H157.157C157.157 129.416 155.897 128.296 153.965 128.296C151.879 128.296 150.493 129.654 150.493 131.866C150.493 134.078 151.851 135.436 153.881 135.436ZM158.441 127.596H160.051V126.056H158.441V127.596ZM158.455 135.324H160.023V128.408H158.455V135.324ZM163.938 135.436C165.464 135.436 166.29 134.82 166.514 133.798H166.528C166.528 134.358 166.486 134.988 166.458 135.324H168.026V131.11C168.026 129.29 166.794 128.296 164.694 128.296C162.72 128.296 161.516 129.122 161.516 130.508C161.516 130.634 161.53 130.816 161.544 130.914H162.986C162.972 130.802 162.972 130.69 162.972 130.648C162.972 129.878 163.574 129.472 164.638 129.472C165.856 129.472 166.458 129.934 166.458 130.97V131.46H163.896C162.048 131.46 161.306 132.286 161.306 133.336C161.306 134.68 162.356 135.436 163.938 135.436ZM164.26 134.26C163.308 134.26 162.748 133.896 162.748 133.266C162.748 132.72 163.14 132.412 164.036 132.412H166.458V132.538C166.458 133.602 165.618 134.26 164.26 134.26ZM169.404 135.324H170.972V125.622H169.404V135.324ZM172.437 137.256C173.655 137.158 174.271 136.472 174.271 134.82V133.504H172.689V135.324H173.347V135.366C173.347 136.052 173.081 136.388 172.437 136.444V137.256ZM182.414 135.436C184.626 135.436 186.04 134.078 186.04 131.88C186.04 129.668 184.626 128.296 182.414 128.296C180.216 128.296 178.802 129.668 178.802 131.88C178.802 134.078 180.216 135.436 182.414 135.436ZM182.414 134.148C181.14 134.148 180.37 133.28 180.37 131.88C180.37 130.466 181.14 129.584 182.414 129.584C183.688 129.584 184.472 130.466 184.472 131.88C184.472 133.28 183.688 134.148 182.414 134.148ZM187.214 135.324H188.782V131.978C188.782 130.466 189.65 129.64 191.022 129.64C192.268 129.64 192.884 130.256 192.884 131.348V135.324H194.452V130.998C194.452 129.29 193.374 128.296 191.624 128.296C190.014 128.296 189.118 129.01 188.74 130.256H188.726L188.782 128.408H187.214V135.324ZM198.837 135.436C200.251 135.436 201.119 134.736 201.385 133.644H201.413C201.385 134.316 201.371 134.918 201.343 135.324H202.911V125.622H201.343V129.626H201.329C201.049 128.814 200.237 128.296 198.935 128.296C196.877 128.296 195.575 129.738 195.575 131.824C195.575 133.98 196.835 135.436 198.837 135.436ZM199.159 134.148C197.927 134.148 197.129 133.196 197.129 131.824C197.129 130.508 197.941 129.584 199.187 129.584C200.489 129.584 201.343 130.368 201.343 131.6V131.936C201.343 133.28 200.475 134.148 199.159 134.148ZM210.908 131.614C210.908 129.458 209.662 128.296 207.702 128.296C205.518 128.296 204.146 129.682 204.146 131.922C204.146 134.092 205.518 135.436 207.702 135.436C209.592 135.436 210.852 134.498 210.908 132.958H209.494C209.424 133.77 208.738 134.218 207.73 134.218C206.554 134.218 205.812 133.504 205.728 132.174H210.908V131.614ZM209.494 131.222H205.77C205.952 130.074 206.638 129.514 207.716 129.514C208.85 129.514 209.494 130.088 209.494 131.124V131.222ZM218.249 135.408C218.823 135.408 219.299 135.31 219.509 135.24V133.994C219.313 134.05 218.865 134.12 218.473 134.12C217.521 134.12 217.185 133.672 217.185 132.776V129.682H219.565V128.408H217.185V126.84H215.883L215.813 127.876C215.771 128.268 215.673 128.408 215.407 128.408H214.525V129.682H215.617V132.86C215.617 134.386 216.359 135.408 218.249 135.408ZM223.779 135.436C225.991 135.436 227.405 134.078 227.405 131.88C227.405 129.668 225.991 128.296 223.779 128.296C221.581 128.296 220.167 129.668 220.167 131.88C220.167 134.078 221.581 135.436 223.779 135.436ZM223.779 134.148C222.505 134.148 221.735 133.28 221.735 131.88C221.735 130.466 222.505 129.584 223.779 129.584C225.053 129.584 225.837 130.466 225.837 131.88C225.837 133.28 225.053 134.148 223.779 134.148ZM231.631 135.436C233.045 135.436 233.913 134.736 234.179 133.644H234.207C234.179 134.316 234.165 134.918 234.137 135.324H235.705V125.622H234.137V129.626H234.123C233.843 128.814 233.031 128.296 231.729 128.296C229.671 128.296 228.369 129.738 228.369 131.824C228.369 133.98 229.629 135.436 231.631 135.436ZM231.953 134.148C230.721 134.148 229.923 133.196 229.923 131.824C229.923 130.508 230.735 129.584 231.981 129.584C233.283 129.584 234.137 130.368 234.137 131.6V131.936C234.137 133.28 233.269 134.148 231.953 134.148ZM240.553 135.436C242.765 135.436 244.179 134.078 244.179 131.88C244.179 129.668 242.765 128.296 240.553 128.296C238.355 128.296 236.941 129.668 236.941 131.88C236.941 134.078 238.355 135.436 240.553 135.436ZM240.553 134.148C239.279 134.148 238.509 133.28 238.509 131.88C238.509 130.466 239.279 129.584 240.553 129.584C241.827 129.584 242.611 130.466 242.611 131.88C242.611 133.28 241.827 134.148 240.553 134.148ZM248.295 135.436C250.507 135.436 251.683 134.61 251.683 133.21C251.683 132.65 251.417 132.118 250.955 131.866C250.465 131.586 249.905 131.488 248.925 131.39C248.085 131.306 247.427 131.236 247.091 131.124C246.685 130.984 246.615 130.704 246.615 130.41C246.615 129.822 247.231 129.43 248.323 129.43C249.471 129.43 249.961 129.864 249.975 130.76H251.389C251.389 129.192 250.437 128.296 248.281 128.296C246.405 128.296 245.061 129.136 245.061 130.522C245.061 131.054 245.285 131.558 245.663 131.838C246.083 132.146 246.811 132.286 247.889 132.384C248.659 132.454 249.317 132.524 249.653 132.65C250.017 132.776 250.115 133.014 250.115 133.28C250.115 133.91 249.555 134.302 248.281 134.302C246.937 134.302 246.475 133.812 246.475 133.014H245.061C245.061 134.372 245.915 135.436 248.295 135.436ZM3.864 153.408C4.438 153.408 4.914 153.31 5.124 153.24V151.994C4.928 152.05 4.48 152.12 4.088 152.12C3.136 152.12 2.8 151.672 2.8 150.776V147.682H5.18V146.408H2.8V144.84H1.498L1.428 145.876C1.386 146.268 1.288 146.408 1.022 146.408H0.14V147.682H1.232V150.86C1.232 152.386 1.974 153.408 3.864 153.408ZM6.26548 153.324H7.83348V150.3C7.83348 148.648 8.57548 147.64 9.76548 147.64C10.6895 147.64 11.1375 148.186 11.1375 149.348C11.1375 149.67 11.1095 150.02 11.0815 150.286H12.5095C12.5375 149.992 12.5795 149.432 12.5795 148.998C12.5795 147.276 11.7535 146.296 10.2555 146.296C8.82748 146.296 8.11348 147.15 7.79148 148.396H7.77748L7.83348 146.408H6.26548V153.324ZM16.1927 153.436C17.7187 153.436 18.5447 152.82 18.7687 151.798H18.7827C18.7827 152.358 18.7407 152.988 18.7127 153.324H20.2807V149.11C20.2807 147.29 19.0487 146.296 16.9487 146.296C14.9747 146.296 13.7707 147.122 13.7707 148.508C13.7707 148.634 13.7847 148.816 13.7987 148.914H15.2407C15.2267 148.802 15.2267 148.69 15.2267 148.648C15.2267 147.878 15.8287 147.472 16.8927 147.472C18.1107 147.472 18.7127 147.934 18.7127 148.97V149.46H16.1507C14.3027 149.46 13.5607 150.286 13.5607 151.336C13.5607 152.68 14.6107 153.436 16.1927 153.436ZM16.5147 152.26C15.5627 152.26 15.0027 151.896 15.0027 151.266C15.0027 150.72 15.3947 150.412 16.2907 150.412H18.7127V150.538C18.7127 151.602 17.8727 152.26 16.5147 152.26ZM25.8451 153.436C27.7911 153.436 29.0091 152.022 29.0091 149.74C29.0091 147.612 27.8191 146.296 25.8311 146.296C24.4591 146.296 23.5071 146.94 23.2131 147.948H23.1991C23.2131 147.612 23.2271 147.052 23.2271 146.758V143.622H21.6591V153.324H23.2271C23.1991 152.974 23.1711 152.344 23.1711 151.854H23.1851C23.4651 152.82 24.4171 153.436 25.8451 153.436ZM25.4391 152.148C24.0811 152.148 23.2271 151.406 23.2271 150.202V149.852C23.2271 148.452 24.0951 147.584 25.4671 147.584C26.6991 147.584 27.4411 148.424 27.4411 149.782C27.4411 151.252 26.6711 152.148 25.4391 152.148ZM32.2827 153.436C33.8087 153.436 34.6347 152.82 34.8587 151.798H34.8727C34.8727 152.358 34.8307 152.988 34.8027 153.324H36.3707V149.11C36.3707 147.29 35.1387 146.296 33.0387 146.296C31.0647 146.296 29.8607 147.122 29.8607 148.508C29.8607 148.634 29.8747 148.816 29.8887 148.914H31.3307C31.3167 148.802 31.3167 148.69 31.3167 148.648C31.3167 147.878 31.9187 147.472 32.9827 147.472C34.2007 147.472 34.8027 147.934 34.8027 148.97V149.46H32.2407C30.3927 149.46 29.6507 150.286 29.6507 151.336C29.6507 152.68 30.7007 153.436 32.2827 153.436ZM32.6047 152.26C31.6527 152.26 31.0927 151.896 31.0927 151.266C31.0927 150.72 31.4847 150.412 32.3807 150.412H34.8027V150.538C34.8027 151.602 33.9627 152.26 32.6047 152.26ZM37.749 153.324H39.317V143.622H37.749V153.324ZM40.8243 153.324H42.3923V150.048C42.3923 148.494 43.2603 147.64 44.6463 147.64C45.8923 147.64 46.5083 148.256 46.5083 149.348V153.324H48.0763V148.998C48.0763 147.29 46.9983 146.296 45.2483 146.296C43.6243 146.296 42.7283 147.01 42.3643 148.27H42.3503C42.3643 147.892 42.3923 147.094 42.3923 146.758V143.622H40.8243V153.324ZM51.8443 153.436C53.3703 153.436 54.1963 152.82 54.4203 151.798H54.4343C54.4343 152.358 54.3923 152.988 54.3643 153.324H55.9323V149.11C55.9323 147.29 54.7003 146.296 52.6003 146.296C50.6263 146.296 49.4223 147.122 49.4223 148.508C49.4223 148.634 49.4363 148.816 49.4503 148.914H50.8923C50.8783 148.802 50.8783 148.69 50.8783 148.648C50.8783 147.878 51.4803 147.472 52.5443 147.472C53.7623 147.472 54.3643 147.934 54.3643 148.97V149.46H51.8023C49.9543 149.46 49.2123 150.286 49.2123 151.336C49.2123 152.68 50.2623 153.436 51.8443 153.436ZM52.1663 152.26C51.2143 152.26 50.6543 151.896 50.6543 151.266C50.6543 150.72 51.0463 150.412 51.9423 150.412H54.3643V150.538C54.3643 151.602 53.5243 152.26 52.1663 152.26ZM57.2687 153.324H58.8367V149.95C58.8367 148.466 59.5507 147.64 60.6147 147.64C61.5527 147.64 62.0707 148.256 62.0707 149.236V153.324H63.6387V149.894C63.6387 148.452 64.3387 147.64 65.4307 147.64C66.3687 147.64 66.8587 148.256 66.8587 149.264V153.324H68.4267V148.914C68.4267 147.29 67.5447 146.296 66.0047 146.296C64.6887 146.296 63.8487 146.996 63.5967 148.116H63.5827C63.4147 146.996 62.5467 146.296 61.2027 146.296C59.9427 146.296 59.1027 147.038 58.7947 148.228H58.7807L58.8367 146.408H57.2687V153.324ZM72.8534 145.596H74.4774V144.056H72.8534V145.596ZM72.0134 156.25C73.6654 156.25 74.4494 155.144 74.4494 153.52V146.408H72.8814V153.464C72.8814 154.402 72.5034 154.948 71.6214 154.948C71.2994 154.948 70.9634 154.906 70.6974 154.85V156.096C70.8934 156.152 71.3834 156.25 72.0134 156.25ZM78.77 153.436C80.31 153.436 81.276 152.708 81.57 151.392H81.584C81.584 152.12 81.556 152.862 81.514 153.324H83.082V146.408H81.514V149.474C81.514 151.154 80.632 152.092 79.232 152.092C78.098 152.092 77.426 151.476 77.426 150.384V146.408H75.858V150.608C75.858 152.442 76.964 153.436 78.77 153.436ZM84.4856 153.324H86.0536V149.978C86.0536 148.466 86.9216 147.64 88.2936 147.64C89.5396 147.64 90.1556 148.256 90.1556 149.348V153.324H91.7236V148.998C91.7236 147.29 90.6456 146.296 88.8956 146.296C87.2856 146.296 86.3896 147.01 86.0116 148.256H85.9976L86.0536 146.408H84.4856V153.324ZM96.137 153.408C96.711 153.408 97.187 153.31 97.397 153.24V151.994C97.201 152.05 96.753 152.12 96.361 152.12C95.409 152.12 95.073 151.672 95.073 150.776V147.682H97.453V146.408H95.073V144.84H93.771L93.701 145.876C93.659 146.268 93.561 146.408 93.295 146.408H92.413V147.682H93.505V150.86C93.505 152.386 94.247 153.408 96.137 153.408ZM101.667 153.436C103.879 153.436 105.293 152.078 105.293 149.88C105.293 147.668 103.879 146.296 101.667 146.296C99.469 146.296 98.055 147.668 98.055 149.88C98.055 152.078 99.469 153.436 101.667 153.436ZM101.667 152.148C100.393 152.148 99.623 151.28 99.623 149.88C99.623 148.466 100.393 147.584 101.667 147.584C102.941 147.584 103.725 148.466 103.725 149.88C103.725 151.28 102.941 152.148 101.667 152.148ZM109.409 153.436C111.621 153.436 112.797 152.61 112.797 151.21C112.797 150.65 112.531 150.118 112.069 149.866C111.579 149.586 111.019 149.488 110.039 149.39C109.199 149.306 108.541 149.236 108.205 149.124C107.799 148.984 107.729 148.704 107.729 148.41C107.729 147.822 108.345 147.43 109.437 147.43C110.585 147.43 111.075 147.864 111.089 148.76H112.503C112.503 147.192 111.551 146.296 109.395 146.296C107.519 146.296 106.175 147.136 106.175 148.522C106.175 149.054 106.399 149.558 106.777 149.838C107.197 150.146 107.925 150.286 109.003 150.384C109.773 150.454 110.431 150.524 110.767 150.65C111.131 150.776 111.229 151.014 111.229 151.28C111.229 151.91 110.669 152.302 109.395 152.302C108.051 152.302 107.589 151.812 107.589 151.014H106.175C106.175 152.372 107.029 153.436 109.409 153.436ZM117.089 156.096H118.657V153.38C118.657 153.1 118.629 152.386 118.615 151.924H118.629C118.923 152.82 119.819 153.436 121.191 153.436C123.179 153.436 124.439 151.98 124.439 149.74C124.439 147.654 123.193 146.296 121.219 146.296C119.847 146.296 118.923 146.968 118.643 148.018H118.629L118.657 146.408H117.089V156.096ZM120.883 152.148C119.539 152.148 118.657 151.392 118.657 150.216V149.852C118.685 148.466 119.553 147.584 120.855 147.584C122.101 147.584 122.871 148.452 122.871 149.782C122.871 151.224 122.087 152.148 120.883 152.148ZM127.713 153.436C129.239 153.436 130.065 152.82 130.289 151.798H130.303C130.303 152.358 130.261 152.988 130.233 153.324H131.801V149.11C131.801 147.29 130.569 146.296 128.469 146.296C126.495 146.296 125.291 147.122 125.291 148.508C125.291 148.634 125.305 148.816 125.319 148.914H126.761C126.747 148.802 126.747 148.69 126.747 148.648C126.747 147.878 127.349 147.472 128.413 147.472C129.631 147.472 130.233 147.934 130.233 148.97V149.46H127.671C125.823 149.46 125.081 150.286 125.081 151.336C125.081 152.68 126.131 153.436 127.713 153.436ZM128.035 152.26C127.083 152.26 126.523 151.896 126.523 151.266C126.523 150.72 126.915 150.412 127.811 150.412H130.233V150.538C130.233 151.602 129.393 152.26 128.035 152.26ZM133.137 153.324H134.705V150.3C134.705 148.648 135.447 147.64 136.637 147.64C137.561 147.64 138.009 148.186 138.009 149.348C138.009 149.67 137.981 150.02 137.953 150.286H139.381C139.409 149.992 139.451 149.432 139.451 148.998C139.451 147.276 138.625 146.296 137.127 146.296C135.699 146.296 134.985 147.15 134.663 148.396H134.649L134.705 146.408H133.137V153.324ZM143.065 153.436C144.591 153.436 145.417 152.82 145.641 151.798H145.655C145.655 152.358 145.613 152.988 145.585 153.324H147.153V149.11C147.153 147.29 145.921 146.296 143.821 146.296C141.847 146.296 140.643 147.122 140.643 148.508C140.643 148.634 140.657 148.816 140.671 148.914H142.113C142.099 148.802 142.099 148.69 142.099 148.648C142.099 147.878 142.701 147.472 143.765 147.472C144.983 147.472 145.585 147.934 145.585 148.97V149.46H143.023C141.175 149.46 140.433 150.286 140.433 151.336C140.433 152.68 141.483 153.436 143.065 153.436ZM143.387 152.26C142.435 152.26 141.875 151.896 141.875 151.266C141.875 150.72 142.267 150.412 143.163 150.412H145.585V150.538C145.585 151.602 144.745 152.26 143.387 152.26ZM154.63 153.408C155.204 153.408 155.68 153.31 155.89 153.24V151.994C155.694 152.05 155.246 152.12 154.854 152.12C153.902 152.12 153.566 151.672 153.566 150.776V147.682H155.946V146.408H153.566V144.84H152.264L152.194 145.876C152.152 146.268 152.054 146.408 151.788 146.408H150.906V147.682H151.998V150.86C151.998 152.386 152.74 153.408 154.63 153.408ZM160.161 153.436C162.373 153.436 163.787 152.078 163.787 149.88C163.787 147.668 162.373 146.296 160.161 146.296C157.963 146.296 156.549 147.668 156.549 149.88C156.549 152.078 157.963 153.436 160.161 153.436ZM160.161 152.148C158.887 152.148 158.117 151.28 158.117 149.88C158.117 148.466 158.887 147.584 160.161 147.584C161.435 147.584 162.219 148.466 162.219 149.88C162.219 151.28 161.435 152.148 160.161 152.148ZM164.961 153.324H166.529V150.3C166.529 148.648 167.271 147.64 168.461 147.64C169.385 147.64 169.833 148.186 169.833 149.348C169.833 149.67 169.805 150.02 169.777 150.286H171.205C171.233 149.992 171.275 149.432 171.275 148.998C171.275 147.276 170.449 146.296 168.951 146.296C167.523 146.296 166.809 147.15 166.487 148.396H166.473L166.529 146.408H164.961V153.324ZM172.452 153.324H174.02V149.978C174.02 148.466 174.888 147.64 176.26 147.64C177.506 147.64 178.122 148.256 178.122 149.348V153.324H179.69V148.998C179.69 147.29 178.612 146.296 176.862 146.296C175.252 146.296 174.356 147.01 173.978 148.256H173.964L174.02 146.408H172.452V153.324ZM183.459 153.436C184.985 153.436 185.811 152.82 186.035 151.798H186.049C186.049 152.358 186.007 152.988 185.979 153.324H187.547V149.11C187.547 147.29 186.315 146.296 184.215 146.296C182.241 146.296 181.037 147.122 181.037 148.508C181.037 148.634 181.051 148.816 181.065 148.914H182.507C182.493 148.802 182.493 148.69 182.493 148.648C182.493 147.878 183.095 147.472 184.159 147.472C185.377 147.472 185.979 147.934 185.979 148.97V149.46H183.417C181.569 149.46 180.827 150.286 180.827 151.336C180.827 152.68 181.877 153.436 183.459 153.436ZM183.781 152.26C182.829 152.26 182.269 151.896 182.269 151.266C182.269 150.72 182.661 150.412 183.557 150.412H185.979V150.538C185.979 151.602 185.139 152.26 183.781 152.26ZM188.884 153.324H190.452V150.3C190.452 148.648 191.194 147.64 192.384 147.64C193.308 147.64 193.756 148.186 193.756 149.348C193.756 149.67 193.728 150.02 193.7 150.286H195.128C195.156 149.992 195.198 149.432 195.198 148.998C195.198 147.276 194.372 146.296 192.874 146.296C191.446 146.296 190.732 147.15 190.41 148.396H190.396L190.452 146.408H188.884V153.324ZM202.838 153.436C205.05 153.436 206.464 152.078 206.464 149.88C206.464 147.668 205.05 146.296 202.838 146.296C200.64 146.296 199.226 147.668 199.226 149.88C199.226 152.078 200.64 153.436 202.838 153.436ZM202.838 152.148C201.564 152.148 200.794 151.28 200.794 149.88C200.794 148.466 201.564 147.584 202.838 147.584C204.112 147.584 204.896 148.466 204.896 149.88C204.896 151.28 204.112 152.148 202.838 152.148ZM210.742 156.096H212.31V153.38C212.31 153.1 212.282 152.386 212.268 151.924H212.282C212.576 152.82 213.472 153.436 214.844 153.436C216.832 153.436 218.092 151.98 218.092 149.74C218.092 147.654 216.846 146.296 214.872 146.296C213.5 146.296 212.576 146.968 212.296 148.018H212.282L212.31 146.408H210.742V156.096ZM214.536 152.148C213.192 152.148 212.31 151.392 212.31 150.216V149.852C212.338 148.466 213.206 147.584 214.508 147.584C215.754 147.584 216.524 148.452 216.524 149.782C216.524 151.224 215.74 152.148 214.536 152.148ZM219.285 153.324H220.853V150.3C220.853 148.648 221.595 147.64 222.785 147.64C223.709 147.64 224.157 148.186 224.157 149.348C224.157 149.67 224.129 150.02 224.101 150.286H225.529C225.557 149.992 225.599 149.432 225.599 148.998C225.599 147.276 224.773 146.296 223.275 146.296C221.847 146.296 221.133 147.15 220.811 148.396H220.797L220.853 146.408H219.285V153.324ZM230.178 153.436C232.39 153.436 233.804 152.078 233.804 149.88C233.804 147.668 232.39 146.296 230.178 146.296C227.98 146.296 226.566 147.668 226.566 149.88C226.566 152.078 227.98 153.436 230.178 153.436ZM230.178 152.148C228.904 152.148 228.134 151.28 228.134 149.88C228.134 148.466 228.904 147.584 230.178 147.584C231.452 147.584 232.236 148.466 232.236 149.88C232.236 151.28 231.452 152.148 230.178 152.148ZM238.031 153.436C239.445 153.436 240.313 152.736 240.579 151.644H240.607C240.579 152.316 240.565 152.918 240.537 153.324H242.105V143.622H240.537V147.626H240.523C240.243 146.814 239.431 146.296 238.129 146.296C236.071 146.296 234.769 147.738 234.769 149.824C234.769 151.98 236.029 153.436 238.031 153.436ZM238.353 152.148C237.121 152.148 236.323 151.196 236.323 149.824C236.323 148.508 237.135 147.584 238.381 147.584C239.683 147.584 240.537 148.368 240.537 149.6V149.936C240.537 151.28 239.669 152.148 238.353 152.148ZM246.392 153.436C247.932 153.436 248.898 152.708 249.192 151.392H249.206C249.206 152.12 249.178 152.862 249.136 153.324H250.704V146.408H249.136V149.474C249.136 151.154 248.254 152.092 246.854 152.092C245.72 152.092 245.048 151.476 245.048 150.384V146.408H243.48V150.608C243.48 152.442 244.586 153.436 246.392 153.436ZM255.188 153.408C255.762 153.408 256.238 153.31 256.448 153.24V151.994C256.252 152.05 255.804 152.12 255.412 152.12C254.46 152.12 254.124 151.672 254.124 150.776V147.682H256.504V146.408H254.124V144.84H252.822L252.752 145.876C252.71 146.268 252.612 146.408 252.346 146.408H251.464V147.682H252.556V150.86C252.556 152.386 253.298 153.408 255.188 153.408ZM260.718 153.436C262.93 153.436 264.344 152.078 264.344 149.88C264.344 147.668 262.93 146.296 260.718 146.296C258.52 146.296 257.106 147.668 257.106 149.88C257.106 152.078 258.52 153.436 260.718 153.436ZM260.718 152.148C259.444 152.148 258.674 151.28 258.674 149.88C258.674 148.466 259.444 147.584 260.718 147.584C261.992 147.584 262.776 148.466 262.776 149.88C262.776 151.28 261.992 152.148 260.718 152.148ZM271.757 153.436C273.731 153.436 275.047 152.358 275.047 150.51H273.633C273.619 151.532 272.933 152.148 271.827 152.148C270.665 152.148 269.937 151.28 269.937 149.866C269.937 148.438 270.679 147.584 271.883 147.584C272.933 147.584 273.605 148.214 273.619 149.25H275.033C275.033 147.416 273.773 146.296 271.841 146.296C269.755 146.296 268.369 147.654 268.369 149.866C268.369 152.078 269.727 153.436 271.757 153.436ZM278.356 153.436C279.882 153.436 280.708 152.82 280.932 151.798H280.946C280.946 152.358 280.904 152.988 280.876 153.324H282.444V149.11C282.444 147.29 281.212 146.296 279.112 146.296C277.138 146.296 275.934 147.122 275.934 148.508C275.934 148.634 275.948 148.816 275.962 148.914H277.404C277.39 148.802 277.39 148.69 277.39 148.648C277.39 147.878 277.992 147.472 279.056 147.472C280.274 147.472 280.876 147.934 280.876 148.97V149.46H278.314C276.466 149.46 275.724 150.286 275.724 151.336C275.724 152.68 276.774 153.436 278.356 153.436ZM278.678 152.26C277.726 152.26 277.166 151.896 277.166 151.266C277.166 150.72 277.558 150.412 278.454 150.412H280.876V150.538C280.876 151.602 280.036 152.26 278.678 152.26ZM286.833 153.436C288.247 153.436 289.115 152.736 289.381 151.644H289.409C289.381 152.316 289.367 152.918 289.339 153.324H290.907V143.622H289.339V147.626H289.325C289.045 146.814 288.233 146.296 286.931 146.296C284.873 146.296 283.571 147.738 283.571 149.824C283.571 151.98 284.831 153.436 286.833 153.436ZM287.155 152.148C285.923 152.148 285.125 151.196 285.125 149.824C285.125 148.508 285.937 147.584 287.183 147.584C288.485 147.584 289.339 148.368 289.339 149.6V149.936C289.339 151.28 288.471 152.148 287.155 152.148ZM294.788 153.436C296.314 153.436 297.14 152.82 297.364 151.798H297.378C297.378 152.358 297.336 152.988 297.308 153.324H298.876V149.11C298.876 147.29 297.644 146.296 295.544 146.296C293.57 146.296 292.366 147.122 292.366 148.508C292.366 148.634 292.38 148.816 292.394 148.914H293.836C293.822 148.802 293.822 148.69 293.822 148.648C293.822 147.878 294.424 147.472 295.488 147.472C296.706 147.472 297.308 147.934 297.308 148.97V149.46H294.746C292.898 149.46 292.156 150.286 292.156 151.336C292.156 152.68 293.206 153.436 294.788 153.436ZM295.11 152.26C294.158 152.26 293.598 151.896 293.598 151.266C293.598 150.72 293.99 150.412 294.886 150.412H297.308V150.538C297.308 151.602 296.468 152.26 295.11 152.26ZM3.304 171.324H5.166L8.162 164.408H6.524L4.326 169.854H4.298L2.128 164.408H0.294L3.304 171.324ZM15.4151 167.614C15.4151 165.458 14.1691 164.296 12.2091 164.296C10.0251 164.296 8.65314 165.682 8.65314 167.922C8.65314 170.092 10.0251 171.436 12.2091 171.436C14.0991 171.436 15.3591 170.498 15.4151 168.958H14.0011C13.9311 169.77 13.2451 170.218 12.2371 170.218C11.0611 170.218 10.3191 169.504 10.2351 168.174H15.4151V167.614ZM14.0011 167.222H10.2771C10.4591 166.074 11.1451 165.514 12.2231 165.514C13.3571 165.514 14.0011 166.088 14.0011 167.124V167.222ZM16.1984 171.324H22.0504V170.05H18.2284V170.036L22.0504 165.374V164.408H16.3104V165.682H20.0064V165.71L16.1984 170.344V171.324ZM26.2646 171.324H27.8326V167.95C27.8326 166.466 28.5466 165.64 29.6106 165.64C30.5486 165.64 31.0666 166.256 31.0666 167.236V171.324H32.6346V167.894C32.6346 166.452 33.3346 165.64 34.4266 165.64C35.3646 165.64 35.8546 166.256 35.8546 167.264V171.324H37.4226V166.914C37.4226 165.29 36.5406 164.296 35.0006 164.296C33.6846 164.296 32.8446 164.996 32.5926 166.116H32.5786C32.4106 164.996 31.5426 164.296 30.1986 164.296C28.9386 164.296 28.0986 165.038 27.7906 166.228H27.7766L27.8326 164.408H26.2646V171.324ZM41.1958 171.436C42.7218 171.436 43.5478 170.82 43.7718 169.798H43.7858C43.7858 170.358 43.7438 170.988 43.7158 171.324H45.2838V167.11C45.2838 165.29 44.0518 164.296 41.9518 164.296C39.9778 164.296 38.7738 165.122 38.7738 166.508C38.7738 166.634 38.7878 166.816 38.8018 166.914H40.2438C40.2298 166.802 40.2298 166.69 40.2298 166.648C40.2298 165.878 40.8318 165.472 41.8958 165.472C43.1138 165.472 43.7158 165.934 43.7158 166.97V167.46H41.1538C39.3058 167.46 38.5638 168.286 38.5638 169.336C38.5638 170.68 39.6138 171.436 41.1958 171.436ZM41.5178 170.26C40.5658 170.26 40.0058 169.896 40.0058 169.266C40.0058 168.72 40.3978 168.412 41.2938 168.412H43.7158V168.538C43.7158 169.602 42.8758 170.26 41.5178 170.26ZM46.6622 163.596H48.2722V162.056H46.6622V163.596ZM46.6762 171.324H48.2442V164.408H46.6762V171.324ZM52.7468 171.436C54.9588 171.436 56.1348 170.61 56.1348 169.21C56.1348 168.65 55.8688 168.118 55.4068 167.866C54.9168 167.586 54.3568 167.488 53.3768 167.39C52.5368 167.306 51.8788 167.236 51.5428 167.124C51.1368 166.984 51.0668 166.704 51.0668 166.41C51.0668 165.822 51.6828 165.43 52.7748 165.43C53.9228 165.43 54.4128 165.864 54.4268 166.76H55.8408C55.8408 165.192 54.8888 164.296 52.7328 164.296C50.8568 164.296 49.5128 165.136 49.5128 166.522C49.5128 167.054 49.7368 167.558 50.1148 167.838C50.5348 168.146 51.2628 168.286 52.3408 168.384C53.1108 168.454 53.7688 168.524 54.1048 168.65C54.4688 168.776 54.5668 169.014 54.5668 169.28C54.5668 169.91 54.0068 170.302 52.7328 170.302C51.3888 170.302 50.9268 169.812 50.9268 169.014H49.5128C49.5128 170.372 50.3668 171.436 52.7468 171.436ZM60.4269 163.596H62.0369V162.056H60.4269V163.596ZM60.4409 171.324H62.0089V164.408H60.4409V171.324ZM63.4875 171.324H65.0555V167.978C65.0555 166.466 65.9235 165.64 67.2955 165.64C68.5415 165.64 69.1575 166.256 69.1575 167.348V171.324H70.7255V166.998C70.7255 165.29 69.6475 164.296 67.8975 164.296C66.2875 164.296 65.3915 165.01 65.0135 166.256H64.9995L65.0555 164.408H63.4875V171.324ZM75.2368 171.436C77.2108 171.436 78.5268 170.358 78.5268 168.51H77.1128C77.0988 169.532 76.4128 170.148 75.3068 170.148C74.1448 170.148 73.4168 169.28 73.4168 167.866C73.4168 166.438 74.1588 165.584 75.3628 165.584C76.4128 165.584 77.0848 166.214 77.0988 167.25H78.5128C78.5128 165.416 77.2528 164.296 75.3208 164.296C73.2348 164.296 71.8488 165.654 71.8488 167.866C71.8488 170.078 73.2068 171.436 75.2368 171.436ZM79.7552 171.324H81.3232V168.3C81.3232 166.648 82.0652 165.64 83.2552 165.64C84.1792 165.64 84.6272 166.186 84.6272 167.348C84.6272 167.67 84.5992 168.02 84.5712 168.286H85.9992C86.0272 167.992 86.0692 167.432 86.0692 166.998C86.0692 165.276 85.2432 164.296 83.7452 164.296C82.3172 164.296 81.6032 165.15 81.2812 166.396H81.2672L81.3232 164.408H79.7552V171.324ZM87.3164 163.694H88.5484L90.0464 161.734H88.4084L87.3164 163.694ZM87.3024 171.324H88.8704V164.408H87.3024V171.324ZM92.869 171.324H94.731L97.727 164.408H96.089L93.891 169.854H93.863L91.693 164.408H89.859L92.869 171.324ZM104.98 167.614C104.98 165.458 103.734 164.296 101.774 164.296C99.5901 164.296 98.2181 165.682 98.2181 167.922C98.2181 170.092 99.5901 171.436 101.774 171.436C103.664 171.436 104.924 170.498 104.98 168.958H103.566C103.496 169.77 102.81 170.218 101.802 170.218C100.626 170.218 99.8841 169.504 99.8001 168.174H104.98V167.614ZM103.566 167.222H99.8421C100.024 166.074 100.71 165.514 101.788 165.514C102.922 165.514 103.566 166.088 103.566 167.124V167.222ZM106.221 171.324H107.789V161.622H106.221V171.324ZM109.688 168.16H110.304L110.766 163.498V161.916H109.226V163.498L109.688 168.16ZM109.198 171.324H110.794V169.504H109.198V171.324Z" fill="black"/>
</svg>
