<svg width="313" height="158" viewBox="0 0 313 158" fill="none" xmlns="http://www.w3.org/2000/svg">
<path d="M6.2 71.858C3.848 71.858 2.896 72.964 2.896 74.938V76.492H5.612V74.182H4.506V74.126C4.506 73.51 4.884 73.048 6.2 73.048V71.858ZM10.428 71.858C8.076 71.858 7.124 72.964 7.124 74.938V76.492H9.84V74.182H8.734V74.126C8.734 73.51 9.112 73.048 10.428 73.048V71.858ZM182.787 148.408C185.139 148.408 186.091 147.302 186.091 145.328V143.774H183.375V146.084H184.481V146.14C184.481 146.756 184.103 147.218 182.787 147.218V148.408ZM187.029 148.408C189.381 148.408 190.333 147.302 190.333 145.328V143.774H187.617V146.084H188.723V146.14C188.723 146.756 188.345 147.218 187.029 147.218V148.408Z" fill="#01CA30"/>
<path d="M11.7134 81H13.3934V77.164H17.1734V75.988H13.3934V73.188H17.8734V71.788H11.7134V81ZM20.9545 81.112C22.4805 81.112 23.3065 80.496 23.5305 79.474H23.5445C23.5445 80.034 23.5025 80.664 23.4745 81H25.0425V76.786C25.0425 74.966 23.8105 73.972 21.7105 73.972C19.7365 73.972 18.5325 74.798 18.5325 76.184C18.5325 76.31 18.5465 76.492 18.5605 76.59H20.0025C19.9885 76.478 19.9885 76.366 19.9885 76.324C19.9885 75.554 20.5905 75.148 21.6545 75.148C22.8725 75.148 23.4745 75.61 23.4745 76.646V77.136H20.9125C19.0645 77.136 18.3225 77.962 18.3225 79.012C18.3225 80.356 19.3725 81.112 20.9545 81.112ZM21.2765 79.936C20.3245 79.936 19.7645 79.572 19.7645 78.942C19.7645 78.396 20.1565 78.088 21.0525 78.088H23.4745V78.214C23.4745 79.278 22.6345 79.936 21.2765 79.936ZM26.1408 81H31.9928V79.726H28.1708V79.712L31.9928 75.05V74.084H26.2528V75.358H29.9488V75.386L26.1408 80.02V81ZM39.5198 77.29C39.5198 75.134 38.2738 73.972 36.3138 73.972C34.1298 73.972 32.7578 75.358 32.7578 77.598C32.7578 79.768 34.1298 81.112 36.3138 81.112C38.2038 81.112 39.4638 80.174 39.5198 78.634H38.1058C38.0358 79.446 37.3498 79.894 36.3418 79.894C35.1658 79.894 34.4238 79.18 34.3398 77.85H39.5198V77.29ZM38.1058 76.898H34.3818C34.5638 75.75 35.2498 75.19 36.3278 75.19C37.4618 75.19 38.1058 75.764 38.1058 76.8V76.898ZM40.7188 81H42.2868V77.976C42.2868 76.324 43.0288 75.316 44.2188 75.316C45.1428 75.316 45.5908 75.862 45.5908 77.024C45.5908 77.346 45.5628 77.696 45.5348 77.962H46.9628C46.9908 77.668 47.0328 77.108 47.0328 76.674C47.0328 74.952 46.2068 73.972 44.7088 73.972C43.2808 73.972 42.5668 74.826 42.2448 76.072H42.2308L42.2868 74.084H40.7188V81ZM51.3136 83.772H52.8816V81.056C52.8816 80.776 52.8536 80.062 52.8396 79.6H52.8536C53.1476 80.496 54.0436 81.112 55.4156 81.112C57.4036 81.112 58.6636 79.656 58.6636 77.416C58.6636 75.33 57.4176 73.972 55.4436 73.972C54.0716 73.972 53.1476 74.644 52.8676 75.694H52.8536L52.8816 74.084H51.3136V83.772ZM55.1076 79.824C53.7636 79.824 52.8816 79.068 52.8816 77.892V77.528C52.9096 76.142 53.7776 75.26 55.0796 75.26C56.3256 75.26 57.0956 76.128 57.0956 77.458C57.0956 78.9 56.3116 79.824 55.1076 79.824ZM61.9371 81.112C63.4631 81.112 64.2891 80.496 64.5131 79.474H64.5271C64.5271 80.034 64.4851 80.664 64.4571 81H66.0251V76.786C66.0251 74.966 64.7931 73.972 62.6931 73.972C60.7191 73.972 59.5151 74.798 59.5151 76.184C59.5151 76.31 59.5291 76.492 59.5431 76.59H60.9851C60.9711 76.478 60.9711 76.366 60.9711 76.324C60.9711 75.554 61.5731 75.148 62.6371 75.148C63.8551 75.148 64.4571 75.61 64.4571 76.646V77.136H61.8951C60.0471 77.136 59.3051 77.962 59.3051 79.012C59.3051 80.356 60.3551 81.112 61.9371 81.112ZM62.2591 79.936C61.3071 79.936 60.7471 79.572 60.7471 78.942C60.7471 78.396 61.1391 78.088 62.0351 78.088H64.4571V78.214C64.4571 79.278 63.6171 79.936 62.2591 79.936ZM67.3615 81H68.9295V77.976C68.9295 76.324 69.6715 75.316 70.8615 75.316C71.7855 75.316 72.2335 75.862 72.2335 77.024C72.2335 77.346 72.2055 77.696 72.1775 77.962H73.6055C73.6335 77.668 73.6755 77.108 73.6755 76.674C73.6755 74.952 72.8495 73.972 71.3515 73.972C69.9235 73.972 69.2095 74.826 68.8875 76.072H68.8735L68.9295 74.084H67.3615V81ZM77.9327 81.084C78.5067 81.084 78.9827 80.986 79.1927 80.916V79.67C78.9967 79.726 78.5487 79.796 78.1567 79.796C77.2047 79.796 76.8687 79.348 76.8687 78.452V75.358H79.2487V74.084H76.8687V72.516H75.5667L75.4967 73.552C75.4547 73.944 75.3567 74.084 75.0907 74.084H74.2087V75.358H75.3007V78.536C75.3007 80.062 76.0427 81.084 77.9327 81.084ZM86.6128 77.29C86.6128 75.134 85.3668 73.972 83.4068 73.972C81.2228 73.972 79.8508 75.358 79.8508 77.598C79.8508 79.768 81.2228 81.112 83.4068 81.112C85.2968 81.112 86.5568 80.174 86.6128 78.634H85.1988C85.1288 79.446 84.4428 79.894 83.4348 79.894C82.2588 79.894 81.5168 79.18 81.4328 77.85H86.6128V77.29ZM85.1988 76.898H81.4748C81.6568 75.75 82.3428 75.19 83.4208 75.19C84.5548 75.19 85.1988 75.764 85.1988 76.8V76.898ZM93.9254 81.112C95.3394 81.112 96.2074 80.412 96.4734 79.32H96.5014C96.4734 79.992 96.4594 80.594 96.4314 81H97.9994V71.298H96.4314V75.302H96.4174C96.1374 74.49 95.3254 73.972 94.0234 73.972C91.9654 73.972 90.6634 75.414 90.6634 77.5C90.6634 79.656 91.9234 81.112 93.9254 81.112ZM94.2474 79.824C93.0154 79.824 92.2174 78.872 92.2174 77.5C92.2174 76.184 93.0294 75.26 94.2754 75.26C95.5774 75.26 96.4314 76.044 96.4314 77.276V77.612C96.4314 78.956 95.5634 79.824 94.2474 79.824ZM102.847 81.112C105.059 81.112 106.473 79.754 106.473 77.556C106.473 75.344 105.059 73.972 102.847 73.972C100.649 73.972 99.2347 75.344 99.2347 77.556C99.2347 79.754 100.649 81.112 102.847 81.112ZM102.847 79.824C101.573 79.824 100.803 78.956 100.803 77.556C100.803 76.142 101.573 75.26 102.847 75.26C104.121 75.26 104.905 76.142 104.905 77.556C104.905 78.956 104.121 79.824 102.847 79.824ZM113.788 81.084C114.362 81.084 114.838 80.986 115.048 80.916V79.67C114.852 79.726 114.404 79.796 114.012 79.796C113.06 79.796 112.724 79.348 112.724 78.452V75.358H115.104V74.084H112.724V72.516H111.422L111.352 73.552C111.31 73.944 111.212 74.084 110.946 74.084H110.064V75.358H111.156V78.536C111.156 80.062 111.898 81.084 113.788 81.084ZM116.232 73.272H117.842V71.732H116.232V73.272ZM116.246 81H117.814V74.084H116.246V81ZM119.293 81H120.861V77.626C120.861 76.142 121.575 75.316 122.639 75.316C123.577 75.316 124.095 75.932 124.095 76.912V81H125.663V77.57C125.663 76.128 126.363 75.316 127.455 75.316C128.393 75.316 128.883 75.932 128.883 76.94V81H130.451V76.59C130.451 74.966 129.569 73.972 128.029 73.972C126.713 73.972 125.873 74.672 125.621 75.792H125.607C125.439 74.672 124.571 73.972 123.227 73.972C121.967 73.972 121.127 74.714 120.819 75.904H120.805L120.861 74.084H119.293V81ZM138.34 77.29C138.34 75.134 137.094 73.972 135.134 73.972C132.95 73.972 131.578 75.358 131.578 77.598C131.578 79.768 132.95 81.112 135.134 81.112C137.024 81.112 138.284 80.174 138.34 78.634H136.926C136.856 79.446 136.17 79.894 135.162 79.894C133.986 79.894 133.244 79.18 133.16 77.85H138.34V77.29ZM136.926 76.898H133.202C133.384 75.75 134.07 75.19 135.148 75.19C136.282 75.19 136.926 75.764 136.926 76.8V76.898ZM142.712 81H144.294L144.28 73.188H144.294L149.208 81H151.196V71.788H149.614L149.642 78.788H149.614L145.232 71.788H142.712V81ZM157.084 81.14C158.764 81.14 159.8 80.412 160.08 79.348H160.094C160.08 79.978 160.038 80.636 160.01 81H161.41V76.464H156.93V77.528H159.786V77.738C159.786 78.984 158.694 79.838 157.224 79.838C155.558 79.838 154.2 78.564 154.2 76.506C154.2 74.378 155.516 73.048 157.294 73.048C158.708 73.048 159.828 73.79 159.828 75.092C159.828 75.218 159.828 75.372 159.814 75.54H161.312C161.326 75.372 161.34 75.148 161.34 74.994C161.34 72.894 159.59 71.648 157.266 71.648C154.55 71.648 152.506 73.538 152.506 76.492C152.506 79.376 154.452 81.14 157.084 81.14ZM163.085 81H164.667V79.18H163.085V81ZM170.854 81.14C173.29 81.14 175.026 79.712 175.026 77.626V77.304H173.528V77.528C173.528 78.858 172.45 79.74 170.91 79.74C169.174 79.74 167.83 78.466 167.83 76.408C167.83 74.35 169.118 73.048 170.91 73.048C172.394 73.048 173.5 73.944 173.5 75.358C173.5 75.428 173.5 75.54 173.486 75.666H174.97C174.984 75.498 174.998 75.316 174.998 75.218C174.998 73.09 173.276 71.648 170.854 71.648C168.082 71.648 166.122 73.468 166.122 76.408C166.122 79.334 168.11 81.14 170.854 81.14ZM182.931 81H184.877L181.139 71.788H179.095L175.343 81H177.079L177.863 78.928H182.161L182.931 81ZM178.283 77.808L180.005 73.216H180.033L181.741 77.808H178.283ZM189.112 81.14C192.248 81.14 193.116 79.754 193.116 78.27C193.116 77.416 192.752 76.772 192.122 76.45C191.548 76.142 190.652 75.988 189.686 75.834C188.888 75.722 187.852 75.554 187.446 75.358C187.082 75.19 186.9 74.882 186.9 74.364C186.9 73.524 187.726 72.95 189.112 72.95C190.554 72.95 191.296 73.594 191.296 74.952H192.808C192.808 72.852 191.814 71.648 189.084 71.648C186.676 71.648 185.234 72.824 185.234 74.504C185.234 75.372 185.584 76.002 186.144 76.352C186.648 76.674 187.628 76.884 188.552 77.01C189.35 77.122 190.344 77.248 190.806 77.43C191.24 77.584 191.45 77.878 191.45 78.382C191.45 79.138 190.974 79.838 189.098 79.838C187.334 79.838 186.774 79.026 186.774 77.85H185.262C185.262 79.53 186.06 81.14 189.112 81.14ZM194.441 81H196.121V76.898H201.021V81H202.687V71.788H201.021V75.554H196.121V71.788H194.441V81ZM212.482 71.41H210.844L209.752 73.37H210.984L212.482 71.41ZM213.826 77.29C213.826 75.134 212.58 73.972 210.62 73.972C208.436 73.972 207.064 75.358 207.064 77.598C207.064 79.768 208.436 81.112 210.62 81.112C212.51 81.112 213.77 80.174 213.826 78.634H212.412C212.342 79.446 211.656 79.894 210.648 79.894C209.472 79.894 208.73 79.18 208.646 77.85H213.826V77.29ZM212.412 76.898H208.688C208.87 75.75 209.556 75.19 210.634 75.19C211.768 75.19 212.412 75.764 212.412 76.8V76.898ZM221.111 81.112C223.323 81.112 224.499 80.286 224.499 78.886C224.499 78.326 224.233 77.794 223.771 77.542C223.281 77.262 222.721 77.164 221.741 77.066C220.901 76.982 220.243 76.912 219.907 76.8C219.501 76.66 219.431 76.38 219.431 76.086C219.431 75.498 220.047 75.106 221.139 75.106C222.287 75.106 222.777 75.54 222.791 76.436H224.205C224.205 74.868 223.253 73.972 221.097 73.972C219.221 73.972 217.877 74.812 217.877 76.198C217.877 76.73 218.101 77.234 218.479 77.514C218.899 77.822 219.627 77.962 220.705 78.06C221.475 78.13 222.133 78.2 222.469 78.326C222.833 78.452 222.931 78.69 222.931 78.956C222.931 79.586 222.371 79.978 221.097 79.978C219.753 79.978 219.291 79.488 219.291 78.69H217.877C217.877 80.048 218.731 81.112 221.111 81.112ZM228.124 81.112C229.65 81.112 230.476 80.496 230.7 79.474H230.714C230.714 80.034 230.672 80.664 230.644 81H232.212V76.786C232.212 74.966 230.98 73.972 228.88 73.972C226.906 73.972 225.702 74.798 225.702 76.184C225.702 76.31 225.716 76.492 225.73 76.59H227.172C227.158 76.478 227.158 76.366 227.158 76.324C227.158 75.554 227.76 75.148 228.824 75.148C230.042 75.148 230.644 75.61 230.644 76.646V77.136H228.082C226.234 77.136 225.492 77.962 225.492 79.012C225.492 80.356 226.542 81.112 228.124 81.112ZM228.446 79.936C227.494 79.936 226.934 79.572 226.934 78.942C226.934 78.396 227.326 78.088 228.222 78.088H230.644V78.214C230.644 79.278 229.804 79.936 228.446 79.936ZM237.776 81.112C239.722 81.112 240.94 79.698 240.94 77.416C240.94 75.288 239.75 73.972 237.762 73.972C236.39 73.972 235.438 74.616 235.144 75.624H235.13C235.144 75.288 235.158 74.728 235.158 74.434V71.298H233.59V81H235.158C235.13 80.65 235.102 80.02 235.102 79.53H235.116C235.396 80.496 236.348 81.112 237.776 81.112ZM237.37 79.824C236.012 79.824 235.158 79.082 235.158 77.878V77.528C235.158 76.128 236.026 75.26 237.398 75.26C238.63 75.26 239.372 76.1 239.372 77.458C239.372 78.928 238.602 79.824 237.37 79.824ZM248.685 77.29C248.685 75.134 247.439 73.972 245.479 73.972C243.295 73.972 241.923 75.358 241.923 77.598C241.923 79.768 243.295 81.112 245.479 81.112C247.369 81.112 248.629 80.174 248.685 78.634H247.271C247.201 79.446 246.515 79.894 245.507 79.894C244.331 79.894 243.589 79.18 243.505 77.85H248.685V77.29ZM247.271 76.898H243.547C243.729 75.75 244.415 75.19 245.493 75.19C246.627 75.19 247.271 75.764 247.271 76.8V76.898ZM249.884 81H251.452V77.976C251.452 76.324 252.194 75.316 253.384 75.316C254.308 75.316 254.756 75.862 254.756 77.024C254.756 77.346 254.728 77.696 254.7 77.962H256.128C256.156 77.668 256.198 77.108 256.198 76.674C256.198 74.952 255.372 73.972 253.874 73.972C252.446 73.972 251.732 74.826 251.41 76.072H251.396L251.452 74.084H249.884V81ZM265.995 83.772H267.563V74.084H266.009V75.4H265.995C265.715 74.518 264.889 73.972 263.545 73.972C261.613 73.972 260.227 75.358 260.227 77.486C260.227 79.698 261.487 81.112 263.475 81.112C264.805 81.112 265.729 80.44 265.981 79.404H265.995V83.772ZM263.811 79.824C262.593 79.824 261.781 78.914 261.781 77.486C261.781 76.142 262.621 75.26 263.839 75.26C265.141 75.26 265.995 76.044 265.995 77.262V77.598C265.995 78.956 265.127 79.824 263.811 79.824ZM271.85 81.112C273.39 81.112 274.356 80.384 274.65 79.068H274.664C274.664 79.796 274.636 80.538 274.594 81H276.162V74.084H274.594V77.15C274.594 78.83 273.712 79.768 272.312 79.768C271.178 79.768 270.506 79.152 270.506 78.06V74.084H268.938V78.284C268.938 80.118 270.044 81.112 271.85 81.112ZM284.118 77.29C284.118 75.134 282.872 73.972 280.912 73.972C278.728 73.972 277.356 75.358 277.356 77.598C277.356 79.768 278.728 81.112 280.912 81.112C282.802 81.112 284.062 80.174 284.118 78.634H282.704C282.634 79.446 281.948 79.894 280.94 79.894C279.764 79.894 279.022 79.18 278.938 77.85H284.118V77.29ZM282.704 76.898H278.98C279.162 75.75 279.848 75.19 280.926 75.19C282.06 75.19 282.704 75.764 282.704 76.8V76.898ZM5.22 99.112C6.746 99.112 7.572 98.496 7.796 97.474H7.81C7.81 98.034 7.768 98.664 7.74 99H9.308V94.786C9.308 92.966 8.076 91.972 5.976 91.972C4.002 91.972 2.798 92.798 2.798 94.184C2.798 94.31 2.812 94.492 2.826 94.59H4.268C4.254 94.478 4.254 94.366 4.254 94.324C4.254 93.554 4.856 93.148 5.92 93.148C7.138 93.148 7.74 93.61 7.74 94.646V95.136H5.178C3.33 95.136 2.588 95.962 2.588 97.012C2.588 98.356 3.638 99.112 5.22 99.112ZM5.542 97.936C4.59 97.936 4.03 97.572 4.03 96.942C4.03 96.396 4.422 96.088 5.318 96.088H7.74V96.214C7.74 97.278 6.9 97.936 5.542 97.936ZM13.8224 99.112C15.7964 99.112 17.1124 98.034 17.1124 96.186H15.6984C15.6844 97.208 14.9984 97.824 13.8924 97.824C12.7304 97.824 12.0024 96.956 12.0024 95.542C12.0024 94.114 12.7444 93.26 13.9484 93.26C14.9984 93.26 15.6704 93.89 15.6844 94.926H17.0984C17.0984 93.092 15.8384 91.972 13.9064 91.972C11.8204 91.972 10.4344 93.33 10.4344 95.542C10.4344 97.754 11.7924 99.112 13.8224 99.112ZM18.3827 91.272H19.9927V89.732H18.3827V91.272ZM18.3967 99H19.9647V92.084H18.3967V99ZM21.4433 99H23.0113V95.626C23.0113 94.142 23.7253 93.316 24.7893 93.316C25.7273 93.316 26.2453 93.932 26.2453 94.912V99H27.8133V95.57C27.8133 94.128 28.5133 93.316 29.6053 93.316C30.5433 93.316 31.0333 93.932 31.0333 94.94V99H32.6013V94.59C32.6013 92.966 31.7193 91.972 30.1793 91.972C28.8633 91.972 28.0233 92.672 27.7713 93.792H27.7573C27.5893 92.672 26.7213 91.972 25.3773 91.972C24.1173 91.972 23.2773 92.714 22.9693 93.904H22.9553L23.0113 92.084H21.4433V99ZM36.3745 99.112C37.9005 99.112 38.7265 98.496 38.9505 97.474H38.9645C38.9645 98.034 38.9225 98.664 38.8945 99H40.4625V94.786C40.4625 92.966 39.2305 91.972 37.1305 91.972C35.1565 91.972 33.9525 92.798 33.9525 94.184C33.9525 94.31 33.9665 94.492 33.9805 94.59H35.4225C35.4085 94.478 35.4085 94.366 35.4085 94.324C35.4085 93.554 36.0105 93.148 37.0745 93.148C38.2925 93.148 38.8945 93.61 38.8945 94.646V95.136H36.3325C34.4845 95.136 33.7425 95.962 33.7425 97.012C33.7425 98.356 34.7925 99.112 36.3745 99.112ZM36.6965 97.936C35.7445 97.936 35.1845 97.572 35.1845 96.942C35.1845 96.396 35.5765 96.088 36.4725 96.088H38.8945V96.214C38.8945 97.278 38.0545 97.936 36.6965 97.936ZM47.9124 99.112C49.3264 99.112 50.1944 98.412 50.4604 97.32H50.4884C50.4604 97.992 50.4464 98.594 50.4184 99H51.9864V89.298H50.4184V93.302H50.4044C50.1244 92.49 49.3124 91.972 48.0104 91.972C45.9524 91.972 44.6504 93.414 44.6504 95.5C44.6504 97.656 45.9104 99.112 47.9124 99.112ZM48.2344 97.824C47.0024 97.824 46.2044 96.872 46.2044 95.5C46.2044 94.184 47.0164 93.26 48.2624 93.26C49.5644 93.26 50.4184 94.044 50.4184 95.276V95.612C50.4184 96.956 49.5504 97.824 48.2344 97.824ZM59.9837 95.29C59.9837 93.134 58.7377 91.972 56.7777 91.972C54.5937 91.972 53.2217 93.358 53.2217 95.598C53.2217 97.768 54.5937 99.112 56.7777 99.112C58.6677 99.112 59.9277 98.174 59.9837 96.634H58.5697C58.4997 97.446 57.8137 97.894 56.8057 97.894C55.6297 97.894 54.8877 97.18 54.8037 95.85H59.9837V95.29ZM58.5697 94.898H54.8457C55.0277 93.75 55.7137 93.19 56.7917 93.19C57.9257 93.19 58.5697 93.764 58.5697 94.8V94.898ZM67.3243 99.084C67.8983 99.084 68.3743 98.986 68.5843 98.916V97.67C68.3883 97.726 67.9403 97.796 67.5483 97.796C66.5963 97.796 66.2603 97.348 66.2603 96.452V93.358H68.6403V92.084H66.2603V90.516H64.9583L64.8883 91.552C64.8463 91.944 64.7483 92.084 64.4823 92.084H63.6003V93.358H64.6923V96.536C64.6923 98.062 65.4343 99.084 67.3243 99.084ZM72.5678 99.112C74.1078 99.112 75.0738 98.384 75.3678 97.068H75.3818C75.3818 97.796 75.3538 98.538 75.3118 99H76.8798V92.084H75.3118V95.15C75.3118 96.83 74.4298 97.768 73.0298 97.768C71.8958 97.768 71.2238 97.152 71.2238 96.06V92.084H69.6558V96.284C69.6558 98.118 70.7618 99.112 72.5678 99.112ZM81.3355 99.112C82.7495 99.112 83.6175 98.412 83.8835 97.32H83.9115C83.8835 97.992 83.8695 98.594 83.8415 99H85.4095V89.298H83.8415V93.302H83.8275C83.5475 92.49 82.7355 91.972 81.4335 91.972C79.3755 91.972 78.0735 93.414 78.0735 95.5C78.0735 97.656 79.3335 99.112 81.3355 99.112ZM81.6575 97.824C80.4255 97.824 79.6275 96.872 79.6275 95.5C79.6275 94.184 80.4395 93.26 81.6855 93.26C82.9875 93.26 83.8415 94.044 83.8415 95.276V95.612C83.8415 96.956 82.9735 97.824 81.6575 97.824ZM90.2568 99.112C92.4688 99.112 93.8828 97.754 93.8828 95.556C93.8828 93.344 92.4688 91.972 90.2568 91.972C88.0588 91.972 86.6448 93.344 86.6448 95.556C86.6448 97.754 88.0588 99.112 90.2568 99.112ZM90.2568 97.824C88.9828 97.824 88.2128 96.956 88.2128 95.556C88.2128 94.142 88.9828 93.26 90.2568 93.26C91.5308 93.26 92.3148 94.142 92.3148 95.556C92.3148 96.956 91.5308 97.824 90.2568 97.824ZM101.143 99.112C103.355 99.112 104.531 98.286 104.531 96.886C104.531 96.326 104.265 95.794 103.803 95.542C103.313 95.262 102.753 95.164 101.773 95.066C100.933 94.982 100.275 94.912 99.9385 94.8C99.5325 94.66 99.4625 94.38 99.4625 94.086C99.4625 93.498 100.079 93.106 101.171 93.106C102.319 93.106 102.809 93.54 102.823 94.436H104.237C104.237 92.868 103.285 91.972 101.129 91.972C99.2525 91.972 97.9085 92.812 97.9085 94.198C97.9085 94.73 98.1325 95.234 98.5105 95.514C98.9305 95.822 99.6585 95.962 100.737 96.06C101.507 96.13 102.165 96.2 102.501 96.326C102.865 96.452 102.963 96.69 102.963 96.956C102.963 97.586 102.403 97.978 101.129 97.978C99.7845 97.978 99.3225 97.488 99.3225 96.69H97.9085C97.9085 98.048 98.7625 99.112 101.143 99.112ZM109.121 99.112C111.333 99.112 112.747 97.754 112.747 95.556C112.747 93.344 111.333 91.972 109.121 91.972C106.923 91.972 105.509 93.344 105.509 95.556C105.509 97.754 106.923 99.112 109.121 99.112ZM109.121 97.824C107.847 97.824 107.077 96.956 107.077 95.556C107.077 94.142 107.847 93.26 109.121 93.26C110.395 93.26 111.179 94.142 111.179 95.556C111.179 96.956 110.395 97.824 109.121 97.824ZM113.921 99H115.489V95.626C115.489 94.142 116.203 93.316 117.267 93.316C118.205 93.316 118.723 93.932 118.723 94.912V99H120.291V95.57C120.291 94.128 120.991 93.316 122.083 93.316C123.021 93.316 123.511 93.932 123.511 94.94V99H125.079V94.59C125.079 92.966 124.197 91.972 122.657 91.972C121.341 91.972 120.501 92.672 120.249 93.792H120.235C120.067 92.672 119.199 91.972 117.855 91.972C116.595 91.972 115.755 92.714 115.447 93.904H115.433L115.489 92.084H113.921V99ZM129.819 99.112C132.03 99.112 133.445 97.754 133.445 95.556C133.445 93.344 132.03 91.972 129.819 91.972C127.62 91.972 126.206 93.344 126.206 95.556C126.206 97.754 127.62 99.112 129.819 99.112ZM129.819 97.824C128.544 97.824 127.774 96.956 127.774 95.556C127.774 94.142 128.544 93.26 129.819 93.26C131.092 93.26 131.876 94.142 131.876 95.556C131.876 96.956 131.092 97.824 129.819 97.824ZM137.561 99.112C139.773 99.112 140.949 98.286 140.949 96.886C140.949 96.326 140.683 95.794 140.221 95.542C139.731 95.262 139.171 95.164 138.191 95.066C137.351 94.982 136.693 94.912 136.357 94.8C135.951 94.66 135.881 94.38 135.881 94.086C135.881 93.498 136.497 93.106 137.589 93.106C138.737 93.106 139.227 93.54 139.241 94.436H140.655C140.655 92.868 139.703 91.972 137.547 91.972C135.671 91.972 134.327 92.812 134.327 94.198C134.327 94.73 134.551 95.234 134.929 95.514C135.349 95.822 136.077 95.962 137.155 96.06C137.925 96.13 138.583 96.2 138.919 96.326C139.283 96.452 139.381 96.69 139.381 96.956C139.381 97.586 138.821 97.978 137.547 97.978C136.203 97.978 135.741 97.488 135.741 96.69H134.327C134.327 98.048 135.181 99.112 137.561 99.112ZM148.041 99.112C149.581 99.112 150.547 98.384 150.841 97.068H150.855C150.855 97.796 150.827 98.538 150.785 99H152.353V92.084H150.785V95.15C150.785 96.83 149.903 97.768 148.503 97.768C147.369 97.768 146.697 97.152 146.697 96.06V92.084H145.129V96.284C145.129 98.118 146.235 99.112 148.041 99.112ZM153.757 99H155.325V95.626C155.325 94.142 156.039 93.316 157.103 93.316C158.041 93.316 158.559 93.932 158.559 94.912V99H160.127V95.57C160.127 94.128 160.827 93.316 161.919 93.316C162.857 93.316 163.347 93.932 163.347 94.94V99H164.915V94.59C164.915 92.966 164.033 91.972 162.493 91.972C161.177 91.972 160.337 92.672 160.085 93.792H160.071C159.903 92.672 159.035 91.972 157.691 91.972C156.431 91.972 155.591 92.714 155.283 93.904H155.269L155.325 92.084H153.757V99ZM168.688 99.112C170.214 99.112 171.04 98.496 171.264 97.474H171.278C171.278 98.034 171.236 98.664 171.208 99H172.776V94.786C172.776 92.966 171.544 91.972 169.444 91.972C167.47 91.972 166.266 92.798 166.266 94.184C166.266 94.31 166.28 94.492 166.294 94.59H167.736C167.722 94.478 167.722 94.366 167.722 94.324C167.722 93.554 168.324 93.148 169.388 93.148C170.606 93.148 171.208 93.61 171.208 94.646V95.136H168.646C166.798 95.136 166.056 95.962 166.056 97.012C166.056 98.356 167.106 99.112 168.688 99.112ZM169.01 97.936C168.058 97.936 167.498 97.572 167.498 96.942C167.498 96.396 167.89 96.088 168.786 96.088H171.208V96.214C171.208 97.278 170.368 97.936 169.01 97.936ZM177.636 99H179.204V93.358H181.612V92.084H179.204V91.468C179.204 90.712 179.638 90.292 180.436 90.292C180.912 90.292 181.276 90.39 181.5 90.46V89.214C181.276 89.13 180.772 89.018 180.156 89.018C178.658 89.018 177.636 89.858 177.636 91.398V92.084H176.53V93.358H177.636V99ZM184.64 99.112C186.166 99.112 186.992 98.496 187.216 97.474H187.23C187.23 98.034 187.188 98.664 187.16 99H188.728V94.786C188.728 92.966 187.496 91.972 185.396 91.972C183.422 91.972 182.218 92.798 182.218 94.184C182.218 94.31 182.232 94.492 182.246 94.59H183.688C183.674 94.478 183.674 94.366 183.674 94.324C183.674 93.554 184.276 93.148 185.34 93.148C186.558 93.148 187.16 93.61 187.16 94.646V95.136H184.598C182.75 95.136 182.008 95.962 182.008 97.012C182.008 98.356 183.058 99.112 184.64 99.112ZM184.962 97.936C184.01 97.936 183.45 97.572 183.45 96.942C183.45 96.396 183.842 96.088 184.738 96.088H187.16V96.214C187.16 97.278 186.32 97.936 184.962 97.936ZM190.064 99H191.632V95.626C191.632 94.142 192.346 93.316 193.41 93.316C194.348 93.316 194.866 93.932 194.866 94.912V99H196.434V95.57C196.434 94.128 197.134 93.316 198.226 93.316C199.164 93.316 199.654 93.932 199.654 94.94V99H201.222V94.59C201.222 92.966 200.34 91.972 198.8 91.972C197.484 91.972 196.644 92.672 196.392 93.792H196.378C196.21 92.672 195.342 91.972 193.998 91.972C192.738 91.972 191.898 92.714 191.59 93.904H191.576L191.632 92.084H190.064V99ZM202.629 91.37H203.861L205.359 89.41H203.721L202.629 91.37ZM202.615 99H204.183V92.084H202.615V99ZM205.8 99H207.368V89.298H205.8V99ZM208.875 91.272H210.485V89.732H208.875V91.272ZM208.889 99H210.457V92.084H208.889V99ZM214.372 99.112C215.898 99.112 216.724 98.496 216.948 97.474H216.962C216.962 98.034 216.92 98.664 216.892 99H218.46V94.786C218.46 92.966 217.228 91.972 215.128 91.972C213.154 91.972 211.95 92.798 211.95 94.184C211.95 94.31 211.964 94.492 211.978 94.59H213.42C213.406 94.478 213.406 94.366 213.406 94.324C213.406 93.554 214.008 93.148 215.072 93.148C216.29 93.148 216.892 93.61 216.892 94.646V95.136H214.33C212.482 95.136 211.74 95.962 211.74 97.012C211.74 98.356 212.79 99.112 214.372 99.112ZM214.694 97.936C213.742 97.936 213.182 97.572 213.182 96.942C213.182 96.396 213.574 96.088 214.47 96.088H216.892V96.214C216.892 97.278 216.052 97.936 214.694 97.936ZM219.796 100.932C221.014 100.834 221.63 100.148 221.63 98.496V97.18H220.048V99H220.706V99.042C220.706 99.728 220.44 100.064 219.796 100.12V100.932ZM229.422 99.112C230.836 99.112 231.704 98.412 231.97 97.32H231.998C231.97 97.992 231.956 98.594 231.928 99H233.496V89.298H231.928V93.302H231.914C231.634 92.49 230.822 91.972 229.52 91.972C227.462 91.972 226.16 93.414 226.16 95.5C226.16 97.656 227.42 99.112 229.422 99.112ZM229.744 97.824C228.512 97.824 227.714 96.872 227.714 95.5C227.714 94.184 228.526 93.26 229.772 93.26C231.074 93.26 231.928 94.044 231.928 95.276V95.612C231.928 96.956 231.06 97.824 229.744 97.824ZM234.984 91.272H236.594V89.732H234.984V91.272ZM234.998 99H236.566V92.084H234.998V99ZM241.068 99.112C243.28 99.112 244.456 98.286 244.456 96.886C244.456 96.326 244.19 95.794 243.728 95.542C243.238 95.262 242.678 95.164 241.698 95.066C240.858 94.982 240.2 94.912 239.864 94.8C239.458 94.66 239.388 94.38 239.388 94.086C239.388 93.498 240.004 93.106 241.096 93.106C242.244 93.106 242.734 93.54 242.748 94.436H244.162C244.162 92.868 243.21 91.972 241.054 91.972C239.178 91.972 237.834 92.812 237.834 94.198C237.834 94.73 238.058 95.234 238.436 95.514C238.856 95.822 239.584 95.962 240.662 96.06C241.432 96.13 242.09 96.2 242.426 96.326C242.79 96.452 242.888 96.69 242.888 96.956C242.888 97.586 242.328 97.978 241.054 97.978C239.71 97.978 239.248 97.488 239.248 96.69H237.834C237.834 98.048 238.688 99.112 241.068 99.112ZM245.687 101.772H247.255V99.056C247.255 98.776 247.227 98.062 247.213 97.6H247.227C247.521 98.496 248.417 99.112 249.789 99.112C251.777 99.112 253.037 97.656 253.037 95.416C253.037 93.33 251.791 91.972 249.817 91.972C248.445 91.972 247.521 92.644 247.241 93.694H247.227L247.255 92.084H245.687V101.772ZM249.481 97.824C248.137 97.824 247.255 97.068 247.255 95.892V95.528C247.283 94.142 248.151 93.26 249.453 93.26C250.699 93.26 251.469 94.128 251.469 95.458C251.469 96.9 250.685 97.824 249.481 97.824ZM257.632 99.112C259.844 99.112 261.258 97.754 261.258 95.556C261.258 93.344 259.844 91.972 257.632 91.972C255.434 91.972 254.02 93.344 254.02 95.556C254.02 97.754 255.434 99.112 257.632 99.112ZM257.632 97.824C256.358 97.824 255.588 96.956 255.588 95.556C255.588 94.142 256.358 93.26 257.632 93.26C258.906 93.26 259.69 94.142 259.69 95.556C259.69 96.956 258.906 97.824 257.632 97.824ZM265.374 99.112C267.586 99.112 268.762 98.286 268.762 96.886C268.762 96.326 268.496 95.794 268.034 95.542C267.544 95.262 266.984 95.164 266.004 95.066C265.164 94.982 264.506 94.912 264.17 94.8C263.764 94.66 263.694 94.38 263.694 94.086C263.694 93.498 264.31 93.106 265.402 93.106C266.55 93.106 267.04 93.54 267.054 94.436H268.468C268.468 92.868 267.516 91.972 265.36 91.972C263.484 91.972 262.14 92.812 262.14 94.198C262.14 94.73 262.364 95.234 262.742 95.514C263.162 95.822 263.89 95.962 264.968 96.06C265.738 96.13 266.396 96.2 266.732 96.326C267.096 96.452 267.194 96.69 267.194 96.956C267.194 97.586 266.634 97.978 265.36 97.978C264.016 97.978 263.554 97.488 263.554 96.69H262.14C262.14 98.048 262.994 99.112 265.374 99.112ZM273.031 99.084C273.605 99.084 274.081 98.986 274.291 98.916V97.67C274.095 97.726 273.647 97.796 273.255 97.796C272.303 97.796 271.967 97.348 271.967 96.452V93.358H274.347V92.084H271.967V90.516H270.665L270.595 91.552C270.553 91.944 270.455 92.084 270.189 92.084H269.307V93.358H270.399V96.536C270.399 98.062 271.141 99.084 273.031 99.084ZM278.561 99.112C280.773 99.112 282.187 97.754 282.187 95.556C282.187 93.344 280.773 91.972 278.561 91.972C276.363 91.972 274.949 93.344 274.949 95.556C274.949 97.754 276.363 99.112 278.561 99.112ZM278.561 97.824C277.287 97.824 276.517 96.956 276.517 95.556C276.517 94.142 277.287 93.26 278.561 93.26C279.835 93.26 280.619 94.142 280.619 95.556C280.619 96.956 279.835 97.824 278.561 97.824ZM286.303 99.112C288.515 99.112 289.691 98.286 289.691 96.886C289.691 96.326 289.425 95.794 288.963 95.542C288.473 95.262 287.913 95.164 286.933 95.066C286.093 94.982 285.435 94.912 285.099 94.8C284.693 94.66 284.623 94.38 284.623 94.086C284.623 93.498 285.239 93.106 286.331 93.106C287.479 93.106 287.969 93.54 287.983 94.436H289.397C289.397 92.868 288.445 91.972 286.289 91.972C284.413 91.972 283.069 92.812 283.069 94.198C283.069 94.73 283.293 95.234 283.671 95.514C284.091 95.822 284.819 95.962 285.897 96.06C286.667 96.13 287.325 96.2 287.661 96.326C288.025 96.452 288.123 96.69 288.123 96.956C288.123 97.586 287.563 97.978 286.289 97.978C284.945 97.978 284.483 97.488 284.483 96.69H283.069C283.069 98.048 283.923 99.112 286.303 99.112ZM296.377 99.112C297.903 99.112 298.729 98.496 298.953 97.474H298.967C298.967 98.034 298.925 98.664 298.897 99H300.465V94.786C300.465 92.966 299.233 91.972 297.133 91.972C295.159 91.972 293.955 92.798 293.955 94.184C293.955 94.31 293.969 94.492 293.983 94.59H295.425C295.411 94.478 295.411 94.366 295.411 94.324C295.411 93.554 296.013 93.148 297.077 93.148C298.295 93.148 298.897 93.61 298.897 94.646V95.136H296.335C294.487 95.136 293.745 95.962 293.745 97.012C293.745 98.356 294.795 99.112 296.377 99.112ZM296.699 97.936C295.747 97.936 295.187 97.572 295.187 96.942C295.187 96.396 295.579 96.088 296.475 96.088H298.897V96.214C298.897 97.278 298.057 97.936 296.699 97.936ZM2.784 117H4.352V113.626C4.352 112.142 5.066 111.316 6.13 111.316C7.068 111.316 7.586 111.932 7.586 112.912V117H9.154V113.57C9.154 112.128 9.854 111.316 10.946 111.316C11.884 111.316 12.374 111.932 12.374 112.94V117H13.942V112.59C13.942 110.966 13.06 109.972 11.52 109.972C10.204 109.972 9.364 110.672 9.112 111.792H9.098C8.93 110.672 8.062 109.972 6.718 109.972C5.458 109.972 4.618 110.714 4.31 111.904H4.296L4.352 110.084H2.784V117ZM18.1212 117.112C19.6612 117.112 20.6272 116.384 20.9212 115.068H20.9352C20.9352 115.796 20.9072 116.538 20.8652 117H22.4332V110.084H20.8652V113.15C20.8652 114.83 19.9832 115.768 18.5832 115.768C17.4492 115.768 16.7772 115.152 16.7772 114.06V110.084H15.2092V114.284C15.2092 116.118 16.3152 117.112 18.1212 117.112ZM26.8888 117.112C28.3028 117.112 29.1708 116.412 29.4368 115.32H29.4648C29.4368 115.992 29.4228 116.594 29.3948 117H30.9628V107.298H29.3948V111.302H29.3808C29.1008 110.49 28.2888 109.972 26.9868 109.972C24.9288 109.972 23.6268 111.414 23.6268 113.5C23.6268 115.656 24.8868 117.112 26.8888 117.112ZM27.2108 115.824C25.9788 115.824 25.1808 114.872 25.1808 113.5C25.1808 112.184 25.9928 111.26 27.2388 111.26C28.5408 111.26 29.3948 112.044 29.3948 113.276V113.612C29.3948 114.956 28.5268 115.824 27.2108 115.824ZM34.8441 117.112C36.3701 117.112 37.1961 116.496 37.4201 115.474H37.4341C37.4341 116.034 37.3921 116.664 37.3641 117H38.9321V112.786C38.9321 110.966 37.7001 109.972 35.6001 109.972C33.6261 109.972 32.4221 110.798 32.4221 112.184C32.4221 112.31 32.4361 112.492 32.4501 112.59H33.8921C33.8781 112.478 33.8781 112.366 33.8781 112.324C33.8781 111.554 34.4801 111.148 35.5441 111.148C36.7621 111.148 37.3641 111.61 37.3641 112.646V113.136H34.8021C32.9541 113.136 32.2121 113.962 32.2121 115.012C32.2121 116.356 33.2621 117.112 34.8441 117.112ZM35.1661 115.936C34.2141 115.936 33.6541 115.572 33.6541 114.942C33.6541 114.396 34.0461 114.088 34.9421 114.088H37.3641V114.214C37.3641 115.278 36.5241 115.936 35.1661 115.936ZM40.2685 117H41.8365V113.976C41.8365 112.324 42.5785 111.316 43.7685 111.316C44.6925 111.316 45.1405 111.862 45.1405 113.024C45.1405 113.346 45.1125 113.696 45.0845 113.962H46.5125C46.5405 113.668 46.5825 113.108 46.5825 112.674C46.5825 110.952 45.7565 109.972 44.2585 109.972C42.8305 109.972 42.1165 110.826 41.7945 112.072H41.7805L41.8365 110.084H40.2685V117ZM54.2233 117.112C56.4353 117.112 57.8493 115.754 57.8493 113.556C57.8493 111.344 56.4353 109.972 54.2233 109.972C52.0253 109.972 50.6113 111.344 50.6113 113.556C50.6113 115.754 52.0253 117.112 54.2233 117.112ZM54.2233 115.824C52.9493 115.824 52.1793 114.956 52.1793 113.556C52.1793 112.142 52.9493 111.26 54.2233 111.26C55.4973 111.26 56.2813 112.142 56.2813 113.556C56.2813 114.956 55.4973 115.824 54.2233 115.824ZM62.0851 117H63.6531V113.976C63.6531 112.324 64.3951 111.316 65.5851 111.316C66.5091 111.316 66.9571 111.862 66.9571 113.024C66.9571 113.346 66.9291 113.696 66.9011 113.962H68.3291C68.3571 113.668 68.3991 113.108 68.3991 112.674C68.3991 110.952 67.5731 109.972 66.0751 109.972C64.6471 109.972 63.9331 110.826 63.6111 112.072H63.5971L63.6531 110.084H62.0851V117ZM76.1283 113.29C76.1283 111.134 74.8823 109.972 72.9223 109.972C70.7383 109.972 69.3663 111.358 69.3663 113.598C69.3663 115.768 70.7383 117.112 72.9223 117.112C74.8123 117.112 76.0723 116.174 76.1283 114.634H74.7143C74.6443 115.446 73.9583 115.894 72.9503 115.894C71.7743 115.894 71.0323 115.18 70.9483 113.85H76.1283V113.29ZM74.7143 112.898H70.9903C71.1723 111.75 71.8583 111.19 72.9363 111.19C74.0703 111.19 74.7143 111.764 74.7143 112.8V112.898ZM77.3694 117H78.9374V107.298H77.3694V117ZM82.8386 117.112C84.3646 117.112 85.1906 116.496 85.4146 115.474H85.4286C85.4286 116.034 85.3866 116.664 85.3586 117H86.9266V112.786C86.9266 110.966 85.6946 109.972 83.5946 109.972C81.6206 109.972 80.4166 110.798 80.4166 112.184C80.4166 112.31 80.4306 112.492 80.4446 112.59H81.8866C81.8726 112.478 81.8726 112.366 81.8726 112.324C81.8726 111.554 82.4746 111.148 83.5386 111.148C84.7566 111.148 85.3586 111.61 85.3586 112.646V113.136H82.7966C80.9486 113.136 80.2066 113.962 80.2066 115.012C80.2066 116.356 81.2566 117.112 82.8386 117.112ZM83.1606 115.936C82.2086 115.936 81.6486 115.572 81.6486 114.942C81.6486 114.396 82.0406 114.088 82.9366 114.088H85.3586V114.214C85.3586 115.278 84.5186 115.936 83.1606 115.936ZM91.441 117.112C93.415 117.112 94.731 116.034 94.731 114.186H93.317C93.303 115.208 92.617 115.824 91.511 115.824C90.349 115.824 89.621 114.956 89.621 113.542C89.621 112.114 90.363 111.26 91.567 111.26C92.617 111.26 93.289 111.89 93.303 112.926H94.717C94.717 111.092 93.457 109.972 91.525 109.972C89.439 109.972 88.053 111.33 88.053 113.542C88.053 115.754 89.411 117.112 91.441 117.112ZM96.0013 109.272H97.6113V107.732H96.0013V109.272ZM96.0153 117H97.5833V110.084H96.0153V117ZM102.464 117.112C104.676 117.112 106.09 115.754 106.09 113.556C106.09 111.344 104.676 109.972 102.464 109.972C100.266 109.972 98.8519 111.344 98.8519 113.556C98.8519 115.754 100.266 117.112 102.464 117.112ZM102.464 115.824C101.19 115.824 100.42 114.956 100.42 113.556C100.42 112.142 101.19 111.26 102.464 111.26C103.738 111.26 104.522 112.142 104.522 113.556C104.522 114.956 103.738 115.824 102.464 115.824ZM107.264 117H108.832V113.654C108.832 112.142 109.7 111.316 111.072 111.316C112.318 111.316 112.934 111.932 112.934 113.024V117H114.502V112.674C114.502 110.966 113.424 109.972 111.674 109.972C110.064 109.972 109.168 110.686 108.79 111.932H108.776L108.832 110.084H107.264V117ZM118.271 117.112C119.797 117.112 120.623 116.496 120.847 115.474H120.861C120.861 116.034 120.819 116.664 120.791 117H122.359V112.786C122.359 110.966 121.127 109.972 119.027 109.972C117.053 109.972 115.849 110.798 115.849 112.184C115.849 112.31 115.863 112.492 115.877 112.59H117.319C117.305 112.478 117.305 112.366 117.305 112.324C117.305 111.554 117.907 111.148 118.971 111.148C120.189 111.148 120.791 111.61 120.791 112.646V113.136H118.229C116.381 113.136 115.639 113.962 115.639 115.012C115.639 116.356 116.689 117.112 118.271 117.112ZM118.593 115.936C117.641 115.936 117.081 115.572 117.081 114.942C117.081 114.396 117.473 114.088 118.369 114.088H120.791V114.214C120.791 115.278 119.951 115.936 118.593 115.936ZM123.696 117H125.264V113.626C125.264 112.142 125.978 111.316 127.042 111.316C127.98 111.316 128.498 111.932 128.498 112.912V117H130.066V113.57C130.066 112.128 130.766 111.316 131.858 111.316C132.796 111.316 133.286 111.932 133.286 112.94V117H134.854V112.59C134.854 110.966 133.972 109.972 132.432 109.972C131.116 109.972 130.276 110.672 130.024 111.792H130.01C129.842 110.672 128.974 109.972 127.63 109.972C126.37 109.972 125.53 110.714 125.222 111.904H125.208L125.264 110.084H123.696V117ZM142.743 113.29C142.743 111.134 141.497 109.972 139.537 109.972C137.353 109.972 135.981 111.358 135.981 113.598C135.981 115.768 137.353 117.112 139.537 117.112C141.427 117.112 142.687 116.174 142.743 114.634H141.329C141.259 115.446 140.573 115.894 139.565 115.894C138.389 115.894 137.647 115.18 137.563 113.85H142.743V113.29ZM141.329 112.898H137.605C137.787 111.75 138.473 111.19 139.551 111.19C140.685 111.19 141.329 111.764 141.329 112.8V112.898ZM143.942 117H145.51V113.654C145.51 112.142 146.378 111.316 147.75 111.316C148.996 111.316 149.612 111.932 149.612 113.024V117H151.18V112.674C151.18 110.966 150.102 109.972 148.352 109.972C146.742 109.972 145.846 110.686 145.468 111.932H145.454L145.51 110.084H143.942V117ZM155.593 117.084C156.167 117.084 156.643 116.986 156.853 116.916V115.67C156.657 115.726 156.209 115.796 155.817 115.796C154.865 115.796 154.529 115.348 154.529 114.452V111.358H156.909V110.084H154.529V108.516H153.227L153.157 109.552C153.115 109.944 153.017 110.084 152.751 110.084H151.869V111.358H152.961V114.536C152.961 116.062 153.703 117.084 155.593 117.084ZM161.123 117.112C163.335 117.112 164.749 115.754 164.749 113.556C164.749 111.344 163.335 109.972 161.123 109.972C158.925 109.972 157.511 111.344 157.511 113.556C157.511 115.754 158.925 117.112 161.123 117.112ZM161.123 115.824C159.849 115.824 159.079 114.956 159.079 113.556C159.079 112.142 159.849 111.26 161.123 111.26C162.397 111.26 163.181 112.142 163.181 113.556C163.181 114.956 162.397 115.824 161.123 115.824ZM173.213 117.112C175.159 117.112 176.377 115.698 176.377 113.416C176.377 111.288 175.187 109.972 173.199 109.972C171.827 109.972 170.875 110.616 170.581 111.624H170.567C170.581 111.288 170.595 110.728 170.595 110.434V107.298H169.027V117H170.595C170.567 116.65 170.539 116.02 170.539 115.53H170.553C170.833 116.496 171.785 117.112 173.213 117.112ZM172.807 115.824C171.449 115.824 170.595 115.082 170.595 113.878V113.528C170.595 112.128 171.463 111.26 172.835 111.26C174.067 111.26 174.809 112.1 174.809 113.458C174.809 114.928 174.039 115.824 172.807 115.824ZM179.651 117.112C181.177 117.112 182.003 116.496 182.227 115.474H182.241C182.241 116.034 182.199 116.664 182.171 117H183.739V112.786C183.739 110.966 182.507 109.972 180.407 109.972C178.433 109.972 177.229 110.798 177.229 112.184C177.229 112.31 177.243 112.492 177.257 112.59H178.699C178.685 112.478 178.685 112.366 178.685 112.324C178.685 111.554 179.287 111.148 180.351 111.148C181.569 111.148 182.171 111.61 182.171 112.646V113.136H179.609C177.761 113.136 177.019 113.962 177.019 115.012C177.019 116.356 178.069 117.112 179.651 117.112ZM179.973 115.936C179.021 115.936 178.461 115.572 178.461 114.942C178.461 114.396 178.853 114.088 179.749 114.088H182.171V114.214C182.171 115.278 181.331 115.936 179.973 115.936ZM185.075 117H186.643V113.654C186.643 112.142 187.511 111.316 188.883 111.316C190.129 111.316 190.745 111.932 190.745 113.024V117H192.313V112.674C192.313 110.966 191.235 109.972 189.485 109.972C187.875 109.972 186.979 110.686 186.601 111.932H186.587L186.643 110.084H185.075V117ZM196.824 117.112C198.798 117.112 200.114 116.034 200.114 114.186H198.7C198.686 115.208 198 115.824 196.894 115.824C195.732 115.824 195.004 114.956 195.004 113.542C195.004 112.114 195.746 111.26 196.95 111.26C198 111.26 198.672 111.89 198.686 112.926H200.1C200.1 111.092 198.84 109.972 196.908 109.972C194.822 109.972 193.436 111.33 193.436 113.542C193.436 115.754 194.794 117.112 196.824 117.112ZM203.423 109.37H204.655L206.153 107.41H204.515L203.423 109.37ZM203.423 117.112C204.949 117.112 205.775 116.496 205.999 115.474H206.013C206.013 116.034 205.971 116.664 205.943 117H207.511V112.786C207.511 110.966 206.279 109.972 204.179 109.972C202.205 109.972 201.001 110.798 201.001 112.184C201.001 112.31 201.015 112.492 201.029 112.59H202.471C202.457 112.478 202.457 112.366 202.457 112.324C202.457 111.554 203.059 111.148 204.123 111.148C205.341 111.148 205.943 111.61 205.943 112.646V113.136H203.381C201.533 113.136 200.791 113.962 200.791 115.012C200.791 116.356 201.841 117.112 203.423 117.112ZM203.745 115.936C202.793 115.936 202.233 115.572 202.233 114.942C202.233 114.396 202.625 114.088 203.521 114.088H205.943V114.214C205.943 115.278 205.103 115.936 203.745 115.936ZM208.848 117H210.416V113.976C210.416 112.324 211.158 111.316 212.348 111.316C213.272 111.316 213.72 111.862 213.72 113.024C213.72 113.346 213.692 113.696 213.664 113.962H215.092C215.12 113.668 215.162 113.108 215.162 112.674C215.162 110.952 214.336 109.972 212.838 109.972C211.41 109.972 210.696 110.826 210.374 112.072H210.36L210.416 110.084H208.848V117ZM216.381 109.272H217.991V107.732H216.381V109.272ZM216.395 117H217.963V110.084H216.395V117ZM222.843 117.112C225.055 117.112 226.469 115.754 226.469 113.556C226.469 111.344 225.055 109.972 222.843 109.972C220.645 109.972 219.231 111.344 219.231 113.556C219.231 115.754 220.645 117.112 222.843 117.112ZM222.843 115.824C221.569 115.824 220.799 114.956 220.799 113.556C220.799 112.142 221.569 111.26 222.843 111.26C224.117 111.26 224.901 112.142 224.901 113.556C224.901 114.956 224.117 115.824 222.843 115.824ZM230.747 119.772H232.315V117.056C232.315 116.776 232.287 116.062 232.273 115.6H232.287C232.581 116.496 233.477 117.112 234.849 117.112C236.837 117.112 238.097 115.656 238.097 113.416C238.097 111.33 236.851 109.972 234.877 109.972C233.505 109.972 232.581 110.644 232.301 111.694H232.287L232.315 110.084H230.747V119.772ZM234.541 115.824C233.197 115.824 232.315 115.068 232.315 113.892V113.528C232.343 112.142 233.211 111.26 234.513 111.26C235.759 111.26 236.529 112.128 236.529 113.458C236.529 114.9 235.745 115.824 234.541 115.824ZM241.371 117.112C242.897 117.112 243.723 116.496 243.947 115.474H243.961C243.961 116.034 243.919 116.664 243.891 117H245.459V112.786C245.459 110.966 244.227 109.972 242.127 109.972C240.153 109.972 238.949 110.798 238.949 112.184C238.949 112.31 238.963 112.492 238.977 112.59H240.419C240.405 112.478 240.405 112.366 240.405 112.324C240.405 111.554 241.007 111.148 242.071 111.148C243.289 111.148 243.891 111.61 243.891 112.646V113.136H241.329C239.481 113.136 238.739 113.962 238.739 115.012C238.739 116.356 239.789 117.112 241.371 117.112ZM241.693 115.936C240.741 115.936 240.181 115.572 240.181 114.942C240.181 114.396 240.573 114.088 241.469 114.088H243.891V114.214C243.891 115.278 243.051 115.936 241.693 115.936ZM246.795 117H248.363V113.976C248.363 112.324 249.105 111.316 250.295 111.316C251.219 111.316 251.667 111.862 251.667 113.024C251.667 113.346 251.639 113.696 251.611 113.962H253.039C253.067 113.668 253.109 113.108 253.109 112.674C253.109 110.952 252.283 109.972 250.785 109.972C249.357 109.972 248.643 110.826 248.321 112.072H248.307L248.363 110.084H246.795V117ZM256.722 117.112C258.248 117.112 259.074 116.496 259.298 115.474H259.312C259.312 116.034 259.27 116.664 259.242 117H260.81V112.786C260.81 110.966 259.578 109.972 257.478 109.972C255.504 109.972 254.3 110.798 254.3 112.184C254.3 112.31 254.314 112.492 254.328 112.59H255.77C255.756 112.478 255.756 112.366 255.756 112.324C255.756 111.554 256.358 111.148 257.422 111.148C258.64 111.148 259.242 111.61 259.242 112.646V113.136H256.68C254.832 113.136 254.09 113.962 254.09 115.012C254.09 116.356 255.14 117.112 256.722 117.112ZM257.044 115.936C256.092 115.936 255.532 115.572 255.532 114.942C255.532 114.396 255.924 114.088 256.82 114.088H259.242V114.214C259.242 115.278 258.402 115.936 257.044 115.936ZM268.61 117.112C270.822 117.112 272.236 115.754 272.236 113.556C272.236 111.344 270.822 109.972 268.61 109.972C266.412 109.972 264.998 111.344 264.998 113.556C264.998 115.754 266.412 117.112 268.61 117.112ZM268.61 115.824C267.336 115.824 266.566 114.956 266.566 113.556C266.566 112.142 267.336 111.26 268.61 111.26C269.884 111.26 270.668 112.142 270.668 113.556C270.668 114.956 269.884 115.824 268.61 115.824ZM276.352 117.112C278.564 117.112 279.74 116.286 279.74 114.886C279.74 114.326 279.474 113.794 279.012 113.542C278.522 113.262 277.962 113.164 276.982 113.066C276.142 112.982 275.484 112.912 275.148 112.8C274.742 112.66 274.672 112.38 274.672 112.086C274.672 111.498 275.288 111.106 276.38 111.106C277.528 111.106 278.018 111.54 278.032 112.436H279.446C279.446 110.868 278.494 109.972 276.338 109.972C274.462 109.972 273.118 110.812 273.118 112.198C273.118 112.73 273.342 113.234 273.72 113.514C274.14 113.822 274.868 113.962 275.946 114.06C276.716 114.13 277.374 114.2 277.71 114.326C278.074 114.452 278.172 114.69 278.172 114.956C278.172 115.586 277.612 115.978 276.338 115.978C274.994 115.978 274.532 115.488 274.532 114.69H273.118C273.118 116.048 273.972 117.112 276.352 117.112ZM2.812 127.272H4.436V125.732H2.812V127.272ZM1.972 137.926C3.624 137.926 4.408 136.82 4.408 135.196V128.084H2.84V135.14C2.84 136.078 2.462 136.624 1.58 136.624C1.258 136.624 0.922 136.582 0.656 136.526V137.772C0.852 137.828 1.342 137.926 1.972 137.926ZM9.28858 135.112C11.5006 135.112 12.9146 133.754 12.9146 131.556C12.9146 129.344 11.5006 127.972 9.28858 127.972C7.09058 127.972 5.67658 129.344 5.67658 131.556C5.67658 133.754 7.09058 135.112 9.28858 135.112ZM9.28858 133.824C8.01458 133.824 7.24458 132.956 7.24458 131.556C7.24458 130.142 8.01458 129.26 9.28858 129.26C10.5626 129.26 11.3466 130.142 11.3466 131.556C11.3466 132.956 10.5626 133.824 9.28858 133.824ZM16.1986 135H18.0606L21.0566 128.084H19.4186L17.2206 133.53H17.1926L15.0226 128.084H13.1886L16.1986 135ZM28.3097 131.29C28.3097 129.134 27.0637 127.972 25.1037 127.972C22.9197 127.972 21.5477 129.358 21.5477 131.598C21.5477 133.768 22.9197 135.112 25.1037 135.112C26.9937 135.112 28.2537 134.174 28.3097 132.634H26.8957C26.8257 133.446 26.1397 133.894 25.1317 133.894C23.9557 133.894 23.2137 133.18 23.1297 131.85H28.3097V131.29ZM26.8957 130.898H23.1717C23.3537 129.75 24.0397 129.19 25.1177 129.19C26.2517 129.19 26.8957 129.764 26.8957 130.8V130.898ZM29.5088 135H31.0768V131.654C31.0768 130.142 31.9448 129.316 33.3168 129.316C34.5628 129.316 35.1788 129.932 35.1788 131.024V135H36.7468V130.674C36.7468 128.966 35.6688 127.972 33.9188 127.972C32.3088 127.972 31.4128 128.686 31.0348 129.932H31.0208L31.0768 128.084H29.5088V135ZM41.1041 135.112C43.3161 135.112 44.4921 134.286 44.4921 132.886C44.4921 132.326 44.2261 131.794 43.7641 131.542C43.2741 131.262 42.7141 131.164 41.7341 131.066C40.8941 130.982 40.2361 130.912 39.9001 130.8C39.4941 130.66 39.4241 130.38 39.4241 130.086C39.4241 129.498 40.0401 129.106 41.1321 129.106C42.2801 129.106 42.7701 129.54 42.7841 130.436H44.1981C44.1981 128.868 43.2461 127.972 41.0901 127.972C39.2141 127.972 37.8701 128.812 37.8701 130.198C37.8701 130.73 38.0941 131.234 38.4721 131.514C38.8921 131.822 39.6201 131.962 40.6981 132.06C41.4681 132.13 42.1261 132.2 42.4621 132.326C42.8261 132.452 42.9241 132.69 42.9241 132.956C42.9241 133.586 42.3641 133.978 41.0901 133.978C39.7461 133.978 39.2841 133.488 39.2841 132.69H37.8701C37.8701 134.048 38.7241 135.112 41.1041 135.112ZM48.7423 135H50.3103V131.654C50.3103 130.142 51.1783 129.316 52.5503 129.316C53.7963 129.316 54.4123 129.932 54.4123 131.024V135H55.9803V130.674C55.9803 128.966 54.9023 127.972 53.1523 127.972C51.5423 127.972 50.6463 128.686 50.2683 129.932H50.2543L50.3103 128.084H48.7423V135ZM60.7156 135.112C62.9276 135.112 64.3416 133.754 64.3416 131.556C64.3416 129.344 62.9276 127.972 60.7156 127.972C58.5176 127.972 57.1036 129.344 57.1036 131.556C57.1036 133.754 58.5176 135.112 60.7156 135.112ZM60.7156 133.824C59.4416 133.824 58.6716 132.956 58.6716 131.556C58.6716 130.142 59.4416 129.26 60.7156 129.26C61.9896 129.26 62.7736 130.142 62.7736 131.556C62.7736 132.956 61.9896 133.824 60.7156 133.824ZM68.6894 135H72.9034C75.1854 135 76.2074 133.978 76.2074 132.326C76.2074 131.136 75.5214 130.352 74.3734 130.184V130.17C75.3534 129.988 75.8574 129.246 75.8574 128.196C75.8574 126.712 74.7374 125.788 72.5814 125.788H68.6894V135ZM70.3694 129.736V127.104H72.5674C73.8274 127.104 74.3594 127.622 74.3594 128.448C74.3594 129.26 73.8274 129.736 72.7354 129.736H70.3694ZM70.3694 133.684V130.828H72.8194C73.9674 130.828 74.6114 131.36 74.6114 132.158C74.6114 133.096 74.1354 133.684 72.8754 133.684H70.3694ZM77.3948 135H78.9628V131.976C78.9628 130.324 79.7048 129.316 80.8948 129.316C81.8188 129.316 82.2668 129.862 82.2668 131.024C82.2668 131.346 82.2388 131.696 82.2108 131.962H83.6388C83.6668 131.668 83.7088 131.108 83.7088 130.674C83.7088 128.952 82.8828 127.972 81.3848 127.972C79.9568 127.972 79.2428 128.826 78.9208 130.072H78.9068L78.9628 128.084H77.3948V135ZM87.322 135.112C88.848 135.112 89.674 134.496 89.898 133.474H89.912C89.912 134.034 89.87 134.664 89.842 135H91.41V130.786C91.41 128.966 90.178 127.972 88.078 127.972C86.104 127.972 84.9 128.798 84.9 130.184C84.9 130.31 84.914 130.492 84.928 130.59H86.37C86.356 130.478 86.356 130.366 86.356 130.324C86.356 129.554 86.958 129.148 88.022 129.148C89.24 129.148 89.842 129.61 89.842 130.646V131.136H87.28C85.432 131.136 84.69 131.962 84.69 133.012C84.69 134.356 85.74 135.112 87.322 135.112ZM87.644 133.936C86.692 133.936 86.132 133.572 86.132 132.942C86.132 132.396 86.524 132.088 87.42 132.088H89.842V132.214C89.842 133.278 89.002 133.936 87.644 133.936ZM95.7704 135.112C97.9824 135.112 99.1584 134.286 99.1584 132.886C99.1584 132.326 98.8924 131.794 98.4304 131.542C97.9404 131.262 97.3804 131.164 96.4004 131.066C95.5604 130.982 94.9024 130.912 94.5664 130.8C94.1604 130.66 94.0904 130.38 94.0904 130.086C94.0904 129.498 94.7064 129.106 95.7984 129.106C96.9464 129.106 97.4364 129.54 97.4504 130.436H98.8644C98.8644 128.868 97.9124 127.972 95.7564 127.972C93.8804 127.972 92.5364 128.812 92.5364 130.198C92.5364 130.73 92.7604 131.234 93.1384 131.514C93.5584 131.822 94.2864 131.962 95.3644 132.06C96.1344 132.13 96.7924 132.2 97.1284 132.326C97.4924 132.452 97.5904 132.69 97.5904 132.956C97.5904 133.586 97.0304 133.978 95.7564 133.978C94.4124 133.978 93.9504 133.488 93.9504 132.69H92.5364C92.5364 134.048 93.3904 135.112 95.7704 135.112ZM100.389 127.272H101.999V125.732H100.389V127.272ZM100.403 135H101.971V128.084H100.403V135ZM103.492 135H105.06V125.298H103.492V135ZM106.525 136.932C107.743 136.834 108.359 136.148 108.359 134.496V133.18H106.777V135H107.435V135.042C107.435 135.728 107.169 136.064 106.525 136.12V136.932ZM116.277 135.112C118.251 135.112 119.567 134.034 119.567 132.186H118.153C118.139 133.208 117.453 133.824 116.347 133.824C115.185 133.824 114.457 132.956 114.457 131.542C114.457 130.114 115.199 129.26 116.403 129.26C117.453 129.26 118.125 129.89 118.139 130.926H119.553C119.553 129.092 118.293 127.972 116.361 127.972C114.275 127.972 112.889 129.33 112.889 131.542C112.889 133.754 114.247 135.112 116.277 135.112ZM124.197 135.112C126.409 135.112 127.823 133.754 127.823 131.556C127.823 129.344 126.409 127.972 124.197 127.972C121.999 127.972 120.585 129.344 120.585 131.556C120.585 133.754 121.999 135.112 124.197 135.112ZM124.197 133.824C122.923 133.824 122.153 132.956 122.153 131.556C122.153 130.142 122.923 129.26 124.197 129.26C125.471 129.26 126.255 130.142 126.255 131.556C126.255 132.956 125.471 133.824 124.197 133.824ZM128.998 135H130.566V131.626C130.566 130.142 131.28 129.316 132.344 129.316C133.282 129.316 133.8 129.932 133.8 130.912V135H135.368V131.57C135.368 130.128 136.068 129.316 137.16 129.316C138.098 129.316 138.588 129.932 138.588 130.94V135H140.156V130.59C140.156 128.966 139.274 127.972 137.734 127.972C136.418 127.972 135.578 128.672 135.326 129.792H135.312C135.144 128.672 134.276 127.972 132.932 127.972C131.672 127.972 130.832 128.714 130.524 129.904H130.51L130.566 128.084H128.998V135ZM141.535 137.772H143.103V135.056C143.103 134.776 143.075 134.062 143.061 133.6H143.075C143.369 134.496 144.265 135.112 145.637 135.112C147.625 135.112 148.885 133.656 148.885 131.416C148.885 129.33 147.639 127.972 145.665 127.972C144.293 127.972 143.369 128.644 143.089 129.694H143.075L143.103 128.084H141.535V137.772ZM145.329 133.824C143.985 133.824 143.103 133.068 143.103 131.892V131.528C143.131 130.142 143.999 129.26 145.301 129.26C146.547 129.26 147.317 130.128 147.317 131.458C147.317 132.9 146.533 133.824 145.329 133.824ZM152.158 135.112C153.684 135.112 154.51 134.496 154.734 133.474H154.748C154.748 134.034 154.706 134.664 154.678 135H156.246V130.786C156.246 128.966 155.014 127.972 152.914 127.972C150.94 127.972 149.736 128.798 149.736 130.184C149.736 130.31 149.75 130.492 149.764 130.59H151.206C151.192 130.478 151.192 130.366 151.192 130.324C151.192 129.554 151.794 129.148 152.858 129.148C154.076 129.148 154.678 129.61 154.678 130.646V131.136H152.116C150.268 131.136 149.526 131.962 149.526 133.012C149.526 134.356 150.576 135.112 152.158 135.112ZM152.48 133.936C151.528 133.936 150.968 133.572 150.968 132.942C150.968 132.396 151.36 132.088 152.256 132.088H154.678V132.214C154.678 133.278 153.838 133.936 152.48 133.936ZM157.583 135H159.151V131.976C159.151 130.324 159.893 129.316 161.083 129.316C162.007 129.316 162.455 129.862 162.455 131.024C162.455 131.346 162.427 131.696 162.399 131.962H163.827C163.855 131.668 163.897 131.108 163.897 130.674C163.897 128.952 163.071 127.972 161.573 127.972C160.145 127.972 159.431 128.826 159.109 130.072H159.095L159.151 128.084H157.583V135ZM168.154 135.084C168.728 135.084 169.204 134.986 169.414 134.916V133.67C169.218 133.726 168.77 133.796 168.378 133.796C167.426 133.796 167.09 133.348 167.09 132.452V129.358H169.47V128.084H167.09V126.516H165.788L165.718 127.552C165.676 127.944 165.578 128.084 165.312 128.084H164.43V129.358H165.522V132.536C165.522 134.062 166.264 135.084 168.154 135.084ZM170.597 127.272H172.207V125.732H170.597V127.272ZM170.611 135H172.179V128.084H170.611V135ZM173.7 135H175.268V125.298H173.7V135ZM176.775 135H178.343V131.724C178.343 130.17 179.211 129.316 180.597 129.316C181.843 129.316 182.459 129.932 182.459 131.024V135H184.027V130.674C184.027 128.966 182.949 127.972 181.199 127.972C179.575 127.972 178.679 128.686 178.315 129.946H178.301C178.315 129.568 178.343 128.77 178.343 128.434V125.298H176.775V135ZM187.795 135.112C189.321 135.112 190.147 134.496 190.371 133.474H190.385C190.385 134.034 190.343 134.664 190.315 135H191.883V130.786C191.883 128.966 190.651 127.972 188.551 127.972C186.577 127.972 185.373 128.798 185.373 130.184C185.373 130.31 185.387 130.492 185.401 130.59H186.843C186.829 130.478 186.829 130.366 186.829 130.324C186.829 129.554 187.431 129.148 188.495 129.148C189.713 129.148 190.315 129.61 190.315 130.646V131.136H187.753C185.905 131.136 185.163 131.962 185.163 133.012C185.163 134.356 186.213 135.112 187.795 135.112ZM188.117 133.936C187.165 133.936 186.605 133.572 186.605 132.942C186.605 132.396 186.997 132.088 187.893 132.088H190.315V132.214C190.315 133.278 189.475 133.936 188.117 133.936ZM193.22 135H194.788V131.654C194.788 130.142 195.656 129.316 197.028 129.316C198.274 129.316 198.89 129.932 198.89 131.024V135H200.458V130.674C200.458 128.966 199.38 127.972 197.63 127.972C196.02 127.972 195.124 128.686 194.746 129.932H194.732L194.788 128.084H193.22V135ZM204.843 135.112C206.257 135.112 207.125 134.412 207.391 133.32H207.419C207.391 133.992 207.377 134.594 207.349 135H208.917V125.298H207.349V129.302H207.335C207.055 128.49 206.243 127.972 204.941 127.972C202.883 127.972 201.581 129.414 201.581 131.5C201.581 133.656 202.841 135.112 204.843 135.112ZM205.165 133.824C203.933 133.824 203.135 132.872 203.135 131.5C203.135 130.184 203.947 129.26 205.193 129.26C206.495 129.26 207.349 130.044 207.349 131.276V131.612C207.349 132.956 206.481 133.824 205.165 133.824ZM213.764 135.112C215.976 135.112 217.39 133.754 217.39 131.556C217.39 129.344 215.976 127.972 213.764 127.972C211.566 127.972 210.152 129.344 210.152 131.556C210.152 133.754 211.566 135.112 213.764 135.112ZM213.764 133.824C212.49 133.824 211.72 132.956 211.72 131.556C211.72 130.142 212.49 129.26 213.764 129.26C215.038 129.26 215.822 130.142 215.822 131.556C215.822 132.956 215.038 133.824 213.764 133.824ZM224.65 135.112C226.862 135.112 228.038 134.286 228.038 132.886C228.038 132.326 227.772 131.794 227.31 131.542C226.82 131.262 226.26 131.164 225.28 131.066C224.44 130.982 223.782 130.912 223.446 130.8C223.04 130.66 222.97 130.38 222.97 130.086C222.97 129.498 223.586 129.106 224.678 129.106C225.826 129.106 226.316 129.54 226.33 130.436H227.744C227.744 128.868 226.792 127.972 224.636 127.972C222.76 127.972 221.416 128.812 221.416 130.198C221.416 130.73 221.64 131.234 222.018 131.514C222.438 131.822 223.166 131.962 224.244 132.06C225.014 132.13 225.672 132.2 226.008 132.326C226.372 132.452 226.47 132.69 226.47 132.956C226.47 133.586 225.91 133.978 224.636 133.978C223.292 133.978 222.83 133.488 222.83 132.69H221.416C221.416 134.048 222.27 135.112 224.65 135.112ZM232.629 135.112C234.841 135.112 236.255 133.754 236.255 131.556C236.255 129.344 234.841 127.972 232.629 127.972C230.431 127.972 229.017 129.344 229.017 131.556C229.017 133.754 230.431 135.112 232.629 135.112ZM232.629 133.824C231.355 133.824 230.585 132.956 230.585 131.556C230.585 130.142 231.355 129.26 232.629 129.26C233.903 129.26 234.687 130.142 234.687 131.556C234.687 132.956 233.903 133.824 232.629 133.824ZM237.429 135H238.997V131.654C238.997 130.142 239.865 129.316 241.237 129.316C242.483 129.316 243.099 129.932 243.099 131.024V135H244.667V130.674C244.667 128.966 243.589 127.972 241.839 127.972C240.229 127.972 239.333 128.686 238.955 129.932H238.941L238.997 128.084H237.429V135ZM246.042 135H247.61V131.724C247.61 130.17 248.478 129.316 249.864 129.316C251.11 129.316 251.726 129.932 251.726 131.024V135H253.294V130.674C253.294 128.966 252.216 127.972 250.466 127.972C248.842 127.972 247.946 128.686 247.582 129.946H247.568C247.582 129.568 247.61 128.77 247.61 128.434V125.298H246.042V135ZM258.028 135.112C260.24 135.112 261.654 133.754 261.654 131.556C261.654 129.344 260.24 127.972 258.028 127.972C255.83 127.972 254.416 129.344 254.416 131.556C254.416 133.754 255.83 135.112 258.028 135.112ZM258.028 133.824C256.754 133.824 255.984 132.956 255.984 131.556C255.984 130.142 256.754 129.26 258.028 129.26C259.302 129.26 260.086 130.142 260.086 131.556C260.086 132.956 259.302 133.824 258.028 133.824ZM265.77 135.112C267.982 135.112 269.158 134.286 269.158 132.886C269.158 132.326 268.892 131.794 268.43 131.542C267.94 131.262 267.38 131.164 266.4 131.066C265.56 130.982 264.902 130.912 264.566 130.8C264.16 130.66 264.09 130.38 264.09 130.086C264.09 129.498 264.706 129.106 265.798 129.106C266.946 129.106 267.436 129.54 267.45 130.436H268.864C268.864 128.868 267.912 127.972 265.756 127.972C263.88 127.972 262.536 128.812 262.536 130.198C262.536 130.73 262.76 131.234 263.138 131.514C263.558 131.822 264.286 131.962 265.364 132.06C266.134 132.13 266.792 132.2 267.128 132.326C267.492 132.452 267.59 132.69 267.59 132.956C267.59 133.586 267.03 133.978 265.756 133.978C264.412 133.978 263.95 133.488 263.95 132.69H262.536C262.536 134.048 263.39 135.112 265.77 135.112ZM279.961 131.29C279.961 129.134 278.715 127.972 276.755 127.972C274.571 127.972 273.199 129.358 273.199 131.598C273.199 133.768 274.571 135.112 276.755 135.112C278.645 135.112 279.905 134.174 279.961 132.634H278.547C278.477 133.446 277.791 133.894 276.783 133.894C275.607 133.894 274.865 133.18 274.781 131.85H279.961V131.29ZM278.547 130.898H274.823C275.005 129.75 275.691 129.19 276.769 129.19C277.903 129.19 278.547 129.764 278.547 130.8V130.898ZM5.962 153.112C7.936 153.112 9.252 152.034 9.252 150.186H7.838C7.824 151.208 7.138 151.824 6.032 151.824C4.87 151.824 4.142 150.956 4.142 149.542C4.142 148.114 4.884 147.26 6.088 147.26C7.138 147.26 7.81 147.89 7.824 148.926H9.238C9.238 147.092 7.978 145.972 6.046 145.972C3.96 145.972 2.574 147.33 2.574 149.542C2.574 151.754 3.932 153.112 5.962 153.112ZM13.8823 153.112C16.0943 153.112 17.5083 151.754 17.5083 149.556C17.5083 147.344 16.0943 145.972 13.8823 145.972C11.6843 145.972 10.2703 147.344 10.2703 149.556C10.2703 151.754 11.6843 153.112 13.8823 153.112ZM13.8823 151.824C12.6083 151.824 11.8383 150.956 11.8383 149.556C11.8383 148.142 12.6083 147.26 13.8823 147.26C15.1563 147.26 15.9403 148.142 15.9403 149.556C15.9403 150.956 15.1563 151.824 13.8823 151.824ZM18.6825 153H20.2505V149.626C20.2505 148.142 20.9645 147.316 22.0285 147.316C22.9665 147.316 23.4845 147.932 23.4845 148.912V153H25.0525V149.57C25.0525 148.128 25.7525 147.316 26.8445 147.316C27.7825 147.316 28.2725 147.932 28.2725 148.94V153H29.8405V148.59C29.8405 146.966 28.9585 145.972 27.4185 145.972C26.1025 145.972 25.2625 146.672 25.0105 147.792H24.9965C24.8285 146.672 23.9605 145.972 22.6165 145.972C21.3565 145.972 20.5165 146.714 20.2085 147.904H20.1945L20.2505 146.084H18.6825V153ZM37.7297 149.29C37.7297 147.134 36.4837 145.972 34.5237 145.972C32.3397 145.972 30.9677 147.358 30.9677 149.598C30.9677 151.768 32.3397 153.112 34.5237 153.112C36.4137 153.112 37.6737 152.174 37.7297 150.634H36.3157C36.2457 151.446 35.5597 151.894 34.5517 151.894C33.3757 151.894 32.6337 151.18 32.5497 149.85H37.7297V149.29ZM36.3157 148.898H32.5917C32.7737 147.75 33.4597 147.19 34.5377 147.19C35.6717 147.19 36.3157 147.764 36.3157 148.8V148.898ZM38.9287 153H40.4967V149.626C40.4967 148.142 41.2107 147.316 42.2747 147.316C43.2127 147.316 43.7307 147.932 43.7307 148.912V153H45.2987V149.57C45.2987 148.128 45.9987 147.316 47.0907 147.316C48.0287 147.316 48.5187 147.932 48.5187 148.94V153H50.0867V148.59C50.0867 146.966 49.2047 145.972 47.6647 145.972C46.3487 145.972 45.5087 146.672 45.2567 147.792H45.2427C45.0747 146.672 44.2067 145.972 42.8627 145.972C41.6027 145.972 40.7627 146.714 40.4547 147.904H40.4407L40.4967 146.084H38.9287V153ZM54.8258 153.112C57.0378 153.112 58.4518 151.754 58.4518 149.556C58.4518 147.344 57.0378 145.972 54.8258 145.972C52.6278 145.972 51.2138 147.344 51.2138 149.556C51.2138 151.754 52.6278 153.112 54.8258 153.112ZM54.8258 151.824C53.5518 151.824 52.7818 150.956 52.7818 149.556C52.7818 148.142 53.5518 147.26 54.8258 147.26C56.0998 147.26 56.8838 148.142 56.8838 149.556C56.8838 150.956 56.0998 151.824 54.8258 151.824ZM59.626 153H61.194V149.976C61.194 148.324 61.936 147.316 63.126 147.316C64.05 147.316 64.498 147.862 64.498 149.024C64.498 149.346 64.47 149.696 64.442 149.962H65.87C65.898 149.668 65.94 149.108 65.94 148.674C65.94 146.952 65.114 145.972 63.616 145.972C62.188 145.972 61.474 146.826 61.152 148.072H61.138L61.194 146.084H59.626V153ZM69.5533 153.112C71.0793 153.112 71.9053 152.496 72.1293 151.474H72.1433C72.1433 152.034 72.1013 152.664 72.0733 153H73.6413V148.786C73.6413 146.966 72.4093 145.972 70.3093 145.972C68.3353 145.972 67.1313 146.798 67.1313 148.184C67.1313 148.31 67.1453 148.492 67.1593 148.59H68.6013C68.5873 148.478 68.5873 148.366 68.5873 148.324C68.5873 147.554 69.1893 147.148 70.2533 147.148C71.4713 147.148 72.0733 147.61 72.0733 148.646V149.136H69.5113C67.6633 149.136 66.9213 149.962 66.9213 151.012C66.9213 152.356 67.9713 153.112 69.5533 153.112ZM69.8753 151.936C68.9233 151.936 68.3633 151.572 68.3633 150.942C68.3633 150.396 68.7553 150.088 69.6513 150.088H72.0733V150.214C72.0733 151.278 71.2333 151.936 69.8753 151.936ZM74.9777 153H76.5457V149.654C76.5457 148.142 77.4137 147.316 78.7857 147.316C80.0317 147.316 80.6477 147.932 80.6477 149.024V153H82.2157V148.674C82.2157 146.966 81.1377 145.972 79.3877 145.972C77.7777 145.972 76.8817 146.686 76.5037 147.932H76.4897L76.5457 146.084H74.9777V153ZM86.601 153.112C88.015 153.112 88.883 152.412 89.149 151.32H89.177C89.149 151.992 89.135 152.594 89.107 153H90.675V143.298H89.107V147.302H89.093C88.813 146.49 88.001 145.972 86.699 145.972C84.641 145.972 83.339 147.414 83.339 149.5C83.339 151.656 84.599 153.112 86.601 153.112ZM86.923 151.824C85.691 151.824 84.893 150.872 84.893 149.5C84.893 148.184 85.705 147.26 86.951 147.26C88.253 147.26 89.107 148.044 89.107 149.276V149.612C89.107 150.956 88.239 151.824 86.923 151.824ZM95.5223 153.112C97.7343 153.112 99.1483 151.754 99.1483 149.556C99.1483 147.344 97.7343 145.972 95.5223 145.972C93.3243 145.972 91.9103 147.344 91.9103 149.556C91.9103 151.754 93.3243 153.112 95.5223 153.112ZM95.5223 151.824C94.2483 151.824 93.4783 150.956 93.4783 149.556C93.4783 148.142 94.2483 147.26 95.5223 147.26C96.7963 147.26 97.5803 148.142 97.5803 149.556C97.5803 150.956 96.7963 151.824 95.5223 151.824ZM106.562 153.112C108.536 153.112 109.852 152.034 109.852 150.186H108.438C108.424 151.208 107.738 151.824 106.632 151.824C105.47 151.824 104.742 150.956 104.742 149.542C104.742 148.114 105.484 147.26 106.688 147.26C107.738 147.26 108.41 147.89 108.424 148.926H109.838C109.838 147.092 108.578 145.972 106.646 145.972C104.56 145.972 103.174 147.33 103.174 149.542C103.174 151.754 104.532 153.112 106.562 153.112ZM114.482 153.112C116.694 153.112 118.108 151.754 118.108 149.556C118.108 147.344 116.694 145.972 114.482 145.972C112.284 145.972 110.87 147.344 110.87 149.556C110.87 151.754 112.284 153.112 114.482 153.112ZM114.482 151.824C113.208 151.824 112.438 150.956 112.438 149.556C112.438 148.142 113.208 147.26 114.482 147.26C115.756 147.26 116.54 148.142 116.54 149.556C116.54 150.956 115.756 151.824 114.482 151.824ZM119.283 153H120.851V149.654C120.851 148.142 121.719 147.316 123.091 147.316C124.337 147.316 124.953 147.932 124.953 149.024V153H126.521V148.674C126.521 146.966 125.443 145.972 123.693 145.972C122.083 145.972 121.187 146.686 120.809 147.932H120.795L120.851 146.084H119.283V153ZM133.412 155.772H134.98V146.084H133.426V147.4H133.412C133.132 146.518 132.306 145.972 130.962 145.972C129.03 145.972 127.644 147.358 127.644 149.486C127.644 151.698 128.904 153.112 130.892 153.112C132.222 153.112 133.146 152.44 133.398 151.404H133.412V155.772ZM131.228 151.824C130.01 151.824 129.198 150.914 129.198 149.486C129.198 148.142 130.038 147.26 131.256 147.26C132.558 147.26 133.412 148.044 133.412 149.262V149.598C133.412 150.956 132.544 151.824 131.228 151.824ZM139.267 153.112C140.807 153.112 141.773 152.384 142.067 151.068H142.081C142.081 151.796 142.053 152.538 142.011 153H143.579V146.084H142.011V149.15C142.011 150.83 141.129 151.768 139.729 151.768C138.595 151.768 137.923 151.152 137.923 150.06V146.084H136.355V150.284C136.355 152.118 137.461 153.112 139.267 153.112ZM145.025 145.272H146.635V143.732H145.025V145.272ZM145.039 153H146.607V146.084H145.039V153ZM151.109 153.112C153.321 153.112 154.497 152.286 154.497 150.886C154.497 150.326 154.231 149.794 153.769 149.542C153.279 149.262 152.719 149.164 151.739 149.066C150.899 148.982 150.241 148.912 149.905 148.8C149.499 148.66 149.429 148.38 149.429 148.086C149.429 147.498 150.045 147.106 151.137 147.106C152.285 147.106 152.775 147.54 152.789 148.436H154.203C154.203 146.868 153.251 145.972 151.095 145.972C149.219 145.972 147.875 146.812 147.875 148.198C147.875 148.73 148.099 149.234 148.477 149.514C148.897 149.822 149.625 149.962 150.703 150.06C151.473 150.13 152.131 150.2 152.467 150.326C152.831 150.452 152.929 150.69 152.929 150.956C152.929 151.586 152.369 151.978 151.095 151.978C149.751 151.978 149.289 151.488 149.289 150.69H147.875C147.875 152.048 148.729 153.112 151.109 153.112ZM158.766 153.084C159.34 153.084 159.816 152.986 160.026 152.916V151.67C159.83 151.726 159.382 151.796 158.99 151.796C158.038 151.796 157.702 151.348 157.702 150.452V147.358H160.082V146.084H157.702V144.516H156.4L156.33 145.552C156.288 145.944 156.19 146.084 155.924 146.084H155.042V147.358H156.134V150.536C156.134 152.062 156.876 153.084 158.766 153.084ZM163.412 153.112C164.938 153.112 165.764 152.496 165.988 151.474H166.002C166.002 152.034 165.96 152.664 165.932 153H167.5V148.786C167.5 146.966 166.268 145.972 164.168 145.972C162.194 145.972 160.99 146.798 160.99 148.184C160.99 148.31 161.004 148.492 161.018 148.59H162.46C162.446 148.478 162.446 148.366 162.446 148.324C162.446 147.554 163.048 147.148 164.112 147.148C165.33 147.148 165.932 147.61 165.932 148.646V149.136H163.37C161.522 149.136 160.78 149.962 160.78 151.012C160.78 152.356 161.83 153.112 163.412 153.112ZM163.734 151.936C162.782 151.936 162.222 151.572 162.222 150.942C162.222 150.396 162.614 150.088 163.51 150.088H165.932V150.214C165.932 151.278 165.092 151.936 163.734 151.936ZM171.861 153.112C174.073 153.112 175.249 152.286 175.249 150.886C175.249 150.326 174.983 149.794 174.521 149.542C174.031 149.262 173.471 149.164 172.491 149.066C171.651 148.982 170.993 148.912 170.657 148.8C170.251 148.66 170.181 148.38 170.181 148.086C170.181 147.498 170.797 147.106 171.889 147.106C173.037 147.106 173.527 147.54 173.541 148.436H174.955C174.955 146.868 174.003 145.972 171.847 145.972C169.971 145.972 168.627 146.812 168.627 148.198C168.627 148.73 168.851 149.234 169.229 149.514C169.649 149.822 170.377 149.962 171.455 150.06C172.225 150.13 172.883 150.2 173.219 150.326C173.583 150.452 173.681 150.69 173.681 150.956C173.681 151.586 173.121 151.978 171.847 151.978C170.503 151.978 170.041 151.488 170.041 150.69H168.627C168.627 152.048 169.481 153.112 171.861 153.112ZM176.703 153H178.285V151.18H176.703V153Z" fill="white"/>
<path d="M8.952 14H12.632L18.264 3.472H15.128L11.016 11.536H11L6.824 3.472H3.32L8.952 14ZM19.4697 14H22.5417V3.472H19.4697V14ZM30.6398 14.192C35.1358 14.192 36.7998 11.936 36.7998 9.888C36.7998 9.856 36.7998 9.744 36.7838 9.664H34.0478V9.76C34.0478 10.928 32.9438 11.92 30.7678 11.92C28.2238 11.92 27.2318 10.432 27.2318 8.752C27.2318 6.944 28.4478 5.552 30.7518 5.552C33.0238 5.552 33.9998 6.784 33.9998 7.76V7.824H36.7358C36.7518 7.728 36.7518 7.6 36.7518 7.568C36.7518 5.808 35.2478 3.28 30.6078 3.28C26.2238 3.28 23.9998 5.632 23.9998 8.752C23.9998 11.472 25.6478 14.192 30.6398 14.192ZM41.4927 14H44.5647V5.744H48.7087V3.472H37.3487V5.744H41.4927V14ZM55.8359 14.192C60.7479 14.192 62.7479 11.68 62.7479 8.688C62.7479 5.776 60.5879 3.28 55.8359 3.28C51.0839 3.28 48.9239 5.776 48.9239 8.688C48.9239 11.84 51.0679 14.192 55.8359 14.192ZM55.8359 11.92C53.3239 11.92 52.1559 10.592 52.1559 8.704C52.1559 6.992 53.3399 5.552 55.8359 5.552C58.3319 5.552 59.5159 6.992 59.5159 8.704C59.5159 10.512 58.4119 11.92 55.8359 11.92ZM64.113 14H67.185V10.208H70.993C72.305 10.208 72.721 10.704 72.721 11.792V14H75.793V11.792C75.793 10.688 75.617 9.52 73.953 9.136V9.104C75.409 8.672 75.857 7.648 75.857 6.592C75.857 4.704 74.641 3.472 70.737 3.472H64.113V14ZM67.185 8.416V5.744H70.609C72.385 5.744 72.945 6.288 72.945 7.04C72.945 7.856 72.401 8.416 70.881 8.416H67.185ZM82.2402 14H85.2162V5.568H85.2482L88.5922 14H91.4562L94.7842 5.568H94.8162V14H97.8882V3.472H92.9922L90.2082 10.8H90.1922L87.3442 3.472H82.2402V14ZM99.6086 14H109.721V11.728H102.681V9.6H107.961V7.808H102.681V5.744H109.561V3.472H99.6086V14ZM111.166 14H114.238V3.472H111.166V14ZM116.048 14H119.12V10.208H122.928C124.24 10.208 124.656 10.704 124.656 11.792V14H127.728V11.792C127.728 10.688 127.552 9.52 125.888 9.136V9.104C127.344 8.672 127.792 7.648 127.792 6.592C127.792 4.704 126.576 3.472 122.672 3.472H116.048V14ZM119.12 8.416V5.744H122.544C124.32 5.744 124.88 6.288 124.88 7.04C124.88 7.856 124.336 8.416 122.816 8.416H119.12ZM129.479 14H139.591V11.728H132.551V9.6H137.831V7.808H132.551V5.744H139.431V3.472H129.479V14ZM140.957 14H150.269V11.568H144.029V3.472H140.957V14ZM151.481 14H160.793V11.568H154.553V3.472H151.481V14ZM162.006 14H172.118V11.728H165.078V9.6H170.358V7.808H165.078V5.744H171.958V3.472H162.006V14ZM179.308 14.192C184.732 14.192 185.628 12.224 185.628 10.56C185.628 9.552 185.052 8.72 184.044 8.304C183.148 7.936 181.836 7.808 180.3 7.712C179.116 7.632 177.532 7.568 176.956 7.392C176.508 7.248 176.284 7.008 176.284 6.608C176.284 5.856 177.164 5.392 179.276 5.392C181.452 5.392 182.396 5.952 182.396 6.912H185.148C185.148 5.008 184.284 3.28 179.276 3.28C175.1 3.28 173.212 4.88 173.212 6.832C173.212 7.856 173.724 8.608 174.492 9.008C175.356 9.456 176.892 9.632 178.284 9.712C179.452 9.776 181.068 9.84 181.724 9.984C182.284 10.112 182.556 10.368 182.556 10.8C182.556 11.52 182.092 12.08 179.308 12.08C176.668 12.08 176.028 11.36 176.028 10.464H173.276C173.276 11.872 173.836 14.192 179.308 14.192ZM6.808 34.128C8.744 34.128 9.944 33.28 10.264 31.952H10.28C10.28 32.704 10.248 33.552 10.248 34H11.112V29.056C11.112 27.088 9.752 25.968 7.528 25.968C5.448 25.968 4.12 26.896 4.12 28.448C4.12 28.608 4.136 28.832 4.152 28.928H4.952C4.936 28.816 4.936 28.672 4.936 28.56C4.936 27.376 5.912 26.72 7.512 26.72C9.24 26.72 10.248 27.504 10.248 28.992V29.728H6.728C4.648 29.728 3.88 30.656 3.88 31.776C3.88 33.232 5.064 34.128 6.808 34.128ZM6.968 33.376C5.608 33.376 4.696 32.768 4.696 31.776C4.696 30.928 5.256 30.384 6.808 30.384H10.248V30.496C10.248 32.288 8.952 33.376 6.968 33.376ZM16.1842 34.048C16.7442 34.048 17.2402 33.936 17.4642 33.856V33.104C17.2722 33.168 16.7602 33.28 16.2482 33.28C14.9842 33.28 14.5042 32.496 14.5042 31.168V26.864H17.5122V26.096H14.5042V24.304H13.7522L13.7202 25.6C13.7042 25.984 13.6082 26.096 13.3842 26.096H12.2642V26.864H13.6402V31.216C13.6402 32.928 14.4082 34.048 16.1842 34.048ZM25.7724 29.664C25.7724 27.28 24.4444 25.968 22.2684 25.968C19.9324 25.968 18.4444 27.552 18.4444 30.112C18.4444 32.592 19.9484 34.128 22.3004 34.128C24.3004 34.128 25.6924 33.072 25.7724 31.376H24.9564C24.8444 32.608 23.7884 33.376 22.3004 33.376C20.4924 33.376 19.3244 32.16 19.3084 30.144H25.7724V29.664ZM24.9564 29.488H19.3404C19.5484 27.712 20.6524 26.72 22.3004 26.72C23.9324 26.72 24.9564 27.664 24.9564 29.408V29.488ZM27.6625 34H28.5265V29.952C28.5265 27.92 29.8385 26.752 31.7585 26.752C33.5665 26.752 34.4945 27.664 34.4945 29.264V34H35.3585V29.104C35.3585 27.12 34.1265 25.968 32.0145 25.968C30.1265 25.968 28.9425 26.848 28.5105 28.288H28.4945L28.5265 26.096H27.6625V34ZM40.9258 34.128C42.7338 34.128 43.9018 33.104 44.2058 31.696H44.2378C44.2218 32.464 44.2058 33.232 44.1738 34H45.0378V22.912H44.1738V27.856H44.1578C43.8058 26.64 42.7018 25.968 41.0058 25.968C38.6538 25.968 37.1498 27.616 37.1498 29.952C37.1498 32.512 38.6378 34.128 40.9258 34.128ZM41.0378 33.344C39.2138 33.344 38.0138 32.016 38.0138 29.952C38.0138 28.096 39.2298 26.752 41.0698 26.752C42.9418 26.752 44.1738 27.808 44.1738 29.76V30.144C44.1738 31.872 43.0218 33.344 41.0378 33.344ZM47.3221 25.024H48.2661V23.536H47.3221V25.024ZM47.3701 34H48.2341V26.096H47.3701V34ZM50.4705 34H51.3345V29.92C51.3345 27.904 52.4065 26.752 53.9265 26.752C55.3025 26.752 56.0545 27.616 56.0545 29.104V34H56.9185V29.856C56.9185 27.872 57.9905 26.752 59.5265 26.752C60.9025 26.752 61.6545 27.632 61.6545 29.2V34H62.5185V29.04C62.5185 27.088 61.4945 25.968 59.7345 25.968C58.2945 25.968 57.1745 26.784 56.8865 28.112H56.8705C56.6785 26.768 55.6865 25.968 54.1505 25.968C52.7425 25.968 51.6545 26.8 51.3185 28.24H51.3025L51.3345 26.096H50.4705V34ZM71.6296 29.664C71.6296 27.28 70.3016 25.968 68.1256 25.968C65.7896 25.968 64.3016 27.552 64.3016 30.112C64.3016 32.592 65.8056 34.128 68.1576 34.128C70.1576 34.128 71.5496 33.072 71.6296 31.376H70.8136C70.7016 32.608 69.6456 33.376 68.1576 33.376C66.3496 33.376 65.1816 32.16 65.1656 30.144H71.6296V29.664ZM70.8136 29.488H65.1976C65.4056 27.712 66.5096 26.72 68.1576 26.72C69.7896 26.72 70.8136 27.664 70.8136 29.408V29.488ZM73.5197 34H74.3837V29.952C74.3837 27.92 75.6957 26.752 77.6157 26.752C79.4237 26.752 80.3517 27.664 80.3517 29.264V34H81.2157V29.104C81.2157 27.12 79.9837 25.968 77.8717 25.968C75.9837 25.968 74.7997 26.848 74.3677 28.288H74.3517L74.3837 26.096H73.5197V34ZM86.287 34.048C86.847 34.048 87.343 33.936 87.567 33.856V33.104C87.375 33.168 86.863 33.28 86.351 33.28C85.087 33.28 84.607 32.496 84.607 31.168V26.864H87.615V26.096H84.607V24.304H83.855L83.823 25.6C83.807 25.984 83.711 26.096 83.487 26.096H82.367V26.864H83.743V31.216C83.743 32.928 84.511 34.048 86.287 34.048ZM92.4672 34.128C94.8032 34.128 96.3872 32.576 96.3872 30.064C96.3872 27.536 94.8032 25.968 92.4672 25.968C90.1152 25.968 88.5472 27.536 88.5472 30.064C88.5472 32.576 90.1152 34.128 92.4672 34.128ZM92.4672 33.344C90.6592 33.344 89.4112 32.096 89.4112 30.064C89.4112 28.016 90.6592 26.752 92.4672 26.752C94.2752 26.752 95.5232 28.016 95.5232 30.064C95.5232 32.096 94.2752 33.344 92.4672 33.344ZM107.611 36.56C109.227 36.56 110.859 36.304 111.883 35.904L111.851 35.232C110.939 35.6 109.275 35.904 107.627 35.888C104.107 35.888 102.027 34.08 102.027 30.64C102.027 26.592 104.763 23.952 108.027 23.952C111.579 23.952 113.259 25.488 113.259 28.288C113.259 30.784 112.139 32.896 111.019 32.896C110.459 32.896 110.251 32.576 110.251 32C110.251 31.6 110.331 31.104 110.443 30.448L111.227 26.288H110.091L109.819 27.264H109.803C109.483 26.608 108.811 26.16 107.723 26.16C105.515 26.16 104.075 28.656 104.075 30.896C104.075 32.448 104.907 33.68 106.523 33.68C107.979 33.68 108.747 32.784 109.115 31.456H109.147C108.891 32.832 109.371 33.68 110.683 33.68C112.491 33.68 113.979 31.504 113.979 28.288C113.979 25.216 112.059 23.28 108.043 23.28C104.315 23.28 101.307 26.208 101.307 30.64C101.307 34.56 103.787 36.56 107.611 36.56ZM106.763 32.608C105.819 32.608 105.307 31.92 105.307 30.848C105.307 29.248 106.283 27.232 107.851 27.232C108.731 27.232 109.371 27.664 109.611 28.176L109.371 29.424C109.019 31.264 108.043 32.608 106.763 32.608ZM115.678 34H116.958V24.448H116.99L123.278 34H124.862V23.472H123.582V32.208H123.55L117.838 23.472H115.678V34ZM132.063 34.16C134.159 34.16 135.327 33.248 135.647 32.048H135.663C135.631 32.816 135.583 33.568 135.535 34H136.799V28.944H131.759V29.936H135.455V30.24C135.455 31.824 134.159 33.008 132.063 33.008C129.951 33.008 128.191 31.392 128.191 28.848C128.191 26.224 129.919 24.528 132.143 24.528C134.047 24.528 135.455 25.52 135.455 27.2C135.455 27.36 135.455 27.552 135.439 27.76H136.687C136.703 27.504 136.703 27.264 136.703 27.136C136.703 24.736 134.799 23.312 132.143 23.312C129.151 23.312 126.847 25.536 126.847 28.832C126.847 32.096 129.071 34.16 132.063 34.16ZM139.166 34H140.542V32.176H139.166V34ZM147.88 34.16C150.568 34.16 152.552 32.528 152.552 30.16V29.904H151.304V30.096C151.304 31.776 149.816 32.944 147.88 32.944C145.672 32.944 143.928 31.312 143.928 28.752C143.928 26.176 145.592 24.528 147.88 24.528C149.8 24.528 151.256 25.728 151.256 27.504V27.792H152.488C152.504 27.584 152.504 27.44 152.504 27.408C152.504 24.976 150.552 23.312 147.88 23.312C144.76 23.312 142.584 25.44 142.584 28.752C142.584 32.048 144.824 34.16 147.88 34.16ZM162.183 34H163.751L159.303 23.472H157.703L153.255 34H154.663L155.703 31.44H161.159L162.183 34ZM156.103 30.448L158.439 24.704H158.471L160.759 30.448H156.103ZM168.765 34.16C172.205 34.16 173.197 32.576 173.197 30.976C173.197 30.016 172.765 29.28 172.061 28.928C171.373 28.576 170.269 28.4 169.213 28.256C168.301 28.128 167.037 27.936 166.525 27.68C166.077 27.456 165.821 27.056 165.821 26.384C165.821 25.232 167.037 24.464 168.749 24.464C170.557 24.464 171.581 25.264 171.581 27.104H172.829C172.829 24.672 171.661 23.312 168.717 23.312C166.205 23.312 164.477 24.624 164.477 26.496C164.477 27.488 164.909 28.192 165.517 28.56C166.093 28.912 167.245 29.168 168.333 29.296C169.245 29.424 170.445 29.552 171.021 29.792C171.565 30.016 171.853 30.384 171.853 31.056C171.853 32.064 171.181 33.008 168.765 33.008C166.525 33.008 165.757 31.936 165.757 30.416H164.509C164.509 32.32 165.389 34.16 168.765 34.16ZM175.169 34H176.513V29.072H182.977V34H184.321V23.472H182.977V27.952H176.513V23.472H175.169V34Z" fill="white"/>
<line x1="2" y1="49.0162" x2="297.228" y2="49.0162" stroke="white" stroke-width="0.912994"/>
<path d="M297.407 65.3246C297.407 53.8472 293.239 49.7326 281.815 49.7326C293.293 49.7326 297.407 45.5639 297.407 34.1406C297.407 45.6181 301.576 49.7326 312.999 49.7326C301.576 49.6785 297.407 53.8472 297.407 65.3246Z" fill="white"/>
</svg>
