<svg width="311" height="176" viewBox="0 0 311 176" fill="none" xmlns="http://www.w3.org/2000/svg">
<path d="M4.2 71.858C1.848 71.858 0.896 72.964 0.896 74.938V76.492H3.612V74.182H2.506V74.126C2.506 73.51 2.884 73.048 4.2 73.048V71.858ZM8.428 71.858C6.076 71.858 5.124 72.964 5.124 74.938V76.492H7.84V74.182H6.734V74.126C6.734 73.51 7.112 73.048 8.428 73.048V71.858ZM151.42 166.408C153.772 166.408 154.724 165.302 154.724 163.328V161.774H152.008V164.084H153.114V164.14C153.114 164.756 152.736 165.218 151.42 165.218V166.408ZM155.662 166.408C158.014 166.408 158.966 165.302 158.966 163.328V161.774H156.25V164.084H157.356V164.14C157.356 164.756 156.978 165.218 155.662 165.218V166.408Z" fill="#8824FF"/>
<path d="M12.0712 81H13.7512V73.174H16.6072V71.788H9.21518V73.174H12.0712V81ZM17.2325 81H18.8005V77.976C18.8005 76.324 19.5425 75.316 20.7325 75.316C21.6565 75.316 22.1045 75.862 22.1045 77.024C22.1045 77.346 22.0765 77.696 22.0485 77.962H23.4765C23.5045 77.668 23.5465 77.108 23.5465 76.674C23.5465 74.952 22.7205 73.972 21.2225 73.972C19.7945 73.972 19.0805 74.826 18.7585 76.072H18.7445L18.8005 74.084H17.2325V81ZM27.2775 81.112C28.8035 81.112 29.6295 80.496 29.8535 79.474H29.8675C29.8675 80.034 29.8255 80.664 29.7975 81H31.3655V76.786C31.3655 74.966 30.1335 73.972 28.0335 73.972C26.0595 73.972 24.8555 74.798 24.8555 76.184C24.8555 76.31 24.8695 76.492 24.8835 76.59H26.3255C26.3115 76.478 26.3115 76.366 26.3115 76.324C26.3115 75.554 26.9135 75.148 27.9775 75.148C29.1955 75.148 29.7975 75.61 29.7975 76.646V77.136H27.2355C25.3875 77.136 24.6455 77.962 24.6455 79.012C24.6455 80.356 25.6955 81.112 27.2775 81.112ZM27.5995 79.936C26.6475 79.936 26.0875 79.572 26.0875 78.942C26.0875 78.396 26.4795 78.088 27.3755 78.088H29.7975V78.214C29.7975 79.278 28.9575 79.936 27.5995 79.936ZM37.0476 81.112C38.9936 81.112 40.2116 79.698 40.2116 77.416C40.2116 75.288 39.0216 73.972 37.0336 73.972C35.6616 73.972 34.7096 74.616 34.4156 75.624H34.4016C34.4156 75.288 34.4296 74.728 34.4296 74.434V71.298H32.8616V81H34.4296C34.4016 80.65 34.3736 80.02 34.3736 79.53H34.3876C34.6676 80.496 35.6196 81.112 37.0476 81.112ZM36.6416 79.824C35.2836 79.824 34.4296 79.082 34.4296 77.878V77.528C34.4296 76.128 35.2976 75.26 36.6696 75.26C37.9016 75.26 38.6436 76.1 38.6436 77.458C38.6436 78.928 37.8736 79.824 36.6416 79.824ZM43.6029 81.112C45.1289 81.112 45.9549 80.496 46.1789 79.474H46.1929C46.1929 80.034 46.1509 80.664 46.1229 81H47.6909V76.786C47.6909 74.966 46.4589 73.972 44.3589 73.972C42.3849 73.972 41.1809 74.798 41.1809 76.184C41.1809 76.31 41.1949 76.492 41.2089 76.59H42.6509C42.6369 76.478 42.6369 76.366 42.6369 76.324C42.6369 75.554 43.2389 75.148 44.3029 75.148C45.5209 75.148 46.1229 75.61 46.1229 76.646V77.136H43.5609C41.7129 77.136 40.9709 77.962 40.9709 79.012C40.9709 80.356 42.0209 81.112 43.6029 81.112ZM43.9249 79.936C42.9729 79.936 42.4129 79.572 42.4129 78.942C42.4129 78.396 42.8049 78.088 43.7009 78.088H46.1229V78.214C46.1229 79.278 45.2829 79.936 43.9249 79.936ZM49.1871 81H50.7551V71.298H49.1871V81ZM52.3801 81H53.9481V77.724C53.9481 76.17 54.8161 75.316 56.2021 75.316C57.4481 75.316 58.0641 75.932 58.0641 77.024V81H59.6321V76.674C59.6321 74.966 58.5541 73.972 56.8041 73.972C55.1801 73.972 54.2841 74.686 53.9201 75.946H53.9061C53.9201 75.568 53.9481 74.77 53.9481 74.434V71.298H52.3801V81ZM63.5179 81.112C65.0439 81.112 65.8699 80.496 66.0939 79.474H66.1079C66.1079 80.034 66.0659 80.664 66.0379 81H67.6059V76.786C67.6059 74.966 66.3739 73.972 64.2739 73.972C62.2999 73.972 61.0959 74.798 61.0959 76.184C61.0959 76.31 61.1099 76.492 61.1239 76.59H62.5659C62.5519 76.478 62.5519 76.366 62.5519 76.324C62.5519 75.554 63.1539 75.148 64.2179 75.148C65.4359 75.148 66.0379 75.61 66.0379 76.646V77.136H63.4759C61.6279 77.136 60.8859 77.962 60.8859 79.012C60.8859 80.356 61.9359 81.112 63.5179 81.112ZM63.8399 79.936C62.8879 79.936 62.3279 79.572 62.3279 78.942C62.3279 78.396 62.7199 78.088 63.6159 78.088H66.0379V78.214C66.0379 79.278 65.1979 79.936 63.8399 79.936ZM69.06 81H70.628V77.976C70.628 76.324 71.37 75.316 72.56 75.316C73.484 75.316 73.932 75.862 73.932 77.024C73.932 77.346 73.904 77.696 73.876 77.962H75.304C75.332 77.668 75.374 77.108 75.374 76.674C75.374 74.952 74.548 73.972 73.05 73.972C71.622 73.972 70.908 74.826 70.586 76.072H70.572L70.628 74.084H69.06V81ZM83.0263 81.112C85.0003 81.112 86.3163 80.034 86.3163 78.186H84.9023C84.8883 79.208 84.2023 79.824 83.0963 79.824C81.9343 79.824 81.2063 78.956 81.2063 77.542C81.2063 76.114 81.9483 75.26 83.1523 75.26C84.2023 75.26 84.8743 75.89 84.8883 76.926H86.3023C86.3023 75.092 85.0423 73.972 83.1103 73.972C81.0243 73.972 79.6383 75.33 79.6383 77.542C79.6383 79.754 80.9963 81.112 83.0263 81.112ZM91.0644 81.112C93.2764 81.112 94.6904 79.754 94.6904 77.556C94.6904 75.344 93.2764 73.972 91.0644 73.972C88.8664 73.972 87.4524 75.344 87.4524 77.556C87.4524 79.754 88.8664 81.112 91.0644 81.112ZM91.0644 79.824C89.7904 79.824 89.0204 78.956 89.0204 77.556C89.0204 76.142 89.7904 75.26 91.0644 75.26C92.3384 75.26 93.1224 76.142 93.1224 77.556C93.1224 78.956 92.3384 79.824 91.0644 79.824ZM95.9824 81H97.5504V77.626C97.5504 76.142 98.2644 75.316 99.3284 75.316C100.266 75.316 100.784 75.932 100.784 76.912V81H102.352V77.57C102.352 76.128 103.052 75.316 104.144 75.316C105.082 75.316 105.572 75.932 105.572 76.94V81H107.14V76.59C107.14 74.966 106.258 73.972 104.718 73.972C103.402 73.972 102.562 74.672 102.31 75.792H102.296C102.128 74.672 101.26 73.972 99.9164 73.972C98.6564 73.972 97.8164 74.714 97.5084 75.904H97.4944L97.5504 74.084H95.9824V81ZM114.211 81.112C115.737 81.112 116.563 80.496 116.787 79.474H116.801C116.801 80.034 116.759 80.664 116.731 81H118.299V76.786C118.299 74.966 117.067 73.972 114.967 73.972C112.993 73.972 111.789 74.798 111.789 76.184C111.789 76.31 111.803 76.492 111.817 76.59H113.259C113.245 76.478 113.245 76.366 113.245 76.324C113.245 75.554 113.847 75.148 114.911 75.148C116.129 75.148 116.731 75.61 116.731 76.646V77.136H114.169C112.321 77.136 111.579 77.962 111.579 79.012C111.579 80.356 112.629 81.112 114.211 81.112ZM114.533 79.936C113.581 79.936 113.021 79.572 113.021 78.942C113.021 78.396 113.413 78.088 114.309 78.088H116.731V78.214C116.731 79.278 115.891 79.936 114.533 79.936ZM129.484 77.29C129.484 75.134 128.238 73.972 126.278 73.972C124.094 73.972 122.722 75.358 122.722 77.598C122.722 79.768 124.094 81.112 126.278 81.112C128.168 81.112 129.428 80.174 129.484 78.634H128.07C128 79.446 127.314 79.894 126.306 79.894C125.13 79.894 124.388 79.18 124.304 77.85H129.484V77.29ZM128.07 76.898H124.346C124.528 75.75 125.214 75.19 126.292 75.19C127.426 75.19 128.07 75.764 128.07 76.8V76.898ZM136.359 83.772H137.927V74.084H136.373V75.4H136.359C136.079 74.518 135.253 73.972 133.909 73.972C131.977 73.972 130.591 75.358 130.591 77.486C130.591 79.698 131.851 81.112 133.839 81.112C135.169 81.112 136.093 80.44 136.345 79.404H136.359V83.772ZM134.175 79.824C132.957 79.824 132.145 78.914 132.145 77.486C132.145 76.142 132.985 75.26 134.203 75.26C135.505 75.26 136.359 76.044 136.359 77.262V77.598C136.359 78.956 135.491 79.824 134.175 79.824ZM142.332 81.112C143.872 81.112 144.838 80.384 145.132 79.068H145.146C145.146 79.796 145.118 80.538 145.076 81H146.644V74.084H145.076V77.15C145.076 78.83 144.194 79.768 142.794 79.768C141.66 79.768 140.988 79.152 140.988 78.06V74.084H139.42V78.284C139.42 80.118 140.526 81.112 142.332 81.112ZM148.207 73.272H149.817V71.732H148.207V73.272ZM148.221 81H149.789V74.084H148.221V81ZM151.428 83.772H152.996V81.056C152.996 80.776 152.968 80.062 152.954 79.6H152.968C153.262 80.496 154.158 81.112 155.53 81.112C157.518 81.112 158.778 79.656 158.778 77.416C158.778 75.33 157.532 73.972 155.558 73.972C154.186 73.972 153.262 74.644 152.982 75.694H152.968L152.996 74.084H151.428V83.772ZM155.222 79.824C153.878 79.824 152.996 79.068 152.996 77.892V77.528C153.024 76.142 153.892 75.26 155.194 75.26C156.44 75.26 157.21 76.128 157.21 77.458C157.21 78.9 156.426 79.824 155.222 79.824ZM166.64 77.29C166.64 75.134 165.394 73.972 163.434 73.972C161.25 73.972 159.878 75.358 159.878 77.598C159.878 79.768 161.25 81.112 163.434 81.112C165.324 81.112 166.584 80.174 166.64 78.634H165.226C165.156 79.446 164.47 79.894 163.462 79.894C162.286 79.894 161.544 79.18 161.46 77.85H166.64V77.29ZM165.226 76.898H161.502C161.684 75.75 162.37 75.19 163.448 75.19C164.582 75.19 165.226 75.764 165.226 76.8V76.898ZM174.189 81.112C175.603 81.112 176.471 80.412 176.737 79.32H176.765C176.737 79.992 176.723 80.594 176.695 81H178.263V71.298H176.695V75.302H176.681C176.401 74.49 175.589 73.972 174.287 73.972C172.229 73.972 170.927 75.414 170.927 77.5C170.927 79.656 172.187 81.112 174.189 81.112ZM174.511 79.824C173.279 79.824 172.481 78.872 172.481 77.5C172.481 76.184 173.293 75.26 174.539 75.26C175.841 75.26 176.695 76.044 176.695 77.276V77.612C176.695 78.956 175.827 79.824 174.511 79.824ZM183.228 81.112C185.44 81.112 186.854 79.754 186.854 77.556C186.854 75.344 185.44 73.972 183.228 73.972C181.03 73.972 179.616 75.344 179.616 77.556C179.616 79.754 181.03 81.112 183.228 81.112ZM183.228 79.824C181.954 79.824 181.184 78.956 181.184 77.556C181.184 76.142 181.954 75.26 183.228 75.26C184.502 75.26 185.286 76.142 185.286 77.556C185.286 78.956 184.502 79.824 183.228 79.824ZM191.437 81H193.019L193.005 73.188H193.019L197.933 81H199.921V71.788H198.339L198.367 78.788H198.339L193.957 71.788H191.437V81ZM205.927 81.14C207.607 81.14 208.643 80.412 208.923 79.348H208.937C208.923 79.978 208.881 80.636 208.853 81H210.253V76.464H205.773V77.528H208.629V77.738C208.629 78.984 207.537 79.838 206.067 79.838C204.401 79.838 203.043 78.564 203.043 76.506C203.043 74.378 204.359 73.048 206.137 73.048C207.551 73.048 208.671 73.79 208.671 75.092C208.671 75.218 208.671 75.372 208.657 75.54H210.155C210.169 75.372 210.183 75.148 210.183 74.994C210.183 72.894 208.433 71.648 206.109 71.648C203.393 71.648 201.349 73.538 201.349 76.492C201.349 79.376 203.295 81.14 205.927 81.14ZM212.045 81H213.627V79.18H212.045V81ZM219.932 81.14C222.368 81.14 224.104 79.712 224.104 77.626V77.304H222.606V77.528C222.606 78.858 221.528 79.74 219.988 79.74C218.252 79.74 216.908 78.466 216.908 76.408C216.908 74.35 218.196 73.048 219.988 73.048C221.472 73.048 222.578 73.944 222.578 75.358C222.578 75.428 222.578 75.54 222.564 75.666H224.048C224.062 75.498 224.076 75.316 224.076 75.218C224.076 73.09 222.354 71.648 219.932 71.648C217.16 71.648 215.2 73.468 215.2 76.408C215.2 79.334 217.188 81.14 219.932 81.14ZM232.127 81H234.073L230.335 71.788H228.291L224.539 81H226.275L227.059 78.928H231.357L232.127 81ZM227.479 77.808L229.201 73.216H229.229L230.937 77.808H227.479ZM238.425 81.14C241.561 81.14 242.429 79.754 242.429 78.27C242.429 77.416 242.065 76.772 241.435 76.45C240.861 76.142 239.965 75.988 238.999 75.834C238.201 75.722 237.165 75.554 236.759 75.358C236.395 75.19 236.213 74.882 236.213 74.364C236.213 73.524 237.039 72.95 238.425 72.95C239.867 72.95 240.609 73.594 240.609 74.952H242.121C242.121 72.852 241.127 71.648 238.397 71.648C235.989 71.648 234.547 72.824 234.547 74.504C234.547 75.372 234.897 76.002 235.457 76.352C235.961 76.674 236.941 76.884 237.865 77.01C238.663 77.122 239.657 77.248 240.119 77.43C240.553 77.584 240.763 77.878 240.763 78.382C240.763 79.138 240.287 79.838 238.411 79.838C236.647 79.838 236.087 79.026 236.087 77.85H234.575C234.575 79.53 235.373 81.14 238.425 81.14ZM243.872 81H245.552V76.898H250.452V81H252.118V71.788H250.452V75.554H245.552V71.788H243.872V81ZM256.941 81H258.509V77.626C258.509 76.142 259.223 75.316 260.287 75.316C261.225 75.316 261.743 75.932 261.743 76.912V81H263.311V77.57C263.311 76.128 264.011 75.316 265.103 75.316C266.041 75.316 266.531 75.932 266.531 76.94V81H268.099V76.59C268.099 74.966 267.217 73.972 265.677 73.972C264.361 73.972 263.521 74.672 263.269 75.792H263.255C263.087 74.672 262.219 73.972 260.875 73.972C259.615 73.972 258.775 74.714 258.467 75.904H258.453L258.509 74.084H256.941V81ZM276.106 77.29C276.106 75.134 274.86 73.972 272.9 73.972C270.716 73.972 269.344 75.358 269.344 77.598C269.344 79.768 270.716 81.112 272.9 81.112C274.79 81.112 276.05 80.174 276.106 78.634H274.692C274.622 79.446 273.936 79.894 272.928 79.894C271.752 79.894 271.01 79.18 270.926 77.85H276.106V77.29ZM274.692 76.898H270.968C271.15 75.75 271.836 75.19 272.914 75.19C274.048 75.19 274.692 75.764 274.692 76.8V76.898ZM0.784 99H2.352V95.626C2.352 94.142 3.066 93.316 4.13 93.316C5.068 93.316 5.586 93.932 5.586 94.912V99H7.154V95.57C7.154 94.128 7.854 93.316 8.946 93.316C9.884 93.316 10.374 93.932 10.374 94.94V99H11.942V94.59C11.942 92.966 11.06 91.972 9.52 91.972C8.204 91.972 7.364 92.672 7.112 93.792H7.098C6.93 92.672 6.062 91.972 4.718 91.972C3.458 91.972 2.618 92.714 2.31 93.904H2.296L2.352 92.084H0.784V99ZM16.7989 99.112C19.0109 99.112 20.4249 97.754 20.4249 95.556C20.4249 93.344 19.0109 91.972 16.7989 91.972C14.6009 91.972 13.1869 93.344 13.1869 95.556C13.1869 97.754 14.6009 99.112 16.7989 99.112ZM16.7989 97.824C15.5249 97.824 14.7549 96.956 14.7549 95.556C14.7549 94.142 15.5249 93.26 16.7989 93.26C18.0729 93.26 18.8569 94.142 18.8569 95.556C18.8569 96.956 18.0729 97.824 16.7989 97.824ZM24.6588 99.112C26.8708 99.112 28.0468 98.286 28.0468 96.886C28.0468 96.326 27.7808 95.794 27.3188 95.542C26.8288 95.262 26.2688 95.164 25.2888 95.066C24.4488 94.982 23.7908 94.912 23.4548 94.8C23.0488 94.66 22.9788 94.38 22.9788 94.086C22.9788 93.498 23.5948 93.106 24.6868 93.106C25.8348 93.106 26.3248 93.54 26.3388 94.436H27.7528C27.7528 92.868 26.8008 91.972 24.6448 91.972C22.7688 91.972 21.4248 92.812 21.4248 94.198C21.4248 94.73 21.6488 95.234 22.0268 95.514C22.4468 95.822 23.1748 95.962 24.2528 96.06C25.0228 96.13 25.6808 96.2 26.0168 96.326C26.3808 96.452 26.4788 96.69 26.4788 96.956C26.4788 97.586 25.9188 97.978 24.6448 97.978C23.3008 97.978 22.8388 97.488 22.8388 96.69H21.4248C21.4248 98.048 22.2788 99.112 24.6588 99.112ZM32.4332 99.084C33.0072 99.084 33.4832 98.986 33.6932 98.916V97.67C33.4972 97.726 33.0492 97.796 32.6572 97.796C31.7052 97.796 31.3692 97.348 31.3692 96.452V93.358H33.7492V92.084H31.3692V90.516H30.0672L29.9972 91.552C29.9552 91.944 29.8572 92.084 29.5912 92.084H28.7092V93.358H29.8012V96.536C29.8012 98.062 30.5432 99.084 32.4332 99.084ZM34.9525 99H36.5205V95.976C36.5205 94.324 37.2625 93.316 38.4525 93.316C39.3765 93.316 39.8245 93.862 39.8245 95.024C39.8245 95.346 39.7965 95.696 39.7685 95.962H41.1965C41.2245 95.668 41.2665 95.108 41.2665 94.674C41.2665 92.952 40.4405 91.972 38.9425 91.972C37.5145 91.972 36.8005 92.826 36.4785 94.072H36.4645L36.5205 92.084H34.9525V99ZM45.9635 99.112C48.1755 99.112 49.5895 97.754 49.5895 95.556C49.5895 93.344 48.1755 91.972 45.9635 91.972C43.7655 91.972 42.3515 93.344 42.3515 95.556C42.3515 97.754 43.7655 99.112 45.9635 99.112ZM45.9635 97.824C44.6895 97.824 43.9195 96.956 43.9195 95.556C43.9195 94.142 44.6895 93.26 45.9635 93.26C47.2375 93.26 48.0215 94.142 48.0215 95.556C48.0215 96.956 47.2375 97.824 45.9635 97.824ZM53.7234 99.112C55.2634 99.112 56.2294 98.384 56.5234 97.068H56.5374C56.5374 97.796 56.5094 98.538 56.4674 99H58.0354V92.084H56.4674V95.15C56.4674 96.83 55.5854 97.768 54.1854 97.768C53.0514 97.768 52.3794 97.152 52.3794 96.06V92.084H50.8114V96.284C50.8114 98.118 51.9174 99.112 53.7234 99.112ZM65.5782 99.112C67.1182 99.112 68.0842 98.384 68.3782 97.068H68.3922C68.3922 97.796 68.3642 98.538 68.3222 99H69.8902V92.084H68.3222V95.15C68.3222 96.83 67.4402 97.768 66.0402 97.768C64.9062 97.768 64.2342 97.152 64.2342 96.06V92.084H62.6662V96.284C62.6662 98.118 63.7722 99.112 65.5782 99.112ZM71.4116 99H72.9796V95.626C72.9796 94.142 73.6936 93.316 74.7576 93.316C75.6956 93.316 76.2136 93.932 76.2136 94.912V99H77.7816V95.57C77.7816 94.128 78.4816 93.316 79.5736 93.316C80.5116 93.316 81.0016 93.932 81.0016 94.94V99H82.5696V94.59C82.5696 92.966 81.6876 91.972 80.1476 91.972C78.8316 91.972 77.9916 92.672 77.7396 93.792H77.7256C77.5576 92.672 76.6896 91.972 75.3456 91.972C74.0856 91.972 73.2456 92.714 72.9376 93.904H72.9236L72.9796 92.084H71.4116V99ZM93.7558 95.29C93.7558 93.134 92.5098 91.972 90.5498 91.972C88.3658 91.972 86.9938 93.358 86.9938 95.598C86.9938 97.768 88.3658 99.112 90.5498 99.112C92.4398 99.112 93.6998 98.174 93.7558 96.634H92.3418C92.2718 97.446 91.5858 97.894 90.5778 97.894C89.4018 97.894 88.6598 97.18 88.5758 95.85H93.7558V95.29ZM92.3418 94.898H88.6178C88.7998 93.75 89.4858 93.19 90.5638 93.19C91.6978 93.19 92.3418 93.764 92.3418 94.8V94.898ZM98.0966 99.112C100.309 99.112 101.485 98.286 101.485 96.886C101.485 96.326 101.219 95.794 100.757 95.542C100.267 95.262 99.7066 95.164 98.7266 95.066C97.8866 94.982 97.2286 94.912 96.8926 94.8C96.4866 94.66 96.4166 94.38 96.4166 94.086C96.4166 93.498 97.0326 93.106 98.1246 93.106C99.2726 93.106 99.7626 93.54 99.7766 94.436H101.191C101.191 92.868 100.239 91.972 98.0826 91.972C96.2066 91.972 94.8626 92.812 94.8626 94.198C94.8626 94.73 95.0866 95.234 95.4646 95.514C95.8846 95.822 96.6126 95.962 97.6906 96.06C98.4606 96.13 99.1186 96.2 99.4546 96.326C99.8186 96.452 99.9166 96.69 99.9166 96.956C99.9166 97.586 99.3566 97.978 98.0826 97.978C96.7386 97.978 96.2766 97.488 96.2766 96.69H94.8626C94.8626 98.048 95.7166 99.112 98.0966 99.112ZM102.833 101.772H104.401V99.056C104.401 98.776 104.373 98.062 104.359 97.6H104.373C104.667 98.496 105.563 99.112 106.935 99.112C108.923 99.112 110.183 97.656 110.183 95.416C110.183 93.33 108.937 91.972 106.963 91.972C105.591 91.972 104.667 92.644 104.387 93.694H104.373L104.401 92.084H102.833V101.772ZM106.627 97.824C105.283 97.824 104.401 97.068 104.401 95.892V95.528C104.429 94.142 105.297 93.26 106.599 93.26C107.845 93.26 108.615 94.128 108.615 95.458C108.615 96.9 107.831 97.824 106.627 97.824ZM113.574 99.112C115.1 99.112 115.926 98.496 116.15 97.474H116.164C116.164 98.034 116.122 98.664 116.094 99H117.662V94.786C117.662 92.966 116.43 91.972 114.33 91.972C112.356 91.972 111.152 92.798 111.152 94.184C111.152 94.31 111.166 94.492 111.18 94.59H112.622C112.608 94.478 112.608 94.366 112.608 94.324C112.608 93.554 113.21 93.148 114.274 93.148C115.492 93.148 116.094 93.61 116.094 94.646V95.136H113.532C111.684 95.136 110.942 95.962 110.942 97.012C110.942 98.356 111.992 99.112 113.574 99.112ZM113.896 97.936C112.944 97.936 112.384 97.572 112.384 96.942C112.384 96.396 112.776 96.088 113.672 96.088H116.094V96.214C116.094 97.278 115.254 97.936 113.896 97.936ZM125.584 96.186H124.17C124.156 97.208 123.47 97.824 122.364 97.824C121.202 97.824 120.474 96.956 120.474 95.542C120.474 94.114 121.216 93.26 122.42 93.26C123.47 93.26 124.142 93.89 124.156 94.926H125.57C125.57 93.092 124.31 91.972 122.378 91.972C120.292 91.972 118.906 93.33 118.906 95.542C118.906 97.558 120.026 98.86 121.762 99.084L121.314 100.274C121.496 100.246 121.944 100.19 122.42 100.19C123.008 100.19 123.19 100.344 123.19 100.638C123.19 101.002 122.938 101.296 122.364 101.296C121.79 101.296 121.58 101.128 121.524 100.778H120.418C120.474 101.506 121.048 102.052 122.364 102.052C123.722 102.052 124.282 101.38 124.282 100.624C124.282 99.994 123.904 99.588 123.134 99.588C122.742 99.588 122.56 99.7 122.448 99.77L122.434 99.756L122.686 99.098C124.436 98.958 125.584 97.908 125.584 96.186ZM130.332 99.112C132.544 99.112 133.958 97.754 133.958 95.556C133.958 93.344 132.544 91.972 130.332 91.972C128.134 91.972 126.72 93.344 126.72 95.556C126.72 97.754 128.134 99.112 130.332 99.112ZM130.332 97.824C129.058 97.824 128.288 96.956 128.288 95.556C128.288 94.142 129.058 93.26 130.332 93.26C131.606 93.26 132.39 94.142 132.39 95.556C132.39 96.956 131.606 97.824 130.332 97.824ZM141.482 99.112C142.896 99.112 143.764 98.412 144.03 97.32H144.058C144.03 97.992 144.016 98.594 143.988 99H145.556V89.298H143.988V93.302H143.974C143.694 92.49 142.882 91.972 141.58 91.972C139.522 91.972 138.22 93.414 138.22 95.5C138.22 97.656 139.48 99.112 141.482 99.112ZM141.804 97.824C140.572 97.824 139.774 96.872 139.774 95.5C139.774 94.184 140.586 93.26 141.832 93.26C143.134 93.26 143.988 94.044 143.988 95.276V95.612C143.988 96.956 143.12 97.824 141.804 97.824ZM153.671 95.29C153.671 93.134 152.425 91.972 150.465 91.972C148.281 91.972 146.909 93.358 146.909 95.598C146.909 97.768 148.281 99.112 150.465 99.112C152.355 99.112 153.615 98.174 153.671 96.634H152.257C152.187 97.446 151.501 97.894 150.493 97.894C149.317 97.894 148.575 97.18 148.491 95.85H153.671V95.29ZM152.257 94.898H148.533C148.715 93.75 149.401 93.19 150.479 93.19C151.613 93.19 152.257 93.764 152.257 94.8V94.898ZM161.345 99.112C163.319 99.112 164.635 98.034 164.635 96.186H163.221C163.207 97.208 162.521 97.824 161.415 97.824C160.253 97.824 159.525 96.956 159.525 95.542C159.525 94.114 160.267 93.26 161.471 93.26C162.521 93.26 163.193 93.89 163.207 94.926H164.621C164.621 93.092 163.361 91.972 161.429 91.972C159.343 91.972 157.957 93.33 157.957 95.542C157.957 97.754 159.315 99.112 161.345 99.112ZM165.981 99H167.549V95.976C167.549 94.324 168.291 93.316 169.481 93.316C170.405 93.316 170.853 93.862 170.853 95.024C170.853 95.346 170.825 95.696 170.797 95.962H172.225C172.253 95.668 172.295 95.108 172.295 94.674C172.295 92.952 171.469 91.972 169.971 91.972C168.543 91.972 167.829 92.826 167.507 94.072H167.493L167.549 92.084H165.981V99ZM180.142 95.29C180.142 93.134 178.896 91.972 176.936 91.972C174.752 91.972 173.38 93.358 173.38 95.598C173.38 97.768 174.752 99.112 176.936 99.112C178.826 99.112 180.086 98.174 180.142 96.634H178.728C178.658 97.446 177.972 97.894 176.964 97.894C175.788 97.894 175.046 97.18 174.962 95.85H180.142V95.29ZM178.728 94.898H175.004C175.186 93.75 175.872 93.19 176.95 93.19C178.084 93.19 178.728 93.764 178.728 94.8V94.898ZM184.483 99.112C186.695 99.112 187.871 98.286 187.871 96.886C187.871 96.326 187.605 95.794 187.143 95.542C186.653 95.262 186.093 95.164 185.113 95.066C184.273 94.982 183.615 94.912 183.279 94.8C182.873 94.66 182.803 94.38 182.803 94.086C182.803 93.498 183.419 93.106 184.511 93.106C185.659 93.106 186.149 93.54 186.163 94.436H187.577C187.577 92.868 186.625 91.972 184.469 91.972C182.593 91.972 181.249 92.812 181.249 94.198C181.249 94.73 181.473 95.234 181.851 95.514C182.271 95.822 182.999 95.962 184.077 96.06C184.847 96.13 185.505 96.2 185.841 96.326C186.205 96.452 186.303 96.69 186.303 96.956C186.303 97.586 185.743 97.978 184.469 97.978C183.125 97.978 182.663 97.488 182.663 96.69H181.249C181.249 98.048 182.103 99.112 184.483 99.112ZM192.355 99.112C194.329 99.112 195.645 98.034 195.645 96.186H194.231C194.217 97.208 193.531 97.824 192.425 97.824C191.263 97.824 190.535 96.956 190.535 95.542C190.535 94.114 191.277 93.26 192.481 93.26C193.531 93.26 194.203 93.89 194.217 94.926H195.631C195.631 93.092 194.371 91.972 192.439 91.972C190.353 91.972 188.967 93.33 188.967 95.542C188.967 97.754 190.325 99.112 192.355 99.112ZM197.033 91.272H198.643V89.732H197.033V91.272ZM197.047 99H198.615V92.084H197.047V99ZM200.212 99H201.78V95.626C201.78 94.142 202.494 93.316 203.558 93.316C204.496 93.316 205.014 93.932 205.014 94.912V99H206.582V95.57C206.582 94.128 207.282 93.316 208.374 93.316C209.312 93.316 209.802 93.932 209.802 94.94V99H211.37V94.59C211.37 92.966 210.488 91.972 208.948 91.972C207.632 91.972 206.792 92.672 206.54 93.792H206.526C206.358 92.672 205.49 91.972 204.146 91.972C202.886 91.972 202.046 92.714 201.738 93.904H201.724L201.78 92.084H200.212V99ZM219.377 95.29C219.377 93.134 218.131 91.972 216.171 91.972C213.987 91.972 212.615 93.358 212.615 95.598C212.615 97.768 213.987 99.112 216.171 99.112C218.061 99.112 219.321 98.174 219.377 96.634H217.963C217.893 97.446 217.207 97.894 216.199 97.894C215.023 97.894 214.281 97.18 214.197 95.85H219.377V95.29ZM217.963 94.898H214.239C214.421 93.75 215.107 93.19 216.185 93.19C217.319 93.19 217.963 93.764 217.963 94.8V94.898ZM220.693 99H222.261V95.654C222.261 94.142 223.129 93.316 224.501 93.316C225.747 93.316 226.363 93.932 226.363 95.024V99H227.931V94.674C227.931 92.966 226.853 91.972 225.103 91.972C223.493 91.972 222.597 92.686 222.219 93.932H222.205L222.261 92.084H220.693V99ZM232.462 99.084C233.036 99.084 233.512 98.986 233.722 98.916V97.67C233.526 97.726 233.078 97.796 232.686 97.796C231.734 97.796 231.398 97.348 231.398 96.452V93.358H233.778V92.084H231.398V90.516H230.096L230.026 91.552C229.984 91.944 229.886 92.084 229.62 92.084H228.738V93.358H229.83V96.536C229.83 98.062 230.572 99.084 232.462 99.084ZM238.11 99.112C240.322 99.112 241.736 97.754 241.736 95.556C241.736 93.344 240.322 91.972 238.11 91.972C235.912 91.972 234.498 93.344 234.498 95.556C234.498 97.754 235.912 99.112 238.11 99.112ZM238.11 97.824C236.836 97.824 236.066 96.956 236.066 95.556C236.066 94.142 236.836 93.26 238.11 93.26C239.384 93.26 240.168 94.142 240.168 95.556C240.168 96.956 239.384 97.824 238.11 97.824ZM252.759 95.29C252.759 93.134 251.513 91.972 249.553 91.972C247.369 91.972 245.997 93.358 245.997 95.598C245.997 97.768 247.369 99.112 249.553 99.112C251.443 99.112 252.703 98.174 252.759 96.634H251.345C251.275 97.446 250.589 97.894 249.581 97.894C248.405 97.894 247.663 97.18 247.579 95.85H252.759V95.29ZM251.345 94.898H247.621C247.803 93.75 248.489 93.19 249.567 93.19C250.701 93.19 251.345 93.764 251.345 94.8V94.898ZM260.336 99.084C260.91 99.084 261.386 98.986 261.596 98.916V97.67C261.4 97.726 260.952 97.796 260.56 97.796C259.608 97.796 259.272 97.348 259.272 96.452V93.358H261.652V92.084H259.272V90.516H257.97L257.9 91.552C257.858 91.944 257.76 92.084 257.494 92.084H256.612V93.358H257.704V96.536C257.704 98.062 258.446 99.084 260.336 99.084ZM262.855 99H264.423V95.976C264.423 94.324 265.165 93.316 266.355 93.316C267.279 93.316 267.727 93.862 267.727 95.024C267.727 95.346 267.699 95.696 267.671 95.962H269.099C269.127 95.668 269.169 95.108 269.169 94.674C269.169 92.952 268.343 91.972 266.845 91.972C265.417 91.972 264.703 92.826 264.381 94.072H264.367L264.423 92.084H262.855V99ZM273.866 99.112C276.078 99.112 277.492 97.754 277.492 95.556C277.492 93.344 276.078 91.972 273.866 91.972C271.668 91.972 270.254 93.344 270.254 95.556C270.254 97.754 271.668 99.112 273.866 99.112ZM273.866 97.824C272.592 97.824 271.822 96.956 271.822 95.556C271.822 94.142 272.592 93.26 273.866 93.26C275.14 93.26 275.924 94.142 275.924 95.556C275.924 96.956 275.14 97.824 273.866 97.824ZM281.962 99.112C283.936 99.112 285.252 98.034 285.252 96.186H283.838C283.824 97.208 283.138 97.824 282.032 97.824C280.87 97.824 280.142 96.956 280.142 95.542C280.142 94.114 280.884 93.26 282.088 93.26C283.138 93.26 283.81 93.89 283.824 94.926H285.238C285.238 93.092 283.978 91.972 282.046 91.972C279.96 91.972 278.574 93.33 278.574 95.542C278.574 97.754 279.932 99.112 281.962 99.112ZM288.678 99.112C290.204 99.112 291.03 98.496 291.254 97.474H291.268C291.268 98.034 291.226 98.664 291.198 99H292.766V94.786C292.766 92.966 291.534 91.972 289.434 91.972C287.46 91.972 286.256 92.798 286.256 94.184C286.256 94.31 286.27 94.492 286.284 94.59H287.726C287.712 94.478 287.712 94.366 287.712 94.324C287.712 93.554 288.314 93.148 289.378 93.148C290.596 93.148 291.198 93.61 291.198 94.646V95.136H288.636C286.788 95.136 286.046 95.962 286.046 97.012C286.046 98.356 287.096 99.112 288.678 99.112ZM289 97.936C288.048 97.936 287.488 97.572 287.488 96.942C287.488 96.396 287.88 96.088 288.776 96.088H291.198V96.214C291.198 97.278 290.358 97.936 289 97.936ZM0.784 117H2.352V113.626C2.352 112.142 3.066 111.316 4.13 111.316C5.068 111.316 5.586 111.932 5.586 112.912V117H7.154V113.57C7.154 112.128 7.854 111.316 8.946 111.316C9.884 111.316 10.374 111.932 10.374 112.94V117H11.942V112.59C11.942 110.966 11.06 109.972 9.52 109.972C8.204 109.972 7.364 110.672 7.112 111.792H7.098C6.93 110.672 6.062 109.972 4.718 109.972C3.458 109.972 2.618 110.714 2.31 111.904H2.296L2.352 110.084H0.784V117ZM16.2109 109.37H17.4429L18.9409 107.41H17.3029L16.2109 109.37ZM16.2389 117.112C17.7789 117.112 18.7449 116.384 19.0389 115.068H19.0529C19.0529 115.796 19.0249 116.538 18.9829 117H20.5509V110.084H18.9829V113.15C18.9829 114.83 18.1009 115.768 16.7009 115.768C15.5669 115.768 14.8949 115.152 14.8949 114.06V110.084H13.3269V114.284C13.3269 116.118 14.4329 117.112 16.2389 117.112ZM25.1523 117.084C25.7263 117.084 26.2023 116.986 26.4123 116.916V115.67C26.2163 115.726 25.7683 115.796 25.3763 115.796C24.4243 115.796 24.0883 115.348 24.0883 114.452V111.358H26.4683V110.084H24.0883V108.516H22.7863L22.7163 109.552C22.6743 109.944 22.5763 110.084 22.3103 110.084H21.4283V111.358H22.5203V114.536C22.5203 116.062 23.2623 117.084 25.1523 117.084ZM30.5136 117.112C32.0536 117.112 33.0196 116.384 33.3136 115.068H33.3276C33.3276 115.796 33.2996 116.538 33.2576 117H34.8256V110.084H33.2576V113.15C33.2576 114.83 32.3756 115.768 30.9756 115.768C29.8416 115.768 29.1696 115.152 29.1696 114.06V110.084H27.6016V114.284C27.6016 116.118 28.7076 117.112 30.5136 117.112ZM39.749 117.112C41.961 117.112 43.375 115.754 43.375 113.556C43.375 111.344 41.961 109.972 39.749 109.972C37.551 109.972 36.137 111.344 36.137 113.556C36.137 115.754 37.551 117.112 39.749 117.112ZM39.749 115.824C38.475 115.824 37.705 114.956 37.705 113.556C37.705 112.142 38.475 111.26 39.749 111.26C41.023 111.26 41.807 112.142 41.807 113.556C41.807 114.956 41.023 115.824 39.749 115.824ZM47.6089 117.112C49.8209 117.112 50.9969 116.286 50.9969 114.886C50.9969 114.326 50.7309 113.794 50.2689 113.542C49.7789 113.262 49.2189 113.164 48.2389 113.066C47.3989 112.982 46.7409 112.912 46.4049 112.8C45.9989 112.66 45.9289 112.38 45.9289 112.086C45.9289 111.498 46.5449 111.106 47.6369 111.106C48.7849 111.106 49.2749 111.54 49.2889 112.436H50.7029C50.7029 110.868 49.7509 109.972 47.5949 109.972C45.7189 109.972 44.3749 110.812 44.3749 112.198C44.3749 112.73 44.5989 113.234 44.9769 113.514C45.3969 113.822 46.1249 113.962 47.2029 114.06C47.9729 114.13 48.6309 114.2 48.9669 114.326C49.3309 114.452 49.4289 114.69 49.4289 114.956C49.4289 115.586 48.8689 115.978 47.5949 115.978C46.2509 115.978 45.7889 115.488 45.7889 114.69H44.3749C44.3749 116.048 45.2289 117.112 47.6089 117.112ZM55.4826 117H57.0506V113.654C57.0506 112.142 57.9186 111.316 59.2906 111.316C60.5366 111.316 61.1526 111.932 61.1526 113.024V117H62.7206V112.674C62.7206 110.966 61.6426 109.972 59.8926 109.972C58.2826 109.972 57.3866 110.686 57.0086 111.932H56.9946L57.0506 110.084H55.4826V117ZM67.5737 117.112C69.7857 117.112 71.1997 115.754 71.1997 113.556C71.1997 111.344 69.7857 109.972 67.5737 109.972C65.3757 109.972 63.9617 111.344 63.9617 113.556C63.9617 115.754 65.3757 117.112 67.5737 117.112ZM67.5737 115.824C66.2997 115.824 65.5297 114.956 65.5297 113.556C65.5297 112.142 66.2997 111.26 67.5737 111.26C68.8477 111.26 69.6317 112.142 69.6317 113.556C69.6317 114.956 68.8477 115.824 67.5737 115.824ZM75.4336 117.112C77.6456 117.112 78.8216 116.286 78.8216 114.886C78.8216 114.326 78.5556 113.794 78.0936 113.542C77.6036 113.262 77.0436 113.164 76.0636 113.066C75.2236 112.982 74.5656 112.912 74.2296 112.8C73.8236 112.66 73.7536 112.38 73.7536 112.086C73.7536 111.498 74.3696 111.106 75.4616 111.106C76.6096 111.106 77.0996 111.54 77.1136 112.436H78.5276C78.5276 110.868 77.5756 109.972 75.4196 109.972C73.5436 109.972 72.1996 110.812 72.1996 112.198C72.1996 112.73 72.4236 113.234 72.8016 113.514C73.2216 113.822 73.9496 113.962 75.0276 114.06C75.7976 114.13 76.4556 114.2 76.7916 114.326C77.1556 114.452 77.2536 114.69 77.2536 114.956C77.2536 115.586 76.6936 115.978 75.4196 115.978C74.0756 115.978 73.6136 115.488 73.6136 114.69H72.1996C72.1996 116.048 73.0536 117.112 75.4336 117.112ZM83.3073 117H84.8753V113.626C84.8753 112.142 85.5893 111.316 86.6533 111.316C87.5913 111.316 88.1093 111.932 88.1093 112.912V117H89.6773V113.57C89.6773 112.128 90.3773 111.316 91.4693 111.316C92.4073 111.316 92.8973 111.932 92.8973 112.94V117H94.4653V112.59C94.4653 110.966 93.5833 109.972 92.0433 109.972C90.7273 109.972 89.8873 110.672 89.6353 111.792H89.6213C89.4533 110.672 88.5853 109.972 87.2413 109.972C85.9813 109.972 85.1413 110.714 84.8333 111.904H84.8193L84.8753 110.084H83.3073V117ZM98.3562 117.112C99.8822 117.112 100.708 116.496 100.932 115.474H100.946C100.946 116.034 100.904 116.664 100.876 117H102.444V112.786C102.444 110.966 101.212 109.972 99.1122 109.972C97.1382 109.972 95.9342 110.798 95.9342 112.184C95.9342 112.31 95.9482 112.492 95.9622 112.59H97.4042C97.3902 112.478 97.3902 112.366 97.3902 112.324C97.3902 111.554 97.9922 111.148 99.0562 111.148C100.274 111.148 100.876 111.61 100.876 112.646V113.136H98.3142C96.4662 113.136 95.7242 113.962 95.7242 115.012C95.7242 116.356 96.7742 117.112 98.3562 117.112ZM98.6782 115.936C97.7262 115.936 97.1662 115.572 97.1662 114.942C97.1662 114.396 97.5582 114.088 98.4542 114.088H100.876V114.214C100.876 115.278 100.036 115.936 98.6782 115.936ZM103.94 109.272H105.55V107.732H103.94V109.272ZM103.954 117H105.522V110.084H103.954V117ZM110.143 117.112C112.355 117.112 113.531 116.286 113.531 114.886C113.531 114.326 113.265 113.794 112.803 113.542C112.313 113.262 111.753 113.164 110.773 113.066C109.933 112.982 109.275 112.912 108.939 112.8C108.533 112.66 108.463 112.38 108.463 112.086C108.463 111.498 109.079 111.106 110.171 111.106C111.319 111.106 111.809 111.54 111.823 112.436H113.237C113.237 110.868 112.285 109.972 110.129 109.972C108.253 109.972 106.909 110.812 106.909 112.198C106.909 112.73 107.133 113.234 107.511 113.514C107.931 113.822 108.659 113.962 109.737 114.06C110.507 114.13 111.165 114.2 111.501 114.326C111.865 114.452 111.963 114.69 111.963 114.956C111.963 115.586 111.403 115.978 110.129 115.978C108.785 115.978 108.323 115.488 108.323 114.69H106.909C106.909 116.048 107.763 117.112 110.143 117.112ZM121.068 117.112C122.482 117.112 123.35 116.412 123.616 115.32H123.644C123.616 115.992 123.602 116.594 123.574 117H125.142V107.298H123.574V111.302H123.56C123.28 110.49 122.468 109.972 121.166 109.972C119.108 109.972 117.806 111.414 117.806 113.5C117.806 115.656 119.066 117.112 121.068 117.112ZM121.39 115.824C120.158 115.824 119.36 114.872 119.36 113.5C119.36 112.184 120.172 111.26 121.418 111.26C122.72 111.26 123.574 112.044 123.574 113.276V113.612C123.574 114.956 122.706 115.824 121.39 115.824ZM126.748 109.272H128.358V107.732H126.748V109.272ZM126.762 117H128.33V110.084H126.762V117ZM130.388 117H131.956V111.358H134.364V110.084H131.956V109.468C131.956 108.712 132.39 108.292 133.188 108.292C133.664 108.292 134.028 108.39 134.252 108.46V107.214C134.028 107.13 133.524 107.018 132.908 107.018C131.41 107.018 130.388 107.858 130.388 109.398V110.084H129.282V111.358H130.388V117ZM141.476 113.29C141.476 111.134 140.23 109.972 138.27 109.972C136.086 109.972 134.714 111.358 134.714 113.598C134.714 115.768 136.086 117.112 138.27 117.112C140.16 117.112 141.42 116.174 141.476 114.634H140.062C139.992 115.446 139.306 115.894 138.298 115.894C137.122 115.894 136.38 115.18 136.296 113.85H141.476V113.29ZM140.062 112.898H136.338C136.52 111.75 137.206 111.19 138.284 111.19C139.418 111.19 140.062 111.764 140.062 112.8V112.898ZM142.792 117H144.36V113.976C144.36 112.324 145.102 111.316 146.292 111.316C147.216 111.316 147.664 111.862 147.664 113.024C147.664 113.346 147.636 113.696 147.608 113.962H149.036C149.064 113.668 149.106 113.108 149.106 112.674C149.106 110.952 148.28 109.972 146.782 109.972C145.354 109.972 144.64 110.826 144.318 112.072H144.304L144.36 110.084H142.792V117ZM156.953 113.29C156.953 111.134 155.707 109.972 153.747 109.972C151.563 109.972 150.191 111.358 150.191 113.598C150.191 115.768 151.563 117.112 153.747 117.112C155.637 117.112 156.897 116.174 156.953 114.634H155.539C155.469 115.446 154.783 115.894 153.775 115.894C152.599 115.894 151.857 115.18 151.773 113.85H156.953V113.29ZM155.539 112.898H151.815C151.997 111.75 152.683 111.19 153.761 111.19C154.895 111.19 155.539 111.764 155.539 112.8V112.898ZM158.27 117H159.838V113.654C159.838 112.142 160.706 111.316 162.078 111.316C163.324 111.316 163.94 111.932 163.94 113.024V117H165.508V112.674C165.508 110.966 164.43 109.972 162.68 109.972C161.07 109.972 160.174 110.686 159.796 111.932H159.782L159.838 110.084H158.27V117ZM170.039 117.084C170.613 117.084 171.089 116.986 171.299 116.916V115.67C171.103 115.726 170.655 115.796 170.263 115.796C169.311 115.796 168.975 115.348 168.975 114.452V111.358H171.355V110.084H168.975V108.516H167.673L167.603 109.552C167.561 109.944 167.463 110.084 167.197 110.084H166.315V111.358H167.407V114.536C167.407 116.062 168.149 117.084 170.039 117.084ZM178.837 113.29C178.837 111.134 177.591 109.972 175.631 109.972C173.447 109.972 172.075 111.358 172.075 113.598C172.075 115.768 173.447 117.112 175.631 117.112C177.521 117.112 178.781 116.174 178.837 114.634H177.423C177.353 115.446 176.667 115.894 175.659 115.894C174.483 115.894 173.741 115.18 173.657 113.85H178.837V113.29ZM177.423 112.898H173.699C173.881 111.75 174.567 111.19 175.645 111.19C176.779 111.19 177.423 111.764 177.423 112.8V112.898ZM183.178 117.112C185.39 117.112 186.566 116.286 186.566 114.886C186.566 114.326 186.3 113.794 185.838 113.542C185.348 113.262 184.788 113.164 183.808 113.066C182.968 112.982 182.31 112.912 181.974 112.8C181.568 112.66 181.498 112.38 181.498 112.086C181.498 111.498 182.114 111.106 183.206 111.106C184.354 111.106 184.844 111.54 184.858 112.436H186.272C186.272 110.868 185.32 109.972 183.164 109.972C181.288 109.972 179.944 110.812 179.944 112.198C179.944 112.73 180.168 113.234 180.546 113.514C180.966 113.822 181.694 113.962 182.772 114.06C183.542 114.13 184.2 114.2 184.536 114.326C184.9 114.452 184.998 114.69 184.998 114.956C184.998 115.586 184.438 115.978 183.164 115.978C181.82 115.978 181.358 115.488 181.358 114.69H179.944C179.944 116.048 180.798 117.112 183.178 117.112ZM194.229 117.112C196.203 117.112 197.519 116.034 197.519 114.186H196.105C196.091 115.208 195.405 115.824 194.299 115.824C193.137 115.824 192.409 114.956 192.409 113.542C192.409 112.114 193.151 111.26 194.355 111.26C195.405 111.26 196.077 111.89 196.091 112.926H197.505C197.505 111.092 196.245 109.972 194.313 109.972C192.227 109.972 190.841 111.33 190.841 113.542C190.841 115.754 192.199 117.112 194.229 117.112ZM202.268 117.112C204.48 117.112 205.894 115.754 205.894 113.556C205.894 111.344 204.48 109.972 202.268 109.972C200.07 109.972 198.656 111.344 198.656 113.556C198.656 115.754 200.07 117.112 202.268 117.112ZM202.268 115.824C200.994 115.824 200.224 114.956 200.224 113.556C200.224 112.142 200.994 111.26 202.268 111.26C203.542 111.26 204.326 112.142 204.326 113.556C204.326 114.956 203.542 115.824 202.268 115.824ZM207.186 117H208.754V113.654C208.754 112.142 209.622 111.316 210.994 111.316C212.24 111.316 212.856 111.932 212.856 113.024V117H214.424V112.674C214.424 110.966 213.346 109.972 211.596 109.972C209.986 109.972 209.09 110.686 208.712 111.932H208.698L208.754 110.084H207.186V117ZM218.955 117.084C219.529 117.084 220.005 116.986 220.215 116.916V115.67C220.019 115.726 219.571 115.796 219.179 115.796C218.227 115.796 217.891 115.348 217.891 114.452V111.358H220.271V110.084H217.891V108.516H216.589L216.519 109.552C216.477 109.944 216.379 110.084 216.113 110.084H215.231V111.358H216.323V114.536C216.323 116.062 217.065 117.084 218.955 117.084ZM227.752 113.29C227.752 111.134 226.506 109.972 224.546 109.972C222.362 109.972 220.99 111.358 220.99 113.598C220.99 115.768 222.362 117.112 224.546 117.112C226.436 117.112 227.696 116.174 227.752 114.634H226.338C226.268 115.446 225.582 115.894 224.574 115.894C223.398 115.894 222.656 115.18 222.572 113.85H227.752V113.29ZM226.338 112.898H222.614C222.796 111.75 223.482 111.19 224.56 111.19C225.694 111.19 226.338 111.764 226.338 112.8V112.898ZM228.06 117H229.922L231.644 114.41L233.436 117H235.424L232.764 113.458L235.298 110.084H233.52L231.868 112.576L230.16 110.084H228.172L230.678 113.458L228.06 117ZM239.539 117.084C240.113 117.084 240.589 116.986 240.799 116.916V115.67C240.603 115.726 240.155 115.796 239.763 115.796C238.811 115.796 238.475 115.348 238.475 114.452V111.358H240.855V110.084H238.475V108.516H237.173L237.103 109.552C237.061 109.944 236.963 110.084 236.697 110.084H235.815V111.358H236.907V114.536C236.907 116.062 237.649 117.084 239.539 117.084ZM245.187 117.112C247.399 117.112 248.813 115.754 248.813 113.556C248.813 111.344 247.399 109.972 245.187 109.972C242.989 109.972 241.575 111.344 241.575 113.556C241.575 115.754 242.989 117.112 245.187 117.112ZM245.187 115.824C243.913 115.824 243.143 114.956 243.143 113.556C243.143 112.142 243.913 111.26 245.187 111.26C246.461 111.26 247.245 112.142 247.245 113.556C247.245 114.956 246.461 115.824 245.187 115.824ZM253.047 117.112C255.259 117.112 256.435 116.286 256.435 114.886C256.435 114.326 256.169 113.794 255.707 113.542C255.217 113.262 254.657 113.164 253.677 113.066C252.837 112.982 252.179 112.912 251.843 112.8C251.437 112.66 251.367 112.38 251.367 112.086C251.367 111.498 251.983 111.106 253.075 111.106C254.223 111.106 254.713 111.54 254.727 112.436H256.141C256.141 110.868 255.189 109.972 253.033 109.972C251.157 109.972 249.813 110.812 249.813 112.198C249.813 112.73 250.037 113.234 250.415 113.514C250.835 113.822 251.563 113.962 252.641 114.06C253.411 114.13 254.069 114.2 254.405 114.326C254.769 114.452 254.867 114.69 254.867 114.956C254.867 115.586 254.307 115.978 253.033 115.978C251.689 115.978 251.227 115.488 251.227 114.69H249.813C249.813 116.048 250.667 117.112 253.047 117.112ZM258.008 112.296H259.59V110.476H258.008V112.296ZM258.008 117H259.59V115.18H258.008V117ZM267.603 117.112C269.017 117.112 269.885 116.412 270.151 115.32H270.179C270.151 115.992 270.137 116.594 270.109 117H271.677V107.298H270.109V111.302H270.095C269.815 110.49 269.003 109.972 267.701 109.972C265.643 109.972 264.341 111.414 264.341 113.5C264.341 115.656 265.601 117.112 267.603 117.112ZM267.925 115.824C266.693 115.824 265.895 114.872 265.895 113.5C265.895 112.184 266.707 111.26 267.953 111.26C269.255 111.26 270.109 112.044 270.109 113.276V113.612C270.109 114.956 269.241 115.824 267.925 115.824ZM279.792 113.29C279.792 111.134 278.546 109.972 276.586 109.972C274.402 109.972 273.03 111.358 273.03 113.598C273.03 115.768 274.402 117.112 276.586 117.112C278.476 117.112 279.736 116.174 279.792 114.634H278.378C278.308 115.446 277.622 115.894 276.614 115.894C275.438 115.894 274.696 115.18 274.612 113.85H279.792V113.29ZM278.378 112.898H274.654C274.836 111.75 275.522 111.19 276.6 111.19C277.734 111.19 278.378 111.764 278.378 112.8V112.898ZM284.133 117.112C286.345 117.112 287.521 116.286 287.521 114.886C287.521 114.326 287.255 113.794 286.793 113.542C286.303 113.262 285.743 113.164 284.763 113.066C283.923 112.982 283.265 112.912 282.929 112.8C282.523 112.66 282.453 112.38 282.453 112.086C282.453 111.498 283.069 111.106 284.161 111.106C285.309 111.106 285.799 111.54 285.813 112.436H287.227C287.227 110.868 286.275 109.972 284.119 109.972C282.243 109.972 280.899 110.812 280.899 112.198C280.899 112.73 281.123 113.234 281.501 113.514C281.921 113.822 282.649 113.962 283.727 114.06C284.497 114.13 285.155 114.2 285.491 114.326C285.855 114.452 285.953 114.69 285.953 114.956C285.953 115.586 285.393 115.978 284.119 115.978C282.775 115.978 282.313 115.488 282.313 114.69H280.899C280.899 116.048 281.753 117.112 284.133 117.112ZM291.88 117.112C293.294 117.112 294.162 116.412 294.428 115.32H294.456C294.428 115.992 294.414 116.594 294.386 117H295.954V107.298H294.386V111.302H294.372C294.092 110.49 293.28 109.972 291.978 109.972C289.92 109.972 288.618 111.414 288.618 113.5C288.618 115.656 289.878 117.112 291.88 117.112ZM292.202 115.824C290.97 115.824 290.172 114.872 290.172 113.5C290.172 112.184 290.984 111.26 292.23 111.26C293.532 111.26 294.386 112.044 294.386 113.276V113.612C294.386 114.956 293.518 115.824 292.202 115.824ZM304.069 113.29C304.069 111.134 302.823 109.972 300.863 109.972C298.679 109.972 297.307 111.358 297.307 113.598C297.307 115.768 298.679 117.112 300.863 117.112C302.753 117.112 304.013 116.174 304.069 114.634H302.655C302.585 115.446 301.899 115.894 300.891 115.894C299.715 115.894 298.973 115.18 298.889 113.85H304.069V113.29ZM302.655 112.898H298.931C299.113 111.75 299.799 111.19 300.877 111.19C302.011 111.19 302.655 111.764 302.655 112.8V112.898ZM0.826 137.772H2.394V135.056C2.394 134.776 2.366 134.062 2.352 133.6H2.366C2.66 134.496 3.556 135.112 4.928 135.112C6.916 135.112 8.176 133.656 8.176 131.416C8.176 129.33 6.93 127.972 4.956 127.972C3.584 127.972 2.66 128.644 2.38 129.694H2.366L2.394 128.084H0.826V137.772ZM4.62 133.824C3.276 133.824 2.394 133.068 2.394 131.892V131.528C2.422 130.142 3.29 129.26 4.592 129.26C5.838 129.26 6.608 130.128 6.608 131.458C6.608 132.9 5.824 133.824 4.62 133.824ZM16.0388 131.29C16.0388 129.134 14.7928 127.972 12.8328 127.972C10.6488 127.972 9.27676 129.358 9.27676 131.598C9.27676 133.768 10.6488 135.112 12.8328 135.112C14.7228 135.112 15.9828 134.174 16.0388 132.634H14.6248C14.5548 133.446 13.8688 133.894 12.8608 133.894C11.6848 133.894 10.9428 133.18 10.8588 131.85H16.0388V131.29ZM14.6248 130.898H10.9008C11.0828 129.75 11.7688 129.19 12.8468 129.19C13.9808 129.19 14.6248 129.764 14.6248 130.8V130.898ZM23.8235 132.186H22.4095C22.3955 133.208 21.7095 133.824 20.6035 133.824C19.4415 133.824 18.7135 132.956 18.7135 131.542C18.7135 130.114 19.4555 129.26 20.6595 129.26C21.7095 129.26 22.3815 129.89 22.3955 130.926H23.8095C23.8095 129.092 22.5495 127.972 20.6175 127.972C18.5315 127.972 17.1455 129.33 17.1455 131.542C17.1455 133.558 18.2655 134.86 20.0015 135.084L19.5535 136.274C19.7355 136.246 20.1835 136.19 20.6595 136.19C21.2475 136.19 21.4295 136.344 21.4295 136.638C21.4295 137.002 21.1775 137.296 20.6035 137.296C20.0295 137.296 19.8195 137.128 19.7635 136.778H18.6575C18.7135 137.506 19.2875 138.052 20.6035 138.052C21.9615 138.052 22.5215 137.38 22.5215 136.624C22.5215 135.994 22.1435 135.588 21.3735 135.588C20.9815 135.588 20.7995 135.7 20.6875 135.77L20.6735 135.756L20.9255 135.098C22.6755 134.958 23.8235 133.908 23.8235 132.186ZM27.2502 135.112C28.7762 135.112 29.6022 134.496 29.8262 133.474H29.8402C29.8402 134.034 29.7982 134.664 29.7702 135H31.3382V130.786C31.3382 128.966 30.1062 127.972 28.0062 127.972C26.0322 127.972 24.8282 128.798 24.8282 130.184C24.8282 130.31 24.8422 130.492 24.8562 130.59H26.2982C26.2842 130.478 26.2842 130.366 26.2842 130.324C26.2842 129.554 26.8862 129.148 27.9502 129.148C29.1682 129.148 29.7702 129.61 29.7702 130.646V131.136H27.2082C25.3602 131.136 24.6182 131.962 24.6182 133.012C24.6182 134.356 25.6682 135.112 27.2502 135.112ZM27.5722 133.936C26.6202 133.936 26.0602 133.572 26.0602 132.942C26.0602 132.396 26.4522 132.088 27.3482 132.088H29.7702V132.214C29.7702 133.278 28.9302 133.936 27.5722 133.936ZM35.8163 135.112C38.0283 135.112 39.2043 134.286 39.2043 132.886C39.2043 132.326 38.9383 131.794 38.4763 131.542C37.9863 131.262 37.4263 131.164 36.4463 131.066C35.6063 130.982 34.9483 130.912 34.6123 130.8C34.2063 130.66 34.1363 130.38 34.1363 130.086C34.1363 129.498 34.7523 129.106 35.8443 129.106C36.9923 129.106 37.4823 129.54 37.4963 130.436H38.9103C38.9103 128.868 37.9583 127.972 35.8023 127.972C33.9263 127.972 32.5823 128.812 32.5823 130.198C32.5823 130.73 32.8063 131.234 33.1843 131.514C33.6043 131.822 34.3323 131.962 35.4103 132.06C36.1803 132.13 36.8383 132.2 37.1743 132.326C37.5383 132.452 37.6363 132.69 37.6363 132.956C37.6363 133.586 37.0763 133.978 35.8023 133.978C34.4583 133.978 33.9963 133.488 33.9963 132.69H32.5823C32.5823 134.048 33.4363 135.112 35.8163 135.112ZM46.742 135.112C48.156 135.112 49.024 134.412 49.29 133.32H49.318C49.29 133.992 49.276 134.594 49.248 135H50.816V125.298H49.248V129.302H49.234C48.954 128.49 48.142 127.972 46.84 127.972C44.782 127.972 43.48 129.414 43.48 131.5C43.48 133.656 44.74 135.112 46.742 135.112ZM47.064 133.824C45.832 133.824 45.034 132.872 45.034 131.5C45.034 130.184 45.846 129.26 47.092 129.26C48.394 129.26 49.248 130.044 49.248 131.276V131.612C49.248 132.956 48.38 133.824 47.064 133.824ZM58.9311 131.29C58.9311 129.134 57.6851 127.972 55.7251 127.972C53.5411 127.972 52.1691 129.358 52.1691 131.598C52.1691 133.768 53.5411 135.112 55.7251 135.112C57.6151 135.112 58.8751 134.174 58.9311 132.634H57.5171C57.4471 133.446 56.7611 133.894 55.7531 133.894C54.5771 133.894 53.8351 133.18 53.7511 131.85H58.9311V131.29ZM57.5171 130.898H53.7931C53.9751 129.75 54.6611 129.19 55.7391 129.19C56.8731 129.19 57.5171 129.764 57.5171 130.8V130.898ZM66.4792 135.112C67.8932 135.112 68.7612 134.412 69.0272 133.32H69.0552C69.0272 133.992 69.0132 134.594 68.9852 135H70.5532V125.298H68.9852V129.302H68.9712C68.6912 128.49 67.8792 127.972 66.5772 127.972C64.5192 127.972 63.2172 129.414 63.2172 131.5C63.2172 133.656 64.4772 135.112 66.4792 135.112ZM66.8012 133.824C65.5692 133.824 64.7712 132.872 64.7712 131.5C64.7712 130.184 65.5832 129.26 66.8292 129.26C68.1312 129.26 68.9852 130.044 68.9852 131.276V131.612C68.9852 132.956 68.1172 133.824 66.8012 133.824ZM78.6683 131.29C78.6683 129.134 77.4223 127.972 75.4623 127.972C73.2783 127.972 71.9063 129.358 71.9063 131.598C71.9063 133.768 73.2783 135.112 75.4623 135.112C77.3523 135.112 78.6123 134.174 78.6683 132.634H77.2543C77.1843 133.446 76.4983 133.894 75.4903 133.894C74.3143 133.894 73.5723 133.18 73.4883 131.85H78.6683V131.29ZM77.2543 130.898H73.5303C73.7123 129.75 74.3983 129.19 75.4763 129.19C76.6103 129.19 77.2543 129.764 77.2543 130.8V130.898ZM83.0091 135.112C85.2211 135.112 86.3971 134.286 86.3971 132.886C86.3971 132.326 86.1311 131.794 85.6691 131.542C85.1791 131.262 84.6191 131.164 83.6391 131.066C82.7991 130.982 82.1411 130.912 81.8051 130.8C81.3991 130.66 81.3291 130.38 81.3291 130.086C81.3291 129.498 81.9451 129.106 83.0371 129.106C84.1851 129.106 84.6751 129.54 84.6891 130.436H86.1031C86.1031 128.868 85.1511 127.972 82.9951 127.972C81.1191 127.972 79.7751 128.812 79.7751 130.198C79.7751 130.73 79.9991 131.234 80.3771 131.514C80.7971 131.822 81.5251 131.962 82.6031 132.06C83.3731 132.13 84.0311 132.2 84.3671 132.326C84.7311 132.452 84.8291 132.69 84.8291 132.956C84.8291 133.586 84.2691 133.978 82.9951 133.978C81.6511 133.978 81.1891 133.488 81.1891 132.69H79.7751C79.7751 134.048 80.6291 135.112 83.0091 135.112ZM87.7454 127.272H89.3554V125.732H87.7454V127.272ZM87.7594 135H89.3274V128.084H87.7594V135ZM95.7258 133.908H93.4858C92.9818 133.908 92.7018 133.67 92.7018 133.278C92.7018 133.04 92.7858 132.844 92.8698 132.746C93.2338 132.844 93.6398 132.9 94.0878 132.9C95.9918 132.9 97.1678 131.962 97.1678 130.436C97.1678 129.918 97.0278 129.456 96.7618 129.092C96.6778 128.826 96.6078 128.588 96.6078 128.392C96.6078 128.014 96.8318 127.818 97.2938 127.818C97.4898 127.818 97.6438 127.846 97.7558 127.888V126.782C97.5878 126.74 97.3918 126.712 97.0558 126.712C96.2298 126.712 95.6978 127.062 95.6978 127.622C95.6978 127.916 95.8238 128.182 96.0338 128.406L96.0198 128.42C95.5158 128.126 94.8718 127.972 94.0878 127.972C92.1838 127.972 91.0078 128.924 91.0078 130.436C91.0078 131.304 91.3858 131.99 92.0718 132.41V132.438C91.6938 132.62 91.4278 133.026 91.4278 133.614C91.4278 134.104 91.6378 134.482 92.0298 134.748V134.762C91.2038 134.804 90.6858 135.322 90.6858 136.022C90.6858 137.268 92.0858 137.982 94.4238 137.982C96.7058 137.982 98.0638 137.114 98.0638 135.658C98.0638 134.552 97.2098 133.908 95.7258 133.908ZM94.0878 129.092C95.0678 129.092 95.6698 129.61 95.6698 130.436C95.6698 131.262 95.0678 131.78 94.0878 131.78C93.1078 131.78 92.5058 131.262 92.5058 130.436C92.5058 129.61 93.1078 129.092 94.0878 129.092ZM94.4098 136.876C93.0798 136.876 92.2398 136.554 92.2398 135.896C92.2398 135.364 92.7438 135.126 93.5278 135.126H95.4038C96.1458 135.126 96.4958 135.378 96.4958 135.84C96.4958 136.456 95.8798 136.876 94.4098 136.876ZM99.2437 135H100.812V131.654C100.812 130.142 101.68 129.316 103.052 129.316C104.298 129.316 104.914 129.932 104.914 131.024V135H106.482V130.674C106.482 128.966 105.404 127.972 103.654 127.972C102.044 127.972 101.148 128.686 100.77 129.932H100.756L100.812 128.084H99.2437V135ZM117.664 131.29C117.664 129.134 116.418 127.972 114.458 127.972C112.274 127.972 110.902 129.358 110.902 131.598C110.902 133.768 112.274 135.112 114.458 135.112C116.348 135.112 117.608 134.174 117.664 132.634H116.25C116.18 133.446 115.494 133.894 114.486 133.894C113.31 133.894 112.568 133.18 112.484 131.85H117.664V131.29ZM116.25 130.898H112.526C112.708 129.75 113.394 129.19 114.472 129.19C115.606 129.19 116.25 129.764 116.25 130.8V130.898ZM125.212 135.112C126.626 135.112 127.494 134.412 127.76 133.32H127.788C127.76 133.992 127.746 134.594 127.718 135H129.286V125.298H127.718V129.302H127.704C127.424 128.49 126.612 127.972 125.31 127.972C123.252 127.972 121.95 129.414 121.95 131.5C121.95 133.656 123.21 135.112 125.212 135.112ZM125.534 133.824C124.302 133.824 123.504 132.872 123.504 131.5C123.504 130.184 124.316 129.26 125.562 129.26C126.864 129.26 127.718 130.044 127.718 131.276V131.612C127.718 132.956 126.85 133.824 125.534 133.824ZM137.401 131.29C137.401 129.134 136.155 127.972 134.195 127.972C132.011 127.972 130.639 129.358 130.639 131.598C130.639 133.768 132.011 135.112 134.195 135.112C136.085 135.112 137.345 134.174 137.401 132.634H135.987C135.917 133.446 135.231 133.894 134.223 133.894C133.047 133.894 132.305 133.18 132.221 131.85H137.401V131.29ZM135.987 130.898H132.263C132.445 129.75 133.131 129.19 134.209 129.19C135.343 129.19 135.987 129.764 135.987 130.8V130.898ZM141.896 135.112C143.87 135.112 145.186 134.034 145.186 132.186H143.772C143.758 133.208 143.072 133.824 141.966 133.824C140.804 133.824 140.076 132.956 140.076 131.542C140.076 130.114 140.818 129.26 142.022 129.26C143.072 129.26 143.744 129.89 143.758 130.926H145.172C145.172 129.092 143.912 127.972 141.98 127.972C139.894 127.972 138.508 129.33 138.508 131.542C138.508 133.754 139.866 135.112 141.896 135.112ZM146.574 127.272H148.184V125.732H146.574V127.272ZM146.588 135H148.156V128.084H146.588V135ZM152.777 135.112C154.989 135.112 156.165 134.286 156.165 132.886C156.165 132.326 155.899 131.794 155.437 131.542C154.947 131.262 154.387 131.164 153.407 131.066C152.567 130.982 151.909 130.912 151.573 130.8C151.167 130.66 151.097 130.38 151.097 130.086C151.097 129.498 151.713 129.106 152.805 129.106C153.953 129.106 154.443 129.54 154.457 130.436H155.871C155.871 128.868 154.919 127.972 152.763 127.972C150.887 127.972 149.543 128.812 149.543 130.198C149.543 130.73 149.767 131.234 150.145 131.514C150.565 131.822 151.293 131.962 152.371 132.06C153.141 132.13 153.799 132.2 154.135 132.326C154.499 132.452 154.597 132.69 154.597 132.956C154.597 133.586 154.037 133.978 152.763 133.978C151.419 133.978 150.957 133.488 150.957 132.69H149.543C149.543 134.048 150.397 135.112 152.777 135.112ZM158.311 127.23H159.305C159.389 126.46 159.613 126.152 159.893 126.152C160.145 126.152 160.271 126.264 160.509 126.502L160.719 126.712C161.013 127.006 161.335 127.23 161.867 127.23C162.637 127.23 163.309 126.67 163.421 125.172H162.441C162.357 125.956 162.133 126.264 161.839 126.264C161.601 126.264 161.461 126.138 161.223 125.9L161.013 125.704C160.719 125.41 160.397 125.172 159.865 125.172C159.109 125.172 158.423 125.746 158.311 127.23ZM160.873 135.112C163.085 135.112 164.499 133.754 164.499 131.556C164.499 129.344 163.085 127.972 160.873 127.972C158.675 127.972 157.261 129.344 157.261 131.556C157.261 133.754 158.675 135.112 160.873 135.112ZM160.873 133.824C159.599 133.824 158.829 132.956 158.829 131.556C158.829 130.142 159.599 129.26 160.873 129.26C162.147 129.26 162.931 130.142 162.931 131.556C162.931 132.956 162.147 133.824 160.873 133.824ZM172.343 131.29C172.343 129.134 171.097 127.972 169.137 127.972C166.953 127.972 165.581 129.358 165.581 131.598C165.581 133.768 166.953 135.112 169.137 135.112C171.027 135.112 172.287 134.174 172.343 132.634H170.929C170.859 133.446 170.173 133.894 169.165 133.894C167.989 133.894 167.247 133.18 167.163 131.85H172.343V131.29ZM170.929 130.898H167.205C167.387 129.75 168.073 129.19 169.151 129.19C170.285 129.19 170.929 129.764 170.929 130.8V130.898ZM176.684 135.112C178.896 135.112 180.072 134.286 180.072 132.886C180.072 132.326 179.806 131.794 179.344 131.542C178.854 131.262 178.294 131.164 177.314 131.066C176.474 130.982 175.816 130.912 175.48 130.8C175.074 130.66 175.004 130.38 175.004 130.086C175.004 129.498 175.62 129.106 176.712 129.106C177.86 129.106 178.35 129.54 178.364 130.436H179.778C179.778 128.868 178.826 127.972 176.67 127.972C174.794 127.972 173.45 128.812 173.45 130.198C173.45 130.73 173.674 131.234 174.052 131.514C174.472 131.822 175.2 131.962 176.278 132.06C177.048 132.13 177.706 132.2 178.042 132.326C178.406 132.452 178.504 132.69 178.504 132.956C178.504 133.586 177.944 133.978 176.67 133.978C175.326 133.978 174.864 133.488 174.864 132.69H173.45C173.45 134.048 174.304 135.112 176.684 135.112ZM187.609 135.112C189.023 135.112 189.891 134.412 190.157 133.32H190.185C190.157 133.992 190.143 134.594 190.115 135H191.683V125.298H190.115V129.302H190.101C189.821 128.49 189.009 127.972 187.707 127.972C185.649 127.972 184.347 129.414 184.347 131.5C184.347 133.656 185.607 135.112 187.609 135.112ZM187.931 133.824C186.699 133.824 185.901 132.872 185.901 131.5C185.901 130.184 186.713 129.26 187.959 129.26C189.261 129.26 190.115 130.044 190.115 131.276V131.612C190.115 132.956 189.247 133.824 187.931 133.824ZM199.798 131.29C199.798 129.134 198.552 127.972 196.592 127.972C194.408 127.972 193.036 129.358 193.036 131.598C193.036 133.768 194.408 135.112 196.592 135.112C198.482 135.112 199.742 134.174 199.798 132.634H198.384C198.314 133.446 197.628 133.894 196.62 133.894C195.444 133.894 194.702 133.18 194.618 131.85H199.798V131.29ZM198.384 130.898H194.66C194.842 129.75 195.528 129.19 196.606 129.19C197.74 129.19 198.384 129.764 198.384 130.8V130.898ZM210.847 131.29C210.847 129.134 209.601 127.972 207.641 127.972C205.457 127.972 204.085 129.358 204.085 131.598C204.085 133.768 205.457 135.112 207.641 135.112C209.531 135.112 210.791 134.174 210.847 132.634H209.433C209.363 133.446 208.677 133.894 207.669 133.894C206.493 133.894 205.751 133.18 205.667 131.85H210.847V131.29ZM209.433 130.898H205.709C205.891 129.75 206.577 129.19 207.655 129.19C208.789 129.19 209.433 129.764 209.433 130.8V130.898ZM215.187 135.112C217.399 135.112 218.575 134.286 218.575 132.886C218.575 132.326 218.309 131.794 217.847 131.542C217.357 131.262 216.797 131.164 215.817 131.066C214.977 130.982 214.319 130.912 213.983 130.8C213.577 130.66 213.507 130.38 213.507 130.086C213.507 129.498 214.123 129.106 215.215 129.106C216.363 129.106 216.853 129.54 216.867 130.436H218.281C218.281 128.868 217.329 127.972 215.173 127.972C213.297 127.972 211.953 128.812 211.953 130.198C211.953 130.73 212.177 131.234 212.555 131.514C212.975 131.822 213.703 131.962 214.781 132.06C215.551 132.13 216.209 132.2 216.545 132.326C216.909 132.452 217.007 132.69 217.007 132.956C217.007 133.586 216.447 133.978 215.173 133.978C213.829 133.978 213.367 133.488 213.367 132.69H211.953C211.953 134.048 212.807 135.112 215.187 135.112ZM222.962 135.084C223.536 135.084 224.012 134.986 224.222 134.916V133.67C224.026 133.726 223.578 133.796 223.186 133.796C222.234 133.796 221.898 133.348 221.898 132.452V129.358H224.278V128.084H221.898V126.516H220.596L220.526 127.552C220.484 127.944 220.386 128.084 220.12 128.084H219.238V129.358H220.33V132.536C220.33 134.062 221.072 135.084 222.962 135.084ZM225.481 135H227.049V131.976C227.049 130.324 227.791 129.316 228.981 129.316C229.905 129.316 230.353 129.862 230.353 131.024C230.353 131.346 230.325 131.696 230.297 131.962H231.725C231.753 131.668 231.795 131.108 231.795 130.674C231.795 128.952 230.969 127.972 229.471 127.972C228.043 127.972 227.329 128.826 227.007 130.072H226.993L227.049 128.084H225.481V135ZM235.526 135.112C237.052 135.112 237.878 134.496 238.102 133.474H238.116C238.116 134.034 238.074 134.664 238.046 135H239.614V130.786C239.614 128.966 238.382 127.972 236.282 127.972C234.308 127.972 233.104 128.798 233.104 130.184C233.104 130.31 233.118 130.492 233.132 130.59H234.574C234.56 130.478 234.56 130.366 234.56 130.324C234.56 129.554 235.162 129.148 236.226 129.148C237.444 129.148 238.046 129.61 238.046 130.646V131.136H235.484C233.636 131.136 232.894 131.962 232.894 133.012C232.894 134.356 233.944 135.112 235.526 135.112ZM235.848 133.936C234.896 133.936 234.336 133.572 234.336 132.942C234.336 132.396 234.728 132.088 235.624 132.088H238.046V132.214C238.046 133.278 237.206 133.936 235.848 133.936ZM244.148 135.084C244.722 135.084 245.198 134.986 245.408 134.916V133.67C245.212 133.726 244.764 133.796 244.372 133.796C243.42 133.796 243.084 133.348 243.084 132.452V129.358H245.464V128.084H243.084V126.516H241.782L241.712 127.552C241.67 127.944 241.572 128.084 241.306 128.084H240.424V129.358H241.516V132.536C241.516 134.062 242.258 135.084 244.148 135.084ZM251.602 125.41H249.964L248.872 127.37H250.104L251.602 125.41ZM252.946 131.29C252.946 129.134 251.7 127.972 249.74 127.972C247.556 127.972 246.184 129.358 246.184 131.598C246.184 133.768 247.556 135.112 249.74 135.112C251.63 135.112 252.89 134.174 252.946 132.634H251.532C251.462 133.446 250.776 133.894 249.768 133.894C248.592 133.894 247.85 133.18 247.766 131.85H252.946V131.29ZM251.532 130.898H247.808C247.99 129.75 248.676 129.19 249.754 129.19C250.888 129.19 251.532 129.764 251.532 130.8V130.898ZM258.983 133.908H256.743C256.239 133.908 255.959 133.67 255.959 133.278C255.959 133.04 256.043 132.844 256.127 132.746C256.491 132.844 256.897 132.9 257.345 132.9C259.249 132.9 260.425 131.962 260.425 130.436C260.425 129.918 260.285 129.456 260.019 129.092C259.935 128.826 259.865 128.588 259.865 128.392C259.865 128.014 260.089 127.818 260.551 127.818C260.747 127.818 260.901 127.846 261.013 127.888V126.782C260.845 126.74 260.649 126.712 260.313 126.712C259.487 126.712 258.955 127.062 258.955 127.622C258.955 127.916 259.081 128.182 259.291 128.406L259.277 128.42C258.773 128.126 258.129 127.972 257.345 127.972C255.441 127.972 254.265 128.924 254.265 130.436C254.265 131.304 254.643 131.99 255.329 132.41V132.438C254.951 132.62 254.685 133.026 254.685 133.614C254.685 134.104 254.895 134.482 255.287 134.748V134.762C254.461 134.804 253.943 135.322 253.943 136.022C253.943 137.268 255.343 137.982 257.681 137.982C259.963 137.982 261.321 137.114 261.321 135.658C261.321 134.552 260.467 133.908 258.983 133.908ZM257.345 129.092C258.325 129.092 258.927 129.61 258.927 130.436C258.927 131.262 258.325 131.78 257.345 131.78C256.365 131.78 255.763 131.262 255.763 130.436C255.763 129.61 256.365 129.092 257.345 129.092ZM257.667 136.876C256.337 136.876 255.497 136.554 255.497 135.896C255.497 135.364 256.001 135.126 256.785 135.126H258.661C259.403 135.126 259.753 135.378 259.753 135.84C259.753 136.456 259.137 136.876 257.667 136.876ZM262.543 127.272H264.153V125.732H262.543V127.272ZM262.557 135H264.125V128.084H262.557V135ZM268.157 135.112C269.683 135.112 270.509 134.496 270.733 133.474H270.747C270.747 134.034 270.705 134.664 270.677 135H272.245V130.786C272.245 128.966 271.013 127.972 268.913 127.972C266.939 127.972 265.735 128.798 265.735 130.184C265.735 130.31 265.749 130.492 265.763 130.59H267.205C267.191 130.478 267.191 130.366 267.191 130.324C267.191 129.554 267.793 129.148 268.857 129.148C270.075 129.148 270.677 129.61 270.677 130.646V131.136H268.115C266.267 131.136 265.525 131.962 265.525 133.012C265.525 134.356 266.575 135.112 268.157 135.112ZM268.479 133.936C267.527 133.936 266.967 133.572 266.967 132.942C266.967 132.396 267.359 132.088 268.255 132.088H270.677V132.214C270.677 133.278 269.837 133.936 268.479 133.936ZM279.93 135.112C281.344 135.112 282.212 134.412 282.478 133.32H282.506C282.478 133.992 282.464 134.594 282.436 135H284.004V125.298H282.436V129.302H282.422C282.142 128.49 281.33 127.972 280.028 127.972C277.97 127.972 276.668 129.414 276.668 131.5C276.668 133.656 277.928 135.112 279.93 135.112ZM280.252 133.824C279.02 133.824 278.222 132.872 278.222 131.5C278.222 130.184 279.034 129.26 280.28 129.26C281.582 129.26 282.436 130.044 282.436 131.276V131.612C282.436 132.956 281.568 133.824 280.252 133.824ZM292.119 131.29C292.119 129.134 290.873 127.972 288.913 127.972C286.729 127.972 285.357 129.358 285.357 131.598C285.357 133.768 286.729 135.112 288.913 135.112C290.803 135.112 292.063 134.174 292.119 132.634H290.705C290.635 133.446 289.949 133.894 288.941 133.894C287.765 133.894 287.023 133.18 286.939 131.85H292.119V131.29ZM290.705 130.898H286.981C287.163 129.75 287.849 129.19 288.927 129.19C290.061 129.19 290.705 129.764 290.705 130.8V130.898ZM0.826 145.272H2.436V143.732H0.826V145.272ZM0.84 153H2.408V146.084H0.84V153ZM7.05634 153.112C8.47034 153.112 9.33834 152.412 9.60434 151.32H9.63234C9.60434 151.992 9.59034 152.594 9.56234 153H11.1303V143.298H9.56234V147.302H9.54834C9.26834 146.49 8.45634 145.972 7.15434 145.972C5.09634 145.972 3.79434 147.414 3.79434 149.5C3.79434 151.656 5.05434 153.112 7.05634 153.112ZM7.37834 151.824C6.14634 151.824 5.34834 150.872 5.34834 149.5C5.34834 148.184 6.16034 147.26 7.40634 147.26C8.70834 147.26 9.56234 148.044 9.56234 149.276V149.612C9.56234 150.956 8.69434 151.824 7.37834 151.824ZM19.2454 149.29C19.2454 147.134 17.9994 145.972 16.0394 145.972C13.8554 145.972 12.4834 147.358 12.4834 149.598C12.4834 151.768 13.8554 153.112 16.0394 153.112C17.9294 153.112 19.1894 152.174 19.2454 150.634H17.8314C17.7614 151.446 17.0754 151.894 16.0674 151.894C14.8914 151.894 14.1494 151.18 14.0654 149.85H19.2454V149.29ZM17.8314 148.898H14.1074C14.2894 147.75 14.9754 147.19 16.0534 147.19C17.1874 147.19 17.8314 147.764 17.8314 148.8V148.898ZM20.5622 153H22.1302V149.654C22.1302 148.142 22.9982 147.316 24.3702 147.316C25.6162 147.316 26.2322 147.932 26.2322 149.024V153H27.8002V148.674C27.8002 146.966 26.7222 145.972 24.9722 145.972C23.3622 145.972 22.4662 146.686 22.0882 147.932H22.0742L22.1302 146.084H20.5622V153ZM32.3313 153.084C32.9053 153.084 33.3813 152.986 33.5913 152.916V151.67C33.3953 151.726 32.9473 151.796 32.5553 151.796C31.6033 151.796 31.2673 151.348 31.2673 150.452V147.358H33.6473V146.084H31.2673V144.516H29.9653L29.8953 145.552C29.8533 145.944 29.7553 146.084 29.4893 146.084H28.6073V147.358H29.6993V150.536C29.6993 152.062 30.4413 153.084 32.3313 153.084ZM34.8925 145.272H36.5025V143.732H34.8925V145.272ZM34.9065 153H36.4745V146.084H34.9065V153ZM41.1229 153.112C42.5369 153.112 43.4049 152.412 43.6709 151.32H43.6989C43.6709 151.992 43.6569 152.594 43.6289 153H45.1969V143.298H43.6289V147.302H43.6149C43.3349 146.49 42.5229 145.972 41.2209 145.972C39.1629 145.972 37.8609 147.414 37.8609 149.5C37.8609 151.656 39.1209 153.112 41.1229 153.112ZM41.4449 151.824C40.2129 151.824 39.4149 150.872 39.4149 149.5C39.4149 148.184 40.2269 147.26 41.4729 147.26C42.7749 147.26 43.6289 148.044 43.6289 149.276V149.612C43.6289 150.956 42.7609 151.824 41.4449 151.824ZM49.196 153.112C50.722 153.112 51.548 152.496 51.772 151.474H51.786C51.786 152.034 51.744 152.664 51.716 153H53.284V148.786C53.284 146.966 52.052 145.972 49.952 145.972C47.978 145.972 46.774 146.798 46.774 148.184C46.774 148.31 46.788 148.492 46.802 148.59H48.244C48.23 148.478 48.23 148.366 48.23 148.324C48.23 147.554 48.832 147.148 49.896 147.148C51.114 147.148 51.716 147.61 51.716 148.646V149.136H49.154C47.306 149.136 46.564 149.962 46.564 151.012C46.564 152.356 47.614 153.112 49.196 153.112ZM49.518 151.936C48.566 151.936 48.006 151.572 48.006 150.942C48.006 150.396 48.398 150.088 49.294 150.088H51.716V150.214C51.716 151.278 50.876 151.936 49.518 151.936ZM57.7901 153.112C59.2041 153.112 60.0721 152.412 60.3381 151.32H60.3661C60.3381 151.992 60.3241 152.594 60.2961 153H61.8641V143.298H60.2961V147.302H60.2821C60.0021 146.49 59.1901 145.972 57.8881 145.972C55.8301 145.972 54.5281 147.414 54.5281 149.5C54.5281 151.656 55.7881 153.112 57.7901 153.112ZM58.1121 151.824C56.8801 151.824 56.0821 150.872 56.0821 149.5C56.0821 148.184 56.8941 147.26 58.1401 147.26C59.4421 147.26 60.2961 148.044 60.2961 149.276V149.612C60.2961 150.956 59.4281 151.824 58.1121 151.824ZM69.9792 149.29C69.9792 147.134 68.7332 145.972 66.7732 145.972C64.5892 145.972 63.2172 147.358 63.2172 149.598C63.2172 151.768 64.5892 153.112 66.7732 153.112C68.6632 153.112 69.9232 152.174 69.9792 150.634H68.5652C68.4952 151.446 67.8092 151.894 66.8012 151.894C65.6252 151.894 64.8832 151.18 64.7992 149.85H69.9792V149.29ZM68.5652 148.898H64.8412C65.0232 147.75 65.7092 147.19 66.7872 147.19C67.9212 147.19 68.5652 147.764 68.5652 148.8V148.898ZM76.9953 153H78.8573L81.8533 146.084H80.2153L78.0173 151.53H77.9893L75.8193 146.084H73.9853L76.9953 153ZM82.9193 145.272H84.5293V143.732H82.9193V145.272ZM82.9333 153H84.5013V146.084H82.9333V153ZM89.1216 153.112C91.3336 153.112 92.5096 152.286 92.5096 150.886C92.5096 150.326 92.2436 149.794 91.7816 149.542C91.2916 149.262 90.7316 149.164 89.7516 149.066C88.9116 148.982 88.2536 148.912 87.9176 148.8C87.5116 148.66 87.4416 148.38 87.4416 148.086C87.4416 147.498 88.0576 147.106 89.1496 147.106C90.2976 147.106 90.7876 147.54 90.8016 148.436H92.2156C92.2156 146.868 91.2636 145.972 89.1076 145.972C87.2316 145.972 85.8876 146.812 85.8876 148.198C85.8876 148.73 86.1116 149.234 86.4896 149.514C86.9096 149.822 87.6376 149.962 88.7156 150.06C89.4856 150.13 90.1436 150.2 90.4796 150.326C90.8436 150.452 90.9416 150.69 90.9416 150.956C90.9416 151.586 90.3816 151.978 89.1076 151.978C87.7636 151.978 87.3016 151.488 87.3016 150.69H85.8876C85.8876 152.048 86.7416 153.112 89.1216 153.112ZM96.658 153.112C98.198 153.112 99.164 152.384 99.458 151.068H99.472C99.472 151.796 99.444 152.538 99.402 153H100.97V146.084H99.402V149.15C99.402 150.83 98.52 151.768 97.12 151.768C95.986 151.768 95.314 151.152 95.314 150.06V146.084H93.746V150.284C93.746 152.118 94.852 153.112 96.658 153.112ZM104.927 153.112C106.453 153.112 107.279 152.496 107.503 151.474H107.517C107.517 152.034 107.475 152.664 107.447 153H109.015V148.786C109.015 146.966 107.783 145.972 105.683 145.972C103.709 145.972 102.505 146.798 102.505 148.184C102.505 148.31 102.519 148.492 102.533 148.59H103.975C103.961 148.478 103.961 148.366 103.961 148.324C103.961 147.554 104.563 147.148 105.627 147.148C106.845 147.148 107.447 147.61 107.447 148.646V149.136H104.885C103.037 149.136 102.295 149.962 102.295 151.012C102.295 152.356 103.345 153.112 104.927 153.112ZM105.249 151.936C104.297 151.936 103.737 151.572 103.737 150.942C103.737 150.396 104.129 150.088 105.025 150.088H107.447V150.214C107.447 151.278 106.607 151.936 105.249 151.936ZM110.512 153H112.08V143.298H110.512V153ZM119.74 145.37H120.958L119.866 143.41H118.228L119.74 145.37ZM119.278 153.112C120.804 153.112 121.63 152.496 121.854 151.474H121.868C121.868 152.034 121.826 152.664 121.798 153H123.366V148.786C123.366 146.966 122.134 145.972 120.034 145.972C118.06 145.972 116.856 146.798 116.856 148.184C116.856 148.31 116.87 148.492 116.884 148.59H118.326C118.312 148.478 118.312 148.366 118.312 148.324C118.312 147.554 118.914 147.148 119.978 147.148C121.196 147.148 121.798 147.61 121.798 148.646V149.136H119.236C117.388 149.136 116.646 149.962 116.646 151.012C116.646 152.356 117.696 153.112 119.278 153.112ZM119.6 151.936C118.648 151.936 118.088 151.572 118.088 150.942C118.088 150.396 118.48 150.088 119.376 150.088H121.798V150.214C121.798 151.278 120.958 151.936 119.6 151.936ZM128.027 145.272H129.651V143.732H128.027V145.272ZM127.187 155.926C128.839 155.926 129.623 154.82 129.623 153.196V146.084H128.055V153.14C128.055 154.078 127.677 154.624 126.795 154.624C126.473 154.624 126.137 154.582 125.871 154.526V155.772C126.067 155.828 126.557 155.926 127.187 155.926ZM134.622 153.112C136.834 153.112 138.248 151.754 138.248 149.556C138.248 147.344 136.834 145.972 134.622 145.972C132.424 145.972 131.01 147.344 131.01 149.556C131.01 151.754 132.424 153.112 134.622 153.112ZM134.622 151.824C133.348 151.824 132.578 150.956 132.578 149.556C132.578 148.142 133.348 147.26 134.622 147.26C135.896 147.26 136.68 148.142 136.68 149.556C136.68 150.956 135.896 151.824 134.622 151.824ZM144.26 151.908H142.02C141.516 151.908 141.236 151.67 141.236 151.278C141.236 151.04 141.32 150.844 141.404 150.746C141.768 150.844 142.174 150.9 142.622 150.9C144.526 150.9 145.702 149.962 145.702 148.436C145.702 147.918 145.562 147.456 145.296 147.092C145.212 146.826 145.142 146.588 145.142 146.392C145.142 146.014 145.366 145.818 145.828 145.818C146.024 145.818 146.178 145.846 146.29 145.888V144.782C146.122 144.74 145.926 144.712 145.59 144.712C144.764 144.712 144.232 145.062 144.232 145.622C144.232 145.916 144.358 146.182 144.568 146.406L144.554 146.42C144.05 146.126 143.406 145.972 142.622 145.972C140.718 145.972 139.542 146.924 139.542 148.436C139.542 149.304 139.92 149.99 140.606 150.41V150.438C140.228 150.62 139.962 151.026 139.962 151.614C139.962 152.104 140.172 152.482 140.564 152.748V152.762C139.738 152.804 139.22 153.322 139.22 154.022C139.22 155.268 140.62 155.982 142.958 155.982C145.24 155.982 146.598 155.114 146.598 153.658C146.598 152.552 145.744 151.908 144.26 151.908ZM142.622 147.092C143.602 147.092 144.204 147.61 144.204 148.436C144.204 149.262 143.602 149.78 142.622 149.78C141.642 149.78 141.04 149.262 141.04 148.436C141.04 147.61 141.642 147.092 142.622 147.092ZM142.944 154.876C141.614 154.876 140.774 154.554 140.774 153.896C140.774 153.364 141.278 153.126 142.062 153.126H143.938C144.68 153.126 145.03 153.378 145.03 153.84C145.03 154.456 144.414 154.876 142.944 154.876ZM149.981 153.112C151.507 153.112 152.333 152.496 152.557 151.474H152.571C152.571 152.034 152.529 152.664 152.501 153H154.069V148.786C154.069 146.966 152.837 145.972 150.737 145.972C148.763 145.972 147.559 146.798 147.559 148.184C147.559 148.31 147.573 148.492 147.587 148.59H149.029C149.015 148.478 149.015 148.366 149.015 148.324C149.015 147.554 149.617 147.148 150.681 147.148C151.899 147.148 152.501 147.61 152.501 148.646V149.136H149.939C148.091 149.136 147.349 149.962 147.349 151.012C147.349 152.356 148.399 153.112 149.981 153.112ZM150.303 151.936C149.351 151.936 148.791 151.572 148.791 150.942C148.791 150.396 149.183 150.088 150.079 150.088H152.501V150.214C152.501 151.278 151.661 151.936 150.303 151.936ZM158.603 153.084C159.177 153.084 159.653 152.986 159.863 152.916V151.67C159.667 151.726 159.219 151.796 158.827 151.796C157.875 151.796 157.539 151.348 157.539 150.452V147.358H159.919V146.084H157.539V144.516H156.237L156.167 145.552C156.125 145.944 156.027 146.084 155.761 146.084H154.879V147.358H155.971V150.536C155.971 152.062 156.713 153.084 158.603 153.084ZM161.165 145.272H162.775V143.732H161.165V145.272ZM161.179 153H162.747V146.084H161.179V153ZM164.343 153H165.911V149.654C165.911 148.142 166.779 147.316 168.151 147.316C169.397 147.316 170.013 147.932 170.013 149.024V153H171.581V148.674C171.581 146.966 170.503 145.972 168.753 145.972C167.143 145.972 166.247 146.686 165.869 147.932H165.855L165.911 146.084H164.343V153ZM175.468 153.112C176.994 153.112 177.82 152.496 178.044 151.474H178.058C178.058 152.034 178.016 152.664 177.988 153H179.556V148.786C179.556 146.966 178.324 145.972 176.224 145.972C174.25 145.972 173.046 146.798 173.046 148.184C173.046 148.31 173.06 148.492 173.074 148.59H174.516C174.502 148.478 174.502 148.366 174.502 148.324C174.502 147.554 175.104 147.148 176.168 147.148C177.386 147.148 177.988 147.61 177.988 148.646V149.136H175.426C173.578 149.136 172.836 149.962 172.836 151.012C172.836 152.356 173.886 153.112 175.468 153.112ZM175.79 151.936C174.838 151.936 174.278 151.572 174.278 150.942C174.278 150.396 174.67 150.088 175.566 150.088H177.988V150.214C177.988 151.278 177.148 151.936 175.79 151.936ZM184.034 153.112C186.246 153.112 187.422 152.286 187.422 150.886C187.422 150.326 187.156 149.794 186.694 149.542C186.204 149.262 185.644 149.164 184.664 149.066C183.824 148.982 183.166 148.912 182.83 148.8C182.424 148.66 182.354 148.38 182.354 148.086C182.354 147.498 182.97 147.106 184.062 147.106C185.21 147.106 185.7 147.54 185.714 148.436H187.128C187.128 146.868 186.176 145.972 184.02 145.972C182.144 145.972 180.8 146.812 180.8 148.198C180.8 148.73 181.024 149.234 181.402 149.514C181.822 149.822 182.55 149.962 183.628 150.06C184.398 150.13 185.056 150.2 185.392 150.326C185.756 150.452 185.854 150.69 185.854 150.956C185.854 151.586 185.294 151.978 184.02 151.978C182.676 151.978 182.214 151.488 182.214 150.69H180.8C180.8 152.048 181.654 153.112 184.034 153.112ZM195.31 153.112C197.522 153.112 198.936 151.754 198.936 149.556C198.936 147.344 197.522 145.972 195.31 145.972C193.112 145.972 191.698 147.344 191.698 149.556C191.698 151.754 193.112 153.112 195.31 153.112ZM195.31 151.824C194.036 151.824 193.266 150.956 193.266 149.556C193.266 148.142 194.036 147.26 195.31 147.26C196.584 147.26 197.368 148.142 197.368 149.556C197.368 150.956 196.584 151.824 195.31 151.824ZM200.228 153H201.796V149.654C201.796 148.142 202.664 147.316 204.036 147.316C205.282 147.316 205.898 147.932 205.898 149.024V153H207.466V148.674C207.466 146.966 206.388 145.972 204.638 145.972C203.028 145.972 202.132 146.686 201.754 147.932H201.74L201.796 146.084H200.228V153ZM208.959 153H210.527V143.298H208.959V153ZM212.152 145.272H213.762V143.732H212.152V145.272ZM212.166 153H213.734V146.084H212.166V153ZM215.33 153H216.898V149.654C216.898 148.142 217.766 147.316 219.138 147.316C220.384 147.316 221 147.932 221 149.024V153H222.568V148.674C222.568 146.966 221.49 145.972 219.74 145.972C218.13 145.972 217.234 146.686 216.856 147.932H216.842L216.898 146.084H215.33V153ZM230.571 149.29C230.571 147.134 229.325 145.972 227.365 145.972C225.181 145.972 223.809 147.358 223.809 149.598C223.809 151.768 225.181 153.112 227.365 153.112C229.255 153.112 230.515 152.174 230.571 150.634H229.157C229.087 151.446 228.401 151.894 227.393 151.894C226.217 151.894 225.475 151.18 225.391 149.85H230.571V149.29ZM229.157 148.898H225.433C225.615 147.75 226.301 147.19 227.379 147.19C228.513 147.19 229.157 147.764 229.157 148.8V148.898ZM241.619 149.29C241.619 147.134 240.373 145.972 238.413 145.972C236.229 145.972 234.857 147.358 234.857 149.598C234.857 151.768 236.229 153.112 238.413 153.112C240.303 153.112 241.563 152.174 241.619 150.634H240.205C240.135 151.446 239.449 151.894 238.441 151.894C237.265 151.894 236.523 151.18 236.439 149.85H241.619V149.29ZM240.205 148.898H236.481C236.663 147.75 237.349 147.19 238.427 147.19C239.561 147.19 240.205 147.764 240.205 148.8V148.898ZM242.936 153H244.504V149.626C244.504 148.142 245.218 147.316 246.282 147.316C247.22 147.316 247.738 147.932 247.738 148.912V153H249.306V149.57C249.306 148.128 250.006 147.316 251.098 147.316C252.036 147.316 252.526 147.932 252.526 148.94V153H254.094V148.59C254.094 146.966 253.212 145.972 251.672 145.972C250.356 145.972 249.516 146.672 249.264 147.792H249.25C249.082 146.672 248.214 145.972 246.87 145.972C245.61 145.972 244.77 146.714 244.462 147.904H244.448L244.504 146.084H242.936V153ZM3.962 171.112C5.936 171.112 7.252 170.034 7.252 168.186H5.838C5.824 169.208 5.138 169.824 4.032 169.824C2.87 169.824 2.142 168.956 2.142 167.542C2.142 166.114 2.884 165.26 4.088 165.26C5.138 165.26 5.81 165.89 5.824 166.926H7.238C7.238 165.092 5.978 163.972 4.046 163.972C1.96 163.972 0.574 165.33 0.574 167.542C0.574 169.754 1.932 171.112 3.962 171.112ZM10.6786 171.112C12.2046 171.112 13.0306 170.496 13.2546 169.474H13.2686C13.2686 170.034 13.2266 170.664 13.1986 171H14.7666V166.786C14.7666 164.966 13.5346 163.972 11.4346 163.972C9.46062 163.972 8.25662 164.798 8.25662 166.184C8.25662 166.31 8.27062 166.492 8.28462 166.59H9.72662C9.71262 166.478 9.71262 166.366 9.71262 166.324C9.71262 165.554 10.3146 165.148 11.3786 165.148C12.5966 165.148 13.1986 165.61 13.1986 166.646V167.136H10.6366C8.78862 167.136 8.04662 167.962 8.04662 169.012C8.04662 170.356 9.09662 171.112 10.6786 171.112ZM11.0006 169.936C10.0486 169.936 9.48862 169.572 9.48862 168.942C9.48862 168.396 9.88062 168.088 10.7766 168.088H13.1986V168.214C13.1986 169.278 12.3586 169.936 11.0006 169.936ZM16.2208 171H17.7888V167.626C17.7888 166.142 18.5028 165.316 19.5668 165.316C20.5048 165.316 21.0228 165.932 21.0228 166.912V171H22.5908V167.57C22.5908 166.128 23.2908 165.316 24.3828 165.316C25.3208 165.316 25.8108 165.932 25.8108 166.94V171H27.3788V166.59C27.3788 164.966 26.4968 163.972 24.9568 163.972C23.6408 163.972 22.8008 164.672 22.5488 165.792H22.5348C22.3668 164.672 21.4988 163.972 20.1548 163.972C18.8948 163.972 18.0548 164.714 17.7468 165.904H17.7328L17.7888 164.084H16.2208V171ZM28.8757 173.772H30.4437V171.056C30.4437 170.776 30.4157 170.062 30.4017 169.6H30.4157C30.7097 170.496 31.6057 171.112 32.9777 171.112C34.9657 171.112 36.2257 169.656 36.2257 167.416C36.2257 165.33 34.9797 163.972 33.0057 163.972C31.6337 163.972 30.7097 164.644 30.4297 165.694H30.4157L30.4437 164.084H28.8757V173.772ZM32.6697 169.824C31.3257 169.824 30.4437 169.068 30.4437 167.892V167.528C30.4717 166.142 31.3397 165.26 32.6417 165.26C33.8877 165.26 34.6577 166.128 34.6577 167.458C34.6577 168.9 33.8737 169.824 32.6697 169.824ZM44.0884 167.29C44.0884 165.134 42.8424 163.972 40.8824 163.972C38.6984 163.972 37.3264 165.358 37.3264 167.598C37.3264 169.768 38.6984 171.112 40.8824 171.112C42.7724 171.112 44.0324 170.174 44.0884 168.634H42.6744C42.6044 169.446 41.9184 169.894 40.9104 169.894C39.7344 169.894 38.9924 169.18 38.9084 167.85H44.0884V167.29ZM42.6744 166.898H38.9504C39.1324 165.75 39.8184 165.19 40.8964 165.19C42.0304 165.19 42.6744 165.764 42.6744 166.8V166.898ZM48.8072 171.112C51.0192 171.112 52.4332 169.754 52.4332 167.556C52.4332 165.344 51.0192 163.972 48.8072 163.972C46.6092 163.972 45.1952 165.344 45.1952 167.556C45.1952 169.754 46.6092 171.112 48.8072 171.112ZM48.8072 169.824C47.5332 169.824 46.7632 168.956 46.7632 167.556C46.7632 166.142 47.5332 165.26 48.8072 165.26C50.0812 165.26 50.8652 166.142 50.8652 167.556C50.8652 168.956 50.0812 169.824 48.8072 169.824ZM53.7252 171H55.2932V167.654C55.2932 166.142 56.1612 165.316 57.5332 165.316C58.7792 165.316 59.3952 165.932 59.3952 167.024V171H60.9632V166.674C60.9632 164.966 59.8852 163.972 58.1352 163.972C56.5252 163.972 55.6292 164.686 55.2512 165.932H55.2372L55.2932 164.084H53.7252V171ZM64.8503 171.112C66.3763 171.112 67.2023 170.496 67.4263 169.474H67.4403C67.4403 170.034 67.3983 170.664 67.3703 171H68.9383V166.786C68.9383 164.966 67.7063 163.972 65.6063 163.972C63.6323 163.972 62.4283 164.798 62.4283 166.184C62.4283 166.31 62.4423 166.492 62.4563 166.59H63.8983C63.8843 166.478 63.8843 166.366 63.8843 166.324C63.8843 165.554 64.4863 165.148 65.5503 165.148C66.7683 165.148 67.3703 165.61 67.3703 166.646V167.136H64.8083C62.9603 167.136 62.2183 167.962 62.2183 169.012C62.2183 170.356 63.2683 171.112 64.8503 171.112ZM65.1723 169.936C64.2203 169.936 63.6603 169.572 63.6603 168.942C63.6603 168.396 64.0523 168.088 64.9483 168.088H67.3703V168.214C67.3703 169.278 66.5303 169.936 65.1723 169.936ZM73.4724 171.084C74.0464 171.084 74.5224 170.986 74.7324 170.916V169.67C74.5364 169.726 74.0884 169.796 73.6964 169.796C72.7444 169.796 72.4084 169.348 72.4084 168.452V165.358H74.7884V164.084H72.4084V162.516H71.1064L71.0364 163.552C70.9944 163.944 70.8964 164.084 70.6304 164.084H69.7484V165.358H70.8404V168.536C70.8404 170.062 71.5824 171.084 73.4724 171.084ZM79.1202 171.112C81.3322 171.112 82.7462 169.754 82.7462 167.556C82.7462 165.344 81.3322 163.972 79.1202 163.972C76.9222 163.972 75.5082 165.344 75.5082 167.556C75.5082 169.754 76.9222 171.112 79.1202 171.112ZM79.1202 169.824C77.8462 169.824 77.0762 168.956 77.0762 167.556C77.0762 166.142 77.8462 165.26 79.1202 165.26C80.3942 165.26 81.1782 166.142 81.1782 167.556C81.1782 168.956 80.3942 169.824 79.1202 169.824ZM90.2695 171.112C91.6835 171.112 92.5515 170.412 92.8175 169.32H92.8455C92.8175 169.992 92.8035 170.594 92.7755 171H94.3435V161.298H92.7755V165.302H92.7615C92.4815 164.49 91.6695 163.972 90.3675 163.972C88.3095 163.972 87.0075 165.414 87.0075 167.5C87.0075 169.656 88.2675 171.112 90.2695 171.112ZM90.5915 169.824C89.3595 169.824 88.5615 168.872 88.5615 167.5C88.5615 166.184 89.3735 165.26 90.6195 165.26C91.9215 165.26 92.7755 166.044 92.7755 167.276V167.612C92.7755 168.956 91.9075 169.824 90.5915 169.824ZM102.459 167.29C102.459 165.134 101.213 163.972 99.2526 163.972C97.0686 163.972 95.6966 165.358 95.6966 167.598C95.6966 169.768 97.0686 171.112 99.2526 171.112C101.143 171.112 102.403 170.174 102.459 168.634H101.045C100.975 169.446 100.289 169.894 99.2806 169.894C98.1046 169.894 97.3626 169.18 97.2786 167.85H102.459V167.29ZM101.045 166.898H97.3206C97.5026 165.75 98.1886 165.19 99.2666 165.19C100.401 165.19 101.045 165.764 101.045 166.8V166.898ZM107.067 171H108.649L108.621 163.104H108.649L111.463 171H112.863L115.677 163.104H115.705L115.663 171H117.343V161.788H114.725L112.247 168.746H112.219L109.755 161.788H107.067V171ZM123.544 171.14C126.232 171.14 128.332 169.334 128.332 166.352C128.332 163.426 126.232 161.648 123.544 161.648C120.87 161.648 118.77 163.426 118.77 166.352C118.77 169.334 120.87 171.14 123.544 171.14ZM123.544 169.74C121.85 169.74 120.478 168.466 120.478 166.352C120.478 164.294 121.85 163.048 123.544 163.048C125.252 163.048 126.624 164.294 126.624 166.352C126.624 168.466 125.252 169.74 123.544 169.74ZM129.75 171H133.964C136.246 171 137.268 169.978 137.268 168.326C137.268 167.136 136.582 166.352 135.434 166.184V166.17C136.414 165.988 136.918 165.246 136.918 164.196C136.918 162.712 135.798 161.788 133.642 161.788H129.75V171ZM131.43 165.736V163.104H133.628C134.888 163.104 135.42 163.622 135.42 164.448C135.42 165.26 134.888 165.736 133.796 165.736H131.43ZM131.43 169.684V166.828H133.88C135.028 166.828 135.672 167.36 135.672 168.158C135.672 169.096 135.196 169.684 133.936 169.684H131.43ZM145.657 171H147.603L143.865 161.788H141.821L138.069 171H139.805L140.589 168.928H144.887L145.657 171ZM141.009 167.808L142.731 163.216H142.759L144.467 167.808H141.009ZM149.077 167.836H149.693L150.155 163.174V161.592H148.615V163.174L149.077 167.836ZM148.587 171H150.183V169.18H148.587V171Z" fill="black"/>
<path d="M1.912 14H4.984V10.896H8.168C11.88 10.896 13.432 9.648 13.432 7.248C13.432 4.736 11.848 3.472 8.248 3.472H1.912V14ZM4.984 8.944V5.744H8.12C9.832 5.744 10.52 6.304 10.52 7.344C10.52 8.432 9.752 8.944 8.104 8.944H4.984ZM23.8181 14H27.3861L21.6581 3.472H18.0101L12.2821 14H15.4501L16.5381 11.856H22.7301L23.8181 14ZM17.4341 10.064L19.6101 5.776H19.6261L21.8181 10.064H17.4341ZM34.3231 14.192C38.1791 14.192 40.5151 12.624 40.5151 9.296V3.472H37.7631V8.96C37.7631 10.976 36.5151 11.76 34.4671 11.76C32.4191 11.76 31.1711 10.976 31.1711 8.96V3.472H28.0991V9.296C28.0991 12.624 30.4831 14.192 34.3231 14.192ZM42.1263 14H51.4383V11.568H45.1983V3.472H42.1263V14ZM63.5949 14H67.1629L61.4349 3.472H57.7869L52.0589 14H55.2269L56.3149 11.856H62.5069L63.5949 14ZM57.2109 10.064L59.3869 5.776H59.4029L61.5949 10.064H57.2109ZM79.2849 14.192C83.7809 14.192 85.4449 11.936 85.4449 9.888C85.4449 9.856 85.4449 9.744 85.4289 9.664H82.6929V9.76C82.6929 10.928 81.5889 11.92 79.4129 11.92C76.8689 11.92 75.8769 10.432 75.8769 8.752C75.8769 6.944 77.0929 5.552 79.3969 5.552C81.6689 5.552 82.6449 6.784 82.6449 7.76V7.824H85.3809C85.3969 7.728 85.3969 7.6 85.3969 7.568C85.3969 5.808 83.8929 3.28 79.2529 3.28C74.8689 3.28 72.6449 5.632 72.6449 8.752C72.6449 11.472 74.2929 14.192 79.2849 14.192ZM86.8184 14H89.8904V10.208H93.6984C95.0104 10.208 95.4264 10.704 95.4264 11.792V14H98.4984V11.792C98.4984 10.688 98.3224 9.52 96.6584 9.136V9.104C98.1144 8.672 98.5624 7.648 98.5624 6.592C98.5624 4.704 97.3464 3.472 93.4424 3.472H86.8184V14ZM89.8904 8.416V5.744H93.3144C95.0904 5.744 95.6504 6.288 95.6504 7.04C95.6504 7.856 95.1064 8.416 93.5864 8.416H89.8904ZM106.361 14.192C110.217 14.192 112.553 12.624 112.553 9.296V3.472H109.801V8.96C109.801 10.976 108.553 11.76 106.505 11.76C104.457 11.76 103.209 10.976 103.209 8.96V3.472H100.137V9.296C100.137 12.624 102.521 14.192 106.361 14.192ZM113.764 14H124.916V11.728H117.764V11.712L124.98 5.664V3.472H113.844V5.744H121.172V5.776L113.764 12V14ZM5.64 34.128C7.448 34.128 8.616 33.104 8.92 31.696H8.952C8.936 32.464 8.92 33.232 8.888 34H9.752V22.912H8.888V27.856H8.872C8.52 26.64 7.416 25.968 5.72 25.968C3.368 25.968 1.864 27.616 1.864 29.952C1.864 32.512 3.352 34.128 5.64 34.128ZM5.752 33.344C3.928 33.344 2.728 32.016 2.728 29.952C2.728 28.096 3.944 26.752 5.784 26.752C7.656 26.752 8.888 27.808 8.888 29.76V30.144C8.888 31.872 7.736 33.344 5.752 33.344ZM19.0603 29.664C19.0603 27.28 17.7323 25.968 15.5563 25.968C13.2203 25.968 11.7323 27.552 11.7323 30.112C11.7323 32.592 13.2363 34.128 15.5883 34.128C17.5883 34.128 18.9803 33.072 19.0603 31.376H18.2443C18.1323 32.608 17.0763 33.376 15.5883 33.376C13.7803 33.376 12.6123 32.16 12.5963 30.144H19.0603V29.664ZM18.2443 29.488H12.6283C12.8363 27.712 13.9403 26.72 15.5883 26.72C17.2203 26.72 18.2443 27.664 18.2443 29.408V29.488ZM24.0384 34.128C26.3104 34.128 27.5744 33.232 27.5744 31.728C27.5744 31.104 27.3184 30.544 26.8224 30.256C26.3264 29.984 25.7504 29.872 24.3904 29.728C23.2384 29.6 22.4704 29.488 22.0704 29.28C21.6704 29.088 21.5584 28.688 21.5584 28.304C21.5584 27.36 22.5504 26.72 24.0544 26.72C25.6704 26.72 26.4384 27.392 26.4384 28.784H27.2544C27.2544 26.976 26.2624 25.968 24.0224 25.968C22.0064 25.968 20.6944 26.928 20.6944 28.352C20.6944 28.928 20.9024 29.456 21.3344 29.76C21.7984 30.08 22.5824 30.256 23.9104 30.384C25.1264 30.496 25.8304 30.608 26.1824 30.784C26.5664 30.992 26.7104 31.344 26.7104 31.76C26.7104 32.768 25.7824 33.376 24.0384 33.376C22.2304 33.376 21.4944 32.624 21.4944 31.36H20.6944C20.6944 32.976 21.5744 34.128 24.0384 34.128ZM29.5073 25.024H30.4513V23.536H29.5073V25.024ZM29.5553 34H30.4193V26.096H29.5553V34ZM37.7758 33.024H35.2318C34.5438 33.024 34.1758 32.672 34.1758 32.096C34.1758 31.76 34.2878 31.472 34.4318 31.344C34.8638 31.504 35.3598 31.6 35.9358 31.6C37.9198 31.6 39.1518 30.496 39.1518 28.784C39.1518 28.112 38.9598 27.536 38.6078 27.072C38.4478 26.704 38.3358 26.336 38.3358 26.032C38.3358 25.552 38.6558 25.312 39.1838 25.312C39.4718 25.312 39.6798 25.376 39.7758 25.424V24.704C39.6638 24.656 39.4398 24.592 39.0878 24.592C38.2558 24.592 37.7598 24.992 37.7598 25.648C37.7598 26 37.8878 26.32 38.0478 26.528V26.544C37.5038 26.176 36.7838 25.968 35.9358 25.968C33.9518 25.968 32.7198 27.072 32.7198 28.784C32.7198 29.792 33.1358 30.576 33.8878 31.072V31.104C33.6478 31.28 33.4238 31.664 33.4238 32.224C33.4238 32.768 33.6638 33.2 34.0638 33.472V33.488C33.0558 33.488 32.3358 34.16 32.3358 35.088C32.3358 36.544 33.8398 37.376 36.3518 37.376C38.7358 37.376 40.1598 36.432 40.1598 34.88C40.1598 33.712 39.2958 33.024 37.7758 33.024ZM35.9358 26.72C37.4078 26.72 38.3038 27.52 38.3038 28.784C38.3038 30.048 37.4078 30.848 35.9358 30.848C34.4638 30.848 33.5678 30.048 33.5678 28.784C33.5678 27.52 34.4638 26.72 35.9358 26.72ZM36.3518 36.624C34.3998 36.624 33.1998 36.096 33.1998 35.056C33.1998 34.208 33.9518 33.776 35.2318 33.776H37.6638C38.7358 33.776 39.2958 34.192 39.2958 34.96C39.2958 35.952 38.3838 36.624 36.3518 36.624ZM41.9147 34H42.7787V29.952C42.7787 27.92 44.0907 26.752 46.0107 26.752C47.8187 26.752 48.7467 27.664 48.7467 29.264V34H49.6107V29.104C49.6107 27.12 48.3787 25.968 46.2667 25.968C44.3787 25.968 43.1947 26.848 42.7627 28.288H42.7467L42.7787 26.096H41.9147V34ZM58.73 29.664C58.73 27.28 57.402 25.968 55.226 25.968C52.89 25.968 51.402 27.552 51.402 30.112C51.402 32.592 52.906 34.128 55.258 34.128C57.258 34.128 58.65 33.072 58.73 31.376H57.914C57.802 32.608 56.746 33.376 55.258 33.376C53.45 33.376 52.282 32.16 52.266 30.144H58.73V29.664ZM57.914 29.488H52.298C52.506 27.712 53.61 26.72 55.258 26.72C56.89 26.72 57.914 27.664 57.914 29.408V29.488ZM60.6201 34H61.4841V30.32C61.4841 28.16 62.5881 26.752 64.2681 26.752C65.6761 26.752 66.3481 27.584 66.3481 29.248C66.3481 29.664 66.3161 30.08 66.2841 30.32H67.0841C67.1161 30.048 67.1481 29.552 67.1481 29.088C67.1481 27.088 66.2041 25.968 64.4441 25.968C62.7961 25.968 61.8201 27.008 61.4681 28.448H61.4521L61.4841 26.096H60.6201V34ZM78.3813 36.56C79.9973 36.56 81.6293 36.304 82.6533 35.904L82.6213 35.232C81.7093 35.6 80.0453 35.904 78.3973 35.888C74.8773 35.888 72.7973 34.08 72.7973 30.64C72.7973 26.592 75.5333 23.952 78.7973 23.952C82.3493 23.952 84.0293 25.488 84.0293 28.288C84.0293 30.784 82.9093 32.896 81.7893 32.896C81.2293 32.896 81.0213 32.576 81.0213 32C81.0213 31.6 81.1013 31.104 81.2133 30.448L81.9973 26.288H80.8613L80.5893 27.264H80.5733C80.2533 26.608 79.5813 26.16 78.4933 26.16C76.2853 26.16 74.8453 28.656 74.8453 30.896C74.8453 32.448 75.6773 33.68 77.2933 33.68C78.7493 33.68 79.5173 32.784 79.8853 31.456H79.9173C79.6613 32.832 80.1413 33.68 81.4533 33.68C83.2613 33.68 84.7493 31.504 84.7493 28.288C84.7493 25.216 82.8293 23.28 78.8133 23.28C75.0853 23.28 72.0773 26.208 72.0773 30.64C72.0773 34.56 74.5573 36.56 78.3813 36.56ZM77.5333 32.608C76.5893 32.608 76.0773 31.92 76.0773 30.848C76.0773 29.248 77.0533 27.232 78.6213 27.232C79.5013 27.232 80.1413 27.664 80.3813 28.176L80.1413 29.424C79.7893 31.264 78.8133 32.608 77.5333 32.608ZM86.4476 34H87.7276V24.448H87.7596L94.0476 34H95.6316V23.472H94.3516V32.208H94.3196L88.6076 23.472H86.4476V34ZM102.833 34.16C104.929 34.16 106.097 33.248 106.417 32.048H106.433C106.401 32.816 106.353 33.568 106.305 34H107.569V28.944H102.529V29.936H106.225V30.24C106.225 31.824 104.929 33.008 102.833 33.008C100.721 33.008 98.9612 31.392 98.9612 28.848C98.9612 26.224 100.689 24.528 102.913 24.528C104.817 24.528 106.225 25.52 106.225 27.2C106.225 27.36 106.225 27.552 106.209 27.76H107.457C107.473 27.504 107.473 27.264 107.473 27.136C107.473 24.736 105.569 23.312 102.913 23.312C99.9212 23.312 97.6172 25.536 97.6172 28.832C97.6172 32.096 99.8412 34.16 102.833 34.16ZM109.936 34H111.312V32.176H109.936V34ZM118.65 34.16C121.338 34.16 123.322 32.528 123.322 30.16V29.904H122.074V30.096C122.074 31.776 120.586 32.944 118.65 32.944C116.442 32.944 114.698 31.312 114.698 28.752C114.698 26.176 116.362 24.528 118.65 24.528C120.57 24.528 122.026 25.728 122.026 27.504V27.792H123.258C123.274 27.584 123.274 27.44 123.274 27.408C123.274 24.976 121.322 23.312 118.65 23.312C115.53 23.312 113.354 25.44 113.354 28.752C113.354 32.048 115.594 34.16 118.65 34.16ZM132.953 34H134.521L130.073 23.472H128.473L124.025 34H125.433L126.473 31.44H131.929L132.953 34ZM126.873 30.448L129.209 24.704H129.241L131.529 30.448H126.873ZM139.535 34.16C142.975 34.16 143.967 32.576 143.967 30.976C143.967 30.016 143.535 29.28 142.831 28.928C142.143 28.576 141.039 28.4 139.983 28.256C139.071 28.128 137.807 27.936 137.295 27.68C136.847 27.456 136.591 27.056 136.591 26.384C136.591 25.232 137.807 24.464 139.519 24.464C141.327 24.464 142.351 25.264 142.351 27.104H143.599C143.599 24.672 142.431 23.312 139.487 23.312C136.975 23.312 135.247 24.624 135.247 26.496C135.247 27.488 135.679 28.192 136.287 28.56C136.863 28.912 138.015 29.168 139.103 29.296C140.015 29.424 141.215 29.552 141.791 29.792C142.335 30.016 142.623 30.384 142.623 31.056C142.623 32.064 141.951 33.008 139.535 33.008C137.295 33.008 136.527 31.936 136.527 30.416H135.279C135.279 32.32 136.159 34.16 139.535 34.16ZM145.939 34H147.283V29.072H153.747V34H155.091V23.472H153.747V27.952H147.283V23.472H145.939V34Z" fill="black"/>
<line x1="3.99082e-08" y1="49.0162" x2="295.228" y2="49.0162" stroke="black" stroke-width="0.912994"/>
<path d="M295.407 65.3246C295.407 53.8472 291.239 49.7326 279.815 49.7326C291.293 49.7326 295.407 45.5639 295.407 34.1406C295.407 45.6181 299.576 49.7326 310.999 49.7326C299.576 49.6785 295.407 53.8472 295.407 65.3246Z" fill="black"/>
</svg>
