<svg width="311" height="176" viewBox="0 0 311 176" fill="none" xmlns="http://www.w3.org/2000/svg">
<path d="M4.2 71.858C1.848 71.858 0.896 72.964 0.896 74.938V76.492H3.612V74.182H2.506V74.126C2.506 73.51 2.884 73.048 4.2 73.048V71.858ZM8.428 71.858C6.076 71.858 5.124 72.964 5.124 74.938V76.492H7.84V74.182H6.734V74.126C6.734 73.51 7.112 73.048 8.428 73.048V71.858ZM87.4043 166.408C89.7563 166.408 90.7083 165.302 90.7083 163.328V161.774H87.9923V164.084H89.0983V164.14C89.0983 164.756 88.7203 165.218 87.4043 165.218V166.408ZM91.6463 166.408C93.9983 166.408 94.9503 165.302 94.9503 163.328V161.774H92.2343V164.084H93.3403V164.14C93.3403 164.756 92.9623 165.218 91.6463 165.218V166.408Z" fill="#FF0000"/>
<path d="M11.9534 81H13.6334V73.174H16.4894V71.788H9.09742V73.174H11.9534V81ZM16.997 81H18.565V77.976C18.565 76.324 19.307 75.316 20.497 75.316C21.421 75.316 21.869 75.862 21.869 77.024C21.869 77.346 21.841 77.696 21.813 77.962H23.241C23.269 77.668 23.311 77.108 23.311 76.674C23.311 74.952 22.485 73.972 20.987 73.972C19.559 73.972 18.845 74.826 18.523 76.072H18.509L18.565 74.084H16.997V81ZM26.9242 81.112C28.4502 81.112 29.2762 80.496 29.5002 79.474H29.5142C29.5142 80.034 29.4722 80.664 29.4442 81H31.0122V76.786C31.0122 74.966 29.7802 73.972 27.6802 73.972C25.7062 73.972 24.5022 74.798 24.5022 76.184C24.5022 76.31 24.5162 76.492 24.5302 76.59H25.9722C25.9582 76.478 25.9582 76.366 25.9582 76.324C25.9582 75.554 26.5602 75.148 27.6242 75.148C28.8422 75.148 29.4442 75.61 29.4442 76.646V77.136H26.8822C25.0342 77.136 24.2922 77.962 24.2922 79.012C24.2922 80.356 25.3422 81.112 26.9242 81.112ZM27.2462 79.936C26.2942 79.936 25.7342 79.572 25.7342 78.942C25.7342 78.396 26.1262 78.088 27.0222 78.088H29.4442V78.214C29.4442 79.278 28.6042 79.936 27.2462 79.936ZM36.5766 81.112C38.5226 81.112 39.7406 79.698 39.7406 77.416C39.7406 75.288 38.5506 73.972 36.5626 73.972C35.1906 73.972 34.2386 74.616 33.9446 75.624H33.9306C33.9446 75.288 33.9586 74.728 33.9586 74.434V71.298H32.3906V81H33.9586C33.9306 80.65 33.9026 80.02 33.9026 79.53H33.9166C34.1966 80.496 35.1486 81.112 36.5766 81.112ZM36.1706 79.824C34.8126 79.824 33.9586 79.082 33.9586 77.878V77.528C33.9586 76.128 34.8266 75.26 36.1986 75.26C37.4306 75.26 38.1726 76.1 38.1726 77.458C38.1726 78.928 37.4026 79.824 36.1706 79.824ZM43.0141 81.112C44.5401 81.112 45.3661 80.496 45.5901 79.474H45.6041C45.6041 80.034 45.5621 80.664 45.5341 81H47.1021V76.786C47.1021 74.966 45.8701 73.972 43.7701 73.972C41.7961 73.972 40.5921 74.798 40.5921 76.184C40.5921 76.31 40.6061 76.492 40.6201 76.59H42.0621C42.0481 76.478 42.0481 76.366 42.0481 76.324C42.0481 75.554 42.6501 75.148 43.7141 75.148C44.9321 75.148 45.5341 75.61 45.5341 76.646V77.136H42.9721C41.1241 77.136 40.3821 77.962 40.3821 79.012C40.3821 80.356 41.4321 81.112 43.0141 81.112ZM43.3361 79.936C42.3841 79.936 41.8241 79.572 41.8241 78.942C41.8241 78.396 42.2161 78.088 43.1121 78.088H45.5341V78.214C45.5341 79.278 44.6941 79.936 43.3361 79.936ZM48.4805 81H50.0485V71.298H48.4805V81ZM51.5558 81H53.1238V77.724C53.1238 76.17 53.9918 75.316 55.3778 75.316C56.6238 75.316 57.2398 75.932 57.2398 77.024V81H58.8078V76.674C58.8078 74.966 57.7298 73.972 55.9798 73.972C54.3558 73.972 53.4598 74.686 53.0958 75.946H53.0818C53.0958 75.568 53.1238 74.77 53.1238 74.434V71.298H51.5558V81ZM62.5758 81.112C64.1018 81.112 64.9278 80.496 65.1518 79.474H65.1658C65.1658 80.034 65.1238 80.664 65.0958 81H66.6638V76.786C66.6638 74.966 65.4318 73.972 63.3318 73.972C61.3578 73.972 60.1538 74.798 60.1538 76.184C60.1538 76.31 60.1678 76.492 60.1818 76.59H61.6238C61.6098 76.478 61.6098 76.366 61.6098 76.324C61.6098 75.554 62.2118 75.148 63.2758 75.148C64.4938 75.148 65.0958 75.61 65.0958 76.646V77.136H62.5338C60.6858 77.136 59.9438 77.962 59.9438 79.012C59.9438 80.356 60.9938 81.112 62.5758 81.112ZM62.8978 79.936C61.9458 79.936 61.3858 79.572 61.3858 78.942C61.3858 78.396 61.7778 78.088 62.6738 78.088H65.0958V78.214C65.0958 79.278 64.2558 79.936 62.8978 79.936ZM68.0002 81H69.5682V77.976C69.5682 76.324 70.3102 75.316 71.5002 75.316C72.4242 75.316 72.8722 75.862 72.8722 77.024C72.8722 77.346 72.8442 77.696 72.8162 77.962H74.2442C74.2722 77.668 74.3142 77.108 74.3142 76.674C74.3142 74.952 73.4882 73.972 71.9902 73.972C70.5622 73.972 69.8482 74.826 69.5262 76.072H69.5122L69.5682 74.084H68.0002V81ZM80.989 81.112C82.515 81.112 83.341 80.496 83.565 79.474H83.579C83.579 80.034 83.537 80.664 83.509 81H85.077V76.786C85.077 74.966 83.845 73.972 81.745 73.972C79.771 73.972 78.567 74.798 78.567 76.184C78.567 76.31 78.581 76.492 78.595 76.59H80.037C80.023 76.478 80.023 76.366 80.023 76.324C80.023 75.554 80.625 75.148 81.689 75.148C82.907 75.148 83.509 75.61 83.509 76.646V77.136H80.947C79.099 77.136 78.357 77.962 78.357 79.012C78.357 80.356 79.407 81.112 80.989 81.112ZM81.311 79.936C80.359 79.936 79.799 79.572 79.799 78.942C79.799 78.396 80.191 78.088 81.087 78.088H83.509V78.214C83.509 79.278 82.669 79.936 81.311 79.936ZM91.9714 83.772H93.5394V74.084H91.9854V75.4H91.9714C91.6914 74.518 90.8654 73.972 89.5214 73.972C87.5894 73.972 86.2034 75.358 86.2034 77.486C86.2034 79.698 87.4634 81.112 89.4514 81.112C90.7814 81.112 91.7054 80.44 91.9574 79.404H91.9714V83.772ZM89.7874 79.824C88.5694 79.824 87.7574 78.914 87.7574 77.486C87.7574 76.142 88.5974 75.26 89.8154 75.26C91.1174 75.26 91.9714 76.044 91.9714 77.262V77.598C91.9714 78.956 91.1034 79.824 89.7874 79.824ZM97.8267 81.112C99.3667 81.112 100.333 80.384 100.627 79.068H100.641C100.641 79.796 100.613 80.538 100.571 81H102.139V74.084H100.571V77.15C100.571 78.83 99.6887 79.768 98.2887 79.768C97.1547 79.768 96.4827 79.152 96.4827 78.06V74.084H94.9147V78.284C94.9147 80.118 96.0207 81.112 97.8267 81.112ZM103.584 73.272H105.194V71.732H103.584V73.272ZM103.598 81H105.166V74.084H103.598V81ZM114.915 71.41H113.277L112.185 73.37H113.417L114.915 71.41ZM116.259 77.29C116.259 75.134 115.013 73.972 113.053 73.972C110.869 73.972 109.497 75.358 109.497 77.598C109.497 79.768 110.869 81.112 113.053 81.112C114.943 81.112 116.203 80.174 116.259 78.634H114.845C114.775 79.446 114.089 79.894 113.081 79.894C111.905 79.894 111.163 79.18 111.079 77.85H116.259V77.29ZM114.845 76.898H111.121C111.303 75.75 111.989 75.19 113.067 75.19C114.201 75.19 114.845 75.764 114.845 76.8V76.898ZM123.571 81.112C124.985 81.112 125.853 80.412 126.119 79.32H126.147C126.119 79.992 126.105 80.594 126.077 81H127.645V71.298H126.077V75.302H126.063C125.783 74.49 124.971 73.972 123.669 73.972C121.611 73.972 120.309 75.414 120.309 77.5C120.309 79.656 121.569 81.112 123.571 81.112ZM123.893 79.824C122.661 79.824 121.863 78.872 121.863 77.5C121.863 76.184 122.675 75.26 123.921 75.26C125.223 75.26 126.077 76.044 126.077 77.276V77.612C126.077 78.956 125.209 79.824 123.893 79.824ZM129.132 73.272H130.742V71.732H129.132V73.272ZM129.146 81H130.714V74.084H129.146V81ZM132.655 81H134.223V75.358H136.631V74.084H134.223V73.468C134.223 72.712 134.657 72.292 135.455 72.292C135.931 72.292 136.295 72.39 136.519 72.46V71.214C136.295 71.13 135.791 71.018 135.175 71.018C133.677 71.018 132.655 71.858 132.655 73.398V74.084H131.549V75.358H132.655V81ZM143.625 77.29C143.625 75.134 142.379 73.972 140.419 73.972C138.235 73.972 136.863 75.358 136.863 77.598C136.863 79.768 138.235 81.112 140.419 81.112C142.309 81.112 143.569 80.174 143.625 78.634H142.211C142.141 79.446 141.455 79.894 140.447 79.894C139.271 79.894 138.529 79.18 138.445 77.85H143.625V77.29ZM142.211 76.898H138.487C138.669 75.75 139.355 75.19 140.433 75.19C141.567 75.19 142.211 75.764 142.211 76.8V76.898ZM144.824 81H146.392V77.976C146.392 76.324 147.134 75.316 148.324 75.316C149.248 75.316 149.696 75.862 149.696 77.024C149.696 77.346 149.668 77.696 149.64 77.962H151.068C151.096 77.668 151.138 77.108 151.138 76.674C151.138 74.952 150.312 73.972 148.814 73.972C147.386 73.972 146.672 74.826 146.35 76.072H146.336L146.392 74.084H144.824V81ZM158.867 77.29C158.867 75.134 157.621 73.972 155.661 73.972C153.477 73.972 152.105 75.358 152.105 77.598C152.105 79.768 153.477 81.112 155.661 81.112C157.551 81.112 158.811 80.174 158.867 78.634H157.453C157.383 79.446 156.697 79.894 155.689 79.894C154.513 79.894 153.771 79.18 153.687 77.85H158.867V77.29ZM157.453 76.898H153.729C153.911 75.75 154.597 75.19 155.675 75.19C156.809 75.19 157.453 75.764 157.453 76.8V76.898ZM160.066 81H161.634V77.654C161.634 76.142 162.502 75.316 163.874 75.316C165.12 75.316 165.736 75.932 165.736 77.024V81H167.304V76.674C167.304 74.966 166.226 73.972 164.476 73.972C162.866 73.972 161.97 74.686 161.592 75.932H161.578L161.634 74.084H160.066V81ZM171.718 81.084C172.292 81.084 172.768 80.986 172.978 80.916V79.67C172.782 79.726 172.334 79.796 171.942 79.796C170.99 79.796 170.654 79.348 170.654 78.452V75.358H173.034V74.084H170.654V72.516H169.352L169.282 73.552C169.24 73.944 169.142 74.084 168.876 74.084H167.994V75.358H169.086V78.536C169.086 80.062 169.828 81.084 171.718 81.084ZM180.398 77.29C180.398 75.134 179.152 73.972 177.192 73.972C175.008 73.972 173.636 75.358 173.636 77.598C173.636 79.768 175.008 81.112 177.192 81.112C179.082 81.112 180.342 80.174 180.398 78.634H178.984C178.914 79.446 178.228 79.894 177.22 79.894C176.044 79.894 175.302 79.18 175.218 77.85H180.398V77.29ZM178.984 76.898H175.26C175.442 75.75 176.128 75.19 177.206 75.19C178.34 75.19 178.984 75.764 178.984 76.8V76.898ZM187.71 81.112C189.124 81.112 189.992 80.412 190.258 79.32H190.286C190.258 79.992 190.244 80.594 190.216 81H191.784V71.298H190.216V75.302H190.202C189.922 74.49 189.11 73.972 187.808 73.972C185.75 73.972 184.448 75.414 184.448 77.5C184.448 79.656 185.708 81.112 187.71 81.112ZM188.032 79.824C186.8 79.824 186.002 78.872 186.002 77.5C186.002 76.184 186.814 75.26 188.06 75.26C189.362 75.26 190.216 76.044 190.216 77.276V77.612C190.216 78.956 189.348 79.824 188.032 79.824ZM199.781 77.29C199.781 75.134 198.535 73.972 196.575 73.972C194.391 73.972 193.019 75.358 193.019 77.598C193.019 79.768 194.391 81.112 196.575 81.112C198.465 81.112 199.725 80.174 199.781 78.634H198.367C198.297 79.446 197.611 79.894 196.603 79.894C195.427 79.894 194.685 79.18 194.601 77.85H199.781V77.29ZM198.367 76.898H194.643C194.825 75.75 195.511 75.19 196.589 75.19C197.723 75.19 198.367 75.764 198.367 76.8V76.898ZM209.6 83.772H211.168V74.084H209.614V75.4H209.6C209.32 74.518 208.494 73.972 207.15 73.972C205.218 73.972 203.832 75.358 203.832 77.486C203.832 79.698 205.092 81.112 207.08 81.112C208.41 81.112 209.334 80.44 209.586 79.404H209.6V83.772ZM207.416 79.824C206.198 79.824 205.386 78.914 205.386 77.486C205.386 76.142 206.226 75.26 207.444 75.26C208.746 75.26 209.6 76.044 209.6 77.262V77.598C209.6 78.956 208.732 79.824 207.416 79.824ZM215.455 81.112C216.995 81.112 217.961 80.384 218.255 79.068H218.269C218.269 79.796 218.241 80.538 218.199 81H219.767V74.084H218.199V77.15C218.199 78.83 217.317 79.768 215.917 79.768C214.783 79.768 214.111 79.152 214.111 78.06V74.084H212.543V78.284C212.543 80.118 213.649 81.112 215.455 81.112ZM223.607 81.112C225.133 81.112 225.959 80.496 226.183 79.474H226.197C226.197 80.034 226.155 80.664 226.127 81H227.695V76.786C227.695 74.966 226.463 73.972 224.363 73.972C222.389 73.972 221.185 74.798 221.185 76.184C221.185 76.31 221.199 76.492 221.213 76.59H222.655C222.641 76.478 222.641 76.366 222.641 76.324C222.641 75.554 223.243 75.148 224.307 75.148C225.525 75.148 226.127 75.61 226.127 76.646V77.136H223.565C221.717 77.136 220.975 77.962 220.975 79.012C220.975 80.356 222.025 81.112 223.607 81.112ZM223.929 79.936C222.977 79.936 222.417 79.572 222.417 78.942C222.417 78.396 222.809 78.088 223.705 78.088H226.127V78.214C226.127 79.278 225.287 79.936 223.929 79.936ZM229.073 81H230.641V71.298H229.073V81ZM237.665 83.772H239.233V74.084H237.679V75.4H237.665C237.385 74.518 236.559 73.972 235.215 73.972C233.283 73.972 231.897 75.358 231.897 77.486C231.897 79.698 233.157 81.112 235.145 81.112C236.475 81.112 237.399 80.44 237.651 79.404H237.665V83.772ZM235.481 79.824C234.263 79.824 233.451 78.914 233.451 77.486C233.451 76.142 234.291 75.26 235.509 75.26C236.811 75.26 237.665 76.044 237.665 77.262V77.598C237.665 78.956 236.797 79.824 235.481 79.824ZM243.52 81.112C245.06 81.112 246.026 80.384 246.32 79.068H246.334C246.334 79.796 246.306 80.538 246.264 81H247.832V74.084H246.264V77.15C246.264 78.83 245.382 79.768 243.982 79.768C242.848 79.768 242.176 79.152 242.176 78.06V74.084H240.608V78.284C240.608 80.118 241.714 81.112 243.52 81.112ZM255.788 77.29C255.788 75.134 254.542 73.972 252.582 73.972C250.398 73.972 249.026 75.358 249.026 77.598C249.026 79.768 250.398 81.112 252.582 81.112C254.472 81.112 255.732 80.174 255.788 78.634H254.374C254.304 79.446 253.618 79.894 252.61 79.894C251.434 79.894 250.692 79.18 250.608 77.85H255.788V77.29ZM254.374 76.898H250.65C250.832 75.75 251.518 75.19 252.596 75.19C253.73 75.19 254.374 75.764 254.374 76.8V76.898ZM256.987 81H258.555V77.976C258.555 76.324 259.297 75.316 260.487 75.316C261.411 75.316 261.859 75.862 261.859 77.024C261.859 77.346 261.831 77.696 261.803 77.962H263.231C263.259 77.668 263.301 77.108 263.301 76.674C263.301 74.952 262.475 73.972 260.977 73.972C259.549 73.972 258.835 74.826 258.513 76.072H258.499L258.555 74.084H256.987V81ZM270.941 81.112C273.153 81.112 274.567 79.754 274.567 77.556C274.567 75.344 273.153 73.972 270.941 73.972C268.743 73.972 267.329 75.344 267.329 77.556C267.329 79.754 268.743 81.112 270.941 81.112ZM270.941 79.824C269.667 79.824 268.897 78.956 268.897 77.556C268.897 76.142 269.667 75.26 270.941 75.26C272.215 75.26 272.999 76.142 272.999 77.556C272.999 78.956 272.215 79.824 270.941 79.824ZM278.584 81.112C280.124 81.112 281.09 80.384 281.384 79.068H281.398C281.398 79.796 281.37 80.538 281.328 81H282.896V74.084H281.328V77.15C281.328 78.83 280.446 79.768 279.046 79.768C277.912 79.768 277.24 79.152 277.24 78.06V74.084H275.672V78.284C275.672 80.118 276.778 81.112 278.584 81.112ZM287.379 81.084C287.953 81.084 288.429 80.986 288.639 80.916V79.67C288.443 79.726 287.995 79.796 287.603 79.796C286.651 79.796 286.315 79.348 286.315 78.452V75.358H288.695V74.084H286.315V72.516H285.013L284.943 73.552C284.901 73.944 284.803 74.084 284.537 74.084H283.655V75.358H284.747V78.536C284.747 80.062 285.489 81.084 287.379 81.084ZM289.781 81H291.349V77.976C291.349 76.324 292.091 75.316 293.281 75.316C294.205 75.316 294.653 75.862 294.653 77.024C294.653 77.346 294.625 77.696 294.597 77.962H296.025C296.053 77.668 296.095 77.108 296.095 76.674C296.095 74.952 295.269 73.972 293.771 73.972C292.343 73.972 291.629 74.826 291.307 76.072H291.293L291.349 74.084H289.781V81ZM300.674 81.112C302.886 81.112 304.3 79.754 304.3 77.556C304.3 75.344 302.886 73.972 300.674 73.972C298.476 73.972 297.062 75.344 297.062 77.556C297.062 79.754 298.476 81.112 300.674 81.112ZM300.674 79.824C299.4 79.824 298.63 78.956 298.63 77.556C298.63 76.142 299.4 75.26 300.674 75.26C301.948 75.26 302.732 76.142 302.732 77.556C302.732 78.956 301.948 79.824 300.674 79.824ZM0.826 99H2.394V89.298H0.826V99ZM6.70123 99.112C8.24123 99.112 9.20723 98.384 9.50123 97.068H9.51523C9.51523 97.796 9.48723 98.538 9.44523 99H11.0132V92.084H9.44523V95.15C9.44523 96.83 8.56323 97.768 7.16323 97.768C6.02923 97.768 5.35723 97.152 5.35723 96.06V92.084H3.78923V96.284C3.78923 98.118 4.89523 99.112 6.70123 99.112ZM17.2189 97.908H14.9789C14.4749 97.908 14.1949 97.67 14.1949 97.278C14.1949 97.04 14.2789 96.844 14.3629 96.746C14.7269 96.844 15.1329 96.9 15.5809 96.9C17.4849 96.9 18.6609 95.962 18.6609 94.436C18.6609 93.918 18.5209 93.456 18.2549 93.092C18.1709 92.826 18.1009 92.588 18.1009 92.392C18.1009 92.014 18.3249 91.818 18.7869 91.818C18.9829 91.818 19.1369 91.846 19.2489 91.888V90.782C19.0809 90.74 18.8849 90.712 18.5489 90.712C17.7229 90.712 17.1909 91.062 17.1909 91.622C17.1909 91.916 17.3169 92.182 17.5269 92.406L17.5129 92.42C17.0089 92.126 16.3649 91.972 15.5809 91.972C13.6769 91.972 12.5009 92.924 12.5009 94.436C12.5009 95.304 12.8789 95.99 13.5649 96.41V96.438C13.1869 96.62 12.9209 97.026 12.9209 97.614C12.9209 98.104 13.1309 98.482 13.5229 98.748V98.762C12.6969 98.804 12.1789 99.322 12.1789 100.022C12.1789 101.268 13.5789 101.982 15.9169 101.982C18.1989 101.982 19.5569 101.114 19.5569 99.658C19.5569 98.552 18.7029 97.908 17.2189 97.908ZM15.5809 93.092C16.5609 93.092 17.1629 93.61 17.1629 94.436C17.1629 95.262 16.5609 95.78 15.5809 95.78C14.6009 95.78 13.9989 95.262 13.9989 94.436C13.9989 93.61 14.6009 93.092 15.5809 93.092ZM15.9029 100.876C14.5729 100.876 13.7329 100.554 13.7329 99.896C13.7329 99.364 14.2369 99.126 15.0209 99.126H16.8969C17.6389 99.126 17.9889 99.378 17.9889 99.84C17.9889 100.456 17.3729 100.876 15.9029 100.876ZM22.8227 99.112C24.3487 99.112 25.1747 98.496 25.3987 97.474H25.4127C25.4127 98.034 25.3707 98.664 25.3427 99H26.9107V94.786C26.9107 92.966 25.6787 91.972 23.5787 91.972C21.6047 91.972 20.4007 92.798 20.4007 94.184C20.4007 94.31 20.4147 94.492 20.4287 94.59H21.8707C21.8567 94.478 21.8567 94.366 21.8567 94.324C21.8567 93.554 22.4587 93.148 23.5227 93.148C24.7407 93.148 25.3427 93.61 25.3427 94.646V95.136H22.7807C20.9327 95.136 20.1907 95.962 20.1907 97.012C20.1907 98.356 21.2407 99.112 22.8227 99.112ZM23.1447 97.936C22.1927 97.936 21.6327 97.572 21.6327 96.942C21.6327 96.396 22.0247 96.088 22.9207 96.088H25.3427V96.214C25.3427 97.278 24.5027 97.936 23.1447 97.936ZM28.247 99H29.815V95.976C29.815 94.324 30.557 93.316 31.747 93.316C32.671 93.316 33.119 93.862 33.119 95.024C33.119 95.346 33.091 95.696 33.063 95.962H34.491C34.519 95.668 34.561 95.108 34.561 94.674C34.561 92.952 33.735 91.972 32.237 91.972C30.809 91.972 30.095 92.826 29.773 94.072H29.759L29.815 92.084H28.247V99ZM36.1723 95.836H36.7883L37.2503 91.174V89.592H35.7103V91.174L36.1723 95.836ZM35.6823 99H37.2783V97.18H35.6823V99ZM44.0357 99H45.7157V91.174H48.5717V89.788H41.1797V91.174H44.0357V99ZM51.8523 99.112C54.0643 99.112 55.4783 97.754 55.4783 95.556C55.4783 93.344 54.0643 91.972 51.8523 91.972C49.6543 91.972 48.2403 93.344 48.2403 95.556C48.2403 97.754 49.6543 99.112 51.8523 99.112ZM51.8523 97.824C50.5783 97.824 49.8083 96.956 49.8083 95.556C49.8083 94.142 50.5783 93.26 51.8523 93.26C53.1263 93.26 53.9103 94.142 53.9103 95.556C53.9103 96.956 53.1263 97.824 51.8523 97.824ZM59.7045 99.112C61.1185 99.112 61.9865 98.412 62.2525 97.32H62.2805C62.2525 97.992 62.2385 98.594 62.2105 99H63.7785V89.298H62.2105V93.302H62.1965C61.9165 92.49 61.1045 91.972 59.8025 91.972C57.7445 91.972 56.4425 93.414 56.4425 95.5C56.4425 97.656 57.7025 99.112 59.7045 99.112ZM60.0265 97.824C58.7945 97.824 57.9965 96.872 57.9965 95.5C57.9965 94.184 58.8085 93.26 60.0545 93.26C61.3565 93.26 62.2105 94.044 62.2105 95.276V95.612C62.2105 96.956 61.3425 97.824 60.0265 97.824ZM68.6258 99.112C70.8378 99.112 72.2518 97.754 72.2518 95.556C72.2518 93.344 70.8378 91.972 68.6258 91.972C66.4278 91.972 65.0138 93.344 65.0138 95.556C65.0138 97.754 66.4278 99.112 68.6258 99.112ZM68.6258 97.824C67.3518 97.824 66.5818 96.956 66.5818 95.556C66.5818 94.142 67.3518 93.26 68.6258 93.26C69.8998 93.26 70.6838 94.142 70.6838 95.556C70.6838 96.956 69.8998 97.824 68.6258 97.824ZM76.368 99.112C78.58 99.112 79.756 98.286 79.756 96.886C79.756 96.326 79.49 95.794 79.028 95.542C78.538 95.262 77.978 95.164 76.998 95.066C76.158 94.982 75.5 94.912 75.164 94.8C74.758 94.66 74.688 94.38 74.688 94.086C74.688 93.498 75.304 93.106 76.396 93.106C77.544 93.106 78.034 93.54 78.048 94.436H79.462C79.462 92.868 78.51 91.972 76.354 91.972C74.478 91.972 73.134 92.812 73.134 94.198C73.134 94.73 73.358 95.234 73.736 95.514C74.156 95.822 74.884 95.962 75.962 96.06C76.732 96.13 77.39 96.2 77.726 96.326C78.09 96.452 78.188 96.69 78.188 96.956C78.188 97.586 77.628 97.978 76.354 97.978C75.01 97.978 74.548 97.488 74.548 96.69H73.134C73.134 98.048 73.988 99.112 76.368 99.112ZM89.5642 101.772H91.1322V92.084H89.5782V93.4H89.5642C89.2842 92.518 88.4582 91.972 87.1142 91.972C85.1822 91.972 83.7962 93.358 83.7962 95.486C83.7962 97.698 85.0562 99.112 87.0442 99.112C88.3742 99.112 89.2982 98.44 89.5502 97.404H89.5642V101.772ZM87.3802 97.824C86.1622 97.824 85.3502 96.914 85.3502 95.486C85.3502 94.142 86.1902 93.26 87.4082 93.26C88.7102 93.26 89.5642 94.044 89.5642 95.262V95.598C89.5642 96.956 88.6962 97.824 87.3802 97.824ZM95.4195 99.112C96.9595 99.112 97.9255 98.384 98.2195 97.068H98.2335C98.2335 97.796 98.2055 98.538 98.1635 99H99.7315V92.084H98.1635V95.15C98.1635 96.83 97.2815 97.768 95.8815 97.768C94.7475 97.768 94.0755 97.152 94.0755 96.06V92.084H92.5075V96.284C92.5075 98.118 93.6135 99.112 95.4195 99.112ZM107.687 95.29C107.687 93.134 106.441 91.972 104.481 91.972C102.297 91.972 100.925 93.358 100.925 95.598C100.925 97.768 102.297 99.112 104.481 99.112C106.371 99.112 107.631 98.174 107.687 96.634H106.273C106.203 97.446 105.517 97.894 104.509 97.894C103.333 97.894 102.591 97.18 102.507 95.85H107.687V95.29ZM106.273 94.898H102.549C102.731 93.75 103.417 93.19 104.495 93.19C105.629 93.19 106.273 93.764 106.273 94.8V94.898ZM112.41 99H113.978V93.358H116.386V92.084H113.978V91.468C113.978 90.712 114.412 90.292 115.21 90.292C115.686 90.292 116.05 90.39 116.274 90.46V89.214C116.05 89.13 115.546 89.018 114.93 89.018C113.432 89.018 112.41 89.858 112.41 91.398V92.084H111.304V93.358H112.41V99ZM119.414 99.112C120.94 99.112 121.766 98.496 121.99 97.474H122.004C122.004 98.034 121.962 98.664 121.934 99H123.502V94.786C123.502 92.966 122.27 91.972 120.17 91.972C118.196 91.972 116.992 92.798 116.992 94.184C116.992 94.31 117.006 94.492 117.02 94.59H118.462C118.448 94.478 118.448 94.366 118.448 94.324C118.448 93.554 119.05 93.148 120.114 93.148C121.332 93.148 121.934 93.61 121.934 94.646V95.136H119.372C117.524 95.136 116.782 95.962 116.782 97.012C116.782 98.356 117.832 99.112 119.414 99.112ZM119.736 97.936C118.784 97.936 118.224 97.572 118.224 96.942C118.224 96.396 118.616 96.088 119.512 96.088H121.934V96.214C121.934 97.278 121.094 97.936 119.736 97.936ZM124.6 99H130.452V97.726H126.63V97.712L130.452 93.05V92.084H124.712V93.358H128.408V93.386L124.6 98.02V99ZM137.979 95.29C137.979 93.134 136.733 91.972 134.773 91.972C132.589 91.972 131.217 93.358 131.217 95.598C131.217 97.768 132.589 99.112 134.773 99.112C136.663 99.112 137.923 98.174 137.979 96.634H136.565C136.495 97.446 135.809 97.894 134.801 97.894C133.625 97.894 132.883 97.18 132.799 95.85H137.979V95.29ZM136.565 94.898H132.841C133.023 93.75 133.709 93.19 134.787 93.19C135.921 93.19 136.565 93.764 136.565 94.8V94.898ZM139.178 99H140.746V95.626C140.746 94.142 141.46 93.316 142.524 93.316C143.462 93.316 143.98 93.932 143.98 94.912V99H145.548V95.57C145.548 94.128 146.248 93.316 147.34 93.316C148.278 93.316 148.768 93.932 148.768 94.94V99H150.336V94.59C150.336 92.966 149.454 91.972 147.914 91.972C146.598 91.972 145.758 92.672 145.506 93.792H145.492C145.324 92.672 144.456 91.972 143.112 91.972C141.852 91.972 141.012 92.714 140.704 93.904H140.69L140.746 92.084H139.178V99ZM154.777 101.772H156.345V99.056C156.345 98.776 156.317 98.062 156.303 97.6H156.317C156.611 98.496 157.507 99.112 158.879 99.112C160.867 99.112 162.127 97.656 162.127 95.416C162.127 93.33 160.881 91.972 158.907 91.972C157.535 91.972 156.611 92.644 156.331 93.694H156.317L156.345 92.084H154.777V101.772ZM158.571 97.824C157.227 97.824 156.345 97.068 156.345 95.892V95.528C156.373 94.142 157.241 93.26 158.543 93.26C159.789 93.26 160.559 94.128 160.559 95.458C160.559 96.9 159.775 97.824 158.571 97.824ZM165.401 99.112C166.927 99.112 167.753 98.496 167.977 97.474H167.991C167.991 98.034 167.949 98.664 167.921 99H169.489V94.786C169.489 92.966 168.257 91.972 166.157 91.972C164.183 91.972 162.979 92.798 162.979 94.184C162.979 94.31 162.993 94.492 163.007 94.59H164.449C164.435 94.478 164.435 94.366 164.435 94.324C164.435 93.554 165.037 93.148 166.101 93.148C167.319 93.148 167.921 93.61 167.921 94.646V95.136H165.359C163.511 95.136 162.769 95.962 162.769 97.012C162.769 98.356 163.819 99.112 165.401 99.112ZM165.723 97.936C164.771 97.936 164.211 97.572 164.211 96.942C164.211 96.396 164.603 96.088 165.499 96.088H167.921V96.214C167.921 97.278 167.081 97.936 165.723 97.936ZM170.825 99H172.393V95.976C172.393 94.324 173.135 93.316 174.325 93.316C175.249 93.316 175.697 93.862 175.697 95.024C175.697 95.346 175.669 95.696 175.641 95.962H177.069C177.097 95.668 177.139 95.108 177.139 94.674C177.139 92.952 176.313 91.972 174.815 91.972C173.387 91.972 172.673 92.826 172.351 94.072H172.337L172.393 92.084H170.825V99ZM181.396 99.084C181.97 99.084 182.446 98.986 182.656 98.916V97.67C182.46 97.726 182.012 97.796 181.62 97.796C180.668 97.796 180.332 97.348 180.332 96.452V93.358H182.712V92.084H180.332V90.516H179.03L178.96 91.552C178.918 91.944 178.82 92.084 178.554 92.084H177.672V93.358H178.764V96.536C178.764 98.062 179.506 99.084 181.396 99.084ZM190.076 95.29C190.076 93.134 188.83 91.972 186.87 91.972C184.686 91.972 183.314 93.358 183.314 95.598C183.314 97.768 184.686 99.112 186.87 99.112C188.76 99.112 190.02 98.174 190.076 96.634H188.662C188.592 97.446 187.906 97.894 186.898 97.894C185.722 97.894 184.98 97.18 184.896 95.85H190.076V95.29ZM188.662 94.898H184.938C185.12 93.75 185.806 93.19 186.884 93.19C188.018 93.19 188.662 93.764 188.662 94.8V94.898ZM197.389 99.112C198.803 99.112 199.671 98.412 199.937 97.32H199.965C199.937 97.992 199.923 98.594 199.895 99H201.463V89.298H199.895V93.302H199.881C199.601 92.49 198.789 91.972 197.487 91.972C195.429 91.972 194.127 93.414 194.127 95.5C194.127 97.656 195.387 99.112 197.389 99.112ZM197.711 97.824C196.479 97.824 195.681 96.872 195.681 95.5C195.681 94.184 196.493 93.26 197.739 93.26C199.041 93.26 199.895 94.044 199.895 95.276V95.612C199.895 96.956 199.027 97.824 197.711 97.824ZM206.31 99.112C208.522 99.112 209.936 97.754 209.936 95.556C209.936 93.344 208.522 91.972 206.31 91.972C204.112 91.972 202.698 93.344 202.698 95.556C202.698 97.754 204.112 99.112 206.31 99.112ZM206.31 97.824C205.036 97.824 204.266 96.956 204.266 95.556C204.266 94.142 205.036 93.26 206.31 93.26C207.584 93.26 208.368 94.142 208.368 95.556C208.368 96.956 207.584 97.824 206.31 97.824ZM217.252 99.084C217.826 99.084 218.302 98.986 218.512 98.916V97.67C218.316 97.726 217.868 97.796 217.476 97.796C216.524 97.796 216.188 97.348 216.188 96.452V93.358H218.568V92.084H216.188V90.516H214.886L214.816 91.552C214.774 91.944 214.676 92.084 214.41 92.084H213.528V93.358H214.62V96.536C214.62 98.062 215.362 99.084 217.252 99.084ZM219.695 91.272H221.305V89.732H219.695V91.272ZM219.709 99H221.277V92.084H219.709V99ZM222.756 99H224.324V95.626C224.324 94.142 225.038 93.316 226.102 93.316C227.04 93.316 227.558 93.932 227.558 94.912V99H229.126V95.57C229.126 94.128 229.826 93.316 230.918 93.316C231.856 93.316 232.346 93.932 232.346 94.94V99H233.914V94.59C233.914 92.966 233.032 91.972 231.492 91.972C230.176 91.972 229.336 92.672 229.084 93.792H229.07C228.902 92.672 228.034 91.972 226.69 91.972C225.43 91.972 224.59 92.714 224.282 93.904H224.268L224.324 92.084H222.756V99ZM241.803 95.29C241.803 93.134 240.557 91.972 238.597 91.972C236.413 91.972 235.041 93.358 235.041 95.598C235.041 97.768 236.413 99.112 238.597 99.112C240.487 99.112 241.747 98.174 241.803 96.634H240.389C240.319 97.446 239.633 97.894 238.625 97.894C237.449 97.894 236.707 97.18 236.623 95.85H241.803V95.29ZM240.389 94.898H236.665C236.847 93.75 237.533 93.19 238.611 93.19C239.745 93.19 240.389 93.764 240.389 94.8V94.898ZM251.272 89.41H249.634L248.542 91.37H249.774L251.272 89.41ZM252.616 95.29C252.616 93.134 251.37 91.972 249.41 91.972C247.226 91.972 245.854 93.358 245.854 95.598C245.854 97.768 247.226 99.112 249.41 99.112C251.3 99.112 252.56 98.174 252.616 96.634H251.202C251.132 97.446 250.446 97.894 249.438 97.894C248.262 97.894 247.52 97.18 247.436 95.85H252.616V95.29ZM251.202 94.898H247.478C247.66 93.75 248.346 93.19 249.424 93.19C250.558 93.19 251.202 93.764 251.202 94.8V94.898ZM256.918 101.772H258.486V99.056C258.486 98.776 258.458 98.062 258.444 97.6H258.458C258.752 98.496 259.648 99.112 261.02 99.112C263.008 99.112 264.268 97.656 264.268 95.416C264.268 93.33 263.022 91.972 261.048 91.972C259.676 91.972 258.752 92.644 258.472 93.694H258.458L258.486 92.084H256.918V101.772ZM260.712 97.824C259.368 97.824 258.486 97.068 258.486 95.892V95.528C258.514 94.142 259.382 93.26 260.684 93.26C261.93 93.26 262.7 94.128 262.7 95.458C262.7 96.9 261.916 97.824 260.712 97.824ZM268.863 99.112C271.075 99.112 272.489 97.754 272.489 95.556C272.489 93.344 271.075 91.972 268.863 91.972C266.665 91.972 265.251 93.344 265.251 95.556C265.251 97.754 266.665 99.112 268.863 99.112ZM268.863 97.824C267.589 97.824 266.819 96.956 266.819 95.556C266.819 94.142 267.589 93.26 268.863 93.26C270.137 93.26 270.921 94.142 270.921 95.556C270.921 96.956 270.137 97.824 268.863 97.824ZM273.664 99H275.232V95.976C275.232 94.324 275.974 93.316 277.164 93.316C278.088 93.316 278.536 93.862 278.536 95.024C278.536 95.346 278.508 95.696 278.48 95.962H279.908C279.936 95.668 279.978 95.108 279.978 94.674C279.978 92.952 279.152 91.972 277.654 91.972C276.226 91.972 275.512 92.826 275.19 94.072H275.176L275.232 92.084H273.664V99ZM286.713 101.772H288.281V92.084H286.727V93.4H286.713C286.433 92.518 285.607 91.972 284.263 91.972C282.331 91.972 280.945 93.358 280.945 95.486C280.945 97.698 282.205 99.112 284.193 99.112C285.523 99.112 286.447 98.44 286.699 97.404H286.713V101.772ZM284.529 97.824C283.311 97.824 282.499 96.914 282.499 95.486C282.499 94.142 283.339 93.26 284.557 93.26C285.859 93.26 286.713 94.044 286.713 95.262V95.598C286.713 96.956 285.845 97.824 284.529 97.824ZM292.568 99.112C294.108 99.112 295.074 98.384 295.368 97.068H295.382C295.382 97.796 295.354 98.538 295.312 99H296.88V92.084H295.312V95.15C295.312 96.83 294.43 97.768 293.03 97.768C291.896 97.768 291.224 97.152 291.224 96.06V92.084H289.656V96.284C289.656 98.118 290.762 99.112 292.568 99.112ZM304.836 95.29C304.836 93.134 303.59 91.972 301.63 91.972C299.446 91.972 298.074 93.358 298.074 95.598C298.074 97.768 299.446 99.112 301.63 99.112C303.52 99.112 304.78 98.174 304.836 96.634H303.422C303.352 97.446 302.666 97.894 301.658 97.894C300.482 97.894 299.74 97.18 299.656 95.85H304.836V95.29ZM303.422 94.898H299.698C299.88 93.75 300.566 93.19 301.644 93.19C302.778 93.19 303.422 93.764 303.422 94.8V94.898ZM3.22 117.112C4.746 117.112 5.572 116.496 5.796 115.474H5.81C5.81 116.034 5.768 116.664 5.74 117H7.308V112.786C7.308 110.966 6.076 109.972 3.976 109.972C2.002 109.972 0.798 110.798 0.798 112.184C0.798 112.31 0.812 112.492 0.826 112.59H2.268C2.254 112.478 2.254 112.366 2.254 112.324C2.254 111.554 2.856 111.148 3.92 111.148C5.138 111.148 5.74 111.61 5.74 112.646V113.136H3.178C1.33 113.136 0.588 113.962 0.588 115.012C0.588 116.356 1.638 117.112 3.22 117.112ZM3.542 115.936C2.59 115.936 2.03 115.572 2.03 114.942C2.03 114.396 2.422 114.088 3.318 114.088H5.74V114.214C5.74 115.278 4.9 115.936 3.542 115.936ZM11.8224 117.112C13.7964 117.112 15.1124 116.034 15.1124 114.186H13.6984C13.6844 115.208 12.9984 115.824 11.8924 115.824C10.7304 115.824 10.0024 114.956 10.0024 113.542C10.0024 112.114 10.7444 111.26 11.9484 111.26C12.9984 111.26 13.6704 111.89 13.6844 112.926H15.0984C15.0984 111.092 13.8384 109.972 11.9064 109.972C9.82039 109.972 8.43439 111.33 8.43439 113.542C8.43439 115.754 9.79239 117.112 11.8224 117.112ZM16.3407 117H17.9087V113.976C17.9087 112.324 18.6507 111.316 19.8407 111.316C20.7647 111.316 21.2127 111.862 21.2127 113.024C21.2127 113.346 21.1847 113.696 21.1567 113.962H22.5847C22.6127 113.668 22.6547 113.108 22.6547 112.674C22.6547 110.952 21.8287 109.972 20.3307 109.972C18.9027 109.972 18.1887 110.826 17.8667 112.072H17.8527L17.9087 110.084H16.3407V117ZM30.384 113.29C30.384 111.134 29.138 109.972 27.178 109.972C24.994 109.972 23.622 111.358 23.622 113.598C23.622 115.768 24.994 117.112 27.178 117.112C29.068 117.112 30.328 116.174 30.384 114.634H28.97C28.9 115.446 28.214 115.894 27.206 115.894C26.03 115.894 25.288 115.18 25.204 113.85H30.384V113.29ZM28.97 112.898H25.246C25.428 111.75 26.114 111.19 27.192 111.19C28.326 111.19 28.97 111.764 28.97 112.8V112.898ZM34.635 117.112C36.049 117.112 36.917 116.412 37.183 115.32H37.211C37.183 115.992 37.169 116.594 37.141 117H38.709V107.298H37.141V111.302H37.127C36.847 110.49 36.035 109.972 34.733 109.972C32.675 109.972 31.373 111.414 31.373 113.5C31.373 115.656 32.633 117.112 34.635 117.112ZM34.957 115.824C33.725 115.824 32.927 114.872 32.927 113.5C32.927 112.184 33.739 111.26 34.985 111.26C36.287 111.26 37.141 112.044 37.141 113.276V113.612C37.141 114.956 36.273 115.824 34.957 115.824ZM40.1963 109.272H41.8063V107.732H40.1963V109.272ZM40.2103 117H41.7783V110.084H40.2103V117ZM46.3369 117.084C46.9109 117.084 47.3869 116.986 47.5969 116.916V115.67C47.4009 115.726 46.9529 115.796 46.5609 115.796C45.6089 115.796 45.2729 115.348 45.2729 114.452V111.358H47.6529V110.084H45.2729V108.516H43.9709L43.9009 109.552C43.8589 109.944 43.7609 110.084 43.4949 110.084H42.6129V111.358H43.7049V114.536C43.7049 116.062 44.4469 117.084 46.3369 117.084ZM50.983 117.112C52.509 117.112 53.335 116.496 53.559 115.474H53.573C53.573 116.034 53.531 116.664 53.503 117H55.071V112.786C55.071 110.966 53.839 109.972 51.739 109.972C49.765 109.972 48.561 110.798 48.561 112.184C48.561 112.31 48.575 112.492 48.589 112.59H50.031C50.017 112.478 50.017 112.366 50.017 112.324C50.017 111.554 50.619 111.148 51.683 111.148C52.901 111.148 53.503 111.61 53.503 112.646V113.136H50.941C49.093 113.136 48.351 113.962 48.351 115.012C48.351 116.356 49.401 117.112 50.983 117.112ZM51.305 115.936C50.353 115.936 49.793 115.572 49.793 114.942C49.793 114.396 50.185 114.088 51.081 114.088H53.503V114.214C53.503 115.278 52.663 115.936 51.305 115.936ZM56.4074 117H57.9754V113.626C57.9754 112.142 58.6894 111.316 59.7534 111.316C60.6914 111.316 61.2094 111.932 61.2094 112.912V117H62.7774V113.57C62.7774 112.128 63.4774 111.316 64.5694 111.316C65.5074 111.316 65.9974 111.932 65.9974 112.94V117H67.5654V112.59C67.5654 110.966 66.6834 109.972 65.1434 109.972C63.8274 109.972 62.9874 110.672 62.7354 111.792H62.7214C62.5534 110.672 61.6854 109.972 60.3414 109.972C59.0814 109.972 58.2414 110.714 57.9334 111.904H57.9194L57.9754 110.084H56.4074V117ZM71.9641 117H73.5321V113.654C73.5321 112.142 74.4001 111.316 75.7721 111.316C77.0181 111.316 77.6341 111.932 77.6341 113.024V117H79.2021V112.674C79.2021 110.966 78.1241 109.972 76.3741 109.972C74.7641 109.972 73.8681 110.686 73.4901 111.932H73.4761L73.5321 110.084H71.9641V117ZM83.9374 117.112C86.1494 117.112 87.5634 115.754 87.5634 113.556C87.5634 111.344 86.1494 109.972 83.9374 109.972C81.7394 109.972 80.3254 111.344 80.3254 113.556C80.3254 115.754 81.7394 117.112 83.9374 117.112ZM83.9374 115.824C82.6634 115.824 81.8934 114.956 81.8934 113.556C81.8934 112.142 82.6634 111.26 83.9374 111.26C85.2114 111.26 85.9954 112.142 85.9954 113.556C85.9954 114.956 85.2114 115.824 83.9374 115.824ZM94.8232 117.112C97.0352 117.112 98.2112 116.286 98.2112 114.886C98.2112 114.326 97.9452 113.794 97.4832 113.542C96.9932 113.262 96.4332 113.164 95.4532 113.066C94.6132 112.982 93.9552 112.912 93.6192 112.8C93.2132 112.66 93.1432 112.38 93.1432 112.086C93.1432 111.498 93.7592 111.106 94.8512 111.106C95.9992 111.106 96.4892 111.54 96.5032 112.436H97.9172C97.9172 110.868 96.9652 109.972 94.8092 109.972C92.9332 109.972 91.5892 110.812 91.5892 112.198C91.5892 112.73 91.8132 113.234 92.1912 113.514C92.6112 113.822 93.3392 113.962 94.4172 114.06C95.1872 114.13 95.8452 114.2 96.1812 114.326C96.5452 114.452 96.6432 114.69 96.6432 114.956C96.6432 115.586 96.0832 115.978 94.8092 115.978C93.4652 115.978 93.0032 115.488 93.0032 114.69H91.5892C91.5892 116.048 92.4432 117.112 94.8232 117.112ZM105.952 113.29C105.952 111.134 104.706 109.972 102.746 109.972C100.562 109.972 99.1898 111.358 99.1898 113.598C99.1898 115.768 100.562 117.112 102.746 117.112C104.636 117.112 105.896 116.174 105.952 114.634H104.538C104.468 115.446 103.782 115.894 102.774 115.894C101.598 115.894 100.856 115.18 100.772 113.85H105.952V113.29ZM104.538 112.898H100.814C100.996 111.75 101.682 111.19 102.76 111.19C103.894 111.19 104.538 111.764 104.538 112.8V112.898ZM109.993 117.112C111.533 117.112 112.499 116.384 112.793 115.068H112.807C112.807 115.796 112.779 116.538 112.737 117H114.305V110.084H112.737V113.15C112.737 114.83 111.855 115.768 110.455 115.768C109.321 115.768 108.649 115.152 108.649 114.06V110.084H107.081V114.284C107.081 116.118 108.187 117.112 109.993 117.112ZM118.812 119.772H120.38V117.056C120.38 116.776 120.352 116.062 120.338 115.6H120.352C120.646 116.496 121.542 117.112 122.914 117.112C124.902 117.112 126.162 115.656 126.162 113.416C126.162 111.33 124.916 109.972 122.942 109.972C121.57 109.972 120.646 110.644 120.366 111.694H120.352L120.38 110.084H118.812V119.772ZM122.606 115.824C121.262 115.824 120.38 115.068 120.38 113.892V113.528C120.408 112.142 121.276 111.26 122.578 111.26C123.824 111.26 124.594 112.128 124.594 113.458C124.594 114.9 123.81 115.824 122.606 115.824ZM127.355 117H128.923V113.976C128.923 112.324 129.665 111.316 130.855 111.316C131.779 111.316 132.227 111.862 132.227 113.024C132.227 113.346 132.199 113.696 132.171 113.962H133.599C133.627 113.668 133.669 113.108 133.669 112.674C133.669 110.952 132.843 109.972 131.345 109.972C129.917 109.972 129.203 110.826 128.881 112.072H128.867L128.923 110.084H127.355V117ZM137.478 109.37H138.71L140.208 107.41H138.57L137.478 109.37ZM138.248 117.112C140.46 117.112 141.874 115.754 141.874 113.556C141.874 111.344 140.46 109.972 138.248 109.972C136.05 109.972 134.636 111.344 134.636 113.556C134.636 115.754 136.05 117.112 138.248 117.112ZM138.248 115.824C136.974 115.824 136.204 114.956 136.204 113.556C136.204 112.142 136.974 111.26 138.248 111.26C139.522 111.26 140.306 112.142 140.306 113.556C140.306 114.956 139.522 115.824 138.248 115.824ZM143.09 119.772H144.658V117.056C144.658 116.776 144.63 116.062 144.616 115.6H144.63C144.924 116.496 145.82 117.112 147.192 117.112C149.18 117.112 150.44 115.656 150.44 113.416C150.44 111.33 149.194 109.972 147.22 109.972C145.848 109.972 144.924 110.644 144.644 111.694H144.63L144.658 110.084H143.09V119.772ZM146.884 115.824C145.54 115.824 144.658 115.068 144.658 113.892V113.528C144.686 112.142 145.554 111.26 146.856 111.26C148.102 111.26 148.872 112.128 148.872 113.458C148.872 114.9 148.088 115.824 146.884 115.824ZM151.633 117H153.201V113.976C153.201 112.324 153.943 111.316 155.133 111.316C156.057 111.316 156.505 111.862 156.505 113.024C156.505 113.346 156.477 113.696 156.449 113.962H157.877C157.905 113.668 157.947 113.108 157.947 112.674C157.947 110.952 157.121 109.972 155.623 109.972C154.195 109.972 153.481 110.826 153.159 112.072H153.145L153.201 110.084H151.633V117ZM159.167 109.272H160.777V107.732H159.167V109.272ZM159.181 117H160.749V110.084H159.181V117ZM165.629 117.112C167.841 117.112 169.255 115.754 169.255 113.556C169.255 111.344 167.841 109.972 165.629 109.972C163.431 109.972 162.017 111.344 162.017 113.556C162.017 115.754 163.431 117.112 165.629 117.112ZM165.629 115.824C164.355 115.824 163.585 114.956 163.585 113.556C163.585 112.142 164.355 111.26 165.629 111.26C166.903 111.26 167.687 112.142 167.687 113.556C167.687 114.956 166.903 115.824 165.629 115.824ZM173.533 119.772H175.101V117.056C175.101 116.776 175.073 116.062 175.059 115.6H175.073C175.367 116.496 176.263 117.112 177.635 117.112C179.623 117.112 180.883 115.656 180.883 113.416C180.883 111.33 179.637 109.972 177.663 109.972C176.291 109.972 175.367 110.644 175.087 111.694H175.073L175.101 110.084H173.533V119.772ZM177.327 115.824C175.983 115.824 175.101 115.068 175.101 113.892V113.528C175.129 112.142 175.997 111.26 177.299 111.26C178.545 111.26 179.315 112.128 179.315 113.458C179.315 114.9 178.531 115.824 177.327 115.824ZM185.478 117.112C187.69 117.112 189.104 115.754 189.104 113.556C189.104 111.344 187.69 109.972 185.478 109.972C183.28 109.972 181.866 111.344 181.866 113.556C181.866 115.754 183.28 117.112 185.478 117.112ZM185.478 115.824C184.204 115.824 183.434 114.956 183.434 113.556C183.434 112.142 184.204 111.26 185.478 111.26C186.752 111.26 187.536 112.142 187.536 113.556C187.536 114.956 186.752 115.824 185.478 115.824ZM193.249 117.084C193.823 117.084 194.299 116.986 194.509 116.916V115.67C194.313 115.726 193.865 115.796 193.473 115.796C192.521 115.796 192.185 115.348 192.185 114.452V111.358H194.565V110.084H192.185V108.516H190.883L190.813 109.552C190.771 109.944 190.673 110.084 190.407 110.084H189.525V111.358H190.617V114.536C190.617 116.062 191.359 117.084 193.249 117.084ZM201.929 113.29C201.929 111.134 200.683 109.972 198.723 109.972C196.539 109.972 195.167 111.358 195.167 113.598C195.167 115.768 196.539 117.112 198.723 117.112C200.613 117.112 201.873 116.174 201.929 114.634H200.515C200.445 115.446 199.759 115.894 198.751 115.894C197.575 115.894 196.833 115.18 196.749 113.85H201.929V113.29ZM200.515 112.898H196.791C196.973 111.75 197.659 111.19 198.737 111.19C199.871 111.19 200.515 111.764 200.515 112.8V112.898ZM203.128 117H204.696V113.654C204.696 112.142 205.564 111.316 206.936 111.316C208.182 111.316 208.798 111.932 208.798 113.024V117H210.366V112.674C210.366 110.966 209.288 109.972 207.538 109.972C205.928 109.972 205.032 110.686 204.654 111.932H204.64L204.696 110.084H203.128V117ZM214.877 117.112C216.851 117.112 218.167 116.034 218.167 114.186H216.753C216.739 115.208 216.053 115.824 214.947 115.824C213.785 115.824 213.057 114.956 213.057 113.542C213.057 112.114 213.799 111.26 215.003 111.26C216.053 111.26 216.725 111.89 216.739 112.926H218.153C218.153 111.092 216.893 109.972 214.961 109.972C212.875 109.972 211.489 111.33 211.489 113.542C211.489 115.754 212.847 117.112 214.877 117.112ZM219.438 109.272H221.048V107.732H219.438V109.272ZM219.452 117H221.02V110.084H219.452V117ZM224.934 117.112C226.46 117.112 227.286 116.496 227.51 115.474H227.524C227.524 116.034 227.482 116.664 227.454 117H229.022V112.786C229.022 110.966 227.79 109.972 225.69 109.972C223.716 109.972 222.512 110.798 222.512 112.184C222.512 112.31 222.526 112.492 222.54 112.59H223.982C223.968 112.478 223.968 112.366 223.968 112.324C223.968 111.554 224.57 111.148 225.634 111.148C226.852 111.148 227.454 111.61 227.454 112.646V113.136H224.892C223.044 113.136 222.302 113.962 222.302 115.012C222.302 116.356 223.352 117.112 224.934 117.112ZM225.256 115.936C224.304 115.936 223.744 115.572 223.744 114.942C223.744 114.396 224.136 114.088 225.032 114.088H227.454V114.214C227.454 115.278 226.614 115.936 225.256 115.936ZM230.401 117H231.969V107.298H230.401V117ZM243.047 113.29C243.047 111.134 241.801 109.972 239.841 109.972C237.657 109.972 236.285 111.358 236.285 113.598C236.285 115.768 237.657 117.112 239.841 117.112C241.731 117.112 242.991 116.174 243.047 114.634H241.633C241.563 115.446 240.877 115.894 239.869 115.894C238.693 115.894 237.951 115.18 237.867 113.85H243.047V113.29ZM241.633 112.898H237.909C238.091 111.75 238.777 111.19 239.855 111.19C240.989 111.19 241.633 111.764 241.633 112.8V112.898ZM247.308 117H248.876V113.654C248.876 112.142 249.744 111.316 251.116 111.316C252.362 111.316 252.978 111.932 252.978 113.024V117H254.546V112.674C254.546 110.966 253.468 109.972 251.718 109.972C250.108 109.972 249.212 110.686 248.834 111.932H248.82L248.876 110.084H247.308V117ZM259.281 117.112C261.493 117.112 262.907 115.754 262.907 113.556C262.907 111.344 261.493 109.972 259.281 109.972C257.083 109.972 255.669 111.344 255.669 113.556C255.669 115.754 257.083 117.112 259.281 117.112ZM259.281 115.824C258.007 115.824 257.237 114.956 257.237 113.556C257.237 112.142 258.007 111.26 259.281 111.26C260.555 111.26 261.339 112.142 261.339 113.556C261.339 114.956 260.555 115.824 259.281 115.824ZM0.826 137.772H2.394V135.056C2.394 134.776 2.366 134.062 2.352 133.6H2.366C2.66 134.496 3.556 135.112 4.928 135.112C6.916 135.112 8.176 133.656 8.176 131.416C8.176 129.33 6.93 127.972 4.956 127.972C3.584 127.972 2.66 128.644 2.38 129.694H2.366L2.394 128.084H0.826V137.772ZM4.62 133.824C3.276 133.824 2.394 133.068 2.394 131.892V131.528C2.422 130.142 3.29 129.26 4.592 129.26C5.838 129.26 6.608 130.128 6.608 131.458C6.608 132.9 5.824 133.824 4.62 133.824ZM9.369 135H10.937V131.976C10.937 130.324 11.679 129.316 12.869 129.316C13.793 129.316 14.241 129.862 14.241 131.024C14.241 131.346 14.213 131.696 14.185 131.962H15.613C15.641 131.668 15.683 131.108 15.683 130.674C15.683 128.952 14.857 127.972 13.359 127.972C11.931 127.972 11.217 128.826 10.895 130.072H10.881L10.937 128.084H9.369V135ZM20.2623 135.112C22.4743 135.112 23.8883 133.754 23.8883 131.556C23.8883 129.344 22.4743 127.972 20.2623 127.972C18.0643 127.972 16.6503 129.344 16.6503 131.556C16.6503 133.754 18.0643 135.112 20.2623 135.112ZM20.2623 133.824C18.9883 133.824 18.2183 132.956 18.2183 131.556C18.2183 130.142 18.9883 129.26 20.2623 129.26C21.5363 129.26 22.3203 130.142 22.3203 131.556C22.3203 132.956 21.5363 133.824 20.2623 133.824ZM25.1044 137.772H26.6724V135.056C26.6724 134.776 26.6444 134.062 26.6304 133.6H26.6444C26.9384 134.496 27.8344 135.112 29.2064 135.112C31.1944 135.112 32.4544 133.656 32.4544 131.416C32.4544 129.33 31.2084 127.972 29.2344 127.972C27.8624 127.972 26.9384 128.644 26.6584 129.694H26.6444L26.6724 128.084H25.1044V137.772ZM28.8984 133.824C27.5544 133.824 26.6724 133.068 26.6724 131.892V131.528C26.7004 130.142 27.5684 129.26 28.8704 129.26C30.1164 129.26 30.8864 130.128 30.8864 131.458C30.8864 132.9 30.1024 133.824 28.8984 133.824ZM36.2794 127.37H37.5114L39.0094 125.41H37.3714L36.2794 127.37ZM37.0494 135.112C39.2614 135.112 40.6754 133.754 40.6754 131.556C40.6754 129.344 39.2614 127.972 37.0494 127.972C34.8514 127.972 33.4374 129.344 33.4374 131.556C33.4374 133.754 34.8514 135.112 37.0494 135.112ZM37.0494 133.824C35.7754 133.824 35.0054 132.956 35.0054 131.556C35.0054 130.142 35.7754 129.26 37.0494 129.26C38.3234 129.26 39.1074 130.142 39.1074 131.556C39.1074 132.956 38.3234 133.824 37.0494 133.824ZM44.7916 135.112C47.0036 135.112 48.1796 134.286 48.1796 132.886C48.1796 132.326 47.9136 131.794 47.4516 131.542C46.9616 131.262 46.4016 131.164 45.4216 131.066C44.5816 130.982 43.9236 130.912 43.5876 130.8C43.1816 130.66 43.1116 130.38 43.1116 130.086C43.1116 129.498 43.7276 129.106 44.8196 129.106C45.9676 129.106 46.4576 129.54 46.4716 130.436H47.8856C47.8856 128.868 46.9336 127.972 44.7776 127.972C42.9016 127.972 41.5576 128.812 41.5576 130.198C41.5576 130.73 41.7816 131.234 42.1596 131.514C42.5796 131.822 43.3076 131.962 44.3856 132.06C45.1556 132.13 45.8136 132.2 46.1496 132.326C46.5136 132.452 46.6116 132.69 46.6116 132.956C46.6116 133.586 46.0516 133.978 44.7776 133.978C43.4336 133.978 42.9716 133.488 42.9716 132.69H41.5576C41.5576 134.048 42.4116 135.112 44.7916 135.112ZM49.4102 127.272H51.0202V125.732H49.4102V127.272ZM49.4242 135H50.9922V128.084H49.4242V135ZM55.5508 135.084C56.1248 135.084 56.6008 134.986 56.8108 134.916V133.67C56.6148 133.726 56.1668 133.796 55.7748 133.796C54.8228 133.796 54.4868 133.348 54.4868 132.452V129.358H56.8668V128.084H54.4868V126.516H53.1848L53.1148 127.552C53.0728 127.944 52.9748 128.084 52.7088 128.084H51.8268V129.358H52.9188V132.536C52.9188 134.062 53.6608 135.084 55.5508 135.084ZM61.0808 135.112C63.2928 135.112 64.7068 133.754 64.7068 131.556C64.7068 129.344 63.2928 127.972 61.0808 127.972C58.8828 127.972 57.4688 129.344 57.4688 131.556C57.4688 133.754 58.8828 135.112 61.0808 135.112ZM61.0808 133.824C59.8068 133.824 59.0368 132.956 59.0368 131.556C59.0368 130.142 59.8068 129.26 61.0808 129.26C62.3548 129.26 63.1388 130.142 63.1388 131.556C63.1388 132.956 62.3548 133.824 61.0808 133.824ZM71.9946 135.112C73.4086 135.112 74.2766 134.412 74.5426 133.32H74.5706C74.5426 133.992 74.5286 134.594 74.5006 135H76.0686V125.298H74.5006V129.302H74.4866C74.2066 128.49 73.3946 127.972 72.0926 127.972C70.0346 127.972 68.7326 129.414 68.7326 131.5C68.7326 133.656 69.9926 135.112 71.9946 135.112ZM72.3166 133.824C71.0846 133.824 70.2866 132.872 70.2866 131.5C70.2866 130.184 71.0986 129.26 72.3446 129.26C73.6466 129.26 74.5006 130.044 74.5006 131.276V131.612C74.5006 132.956 73.6326 133.824 72.3166 133.824ZM79.9499 135.112C81.4759 135.112 82.3019 134.496 82.5259 133.474H82.5399C82.5399 134.034 82.4979 134.664 82.4699 135H84.0379V130.786C84.0379 128.966 82.8059 127.972 80.7059 127.972C78.7319 127.972 77.5279 128.798 77.5279 130.184C77.5279 130.31 77.5419 130.492 77.5559 130.59H78.9979C78.9839 130.478 78.9839 130.366 78.9839 130.324C78.9839 129.554 79.5859 129.148 80.6499 129.148C81.8679 129.148 82.4699 129.61 82.4699 130.646V131.136H79.9079C78.0599 131.136 77.3179 131.962 77.3179 133.012C77.3179 134.356 78.3679 135.112 79.9499 135.112ZM80.2719 133.936C79.3199 133.936 78.7599 133.572 78.7599 132.942C78.7599 132.396 79.1519 132.088 80.0479 132.088H82.4699V132.214C82.4699 133.278 81.6299 133.936 80.2719 133.936ZM94.9879 131.29C94.9879 129.134 93.7419 127.972 91.7819 127.972C89.5979 127.972 88.2259 129.358 88.2259 131.598C88.2259 133.768 89.5979 135.112 91.7819 135.112C93.6719 135.112 94.9319 134.174 94.9879 132.634H93.5739C93.5039 133.446 92.8179 133.894 91.8099 133.894C90.6339 133.894 89.8919 133.18 89.8079 131.85H94.9879V131.29ZM93.5739 130.898H89.8499C90.0319 129.75 90.7179 129.19 91.7959 129.19C92.9299 129.19 93.5739 129.764 93.5739 130.8V130.898ZM96.1869 135H97.7549V131.626C97.7549 130.142 98.4689 129.316 99.5329 129.316C100.471 129.316 100.989 129.932 100.989 130.912V135H102.557V131.57C102.557 130.128 103.257 129.316 104.349 129.316C105.287 129.316 105.777 129.932 105.777 130.94V135H107.345V130.59C107.345 128.966 106.463 127.972 104.923 127.972C103.607 127.972 102.767 128.672 102.515 129.792H102.501C102.333 128.672 101.465 127.972 100.121 127.972C98.8609 127.972 98.0209 128.714 97.7129 129.904H97.6989L97.7549 128.084H96.1869V135ZM108.724 137.772H110.292V135.056C110.292 134.776 110.264 134.062 110.25 133.6H110.264C110.558 134.496 111.454 135.112 112.826 135.112C114.814 135.112 116.074 133.656 116.074 131.416C116.074 129.33 114.828 127.972 112.854 127.972C111.482 127.972 110.558 128.644 110.278 129.694H110.264L110.292 128.084H108.724V137.772ZM112.518 133.824C111.174 133.824 110.292 133.068 110.292 131.892V131.528C110.32 130.142 111.188 129.26 112.49 129.26C113.736 129.26 114.506 130.128 114.506 131.458C114.506 132.9 113.722 133.824 112.518 133.824ZM117.267 135H118.835V131.976C118.835 130.324 119.577 129.316 120.767 129.316C121.691 129.316 122.139 129.862 122.139 131.024C122.139 131.346 122.111 131.696 122.083 131.962H123.511C123.539 131.668 123.581 131.108 123.581 130.674C123.581 128.952 122.755 127.972 121.257 127.972C119.829 127.972 119.115 128.826 118.793 130.072H118.779L118.835 128.084H117.267V135ZM131.31 131.29C131.31 129.134 130.064 127.972 128.104 127.972C125.92 127.972 124.548 129.358 124.548 131.598C124.548 133.768 125.92 135.112 128.104 135.112C129.994 135.112 131.254 134.174 131.31 132.634H129.896C129.826 133.446 129.14 133.894 128.132 133.894C126.956 133.894 126.214 133.18 126.13 131.85H131.31V131.29ZM129.896 130.898H126.172C126.354 129.75 127.04 129.19 128.118 129.19C129.252 129.19 129.896 129.764 129.896 130.8V130.898ZM135.533 135.112C137.745 135.112 138.921 134.286 138.921 132.886C138.921 132.326 138.655 131.794 138.193 131.542C137.703 131.262 137.143 131.164 136.163 131.066C135.323 130.982 134.665 130.912 134.329 130.8C133.923 130.66 133.853 130.38 133.853 130.086C133.853 129.498 134.469 129.106 135.561 129.106C136.709 129.106 137.199 129.54 137.213 130.436H138.627C138.627 128.868 137.675 127.972 135.519 127.972C133.643 127.972 132.299 128.812 132.299 130.198C132.299 130.73 132.523 131.234 132.901 131.514C133.321 131.822 134.049 131.962 135.127 132.06C135.897 132.13 136.555 132.2 136.891 132.326C137.255 132.452 137.353 132.69 137.353 132.956C137.353 133.586 136.793 133.978 135.519 133.978C134.175 133.978 133.713 133.488 133.713 132.69H132.299C132.299 134.048 133.153 135.112 135.533 135.112ZM142.546 135.112C144.072 135.112 144.898 134.496 145.122 133.474H145.136C145.136 134.034 145.094 134.664 145.066 135H146.634V130.786C146.634 128.966 145.402 127.972 143.302 127.972C141.328 127.972 140.124 128.798 140.124 130.184C140.124 130.31 140.138 130.492 140.152 130.59H141.594C141.58 130.478 141.58 130.366 141.58 130.324C141.58 129.554 142.182 129.148 143.246 129.148C144.464 129.148 145.066 129.61 145.066 130.646V131.136H142.504C140.656 131.136 139.914 131.962 139.914 133.012C139.914 134.356 140.964 135.112 142.546 135.112ZM142.868 133.936C141.916 133.936 141.356 133.572 141.356 132.942C141.356 132.396 141.748 132.088 142.644 132.088H145.066V132.214C145.066 133.278 144.226 133.936 142.868 133.936ZM148.404 131.836H149.02L149.482 127.174V125.592H147.942V127.174L148.404 131.836ZM147.914 135H149.51V133.18H147.914V135ZM161.014 135H162.96L159.222 125.788H157.178L153.426 135H155.162L155.946 132.928H160.244L161.014 135ZM156.366 131.808L158.088 127.216H158.116L159.824 131.808H156.366ZM169.967 135.112C172.179 135.112 173.355 134.286 173.355 132.886C173.355 132.326 173.089 131.794 172.627 131.542C172.137 131.262 171.577 131.164 170.597 131.066C169.757 130.982 169.099 130.912 168.763 130.8C168.357 130.66 168.287 130.38 168.287 130.086C168.287 129.498 168.903 129.106 169.995 129.106C171.143 129.106 171.633 129.54 171.647 130.436H173.061C173.061 128.868 172.109 127.972 169.953 127.972C168.077 127.972 166.733 128.812 166.733 130.198C166.733 130.73 166.957 131.234 167.335 131.514C167.755 131.822 168.483 131.962 169.561 132.06C170.331 132.13 170.989 132.2 171.325 132.326C171.689 132.452 171.787 132.69 171.787 132.956C171.787 133.586 171.227 133.978 169.953 133.978C168.609 133.978 168.147 133.488 168.147 132.69H166.733C166.733 134.048 167.587 135.112 169.967 135.112ZM177.946 135.112C180.158 135.112 181.572 133.754 181.572 131.556C181.572 129.344 180.158 127.972 177.946 127.972C175.748 127.972 174.334 129.344 174.334 131.556C174.334 133.754 175.748 135.112 177.946 135.112ZM177.946 133.824C176.672 133.824 175.902 132.956 175.902 131.556C175.902 130.142 176.672 129.26 177.946 129.26C179.22 129.26 180.004 130.142 180.004 131.556C180.004 132.956 179.22 133.824 177.946 133.824ZM182.746 135H184.314V131.626C184.314 130.142 185.028 129.316 186.092 129.316C187.03 129.316 187.548 129.932 187.548 130.912V135H189.116V131.57C189.116 130.128 189.816 129.316 190.908 129.316C191.846 129.316 192.336 129.932 192.336 130.94V135H193.904V130.59C193.904 128.966 193.022 127.972 191.482 127.972C190.166 127.972 189.326 128.672 189.074 129.792H189.06C188.892 128.672 188.024 127.972 186.68 127.972C185.42 127.972 184.58 128.714 184.272 129.904H184.258L184.314 128.084H182.746V135ZM197.677 135.112C199.203 135.112 200.029 134.496 200.253 133.474H200.267C200.267 134.034 200.225 134.664 200.197 135H201.765V130.786C201.765 128.966 200.533 127.972 198.433 127.972C196.459 127.972 195.255 128.798 195.255 130.184C195.255 130.31 195.269 130.492 195.283 130.59H196.725C196.711 130.478 196.711 130.366 196.711 130.324C196.711 129.554 197.313 129.148 198.377 129.148C199.595 129.148 200.197 129.61 200.197 130.646V131.136H197.635C195.787 131.136 195.045 131.962 195.045 133.012C195.045 134.356 196.095 135.112 197.677 135.112ZM197.999 133.936C197.047 133.936 196.487 133.572 196.487 132.942C196.487 132.396 196.879 132.088 197.775 132.088H200.197V132.214C200.197 133.278 199.357 133.936 197.999 133.936ZM209.215 135.112C210.629 135.112 211.497 134.412 211.763 133.32H211.791C211.763 133.992 211.749 134.594 211.721 135H213.289V125.298H211.721V129.302H211.707C211.427 128.49 210.615 127.972 209.313 127.972C207.255 127.972 205.953 129.414 205.953 131.5C205.953 133.656 207.213 135.112 209.215 135.112ZM209.537 133.824C208.305 133.824 207.507 132.872 207.507 131.5C207.507 130.184 208.319 129.26 209.565 129.26C210.867 129.26 211.721 130.044 211.721 131.276V131.612C211.721 132.956 210.853 133.824 209.537 133.824ZM221.286 131.29C221.286 129.134 220.04 127.972 218.08 127.972C215.896 127.972 214.524 129.358 214.524 131.598C214.524 133.768 215.896 135.112 218.08 135.112C219.97 135.112 221.23 134.174 221.286 132.634H219.872C219.802 133.446 219.116 133.894 218.108 133.894C216.932 133.894 216.19 133.18 216.106 131.85H221.286V131.29ZM219.872 130.898H216.148C216.33 129.75 217.016 129.19 218.094 129.19C219.228 129.19 219.872 129.764 219.872 130.8V130.898ZM227.899 135H229.579V127.174H232.435V125.788H225.043V127.174H227.899V135ZM237.37 135.14C240.058 135.14 242.158 133.334 242.158 130.352C242.158 127.426 240.058 125.648 237.37 125.648C234.696 125.648 232.596 127.426 232.596 130.352C232.596 133.334 234.696 135.14 237.37 135.14ZM237.37 133.74C235.676 133.74 234.304 132.466 234.304 130.352C234.304 128.294 235.676 127.048 237.37 127.048C239.078 127.048 240.45 128.294 240.45 130.352C240.45 132.466 239.078 133.74 237.37 133.74ZM243.458 135H247.28C249.968 135 251.648 133.334 251.648 130.38C251.648 127.454 249.87 125.788 246.986 125.788H243.458V135ZM245.138 133.6V127.188H247.056C248.82 127.188 249.982 128.28 249.982 130.38C249.982 132.494 248.904 133.6 247.252 133.6H245.138ZM257.411 135.14C260.099 135.14 262.199 133.334 262.199 130.352C262.199 127.426 260.099 125.648 257.411 125.648C254.737 125.648 252.637 127.426 252.637 130.352C252.637 133.334 254.737 135.14 257.411 135.14ZM257.411 133.74C255.717 133.74 254.345 132.466 254.345 130.352C254.345 128.294 255.717 127.048 257.411 127.048C259.119 127.048 260.491 128.294 260.491 130.352C260.491 132.466 259.119 133.74 257.411 133.74ZM267.069 135.14C270.205 135.14 271.073 133.754 271.073 132.27C271.073 131.416 270.709 130.772 270.079 130.45C269.505 130.142 268.609 129.988 267.643 129.834C266.845 129.722 265.809 129.554 265.403 129.358C265.039 129.19 264.857 128.882 264.857 128.364C264.857 127.524 265.683 126.95 267.069 126.95C268.511 126.95 269.253 127.594 269.253 128.952H270.765C270.765 126.852 269.771 125.648 267.041 125.648C264.633 125.648 263.191 126.824 263.191 128.504C263.191 129.372 263.541 130.002 264.101 130.352C264.605 130.674 265.585 130.884 266.509 131.01C267.307 131.122 268.301 131.248 268.763 131.43C269.197 131.584 269.407 131.878 269.407 132.382C269.407 133.138 268.931 133.838 267.055 133.838C265.291 133.838 264.731 133.026 264.731 131.85H263.219C263.219 133.53 264.017 135.14 267.069 135.14ZM4.074 153.14C6.342 153.14 7.644 151.74 7.644 149.024V143.788H5.964V149.136C5.964 150.9 5.236 151.74 4.018 151.74C2.8 151.74 2.156 150.928 2.156 149.584C2.156 149.094 2.17 148.562 2.184 148.24H0.686C0.672 148.562 0.644 149.15 0.644 149.626C0.644 151.852 1.848 153.14 4.074 153.14ZM13.2252 153.14C15.7032 153.14 17.2572 151.74 17.2572 149.528V143.788H15.7592V149.5C15.7592 150.9 14.8072 151.698 13.2952 151.698C11.7972 151.698 10.8312 150.9 10.8312 149.5V143.788H9.16523V149.528C9.16523 151.74 10.7332 153.14 13.2252 153.14ZM18.8316 153H20.4136L20.3996 145.188H20.4136L25.3276 153H27.3156V143.788H25.7336L25.7616 150.788H25.7336L21.3516 143.788H18.8316V153ZM31.1879 153H32.8679V145.174H35.7239V143.788H28.3319V145.174H31.1879V153ZM40.6587 153.14C43.3467 153.14 45.4467 151.334 45.4467 148.352C45.4467 145.426 43.3467 143.648 40.6587 143.648C37.9847 143.648 35.8847 145.426 35.8847 148.352C35.8847 151.334 37.9847 153.14 40.6587 153.14ZM40.6587 151.74C38.9647 151.74 37.5927 150.466 37.5927 148.352C37.5927 146.294 38.9647 145.048 40.6587 145.048C42.3667 145.048 43.7387 146.294 43.7387 148.352C43.7387 150.466 42.3667 151.74 40.6587 151.74ZM50.3168 153.14C53.4528 153.14 54.3208 151.754 54.3208 150.27C54.3208 149.416 53.9568 148.772 53.3268 148.45C52.7528 148.142 51.8568 147.988 50.8908 147.834C50.0928 147.722 49.0568 147.554 48.6508 147.358C48.2868 147.19 48.1048 146.882 48.1048 146.364C48.1048 145.524 48.9308 144.95 50.3168 144.95C51.7588 144.95 52.5008 145.594 52.5008 146.952H54.0128C54.0128 144.852 53.0188 143.648 50.2888 143.648C47.8808 143.648 46.4388 144.824 46.4388 146.504C46.4388 147.372 46.7888 148.002 47.3488 148.352C47.8528 148.674 48.8328 148.884 49.7568 149.01C50.5548 149.122 51.5488 149.248 52.0108 149.43C52.4448 149.584 52.6548 149.878 52.6548 150.382C52.6548 151.138 52.1788 151.838 50.3028 151.838C48.5388 151.838 47.9788 151.026 47.9788 149.85H46.4668C46.4668 151.53 47.2648 153.14 50.3168 153.14ZM59.0578 153H60.6258V147.358H63.0338V146.084H60.6258V145.468C60.6258 144.712 61.0598 144.292 61.8578 144.292C62.3338 144.292 62.6978 144.39 62.9218 144.46V143.214C62.6978 143.13 62.1938 143.018 61.5778 143.018C60.0798 143.018 59.0578 143.858 59.0578 145.398V146.084H57.9518V147.358H59.0578V153ZM66.0621 153.112C67.5881 153.112 68.4141 152.496 68.6381 151.474H68.6521C68.6521 152.034 68.6101 152.664 68.5821 153H70.1501V148.786C70.1501 146.966 68.9181 145.972 66.8181 145.972C64.8441 145.972 63.6401 146.798 63.6401 148.184C63.6401 148.31 63.6541 148.492 63.6681 148.59H65.1101C65.0961 148.478 65.0961 148.366 65.0961 148.324C65.0961 147.554 65.6981 147.148 66.7621 147.148C67.9801 147.148 68.5821 147.61 68.5821 148.646V149.136H66.0201C64.1721 149.136 63.4301 149.962 63.4301 151.012C63.4301 152.356 64.4801 153.112 66.0621 153.112ZM66.3841 151.936C65.4321 151.936 64.8721 151.572 64.8721 150.942C64.8721 150.396 65.2641 150.088 66.1601 150.088H68.5821V150.214C68.5821 151.278 67.7421 151.936 66.3841 151.936ZM71.2485 153H77.1005V151.726H73.2785V151.712L77.1005 147.05V146.084H71.3605V147.358H75.0565V147.386L71.2485 152.02V153ZM84.6274 149.29C84.6274 147.134 83.3814 145.972 81.4214 145.972C79.2374 145.972 77.8654 147.358 77.8654 149.598C77.8654 151.768 79.2374 153.112 81.4214 153.112C83.3114 153.112 84.5714 152.174 84.6274 150.634H83.2134C83.1434 151.446 82.4574 151.894 81.4494 151.894C80.2734 151.894 79.5314 151.18 79.4474 149.85H84.6274V149.29ZM83.2134 148.898H79.4894C79.6714 147.75 80.3574 147.19 81.4354 147.19C82.5694 147.19 83.2134 147.764 83.2134 148.8V148.898ZM85.8264 153H87.3944V149.654C87.3944 148.142 88.2624 147.316 89.6344 147.316C90.8804 147.316 91.4964 147.932 91.4964 149.024V153H93.0644V148.674C93.0644 146.966 91.9864 145.972 90.2364 145.972C88.6264 145.972 87.7304 146.686 87.3524 147.932H87.3384L87.3944 146.084H85.8264V153ZM97.4497 153.112C98.8637 153.112 99.7317 152.412 99.9977 151.32H100.026C99.9977 151.992 99.9837 152.594 99.9557 153H101.524V143.298H99.9557V147.302H99.9417C99.6617 146.49 98.8497 145.972 97.5477 145.972C95.4897 145.972 94.1877 147.414 94.1877 149.5C94.1877 151.656 95.4477 153.112 97.4497 153.112ZM97.7717 151.824C96.5397 151.824 95.7417 150.872 95.7417 149.5C95.7417 148.184 96.5537 147.26 97.7997 147.26C99.1017 147.26 99.9557 148.044 99.9557 149.276V149.612C99.9557 150.956 99.0877 151.824 97.7717 151.824ZM106.371 153.112C108.583 153.112 109.997 151.754 109.997 149.556C109.997 147.344 108.583 145.972 106.371 145.972C104.173 145.972 102.759 147.344 102.759 149.556C102.759 151.754 104.173 153.112 106.371 153.112ZM106.371 151.824C105.097 151.824 104.327 150.956 104.327 149.556C104.327 148.142 105.097 147.26 106.371 147.26C107.645 147.26 108.429 148.142 108.429 149.556C108.429 150.956 107.645 151.824 106.371 151.824ZM117.635 153.112C119.847 153.112 121.261 151.754 121.261 149.556C121.261 147.344 119.847 145.972 117.635 145.972C115.437 145.972 114.023 147.344 114.023 149.556C114.023 151.754 115.437 153.112 117.635 153.112ZM117.635 151.824C116.361 151.824 115.591 150.956 115.591 149.556C115.591 148.142 116.361 147.26 117.635 147.26C118.909 147.26 119.693 148.142 119.693 149.556C119.693 150.956 118.909 151.824 117.635 151.824ZM131.055 155.772H132.623V146.084H131.069V147.4H131.055C130.775 146.518 129.949 145.972 128.605 145.972C126.673 145.972 125.287 147.358 125.287 149.486C125.287 151.698 126.547 153.112 128.535 153.112C129.865 153.112 130.789 152.44 131.041 151.404H131.055V155.772ZM128.871 151.824C127.653 151.824 126.841 150.914 126.841 149.486C126.841 148.142 127.681 147.26 128.899 147.26C130.201 147.26 131.055 148.044 131.055 149.262V149.598C131.055 150.956 130.187 151.824 128.871 151.824ZM136.91 153.112C138.45 153.112 139.416 152.384 139.71 151.068H139.724C139.724 151.796 139.696 152.538 139.654 153H141.222V146.084H139.654V149.15C139.654 150.83 138.772 151.768 137.372 151.768C136.238 151.768 135.566 151.152 135.566 150.06V146.084H133.998V150.284C133.998 152.118 135.104 153.112 136.91 153.112ZM149.178 149.29C149.178 147.134 147.932 145.972 145.972 145.972C143.788 145.972 142.416 147.358 142.416 149.598C142.416 151.768 143.788 153.112 145.972 153.112C147.862 153.112 149.122 152.174 149.178 150.634H147.764C147.694 151.446 147.008 151.894 146 151.894C144.824 151.894 144.082 151.18 143.998 149.85H149.178V149.29ZM147.764 148.898H144.04C144.222 147.75 144.908 147.19 145.986 147.19C147.12 147.19 147.764 147.764 147.764 148.8V148.898ZM155.874 153.112C157.4 153.112 158.226 152.496 158.45 151.474H158.464C158.464 152.034 158.422 152.664 158.394 153H159.962V148.786C159.962 146.966 158.73 145.972 156.63 145.972C154.656 145.972 153.452 146.798 153.452 148.184C153.452 148.31 153.466 148.492 153.48 148.59H154.922C154.908 148.478 154.908 148.366 154.908 148.324C154.908 147.554 155.51 147.148 156.574 147.148C157.792 147.148 158.394 147.61 158.394 148.646V149.136H155.832C153.984 149.136 153.242 149.962 153.242 151.012C153.242 152.356 154.292 153.112 155.874 153.112ZM156.196 151.936C155.244 151.936 154.684 151.572 154.684 150.942C154.684 150.396 155.076 150.088 155.972 150.088H158.394V150.214C158.394 151.278 157.554 151.936 156.196 151.936ZM161.299 153H162.867V149.626C162.867 148.142 163.581 147.316 164.645 147.316C165.583 147.316 166.101 147.932 166.101 148.912V153H167.669V149.57C167.669 148.128 168.369 147.316 169.461 147.316C170.399 147.316 170.889 147.932 170.889 148.94V153H172.457V148.59C172.457 146.966 171.575 145.972 170.035 145.972C168.719 145.972 167.879 146.672 167.627 147.792H167.613C167.445 146.672 166.577 145.972 165.233 145.972C163.973 145.972 163.133 146.714 162.825 147.904H162.811L162.867 146.084H161.299V153ZM176.23 153.112C177.756 153.112 178.582 152.496 178.806 151.474H178.82C178.82 152.034 178.778 152.664 178.75 153H180.318V148.786C180.318 146.966 179.086 145.972 176.986 145.972C175.012 145.972 173.808 146.798 173.808 148.184C173.808 148.31 173.822 148.492 173.836 148.59H175.278C175.264 148.478 175.264 148.366 175.264 148.324C175.264 147.554 175.866 147.148 176.93 147.148C178.148 147.148 178.75 147.61 178.75 148.646V149.136H176.188C174.34 149.136 173.598 149.962 173.598 151.012C173.598 152.356 174.648 153.112 176.23 153.112ZM176.552 151.936C175.6 151.936 175.04 151.572 175.04 150.942C175.04 150.396 175.432 150.088 176.328 150.088H178.75V150.214C178.75 151.278 177.91 151.936 176.552 151.936ZM181.654 153H183.222V149.626C183.222 148.142 183.936 147.316 185 147.316C185.938 147.316 186.456 147.932 186.456 148.912V153H188.024V149.57C188.024 148.128 188.724 147.316 189.816 147.316C190.754 147.316 191.244 147.932 191.244 148.94V153H192.812V148.59C192.812 146.966 191.93 145.972 190.39 145.972C189.074 145.972 188.234 146.672 187.982 147.792H187.968C187.8 146.672 186.932 145.972 185.588 145.972C184.328 145.972 183.488 146.714 183.18 147.904H183.166L183.222 146.084H181.654V153ZM197.673 153H199.241V147.358H201.649V146.084H199.241V145.468C199.241 144.712 199.675 144.292 200.473 144.292C200.949 144.292 201.313 144.39 201.537 144.46V143.214C201.313 143.13 200.809 143.018 200.193 143.018C198.695 143.018 197.673 143.858 197.673 145.398V146.084H196.567V147.358H197.673V153ZM204.677 153.112C206.203 153.112 207.029 152.496 207.253 151.474H207.267C207.267 152.034 207.225 152.664 207.197 153H208.765V148.786C208.765 146.966 207.533 145.972 205.433 145.972C203.459 145.972 202.255 146.798 202.255 148.184C202.255 148.31 202.269 148.492 202.283 148.59H203.725C203.711 148.478 203.711 148.366 203.711 148.324C203.711 147.554 204.313 147.148 205.377 147.148C206.595 147.148 207.197 147.61 207.197 148.646V149.136H204.635C202.787 149.136 202.045 149.962 202.045 151.012C202.045 152.356 203.095 153.112 204.677 153.112ZM204.999 151.936C204.047 151.936 203.487 151.572 203.487 150.942C203.487 150.396 203.879 150.088 204.775 150.088H207.197V150.214C207.197 151.278 206.357 151.936 204.999 151.936ZM209.864 153H215.716V151.726H211.894V151.712L215.716 147.05V146.084H209.976V147.358H213.672V147.386L209.864 152.02V153ZM223.332 153.112C225.544 153.112 226.958 151.754 226.958 149.556C226.958 147.344 225.544 145.972 223.332 145.972C221.134 145.972 219.72 147.344 219.72 149.556C219.72 151.754 221.134 153.112 223.332 153.112ZM223.332 151.824C222.058 151.824 221.288 150.956 221.288 149.556C221.288 148.142 222.058 147.26 223.332 147.26C224.606 147.26 225.39 148.142 225.39 149.556C225.39 150.956 224.606 151.824 223.332 151.824ZM231.305 153H232.887L232.873 145.188H232.887L237.801 153H239.789V143.788H238.207L238.235 150.788H238.207L233.825 143.788H231.305V153ZM245.678 153.14C247.358 153.14 248.394 152.412 248.674 151.348H248.688C248.674 151.978 248.632 152.636 248.604 153H250.004V148.464H245.524V149.528H248.38V149.738C248.38 150.984 247.288 151.838 245.818 151.838C244.152 151.838 242.794 150.564 242.794 148.506C242.794 146.378 244.11 145.048 245.888 145.048C247.302 145.048 248.422 145.79 248.422 147.092C248.422 147.218 248.422 147.372 248.408 147.54H249.906C249.92 147.372 249.934 147.148 249.934 146.994C249.934 144.894 248.184 143.648 245.86 143.648C243.144 143.648 241.1 145.538 241.1 148.492C241.1 151.376 243.046 153.14 245.678 153.14ZM251.678 153H253.26V151.18H251.678V153ZM259.447 153.14C261.883 153.14 263.619 151.712 263.619 149.626V149.304H262.121V149.528C262.121 150.858 261.043 151.74 259.503 151.74C257.767 151.74 256.423 150.466 256.423 148.408C256.423 146.35 257.711 145.048 259.503 145.048C260.987 145.048 262.093 145.944 262.093 147.358C262.093 147.428 262.093 147.54 262.079 147.666H263.563C263.577 147.498 263.591 147.316 263.591 147.218C263.591 145.09 261.869 143.648 259.447 143.648C256.675 143.648 254.715 145.468 254.715 148.408C254.715 151.334 256.703 153.14 259.447 153.14ZM271.524 153H273.47L269.732 143.788H267.688L263.936 153H265.672L266.456 150.928H270.754L271.524 153ZM266.876 149.808L268.598 145.216H268.626L270.334 149.808H266.876ZM277.705 153.14C280.841 153.14 281.709 151.754 281.709 150.27C281.709 149.416 281.345 148.772 280.715 148.45C280.141 148.142 279.245 147.988 278.279 147.834C277.481 147.722 276.445 147.554 276.039 147.358C275.675 147.19 275.493 146.882 275.493 146.364C275.493 145.524 276.319 144.95 277.705 144.95C279.147 144.95 279.889 145.594 279.889 146.952H281.401C281.401 144.852 280.407 143.648 277.677 143.648C275.269 143.648 273.827 144.824 273.827 146.504C273.827 147.372 274.177 148.002 274.737 148.352C275.241 148.674 276.221 148.884 277.145 149.01C277.943 149.122 278.937 149.248 279.399 149.43C279.833 149.584 280.043 149.878 280.043 150.382C280.043 151.138 279.567 151.838 277.691 151.838C275.927 151.838 275.367 151.026 275.367 149.85H273.855C273.855 151.53 274.653 153.14 277.705 153.14ZM283.034 153H284.714V148.898H289.614V153H291.28V143.788H289.614V147.554H284.714V143.788H283.034V153ZM3.808 171.112C6.02 171.112 7.196 170.286 7.196 168.886C7.196 168.326 6.93 167.794 6.468 167.542C5.978 167.262 5.418 167.164 4.438 167.066C3.598 166.982 2.94 166.912 2.604 166.8C2.198 166.66 2.128 166.38 2.128 166.086C2.128 165.498 2.744 165.106 3.836 165.106C4.984 165.106 5.474 165.54 5.488 166.436H6.902C6.902 164.868 5.95 163.972 3.794 163.972C1.918 163.972 0.574 164.812 0.574 166.198C0.574 166.73 0.798 167.234 1.176 167.514C1.596 167.822 2.324 167.962 3.402 168.06C4.172 168.13 4.83 168.2 5.166 168.326C5.53 168.452 5.628 168.69 5.628 168.956C5.628 169.586 5.068 169.978 3.794 169.978C2.45 169.978 1.988 169.488 1.988 168.69H0.574C0.574 170.048 1.428 171.112 3.808 171.112ZM14.9366 167.29C14.9366 165.134 13.6906 163.972 11.7306 163.972C9.54663 163.972 8.17463 165.358 8.17463 167.598C8.17463 169.768 9.54663 171.112 11.7306 171.112C13.6206 171.112 14.8806 170.174 14.9366 168.634H13.5226C13.4526 169.446 12.7666 169.894 11.7586 169.894C10.5826 169.894 9.84063 169.18 9.75663 167.85H14.9366V167.29ZM13.5226 166.898H9.79863C9.98063 165.75 10.6666 165.19 11.7446 165.19C12.8786 165.19 13.5226 165.764 13.5226 166.8V166.898ZM16.1356 171H17.7036V167.976C17.7036 166.324 18.4456 165.316 19.6356 165.316C20.5596 165.316 21.0076 165.862 21.0076 167.024C21.0076 167.346 20.9796 167.696 20.9516 167.962H22.3796C22.4076 167.668 22.4496 167.108 22.4496 166.674C22.4496 164.952 21.6236 163.972 20.1256 163.972C18.6976 163.972 17.9836 164.826 17.6616 166.072H17.6476L17.7036 164.084H16.1356V171ZM30.0905 171.112C32.3025 171.112 33.7165 169.754 33.7165 167.556C33.7165 165.344 32.3025 163.972 30.0905 163.972C27.8925 163.972 26.4785 165.344 26.4785 167.556C26.4785 169.754 27.8925 171.112 30.0905 171.112ZM30.0905 169.824C28.8165 169.824 28.0465 168.956 28.0465 167.556C28.0465 166.142 28.8165 165.26 30.0905 165.26C31.3645 165.26 32.1485 166.142 32.1485 167.556C32.1485 168.956 31.3645 169.824 30.0905 169.824ZM38.4142 171H39.9822V165.358H42.3902V164.084H39.9822V163.468C39.9822 162.712 40.4162 162.292 41.2142 162.292C41.6902 162.292 42.0542 162.39 42.2782 162.46V161.214C42.0542 161.13 41.5502 161.018 40.9342 161.018C39.4362 161.018 38.4142 161.858 38.4142 163.398V164.084H37.3082V165.358H38.4142V171ZM46.2347 171.112C47.7747 171.112 48.7407 170.384 49.0347 169.068H49.0487C49.0487 169.796 49.0207 170.538 48.9787 171H50.5467V164.084H48.9787V167.15C48.9787 168.83 48.0967 169.768 46.6967 169.768C45.5627 169.768 44.8907 169.152 44.8907 168.06V164.084H43.3227V168.284C43.3227 170.118 44.4287 171.112 46.2347 171.112ZM55.0303 171.084C55.6043 171.084 56.0803 170.986 56.2903 170.916V169.67C56.0943 169.726 55.6463 169.796 55.2543 169.796C54.3023 169.796 53.9663 169.348 53.9663 168.452V165.358H56.3463V164.084H53.9663V162.516H52.6643L52.5943 163.552C52.5523 163.944 52.4543 164.084 52.1883 164.084H51.3063V165.358H52.3983V168.536C52.3983 170.062 53.1403 171.084 55.0303 171.084ZM60.2738 171.112C61.8138 171.112 62.7798 170.384 63.0738 169.068H63.0878C63.0878 169.796 63.0598 170.538 63.0178 171H64.5858V164.084H63.0178V167.15C63.0178 168.83 62.1358 169.768 60.7358 169.768C59.6018 169.768 58.9298 169.152 58.9298 168.06V164.084H57.3618V168.284C57.3618 170.118 58.4678 171.112 60.2738 171.112ZM65.9895 171H67.5575V167.976C67.5575 166.324 68.2995 165.316 69.4895 165.316C70.4135 165.316 70.8615 165.862 70.8615 167.024C70.8615 167.346 70.8335 167.696 70.8055 167.962H72.2335C72.2615 167.668 72.3035 167.108 72.3035 166.674C72.3035 164.952 71.4775 163.972 69.9795 163.972C68.5515 163.972 67.8375 164.826 67.5155 166.072H67.5015L67.5575 164.084H65.9895V171ZM76.8827 171.112C79.0947 171.112 80.5087 169.754 80.5087 167.556C80.5087 165.344 79.0947 163.972 76.8827 163.972C74.6847 163.972 73.2707 165.344 73.2707 167.556C73.2707 169.754 74.6847 171.112 76.8827 171.112ZM76.8827 169.824C75.6087 169.824 74.8387 168.956 74.8387 167.556C74.8387 166.142 75.6087 165.26 76.8827 165.26C78.1567 165.26 78.9407 166.142 78.9407 167.556C78.9407 168.956 78.1567 169.824 76.8827 169.824ZM82.1169 167.836H82.7329L83.1949 163.174V161.592H81.6549V163.174L82.1169 167.836ZM81.6269 171H83.2229V169.18H81.6269V171Z" fill="white"/>
<path d="M6.952 14H10.632L16.264 3.472H13.128L9.016 11.536H9L4.824 3.472H1.32L6.952 14ZM17.4697 14H20.5417V3.472H17.4697V14ZM28.6398 14.192C33.1358 14.192 34.7998 11.936 34.7998 9.888C34.7998 9.856 34.7998 9.744 34.7838 9.664H32.0478V9.76C32.0478 10.928 30.9438 11.92 28.7678 11.92C26.2238 11.92 25.2318 10.432 25.2318 8.752C25.2318 6.944 26.4478 5.552 28.7518 5.552C31.0238 5.552 31.9998 6.784 31.9998 7.76V7.824H34.7358C34.7518 7.728 34.7518 7.6 34.7518 7.568C34.7518 5.808 33.2478 3.28 28.6078 3.28C24.2238 3.28 21.9998 5.632 21.9998 8.752C21.9998 11.472 23.6478 14.192 28.6398 14.192ZM39.4927 14H42.5647V5.744H46.7087V3.472H35.3487V5.744H39.4927V14ZM53.8359 14.192C58.7479 14.192 60.7479 11.68 60.7479 8.688C60.7479 5.776 58.5879 3.28 53.8359 3.28C49.0839 3.28 46.9239 5.776 46.9239 8.688C46.9239 11.84 49.0679 14.192 53.8359 14.192ZM53.8359 11.92C51.3239 11.92 50.1559 10.592 50.1559 8.704C50.1559 6.992 51.3399 5.552 53.8359 5.552C56.3319 5.552 57.5159 6.992 57.5159 8.704C57.5159 10.512 56.4119 11.92 53.8359 11.92ZM62.113 14H65.185V10.208H68.993C70.305 10.208 70.721 10.704 70.721 11.792V14H73.793V11.792C73.793 10.688 73.617 9.52 71.953 9.136V9.104C73.409 8.672 73.857 7.648 73.857 6.592C73.857 4.704 72.641 3.472 68.737 3.472H62.113V14ZM65.185 8.416V5.744H68.609C70.385 5.744 70.945 6.288 70.945 7.04C70.945 7.856 70.401 8.416 68.881 8.416H65.185ZM83.8722 14H86.9442V5.744H91.0882V3.472H79.7282V5.744H83.8722V14ZM92.2961 14H95.3681V10.208H99.1761C100.488 10.208 100.904 10.704 100.904 11.792V14H103.976V11.792C103.976 10.688 103.8 9.52 102.136 9.136V9.104C103.592 8.672 104.04 7.648 104.04 6.592C104.04 4.704 102.824 3.472 98.9201 3.472H92.2961V14ZM95.3681 8.416V5.744H98.7921C100.568 5.744 101.128 6.288 101.128 7.04C101.128 7.856 100.584 8.416 99.0641 8.416H95.3681ZM105.807 14H108.879V3.472H105.807V14ZM110.689 14H113.665V6.256H113.681L120.545 14H123.585V3.472H120.609V9.808H120.593L114.977 3.472H110.689V14ZM125.307 14H131.131C135.579 14 137.275 12.112 137.275 8.736C137.275 5.76 135.611 3.472 130.667 3.472H125.307V14ZM128.379 11.728V5.744H130.827C133.307 5.744 134.203 7.072 134.203 8.736C134.203 10.672 133.307 11.728 131.035 11.728H128.379ZM148.791 14H152.359L146.631 3.472H142.983L137.255 14H140.423L141.511 11.856H147.703L148.791 14ZM142.407 10.064L144.583 5.776H144.599L146.791 10.064H142.407ZM153.497 14H159.321C163.769 14 165.465 12.112 165.465 8.736C165.465 5.76 163.801 3.472 158.857 3.472H153.497V14ZM156.569 11.728V5.744H159.017C161.497 5.744 162.393 7.072 162.393 8.736C162.393 10.672 161.497 11.728 159.225 11.728H156.569ZM166.834 14H176.946V11.728H169.906V9.6H175.186V7.808H169.906V5.744H176.786V3.472H166.834V14ZM185.68 16.432H187.68C186.016 14.848 184.624 12.384 184.624 9.456C184.624 6.528 186.016 3.92 187.68 2.32H185.68C183.872 3.904 182.576 6.432 182.576 9.456C182.576 12.496 183.872 14.864 185.68 16.432ZM188.564 14H198.676V11.728H191.636V9.6H196.916V7.808H191.636V5.744H198.516V3.472H188.564V14ZM210.986 14H214.554L208.826 3.472H205.178L199.45 14H202.618L203.706 11.856H209.898L210.986 14ZM204.602 10.064L206.778 5.776H206.794L208.986 10.064H204.602ZM220.875 14.192C223.499 14.192 224.763 13.232 225.115 11.872H225.147C225.147 12.64 225.131 13.536 225.115 14H227.483V8.56H221.019V10.192H224.411V10.24C224.411 10.992 223.579 12.16 221.387 12.16C218.811 12.16 217.851 10.672 217.851 8.896C217.851 7.008 219.019 5.552 221.435 5.552C223.771 5.552 224.587 6.576 224.587 7.392V7.504H227.323C227.339 7.392 227.339 7.328 227.339 7.28C227.339 5.312 225.947 3.28 221.339 3.28C216.763 3.28 214.699 5.84 214.699 8.88C214.699 11.648 216.379 14.192 220.875 14.192ZM229.013 14H238.325V11.568H232.085V3.472H229.013V14ZM239.537 14H249.649V11.728H242.609V9.6H247.889V7.808H242.609V5.744H249.489V3.472H239.537V14ZM250.183 16.432H252.167C253.975 14.864 255.287 12.496 255.287 9.456C255.287 6.432 253.975 3.904 252.167 2.32H250.183C251.831 3.92 253.223 6.528 253.223 9.456C253.223 12.384 251.831 14.848 250.183 16.432ZM2.616 34H3.48V26.864H6.6V26.096H3.48V25.264C3.48 24.016 4.104 23.392 5.24 23.392C5.768 23.392 6.2 23.504 6.472 23.6V22.816C6.2 22.72 5.72 22.608 5.16 22.608C3.576 22.608 2.616 23.52 2.616 25.264V26.096H1.224V26.864H2.616V34ZM10.9023 34.128C13.2383 34.128 14.8223 32.576 14.8223 30.064C14.8223 27.536 13.2383 25.968 10.9023 25.968C8.55032 25.968 6.98232 27.536 6.98232 30.064C6.98232 32.576 8.55032 34.128 10.9023 34.128ZM10.9023 33.344C9.09432 33.344 7.84632 32.096 7.84632 30.064C7.84632 28.016 9.09432 26.752 10.9023 26.752C12.7103 26.752 13.9583 28.016 13.9583 30.064C13.9583 32.096 12.7103 33.344 10.9023 33.344ZM19.9168 34.128C21.8048 34.128 23.1008 33.072 23.4528 31.552H23.4688C23.4688 32.448 23.4528 33.472 23.4368 34H24.3008V26.096H23.4368V29.776C23.4368 31.936 22.0448 33.344 20.1248 33.344C18.3648 33.344 17.4688 32.32 17.4688 30.848V26.096H16.6048V30.976C16.6048 32.848 17.7408 34.128 19.9168 34.128ZM26.4281 34H27.2921V29.952C27.2921 27.92 28.6041 26.752 30.5241 26.752C32.3321 26.752 33.2601 27.664 33.2601 29.264V34H34.1241V29.104C34.1241 27.12 32.8921 25.968 30.7801 25.968C28.8921 25.968 27.7081 26.848 27.2761 28.288H27.2601L27.2921 26.096H26.4281V34ZM39.6914 34.128C41.4994 34.128 42.6674 33.104 42.9714 31.696H43.0034C42.9874 32.464 42.9714 33.232 42.9394 34H43.8034V22.912H42.9394V27.856H42.9234C42.5714 26.64 41.4674 25.968 39.7714 25.968C37.4194 25.968 35.9154 27.616 35.9154 29.952C35.9154 32.512 37.4034 34.128 39.6914 34.128ZM39.8034 33.344C37.9794 33.344 36.7794 32.016 36.7794 29.952C36.7794 28.096 37.9954 26.752 39.8354 26.752C41.7074 26.752 42.9394 27.808 42.9394 29.76V30.144C42.9394 31.872 41.7874 33.344 39.8034 33.344ZM53.1117 29.664C53.1117 27.28 51.7837 25.968 49.6077 25.968C47.2717 25.968 45.7837 27.552 45.7837 30.112C45.7837 32.592 47.2877 34.128 49.6397 34.128C51.6397 34.128 53.0317 33.072 53.1117 31.376H52.2957C52.1837 32.608 51.1277 33.376 49.6397 33.376C47.8317 33.376 46.6637 32.16 46.6477 30.144H53.1117V29.664ZM52.2957 29.488H46.6797C46.8877 27.712 47.9917 26.72 49.6397 26.72C51.2717 26.72 52.2957 27.664 52.2957 29.408V29.488ZM55.0018 34H55.8658V30.32C55.8658 28.16 56.9698 26.752 58.6498 26.752C60.0578 26.752 60.7298 27.584 60.7298 29.248C60.7298 29.664 60.6978 30.08 60.6658 30.32H61.4658C61.4978 30.048 61.5298 29.552 61.5298 29.088C61.5298 27.088 60.5858 25.968 58.8258 25.968C57.1778 25.968 56.2018 27.008 55.8498 28.448H55.8338L55.8658 26.096H55.0018V34ZM76.2989 33.296C75.6109 33.296 74.8429 32.976 74.0589 32.336C74.9709 31.184 75.5789 29.6 75.8829 28.064H75.0669C74.7789 29.488 74.2669 30.832 73.4829 31.824C72.5389 30.896 71.4829 29.584 70.7789 28.336L70.7949 28.32C72.7629 27.968 73.8029 26.976 73.8029 25.536C73.8029 24.208 72.9229 23.312 71.4989 23.312C70.0269 23.312 69.0989 24.208 69.0989 25.712C69.0989 26.304 69.2749 27.024 69.6429 27.84C67.8989 28.224 66.8429 29.392 66.8429 31.008C66.8429 32.832 68.1869 34.16 70.3309 34.16C71.5949 34.16 72.6349 33.712 73.4829 32.96C74.3949 33.696 75.3389 34.096 76.2189 34.096C76.3309 34.096 76.4429 34.08 76.5229 34.064V33.28C76.4269 33.296 76.3469 33.296 76.2989 33.296ZM71.4989 24.096C72.4269 24.096 72.9869 24.688 72.9869 25.552C72.9869 26.64 72.2029 27.344 70.4589 27.68C70.1389 26.976 69.9469 26.352 69.9469 25.712C69.9469 24.704 70.5709 24.096 71.4989 24.096ZM67.7069 31.008C67.7069 29.728 68.5229 28.816 69.9309 28.512H69.9629C70.6669 29.856 71.7709 31.312 72.9069 32.432C72.2349 33.024 71.3869 33.376 70.3629 33.376C68.7469 33.376 67.7069 32.352 67.7069 31.008ZM81.647 34H82.511V29.92C82.511 27.904 83.583 26.752 85.103 26.752C86.479 26.752 87.231 27.616 87.231 29.104V34H88.095V29.856C88.095 27.872 89.167 26.752 90.703 26.752C92.079 26.752 92.831 27.632 92.831 29.2V34H93.695V29.04C93.695 27.088 92.671 25.968 90.911 25.968C89.471 25.968 88.351 26.784 88.063 28.112H88.047C87.855 26.768 86.863 25.968 85.327 25.968C83.919 25.968 82.831 26.8 82.495 28.24H82.479L82.511 26.096H81.647V34ZM98.422 34.128C100.358 34.128 101.558 33.28 101.878 31.952H101.894C101.894 32.704 101.862 33.552 101.862 34H102.726V29.056C102.726 27.088 101.366 25.968 99.142 25.968C97.062 25.968 95.734 26.896 95.734 28.448C95.734 28.608 95.75 28.832 95.766 28.928H96.566C96.55 28.816 96.55 28.672 96.55 28.56C96.55 27.376 97.526 26.72 99.126 26.72C100.854 26.72 101.862 27.504 101.862 28.992V29.728H98.342C96.262 29.728 95.494 30.656 95.494 31.776C95.494 33.232 96.678 34.128 98.422 34.128ZM98.582 33.376C97.222 33.376 96.31 32.768 96.31 31.776C96.31 30.928 96.87 30.384 98.422 30.384H101.862V30.496C101.862 32.288 100.566 33.376 98.582 33.376ZM104.774 34H105.638V30.32C105.638 28.16 106.742 26.752 108.422 26.752C109.83 26.752 110.502 27.584 110.502 29.248C110.502 29.664 110.47 30.08 110.438 30.32H111.238C111.27 30.048 111.302 29.552 111.302 29.088C111.302 27.088 110.358 25.968 108.598 25.968C106.95 25.968 105.974 27.008 105.622 28.448H105.606L105.638 26.096H104.774V34ZM113.27 34H114.134V31.808L116.07 30.192L119.958 34H121.206L116.726 29.632L120.966 26.096H119.734L114.15 30.848H114.134V22.912H113.27V34ZM129.239 29.664C129.239 27.28 127.911 25.968 125.735 25.968C123.399 25.968 121.911 27.552 121.911 30.112C121.911 32.592 123.415 34.128 125.767 34.128C127.767 34.128 129.159 33.072 129.239 31.376H128.423C128.311 32.608 127.255 33.376 125.767 33.376C123.959 33.376 122.791 32.16 122.775 30.144H129.239V29.664ZM128.423 29.488H122.807C123.015 27.712 124.119 26.72 125.767 26.72C127.399 26.72 128.423 27.664 128.423 29.408V29.488ZM134.153 34.048C134.713 34.048 135.209 33.936 135.433 33.856V33.104C135.241 33.168 134.729 33.28 134.217 33.28C132.953 33.28 132.473 32.496 132.473 31.168V26.864H135.481V26.096H132.473V24.304H131.721L131.689 25.6C131.673 25.984 131.577 26.096 131.353 26.096H130.233V26.864H131.609V31.216C131.609 32.928 132.377 34.048 134.153 34.048ZM137.233 25.024H138.177V23.536H137.233V25.024ZM137.281 34H138.145V26.096H137.281V34ZM140.381 34H141.245V29.952C141.245 27.92 142.557 26.752 144.477 26.752C146.285 26.752 147.213 27.664 147.213 29.264V34H148.077V29.104C148.077 27.12 146.845 25.968 144.733 25.968C142.845 25.968 141.661 26.848 141.229 28.288H141.213L141.245 26.096H140.381V34ZM155.245 33.024H152.701C152.013 33.024 151.645 32.672 151.645 32.096C151.645 31.76 151.757 31.472 151.901 31.344C152.333 31.504 152.829 31.6 153.405 31.6C155.389 31.6 156.621 30.496 156.621 28.784C156.621 28.112 156.429 27.536 156.077 27.072C155.917 26.704 155.805 26.336 155.805 26.032C155.805 25.552 156.125 25.312 156.653 25.312C156.941 25.312 157.149 25.376 157.245 25.424V24.704C157.133 24.656 156.909 24.592 156.557 24.592C155.725 24.592 155.229 24.992 155.229 25.648C155.229 26 155.357 26.32 155.517 26.528V26.544C154.973 26.176 154.253 25.968 153.405 25.968C151.421 25.968 150.189 27.072 150.189 28.784C150.189 29.792 150.605 30.576 151.357 31.072V31.104C151.117 31.28 150.893 31.664 150.893 32.224C150.893 32.768 151.133 33.2 151.533 33.472V33.488C150.525 33.488 149.805 34.16 149.805 35.088C149.805 36.544 151.309 37.376 153.821 37.376C156.205 37.376 157.629 36.432 157.629 34.88C157.629 33.712 156.765 33.024 155.245 33.024ZM153.405 26.72C154.877 26.72 155.773 27.52 155.773 28.784C155.773 30.048 154.877 30.848 153.405 30.848C151.933 30.848 151.037 30.048 151.037 28.784C151.037 27.52 151.933 26.72 153.405 26.72ZM153.821 36.624C151.869 36.624 150.669 36.096 150.669 35.056C150.669 34.208 151.421 33.776 152.701 33.776H155.133C156.205 33.776 156.765 34.192 156.765 34.96C156.765 35.952 155.853 36.624 153.821 36.624ZM168.745 36.56C170.361 36.56 171.993 36.304 173.017 35.904L172.985 35.232C172.073 35.6 170.409 35.904 168.761 35.888C165.241 35.888 163.161 34.08 163.161 30.64C163.161 26.592 165.897 23.952 169.161 23.952C172.713 23.952 174.393 25.488 174.393 28.288C174.393 30.784 173.273 32.896 172.153 32.896C171.593 32.896 171.385 32.576 171.385 32C171.385 31.6 171.465 31.104 171.577 30.448L172.361 26.288H171.225L170.953 27.264H170.937C170.617 26.608 169.945 26.16 168.857 26.16C166.649 26.16 165.209 28.656 165.209 30.896C165.209 32.448 166.041 33.68 167.657 33.68C169.113 33.68 169.881 32.784 170.249 31.456H170.281C170.025 32.832 170.505 33.68 171.817 33.68C173.625 33.68 175.113 31.504 175.113 28.288C175.113 25.216 173.193 23.28 169.177 23.28C165.449 23.28 162.441 26.208 162.441 30.64C162.441 34.56 164.921 36.56 168.745 36.56ZM167.897 32.608C166.953 32.608 166.441 31.92 166.441 30.848C166.441 29.248 167.417 27.232 168.985 27.232C169.865 27.232 170.505 27.664 170.745 28.176L170.505 29.424C170.153 31.264 169.177 32.608 167.897 32.608ZM176.812 34H178.092V24.448H178.124L184.412 34H185.996V23.472H184.716V32.208H184.684L178.972 23.472H176.812V34ZM193.197 34.16C195.293 34.16 196.461 33.248 196.781 32.048H196.797C196.765 32.816 196.717 33.568 196.669 34H197.933V28.944H192.893V29.936H196.589V30.24C196.589 31.824 195.293 33.008 193.197 33.008C191.085 33.008 189.325 31.392 189.325 28.848C189.325 26.224 191.053 24.528 193.277 24.528C195.181 24.528 196.589 25.52 196.589 27.2C196.589 27.36 196.589 27.552 196.573 27.76H197.821C197.837 27.504 197.837 27.264 197.837 27.136C197.837 24.736 195.933 23.312 193.277 23.312C190.285 23.312 187.981 25.536 187.981 28.832C187.981 32.096 190.205 34.16 193.197 34.16ZM200.3 34H201.676V32.176H200.3V34ZM209.014 34.16C211.702 34.16 213.686 32.528 213.686 30.16V29.904H212.438V30.096C212.438 31.776 210.95 32.944 209.014 32.944C206.806 32.944 205.062 31.312 205.062 28.752C205.062 26.176 206.726 24.528 209.014 24.528C210.934 24.528 212.39 25.728 212.39 27.504V27.792H213.622C213.638 27.584 213.638 27.44 213.638 27.408C213.638 24.976 211.686 23.312 209.014 23.312C205.894 23.312 203.718 25.44 203.718 28.752C203.718 32.048 205.958 34.16 209.014 34.16ZM223.317 34H224.885L220.437 23.472H218.837L214.389 34H215.797L216.837 31.44H222.293L223.317 34ZM217.237 30.448L219.573 24.704H219.605L221.893 30.448H217.237ZM229.899 34.16C233.339 34.16 234.331 32.576 234.331 30.976C234.331 30.016 233.899 29.28 233.195 28.928C232.507 28.576 231.403 28.4 230.347 28.256C229.435 28.128 228.171 27.936 227.659 27.68C227.211 27.456 226.955 27.056 226.955 26.384C226.955 25.232 228.171 24.464 229.883 24.464C231.691 24.464 232.715 25.264 232.715 27.104H233.963C233.963 24.672 232.795 23.312 229.851 23.312C227.339 23.312 225.611 24.624 225.611 26.496C225.611 27.488 226.043 28.192 226.651 28.56C227.227 28.912 228.379 29.168 229.467 29.296C230.379 29.424 231.579 29.552 232.155 29.792C232.699 30.016 232.987 30.384 232.987 31.056C232.987 32.064 232.315 33.008 229.899 33.008C227.659 33.008 226.891 31.936 226.891 30.416H225.643C225.643 32.32 226.523 34.16 229.899 34.16ZM236.303 34H237.647V29.072H244.111V34H245.455V23.472H244.111V27.952H237.647V23.472H236.303V34Z" fill="white"/>
<line x1="3.99082e-08" y1="49.0162" x2="295.228" y2="49.0162" stroke="white" stroke-width="0.912994"/>
<path d="M295.407 65.3246C295.407 53.8472 291.239 49.7326 279.815 49.7326C291.293 49.7326 295.407 45.5639 295.407 34.1406C295.407 45.6181 299.576 49.7326 310.999 49.7326C299.576 49.6785 295.407 53.8472 295.407 65.3246Z" fill="white"/>
</svg>
