<svg width="311" height="176" viewBox="0 0 311 176" fill="none" xmlns="http://www.w3.org/2000/svg">
<path d="M4.2 71.858C1.848 71.858 0.896 72.964 0.896 74.938V76.492H3.612V74.182H2.506V74.126C2.506 73.51 2.884 73.048 4.2 73.048V71.858ZM8.428 71.858C6.076 71.858 5.124 72.964 5.124 74.938V76.492H7.84V74.182H6.734V74.126C6.734 73.51 7.112 73.048 8.428 73.048V71.858ZM50.2361 166.408C52.5881 166.408 53.5401 165.302 53.5401 163.328V161.774H50.8241V164.084H51.9301V164.14C51.9301 164.756 51.5521 165.218 50.2361 165.218V166.408ZM54.4781 166.408C56.8301 166.408 57.7821 165.302 57.7821 163.328V161.774H55.0661V164.084H56.1721V164.14C56.1721 164.756 55.7941 165.218 54.4781 165.218V166.408Z" fill="#FF0000"/>
<path d="M11.9534 81H13.6334V73.174H16.4894V71.788H9.09742V73.174H11.9534V81ZM16.997 81H18.565V77.976C18.565 76.324 19.307 75.316 20.497 75.316C21.421 75.316 21.869 75.862 21.869 77.024C21.869 77.346 21.841 77.696 21.813 77.962H23.241C23.269 77.668 23.311 77.108 23.311 76.674C23.311 74.952 22.485 73.972 20.987 73.972C19.559 73.972 18.845 74.826 18.523 76.072H18.509L18.565 74.084H16.997V81ZM26.9242 81.112C28.4502 81.112 29.2762 80.496 29.5002 79.474H29.5142C29.5142 80.034 29.4722 80.664 29.4442 81H31.0122V76.786C31.0122 74.966 29.7802 73.972 27.6802 73.972C25.7062 73.972 24.5022 74.798 24.5022 76.184C24.5022 76.31 24.5162 76.492 24.5302 76.59H25.9722C25.9582 76.478 25.9582 76.366 25.9582 76.324C25.9582 75.554 26.5602 75.148 27.6242 75.148C28.8422 75.148 29.4442 75.61 29.4442 76.646V77.136H26.8822C25.0342 77.136 24.2922 77.962 24.2922 79.012C24.2922 80.356 25.3422 81.112 26.9242 81.112ZM27.2462 79.936C26.2942 79.936 25.7342 79.572 25.7342 78.942C25.7342 78.396 26.1262 78.088 27.0222 78.088H29.4442V78.214C29.4442 79.278 28.6042 79.936 27.2462 79.936ZM36.5766 81.112C38.5226 81.112 39.7406 79.698 39.7406 77.416C39.7406 75.288 38.5506 73.972 36.5626 73.972C35.1906 73.972 34.2386 74.616 33.9446 75.624H33.9306C33.9446 75.288 33.9586 74.728 33.9586 74.434V71.298H32.3906V81H33.9586C33.9306 80.65 33.9026 80.02 33.9026 79.53H33.9166C34.1966 80.496 35.1486 81.112 36.5766 81.112ZM36.1706 79.824C34.8126 79.824 33.9586 79.082 33.9586 77.878V77.528C33.9586 76.128 34.8266 75.26 36.1986 75.26C37.4306 75.26 38.1726 76.1 38.1726 77.458C38.1726 78.928 37.4026 79.824 36.1706 79.824ZM43.0141 81.112C44.5401 81.112 45.3661 80.496 45.5901 79.474H45.6041C45.6041 80.034 45.5621 80.664 45.5341 81H47.1021V76.786C47.1021 74.966 45.8701 73.972 43.7701 73.972C41.7961 73.972 40.5921 74.798 40.5921 76.184C40.5921 76.31 40.6061 76.492 40.6201 76.59H42.0621C42.0481 76.478 42.0481 76.366 42.0481 76.324C42.0481 75.554 42.6501 75.148 43.7141 75.148C44.9321 75.148 45.5341 75.61 45.5341 76.646V77.136H42.9721C41.1241 77.136 40.3821 77.962 40.3821 79.012C40.3821 80.356 41.4321 81.112 43.0141 81.112ZM43.3361 79.936C42.3841 79.936 41.8241 79.572 41.8241 78.942C41.8241 78.396 42.2161 78.088 43.1121 78.088H45.5341V78.214C45.5341 79.278 44.6941 79.936 43.3361 79.936ZM48.4805 81H50.0485V71.298H48.4805V81ZM51.5558 81H53.1238V77.724C53.1238 76.17 53.9918 75.316 55.3778 75.316C56.6238 75.316 57.2398 75.932 57.2398 77.024V81H58.8078V76.674C58.8078 74.966 57.7298 73.972 55.9798 73.972C54.3558 73.972 53.4598 74.686 53.0958 75.946H53.0818C53.0958 75.568 53.1238 74.77 53.1238 74.434V71.298H51.5558V81ZM62.5758 81.112C64.1018 81.112 64.9278 80.496 65.1518 79.474H65.1658C65.1658 80.034 65.1238 80.664 65.0958 81H66.6638V76.786C66.6638 74.966 65.4318 73.972 63.3318 73.972C61.3578 73.972 60.1538 74.798 60.1538 76.184C60.1538 76.31 60.1678 76.492 60.1818 76.59H61.6238C61.6098 76.478 61.6098 76.366 61.6098 76.324C61.6098 75.554 62.2118 75.148 63.2758 75.148C64.4938 75.148 65.0958 75.61 65.0958 76.646V77.136H62.5338C60.6858 77.136 59.9438 77.962 59.9438 79.012C59.9438 80.356 60.9938 81.112 62.5758 81.112ZM62.8978 79.936C61.9458 79.936 61.3858 79.572 61.3858 78.942C61.3858 78.396 61.7778 78.088 62.6738 78.088H65.0958V78.214C65.0958 79.278 64.2558 79.936 62.8978 79.936ZM68.0002 81H69.5682V77.976C69.5682 76.324 70.3102 75.316 71.5002 75.316C72.4242 75.316 72.8722 75.862 72.8722 77.024C72.8722 77.346 72.8442 77.696 72.8162 77.962H74.2442C74.2722 77.668 74.3142 77.108 74.3142 76.674C74.3142 74.952 73.4882 73.972 71.9902 73.972C70.5622 73.972 69.8482 74.826 69.5262 76.072H69.5122L69.5682 74.084H68.0002V81ZM80.989 81.112C82.515 81.112 83.341 80.496 83.565 79.474H83.579C83.579 80.034 83.537 80.664 83.509 81H85.077V76.786C85.077 74.966 83.845 73.972 81.745 73.972C79.771 73.972 78.567 74.798 78.567 76.184C78.567 76.31 78.581 76.492 78.595 76.59H80.037C80.023 76.478 80.023 76.366 80.023 76.324C80.023 75.554 80.625 75.148 81.689 75.148C82.907 75.148 83.509 75.61 83.509 76.646V77.136H80.947C79.099 77.136 78.357 77.962 78.357 79.012C78.357 80.356 79.407 81.112 80.989 81.112ZM81.311 79.936C80.359 79.936 79.799 79.572 79.799 78.942C79.799 78.396 80.191 78.088 81.087 78.088H83.509V78.214C83.509 79.278 82.669 79.936 81.311 79.936ZM91.9714 83.772H93.5394V74.084H91.9854V75.4H91.9714C91.6914 74.518 90.8654 73.972 89.5214 73.972C87.5894 73.972 86.2034 75.358 86.2034 77.486C86.2034 79.698 87.4634 81.112 89.4514 81.112C90.7814 81.112 91.7054 80.44 91.9574 79.404H91.9714V83.772ZM89.7874 79.824C88.5694 79.824 87.7574 78.914 87.7574 77.486C87.7574 76.142 88.5974 75.26 89.8154 75.26C91.1174 75.26 91.9714 76.044 91.9714 77.262V77.598C91.9714 78.956 91.1034 79.824 89.7874 79.824ZM97.8267 81.112C99.3667 81.112 100.333 80.384 100.627 79.068H100.641C100.641 79.796 100.613 80.538 100.571 81H102.139V74.084H100.571V77.15C100.571 78.83 99.6887 79.768 98.2887 79.768C97.1547 79.768 96.4827 79.152 96.4827 78.06V74.084H94.9147V78.284C94.9147 80.118 96.0207 81.112 97.8267 81.112ZM103.584 73.272H105.194V71.732H103.584V73.272ZM103.598 81H105.166V74.084H103.598V81ZM114.915 71.41H113.277L112.185 73.37H113.417L114.915 71.41ZM116.259 77.29C116.259 75.134 115.013 73.972 113.053 73.972C110.869 73.972 109.497 75.358 109.497 77.598C109.497 79.768 110.869 81.112 113.053 81.112C114.943 81.112 116.203 80.174 116.259 78.634H114.845C114.775 79.446 114.089 79.894 113.081 79.894C111.905 79.894 111.163 79.18 111.079 77.85H116.259V77.29ZM114.845 76.898H111.121C111.303 75.75 111.989 75.19 113.067 75.19C114.201 75.19 114.845 75.764 114.845 76.8V76.898ZM123.571 81.112C124.985 81.112 125.853 80.412 126.119 79.32H126.147C126.119 79.992 126.105 80.594 126.077 81H127.645V71.298H126.077V75.302H126.063C125.783 74.49 124.971 73.972 123.669 73.972C121.611 73.972 120.309 75.414 120.309 77.5C120.309 79.656 121.569 81.112 123.571 81.112ZM123.893 79.824C122.661 79.824 121.863 78.872 121.863 77.5C121.863 76.184 122.675 75.26 123.921 75.26C125.223 75.26 126.077 76.044 126.077 77.276V77.612C126.077 78.956 125.209 79.824 123.893 79.824ZM129.132 73.272H130.742V71.732H129.132V73.272ZM129.146 81H130.714V74.084H129.146V81ZM132.655 81H134.223V75.358H136.631V74.084H134.223V73.468C134.223 72.712 134.657 72.292 135.455 72.292C135.931 72.292 136.295 72.39 136.519 72.46V71.214C136.295 71.13 135.791 71.018 135.175 71.018C133.677 71.018 132.655 71.858 132.655 73.398V74.084H131.549V75.358H132.655V81ZM143.625 77.29C143.625 75.134 142.379 73.972 140.419 73.972C138.235 73.972 136.863 75.358 136.863 77.598C136.863 79.768 138.235 81.112 140.419 81.112C142.309 81.112 143.569 80.174 143.625 78.634H142.211C142.141 79.446 141.455 79.894 140.447 79.894C139.271 79.894 138.529 79.18 138.445 77.85H143.625V77.29ZM142.211 76.898H138.487C138.669 75.75 139.355 75.19 140.433 75.19C141.567 75.19 142.211 75.764 142.211 76.8V76.898ZM144.824 81H146.392V77.976C146.392 76.324 147.134 75.316 148.324 75.316C149.248 75.316 149.696 75.862 149.696 77.024C149.696 77.346 149.668 77.696 149.64 77.962H151.068C151.096 77.668 151.138 77.108 151.138 76.674C151.138 74.952 150.312 73.972 148.814 73.972C147.386 73.972 146.672 74.826 146.35 76.072H146.336L146.392 74.084H144.824V81ZM158.867 77.29C158.867 75.134 157.621 73.972 155.661 73.972C153.477 73.972 152.105 75.358 152.105 77.598C152.105 79.768 153.477 81.112 155.661 81.112C157.551 81.112 158.811 80.174 158.867 78.634H157.453C157.383 79.446 156.697 79.894 155.689 79.894C154.513 79.894 153.771 79.18 153.687 77.85H158.867V77.29ZM157.453 76.898H153.729C153.911 75.75 154.597 75.19 155.675 75.19C156.809 75.19 157.453 75.764 157.453 76.8V76.898ZM160.066 81H161.634V77.654C161.634 76.142 162.502 75.316 163.874 75.316C165.12 75.316 165.736 75.932 165.736 77.024V81H167.304V76.674C167.304 74.966 166.226 73.972 164.476 73.972C162.866 73.972 161.97 74.686 161.592 75.932H161.578L161.634 74.084H160.066V81ZM171.718 81.084C172.292 81.084 172.768 80.986 172.978 80.916V79.67C172.782 79.726 172.334 79.796 171.942 79.796C170.99 79.796 170.654 79.348 170.654 78.452V75.358H173.034V74.084H170.654V72.516H169.352L169.282 73.552C169.24 73.944 169.142 74.084 168.876 74.084H167.994V75.358H169.086V78.536C169.086 80.062 169.828 81.084 171.718 81.084ZM180.398 77.29C180.398 75.134 179.152 73.972 177.192 73.972C175.008 73.972 173.636 75.358 173.636 77.598C173.636 79.768 175.008 81.112 177.192 81.112C179.082 81.112 180.342 80.174 180.398 78.634H178.984C178.914 79.446 178.228 79.894 177.22 79.894C176.044 79.894 175.302 79.18 175.218 77.85H180.398V77.29ZM178.984 76.898H175.26C175.442 75.75 176.128 75.19 177.206 75.19C178.34 75.19 178.984 75.764 178.984 76.8V76.898ZM187.71 81.112C189.124 81.112 189.992 80.412 190.258 79.32H190.286C190.258 79.992 190.244 80.594 190.216 81H191.784V71.298H190.216V75.302H190.202C189.922 74.49 189.11 73.972 187.808 73.972C185.75 73.972 184.448 75.414 184.448 77.5C184.448 79.656 185.708 81.112 187.71 81.112ZM188.032 79.824C186.8 79.824 186.002 78.872 186.002 77.5C186.002 76.184 186.814 75.26 188.06 75.26C189.362 75.26 190.216 76.044 190.216 77.276V77.612C190.216 78.956 189.348 79.824 188.032 79.824ZM199.781 77.29C199.781 75.134 198.535 73.972 196.575 73.972C194.391 73.972 193.019 75.358 193.019 77.598C193.019 79.768 194.391 81.112 196.575 81.112C198.465 81.112 199.725 80.174 199.781 78.634H198.367C198.297 79.446 197.611 79.894 196.603 79.894C195.427 79.894 194.685 79.18 194.601 77.85H199.781V77.29ZM198.367 76.898H194.643C194.825 75.75 195.511 75.19 196.589 75.19C197.723 75.19 198.367 75.764 198.367 76.8V76.898ZM209.6 83.772H211.168V74.084H209.614V75.4H209.6C209.32 74.518 208.494 73.972 207.15 73.972C205.218 73.972 203.832 75.358 203.832 77.486C203.832 79.698 205.092 81.112 207.08 81.112C208.41 81.112 209.334 80.44 209.586 79.404H209.6V83.772ZM207.416 79.824C206.198 79.824 205.386 78.914 205.386 77.486C205.386 76.142 206.226 75.26 207.444 75.26C208.746 75.26 209.6 76.044 209.6 77.262V77.598C209.6 78.956 208.732 79.824 207.416 79.824ZM215.455 81.112C216.995 81.112 217.961 80.384 218.255 79.068H218.269C218.269 79.796 218.241 80.538 218.199 81H219.767V74.084H218.199V77.15C218.199 78.83 217.317 79.768 215.917 79.768C214.783 79.768 214.111 79.152 214.111 78.06V74.084H212.543V78.284C212.543 80.118 213.649 81.112 215.455 81.112ZM223.607 81.112C225.133 81.112 225.959 80.496 226.183 79.474H226.197C226.197 80.034 226.155 80.664 226.127 81H227.695V76.786C227.695 74.966 226.463 73.972 224.363 73.972C222.389 73.972 221.185 74.798 221.185 76.184C221.185 76.31 221.199 76.492 221.213 76.59H222.655C222.641 76.478 222.641 76.366 222.641 76.324C222.641 75.554 223.243 75.148 224.307 75.148C225.525 75.148 226.127 75.61 226.127 76.646V77.136H223.565C221.717 77.136 220.975 77.962 220.975 79.012C220.975 80.356 222.025 81.112 223.607 81.112ZM223.929 79.936C222.977 79.936 222.417 79.572 222.417 78.942C222.417 78.396 222.809 78.088 223.705 78.088H226.127V78.214C226.127 79.278 225.287 79.936 223.929 79.936ZM229.073 81H230.641V71.298H229.073V81ZM237.665 83.772H239.233V74.084H237.679V75.4H237.665C237.385 74.518 236.559 73.972 235.215 73.972C233.283 73.972 231.897 75.358 231.897 77.486C231.897 79.698 233.157 81.112 235.145 81.112C236.475 81.112 237.399 80.44 237.651 79.404H237.665V83.772ZM235.481 79.824C234.263 79.824 233.451 78.914 233.451 77.486C233.451 76.142 234.291 75.26 235.509 75.26C236.811 75.26 237.665 76.044 237.665 77.262V77.598C237.665 78.956 236.797 79.824 235.481 79.824ZM243.52 81.112C245.06 81.112 246.026 80.384 246.32 79.068H246.334C246.334 79.796 246.306 80.538 246.264 81H247.832V74.084H246.264V77.15C246.264 78.83 245.382 79.768 243.982 79.768C242.848 79.768 242.176 79.152 242.176 78.06V74.084H240.608V78.284C240.608 80.118 241.714 81.112 243.52 81.112ZM255.788 77.29C255.788 75.134 254.542 73.972 252.582 73.972C250.398 73.972 249.026 75.358 249.026 77.598C249.026 79.768 250.398 81.112 252.582 81.112C254.472 81.112 255.732 80.174 255.788 78.634H254.374C254.304 79.446 253.618 79.894 252.61 79.894C251.434 79.894 250.692 79.18 250.608 77.85H255.788V77.29ZM254.374 76.898H250.65C250.832 75.75 251.518 75.19 252.596 75.19C253.73 75.19 254.374 75.764 254.374 76.8V76.898ZM256.987 81H258.555V77.976C258.555 76.324 259.297 75.316 260.487 75.316C261.411 75.316 261.859 75.862 261.859 77.024C261.859 77.346 261.831 77.696 261.803 77.962H263.231C263.259 77.668 263.301 77.108 263.301 76.674C263.301 74.952 262.475 73.972 260.977 73.972C259.549 73.972 258.835 74.826 258.513 76.072H258.499L258.555 74.084H256.987V81ZM4.186 99.112C6.398 99.112 7.812 97.754 7.812 95.556C7.812 93.344 6.398 91.972 4.186 91.972C1.988 91.972 0.574 93.344 0.574 95.556C0.574 97.754 1.988 99.112 4.186 99.112ZM4.186 97.824C2.912 97.824 2.142 96.956 2.142 95.556C2.142 94.142 2.912 93.26 4.186 93.26C5.46 93.26 6.244 94.142 6.244 95.556C6.244 96.956 5.46 97.824 4.186 97.824ZM11.8282 99.112C13.3682 99.112 14.3342 98.384 14.6282 97.068H14.6422C14.6422 97.796 14.6142 98.538 14.5722 99H16.1402V92.084H14.5722V95.15C14.5722 96.83 13.6902 97.768 12.2902 97.768C11.1562 97.768 10.4842 97.152 10.4842 96.06V92.084H8.91619V96.284C8.91619 98.118 10.0222 99.112 11.8282 99.112ZM20.6238 99.084C21.1978 99.084 21.6738 98.986 21.8838 98.916V97.67C21.6878 97.726 21.2398 97.796 20.8478 97.796C19.8958 97.796 19.5598 97.348 19.5598 96.452V93.358H21.9398V92.084H19.5598V90.516H18.2578L18.1878 91.552C18.1458 91.944 18.0478 92.084 17.7818 92.084H16.8998V93.358H17.9918V96.536C17.9918 98.062 18.7338 99.084 20.6238 99.084ZM23.0253 99H24.5933V95.976C24.5933 94.324 25.3353 93.316 26.5253 93.316C27.4493 93.316 27.8973 93.862 27.8973 95.024C27.8973 95.346 27.8693 95.696 27.8413 95.962H29.2693C29.2973 95.668 29.3393 95.108 29.3393 94.674C29.3393 92.952 28.5133 91.972 27.0153 91.972C25.5873 91.972 24.8733 92.826 24.5513 94.072H24.5373L24.5933 92.084H23.0253V99ZM33.9186 99.112C36.1306 99.112 37.5446 97.754 37.5446 95.556C37.5446 93.344 36.1306 91.972 33.9186 91.972C31.7206 91.972 30.3066 93.344 30.3066 95.556C30.3066 97.754 31.7206 99.112 33.9186 99.112ZM33.9186 97.824C32.6446 97.824 31.8746 96.956 31.8746 95.556C31.8746 94.142 32.6446 93.26 33.9186 93.26C35.1926 93.26 35.9766 94.142 35.9766 95.556C35.9766 96.956 35.1926 97.824 33.9186 97.824ZM41.8223 99H43.3903V89.298H41.8223V99ZM47.6976 99.112C49.2376 99.112 50.2036 98.384 50.4976 97.068H50.5116C50.5116 97.796 50.4836 98.538 50.4416 99H52.0096V92.084H50.4416V95.15C50.4416 96.83 49.5596 97.768 48.1596 97.768C47.0256 97.768 46.3536 97.152 46.3536 96.06V92.084H44.7856V96.284C44.7856 98.118 45.8916 99.112 47.6976 99.112ZM58.2152 97.908H55.9752C55.4712 97.908 55.1912 97.67 55.1912 97.278C55.1912 97.04 55.2752 96.844 55.3592 96.746C55.7232 96.844 56.1292 96.9 56.5772 96.9C58.4812 96.9 59.6572 95.962 59.6572 94.436C59.6572 93.918 59.5172 93.456 59.2512 93.092C59.1672 92.826 59.0972 92.588 59.0972 92.392C59.0972 92.014 59.3212 91.818 59.7832 91.818C59.9792 91.818 60.1332 91.846 60.2452 91.888V90.782C60.0772 90.74 59.8812 90.712 59.5452 90.712C58.7192 90.712 58.1872 91.062 58.1872 91.622C58.1872 91.916 58.3132 92.182 58.5232 92.406L58.5092 92.42C58.0052 92.126 57.3612 91.972 56.5772 91.972C54.6732 91.972 53.4972 92.924 53.4972 94.436C53.4972 95.304 53.8752 95.99 54.5612 96.41V96.438C54.1832 96.62 53.9172 97.026 53.9172 97.614C53.9172 98.104 54.1272 98.482 54.5192 98.748V98.762C53.6932 98.804 53.1752 99.322 53.1752 100.022C53.1752 101.268 54.5752 101.982 56.9132 101.982C59.1952 101.982 60.5532 101.114 60.5532 99.658C60.5532 98.552 59.6992 97.908 58.2152 97.908ZM56.5772 93.092C57.5572 93.092 58.1592 93.61 58.1592 94.436C58.1592 95.262 57.5572 95.78 56.5772 95.78C55.5972 95.78 54.9952 95.262 54.9952 94.436C54.9952 93.61 55.5972 93.092 56.5772 93.092ZM56.8992 100.876C55.5692 100.876 54.7292 100.554 54.7292 99.896C54.7292 99.364 55.2332 99.126 56.0172 99.126H57.8932C58.6352 99.126 58.9852 99.378 58.9852 99.84C58.9852 100.456 58.3692 100.876 56.8992 100.876ZM63.819 99.112C65.345 99.112 66.171 98.496 66.395 97.474H66.409C66.409 98.034 66.367 98.664 66.339 99H67.907V94.786C67.907 92.966 66.675 91.972 64.575 91.972C62.601 91.972 61.397 92.798 61.397 94.184C61.397 94.31 61.411 94.492 61.425 94.59H62.867C62.853 94.478 62.853 94.366 62.853 94.324C62.853 93.554 63.455 93.148 64.519 93.148C65.737 93.148 66.339 93.61 66.339 94.646V95.136H63.777C61.929 95.136 61.187 95.962 61.187 97.012C61.187 98.356 62.237 99.112 63.819 99.112ZM64.141 97.936C63.189 97.936 62.629 97.572 62.629 96.942C62.629 96.396 63.021 96.088 63.917 96.088H66.339V96.214C66.339 97.278 65.499 97.936 64.141 97.936ZM69.2434 99H70.8114V95.976C70.8114 94.324 71.5534 93.316 72.7434 93.316C73.6674 93.316 74.1154 93.862 74.1154 95.024C74.1154 95.346 74.0874 95.696 74.0594 95.962H75.4874C75.5154 95.668 75.5574 95.108 75.5574 94.674C75.5574 92.952 74.7314 91.972 73.2334 91.972C71.8054 91.972 71.0914 92.826 70.7694 94.072H70.7554L70.8114 92.084H69.2434V99ZM77.1686 95.836H77.7846L78.2466 91.174V89.592H76.7066V91.174L77.1686 95.836ZM76.6786 99H78.2746V97.18H76.6786V99ZM85.032 99H86.712V91.174H89.568V89.788H82.176V91.174H85.032V99ZM92.8487 99.112C95.0607 99.112 96.4747 97.754 96.4747 95.556C96.4747 93.344 95.0607 91.972 92.8487 91.972C90.6507 91.972 89.2367 93.344 89.2367 95.556C89.2367 97.754 90.6507 99.112 92.8487 99.112ZM92.8487 97.824C91.5747 97.824 90.8047 96.956 90.8047 95.556C90.8047 94.142 91.5747 93.26 92.8487 93.26C94.1227 93.26 94.9067 94.142 94.9067 95.556C94.9067 96.956 94.1227 97.824 92.8487 97.824ZM100.701 99.112C102.115 99.112 102.983 98.412 103.249 97.32H103.277C103.249 97.992 103.235 98.594 103.207 99H104.775V89.298H103.207V93.302H103.193C102.913 92.49 102.101 91.972 100.799 91.972C98.7408 91.972 97.4388 93.414 97.4388 95.5C97.4388 97.656 98.6988 99.112 100.701 99.112ZM101.023 97.824C99.7908 97.824 98.9928 96.872 98.9928 95.5C98.9928 94.184 99.8048 93.26 101.051 93.26C102.353 93.26 103.207 94.044 103.207 95.276V95.612C103.207 96.956 102.339 97.824 101.023 97.824ZM109.622 99.112C111.834 99.112 113.248 97.754 113.248 95.556C113.248 93.344 111.834 91.972 109.622 91.972C107.424 91.972 106.01 93.344 106.01 95.556C106.01 97.754 107.424 99.112 109.622 99.112ZM109.622 97.824C108.348 97.824 107.578 96.956 107.578 95.556C107.578 94.142 108.348 93.26 109.622 93.26C110.896 93.26 111.68 94.142 111.68 95.556C111.68 96.956 110.896 97.824 109.622 97.824ZM117.364 99.112C119.576 99.112 120.752 98.286 120.752 96.886C120.752 96.326 120.486 95.794 120.024 95.542C119.534 95.262 118.974 95.164 117.994 95.066C117.154 94.982 116.496 94.912 116.16 94.8C115.754 94.66 115.684 94.38 115.684 94.086C115.684 93.498 116.3 93.106 117.392 93.106C118.54 93.106 119.03 93.54 119.044 94.436H120.458C120.458 92.868 119.506 91.972 117.35 91.972C115.474 91.972 114.13 92.812 114.13 94.198C114.13 94.73 114.354 95.234 114.732 95.514C115.152 95.822 115.88 95.962 116.958 96.06C117.728 96.13 118.386 96.2 118.722 96.326C119.086 96.452 119.184 96.69 119.184 96.956C119.184 97.586 118.624 97.978 117.35 97.978C116.006 97.978 115.544 97.488 115.544 96.69H114.13C114.13 98.048 114.984 99.112 117.364 99.112ZM130.561 101.772H132.129V92.084H130.575V93.4H130.561C130.281 92.518 129.455 91.972 128.111 91.972C126.179 91.972 124.793 93.358 124.793 95.486C124.793 97.698 126.053 99.112 128.041 99.112C129.371 99.112 130.295 98.44 130.547 97.404H130.561V101.772ZM128.377 97.824C127.159 97.824 126.347 96.914 126.347 95.486C126.347 94.142 127.187 93.26 128.405 93.26C129.707 93.26 130.561 94.044 130.561 95.262V95.598C130.561 96.956 129.693 97.824 128.377 97.824ZM136.416 99.112C137.956 99.112 138.922 98.384 139.216 97.068H139.23C139.23 97.796 139.202 98.538 139.16 99H140.728V92.084H139.16V95.15C139.16 96.83 138.278 97.768 136.878 97.768C135.744 97.768 135.072 97.152 135.072 96.06V92.084H133.504V96.284C133.504 98.118 134.61 99.112 136.416 99.112ZM148.684 95.29C148.684 93.134 147.438 91.972 145.478 91.972C143.294 91.972 141.922 93.358 141.922 95.598C141.922 97.768 143.294 99.112 145.478 99.112C147.368 99.112 148.628 98.174 148.684 96.634H147.27C147.2 97.446 146.514 97.894 145.506 97.894C144.33 97.894 143.588 97.18 143.504 95.85H148.684V95.29ZM147.27 94.898H143.546C143.728 93.75 144.414 93.19 145.492 93.19C146.626 93.19 147.27 93.764 147.27 94.8V94.898ZM153.406 99H154.974V93.358H157.382V92.084H154.974V91.468C154.974 90.712 155.408 90.292 156.206 90.292C156.682 90.292 157.046 90.39 157.27 90.46V89.214C157.046 89.13 156.542 89.018 155.926 89.018C154.428 89.018 153.406 89.858 153.406 91.398V92.084H152.3V93.358H153.406V99ZM160.41 99.112C161.936 99.112 162.762 98.496 162.986 97.474H163C163 98.034 162.958 98.664 162.93 99H164.498V94.786C164.498 92.966 163.266 91.972 161.166 91.972C159.192 91.972 157.988 92.798 157.988 94.184C157.988 94.31 158.002 94.492 158.016 94.59H159.458C159.444 94.478 159.444 94.366 159.444 94.324C159.444 93.554 160.046 93.148 161.11 93.148C162.328 93.148 162.93 93.61 162.93 94.646V95.136H160.368C158.52 95.136 157.778 95.962 157.778 97.012C157.778 98.356 158.828 99.112 160.41 99.112ZM160.732 97.936C159.78 97.936 159.22 97.572 159.22 96.942C159.22 96.396 159.612 96.088 160.508 96.088H162.93V96.214C162.93 97.278 162.09 97.936 160.732 97.936ZM165.597 99H171.449V97.726H167.627V97.712L171.449 93.05V92.084H165.709V93.358H169.405V93.386L165.597 98.02V99ZM178.976 95.29C178.976 93.134 177.73 91.972 175.77 91.972C173.586 91.972 172.214 93.358 172.214 95.598C172.214 97.768 173.586 99.112 175.77 99.112C177.66 99.112 178.92 98.174 178.976 96.634H177.562C177.492 97.446 176.806 97.894 175.798 97.894C174.622 97.894 173.88 97.18 173.796 95.85H178.976V95.29ZM177.562 94.898H173.838C174.02 93.75 174.706 93.19 175.784 93.19C176.918 93.19 177.562 93.764 177.562 94.8V94.898ZM180.175 99H181.743V95.626C181.743 94.142 182.457 93.316 183.521 93.316C184.459 93.316 184.977 93.932 184.977 94.912V99H186.545V95.57C186.545 94.128 187.245 93.316 188.337 93.316C189.275 93.316 189.765 93.932 189.765 94.94V99H191.333V94.59C191.333 92.966 190.451 91.972 188.911 91.972C187.595 91.972 186.755 92.672 186.503 93.792H186.489C186.321 92.672 185.453 91.972 184.109 91.972C182.849 91.972 182.009 92.714 181.701 93.904H181.687L181.743 92.084H180.175V99ZM195.773 101.772H197.341V99.056C197.341 98.776 197.313 98.062 197.299 97.6H197.313C197.607 98.496 198.503 99.112 199.875 99.112C201.863 99.112 203.123 97.656 203.123 95.416C203.123 93.33 201.877 91.972 199.903 91.972C198.531 91.972 197.607 92.644 197.327 93.694H197.313L197.341 92.084H195.773V101.772ZM199.567 97.824C198.223 97.824 197.341 97.068 197.341 95.892V95.528C197.369 94.142 198.237 93.26 199.539 93.26C200.785 93.26 201.555 94.128 201.555 95.458C201.555 96.9 200.771 97.824 199.567 97.824ZM206.397 99.112C207.923 99.112 208.749 98.496 208.973 97.474H208.987C208.987 98.034 208.945 98.664 208.917 99H210.485V94.786C210.485 92.966 209.253 91.972 207.153 91.972C205.179 91.972 203.975 92.798 203.975 94.184C203.975 94.31 203.989 94.492 204.003 94.59H205.445C205.431 94.478 205.431 94.366 205.431 94.324C205.431 93.554 206.033 93.148 207.097 93.148C208.315 93.148 208.917 93.61 208.917 94.646V95.136H206.355C204.507 95.136 203.765 95.962 203.765 97.012C203.765 98.356 204.815 99.112 206.397 99.112ZM206.719 97.936C205.767 97.936 205.207 97.572 205.207 96.942C205.207 96.396 205.599 96.088 206.495 96.088H208.917V96.214C208.917 97.278 208.077 97.936 206.719 97.936ZM211.821 99H213.389V95.976C213.389 94.324 214.131 93.316 215.321 93.316C216.245 93.316 216.693 93.862 216.693 95.024C216.693 95.346 216.665 95.696 216.637 95.962H218.065C218.093 95.668 218.135 95.108 218.135 94.674C218.135 92.952 217.309 91.972 215.811 91.972C214.383 91.972 213.669 92.826 213.347 94.072H213.333L213.389 92.084H211.821V99ZM222.393 99.084C222.967 99.084 223.443 98.986 223.653 98.916V97.67C223.457 97.726 223.009 97.796 222.617 97.796C221.665 97.796 221.329 97.348 221.329 96.452V93.358H223.709V92.084H221.329V90.516H220.027L219.957 91.552C219.915 91.944 219.817 92.084 219.551 92.084H218.669V93.358H219.761V96.536C219.761 98.062 220.503 99.084 222.393 99.084ZM231.073 95.29C231.073 93.134 229.827 91.972 227.867 91.972C225.683 91.972 224.311 93.358 224.311 95.598C224.311 97.768 225.683 99.112 227.867 99.112C229.757 99.112 231.017 98.174 231.073 96.634H229.659C229.589 97.446 228.903 97.894 227.895 97.894C226.719 97.894 225.977 97.18 225.893 95.85H231.073V95.29ZM229.659 94.898H225.935C226.117 93.75 226.803 93.19 227.881 93.19C229.015 93.19 229.659 93.764 229.659 94.8V94.898ZM238.385 99.112C239.799 99.112 240.667 98.412 240.933 97.32H240.961C240.933 97.992 240.919 98.594 240.891 99H242.459V89.298H240.891V93.302H240.877C240.597 92.49 239.785 91.972 238.483 91.972C236.425 91.972 235.123 93.414 235.123 95.5C235.123 97.656 236.383 99.112 238.385 99.112ZM238.707 97.824C237.475 97.824 236.677 96.872 236.677 95.5C236.677 94.184 237.489 93.26 238.735 93.26C240.037 93.26 240.891 94.044 240.891 95.276V95.612C240.891 96.956 240.023 97.824 238.707 97.824ZM247.307 99.112C249.519 99.112 250.933 97.754 250.933 95.556C250.933 93.344 249.519 91.972 247.307 91.972C245.109 91.972 243.695 93.344 243.695 95.556C243.695 97.754 245.109 99.112 247.307 99.112ZM247.307 97.824C246.033 97.824 245.263 96.956 245.263 95.556C245.263 94.142 246.033 93.26 247.307 93.26C248.581 93.26 249.365 94.142 249.365 95.556C249.365 96.956 248.581 97.824 247.307 97.824ZM258.248 99.084C258.822 99.084 259.298 98.986 259.508 98.916V97.67C259.312 97.726 258.864 97.796 258.472 97.796C257.52 97.796 257.184 97.348 257.184 96.452V93.358H259.564V92.084H257.184V90.516H255.882L255.812 91.552C255.77 91.944 255.672 92.084 255.406 92.084H254.524V93.358H255.616V96.536C255.616 98.062 256.358 99.084 258.248 99.084ZM260.692 91.272H262.302V89.732H260.692V91.272ZM260.706 99H262.274V92.084H260.706V99ZM263.752 99H265.32V95.626C265.32 94.142 266.034 93.316 267.098 93.316C268.036 93.316 268.554 93.932 268.554 94.912V99H270.122V95.57C270.122 94.128 270.822 93.316 271.914 93.316C272.852 93.316 273.342 93.932 273.342 94.94V99H274.91V94.59C274.91 92.966 274.028 91.972 272.488 91.972C271.172 91.972 270.332 92.672 270.08 93.792H270.066C269.898 92.672 269.03 91.972 267.686 91.972C266.426 91.972 265.586 92.714 265.278 93.904H265.264L265.32 92.084H263.752V99ZM282.8 95.29C282.8 93.134 281.554 91.972 279.594 91.972C277.41 91.972 276.038 93.358 276.038 95.598C276.038 97.768 277.41 99.112 279.594 99.112C281.484 99.112 282.744 98.174 282.8 96.634H281.386C281.316 97.446 280.63 97.894 279.622 97.894C278.446 97.894 277.704 97.18 277.62 95.85H282.8V95.29ZM281.386 94.898H277.662C277.844 93.75 278.53 93.19 279.608 93.19C280.742 93.19 281.386 93.764 281.386 94.8V94.898ZM3.22 117.112C4.746 117.112 5.572 116.496 5.796 115.474H5.81C5.81 116.034 5.768 116.664 5.74 117H7.308V112.786C7.308 110.966 6.076 109.972 3.976 109.972C2.002 109.972 0.798 110.798 0.798 112.184C0.798 112.31 0.812 112.492 0.826 112.59H2.268C2.254 112.478 2.254 112.366 2.254 112.324C2.254 111.554 2.856 111.148 3.92 111.148C5.138 111.148 5.74 111.61 5.74 112.646V113.136H3.178C1.33 113.136 0.588 113.962 0.588 115.012C0.588 116.356 1.638 117.112 3.22 117.112ZM3.542 115.936C2.59 115.936 2.03 115.572 2.03 114.942C2.03 114.396 2.422 114.088 3.318 114.088H5.74V114.214C5.74 115.278 4.9 115.936 3.542 115.936ZM11.8224 117.112C13.7964 117.112 15.1124 116.034 15.1124 114.186H13.6984C13.6844 115.208 12.9984 115.824 11.8924 115.824C10.7304 115.824 10.0024 114.956 10.0024 113.542C10.0024 112.114 10.7444 111.26 11.9484 111.26C12.9984 111.26 13.6704 111.89 13.6844 112.926H15.0984C15.0984 111.092 13.8384 109.972 11.9064 109.972C9.82039 109.972 8.43439 111.33 8.43439 113.542C8.43439 115.754 9.79239 117.112 11.8224 117.112ZM16.3407 117H17.9087V113.976C17.9087 112.324 18.6507 111.316 19.8407 111.316C20.7647 111.316 21.2127 111.862 21.2127 113.024C21.2127 113.346 21.1847 113.696 21.1567 113.962H22.5847C22.6127 113.668 22.6547 113.108 22.6547 112.674C22.6547 110.952 21.8287 109.972 20.3307 109.972C18.9027 109.972 18.1887 110.826 17.8667 112.072H17.8527L17.9087 110.084H16.3407V117ZM30.384 113.29C30.384 111.134 29.138 109.972 27.178 109.972C24.994 109.972 23.622 111.358 23.622 113.598C23.622 115.768 24.994 117.112 27.178 117.112C29.068 117.112 30.328 116.174 30.384 114.634H28.97C28.9 115.446 28.214 115.894 27.206 115.894C26.03 115.894 25.288 115.18 25.204 113.85H30.384V113.29ZM28.97 112.898H25.246C25.428 111.75 26.114 111.19 27.192 111.19C28.326 111.19 28.97 111.764 28.97 112.8V112.898ZM34.635 117.112C36.049 117.112 36.917 116.412 37.183 115.32H37.211C37.183 115.992 37.169 116.594 37.141 117H38.709V107.298H37.141V111.302H37.127C36.847 110.49 36.035 109.972 34.733 109.972C32.675 109.972 31.373 111.414 31.373 113.5C31.373 115.656 32.633 117.112 34.635 117.112ZM34.957 115.824C33.725 115.824 32.927 114.872 32.927 113.5C32.927 112.184 33.739 111.26 34.985 111.26C36.287 111.26 37.141 112.044 37.141 113.276V113.612C37.141 114.956 36.273 115.824 34.957 115.824ZM40.1963 109.272H41.8063V107.732H40.1963V109.272ZM40.2103 117H41.7783V110.084H40.2103V117ZM46.3369 117.084C46.9109 117.084 47.3869 116.986 47.5969 116.916V115.67C47.4009 115.726 46.9529 115.796 46.5609 115.796C45.6089 115.796 45.2729 115.348 45.2729 114.452V111.358H47.6529V110.084H45.2729V108.516H43.9709L43.9009 109.552C43.8589 109.944 43.7609 110.084 43.4949 110.084H42.6129V111.358H43.7049V114.536C43.7049 116.062 44.4469 117.084 46.3369 117.084ZM50.983 117.112C52.509 117.112 53.335 116.496 53.559 115.474H53.573C53.573 116.034 53.531 116.664 53.503 117H55.071V112.786C55.071 110.966 53.839 109.972 51.739 109.972C49.765 109.972 48.561 110.798 48.561 112.184C48.561 112.31 48.575 112.492 48.589 112.59H50.031C50.017 112.478 50.017 112.366 50.017 112.324C50.017 111.554 50.619 111.148 51.683 111.148C52.901 111.148 53.503 111.61 53.503 112.646V113.136H50.941C49.093 113.136 48.351 113.962 48.351 115.012C48.351 116.356 49.401 117.112 50.983 117.112ZM51.305 115.936C50.353 115.936 49.793 115.572 49.793 114.942C49.793 114.396 50.185 114.088 51.081 114.088H53.503V114.214C53.503 115.278 52.663 115.936 51.305 115.936ZM56.4074 117H57.9754V113.626C57.9754 112.142 58.6894 111.316 59.7534 111.316C60.6914 111.316 61.2094 111.932 61.2094 112.912V117H62.7774V113.57C62.7774 112.128 63.4774 111.316 64.5694 111.316C65.5074 111.316 65.9974 111.932 65.9974 112.94V117H67.5654V112.59C67.5654 110.966 66.6834 109.972 65.1434 109.972C63.8274 109.972 62.9874 110.672 62.7354 111.792H62.7214C62.5534 110.672 61.6854 109.972 60.3414 109.972C59.0814 109.972 58.2414 110.714 57.9334 111.904H57.9194L57.9754 110.084H56.4074V117ZM71.9641 117H73.5321V113.654C73.5321 112.142 74.4001 111.316 75.7721 111.316C77.0181 111.316 77.6341 111.932 77.6341 113.024V117H79.2021V112.674C79.2021 110.966 78.1241 109.972 76.3741 109.972C74.7641 109.972 73.8681 110.686 73.4901 111.932H73.4761L73.5321 110.084H71.9641V117ZM83.9374 117.112C86.1494 117.112 87.5634 115.754 87.5634 113.556C87.5634 111.344 86.1494 109.972 83.9374 109.972C81.7394 109.972 80.3254 111.344 80.3254 113.556C80.3254 115.754 81.7394 117.112 83.9374 117.112ZM83.9374 115.824C82.6634 115.824 81.8934 114.956 81.8934 113.556C81.8934 112.142 82.6634 111.26 83.9374 111.26C85.2114 111.26 85.9954 112.142 85.9954 113.556C85.9954 114.956 85.2114 115.824 83.9374 115.824ZM94.8232 117.112C97.0352 117.112 98.2112 116.286 98.2112 114.886C98.2112 114.326 97.9452 113.794 97.4832 113.542C96.9932 113.262 96.4332 113.164 95.4532 113.066C94.6132 112.982 93.9552 112.912 93.6192 112.8C93.2132 112.66 93.1432 112.38 93.1432 112.086C93.1432 111.498 93.7592 111.106 94.8512 111.106C95.9992 111.106 96.4892 111.54 96.5032 112.436H97.9172C97.9172 110.868 96.9652 109.972 94.8092 109.972C92.9332 109.972 91.5892 110.812 91.5892 112.198C91.5892 112.73 91.8132 113.234 92.1912 113.514C92.6112 113.822 93.3392 113.962 94.4172 114.06C95.1872 114.13 95.8452 114.2 96.1812 114.326C96.5452 114.452 96.6432 114.69 96.6432 114.956C96.6432 115.586 96.0832 115.978 94.8092 115.978C93.4652 115.978 93.0032 115.488 93.0032 114.69H91.5892C91.5892 116.048 92.4432 117.112 94.8232 117.112ZM105.952 113.29C105.952 111.134 104.706 109.972 102.746 109.972C100.562 109.972 99.1898 111.358 99.1898 113.598C99.1898 115.768 100.562 117.112 102.746 117.112C104.636 117.112 105.896 116.174 105.952 114.634H104.538C104.468 115.446 103.782 115.894 102.774 115.894C101.598 115.894 100.856 115.18 100.772 113.85H105.952V113.29ZM104.538 112.898H100.814C100.996 111.75 101.682 111.19 102.76 111.19C103.894 111.19 104.538 111.764 104.538 112.8V112.898ZM109.993 117.112C111.533 117.112 112.499 116.384 112.793 115.068H112.807C112.807 115.796 112.779 116.538 112.737 117H114.305V110.084H112.737V113.15C112.737 114.83 111.855 115.768 110.455 115.768C109.321 115.768 108.649 115.152 108.649 114.06V110.084H107.081V114.284C107.081 116.118 108.187 117.112 109.993 117.112ZM118.812 119.772H120.38V117.056C120.38 116.776 120.352 116.062 120.338 115.6H120.352C120.646 116.496 121.542 117.112 122.914 117.112C124.902 117.112 126.162 115.656 126.162 113.416C126.162 111.33 124.916 109.972 122.942 109.972C121.57 109.972 120.646 110.644 120.366 111.694H120.352L120.38 110.084H118.812V119.772ZM122.606 115.824C121.262 115.824 120.38 115.068 120.38 113.892V113.528C120.408 112.142 121.276 111.26 122.578 111.26C123.824 111.26 124.594 112.128 124.594 113.458C124.594 114.9 123.81 115.824 122.606 115.824ZM127.355 117H128.923V113.976C128.923 112.324 129.665 111.316 130.855 111.316C131.779 111.316 132.227 111.862 132.227 113.024C132.227 113.346 132.199 113.696 132.171 113.962H133.599C133.627 113.668 133.669 113.108 133.669 112.674C133.669 110.952 132.843 109.972 131.345 109.972C129.917 109.972 129.203 110.826 128.881 112.072H128.867L128.923 110.084H127.355V117ZM137.478 109.37H138.71L140.208 107.41H138.57L137.478 109.37ZM138.248 117.112C140.46 117.112 141.874 115.754 141.874 113.556C141.874 111.344 140.46 109.972 138.248 109.972C136.05 109.972 134.636 111.344 134.636 113.556C134.636 115.754 136.05 117.112 138.248 117.112ZM138.248 115.824C136.974 115.824 136.204 114.956 136.204 113.556C136.204 112.142 136.974 111.26 138.248 111.26C139.522 111.26 140.306 112.142 140.306 113.556C140.306 114.956 139.522 115.824 138.248 115.824ZM143.09 119.772H144.658V117.056C144.658 116.776 144.63 116.062 144.616 115.6H144.63C144.924 116.496 145.82 117.112 147.192 117.112C149.18 117.112 150.44 115.656 150.44 113.416C150.44 111.33 149.194 109.972 147.22 109.972C145.848 109.972 144.924 110.644 144.644 111.694H144.63L144.658 110.084H143.09V119.772ZM146.884 115.824C145.54 115.824 144.658 115.068 144.658 113.892V113.528C144.686 112.142 145.554 111.26 146.856 111.26C148.102 111.26 148.872 112.128 148.872 113.458C148.872 114.9 148.088 115.824 146.884 115.824ZM151.633 117H153.201V113.976C153.201 112.324 153.943 111.316 155.133 111.316C156.057 111.316 156.505 111.862 156.505 113.024C156.505 113.346 156.477 113.696 156.449 113.962H157.877C157.905 113.668 157.947 113.108 157.947 112.674C157.947 110.952 157.121 109.972 155.623 109.972C154.195 109.972 153.481 110.826 153.159 112.072H153.145L153.201 110.084H151.633V117ZM159.167 109.272H160.777V107.732H159.167V109.272ZM159.181 117H160.749V110.084H159.181V117ZM165.629 117.112C167.841 117.112 169.255 115.754 169.255 113.556C169.255 111.344 167.841 109.972 165.629 109.972C163.431 109.972 162.017 111.344 162.017 113.556C162.017 115.754 163.431 117.112 165.629 117.112ZM165.629 115.824C164.355 115.824 163.585 114.956 163.585 113.556C163.585 112.142 164.355 111.26 165.629 111.26C166.903 111.26 167.687 112.142 167.687 113.556C167.687 114.956 166.903 115.824 165.629 115.824ZM173.533 119.772H175.101V117.056C175.101 116.776 175.073 116.062 175.059 115.6H175.073C175.367 116.496 176.263 117.112 177.635 117.112C179.623 117.112 180.883 115.656 180.883 113.416C180.883 111.33 179.637 109.972 177.663 109.972C176.291 109.972 175.367 110.644 175.087 111.694H175.073L175.101 110.084H173.533V119.772ZM177.327 115.824C175.983 115.824 175.101 115.068 175.101 113.892V113.528C175.129 112.142 175.997 111.26 177.299 111.26C178.545 111.26 179.315 112.128 179.315 113.458C179.315 114.9 178.531 115.824 177.327 115.824ZM185.478 117.112C187.69 117.112 189.104 115.754 189.104 113.556C189.104 111.344 187.69 109.972 185.478 109.972C183.28 109.972 181.866 111.344 181.866 113.556C181.866 115.754 183.28 117.112 185.478 117.112ZM185.478 115.824C184.204 115.824 183.434 114.956 183.434 113.556C183.434 112.142 184.204 111.26 185.478 111.26C186.752 111.26 187.536 112.142 187.536 113.556C187.536 114.956 186.752 115.824 185.478 115.824ZM193.249 117.084C193.823 117.084 194.299 116.986 194.509 116.916V115.67C194.313 115.726 193.865 115.796 193.473 115.796C192.521 115.796 192.185 115.348 192.185 114.452V111.358H194.565V110.084H192.185V108.516H190.883L190.813 109.552C190.771 109.944 190.673 110.084 190.407 110.084H189.525V111.358H190.617V114.536C190.617 116.062 191.359 117.084 193.249 117.084ZM201.929 113.29C201.929 111.134 200.683 109.972 198.723 109.972C196.539 109.972 195.167 111.358 195.167 113.598C195.167 115.768 196.539 117.112 198.723 117.112C200.613 117.112 201.873 116.174 201.929 114.634H200.515C200.445 115.446 199.759 115.894 198.751 115.894C197.575 115.894 196.833 115.18 196.749 113.85H201.929V113.29ZM200.515 112.898H196.791C196.973 111.75 197.659 111.19 198.737 111.19C199.871 111.19 200.515 111.764 200.515 112.8V112.898ZM203.128 117H204.696V113.654C204.696 112.142 205.564 111.316 206.936 111.316C208.182 111.316 208.798 111.932 208.798 113.024V117H210.366V112.674C210.366 110.966 209.288 109.972 207.538 109.972C205.928 109.972 205.032 110.686 204.654 111.932H204.64L204.696 110.084H203.128V117ZM214.877 117.112C216.851 117.112 218.167 116.034 218.167 114.186H216.753C216.739 115.208 216.053 115.824 214.947 115.824C213.785 115.824 213.057 114.956 213.057 113.542C213.057 112.114 213.799 111.26 215.003 111.26C216.053 111.26 216.725 111.89 216.739 112.926H218.153C218.153 111.092 216.893 109.972 214.961 109.972C212.875 109.972 211.489 111.33 211.489 113.542C211.489 115.754 212.847 117.112 214.877 117.112ZM219.438 109.272H221.048V107.732H219.438V109.272ZM219.452 117H221.02V110.084H219.452V117ZM224.934 117.112C226.46 117.112 227.286 116.496 227.51 115.474H227.524C227.524 116.034 227.482 116.664 227.454 117H229.022V112.786C229.022 110.966 227.79 109.972 225.69 109.972C223.716 109.972 222.512 110.798 222.512 112.184C222.512 112.31 222.526 112.492 222.54 112.59H223.982C223.968 112.478 223.968 112.366 223.968 112.324C223.968 111.554 224.57 111.148 225.634 111.148C226.852 111.148 227.454 111.61 227.454 112.646V113.136H224.892C223.044 113.136 222.302 113.962 222.302 115.012C222.302 116.356 223.352 117.112 224.934 117.112ZM225.256 115.936C224.304 115.936 223.744 115.572 223.744 114.942C223.744 114.396 224.136 114.088 225.032 114.088H227.454V114.214C227.454 115.278 226.614 115.936 225.256 115.936ZM230.401 117H231.969V107.298H230.401V117ZM243.047 113.29C243.047 111.134 241.801 109.972 239.841 109.972C237.657 109.972 236.285 111.358 236.285 113.598C236.285 115.768 237.657 117.112 239.841 117.112C241.731 117.112 242.991 116.174 243.047 114.634H241.633C241.563 115.446 240.877 115.894 239.869 115.894C238.693 115.894 237.951 115.18 237.867 113.85H243.047V113.29ZM241.633 112.898H237.909C238.091 111.75 238.777 111.19 239.855 111.19C240.989 111.19 241.633 111.764 241.633 112.8V112.898ZM247.308 117H248.876V113.654C248.876 112.142 249.744 111.316 251.116 111.316C252.362 111.316 252.978 111.932 252.978 113.024V117H254.546V112.674C254.546 110.966 253.468 109.972 251.718 109.972C250.108 109.972 249.212 110.686 248.834 111.932H248.82L248.876 110.084H247.308V117ZM259.281 117.112C261.493 117.112 262.907 115.754 262.907 113.556C262.907 111.344 261.493 109.972 259.281 109.972C257.083 109.972 255.669 111.344 255.669 113.556C255.669 115.754 257.083 117.112 259.281 117.112ZM259.281 115.824C258.007 115.824 257.237 114.956 257.237 113.556C257.237 112.142 258.007 111.26 259.281 111.26C260.555 111.26 261.339 112.142 261.339 113.556C261.339 114.956 260.555 115.824 259.281 115.824ZM0.826 137.772H2.394V135.056C2.394 134.776 2.366 134.062 2.352 133.6H2.366C2.66 134.496 3.556 135.112 4.928 135.112C6.916 135.112 8.176 133.656 8.176 131.416C8.176 129.33 6.93 127.972 4.956 127.972C3.584 127.972 2.66 128.644 2.38 129.694H2.366L2.394 128.084H0.826V137.772ZM4.62 133.824C3.276 133.824 2.394 133.068 2.394 131.892V131.528C2.422 130.142 3.29 129.26 4.592 129.26C5.838 129.26 6.608 130.128 6.608 131.458C6.608 132.9 5.824 133.824 4.62 133.824ZM9.369 135H10.937V131.976C10.937 130.324 11.679 129.316 12.869 129.316C13.793 129.316 14.241 129.862 14.241 131.024C14.241 131.346 14.213 131.696 14.185 131.962H15.613C15.641 131.668 15.683 131.108 15.683 130.674C15.683 128.952 14.857 127.972 13.359 127.972C11.931 127.972 11.217 128.826 10.895 130.072H10.881L10.937 128.084H9.369V135ZM20.2623 135.112C22.4743 135.112 23.8883 133.754 23.8883 131.556C23.8883 129.344 22.4743 127.972 20.2623 127.972C18.0643 127.972 16.6503 129.344 16.6503 131.556C16.6503 133.754 18.0643 135.112 20.2623 135.112ZM20.2623 133.824C18.9883 133.824 18.2183 132.956 18.2183 131.556C18.2183 130.142 18.9883 129.26 20.2623 129.26C21.5363 129.26 22.3203 130.142 22.3203 131.556C22.3203 132.956 21.5363 133.824 20.2623 133.824ZM25.1044 137.772H26.6724V135.056C26.6724 134.776 26.6444 134.062 26.6304 133.6H26.6444C26.9384 134.496 27.8344 135.112 29.2064 135.112C31.1944 135.112 32.4544 133.656 32.4544 131.416C32.4544 129.33 31.2084 127.972 29.2344 127.972C27.8624 127.972 26.9384 128.644 26.6584 129.694H26.6444L26.6724 128.084H25.1044V137.772ZM28.8984 133.824C27.5544 133.824 26.6724 133.068 26.6724 131.892V131.528C26.7004 130.142 27.5684 129.26 28.8704 129.26C30.1164 129.26 30.8864 130.128 30.8864 131.458C30.8864 132.9 30.1024 133.824 28.8984 133.824ZM36.2794 127.37H37.5114L39.0094 125.41H37.3714L36.2794 127.37ZM37.0494 135.112C39.2614 135.112 40.6754 133.754 40.6754 131.556C40.6754 129.344 39.2614 127.972 37.0494 127.972C34.8514 127.972 33.4374 129.344 33.4374 131.556C33.4374 133.754 34.8514 135.112 37.0494 135.112ZM37.0494 133.824C35.7754 133.824 35.0054 132.956 35.0054 131.556C35.0054 130.142 35.7754 129.26 37.0494 129.26C38.3234 129.26 39.1074 130.142 39.1074 131.556C39.1074 132.956 38.3234 133.824 37.0494 133.824ZM44.7916 135.112C47.0036 135.112 48.1796 134.286 48.1796 132.886C48.1796 132.326 47.9136 131.794 47.4516 131.542C46.9616 131.262 46.4016 131.164 45.4216 131.066C44.5816 130.982 43.9236 130.912 43.5876 130.8C43.1816 130.66 43.1116 130.38 43.1116 130.086C43.1116 129.498 43.7276 129.106 44.8196 129.106C45.9676 129.106 46.4576 129.54 46.4716 130.436H47.8856C47.8856 128.868 46.9336 127.972 44.7776 127.972C42.9016 127.972 41.5576 128.812 41.5576 130.198C41.5576 130.73 41.7816 131.234 42.1596 131.514C42.5796 131.822 43.3076 131.962 44.3856 132.06C45.1556 132.13 45.8136 132.2 46.1496 132.326C46.5136 132.452 46.6116 132.69 46.6116 132.956C46.6116 133.586 46.0516 133.978 44.7776 133.978C43.4336 133.978 42.9716 133.488 42.9716 132.69H41.5576C41.5576 134.048 42.4116 135.112 44.7916 135.112ZM49.4102 127.272H51.0202V125.732H49.4102V127.272ZM49.4242 135H50.9922V128.084H49.4242V135ZM55.5508 135.084C56.1248 135.084 56.6008 134.986 56.8108 134.916V133.67C56.6148 133.726 56.1668 133.796 55.7748 133.796C54.8228 133.796 54.4868 133.348 54.4868 132.452V129.358H56.8668V128.084H54.4868V126.516H53.1848L53.1148 127.552C53.0728 127.944 52.9748 128.084 52.7088 128.084H51.8268V129.358H52.9188V132.536C52.9188 134.062 53.6608 135.084 55.5508 135.084ZM61.0808 135.112C63.2928 135.112 64.7068 133.754 64.7068 131.556C64.7068 129.344 63.2928 127.972 61.0808 127.972C58.8828 127.972 57.4688 129.344 57.4688 131.556C57.4688 133.754 58.8828 135.112 61.0808 135.112ZM61.0808 133.824C59.8068 133.824 59.0368 132.956 59.0368 131.556C59.0368 130.142 59.8068 129.26 61.0808 129.26C62.3548 129.26 63.1388 130.142 63.1388 131.556C63.1388 132.956 62.3548 133.824 61.0808 133.824ZM71.9946 135.112C73.4086 135.112 74.2766 134.412 74.5426 133.32H74.5706C74.5426 133.992 74.5286 134.594 74.5006 135H76.0686V125.298H74.5006V129.302H74.4866C74.2066 128.49 73.3946 127.972 72.0926 127.972C70.0346 127.972 68.7326 129.414 68.7326 131.5C68.7326 133.656 69.9926 135.112 71.9946 135.112ZM72.3166 133.824C71.0846 133.824 70.2866 132.872 70.2866 131.5C70.2866 130.184 71.0986 129.26 72.3446 129.26C73.6466 129.26 74.5006 130.044 74.5006 131.276V131.612C74.5006 132.956 73.6326 133.824 72.3166 133.824ZM79.9499 135.112C81.4759 135.112 82.3019 134.496 82.5259 133.474H82.5399C82.5399 134.034 82.4979 134.664 82.4699 135H84.0379V130.786C84.0379 128.966 82.8059 127.972 80.7059 127.972C78.7319 127.972 77.5279 128.798 77.5279 130.184C77.5279 130.31 77.5419 130.492 77.5559 130.59H78.9979C78.9839 130.478 78.9839 130.366 78.9839 130.324C78.9839 129.554 79.5859 129.148 80.6499 129.148C81.8679 129.148 82.4699 129.61 82.4699 130.646V131.136H79.9079C78.0599 131.136 77.3179 131.962 77.3179 133.012C77.3179 134.356 78.3679 135.112 79.9499 135.112ZM80.2719 133.936C79.3199 133.936 78.7599 133.572 78.7599 132.942C78.7599 132.396 79.1519 132.088 80.0479 132.088H82.4699V132.214C82.4699 133.278 81.6299 133.936 80.2719 133.936ZM94.9879 131.29C94.9879 129.134 93.7419 127.972 91.7819 127.972C89.5979 127.972 88.2259 129.358 88.2259 131.598C88.2259 133.768 89.5979 135.112 91.7819 135.112C93.6719 135.112 94.9319 134.174 94.9879 132.634H93.5739C93.5039 133.446 92.8179 133.894 91.8099 133.894C90.6339 133.894 89.8919 133.18 89.8079 131.85H94.9879V131.29ZM93.5739 130.898H89.8499C90.0319 129.75 90.7179 129.19 91.7959 129.19C92.9299 129.19 93.5739 129.764 93.5739 130.8V130.898ZM96.1869 135H97.7549V131.626C97.7549 130.142 98.4689 129.316 99.5329 129.316C100.471 129.316 100.989 129.932 100.989 130.912V135H102.557V131.57C102.557 130.128 103.257 129.316 104.349 129.316C105.287 129.316 105.777 129.932 105.777 130.94V135H107.345V130.59C107.345 128.966 106.463 127.972 104.923 127.972C103.607 127.972 102.767 128.672 102.515 129.792H102.501C102.333 128.672 101.465 127.972 100.121 127.972C98.8609 127.972 98.0209 128.714 97.7129 129.904H97.6989L97.7549 128.084H96.1869V135ZM108.724 137.772H110.292V135.056C110.292 134.776 110.264 134.062 110.25 133.6H110.264C110.558 134.496 111.454 135.112 112.826 135.112C114.814 135.112 116.074 133.656 116.074 131.416C116.074 129.33 114.828 127.972 112.854 127.972C111.482 127.972 110.558 128.644 110.278 129.694H110.264L110.292 128.084H108.724V137.772ZM112.518 133.824C111.174 133.824 110.292 133.068 110.292 131.892V131.528C110.32 130.142 111.188 129.26 112.49 129.26C113.736 129.26 114.506 130.128 114.506 131.458C114.506 132.9 113.722 133.824 112.518 133.824ZM117.267 135H118.835V131.976C118.835 130.324 119.577 129.316 120.767 129.316C121.691 129.316 122.139 129.862 122.139 131.024C122.139 131.346 122.111 131.696 122.083 131.962H123.511C123.539 131.668 123.581 131.108 123.581 130.674C123.581 128.952 122.755 127.972 121.257 127.972C119.829 127.972 119.115 128.826 118.793 130.072H118.779L118.835 128.084H117.267V135ZM131.31 131.29C131.31 129.134 130.064 127.972 128.104 127.972C125.92 127.972 124.548 129.358 124.548 131.598C124.548 133.768 125.92 135.112 128.104 135.112C129.994 135.112 131.254 134.174 131.31 132.634H129.896C129.826 133.446 129.14 133.894 128.132 133.894C126.956 133.894 126.214 133.18 126.13 131.85H131.31V131.29ZM129.896 130.898H126.172C126.354 129.75 127.04 129.19 128.118 129.19C129.252 129.19 129.896 129.764 129.896 130.8V130.898ZM135.533 135.112C137.745 135.112 138.921 134.286 138.921 132.886C138.921 132.326 138.655 131.794 138.193 131.542C137.703 131.262 137.143 131.164 136.163 131.066C135.323 130.982 134.665 130.912 134.329 130.8C133.923 130.66 133.853 130.38 133.853 130.086C133.853 129.498 134.469 129.106 135.561 129.106C136.709 129.106 137.199 129.54 137.213 130.436H138.627C138.627 128.868 137.675 127.972 135.519 127.972C133.643 127.972 132.299 128.812 132.299 130.198C132.299 130.73 132.523 131.234 132.901 131.514C133.321 131.822 134.049 131.962 135.127 132.06C135.897 132.13 136.555 132.2 136.891 132.326C137.255 132.452 137.353 132.69 137.353 132.956C137.353 133.586 136.793 133.978 135.519 133.978C134.175 133.978 133.713 133.488 133.713 132.69H132.299C132.299 134.048 133.153 135.112 135.533 135.112ZM142.546 135.112C144.072 135.112 144.898 134.496 145.122 133.474H145.136C145.136 134.034 145.094 134.664 145.066 135H146.634V130.786C146.634 128.966 145.402 127.972 143.302 127.972C141.328 127.972 140.124 128.798 140.124 130.184C140.124 130.31 140.138 130.492 140.152 130.59H141.594C141.58 130.478 141.58 130.366 141.58 130.324C141.58 129.554 142.182 129.148 143.246 129.148C144.464 129.148 145.066 129.61 145.066 130.646V131.136H142.504C140.656 131.136 139.914 131.962 139.914 133.012C139.914 134.356 140.964 135.112 142.546 135.112ZM142.868 133.936C141.916 133.936 141.356 133.572 141.356 132.942C141.356 132.396 141.748 132.088 142.644 132.088H145.066V132.214C145.066 133.278 144.226 133.936 142.868 133.936ZM148.404 131.836H149.02L149.482 127.174V125.592H147.942V127.174L148.404 131.836ZM147.914 135H149.51V133.18H147.914V135ZM156.268 135H157.948V127.174H160.804V125.788H153.412V127.174H156.268V135ZM165.739 135.14C168.427 135.14 170.527 133.334 170.527 130.352C170.527 127.426 168.427 125.648 165.739 125.648C163.065 125.648 160.965 127.426 160.965 130.352C160.965 133.334 163.065 135.14 165.739 135.14ZM165.739 133.74C164.045 133.74 162.673 132.466 162.673 130.352C162.673 128.294 164.045 127.048 165.739 127.048C167.447 127.048 168.819 128.294 168.819 130.352C168.819 132.466 167.447 133.74 165.739 133.74ZM171.827 135H175.649C178.337 135 180.017 133.334 180.017 130.38C180.017 127.454 178.239 125.788 175.355 125.788H171.827V135ZM173.507 133.6V127.188H175.425C177.189 127.188 178.351 128.28 178.351 130.38C178.351 132.494 177.273 133.6 175.621 133.6H173.507ZM185.78 135.14C188.468 135.14 190.568 133.334 190.568 130.352C190.568 127.426 188.468 125.648 185.78 125.648C183.106 125.648 181.006 127.426 181.006 130.352C181.006 133.334 183.106 135.14 185.78 135.14ZM185.78 133.74C184.086 133.74 182.714 132.466 182.714 130.352C182.714 128.294 184.086 127.048 185.78 127.048C187.488 127.048 188.86 128.294 188.86 130.352C188.86 132.466 187.488 133.74 185.78 133.74ZM195.438 135.14C198.574 135.14 199.442 133.754 199.442 132.27C199.442 131.416 199.078 130.772 198.448 130.45C197.874 130.142 196.978 129.988 196.012 129.834C195.214 129.722 194.178 129.554 193.772 129.358C193.408 129.19 193.226 128.882 193.226 128.364C193.226 127.524 194.052 126.95 195.438 126.95C196.88 126.95 197.622 127.594 197.622 128.952H199.134C199.134 126.852 198.14 125.648 195.41 125.648C193.002 125.648 191.56 126.824 191.56 128.504C191.56 129.372 191.91 130.002 192.47 130.352C192.974 130.674 193.954 130.884 194.878 131.01C195.676 131.122 196.67 131.248 197.132 131.43C197.566 131.584 197.776 131.878 197.776 132.382C197.776 133.138 197.3 133.838 195.424 133.838C193.66 133.838 193.1 133.026 193.1 131.85H191.588C191.588 133.53 192.386 135.14 195.438 135.14ZM207.007 135.14C209.275 135.14 210.577 133.74 210.577 131.024V125.788H208.897V131.136C208.897 132.9 208.169 133.74 206.951 133.74C205.733 133.74 205.089 132.928 205.089 131.584C205.089 131.094 205.103 130.562 205.117 130.24H203.619C203.605 130.562 203.577 131.15 203.577 131.626C203.577 133.852 204.781 135.14 207.007 135.14ZM216.158 135.14C218.636 135.14 220.19 133.74 220.19 131.528V125.788H218.692V131.5C218.692 132.9 217.74 133.698 216.228 133.698C214.73 133.698 213.764 132.9 213.764 131.5V125.788H212.098V131.528C212.098 133.74 213.666 135.14 216.158 135.14ZM221.764 135H223.346L223.332 127.188H223.346L228.26 135H230.248V125.788H228.666L228.694 132.788H228.666L224.284 125.788H221.764V135ZM234.121 135H235.801V127.174H238.657V125.788H231.265V127.174H234.121V135ZM243.591 135.14C246.279 135.14 248.379 133.334 248.379 130.352C248.379 127.426 246.279 125.648 243.591 125.648C240.917 125.648 238.817 127.426 238.817 130.352C238.817 133.334 240.917 135.14 243.591 135.14ZM243.591 133.74C241.897 133.74 240.525 132.466 240.525 130.352C240.525 128.294 241.897 127.048 243.591 127.048C245.299 127.048 246.671 128.294 246.671 130.352C246.671 132.466 245.299 133.74 243.591 133.74ZM253.25 135.14C256.386 135.14 257.254 133.754 257.254 132.27C257.254 131.416 256.89 130.772 256.26 130.45C255.686 130.142 254.79 129.988 253.824 129.834C253.026 129.722 251.99 129.554 251.584 129.358C251.22 129.19 251.038 128.882 251.038 128.364C251.038 127.524 251.864 126.95 253.25 126.95C254.692 126.95 255.434 127.594 255.434 128.952H256.946C256.946 126.852 255.952 125.648 253.222 125.648C250.814 125.648 249.372 126.824 249.372 128.504C249.372 129.372 249.722 130.002 250.282 130.352C250.786 130.674 251.766 130.884 252.69 131.01C253.488 131.122 254.482 131.248 254.944 131.43C255.378 131.584 255.588 131.878 255.588 132.382C255.588 133.138 255.112 133.838 253.236 133.838C251.472 133.838 250.912 133.026 250.912 131.85H249.4C249.4 133.53 250.198 135.14 253.25 135.14ZM1.246 153H2.814V147.358H5.222V146.084H2.814V145.468C2.814 144.712 3.248 144.292 4.046 144.292C4.522 144.292 4.886 144.39 5.11 144.46V143.214C4.886 143.13 4.382 143.018 3.766 143.018C2.268 143.018 1.246 143.858 1.246 145.398V146.084H0.14V147.358H1.246V153ZM8.25031 153.112C9.77631 153.112 10.6023 152.496 10.8263 151.474H10.8403C10.8403 152.034 10.7983 152.664 10.7703 153H12.3383V148.786C12.3383 146.966 11.1063 145.972 9.00631 145.972C7.03231 145.972 5.82831 146.798 5.82831 148.184C5.82831 148.31 5.84231 148.492 5.85631 148.59H7.29831C7.28431 148.478 7.28431 148.366 7.28431 148.324C7.28431 147.554 7.88631 147.148 8.95031 147.148C10.1683 147.148 10.7703 147.61 10.7703 148.646V149.136H8.20831C6.36031 149.136 5.61831 149.962 5.61831 151.012C5.61831 152.356 6.66831 153.112 8.25031 153.112ZM8.57231 151.936C7.62031 151.936 7.06031 151.572 7.06031 150.942C7.06031 150.396 7.45231 150.088 8.34831 150.088H10.7703V150.214C10.7703 151.278 9.93031 151.936 8.57231 151.936ZM13.4367 153H19.2887V151.726H15.4667V151.712L19.2887 147.05V146.084H13.5487V147.358H17.2447V147.386L13.4367 152.02V153ZM26.8156 149.29C26.8156 147.134 25.5696 145.972 23.6096 145.972C21.4256 145.972 20.0536 147.358 20.0536 149.598C20.0536 151.768 21.4256 153.112 23.6096 153.112C25.4996 153.112 26.7596 152.174 26.8156 150.634H25.4016C25.3316 151.446 24.6456 151.894 23.6376 151.894C22.4616 151.894 21.7196 151.18 21.6356 149.85H26.8156V149.29ZM25.4016 148.898H21.6776C21.8596 147.75 22.5456 147.19 23.6236 147.19C24.7576 147.19 25.4016 147.764 25.4016 148.8V148.898ZM28.0146 153H29.5826V149.654C29.5826 148.142 30.4506 147.316 31.8226 147.316C33.0686 147.316 33.6846 147.932 33.6846 149.024V153H35.2526V148.674C35.2526 146.966 34.1746 145.972 32.4246 145.972C30.8146 145.972 29.9186 146.686 29.5406 147.932H29.5266L29.5826 146.084H28.0146V153ZM39.638 153.112C41.052 153.112 41.92 152.412 42.186 151.32H42.214C42.186 151.992 42.172 152.594 42.144 153H43.712V143.298H42.144V147.302H42.13C41.85 146.49 41.038 145.972 39.736 145.972C37.678 145.972 36.376 147.414 36.376 149.5C36.376 151.656 37.636 153.112 39.638 153.112ZM39.96 151.824C38.728 151.824 37.93 150.872 37.93 149.5C37.93 148.184 38.742 147.26 39.988 147.26C41.29 147.26 42.144 148.044 42.144 149.276V149.612C42.144 150.956 41.276 151.824 39.96 151.824ZM48.5593 153.112C50.7713 153.112 52.1853 151.754 52.1853 149.556C52.1853 147.344 50.7713 145.972 48.5593 145.972C46.3613 145.972 44.9473 147.344 44.9473 149.556C44.9473 151.754 46.3613 153.112 48.5593 153.112ZM48.5593 151.824C47.2853 151.824 46.5153 150.956 46.5153 149.556C46.5153 148.142 47.2853 147.26 48.5593 147.26C49.8333 147.26 50.6173 148.142 50.6173 149.556C50.6173 150.956 49.8333 151.824 48.5593 151.824ZM59.823 153.112C62.035 153.112 63.449 151.754 63.449 149.556C63.449 147.344 62.035 145.972 59.823 145.972C57.625 145.972 56.211 147.344 56.211 149.556C56.211 151.754 57.625 153.112 59.823 153.112ZM59.823 151.824C58.549 151.824 57.779 150.956 57.779 149.556C57.779 148.142 58.549 147.26 59.823 147.26C61.097 147.26 61.881 148.142 61.881 149.556C61.881 150.956 61.097 151.824 59.823 151.824ZM73.2428 155.772H74.8108V146.084H73.2568V147.4H73.2428C72.9628 146.518 72.1368 145.972 70.7928 145.972C68.8608 145.972 67.4748 147.358 67.4748 149.486C67.4748 151.698 68.7348 153.112 70.7228 153.112C72.0528 153.112 72.9768 152.44 73.2288 151.404H73.2428V155.772ZM71.0588 151.824C69.8408 151.824 69.0288 150.914 69.0288 149.486C69.0288 148.142 69.8688 147.26 71.0868 147.26C72.3888 147.26 73.2428 148.044 73.2428 149.262V149.598C73.2428 150.956 72.3748 151.824 71.0588 151.824ZM79.0981 153.112C80.6381 153.112 81.6041 152.384 81.8981 151.068H81.9121C81.9121 151.796 81.8841 152.538 81.8421 153H83.4101V146.084H81.8421V149.15C81.8421 150.83 80.9601 151.768 79.5601 151.768C78.4261 151.768 77.7541 151.152 77.7541 150.06V146.084H76.1861V150.284C76.1861 152.118 77.2921 153.112 79.0981 153.112ZM91.3658 149.29C91.3658 147.134 90.1198 145.972 88.1598 145.972C85.9758 145.972 84.6038 147.358 84.6038 149.598C84.6038 151.768 85.9758 153.112 88.1598 153.112C90.0498 153.112 91.3098 152.174 91.3658 150.634H89.9518C89.8818 151.446 89.1958 151.894 88.1878 151.894C87.0118 151.894 86.2698 151.18 86.1858 149.85H91.3658V149.29ZM89.9518 148.898H86.2278C86.4098 147.75 87.0958 147.19 88.1738 147.19C89.3078 147.19 89.9518 147.764 89.9518 148.8V148.898ZM98.0623 153.112C99.5883 153.112 100.414 152.496 100.638 151.474H100.652C100.652 152.034 100.61 152.664 100.582 153H102.15V148.786C102.15 146.966 100.918 145.972 98.8183 145.972C96.8443 145.972 95.6403 146.798 95.6403 148.184C95.6403 148.31 95.6543 148.492 95.6683 148.59H97.1103C97.0963 148.478 97.0963 148.366 97.0963 148.324C97.0963 147.554 97.6983 147.148 98.7623 147.148C99.9803 147.148 100.582 147.61 100.582 148.646V149.136H98.0203C96.1723 149.136 95.4303 149.962 95.4303 151.012C95.4303 152.356 96.4803 153.112 98.0623 153.112ZM98.3843 151.936C97.4323 151.936 96.8723 151.572 96.8723 150.942C96.8723 150.396 97.2643 150.088 98.1603 150.088H100.582V150.214C100.582 151.278 99.7423 151.936 98.3843 151.936ZM103.487 153H105.055V149.626C105.055 148.142 105.769 147.316 106.833 147.316C107.771 147.316 108.289 147.932 108.289 148.912V153H109.857V149.57C109.857 148.128 110.557 147.316 111.649 147.316C112.587 147.316 113.077 147.932 113.077 148.94V153H114.645V148.59C114.645 146.966 113.763 145.972 112.223 145.972C110.907 145.972 110.067 146.672 109.815 147.792H109.801C109.633 146.672 108.765 145.972 107.421 145.972C106.161 145.972 105.321 146.714 105.013 147.904H104.999L105.055 146.084H103.487V153ZM118.418 153.112C119.944 153.112 120.77 152.496 120.994 151.474H121.008C121.008 152.034 120.966 152.664 120.938 153H122.506V148.786C122.506 146.966 121.274 145.972 119.174 145.972C117.2 145.972 115.996 146.798 115.996 148.184C115.996 148.31 116.01 148.492 116.024 148.59H117.466C117.452 148.478 117.452 148.366 117.452 148.324C117.452 147.554 118.054 147.148 119.118 147.148C120.336 147.148 120.938 147.61 120.938 148.646V149.136H118.376C116.528 149.136 115.786 149.962 115.786 151.012C115.786 152.356 116.836 153.112 118.418 153.112ZM118.74 151.936C117.788 151.936 117.228 151.572 117.228 150.942C117.228 150.396 117.62 150.088 118.516 150.088H120.938V150.214C120.938 151.278 120.098 151.936 118.74 151.936ZM123.842 153H125.41V149.626C125.41 148.142 126.124 147.316 127.188 147.316C128.126 147.316 128.644 147.932 128.644 148.912V153H130.212V149.57C130.212 148.128 130.912 147.316 132.004 147.316C132.942 147.316 133.432 147.932 133.432 148.94V153H135V148.59C135 146.966 134.118 145.972 132.578 145.972C131.262 145.972 130.422 146.672 130.17 147.792H130.156C129.988 146.672 129.12 145.972 127.776 145.972C126.516 145.972 125.676 146.714 125.368 147.904H125.354L125.41 146.084H123.842V153ZM139.861 153H141.429V147.358H143.837V146.084H141.429V145.468C141.429 144.712 141.863 144.292 142.661 144.292C143.137 144.292 143.501 144.39 143.725 144.46V143.214C143.501 143.13 142.997 143.018 142.381 143.018C140.883 143.018 139.861 143.858 139.861 145.398V146.084H138.755V147.358H139.861V153ZM146.865 153.112C148.391 153.112 149.217 152.496 149.441 151.474H149.455C149.455 152.034 149.413 152.664 149.385 153H150.953V148.786C150.953 146.966 149.721 145.972 147.621 145.972C145.647 145.972 144.443 146.798 144.443 148.184C144.443 148.31 144.457 148.492 144.471 148.59H145.913C145.899 148.478 145.899 148.366 145.899 148.324C145.899 147.554 146.501 147.148 147.565 147.148C148.783 147.148 149.385 147.61 149.385 148.646V149.136H146.823C144.975 149.136 144.233 149.962 144.233 151.012C144.233 152.356 145.283 153.112 146.865 153.112ZM147.187 151.936C146.235 151.936 145.675 151.572 145.675 150.942C145.675 150.396 146.067 150.088 146.963 150.088H149.385V150.214C149.385 151.278 148.545 151.936 147.187 151.936ZM152.052 153H157.904V151.726H154.082V151.712L157.904 147.05V146.084H152.164V147.358H155.86V147.386L152.052 152.02V153ZM165.52 153.112C167.732 153.112 169.146 151.754 169.146 149.556C169.146 147.344 167.732 145.972 165.52 145.972C163.322 145.972 161.908 147.344 161.908 149.556C161.908 151.754 163.322 153.112 165.52 153.112ZM165.52 151.824C164.246 151.824 163.476 150.956 163.476 149.556C163.476 148.142 164.246 147.26 165.52 147.26C166.794 147.26 167.578 148.142 167.578 149.556C167.578 150.956 166.794 151.824 165.52 151.824ZM173.494 153H175.076L175.062 145.188H175.076L179.99 153H181.978V143.788H180.396L180.424 150.788H180.396L176.014 143.788H173.494V153ZM187.866 153.14C189.546 153.14 190.582 152.412 190.862 151.348H190.876C190.862 151.978 190.82 152.636 190.792 153H192.192V148.464H187.712V149.528H190.568V149.738C190.568 150.984 189.476 151.838 188.006 151.838C186.34 151.838 184.982 150.564 184.982 148.506C184.982 146.378 186.298 145.048 188.076 145.048C189.49 145.048 190.61 145.79 190.61 147.092C190.61 147.218 190.61 147.372 190.596 147.54H192.094C192.108 147.372 192.122 147.148 192.122 146.994C192.122 144.894 190.372 143.648 188.048 143.648C185.332 143.648 183.288 145.538 183.288 148.492C183.288 151.376 185.234 153.14 187.866 153.14ZM193.866 153H195.448V151.18H193.866V153ZM201.635 153.14C204.071 153.14 205.807 151.712 205.807 149.626V149.304H204.309V149.528C204.309 150.858 203.231 151.74 201.691 151.74C199.955 151.74 198.611 150.466 198.611 148.408C198.611 146.35 199.899 145.048 201.691 145.048C203.175 145.048 204.281 145.944 204.281 147.358C204.281 147.428 204.281 147.54 204.267 147.666H205.751C205.765 147.498 205.779 147.316 205.779 147.218C205.779 145.09 204.057 143.648 201.635 143.648C198.863 143.648 196.903 145.468 196.903 148.408C196.903 151.334 198.891 153.14 201.635 153.14ZM213.712 153H215.658L211.92 143.788H209.876L206.124 153H207.86L208.644 150.928H212.942L213.712 153ZM209.064 149.808L210.786 145.216H210.814L212.522 149.808H209.064ZM219.893 153.14C223.029 153.14 223.897 151.754 223.897 150.27C223.897 149.416 223.533 148.772 222.903 148.45C222.329 148.142 221.433 147.988 220.467 147.834C219.669 147.722 218.633 147.554 218.227 147.358C217.863 147.19 217.681 146.882 217.681 146.364C217.681 145.524 218.507 144.95 219.893 144.95C221.335 144.95 222.077 145.594 222.077 146.952H223.589C223.589 144.852 222.595 143.648 219.865 143.648C217.457 143.648 216.015 144.824 216.015 146.504C216.015 147.372 216.365 148.002 216.925 148.352C217.429 148.674 218.409 148.884 219.333 149.01C220.131 149.122 221.125 149.248 221.587 149.43C222.021 149.584 222.231 149.878 222.231 150.382C222.231 151.138 221.755 151.838 219.879 151.838C218.115 151.838 217.555 151.026 217.555 149.85H216.043C216.043 151.53 216.841 153.14 219.893 153.14ZM225.222 153H226.902V148.898H231.802V153H233.468V143.788H231.802V147.554H226.902V143.788H225.222V153ZM241.08 153.112C243.292 153.112 244.468 152.286 244.468 150.886C244.468 150.326 244.202 149.794 243.74 149.542C243.25 149.262 242.69 149.164 241.71 149.066C240.87 148.982 240.212 148.912 239.876 148.8C239.47 148.66 239.4 148.38 239.4 148.086C239.4 147.498 240.016 147.106 241.108 147.106C242.256 147.106 242.746 147.54 242.76 148.436H244.174C244.174 146.868 243.222 145.972 241.066 145.972C239.19 145.972 237.846 146.812 237.846 148.198C237.846 148.73 238.07 149.234 238.448 149.514C238.868 149.822 239.596 149.962 240.674 150.06C241.444 150.13 242.102 150.2 242.438 150.326C242.802 150.452 242.9 150.69 242.9 150.956C242.9 151.586 242.34 151.978 241.066 151.978C239.722 151.978 239.26 151.488 239.26 150.69H237.846C237.846 152.048 238.7 153.112 241.08 153.112ZM252.208 149.29C252.208 147.134 250.962 145.972 249.002 145.972C246.818 145.972 245.446 147.358 245.446 149.598C245.446 151.768 246.818 153.112 249.002 153.112C250.892 153.112 252.152 152.174 252.208 150.634H250.794C250.724 151.446 250.038 151.894 249.03 151.894C247.854 151.894 247.112 151.18 247.028 149.85H252.208V149.29ZM250.794 148.898H247.07C247.252 147.75 247.938 147.19 249.016 147.19C250.15 147.19 250.794 147.764 250.794 148.8V148.898ZM253.407 153H254.975V149.976C254.975 148.324 255.717 147.316 256.907 147.316C257.831 147.316 258.279 147.862 258.279 149.024C258.279 149.346 258.251 149.696 258.223 149.962H259.651C259.679 149.668 259.721 149.108 259.721 148.674C259.721 146.952 258.895 145.972 257.397 145.972C255.969 145.972 255.255 146.826 254.933 148.072H254.919L254.975 146.084H253.407V153ZM267.362 153.112C269.574 153.112 270.988 151.754 270.988 149.556C270.988 147.344 269.574 145.972 267.362 145.972C265.164 145.972 263.75 147.344 263.75 149.556C263.75 151.754 265.164 153.112 267.362 153.112ZM267.362 151.824C266.088 151.824 265.318 150.956 265.318 149.556C265.318 148.142 266.088 147.26 267.362 147.26C268.636 147.26 269.42 148.142 269.42 149.556C269.42 150.956 268.636 151.824 267.362 151.824ZM1.246 171H2.814V165.358H5.222V164.084H2.814V163.468C2.814 162.712 3.248 162.292 4.046 162.292C4.522 162.292 4.886 162.39 5.11 162.46V161.214C4.886 161.13 4.382 161.018 3.766 161.018C2.268 161.018 1.246 161.858 1.246 163.398V164.084H0.14V165.358H1.246V171ZM9.06647 171.112C10.6065 171.112 11.5725 170.384 11.8665 169.068H11.8805C11.8805 169.796 11.8525 170.538 11.8105 171H13.3785V164.084H11.8105V167.15C11.8105 168.83 10.9285 169.768 9.52847 169.768C8.39447 169.768 7.72247 169.152 7.72247 168.06V164.084H6.15447V168.284C6.15447 170.118 7.26047 171.112 9.06647 171.112ZM17.8621 171.084C18.4361 171.084 18.9121 170.986 19.1221 170.916V169.67C18.9261 169.726 18.4781 169.796 18.0861 169.796C17.1341 169.796 16.7981 169.348 16.7981 168.452V165.358H19.1781V164.084H16.7981V162.516H15.4961L15.4261 163.552C15.3841 163.944 15.2861 164.084 15.0201 164.084H14.1381V165.358H15.2301V168.536C15.2301 170.062 15.9721 171.084 17.8621 171.084ZM23.1056 171.112C24.6456 171.112 25.6116 170.384 25.9056 169.068H25.9196C25.9196 169.796 25.8916 170.538 25.8496 171H27.4176V164.084H25.8496V167.15C25.8496 168.83 24.9676 169.768 23.5676 169.768C22.4336 169.768 21.7616 169.152 21.7616 168.06V164.084H20.1936V168.284C20.1936 170.118 21.2996 171.112 23.1056 171.112ZM28.8213 171H30.3893V167.976C30.3893 166.324 31.1313 165.316 32.3213 165.316C33.2453 165.316 33.6933 165.862 33.6933 167.024C33.6933 167.346 33.6653 167.696 33.6373 167.962H35.0653C35.0933 167.668 35.1353 167.108 35.1353 166.674C35.1353 164.952 34.3093 163.972 32.8113 163.972C31.3833 163.972 30.6693 164.826 30.3473 166.072H30.3333L30.3893 164.084H28.8213V171ZM39.7145 171.112C41.9265 171.112 43.3405 169.754 43.3405 167.556C43.3405 165.344 41.9265 163.972 39.7145 163.972C37.5165 163.972 36.1025 165.344 36.1025 167.556C36.1025 169.754 37.5165 171.112 39.7145 171.112ZM39.7145 169.824C38.4405 169.824 37.6705 168.956 37.6705 167.556C37.6705 166.142 38.4405 165.26 39.7145 165.26C40.9885 165.26 41.7725 166.142 41.7725 167.556C41.7725 168.956 40.9885 169.824 39.7145 169.824ZM44.9487 167.836H45.5647L46.0267 163.174V161.592H44.4867V163.174L44.9487 167.836ZM44.4587 171H46.0547V169.18H44.4587V171Z" fill="white"/>
<path d="M6.952 14H10.632L16.264 3.472H13.128L9.016 11.536H9L4.824 3.472H1.32L6.952 14ZM17.4697 14H20.5417V3.472H17.4697V14ZM28.6398 14.192C33.1358 14.192 34.7998 11.936 34.7998 9.888C34.7998 9.856 34.7998 9.744 34.7838 9.664H32.0478V9.76C32.0478 10.928 30.9438 11.92 28.7678 11.92C26.2238 11.92 25.2318 10.432 25.2318 8.752C25.2318 6.944 26.4478 5.552 28.7518 5.552C31.0238 5.552 31.9998 6.784 31.9998 7.76V7.824H34.7358C34.7518 7.728 34.7518 7.6 34.7518 7.568C34.7518 5.808 33.2478 3.28 28.6078 3.28C24.2238 3.28 21.9998 5.632 21.9998 8.752C21.9998 11.472 23.6478 14.192 28.6398 14.192ZM39.4927 14H42.5647V5.744H46.7087V3.472H35.3487V5.744H39.4927V14ZM53.8359 14.192C58.7479 14.192 60.7479 11.68 60.7479 8.688C60.7479 5.776 58.5879 3.28 53.8359 3.28C49.0839 3.28 46.9239 5.776 46.9239 8.688C46.9239 11.84 49.0679 14.192 53.8359 14.192ZM53.8359 11.92C51.3239 11.92 50.1559 10.592 50.1559 8.704C50.1559 6.992 51.3399 5.552 53.8359 5.552C56.3319 5.552 57.5159 6.992 57.5159 8.704C57.5159 10.512 56.4119 11.92 53.8359 11.92ZM62.113 14H65.185V10.208H68.993C70.305 10.208 70.721 10.704 70.721 11.792V14H73.793V11.792C73.793 10.688 73.617 9.52 71.953 9.136V9.104C73.409 8.672 73.857 7.648 73.857 6.592C73.857 4.704 72.641 3.472 68.737 3.472H62.113V14ZM65.185 8.416V5.744H68.609C70.385 5.744 70.945 6.288 70.945 7.04C70.945 7.856 70.401 8.416 68.881 8.416H65.185ZM83.8722 14H86.9442V5.744H91.0882V3.472H79.7282V5.744H83.8722V14ZM92.2961 14H95.3681V10.208H99.1761C100.488 10.208 100.904 10.704 100.904 11.792V14H103.976V11.792C103.976 10.688 103.8 9.52 102.136 9.136V9.104C103.592 8.672 104.04 7.648 104.04 6.592C104.04 4.704 102.824 3.472 98.9201 3.472H92.2961V14ZM95.3681 8.416V5.744H98.7921C100.568 5.744 101.128 6.288 101.128 7.04C101.128 7.856 100.584 8.416 99.0641 8.416H95.3681ZM105.807 14H108.879V3.472H105.807V14ZM110.689 14H113.665V6.256H113.681L120.545 14H123.585V3.472H120.609V9.808H120.593L114.977 3.472H110.689V14ZM125.307 14H131.131C135.579 14 137.275 12.112 137.275 8.736C137.275 5.76 135.611 3.472 130.667 3.472H125.307V14ZM128.379 11.728V5.744H130.827C133.307 5.744 134.203 7.072 134.203 8.736C134.203 10.672 133.307 11.728 131.035 11.728H128.379ZM148.791 14H152.359L146.631 3.472H142.983L137.255 14H140.423L141.511 11.856H147.703L148.791 14ZM142.407 10.064L144.583 5.776H144.599L146.791 10.064H142.407ZM153.497 14H159.321C163.769 14 165.465 12.112 165.465 8.736C165.465 5.76 163.801 3.472 158.857 3.472H153.497V14ZM156.569 11.728V5.744H159.017C161.497 5.744 162.393 7.072 162.393 8.736C162.393 10.672 161.497 11.728 159.225 11.728H156.569ZM166.834 14H176.946V11.728H169.906V9.6H175.186V7.808H169.906V5.744H176.786V3.472H166.834V14ZM185.68 16.432H187.68C186.016 14.848 184.624 12.384 184.624 9.456C184.624 6.528 186.016 3.92 187.68 2.32H185.68C183.872 3.904 182.576 6.432 182.576 9.456C182.576 12.496 183.872 14.864 185.68 16.432ZM188.564 14H198.676V11.728H191.636V9.6H196.916V7.808H191.636V5.744H198.516V3.472H188.564V14ZM210.986 14H214.554L208.826 3.472H205.178L199.45 14H202.618L203.706 11.856H209.898L210.986 14ZM204.602 10.064L206.778 5.776H206.794L208.986 10.064H204.602ZM220.875 14.192C223.499 14.192 224.763 13.232 225.115 11.872H225.147C225.147 12.64 225.131 13.536 225.115 14H227.483V8.56H221.019V10.192H224.411V10.24C224.411 10.992 223.579 12.16 221.387 12.16C218.811 12.16 217.851 10.672 217.851 8.896C217.851 7.008 219.019 5.552 221.435 5.552C223.771 5.552 224.587 6.576 224.587 7.392V7.504H227.323C227.339 7.392 227.339 7.328 227.339 7.28C227.339 5.312 225.947 3.28 221.339 3.28C216.763 3.28 214.699 5.84 214.699 8.88C214.699 11.648 216.379 14.192 220.875 14.192ZM229.013 14H238.325V11.568H232.085V3.472H229.013V14ZM239.537 14H249.649V11.728H242.609V9.6H247.889V7.808H242.609V5.744H249.489V3.472H239.537V14ZM250.183 16.432H252.167C253.975 14.864 255.287 12.496 255.287 9.456C255.287 6.432 253.975 3.904 252.167 2.32H250.183C251.831 3.92 253.223 6.528 253.223 9.456C253.223 12.384 251.831 14.848 250.183 16.432ZM2.616 34H3.48V26.864H6.6V26.096H3.48V25.264C3.48 24.016 4.104 23.392 5.24 23.392C5.768 23.392 6.2 23.504 6.472 23.6V22.816C6.2 22.72 5.72 22.608 5.16 22.608C3.576 22.608 2.616 23.52 2.616 25.264V26.096H1.224V26.864H2.616V34ZM10.9023 34.128C13.2383 34.128 14.8223 32.576 14.8223 30.064C14.8223 27.536 13.2383 25.968 10.9023 25.968C8.55032 25.968 6.98232 27.536 6.98232 30.064C6.98232 32.576 8.55032 34.128 10.9023 34.128ZM10.9023 33.344C9.09432 33.344 7.84632 32.096 7.84632 30.064C7.84632 28.016 9.09432 26.752 10.9023 26.752C12.7103 26.752 13.9583 28.016 13.9583 30.064C13.9583 32.096 12.7103 33.344 10.9023 33.344ZM19.9168 34.128C21.8048 34.128 23.1008 33.072 23.4528 31.552H23.4688C23.4688 32.448 23.4528 33.472 23.4368 34H24.3008V26.096H23.4368V29.776C23.4368 31.936 22.0448 33.344 20.1248 33.344C18.3648 33.344 17.4688 32.32 17.4688 30.848V26.096H16.6048V30.976C16.6048 32.848 17.7408 34.128 19.9168 34.128ZM26.4281 34H27.2921V29.952C27.2921 27.92 28.6041 26.752 30.5241 26.752C32.3321 26.752 33.2601 27.664 33.2601 29.264V34H34.1241V29.104C34.1241 27.12 32.8921 25.968 30.7801 25.968C28.8921 25.968 27.7081 26.848 27.2761 28.288H27.2601L27.2921 26.096H26.4281V34ZM39.6914 34.128C41.4994 34.128 42.6674 33.104 42.9714 31.696H43.0034C42.9874 32.464 42.9714 33.232 42.9394 34H43.8034V22.912H42.9394V27.856H42.9234C42.5714 26.64 41.4674 25.968 39.7714 25.968C37.4194 25.968 35.9154 27.616 35.9154 29.952C35.9154 32.512 37.4034 34.128 39.6914 34.128ZM39.8034 33.344C37.9794 33.344 36.7794 32.016 36.7794 29.952C36.7794 28.096 37.9954 26.752 39.8354 26.752C41.7074 26.752 42.9394 27.808 42.9394 29.76V30.144C42.9394 31.872 41.7874 33.344 39.8034 33.344ZM53.1117 29.664C53.1117 27.28 51.7837 25.968 49.6077 25.968C47.2717 25.968 45.7837 27.552 45.7837 30.112C45.7837 32.592 47.2877 34.128 49.6397 34.128C51.6397 34.128 53.0317 33.072 53.1117 31.376H52.2957C52.1837 32.608 51.1277 33.376 49.6397 33.376C47.8317 33.376 46.6637 32.16 46.6477 30.144H53.1117V29.664ZM52.2957 29.488H46.6797C46.8877 27.712 47.9917 26.72 49.6397 26.72C51.2717 26.72 52.2957 27.664 52.2957 29.408V29.488ZM55.0018 34H55.8658V30.32C55.8658 28.16 56.9698 26.752 58.6498 26.752C60.0578 26.752 60.7298 27.584 60.7298 29.248C60.7298 29.664 60.6978 30.08 60.6658 30.32H61.4658C61.4978 30.048 61.5298 29.552 61.5298 29.088C61.5298 27.088 60.5858 25.968 58.8258 25.968C57.1778 25.968 56.2018 27.008 55.8498 28.448H55.8338L55.8658 26.096H55.0018V34ZM76.2989 33.296C75.6109 33.296 74.8429 32.976 74.0589 32.336C74.9709 31.184 75.5789 29.6 75.8829 28.064H75.0669C74.7789 29.488 74.2669 30.832 73.4829 31.824C72.5389 30.896 71.4829 29.584 70.7789 28.336L70.7949 28.32C72.7629 27.968 73.8029 26.976 73.8029 25.536C73.8029 24.208 72.9229 23.312 71.4989 23.312C70.0269 23.312 69.0989 24.208 69.0989 25.712C69.0989 26.304 69.2749 27.024 69.6429 27.84C67.8989 28.224 66.8429 29.392 66.8429 31.008C66.8429 32.832 68.1869 34.16 70.3309 34.16C71.5949 34.16 72.6349 33.712 73.4829 32.96C74.3949 33.696 75.3389 34.096 76.2189 34.096C76.3309 34.096 76.4429 34.08 76.5229 34.064V33.28C76.4269 33.296 76.3469 33.296 76.2989 33.296ZM71.4989 24.096C72.4269 24.096 72.9869 24.688 72.9869 25.552C72.9869 26.64 72.2029 27.344 70.4589 27.68C70.1389 26.976 69.9469 26.352 69.9469 25.712C69.9469 24.704 70.5709 24.096 71.4989 24.096ZM67.7069 31.008C67.7069 29.728 68.5229 28.816 69.9309 28.512H69.9629C70.6669 29.856 71.7709 31.312 72.9069 32.432C72.2349 33.024 71.3869 33.376 70.3629 33.376C68.7469 33.376 67.7069 32.352 67.7069 31.008ZM81.647 34H82.511V29.92C82.511 27.904 83.583 26.752 85.103 26.752C86.479 26.752 87.231 27.616 87.231 29.104V34H88.095V29.856C88.095 27.872 89.167 26.752 90.703 26.752C92.079 26.752 92.831 27.632 92.831 29.2V34H93.695V29.04C93.695 27.088 92.671 25.968 90.911 25.968C89.471 25.968 88.351 26.784 88.063 28.112H88.047C87.855 26.768 86.863 25.968 85.327 25.968C83.919 25.968 82.831 26.8 82.495 28.24H82.479L82.511 26.096H81.647V34ZM98.422 34.128C100.358 34.128 101.558 33.28 101.878 31.952H101.894C101.894 32.704 101.862 33.552 101.862 34H102.726V29.056C102.726 27.088 101.366 25.968 99.142 25.968C97.062 25.968 95.734 26.896 95.734 28.448C95.734 28.608 95.75 28.832 95.766 28.928H96.566C96.55 28.816 96.55 28.672 96.55 28.56C96.55 27.376 97.526 26.72 99.126 26.72C100.854 26.72 101.862 27.504 101.862 28.992V29.728H98.342C96.262 29.728 95.494 30.656 95.494 31.776C95.494 33.232 96.678 34.128 98.422 34.128ZM98.582 33.376C97.222 33.376 96.31 32.768 96.31 31.776C96.31 30.928 96.87 30.384 98.422 30.384H101.862V30.496C101.862 32.288 100.566 33.376 98.582 33.376ZM104.774 34H105.638V30.32C105.638 28.16 106.742 26.752 108.422 26.752C109.83 26.752 110.502 27.584 110.502 29.248C110.502 29.664 110.47 30.08 110.438 30.32H111.238C111.27 30.048 111.302 29.552 111.302 29.088C111.302 27.088 110.358 25.968 108.598 25.968C106.95 25.968 105.974 27.008 105.622 28.448H105.606L105.638 26.096H104.774V34ZM113.27 34H114.134V31.808L116.07 30.192L119.958 34H121.206L116.726 29.632L120.966 26.096H119.734L114.15 30.848H114.134V22.912H113.27V34ZM129.239 29.664C129.239 27.28 127.911 25.968 125.735 25.968C123.399 25.968 121.911 27.552 121.911 30.112C121.911 32.592 123.415 34.128 125.767 34.128C127.767 34.128 129.159 33.072 129.239 31.376H128.423C128.311 32.608 127.255 33.376 125.767 33.376C123.959 33.376 122.791 32.16 122.775 30.144H129.239V29.664ZM128.423 29.488H122.807C123.015 27.712 124.119 26.72 125.767 26.72C127.399 26.72 128.423 27.664 128.423 29.408V29.488ZM134.153 34.048C134.713 34.048 135.209 33.936 135.433 33.856V33.104C135.241 33.168 134.729 33.28 134.217 33.28C132.953 33.28 132.473 32.496 132.473 31.168V26.864H135.481V26.096H132.473V24.304H131.721L131.689 25.6C131.673 25.984 131.577 26.096 131.353 26.096H130.233V26.864H131.609V31.216C131.609 32.928 132.377 34.048 134.153 34.048ZM137.233 25.024H138.177V23.536H137.233V25.024ZM137.281 34H138.145V26.096H137.281V34ZM140.381 34H141.245V29.952C141.245 27.92 142.557 26.752 144.477 26.752C146.285 26.752 147.213 27.664 147.213 29.264V34H148.077V29.104C148.077 27.12 146.845 25.968 144.733 25.968C142.845 25.968 141.661 26.848 141.229 28.288H141.213L141.245 26.096H140.381V34ZM155.245 33.024H152.701C152.013 33.024 151.645 32.672 151.645 32.096C151.645 31.76 151.757 31.472 151.901 31.344C152.333 31.504 152.829 31.6 153.405 31.6C155.389 31.6 156.621 30.496 156.621 28.784C156.621 28.112 156.429 27.536 156.077 27.072C155.917 26.704 155.805 26.336 155.805 26.032C155.805 25.552 156.125 25.312 156.653 25.312C156.941 25.312 157.149 25.376 157.245 25.424V24.704C157.133 24.656 156.909 24.592 156.557 24.592C155.725 24.592 155.229 24.992 155.229 25.648C155.229 26 155.357 26.32 155.517 26.528V26.544C154.973 26.176 154.253 25.968 153.405 25.968C151.421 25.968 150.189 27.072 150.189 28.784C150.189 29.792 150.605 30.576 151.357 31.072V31.104C151.117 31.28 150.893 31.664 150.893 32.224C150.893 32.768 151.133 33.2 151.533 33.472V33.488C150.525 33.488 149.805 34.16 149.805 35.088C149.805 36.544 151.309 37.376 153.821 37.376C156.205 37.376 157.629 36.432 157.629 34.88C157.629 33.712 156.765 33.024 155.245 33.024ZM153.405 26.72C154.877 26.72 155.773 27.52 155.773 28.784C155.773 30.048 154.877 30.848 153.405 30.848C151.933 30.848 151.037 30.048 151.037 28.784C151.037 27.52 151.933 26.72 153.405 26.72ZM153.821 36.624C151.869 36.624 150.669 36.096 150.669 35.056C150.669 34.208 151.421 33.776 152.701 33.776H155.133C156.205 33.776 156.765 34.192 156.765 34.96C156.765 35.952 155.853 36.624 153.821 36.624ZM168.745 36.56C170.361 36.56 171.993 36.304 173.017 35.904L172.985 35.232C172.073 35.6 170.409 35.904 168.761 35.888C165.241 35.888 163.161 34.08 163.161 30.64C163.161 26.592 165.897 23.952 169.161 23.952C172.713 23.952 174.393 25.488 174.393 28.288C174.393 30.784 173.273 32.896 172.153 32.896C171.593 32.896 171.385 32.576 171.385 32C171.385 31.6 171.465 31.104 171.577 30.448L172.361 26.288H171.225L170.953 27.264H170.937C170.617 26.608 169.945 26.16 168.857 26.16C166.649 26.16 165.209 28.656 165.209 30.896C165.209 32.448 166.041 33.68 167.657 33.68C169.113 33.68 169.881 32.784 170.249 31.456H170.281C170.025 32.832 170.505 33.68 171.817 33.68C173.625 33.68 175.113 31.504 175.113 28.288C175.113 25.216 173.193 23.28 169.177 23.28C165.449 23.28 162.441 26.208 162.441 30.64C162.441 34.56 164.921 36.56 168.745 36.56ZM167.897 32.608C166.953 32.608 166.441 31.92 166.441 30.848C166.441 29.248 167.417 27.232 168.985 27.232C169.865 27.232 170.505 27.664 170.745 28.176L170.505 29.424C170.153 31.264 169.177 32.608 167.897 32.608ZM176.812 34H178.092V24.448H178.124L184.412 34H185.996V23.472H184.716V32.208H184.684L178.972 23.472H176.812V34ZM193.197 34.16C195.293 34.16 196.461 33.248 196.781 32.048H196.797C196.765 32.816 196.717 33.568 196.669 34H197.933V28.944H192.893V29.936H196.589V30.24C196.589 31.824 195.293 33.008 193.197 33.008C191.085 33.008 189.325 31.392 189.325 28.848C189.325 26.224 191.053 24.528 193.277 24.528C195.181 24.528 196.589 25.52 196.589 27.2C196.589 27.36 196.589 27.552 196.573 27.76H197.821C197.837 27.504 197.837 27.264 197.837 27.136C197.837 24.736 195.933 23.312 193.277 23.312C190.285 23.312 187.981 25.536 187.981 28.832C187.981 32.096 190.205 34.16 193.197 34.16ZM200.3 34H201.676V32.176H200.3V34ZM209.014 34.16C211.702 34.16 213.686 32.528 213.686 30.16V29.904H212.438V30.096C212.438 31.776 210.95 32.944 209.014 32.944C206.806 32.944 205.062 31.312 205.062 28.752C205.062 26.176 206.726 24.528 209.014 24.528C210.934 24.528 212.39 25.728 212.39 27.504V27.792H213.622C213.638 27.584 213.638 27.44 213.638 27.408C213.638 24.976 211.686 23.312 209.014 23.312C205.894 23.312 203.718 25.44 203.718 28.752C203.718 32.048 205.958 34.16 209.014 34.16ZM223.317 34H224.885L220.437 23.472H218.837L214.389 34H215.797L216.837 31.44H222.293L223.317 34ZM217.237 30.448L219.573 24.704H219.605L221.893 30.448H217.237ZM229.899 34.16C233.339 34.16 234.331 32.576 234.331 30.976C234.331 30.016 233.899 29.28 233.195 28.928C232.507 28.576 231.403 28.4 230.347 28.256C229.435 28.128 228.171 27.936 227.659 27.68C227.211 27.456 226.955 27.056 226.955 26.384C226.955 25.232 228.171 24.464 229.883 24.464C231.691 24.464 232.715 25.264 232.715 27.104H233.963C233.963 24.672 232.795 23.312 229.851 23.312C227.339 23.312 225.611 24.624 225.611 26.496C225.611 27.488 226.043 28.192 226.651 28.56C227.227 28.912 228.379 29.168 229.467 29.296C230.379 29.424 231.579 29.552 232.155 29.792C232.699 30.016 232.987 30.384 232.987 31.056C232.987 32.064 232.315 33.008 229.899 33.008C227.659 33.008 226.891 31.936 226.891 30.416H225.643C225.643 32.32 226.523 34.16 229.899 34.16ZM236.303 34H237.647V29.072H244.111V34H245.455V23.472H244.111V27.952H237.647V23.472H236.303V34Z" fill="white"/>
<line x1="3.99082e-08" y1="49.0162" x2="295.228" y2="49.0162" stroke="white" stroke-width="0.912994"/>
<path d="M295.407 65.3246C295.407 53.8472 291.239 49.7326 279.815 49.7326C291.293 49.7326 295.407 45.5639 295.407 34.1406C295.407 45.6181 299.576 49.7326 310.999 49.7326C299.576 49.6785 295.407 53.8472 295.407 65.3246Z" fill="white"/>
</svg>
