<svg width="188" height="32" viewBox="0 0 188 32" fill="none" xmlns="http://www.w3.org/2000/svg">
<g clip-path="url(#clip0_1_2)">
<path d="M138.242 17.5231L180.466 17.5231L169.631 28.3471C169.165 28.8123 169.165 29.5876 169.631 30.0838L170.624 31.1073C171.121 31.5725 171.866 31.5725 172.363 31.1073L187.234 16.2516C187.576 15.9104 187.576 15.3211 187.234 14.98L172.611 0.372357C172.114 -0.0928551 171.369 -0.092855 170.872 0.372357L169.879 1.36481C169.413 1.83002 169.413 2.60537 169.879 3.10159L180.466 13.6774L138.242 13.6774C137.559 13.6774 137 14.2046 137 14.8869C137 14.8869 137 14.8869 137 14.918L137 16.3446C137 16.9959 137.559 17.5231 138.242 17.5231Z" fill="white"/>
</g>
<rect y="13.7246" width="139" height="4" fill="white"/>
<defs>
<clipPath id="clip0_1_2">
<rect width="31.4483" height="50.4828" fill="white" transform="translate(137 31.4483) rotate(-90)"/>
</clipPath>
</defs>
</svg>
