<svg width="188" height="32" viewBox="0 0 188 32" fill="none" xmlns="http://www.w3.org/2000/svg">
<g clip-path="url(#clip0_1_13)">
<path d="M49.2406 14.2015L7.01639 14.2015L17.8519 3.37755C18.3176 2.91234 18.3176 2.13699 17.8519 1.64077L16.8584 0.617301C16.3616 0.15209 15.6165 0.15209 15.1197 0.617301L0.248103 15.473C-0.0934159 15.8142 -0.0934159 16.4035 0.248103 16.7446L14.8713 31.3522C15.3681 31.8175 16.1132 31.8175 16.61 31.3522L17.6035 30.3598C18.0692 29.8946 18.0692 29.1192 17.6035 28.623L7.01639 18.0472L49.2406 18.0472C49.9236 18.0472 50.4825 17.52 50.4825 16.8377C50.4825 16.8377 50.4825 16.8377 50.4825 16.8067L50.4825 15.38C50.4825 14.7287 49.9236 14.2015 49.2406 14.2015Z" fill="white"/>
</g>
<rect x="187.482" y="18" width="139" height="4" transform="rotate(-180 187.482 18)" fill="white"/>
<defs>
<clipPath id="clip0_1_13">
<rect width="31.4483" height="50.4828" fill="white" transform="translate(50.4824 0.276337) rotate(90)"/>
</clipPath>
</defs>
</svg>
